<svg version="1.1" xmlns="http://www.w3.org/2000/svg" xmlns:xlink="http://www.w3.org/1999/xlink" width="243.43372" height="337.31385" viewBox="0,0,243.43372,337.31385"><g transform="translate(-194.66504,-23.20118)"><g data-paper-data="{&quot;isPaintingLayer&quot;:true}" fill-rule="nonzero" stroke-linejoin="miter" stroke-miterlimit="10" stroke-dasharray="" stroke-dashoffset="0" style="mix-blend-mode: normal"><g><path d="M380.59871,195.43252c-14.66064,3.56209 -25.01454,-1.73006 -29.21387,-16.06448c-3.28438,-11.21108 5.88014,-26.8327 20.54081,-30.3948c14.66071,-3.56213 27.61256,3.32359 31.13919,17.83814c0.55151,2.2698 0.38683,4.52826 0.2557,6.5924c-0.70751,11.13508 -10.35377,19.0237 -22.72179,22.02876z" fill="#216aff" stroke="#000000" stroke-width="2" stroke-linecap="butt"/><path d="M360.69065,156.93319c0,0 0.9262,5.68096 2.76832,6.46837c17.66982,7.55321 31.52424,5.25683 36.04856,4.14762c1.0279,-0.252 1.36,-1.32464 1.36,-1.32464c0,0 0.71202,1.99027 0.76729,4.73087c0.05881,2.91625 -0.57938,6.67078 -2.00808,9.39182c-1.63202,3.10815 -7.27873,9.24193 -7.27873,9.24193l-19.3362,8.06043c0,0 -12.04966,-5.98003 -13.53983,-7.55365c-1.45987,-1.54164 -2.7452,-3.78455 -4.20777,-6.11433c-2.27083,-3.6173 -3.19881,-8.06092 -2.97088,-10.93195c0.29093,-3.66409 2.13763,-7.9468 4.23184,-11.13688c1.94905,-2.96898 4.1655,-4.97939 4.1655,-4.97939z" fill="#3236f4" stroke="none" stroke-width="0" stroke-linecap="butt"/><path d="M368.72627,180.01128c0,0 -3.90017,-8.13554 -2.83841,-13.18061c1.34406,-6.38654 7.44635,-17.82613 7.44635,-17.82613" fill="none" stroke="#000000" stroke-width="1" stroke-linecap="round"/><path d="M399.84886,160.49459c0,0 0.18544,7.14811 -0.73173,11.34698c-0.9259,4.23899 -6.20533,12.38025 -6.20533,12.38025" fill="none" stroke="#000000" stroke-width="1" stroke-linecap="round"/><path d="M359.22466,185.49541c0,0 -4.1282,-8.2912 -2.72933,-13.70344c2.14651,-8.30486 7.17086,-18.75722 7.17086,-18.75722" fill="none" stroke="#000000" stroke-width="1" stroke-linecap="round"/><path d="M351.69656,172.1941c0,0 10.83692,-13.49209 28.22804,-12.44653c19.04976,1.14526 22.80377,17.97969 22.80377,17.97969" fill="none" stroke="#000000" stroke-width="1" stroke-linecap="round"/><path d="M352.69037,181.66602c0,0 13.27821,-11.85544 28.62644,-10.96584c12.6023,0.73047 17.09085,14.61471 17.09085,14.61471" fill="none" stroke="#000000" stroke-width="1" stroke-linecap="round"/><path d="M386.49658,153.95021c-1.1449,-0.3693 -1.83596,-1.40346 -1.54361,-2.30978c0.29231,-0.90637 1.05687,-0.68404 2.20177,-0.31472c1.1449,0.3693 2.23654,0.74575 1.94419,1.65209c-0.29231,0.90637 -1.45749,1.34175 -2.60233,0.9724z" fill="#8fbbbe" stroke="none" stroke-width="0" stroke-linecap="butt"/><path d="M393.04753,157.10358c-0.58449,0.14198 -1.23097,-0.45358 -1.44398,-1.3303c-0.21302,-0.8767 -0.17895,-1.26409 0.4055,-1.40612c0.58449,-0.14198 1.40736,0.41073 1.62035,1.28744c0.21302,0.8767 0.00255,1.30694 -0.5819,1.44895z" fill="#8fbbbe" stroke="none" stroke-width="0" stroke-linecap="butt"/><path d="M379.89281,151.88774c-0.89445,0.11837 -1.68347,-0.269 -1.7624,-0.86527c-0.07897,-0.59622 0.71073,-0.6465 1.60514,-0.7649c0.89445,-0.11837 1.55488,-0.26016 1.63383,0.33613c0.07897,0.59622 -0.58216,1.17563 -1.4766,1.29404z" fill="#8fbbbe" stroke="none" stroke-width="0" stroke-linecap="butt"/><path d="M357.54378,160.12616c0,0 8.61987,-5.51156 16.06079,-6.94422c4.21864,-0.81223 8.21712,-0.07177 11.24231,0.52358c2.67532,0.52645 8.11309,4.2219 11.9809,7.48355c2.84765,2.40139 4.70237,4.68763 4.70237,4.68763" fill="none" stroke="#000000" stroke-width="0.5" stroke-linecap="round"/><path d="M390.14648,149.77635c0,0 2.09933,10.36197 1.16141,15.68527c-0.79019,4.48499 -6.06939,14.08682 -6.06939,14.08682" fill="none" stroke="#000000" stroke-width="1" stroke-linecap="round"/><path d="M379.38499,179.28947c0,0 -1.81345,-9.49418 -1.51531,-14.00661c0.5235,-7.92293 5.77047,-16.91438 5.77047,-16.91438" fill="none" stroke="#000000" stroke-width="1" stroke-linecap="round"/></g><path d="M361.68641,316.44211c0,0 4.41738,-54.03633 5.38717,-78.24167c0.83049,-20.72818 -3.89439,-52.71129 -3.89439,-52.71129l24.61683,-5.39541l-2.49764,137.29439z" fill="#000000" stroke="none" stroke-width="0" stroke-linecap="butt"/><path d="M403.16944,189.90685c-0.21978,5.4853 -11.64058,9.48156 -25.50907,8.92591c-13.86849,-0.55565 -24.93297,-5.4528 -24.71319,-10.9381c0.21978,-5.4853 11.64057,-9.48156 25.50906,-8.92591c13.86849,0.55565 24.93297,5.4528 24.7132,10.9381z" fill="#000000" stroke="none" stroke-width="NaN" stroke-linecap="butt"/><g data-paper-data="{&quot;index&quot;:null}" stroke="#000000" stroke-linecap="butt"><path d="M337.44482,219.99145c25.17011,-21.85828 34.58352,-19.75048 39.88892,-13.64121c5.30543,6.10926 -10.79811,28.78143 -35.96823,50.6397c-25.17013,21.85827 -24.64867,-50.35818 -29.95407,-56.46744c-0.95781,-7.0293 5.42979,-5.68899 10.83746,0.01301c6.66895,7.03193 13.04448,21.3243 15.19594,19.45593z" fill="#216aff" stroke-width="2"/><path d="M348.42852,194.44327c10.80364,-9.38214 27.36317,-8.00435 36.98675,3.07732c9.62357,11.08169 8.66696,27.6709 -2.1367,37.05303c-10.80364,9.38214 -27.36319,8.00437 -36.98678,-3.07732c-9.62357,-11.08169 -8.66694,-27.67088 2.13671,-37.05302z" fill="#faddbf" stroke-width="2"/><path d="M365.67268,232.09809c10.80364,-9.38214 9.21255,-45.39524 18.83612,-34.31355c9.62357,11.08169 8.66694,27.67089 -2.1367,37.05302c-10.80364,9.38214 -27.50309,6.64269 -16.69943,-2.73945z" fill="#ef8b89" stroke-width="0"/></g><path d="M224.78117,360.17126v-93.89347h213.03043v93.89347z" fill="#000000" stroke="none" stroke-width="NaN" stroke-linecap="butt"/><g stroke="#000000" stroke-linecap="butt"><path d="M352.82006,336.65l-48.98375,-81.74175l25.29754,-15.15955l48.98375,81.74176z" fill="#73fffc" stroke-width="2"/><path d="M352.22301,336.28739l-47.07036,-81.12894c0,0 39.47416,55.75071 45.32389,63.22265c1.2932,1.65181 3.59762,1.09658 3.59762,1.09658l22.71401,1.70609z" fill="#59a9e6" stroke-width="0"/></g><g fill="none" stroke="#808080" stroke-width="0.5" stroke-linecap="round"><path d="M437.84876,280.63433l-193.59492,1.15407l-17.0225,-13.84882"/><path d="M243.96532,281.78839l-2.01962,78.47663"/></g><g stroke="#000000" stroke-linecap="butt"><path d="M281.51719,332.55266l-30.5221,-90.27471l27.93833,-9.44602l30.5221,90.27471z" fill="#73fffc" stroke-width="2"/><path d="M281.01069,332.07164l-28.78233,-89.26981c0,0 26.74453,62.85763 30.87545,71.40074c0.91321,1.88862 3.28297,1.83503 3.28297,1.83503l21.83467,6.48727z" fill="#59a9e6" stroke-width="0"/></g><g stroke="#000000" stroke-linecap="butt"><path d="M321.42882,212.12955c3.66534,13.30714 19.44411,32.75654 17.10978,43.47722c-2.85473,13.11066 -25.16971,16.3673 -35.12622,19.10974c-13.17232,3.6282 -30.65387,12.76882 -40.90629,-4.11723c-3.8338,-6.31439 -4.39839,-32.36671 -6.61595,-40.41765c-8.14779,-29.58088 -0.08156,-57.60202 18.01645,-62.58696c18.09801,-4.98494 39.37444,14.95402 47.52224,44.5349z" fill="#216aff" stroke-width="2"/><path d="M276.14213,240.76004c3.66534,13.30714 65.27125,3.33572 62.9369,14.0564c-2.85474,13.11065 -25.16972,16.3673 -35.12623,19.10974c-13.17232,3.6282 -30.65385,12.76882 -40.90627,-4.11723c-3.83381,-6.31439 -4.39839,-32.36673 -6.61595,-40.41765c-2.51012,-9.11307 -4.36594,-28.46046 -2.63674,-30.3579c1.27875,-17.74068 16.76552,21.45826 22.34828,41.72664z" fill="#3236f4" stroke-width="0"/></g><g stroke="#000000" stroke-linecap="butt"><g><path d="M198.02602,105.28895c3.5601,-46.65515 44.2676,-81.59061 90.92276,-78.0305c46.65515,3.56011 81.59061,44.2676 78.03051,90.92276c-3.5601,46.65515 -44.26761,81.59061 -90.92276,78.03051c-46.65515,-3.5601 -81.59061,-44.26761 -78.03051,-90.92276z" fill="#faddbf" stroke-width="2"/><path d="M198.32229,104.4395c1.1454,-15.01064 11.75254,-40.23361 16.49307,-43.09538c0.54137,-0.32683 6.44759,-8.44421 14.45733,-14.56906c9.95557,-7.61277 22.40614,-13.49074 23.00014,-13.24776c7.75001,3.16985 -22.41025,63.33341 -23.09914,88.6443c-0.00165,0.06036 2.89567,19.97981 4.47606,20.5406c2.51629,4.94828 7.62721,19.79106 17.93373,27.73839c19.20738,14.81082 47.30262,23.34685 45.78514,23.73826c-2.42741,0.62612 -14.97048,1.63474 -21.01582,1.17344c-46.65515,-3.5601 -81.59061,-44.2676 -78.03051,-90.92275z" fill="#ef8b89" stroke-width="0"/><path d="M366.49224,117.6845c-0.88444,11.59064 -2.76332,15.47532 -3.17289,13.58696c-0.41784,-1.92647 0.56054,-9.79937 -7.90177,-15.2948c-2.05058,-1.33164 -10.65417,5.48131 -13.28043,4.0492c-1.64959,-0.89953 -7.85286,-10.80435 -9.70955,-11.62403c-1.29817,-0.57311 -13.05142,7.40602 -14.41263,6.85019c-3.39488,-1.38626 -11.0884,-12.25273 -14.77868,-13.19425c-2.03211,-0.51846 -10.15749,11.10914 -12.24108,10.69555c-2.68706,-0.53337 -9.12119,-12.79952 -11.85066,-13.00779c-7.25876,-0.55388 -7.99152,6.42135 -13.67114,12.01166c-3.69075,3.63271 -12.95481,-14.07836 -16.40702,-9.8937c-4.28725,5.19685 -8.52062,10.19897 -13.02323,13.46548c-3.53247,2.56271 -12.5572,-11.08441 -15.62402,-8.69304c-14.8075,11.54617 -23.7298,18.89299 -22.34718,0.77385c2.78017,-36.43423 43.7871,-4.89613 87.08622,-23.17643c41.4455,-17.49771 84.11424,-2.98308 81.33406,33.45114z" fill="#ef8b89" stroke-width="0"/></g><path d="M368.65398,109.51441c-1.78673,23.41527 5.84966,9.18701 -11.36809,-1.73022c-2.10696,-1.33595 -10.92223,5.46085 -13.62013,4.02328c-1.69459,-0.90298 -8.0801,-10.82168 -9.98707,-11.6452c-1.33332,-0.57578 -13.37843,7.38107 -14.77638,6.82244c-3.48656,-1.39326 -11.40326,-12.27676 -15.19205,-13.22579c-2.08636,-0.5226 -10.40129,11.09053 -12.54028,10.67272c-2.75849,-0.5388 -9.38566,-12.81969 -12.18699,-13.03345c-7.44995,-0.56848 -8.18797,6.40636 -14.00516,11.98617c-3.78016,3.62588 -13.3222,-14.10639 -16.85646,-9.92799c-4.38913,5.18908 -8.72337,10.18349 -13.33736,13.44152c-3.61986,2.55604 -12.90821,-11.1112 -16.05056,-8.7256c-15.1722,11.51836 -24.31349,18.84844 -22.93088,0.72931c2.78017,-36.43423 45.92957,-77.98846 91.72328,-74.49411c45.79371,3.49437 83.90836,48.67272 81.12818,85.10695z" fill="#724e36" stroke-width="2"/><path d="M368.49546,108.33614c-1.78673,23.41527 5.84966,9.18701 -11.36809,-1.73023c-2.10696,-1.33595 -10.92223,5.46086 -13.62013,4.02329c-1.69459,-0.90298 -8.0801,-10.82169 -9.98707,-11.6452c-1.33332,-0.57578 -13.37843,7.38106 -14.77638,6.82243c-3.48656,-1.39326 -11.40327,-12.27675 -15.19205,-13.22579c-2.08636,-0.5226 -10.40128,11.09053 -12.54027,10.67272c-2.75849,-0.5388 -9.38565,-12.8197 -12.18699,-13.03346c-7.44995,-0.56848 -8.18797,6.40636 -14.00516,11.98617c-3.78016,3.62588 -13.3222,-14.10639 -16.85646,-9.928c-4.38913,5.18908 -8.72338,10.1835 -13.33737,13.44152c-3.61986,2.55604 -12.90821,-11.1112 -16.05056,-8.72561c-15.1722,11.51836 -24.3135,18.84844 -22.93089,0.72931c2.78017,-36.43423 44.924,-4.80938 89.32054,-23.00592c42.49592,-17.41755 86.31108,-2.81544 83.53092,33.61878z" fill="#623728" stroke-width="0"/></g><g stroke="#000000" stroke-linecap="butt"><path d="M323.21621,132.48795c-2.17292,28.47616 -16.42382,42.16207 -32.94434,40.90144c-16.52051,-1.26063 -29.05465,-16.99043 -26.88174,-45.46658c2.17292,-28.47615 17.32695,-50.53869 33.84746,-49.27807c16.52051,1.26063 28.15154,25.36705 25.97862,53.8432z" fill="#f0f0f0" stroke-width="2"/><path d="M278.08595,109.40489c-6.43824,27.82377 29.40379,64.46566 12.88328,63.20503c-16.52051,-1.26063 -29.05465,-16.99042 -26.88174,-45.46657c2.17292,-28.47615 23.30625,-57.9634 13.99847,-17.73845z" fill="#9a99ff" stroke-width="0"/></g><path d="M318.70664,140.40102c-1.20384,15.77635 -6.85506,28.20885 -12.62236,27.76876c-5.7673,-0.44009 -9.4667,-13.5861 -8.26287,-29.36245c1.20384,-15.77635 6.85506,-28.20884 12.62236,-27.76876c5.7673,0.44008 9.4667,13.5861 8.26287,29.36245z" fill="#000000" stroke="none" stroke-width="0" stroke-linecap="butt"/><g stroke="#000000" stroke-linecap="butt"><path d="M320.50664,102.1592c3.6682,10.53945 9.04825,56.00247 -6.61649,54.80715c-15.66472,-1.19531 -46.73985,-49.37095 -41.47663,-58.61251c5.00788,-8.79319 8.39972,-20.84023 24.06444,-19.6449c15.66472,1.1953 20.53284,13.40601 24.02867,23.45025z" fill="#a100fe" stroke-width="2"/><path d="M319.612,101.73566c3.51658,10.52787 9.82397,55.44994 -5.30664,54.29537c-15.13059,-1.15457 -46.25499,-48.72224 -41.1463,-57.97558c4.86085,-8.80442 6.46603,1.45822 21.59661,2.61279c15.13059,1.15457 21.50493,-8.96582 24.85629,1.06739z" fill="#99008e" stroke-width="0"/></g><g data-paper-data="{&quot;index&quot;:null}" stroke="#000000" stroke-linecap="butt"><path d="M360.89205,82.01908c16.52051,1.26063 28.15154,25.36705 25.97862,53.8432c-2.17292,28.47614 -16.94862,42.12202 -33.46913,40.8614c-16.52051,-1.26063 -28.52986,-16.95038 -26.35695,-45.42654c2.17292,-28.47615 17.32695,-50.53869 33.84746,-49.27807z" fill="#f0f0f0" stroke-width="2"/><path d="M386.29967,134.98602c-2.17292,28.47614 -16.94863,42.12203 -33.46914,40.86141c-16.52051,-1.26063 24.46621,-32.03999 22.3242,-60.51848c-3.09669,-41.17148 13.31785,-8.81909 11.14494,19.65708z" fill="#9a99ff" stroke-width="0"/></g><path d="M374.09352,115.72354c5.7673,0.44008 9.4667,13.5861 8.26287,29.36245c-1.20384,15.77635 -6.85505,28.20885 -12.62235,27.76876c-5.7673,-0.44009 -9.4667,-13.5861 -8.26287,-29.36245c1.20384,-15.77635 6.85505,-28.20884 12.62235,-27.76876z" data-paper-data="{&quot;index&quot;:null}" fill="#000000" stroke="none" stroke-width="0" stroke-linecap="butt"/><g data-paper-data="{&quot;index&quot;:null}" stroke="#000000" stroke-linecap="butt"><path d="M334.32459,101.73064c4.97937,-9.39753 11.64385,-20.72821 27.30856,-19.53288c15.66472,1.1953 17.18941,13.61753 20.80511,23.06876c3.80007,9.93314 -32.95231,53.75847 -48.61704,52.56315c-15.66472,-1.19531 -4.72151,-46.23814 0.50335,-56.09901z" fill="#a100fe" stroke-width="2"/><path d="M335.27313,101.44775c4.83488,-9.40856 9.59988,1.56183 24.73047,2.71641c15.13059,1.15457 18.27432,-8.74571 21.743,0.69431c3.64553,9.92134 -33.11454,53.56553 -48.24513,52.41096c-15.13059,-1.15457 -3.30161,-45.94923 1.77165,-55.82166z" fill="#99008e" stroke-width="0"/></g><path d="M402.7609,323.95945c1.80573,11.52216 -11.07516,23.1108 -28.77028,25.88395c-17.69512,2.77315 -33.50368,-4.31934 -35.30941,-15.8415c-0.36097,-2.30331 -2.16344,-13.58899 -1.2672,-15.12455c3.58715,-6.14597 18.4176,2.43929 32.57542,0.2205c17.69512,-2.77315 30.96574,-6.66057 32.77147,4.86159z" fill="#000082" stroke="#000000" stroke-width="2" stroke-linecap="butt"/><path d="M400.47433,321.55214c0.97672,6.23234 -12.14536,12.21788 -29.84049,14.99102c-17.69512,2.77315 -30.25981,1.74868 -31.23653,-4.48366c-0.19525,-1.24586 -1.97236,-12.36981 -0.97815,-13.28023c3.97927,-3.6439 16.2588,3.29501 30.41662,1.07622c17.69512,-2.77315 30.66182,-4.5357 31.63854,1.69664z" fill="#2e0048" stroke="#000000" stroke-width="0" stroke-linecap="butt"/><path d="M338.705,312.6192c3.73549,11.0484 -6.9912,24.65546 -23.95873,30.39222c-16.96753,5.73677 -33.75065,1.43083 -37.48613,-9.61756c-0.74673,-2.2086 -4.43886,-13.0245 -3.81631,-14.68992c2.49176,-6.66571 18.56437,-0.72263 32.14006,-5.3126c16.96753,-5.73677 29.38562,-11.82055 33.12111,-0.77215z" fill="#000082" stroke="#000000" stroke-width="2" stroke-linecap="butt"/><path d="M336.04295,310.63498c2.02053,5.97608 -9.89501,14.1023 -26.86255,19.83907c-16.96753,5.73677 -29.52377,6.86011 -31.54429,0.88404c-0.40391,-1.19463 -4.04359,-11.85545 -3.21836,-12.92143c3.30293,-4.26652 16.58217,0.48714 30.15785,-4.10282c16.96753,-5.73677 29.44683,-9.67493 31.46736,-3.69885z" fill="#2e0048" stroke="#000000" stroke-width="0" stroke-linecap="butt"/><g stroke="#000000" stroke-linecap="butt"><path d="M237.77484,231.03783c24.69762,22.39076 23.72471,31.9881 18.29006,37.98266c-5.43466,5.99457 -29.8617,-7.29719 -54.5593,-29.68797c-24.69761,-22.39077 47.06797,-30.46489 52.50264,-36.45946c6.8654,-1.7873 6.2946,4.71438 1.27644,10.76202c-6.18854,7.45818 -19.62088,15.48887 -17.50982,17.40274z" fill="#216aff" stroke-width="2"/><path d="M264.44831,238.90393c10.60085,9.61069 11.20302,26.21653 1.345,37.09017c-9.85801,10.87365 -26.4432,11.8975 -37.04406,2.28682c-10.60085,-9.61069 -11.203,-26.21653 -1.34499,-37.09019c9.85801,-10.87366 26.4432,-11.8975 37.04406,-2.28681z" fill="#faddbf" stroke-width="2"/><path d="M229.11257,260.5056c10.60085,9.61069 46.16886,3.74628 36.31084,14.61993c-9.85801,10.87365 -26.4432,11.8975 -37.04406,2.28681c-10.60085,-9.61069 -9.86764,-26.51743 0.73321,-16.90674z" fill="#ef8b89" stroke-width="0"/></g><path d="M265.51971,167.51844c0,7.85713 -5.5588,14.22659 -12.41593,14.22659c-6.85713,0 -12.41593,-6.36946 -12.41593,-14.22659c0,-7.85713 4.78281,-3.87998 11.63994,-3.87998c6.85713,0 13.19193,-3.97715 13.19193,3.87998z" fill="#000000" stroke="none" stroke-width="none" stroke-linecap="butt"/></g></g></svg>