<svg version="1.1" xmlns="http://www.w3.org/2000/svg" xmlns:xlink="http://www.w3.org/1999/xlink" width="187.45845" height="331.07011" viewBox="0,0,187.45845,331.07011"><g transform="translate(-206.24074,-29.91729)"><g data-paper-data="{&quot;isPaintingLayer&quot;:true}" fill-rule="nonzero" stroke-linejoin="miter" stroke-miterlimit="10" stroke-dasharray="" stroke-dashoffset="0" style="mix-blend-mode: normal"><g data-paper-data="{&quot;index&quot;:null}" stroke="#000000" stroke-linecap="butt"><path d="M277.15405,218.78358c2.39776,1.53956 6.65184,-13.52105 12.24029,-21.43887c4.53154,-6.42039 10.66002,-8.66526 10.72296,-1.57129c-4.37176,6.80868 6.52882,78.19961 -21.52288,60.18791c-28.0517,-18.01171 -47.24807,-38.1326 -42.87629,-44.94127c4.37177,-6.80867 13.38424,-10.24819 41.43593,7.76351z" fill="#216aff" stroke-width="2"/><path d="M262.61076,195.08033c12.04048,7.73109 15.37267,24.01031 7.44263,36.36067c-7.93005,12.35037 -24.11937,16.09504 -36.15986,8.36395c-12.0405,-7.73107 -15.37267,-24.01031 -7.44263,-36.36067c7.93005,-12.35036 24.11936,-16.09503 36.15985,-8.36394z" fill="#faddbf" stroke-width="2"/><path d="M250.96047,234.82347c12.04051,7.73109 -4.09145,12.84341 -16.13194,5.11232c-12.0405,-7.73107 -15.37267,-24.01031 -7.44263,-36.36067c7.93004,-12.35036 11.53408,23.51727 23.57457,31.24836z" fill="#ef8b89" stroke-width="0"/></g><g data-paper-data="{&quot;index&quot;:null}" stroke="#000000" stroke-linecap="butt"><path d="M276.17105,340.83535v-95.29492h29.49199v95.29492z" fill="#73fffc" stroke-width="2"/><path d="M277.15376,339.88894l18.60659,-13.13896c0,0 2.26208,-0.70825 2.52228,-2.78987c1.17702,-9.41615 6.3799,-77.52842 6.3799,-77.52842l1.32626,93.78573z" fill="#59a9e6" stroke-width="0"/></g><g data-paper-data="{&quot;index&quot;:null}" stroke="#000000" stroke-linecap="butt"><path d="M315.51243,338.4128v-95.29492h29.49199v95.29492z" fill="#73fffc" stroke-width="2"/><path d="M316.49514,337.46642l18.60659,-13.13896c0,0 2.26208,-0.70825 2.52228,-2.78987c1.17702,-9.41615 6.3799,-77.52842 6.3799,-77.52842l1.32626,93.78573z" fill="#59a9e6" stroke-width="0"/></g><g data-paper-data="{&quot;index&quot;:null}" stroke="#000000" stroke-linecap="butt"><path d="M312.18874,180.14032c18.77199,0 33.98969,24.87307 33.98969,55.55556c0,8.35076 6.37392,33.61764 4.35457,40.7234c-5.40019,19.00234 -24.68139,14.83216 -38.34426,14.83216c-10.32729,0 -32.7059,2.78608 -38.9397,-9.09579c-5.09742,-9.71589 4.95001,-32.65706 4.95001,-46.45977c0,-30.68249 15.2177,-55.55556 33.98969,-55.55556z" fill="#216aff" stroke-width="2"/><path d="M339.92798,205.10931c2.17098,1.37012 5.51953,20.51569 5.51953,29.96813c0,8.35075 6.37393,33.61764 4.35457,40.7234c-5.40019,19.00233 -24.68138,14.83215 -38.34425,14.83215c-10.32729,0 -32.7059,2.78607 -38.9397,-9.09579c-5.09743,-9.71588 56.94455,-16.46203 56.94455,-30.26474c0,-21.0232 4.52139,-62.9273 10.4653,-46.16315z" fill="#3236f4" stroke-width="0"/></g><g data-paper-data="{&quot;index&quot;:null}" stroke="#000000" stroke-linecap="butt"><g><path d="M390.38227,113.23765c2.87513,46.70237 -32.65386,86.89289 -79.35623,89.76803c-46.70237,2.87513 -86.89289,-32.65386 -89.76803,-79.35623c-2.87513,-46.70237 32.65386,-86.89289 79.35623,-89.76803c46.70237,-2.87513 86.89289,32.65385 89.76803,79.35622z" fill="#faddbf" stroke-width="2"/><path d="M390.09851,112.38396c2.87513,46.70237 -32.65386,86.89289 -79.35623,89.76803c-6.05145,0.37254 -18.57839,-0.82002 -20.99635,-1.48168c-1.51156,-0.41362 26.7059,-8.53649 46.12854,-23.06388c10.422,-7.79527 15.75016,-22.56147 18.3388,-27.47228c1.58845,-0.53753 4.77775,-20.41233 4.77698,-20.4727c-0.31742,-25.31827 -29.59164,-85.91788 -21.79596,-88.97369c0.59751,-0.23422 12.96049,5.82579 22.80327,13.58383c7.919,6.24173 13.70547,14.44488 14.242,14.77962c4.69803,2.93103 14.93392,28.3069 15.85895,43.33274z" fill="#ef8b89" stroke-width="0"/><path d="M221.75228,123.15995c-2.24528,-36.47111 40.63185,-50.35809 81.81614,-32.25413c43.02625,18.91365 84.49151,-12.01936 86.73678,24.45174c1.11659,18.1375 -7.69694,10.66056 -22.33342,-1.10165c-3.03141,-2.43611 -12.25541,11.07712 -15.74989,8.46286c-4.4542,-3.33223 -8.61372,-8.39593 -12.82425,-13.65513c-3.39043,-4.23487 -12.91337,13.33836 -16.55042,9.65189c-5.59698,-5.67302 -6.22731,-12.65828 -13.49341,-12.21096c-2.73222,0.1682 -9.34565,12.33863 -12.04025,12.83251c-2.08944,0.38297 -10.04332,-11.36262 -12.08283,-10.87402c-3.70369,0.88726 -11.55581,11.63969 -14.97067,12.97598c-1.3692,0.5358 -13.00413,-7.61491 -14.31056,-7.06092c-1.86853,0.79235 -8.21646,10.60507 -9.87907,11.4803c-2.64698,1.39343 -11.14968,-5.54504 -13.21958,-4.24363c-8.54204,5.37066 -7.67929,13.25707 -8.12535,15.17721c-0.43723,1.88214 -2.2589,-2.02969 -2.97318,-13.63206z" fill="#ef8b89" stroke-width="0"/></g><path d="M219.7106,114.95901c-2.24526,-36.4711 36.5282,-81.08534 82.36824,-83.90739c45.84006,-2.82205 88.37508,39.36084 90.62035,75.83194c1.11659,18.13749 -7.91615,10.67405 -22.91771,-1.06569c-3.10701,-2.43146 -12.5949,11.09803 -16.17685,8.48915c-4.56568,-3.32537 -8.82619,-8.38285 -13.1387,-13.63578c-3.47256,-4.22982 -13.27378,13.36054 -17.00032,9.67958c-5.73469,-5.66455 -6.37027,-12.64947 -13.82777,-12.19037c-2.80419,0.17263 -9.61083,12.35497 -12.37693,12.85324c-2.1449,0.38638 -10.28851,-11.34751 -12.38233,-10.85558c-3.80231,0.89335 -11.87786,11.65952 -15.38449,13.00146c-1.40598,0.53806 -13.33305,-7.59467 -14.67467,-7.03851c-1.91883,0.79543 -8.4492,10.61939 -10.15686,11.4974c-2.7187,1.39783 -11.4333,-5.52759 -13.55963,-4.2227c-17.37609,10.66343 -9.94929,25.00221 -11.39226,1.56324z" fill="#724e36" stroke-width="2"/><path d="M219.88646,113.78323c-2.24526,-36.4711 41.77944,-50.42872 84.01522,-32.3895c44.12475,18.84603 86.72808,-12.15705 88.97335,24.31405c1.11659,18.13748 -7.91615,10.67405 -22.91771,-1.06569c-3.10701,-2.43147 -12.5949,11.09802 -16.17685,8.48914c-4.5657,-3.32537 -8.8262,-8.38285 -13.13871,-13.63578c-3.47256,-4.22982 -13.27378,13.36054 -17.00032,9.67958c-5.73468,-5.66455 -6.37027,-12.64948 -13.82777,-12.19038c-2.80419,0.17264 -9.61083,12.35498 -12.37693,12.85325c-2.1449,0.38638 -10.28851,-11.34751 -12.38233,-10.85558c-3.80231,0.89335 -11.87786,11.65952 -15.38449,13.00146c-1.40598,0.53806 -13.33305,-7.59467 -14.67467,-7.03851c-1.91884,0.79543 -8.44921,10.61939 -10.15687,11.4974c-2.7187,1.39783 -11.4333,-5.52759 -13.55963,-4.2227c-17.3761,10.66342 -9.9493,25.0022 -11.39227,1.56323z" fill="#623728" stroke-width="0"/></g><g data-paper-data="{&quot;index&quot;:null}" stroke="#000000" stroke-linecap="butt"><path d="M297.70374,94.1736c16.53722,-1.01807 31.3659,21.26445 33.12075,49.76942c1.75485,28.50496 -11.00875,44.04916 -27.54598,45.06724c-16.53723,1.01809 -30.58579,-12.87547 -32.34064,-41.38044c-1.75485,-28.50498 10.22864,-52.43814 26.76587,-53.45622z" fill="#f0f0f0" stroke-width="2"/><path d="M316.40196,125.21144c-8.71655,-40.35718 11.98184,-10.56301 13.73669,17.94196c1.75485,28.50496 -11.00875,44.04916 -27.54598,45.06724c-16.53723,1.01808 19.83858,-35.09397 13.8093,-63.0092z" fill="#9a99ff" stroke-width="0"/></g><path d="M280.02746,126.36977c5.77312,-0.35542 11.24131,12.15866 12.21354,27.95098c0.97223,15.79232 -2.91969,28.88263 -8.69281,29.23804c-5.77312,0.35542 -11.24131,-12.15866 -12.21354,-27.95098c-0.97223,-15.79232 2.91969,-28.88263 8.69281,-29.23804z" data-paper-data="{&quot;index&quot;:null}" fill="#000000" stroke="none" stroke-width="0" stroke-linecap="butt"/><g data-paper-data="{&quot;index&quot;:null}" stroke="#000000" stroke-linecap="butt"><path d="M274.09217,117.34408c3.64284,-9.99186 8.68959,-22.12981 24.37017,-23.09516c15.68057,-0.96535 18.8953,11.13018 23.77361,19.9959c5.12704,9.3178 -6.03576,14.65533 -21.71634,15.62068c-15.68057,0.96534 -30.24988,-2.03692 -26.42744,-12.52141z" fill="#a100fe" stroke-width="2"/><path d="M274.99293,116.9337c3.4982,-9.98295 9.72338,0.22987 24.86928,-0.70256c15.1459,-0.93243 16.90149,-11.17042 21.63263,-2.29563c4.97237,9.32732 -5.8001,14.64083 -20.946,15.57326c-15.1459,0.93243 -29.2266,-2.0999 -25.55592,-12.57505z" fill="#99008e" stroke-width="0"/></g><g data-paper-data="{&quot;index&quot;:null}" stroke="#000000" stroke-linecap="butt"><path d="M267.12737,146.38298c1.75486,28.50497 -10.48343,44.01682 -27.02066,45.0349c-16.53723,1.01808 -31.11112,-12.84314 -32.86597,-41.3481c-1.75485,-28.50498 10.22865,-52.43814 26.76588,-53.45622c16.53722,-1.01807 31.3659,21.26445 33.12075,49.76942z" fill="#f0f0f0" stroke-width="2"/><path d="M207.82455,149.202c-1.75485,-28.50499 15.13264,-60.61306 11.43217,-19.49144c-2.55963,28.444 37.97103,59.82145 21.4338,60.83953c-16.53723,1.01808 -31.11112,-12.84314 -32.86597,-41.3481z" fill="#9a99ff" stroke-width="0"/></g><path d="M216.26712,129.68168c5.77313,-0.35542 11.24131,12.15866 12.21354,27.95098c0.97223,15.79231 -2.91969,28.88263 -8.69281,29.23804c-5.77312,0.35542 -11.24131,-12.15866 -12.21354,-27.95098c-0.97222,-15.79231 2.9197,-28.88263 8.69282,-29.23804z" data-paper-data="{&quot;index&quot;:null}" fill="#000000" stroke="none" stroke-width="0" stroke-linecap="butt"/><g data-paper-data="{&quot;index&quot;:null}" stroke="#000000" stroke-linecap="butt"><path d="M260.28201,116.71284c5.07963,9.93646 -9.01141,14.70312 -24.69199,15.66847c-15.68057,0.96534 -27.41378,-2.96265 -23.46839,-12.83897c3.75398,-9.39716 5.46077,-21.79565 21.14135,-22.761c15.68057,-0.96534 22.17808,10.46191 27.01902,19.93149z" fill="#a100fe" stroke-width="2"/><path d="M259.33772,116.41606c4.92785,9.9458 -8.67457,14.68238 -23.82047,15.61481c-15.1459,0.93243 -26.48877,-3.0196 -22.69805,-12.88639c3.60681,-9.3881 6.60495,0.55724 21.75085,-0.37519c15.1459,-0.93243 20.07135,-11.83172 24.76766,-2.35324z" fill="#99008e" stroke-width="0"/></g><path d="M241.7919,338.87003c0,-11.6628 13.71248,-9.87692 31.62358,-9.87692c14.33063,0 27.65301,-10.77791 32.14847,-5.26144c1.12318,1.37828 1.08979,12.80695 1.08979,15.13837c0,11.6628 -14.51982,21.11737 -32.43092,21.11737c-17.9111,0 -32.43092,-9.45457 -32.43092,-21.11737z" data-paper-data="{&quot;index&quot;:null}" fill="#000082" stroke="#000000" stroke-width="2" stroke-linecap="butt"/><path d="M274.67252,329.56302c14.33063,0 25.38775,-8.75646 29.88321,-5.7726c1.12318,0.74551 1.0898,12.01046 1.0898,13.27153c0,6.30841 -12.25456,9.26589 -30.16566,9.26589c-17.91111,0 -31.80169,-3.88169 -31.80169,-10.1901c0,-6.30841 13.08324,-6.57472 30.99434,-6.57472z" data-paper-data="{&quot;index&quot;:null}" fill="#2e0048" stroke="#000000" stroke-width="0" stroke-linecap="butt"/><path d="M284.77884,338.2252c0,-11.6628 13.71248,-9.87692 31.62358,-9.87692c14.33063,0 27.65301,-10.77791 32.14847,-5.26144c1.12318,1.37828 1.08979,12.80695 1.08979,15.13837c0,11.6628 -14.51982,21.11737 -32.43092,21.11737c-17.9111,0 -32.43092,-9.45457 -32.43092,-21.11737z" data-paper-data="{&quot;index&quot;:null}" fill="#000082" stroke="#000000" stroke-width="2" stroke-linecap="butt"/><path d="M317.65946,328.91817c14.33063,0 25.38775,-8.75646 29.88321,-5.7726c1.12318,0.74551 1.0898,12.01046 1.0898,13.27153c0,6.30841 -12.25456,9.26589 -30.16566,9.26589c-17.91111,0 -31.80169,-3.88169 -31.80169,-10.1901c0,-6.30841 13.08324,-6.57472 30.99434,-6.57472z" data-paper-data="{&quot;index&quot;:null}" fill="#2e0048" stroke="#000000" stroke-width="0" stroke-linecap="butt"/><g data-paper-data="{&quot;index&quot;:null}"><path d="M322.7581,260.01779c-12.71936,0.46453 -24.14459,-4.5099 -27.84769,-15.035c-0.68642,-1.95108 -1.45789,-4.08006 -1.54313,-6.41434c-0.54511,-14.92688 10.05174,-25.06939 25.12894,-25.62001c15.07716,-0.55063 28.13751,11.99733 28.01919,23.67898c-0.15124,14.93609 -8.68016,22.83973 -23.75729,23.39037z" fill="#485e84" stroke="#000000" stroke-width="2" stroke-linecap="butt"/><path d="M331.46984,217.56048c0,0 2.67888,1.3334 5.36058,3.66195c2.88141,2.50197 5.82116,6.12271 7.09564,9.57031c0.99861,2.7014 1.31149,7.23008 0.10766,11.32793c-0.77535,2.63928 -1.40367,5.14685 -2.39034,7.02684c-1.00713,1.91901 -10.98147,10.94494 -10.98147,10.94494l-20.79805,-2.50986c0,0 -7.09953,-4.37097 -9.51385,-6.91952c-2.11358,-2.23112 -3.74683,-5.67152 -4.48171,-8.49427c-0.69063,-2.65275 -0.54551,-4.76155 -0.54551,-4.76155c0,0 0.61074,0.94225 1.66847,0.90582c4.65555,-0.16035 18.61318,-1.71038 33.56976,-13.77581c1.55925,-1.25783 0.90884,-6.97692 0.90884,-6.97692z" fill="#343545" stroke="none" stroke-width="0" stroke-linecap="butt"/><path d="M317.14898,213.36085c0,0 8.97806,9.35398 12.00501,15.13602c2.39117,4.56754 0.84547,13.45624 0.84547,13.45624" fill="none" stroke="#000000" stroke-width="1" stroke-linecap="round"/><path d="M307.86452,252.56977c0,0 -7.29087,-6.40282 -9.3325,-10.23138c-2.02236,-3.79233 -3.78393,-10.72246 -3.78393,-10.72246" fill="none" stroke="#000000" stroke-width="1" stroke-linecap="round"/><path d="M327.54797,214.61583c0,0 7.6726,8.69638 11.99256,16.10692c2.81527,4.8294 1.09233,13.92982 1.09233,13.92982" fill="none" stroke="#000000" stroke-width="1" stroke-linecap="round"/><path d="M296.65379,248.98327c0,0 -0.9559,-17.22141 17.06797,-23.49395c16.45454,-5.72639 30.54656,4.31802 30.54656,4.31802" fill="none" stroke="#000000" stroke-width="1" stroke-linecap="round"/><path d="M302.87162,255.11343c0,0 0.55176,-14.58131 12.48277,-18.70473c14.53068,-5.02185 30.52815,2.78477 30.52815,2.78477" fill="none" stroke="#000000" stroke-width="1" stroke-linecap="round"/><path d="M305.82296,221.69328c-1.00164,0.66619 -2.24125,0.56342 -2.76859,-0.22961c-0.52737,-0.79299 0.42113,-1.45156 1.42283,-2.11775c1.00169,-0.66619 1.67721,-1.08771 2.20455,-0.29468c0.52737,0.79296 0.14293,1.97584 -0.85877,2.64203z" fill="#8fbbbe" stroke="none" stroke-width="0" stroke-linecap="butt"/><path d="M300.37378,226.50625c-0.60105,0.02196 -0.92039,-0.335 -0.95332,-1.23663c-0.03297,-0.90162 0.60902,-1.65692 1.21011,-1.67889c0.60108,-0.02192 0.739,0.34165 0.77193,1.24328c0.03294,0.90162 -0.42764,1.6503 -1.02873,1.67227z" fill="#8fbbbe" stroke="none" stroke-width="0" stroke-linecap="butt"/><path d="M311.61914,217.91587c-0.893,0.12881 -1.68656,-0.24944 -1.77239,-0.84472c-0.08584,-0.59533 0.58827,-0.6381 1.48129,-0.76693c0.89298,-0.12878 1.66665,-0.29473 1.75248,0.30055c0.08586,0.59532 -0.56838,1.18229 -1.4614,1.31112z" fill="#8fbbbe" stroke="none" stroke-width="0" stroke-linecap="butt"/><path d="M294.59064,237.25232c0,0 1.16459,-2.70383 3.2536,-5.78794c2.83739,-4.18899 7.06808,-9.22157 9.50009,-10.45437c2.75004,-1.39406 6.3975,-3.19195 10.67823,-3.55518c7.55045,-0.64064 17.34266,2.32454 17.34266,2.32454" fill="none" stroke="#000000" stroke-width="0.5" stroke-linecap="round"/><path d="M313.9814,245.98918c0,0 -7.68703,-7.80856 -9.66484,-11.91074c-2.34751,-4.86892 -3.1393,-15.41174 -3.1393,-15.41174" fill="none" stroke="#000000" stroke-width="1" stroke-linecap="round"/><path d="M307.05723,215.54582c0,0 7.4904,7.22987 10.14459,14.71333c1.51168,4.26212 2.3431,13.89212 2.3431,13.89212" fill="none" stroke="#000000" stroke-width="1" stroke-linecap="round"/></g><g data-paper-data="{&quot;index&quot;:null}" stroke="#000000" stroke-linecap="butt"><path d="M343.25081,242.9118c2.68207,-0.9623 -6.66373,-13.51519 -9.53382,-22.77182c-2.3273,-7.50598 -0.37111,-13.7326 5.29084,-9.4582c2.73251,7.61603 65.97084,42.49297 34.59285,53.75085c-31.378,11.25789 -59.03002,14.21021 -61.76252,6.59417c-2.73248,-7.61602 0.03467,-16.85713 31.41267,-28.115z" fill="#216aff" stroke-width="2"/><path d="M315.59538,239.99176c13.46822,-4.83216 28.40445,2.44973 33.36097,16.26457c4.95654,13.81484 -1.94357,28.93124 -15.41181,33.7634c-13.46824,4.83217 -28.40446,-2.44974 -33.36098,-16.26458c-4.95652,-13.81483 1.94358,-28.93122 15.41182,-33.76338z" fill="#faddbf" stroke-width="2"/><path d="M339.99915,273.45372c13.46824,-4.83217 7.68729,11.07243 -5.78095,15.90459c-13.46823,4.83218 -28.40445,-2.44973 -33.36097,-16.26457c-4.95652,-13.81484 25.67368,5.19215 39.14192,0.35999z" fill="#ef8b89" stroke-width="0"/></g><path d="M344.73723,159.5106c-0.17293,-0.54779 -0.06685,-1.06718 -0.06685,-1.06718l0.09918,-0.4039c0.14265,-1.75606 0.04863,-3.9411 1.62886,-5.25748c2.7765,-2.31291 9.1767,-0.53066 10.85384,2.32511c0.45664,0.77755 0.32907,4.30222 0.32278,5.23075c-0.36681,5.18148 0.09233,12.06046 -3.63666,16.3139c-2.54231,2.89988 -8.22157,3.3196 -10.52236,-0.38891c-1.24157,-2.00121 -0.551,-5.98961 0.49729,-7.92785c0.71005,-1.31284 2.9457,-2.83324 2.78897,-4.56282c-0.0849,-0.93688 -1.29681,-2.58217 -1.65671,-3.15556c0,0 -0.30594,-0.49398 -0.30835,-1.10606z" data-paper-data="{&quot;index&quot;:null}" fill="#000000" stroke="none" stroke-width="0.5" stroke-linecap="butt"/></g></g></svg>