<svg version="1.1" xmlns="http://www.w3.org/2000/svg" xmlns:xlink="http://www.w3.org/1999/xlink" width="218.99536" height="323.51437" viewBox="0,0,218.99536,323.51437"><g transform="translate(-224.78117,-37.00065)"><g data-paper-data="{&quot;isPaintingLayer&quot;:true}" fill-rule="nonzero" stroke-linejoin="miter" stroke-miterlimit="10" stroke-dasharray="" stroke-dashoffset="0" style="mix-blend-mode: normal"><g><path d="M414.00958,209.74481c-15.0867,-0.11962 -23.83797,-7.77633 -24.41591,-22.70202c-0.45204,-11.67352 12.24445,-24.5895 27.33118,-24.46989c15.08677,0.11959 25.96911,9.95516 25.85072,24.89154c-0.01851,2.33577 -0.72882,4.48593 -1.35922,6.45582c-3.40086,10.6266 -14.67928,15.92546 -27.40674,15.82456z" fill="#216aff" stroke="#000000" stroke-width="2" stroke-linecap="butt"/><path d="M404.08824,167.55362c0,0 -0.48675,5.73535 1.10782,6.9481c15.29521,11.63315 29.29144,12.78373 33.94966,12.811c1.05833,0.0062 1.6419,-0.95311 1.6419,-0.95311c0,0 0.20531,2.10381 -0.40924,4.77519c-0.65394,2.84259 -2.18821,6.32825 -4.23718,8.61887c-2.34053,2.61649 -9.31225,7.18853 -9.31225,7.18853l-20.71787,3.10311c0,0 -10.22816,-8.73726 -11.28972,-10.6267c-1.03998,-1.85103 -1.73969,-4.33963 -2.59015,-6.95568c-1.32043,-4.06177 -1.13706,-8.59755 -0.21606,-11.32639c1.17545,-3.48261 4.01054,-7.18586 6.81929,-9.76913c2.61408,-2.40421 5.25377,-3.81361 5.25377,-3.81361z" fill="#3236f4" stroke="none" stroke-width="0" stroke-linecap="butt"/><path d="M406.25503,191.89442c0,0 -1.79906,-8.84091 0.46063,-13.4749c2.86052,-5.86616 11.56763,-15.47286 11.56763,-15.47286" fill="none" stroke="#000000" stroke-width="1" stroke-linecap="round"/><path d="M441.19664,180.55421c0,0 -1.56284,6.97763 -3.47602,10.8262c-1.93142,3.88536 -9.03636,10.49385 -9.03636,10.49385" fill="none" stroke="#000000" stroke-width="1" stroke-linecap="round"/><path d="M395.70311,194.89661c0,0 -1.98227,-9.04746 0.69387,-13.95535c4.10644,-7.53096 11.52745,-16.44301 11.52745,-16.44301" fill="none" stroke="#000000" stroke-width="1" stroke-linecap="round"/><path d="M391.64497,180.16132c0,0 13.79925,-10.44297 30.41071,-5.18906c18.19574,5.75498 17.7323,22.99667 17.7323,22.99667" fill="none" stroke="#000000" stroke-width="1" stroke-linecap="round"/><path d="M390.29957,189.58973c0,0 15.76788,-8.26053 30.43611,-3.65593c12.04395,3.78083 13.01213,18.34043 13.01213,18.34043" fill="none" stroke="#000000" stroke-width="1" stroke-linecap="round"/><path d="M429.84275,170.95205c-1.02033,-0.63728 -1.4384,-1.80872 -0.93392,-2.61641c0.50447,-0.80776 1.19175,-0.40574 2.21207,0.23156c1.02033,0.63728 1.98724,1.26851 1.48275,2.07623c-0.50447,0.80776 -1.74062,0.94593 -2.76088,0.30862z" fill="#8fbbbe" stroke="none" stroke-width="0" stroke-linecap="butt"/><path d="M435.42726,175.60738c-0.60147,-0.00481 -1.08325,-0.74 -1.07609,-1.6422c0.00714,-0.90219 0.13462,-1.26957 0.73607,-1.26483c0.60147,0.00481 1.26476,0.74144 1.25759,1.64363c-0.00714,0.90219 -0.31616,1.26814 -0.9176,1.26336z" fill="#8fbbbe" stroke="none" stroke-width="0" stroke-linecap="butt"/><path d="M423.94106,167.34184c-0.89632,-0.10326 -1.56709,-0.67131 -1.49827,-1.26883c0.06876,-0.59748 0.8469,-0.45372 1.74318,-0.35049c0.89632,0.10326 1.57139,0.12677 1.50259,0.72431c-0.06876,0.59748 -0.85121,0.99823 -1.74752,0.895z" fill="#8fbbbe" stroke="none" stroke-width="0" stroke-linecap="butt"/><path d="M400.25789,169.88305c0,0 9.70348,-3.24375 17.26916,-2.81912c4.28937,0.24077 7.98668,1.93371 10.77544,3.24863c2.46625,1.16281 6.839,6.07246 9.79493,10.17866c2.17627,3.02318 3.41765,5.69261 3.41765,5.69261" fill="none" stroke="#000000" stroke-width="0.5" stroke-linecap="round"/><path d="M434.4001,167.79397c0,0 -0.49023,10.56112 -2.69765,15.49513c-1.85978,4.15702 -9.32058,12.18207 -9.32058,12.18207" fill="none" stroke="#000000" stroke-width="1" stroke-linecap="round"/><path d="M416.7681,193.79295c0,0 0.55592,-9.64981 1.94518,-13.9534c2.43928,-7.55624 9.72003,-14.99719 9.72003,-14.99719" fill="none" stroke="#000000" stroke-width="1" stroke-linecap="round"/></g><path d="M366.16617,322.49233c0,0 17.45798,-51.32891 24.2997,-74.56744c5.8589,-19.90026 9.07397,-52.07023 9.07397,-52.07023l25.18944,0.76889l-35.89423,132.5428z" fill="#000000" stroke="none" stroke-width="0" stroke-linecap="butt"/><path d="M437.2464,209.88854c-1.55044,5.2662 -13.60091,6.35753 -26.91547,2.43755c-13.31456,-3.91998 -22.85127,-11.36686 -21.30083,-16.63306c1.55044,-5.2662 13.60091,-6.35753 26.91547,-2.43755c13.31456,3.91998 22.85127,11.36686 21.30083,16.63306z" fill="#000000" stroke="none" stroke-width="NaN" stroke-linecap="butt"/><g data-paper-data="{&quot;index&quot;:null}" stroke="#000000" stroke-linecap="butt"><path d="M376.2744,225.42769c27.51153,-18.82642 36.62099,-15.65262 41.1905,-8.97504c4.56954,6.67757 -14.02866,27.35263 -41.5402,46.17905c-27.51155,18.82641 -18.70879,-52.85343 -23.2783,-59.531c-0.14508,-7.09277 6.04658,-5.02852 10.76441,1.25621c5.81821,7.75057 10.51201,22.67999 12.86361,21.07077z" fill="#216aff" stroke-width="2"/><path d="M390.1165,201.30825c11.80864,-8.08079 28.10078,-4.81238 36.38952,7.30016c8.28873,12.11255 5.4353,28.4825 -6.37336,36.56328c-11.80864,8.08079 -28.1008,4.81238 -36.38955,-7.30017c-8.28873,-12.11255 -5.43528,-28.48247 6.37337,-36.56326z" fill="#faddbf" stroke-width="2"/><path d="M402.92701,240.69273c11.80864,-8.08079 14.35952,-44.03866 22.64825,-31.92611c8.28873,12.11255 5.43529,28.48248 -6.37336,36.56327c-11.80864,8.08079 -28.08356,3.44365 -16.2749,-4.63714z" fill="#ef8b89" stroke-width="0"/></g><path d="M224.78117,360.17125v-93.89347h213.03043v93.89347z" fill="#000000" stroke="none" stroke-width="NaN" stroke-linecap="butt"/><g stroke="#000000" stroke-linecap="butt"><path d="M339.96424,331.07514l-14.75435,-94.1458l29.13636,-4.56619l14.75435,94.1458z" fill="#73fffc" stroke-width="2"/><path d="M339.54674,330.51509l-13.21042,-92.86015c0,0 15.68585,66.48538 18.30656,75.60575c0.57936,2.01623 2.92382,2.36571 2.92382,2.36571l20.4165,10.0997z" fill="#59a9e6" stroke-width="0"/></g><g fill="none" stroke="#808080" stroke-width="0.5" stroke-linecap="round"><path d="M437.84876,280.63432l-193.59492,1.15407l-17.0225,-13.84882"/><path d="M243.96532,281.78839l-2.01962,78.47663"/></g><g stroke="#000000" stroke-linecap="butt"><path d="M252.25283,309.08886l52.12189,-79.77738l24.6896,16.13075l-52.12189,79.77738z" fill="#73fffc" stroke-width="2"/><path d="M252.31809,308.3934l52.40672,-77.78854c0,0 -32.89858,59.8668 -37.06342,68.39344c-0.92072,1.88497 0.58563,3.71514 0.58563,3.71514l8.39035,21.17639z" fill="#59a9e6" stroke-width="0"/></g><g stroke="#000000" stroke-linecap="butt"><path d="M358.49282,230.30829c-0.54387,13.79199 8.59181,37.11124 3.11552,46.61873c-6.69714,11.62701 -28.94859,7.96131 -39.26786,7.55439c-13.65226,-0.53836 -33.0828,2.86885 -37.73005,-16.33152c-1.73779,-7.17981 5.62676,-32.17592 5.95581,-40.52019c1.20898,-30.65866 17.39493,-54.91279 36.15234,-54.17312c18.75741,0.73967 32.98322,26.19305 31.77424,56.85171z" fill="#216aff" stroke-width="2"/><path d="M306.65524,243.85284c-0.54387,13.79199 61.18411,22.97753 55.70781,32.48502c-6.69714,11.627 -28.94859,7.96131 -39.26786,7.55439c-13.65226,-0.53836 -33.08279,2.86885 -37.73004,-16.33151c-1.7378,-7.17981 5.62676,-32.17593 5.95581,-40.52019c0.37245,-9.4451 4.47279,-28.44386 6.69607,-29.72737c6.59985,-16.51692 9.46659,25.53279 8.63821,46.53966z" fill="#3236f4" stroke-width="0"/></g><g stroke="#000000" stroke-linecap="butt"><g><path d="M243.11726,115.98694c5.27572,-46.49241 47.24207,-79.90516 93.73449,-74.62943c46.49241,5.27573 79.90517,47.24207 74.62945,93.7345c-5.27572,46.49241 -47.24209,79.90516 -93.7345,74.62944c-46.49241,-5.27572 -79.90516,-47.24208 -74.62944,-93.73449z" fill="#faddbf" stroke-width="2"/><path d="M243.44461,115.14898c1.69737,-14.95828 13.22614,-39.77354 18.06883,-42.4588c0.55304,-0.30667 6.75417,-8.20106 14.98402,-14.0268c10.22915,-7.241 22.88772,-12.65651 23.47238,-12.39181c7.62802,3.45309 -24.72724,62.46522 -26.34771,87.73358c-0.00387,0.06026 2.15796,20.07289 3.71663,20.6915c2.33237,5.03759 6.89326,20.0585 16.90013,28.37997c18.64896,15.50807 46.41081,25.07289 44.87995,25.40815c-2.44882,0.53631 -15.02052,1.08236 -21.04478,0.39875c-46.49241,-5.27572 -79.90517,-47.24207 -74.62944,-93.73448z" fill="#ef8b89" stroke-width="0"/><path d="M411.01277,134.5777c-1.31065,11.55021 -3.33131,15.36307 -3.67106,13.4609c-0.34661,-1.94055 0.92101,-9.77208 -7.33319,-15.5754c-2.00016,-1.40625 -10.84879,5.08526 -13.42053,3.55741c-1.61534,-0.95967 -7.44967,-11.0862 -9.27492,-11.97369c-1.27618,-0.62053 -13.31529,6.9204 -14.65511,6.31482c-3.34153,-1.51033 -10.62968,-12.65274 -14.28279,-13.72952c-2.01164,-0.59294 -10.55969,10.72756 -12.62663,10.23753c-2.66559,-0.63196 -8.64367,-13.12672 -11.36362,-13.43536c-7.23344,-0.8208 -8.22256,6.12272 -14.10419,11.50008c-3.82202,3.49434 -12.4276,-14.54585 -16.03156,-10.49116c-4.47571,5.03545 -8.89041,9.87829 -13.51025,12.97678c-3.62444,2.43089 -12.14051,-11.53929 -15.29331,-9.26248c-15.22263,10.99306 -24.40942,18.00634 -22.36052,-0.04959c4.11994,-36.30714 43.93769,-3.28039 87.8806,-19.95384c42.06173,-15.95965 84.16704,0.11638 80.04709,36.42351z" fill="#ef8b89" stroke-width="0"/></g><path d="M413.4739,126.49275c-2.64776,23.3336 5.50739,9.39619 -11.29667,-2.14767c-2.05633,-1.41263 -11.11592,5.05495 -13.75905,3.519c-1.66019,-0.96477 -7.67612,-11.11188 -9.55147,-12.00507c-1.31122,-0.62449 -13.64116,6.88341 -15.01759,6.27369c-3.43289,-1.52071 -10.94344,-12.68834 -14.69472,-13.77625c-2.0657,-0.59907 -10.80263,10.69999 -12.92478,10.20369c-2.73678,-0.64002 -8.90722,-13.15661 -11.69878,-13.47338c-7.42397,-0.84243 -8.41833,6.1005 -14.43704,11.46232c-3.91111,3.48422 -12.79371,-14.5874 -16.47944,-10.54198c-4.57723,5.02393 -9.09245,9.85536 -13.82328,12.94127c-3.71153,2.42101 -12.4903,-11.579 -15.71836,-9.31073c-15.58606,10.95185 -24.99107,17.94034 -22.94218,-0.11559c4.11994,-36.30714 48.77027,-76.24425 94.40424,-71.06596c45.63398,5.17831 82.05913,51.72956 77.93918,88.0367z" fill="#724e36" stroke-width="2"/><path d="M413.35887,125.30944c-2.64776,23.3336 5.50739,9.39619 -11.29667,-2.14767c-2.05633,-1.41263 -11.11591,5.05496 -13.75905,3.51901c-1.66019,-0.96477 -7.67612,-11.11189 -9.55147,-12.00507c-1.31122,-0.62449 -13.64115,6.8834 -15.01758,6.27367c-3.43289,-1.52071 -10.94346,-12.68834 -14.69472,-13.77625c-2.0657,-0.59907 -10.80262,10.7 -12.92478,10.2037c-2.73678,-0.64002 -8.90721,-13.15662 -11.69878,-13.47339c-7.42397,-0.84243 -8.41833,6.1005 -14.43704,11.46231c-3.91111,3.48422 -12.7937,-14.5874 -16.47943,-10.54199c-4.57723,5.02393 -9.09246,9.85536 -13.8233,12.94127c-3.71153,2.42101 -12.4903,-11.579 -15.71836,-9.31074c-15.58606,10.95185 -24.99108,17.94034 -22.94219,-0.11559c4.11994,-36.30714 45.07063,-3.15184 90.10713,-19.70118c43.10849,-15.84086 86.35621,0.3648 82.23628,36.67193z" fill="#623728" stroke-width="0"/></g><g stroke="#000000" stroke-linecap="butt"><path d="M343.43197,150.41946c-3.22006,28.37683 -17.96526,41.52869 -34.42816,39.66056c-16.46288,-1.86812 -28.40929,-18.04882 -25.18924,-46.42564c3.22006,-28.37682 19.17624,-49.86636 35.63912,-47.99824c16.46288,1.86813 27.19833,26.3865 23.97827,54.76332z" fill="#f0f0f0" stroke-width="2"/><path d="M299.18233,125.69018c-7.45846,27.56782 27.00996,65.5047 10.54708,63.63658c-16.46288,-1.86812 -28.40929,-18.04881 -25.18924,-46.42563c3.22006,-28.37682 25.42489,-57.06586 14.64218,-17.21094z" fill="#9a99ff" stroke-width="0"/></g><path d="M338.63407,158.1611c-1.78397,15.72132 -7.88918,27.93729 -13.63636,27.28512c-5.74719,-0.65216 -8.95999,-13.92549 -7.17602,-29.6468c1.78397,-15.72132 7.88917,-27.93727 13.63636,-27.28512c5.74719,0.65215 8.95999,13.92549 7.17602,29.64681z" fill="#000000" stroke="none" stroke-width="0" stroke-linecap="butt"/><g stroke="#000000" stroke-linecap="butt"><path d="M341.84107,120.0115c3.2776,10.66738 6.97987,56.29769 -8.63022,54.52634c-15.61008,-1.77134 -44.89011,-51.05861 -39.29014,-60.10009c5.32828,-8.60282 9.16144,-20.51679 24.77152,-18.74543c15.61008,1.77133 20.02525,14.15301 23.14884,24.31918z" fill="#a100fe" stroke-width="2"/><path d="M340.96263,119.55531c3.12651,10.65023 7.77541,55.77409 -7.30242,54.06313c-15.07781,-1.71096 -44.42946,-50.39249 -38.9835,-59.45143c5.18177,-8.61945 6.40795,1.69534 21.48575,3.4063c15.07781,1.71095 21.8205,-8.16784 24.80012,1.98197z" fill="#99008e" stroke-width="0"/></g><g data-paper-data="{&quot;index&quot;:null}" stroke="#000000" stroke-linecap="butt"><path d="M382.94073,101.3722c16.46288,1.86813 27.19833,26.3865 23.97827,54.76332c-3.22006,28.37681 -18.48822,41.46934 -34.95111,39.60122c-16.46289,-1.86812 -27.88633,-17.98947 -24.66629,-46.3663c3.22006,-28.37682 19.17624,-49.86636 35.63912,-47.99825z" fill="#f0f0f0" stroke-width="2"/><path d="M406.38066,155.23883c-3.22006,28.37681 -18.48823,41.46934 -34.95112,39.60123c-16.46289,-1.86812 25.62946,-31.11731 24.5376,-59.65536c-1.57849,-41.25759 13.63357,-8.32269 10.41352,20.05415z" fill="#9a99ff" stroke-width="0"/></g><path d="M394.89211,135.53993c5.74719,0.65215 8.95999,13.92549 7.17602,29.64681c-1.78397,15.72132 -7.88916,27.93729 -13.63635,27.28512c-5.74719,-0.65216 -8.95999,-13.92549 -7.17602,-29.6468c1.78397,-15.72132 7.88916,-27.93727 13.63635,-27.28512z" data-paper-data="{&quot;index&quot;:null}" fill="#000000" stroke="none" stroke-width="0" stroke-linecap="butt"/><g data-paper-data="{&quot;index&quot;:null}" stroke="#000000" stroke-linecap="butt"><path d="M355.66543,120.09207c5.32205,-9.2078 12.39925,-20.28538 28.00932,-18.51402c15.61008,1.77133 16.6763,14.24128 19.94152,23.81924c3.43171,10.06634 -34.90956,52.50857 -50.51965,50.73722c-15.61008,-1.77134 -3.01563,-46.38065 2.5688,-56.04243z" fill="#a100fe" stroke-width="2"/><path d="M356.62374,119.8443c5.17806,-9.22414 9.53586,1.91428 24.61367,3.62524c15.07781,1.71095 18.58398,-8.06685 21.70269,1.49451c3.27772,10.04886 -35.06458,52.30979 -50.14239,50.59883c-15.07781,-1.71096 -1.60733,-46.03965 3.82603,-55.71856z" fill="#99008e" stroke-width="0"/></g><path d="M402.7609,319.24447c1.80573,11.52216 -11.07516,23.1108 -28.77028,25.88395c-17.69512,2.77315 -33.50368,-4.31934 -35.30941,-15.8415c-0.36097,-2.30331 -2.16344,-13.58899 -1.2672,-15.12455c3.58715,-6.14597 18.4176,2.43929 32.57542,0.2205c17.69512,-2.77315 30.96574,-6.66057 32.77147,4.86159z" fill="#000082" stroke="#000000" stroke-width="2" stroke-linecap="butt"/><path d="M400.47433,316.83716c0.97672,6.23234 -12.14536,12.21788 -29.84049,14.99102c-17.69512,2.77315 -30.25981,1.74868 -31.23653,-4.48366c-0.19525,-1.24586 -1.97236,-12.36981 -0.97815,-13.28023c3.97927,-3.6439 16.2588,3.29501 30.41662,1.07622c17.69512,-2.77315 30.66182,-4.5357 31.63854,1.69664z" fill="#2e0048" stroke="#000000" stroke-width="0" stroke-linecap="butt"/><path d="M307.43175,337.8258c-4.60664,10.71447 -21.68023,13.66514 -38.13493,6.59052c-16.4547,-7.07462 -26.05946,-21.49554 -21.45282,-32.21c0.92088,-2.14185 5.40436,-12.65441 6.98061,-13.47698c6.30885,-3.29227 14.29083,11.87141 27.4562,17.5318c16.4547,7.07462 29.75758,10.85019 25.15094,21.56466z" fill="#000082" stroke="#000000" stroke-width="2" stroke-linecap="butt"/><path d="M306.77807,334.5706c-2.49173,5.79546 -16.78604,3.87494 -33.24075,-3.19969c-16.4547,-7.07462 -26.54465,-14.632 -24.05292,-20.42745c0.4981,-1.15853 4.91693,-11.52068 6.24325,-11.76193c5.3085,-0.96559 12.00787,11.44626 25.17323,17.10665c16.4547,7.07462 28.36892,12.48697 25.87719,18.28243z" fill="#2e0048" stroke="#000000" stroke-width="0" stroke-linecap="butt"/><g stroke="#000000" stroke-linecap="butt"><path d="M278.99237,236.21937c25.58392,21.37245 25.00038,31.00131 19.81289,37.211c-5.1875,6.20969 -30.13266,-6.08218 -55.71656,-27.45465c-25.58391,-21.37247 45.79592,-32.34558 50.98343,-38.55527c6.78741,-2.0638 6.48031,4.45566 1.71113,10.70152c-5.8815,7.70262 -18.97768,16.27057 -16.79087,18.0974z" fill="#216aff" stroke-width="2"/><path d="M305.96246,242.99908c10.98127,9.1736 12.25528,25.74145 2.84559,37.00531c-9.40968,11.26386 -25.93982,12.95836 -36.9211,3.78477c-10.98127,-9.1736 -12.25526,-25.74145 -2.84558,-37.00532c9.40968,-11.26387 25.93982,-12.95836 36.9211,-3.78476z" fill="#faddbf" stroke-width="2"/><path d="M271.53028,266.01369c10.98127,9.1736 46.28269,1.87394 36.87299,13.1378c-9.40968,11.26386 -25.93982,12.95836 -36.9211,3.78476c-10.98127,-9.1736 -10.93317,-26.09617 0.0481,-16.92256z" fill="#ef8b89" stroke-width="0"/></g><path d="M283.17315,173.801c0.7786,0.9779 -0.19932,1.7565 -0.19932,1.7565l-0.10793,0.00395c-1.55876,2.3948 -3.01222,5.04927 -5.90677,6.07948c-3.0009,1.06807 -6.7095,-0.36671 -7.01286,-3.76606c-0.40681,-4.55819 4.37191,-8.49046 6.80344,-11.75295c0,0 0.74756,-1.00182 1.74938,-0.25426c1.00182,0.74756 0.25428,1.74939 0.25428,1.74939c-2.05466,2.75037 -6.46554,6.27754 -6.31261,10.09195c0.06835,1.7047 2.36138,2.08114 3.70532,1.56782c2.2872,-0.87358 3.38631,-3.17387 4.62405,-5.07843l0.64651,-0.59673c0,0 0.97791,-0.77859 1.7565,0.19931z" fill="#000000" stroke="none" stroke-width="0.5" stroke-linecap="butt"/></g></g></svg>