<svg version="1.1" xmlns="http://www.w3.org/2000/svg" xmlns:xlink="http://www.w3.org/1999/xlink" width="197.3255" height="323.07949" viewBox="0,0,197.3255,323.07949"><g transform="translate(-240.46751,-38.58703)"><g data-paper-data="{&quot;isPaintingLayer&quot;:true}" fill-rule="nonzero" stroke-linecap="butt" stroke-linejoin="miter" stroke-miterlimit="10" stroke-dasharray="" stroke-dashoffset="0" style="mix-blend-mode: normal"><g data-paper-data="{&quot;index&quot;:null}" stroke="#000000"><path d="M275.84666,340.83535v-95.29492h29.49199v95.29492z" fill="#73fffc" stroke-width="2"/><path d="M276.82937,339.88894l18.60659,-13.13896c0,0 2.26208,-0.70825 2.52228,-2.78987c1.17702,-9.41615 6.3799,-77.52842 6.3799,-77.52842l1.32626,93.78573z" fill="#59a9e6" stroke-width="0"/></g><g data-paper-data="{&quot;index&quot;:null}" stroke="#000000"><path d="M316.56252,339.73674v-95.29492h29.49199v95.29492z" fill="#73fffc" stroke-width="2"/><path d="M316.23677,339.11885l1.32626,-93.78573c0,0 5.20288,68.11227 6.3799,77.52842c0.2602,2.08162 2.52228,2.78987 2.52228,2.78987l18.60659,13.13896z" fill="#59a9e6" stroke-width="0"/></g><g data-paper-data="{&quot;index&quot;:null}" stroke="#000000"><path d="M311.86435,180.14033c18.77199,0 33.98969,24.87307 33.98969,55.55556c0,8.35076 6.37392,33.61764 4.35457,40.7234c-5.40019,19.00234 -24.68139,14.83216 -38.34426,14.83216c-10.32729,0 -32.7059,2.78608 -38.9397,-9.09579c-5.09742,-9.71589 4.95001,-32.65706 4.95001,-46.45977c0,-30.68249 15.2177,-55.55556 33.98969,-55.55556z" fill="#216aff" stroke-width="2"/><path d="M339.60359,205.10932c2.17098,1.37012 5.51953,20.51569 5.51953,29.96813c0,8.35075 6.37393,33.61764 4.35457,40.7234c-5.40019,19.00233 -24.68138,14.83215 -38.34425,14.83215c-10.32729,0 -32.7059,2.78607 -38.9397,-9.09579c-5.09743,-9.71588 56.94455,-16.46203 56.94455,-30.26474c0,-21.0232 4.52139,-62.9273 10.4653,-46.16315z" fill="#3236f4" stroke-width="0"/></g><g data-paper-data="{&quot;index&quot;:null}" stroke="#000000"><g><path d="M334.68896,210.15593c-46.13619,-7.79936 -77.21433,-51.52277 -69.41496,-97.65896c7.79936,-46.13619 51.52277,-77.21433 97.65896,-69.41496c46.13619,7.79936 77.21433,51.52277 69.41496,97.65896c-7.79936,46.13619 -51.52277,77.21433 -97.65896,69.41496z" fill="#faddbf" stroke-width="2"/><path d="M432.26531,139.84516c-7.79936,46.13619 -51.52277,77.21433 -97.65896,69.41496c-5.97809,-1.0106 -17.90746,-5.01513 -20.11215,-6.2083c-1.37824,-0.7459 27.94642,-2.25262 50.15932,-11.99279c11.91924,-5.22649 20.45966,-18.39809 24.0953,-22.59324c1.669,-0.16299 9.2858,-18.79531 9.29876,-18.85429c5.43705,-24.72962 -9.31968,-90.39188 -1.03389,-91.59865c0.63507,-0.0925 11.30007,8.61525 19.12525,18.40474c6.29575,7.87613 10.06945,17.17851 10.516,17.62628c3.9102,3.9208 8.11972,30.9576 5.61038,45.80127z" fill="#ef8b89" stroke-width="0"/><path d="M265.86649,112.13245c6.09073,-36.02896 51.00071,-39.82224 87.00144,-12.84361c37.61085,28.18525 85.01455,7.47032 78.92383,43.49927c-3.02899,17.91761 -9.91559,8.63548 -21.50059,-6.14166c-2.39941,-3.06054 -14.44965,8.0066 -17.25961,4.66745c-3.58169,-4.25619 -6.48342,-10.13179 -9.39045,-16.20936c-2.34082,-4.89385 -15.60364,10.0595 -18.30911,5.64377c-4.16339,-6.79526 -3.19192,-13.7413 -10.36993,-14.95475c-2.69909,-0.45628 -11.90212,9.89558 -14.63849,9.76501c-2.12183,-0.10125 -7.20239,-13.34551 -9.29957,-13.33255c-3.80841,0.02353 -13.89598,8.71325 -17.52501,9.23965c-1.45508,0.21106 -10.93651,-10.36759 -12.33459,-10.12456c-1.99959,0.34759 -10.40895,8.46353 -12.22682,8.93858c-2.89416,0.7563 -9.60024,-7.93086 -11.91149,-7.13318c-9.53804,3.29183 -10.48769,11.16824 -11.3579,12.93704c-0.85298,1.7338 -1.73931,-2.48939 0.19831,-13.95111z" fill="#ef8b89" stroke-width="0"/></g><path d="M265.73937,103.68214c6.09073,-36.02896 53.97793,-70.67902 99.26225,-63.02366c45.28433,7.65536 77.13563,58.39113 71.0449,94.42008c-3.02899,17.91761 -10.13214,8.59887 -22.0778,-6.23923c-2.4741,-3.07317 -14.78502,7.9499 -17.6814,4.59615c-3.69183,-4.27481 -6.69331,-10.16727 -9.70109,-16.26188c-2.42196,-4.90756 -15.95968,9.99931 -18.75355,5.56863c-4.29943,-6.81826 -3.33315,-13.76517 -10.70023,-15.01059c-2.77019,-0.4683 -12.16409,9.8513 -14.97109,9.70879c-2.17661,-0.11051 -7.44462,-13.38646 -9.59544,-13.38257c-3.90584,0.00706 -14.21412,8.65947 -17.9338,9.17054c-1.49142,0.20492 -11.26146,-10.42253 -12.69429,-10.18537c-2.0493,0.33919 -10.63887,8.42466 -12.50123,8.89219c-2.96501,0.74433 -9.88042,-7.97822 -12.24741,-7.18997c-19.3428,6.44151 -15.3641,22.09168 -11.44976,-1.06313z" fill="#724e36" stroke-width="2"/><path d="M266.17748,102.57691c6.09073,-36.02896 52.13439,-39.63059 89.17385,-12.47636c38.69604,28.3687 87.22401,7.84383 81.13329,43.87278c-3.02899,17.91761 -10.13214,8.59887 -22.0778,-6.23923c-2.4741,-3.07317 -14.78502,7.9499 -17.6814,4.59615c-3.69184,-4.27481 -6.69332,-10.16727 -9.7011,-16.26188c-2.42196,-4.90756 -15.95968,9.99931 -18.75355,5.56863c-4.29943,-6.81826 -3.33315,-13.76517 -10.70023,-15.01059c-2.77019,-0.4683 -12.16409,9.8513 -14.97109,9.70879c-2.17661,-0.11051 -7.44462,-13.38646 -9.59544,-13.38257c-3.90584,0.00706 -14.21412,8.65947 -17.9338,9.17054c-1.49142,0.20492 -11.26146,-10.42253 -12.69429,-10.18537c-2.04931,0.33918 -10.63888,8.42466 -12.50124,8.89219c-2.96501,0.74433 -9.88042,-7.97822 -12.24741,-7.18997c-19.3428,6.44151 -15.3641,22.09168 -11.44976,-1.06313z" fill="#623728" stroke-width="0"/></g><g data-paper-data="{&quot;index&quot;:null}" stroke="#000000"><path d="M386.8183,101.81314c16.33675,2.76174 25.72126,27.82828 20.96089,55.98768c-4.76037,28.15939 -20.71878,40.40115 -37.05552,37.63941c-16.33675,-2.76174 -26.86545,-19.48116 -22.10508,-47.64056c4.76037,-28.1594 21.86297,-48.74827 38.19972,-45.98653z" fill="#f0f0f0" stroke-width="2"/><path d="M407.29046,156.87616c-4.76037,28.15939 -20.71878,40.40115 -37.05552,37.63941c-16.33675,-2.76174 27.28574,-29.67564 27.74938,-58.23082c0.67029,-41.28234 14.06652,-7.568 9.30615,20.59141z" fill="#9a99ff" stroke-width="0"/></g><path d="M371.36377,127.24722c5.70314,0.96412 8.18847,14.39269 5.55113,29.99355c-2.63734,15.60086 -9.39864,27.46628 -15.10178,26.50216c-5.70314,-0.96412 -8.18847,-14.39269 -5.55113,-29.99355c2.63734,-15.60086 9.39864,-27.46628 15.10178,-26.50216z" data-paper-data="{&quot;index&quot;:null}" fill="#000000" stroke="none" stroke-width="0"/><g data-paper-data="{&quot;index&quot;:null}" stroke="#000000"><path d="M358.59259,118.85206c5.81551,-8.90435 13.48537,-19.58015 28.97585,-16.96148c15.49047,2.61868 15.87614,15.12816 18.61499,24.8697c2.87851,10.23826 -32.64595,35.88191 -48.13643,33.26323c-15.49047,-2.61868 -5.55667,-31.82808 0.54557,-41.17145z" fill="#a100fe" stroke-width="2"/><path d="M359.53456,118.82492c5.67263,-8.9285 9.41747,2.43066 24.37976,4.96005c14.96229,2.52939 18.99565,-7.04298 21.58913,2.67398c2.7257,10.21243 -33.96751,35.61899 -48.9298,33.08961c-14.96229,-2.52939 -2.99141,-31.35492 2.9609,-40.72363z" fill="#99008e" stroke-width="0"/></g><g data-paper-data="{&quot;index&quot;:null}" stroke="#000000"><path d="M345.19051,145.72055c-4.76037,28.1594 -20.19982,40.48888 -36.53657,37.72714c-16.33675,-2.76174 -27.38441,-19.5689 -22.62404,-47.72829c4.76037,-28.1594 21.86297,-48.74827 38.19972,-45.98653c16.33675,2.76174 25.72126,27.82828 20.96089,55.98768z" fill="#f0f0f0" stroke-width="2"/><path d="M302.353,118.61857c-8.94843,27.12081 23.40321,66.87821 7.06646,64.11647c-16.33675,-2.76174 -27.38441,-19.5689 -22.62404,-47.72829c4.76037,-28.1594 28.49436,-55.59685 15.55758,-16.38817z" fill="#9a99ff" stroke-width="0"/></g><path d="M341.04684,151.33905c-2.63734,15.60086 -9.39864,27.46628 -15.10178,26.50216c-5.70314,-0.96412 -8.18847,-14.39269 -5.55113,-29.99355c2.63734,-15.60086 9.39864,-27.46628 15.10178,-26.50216c5.70314,0.96412 8.18847,14.39269 5.55113,29.99355z" data-paper-data="{&quot;index&quot;:null}" fill="#000000" stroke="none" stroke-width="0"/><g data-paper-data="{&quot;index&quot;:null}" stroke="#000000"><path d="M345.25765,115.27104c2.69191,10.83002 3.47529,41.64325 -12.01519,39.02457c-15.49047,-2.61868 -41.61457,-38.47614 -35.53062,-47.19929c5.78879,-8.29994 10.26498,-19.98752 25.75546,-17.36884c15.49047,2.61868 19.22492,15.22239 21.79034,25.54354z" fill="#a100fe" stroke-width="2"/><path d="M344.52257,114.0743c2.54197,10.80468 3.57548,42.30856 -11.38681,39.77917c-14.96229,-2.52939 -40.46819,-38.93071 -34.53704,-47.67969c5.6434,-8.32451 6.30612,2.04174 21.26841,4.57112c14.96229,2.52939 22.23289,-6.96761 24.65543,3.32939z" fill="#99008e" stroke-width="0"/></g><path d="M241.46751,338.87003c0,-11.6628 13.71248,-9.87692 31.62358,-9.87692c14.33063,0 27.65301,-10.77791 32.14847,-5.26144c1.12318,1.37828 1.08979,12.80695 1.08979,15.13837c0,11.6628 -14.51982,21.11737 -32.43092,21.11737c-17.9111,0 -32.43092,-9.45457 -32.43092,-21.11737z" data-paper-data="{&quot;index&quot;:null}" fill="#000082" stroke="#000000" stroke-width="2"/><path d="M274.34813,329.56302c14.33063,0 25.38775,-8.75646 29.88321,-5.7726c1.12318,0.74551 1.0898,12.01046 1.0898,13.27153c0,6.30841 -12.25456,9.26589 -30.16566,9.26589c-17.91111,0 -31.80169,-3.88169 -31.80169,-10.1901c0,-6.30841 13.08324,-6.57472 30.99434,-6.57472z" data-paper-data="{&quot;index&quot;:null}" fill="#2e0048" stroke="#000000" stroke-width="0"/><path d="M376.7881,339.54915c0,11.6628 -14.51982,21.11737 -32.43092,21.11737c-17.9111,0 -32.43092,-9.45457 -32.43092,-21.11737c0,-2.33142 -0.03339,-13.76009 1.08979,-15.13837c4.49546,-5.51647 17.81784,5.26144 32.14847,5.26144c17.9111,0 31.62358,-1.78588 31.62358,9.87692z" data-paper-data="{&quot;index&quot;:null}" fill="#000082" stroke="#000000" stroke-width="2"/><path d="M374.90182,336.81684c0,6.30841 -13.89058,10.1901 -31.80169,10.1901c-17.9111,0 -30.16566,-2.95748 -30.16566,-9.26589c0,-1.26107 -0.03338,-12.52602 1.0898,-13.27153c4.49546,-2.98386 15.55258,5.7726 29.88321,5.7726c17.9111,0 30.99434,0.26631 30.99434,6.57472z" data-paper-data="{&quot;index&quot;:null}" fill="#2e0048" stroke="#000000" stroke-width="0"/><g data-paper-data="{&quot;index&quot;:null}" stroke="#000000"><path d="M358.08366,232.89038c26.69167,-19.97181 35.92706,-17.18564 40.77459,-10.70707c4.84754,6.47858 -12.86066,27.92083 -39.55234,47.89264c-26.69168,19.9718 -20.92479,-52.01592 -25.77232,-58.49449c-0.44457,-7.0803 5.82876,-5.27948 10.80787,0.80037c6.14042,7.49787 11.46072,22.21566 13.74222,20.50856z" fill="#216aff" stroke-width="2"/><path d="M407.55992,213.96415c8.79301,11.75159 6.63364,28.22745 -4.8231,36.79985c-11.45674,8.57241 -27.87243,5.99516 -36.66544,-5.75642c-8.79301,-11.75158 -6.63364,-28.22744 4.82311,-36.79984c11.45674,-8.57241 27.87243,-5.99517 36.66544,5.75641z" fill="#faddbf" stroke-width="2"/><path d="M385.35733,247.0159c11.45674,-8.57241 12.48634,-44.60594 21.27936,-32.85435c8.79301,11.75159 6.63364,28.22746 -4.82311,36.79985c-11.45674,8.57241 -27.913,4.62691 -16.45624,-3.94549z" fill="#ef8b89" stroke-width="0"/></g><g data-paper-data="{&quot;index&quot;:null}" stroke="#000000"><path d="M307.93182,234.15921c24.43758,-22.67429 33.91523,-20.87722 39.41869,-14.94576c5.50348,5.93146 -9.84567,29.121 -34.28326,51.79529c-24.43759,22.67428 -26.29159,-49.52025 -31.79506,-55.45171c-1.18848,-6.99399 5.23974,-5.86451 10.83203,-0.34343c6.89661,6.80879 13.73877,20.88373 15.82761,18.94562z" fill="#216aff" stroke-width="2"/><path d="M318.0693,208.26361c10.48923,-9.73238 27.08512,-8.9 37.06796,1.85917c9.98285,10.75917 9.57234,27.37087 -0.91689,37.10325c-10.48923,9.73238 -27.08513,8.89999 -37.06797,-1.85918c-9.98285,-10.75917 -9.57233,-27.37086 0.9169,-37.10324z" fill="#faddbf" stroke-width="2"/><path d="M336.54257,245.33091c10.48923,-9.73238 7.71453,-45.67368 17.69738,-34.91451c9.98285,10.75917 9.57234,27.37087 -0.9169,37.10324c-10.48923,9.73238 -27.26973,7.54365 -16.78048,-2.18873z" fill="#ef8b89" stroke-width="0"/></g><path d="M431.39662,156.69219c4.58934,3.12961 -0.23826,7.00617 -5.06528,14.08463c-4.82702,7.07847 -7.82557,14.67838 -12.41491,11.54877c-4.58934,-3.12961 -4.39666,-11.40489 0.43036,-18.48336c4.82702,-7.07847 12.46049,-10.27965 17.04982,-7.15005z" fill="#000000" stroke="none" stroke-width="0"/></g></g></svg>