<svg version="1.1" xmlns="http://www.w3.org/2000/svg" xmlns:xlink="http://www.w3.org/1999/xlink" width="336.07274" height="336.07274" viewBox="0,0,336.07274,336.07274"><g transform="translate(-151.96363,-11.96363)"><g data-paper-data="{&quot;isPaintingLayer&quot;:true}" fill-rule="nonzero" stroke-linejoin="miter" stroke-miterlimit="10" stroke-dasharray="" stroke-dashoffset="0" style="mix-blend-mode: normal"><g data-paper-data="{&quot;index&quot;:null}"><g><g><g data-paper-data="{&quot;origRot&quot;:0}" stroke="#000000" stroke-width="3" stroke-linecap="round"><path d="M271.65627,220.18689c0,0 -4.80297,-29.71672 -1.72338,-30.46154c5.55272,-1.34295 18.722,-0.94922 18.722,-0.94922l11.26521,-0.62816l-4.28845,-0.16238c0,0 4.96982,-16.00741 7.83143,-18.66054c1.50341,-1.39388 11.47913,0.6717 13.29027,2.51891c4.06296,4.1439 3.16051,42.7181 -1.4268,44.07214c-11.16018,1.61286 -34.77451,5.1257 -34.77451,5.1257c0,0 -8.88274,1.57081 -8.89574,-0.85485z" data-paper-data="{&quot;origPos&quot;:null}" fill="#582700"/><path d="M281.80686,219.27929l-1.48864,-29.69773" fill="none"/><path d="M285.93231,219.31262l-1.19499,-29.71554" data-paper-data="{&quot;origPos&quot;:null}" fill="none"/></g><path d="M280.69542,189.4948l2.88403,-0.15755l1.32498,30.38918l-2.88403,0.15755z" fill="#ffffff" stroke="none" stroke-width="0" stroke-linecap="butt"/><path d="M314.09347,215.80678l-27.79328,3.9729l-0.32793,-29.95503l13.62154,-0.7485l0.02927,-1.98054l-3.078,-0.24624l7.18233,-16.83734l1.54083,-0.00065l7.7041,-0.00328l3.80086,3.46428l1.93375,8.16875l-0.09426,23.7661l-2.98207,10.6465z" fill="#66c8ff" stroke="#000000" stroke-width="0.5" stroke-linecap="round"/></g><g fill="#fffc96" stroke="#000000" stroke-width="2" stroke-linecap="round"><path d="M289.75569,189.12434c0,0 4.02741,4.26812 11.4878,8.72529c7.56523,4.51979 14.39119,6.92648 14.39119,6.92648l1.65849,-1.41108c0,0 2.56787,2.59504 0.97233,4.31484c-3.90517,4.20925 -35.8928,-15.90589 -32.39223,-20.15855c2.18794,-2.65798 6.26055,0.28323 6.26055,0.28323z"/><path d="M299.07573,182.92517c0,0 -0.19899,6.5206 1.92425,15.55494c2.12323,9.03435 4.70997,14.66242 4.70997,14.66242l1.2488,-1.00114c0,0 1.95804,3.52961 -0.60083,5.55234c-4.22518,3.33997 -14.29159,-36.41879 -9.20312,-38.81638c2.42406,-1.14219 3.20433,3.24918 3.20433,3.24918z" data-paper-data="{&quot;index&quot;:null}"/></g></g><g><g data-paper-data="{&quot;index&quot;:null}"><path d="M271.90297,186.6201c2.46963,-0.46574 5.80175,-5.00509 6.21683,-2.80037c0.27651,1.46879 -0.94682,22.80483 -2.28797,24.28186c-0.67197,0.74006 -1.86803,1.36218 -2.6924,1.51766c-1.21169,0.22849 -2.32897,-0.19779 -3.21852,-1.04022c-0.92354,-0.87462 -5.19965,-21.30961 -5.41108,-22.43261c-0.41507,-2.20475 4.92347,0.93937 7.39311,0.47366z" fill="#0091d4" stroke="#000000" stroke-width="1.5" stroke-linecap="butt"/><g stroke-linecap="butt"><path d="M270.50733,179.3312c4.47441,-0.84378 8.53504,0.77445 9.0697,3.61438c0.53466,2.83993 -2.65913,5.82616 -7.13352,6.66993c-4.47441,0.84377 -8.53504,-0.77447 -9.0697,-3.6144c-0.53466,-2.83993 2.65911,-5.82615 7.13351,-6.66992z" fill="#0091d4" stroke="#000000" stroke-width="1.5"/><path d="M275.70975,185.00429l3.34916,-2.25213c0,0 -0.3791,1.94384 -0.84588,2.64401c-1.00077,1.45402 -2.61011,2.14731 -2.61011,2.14731z" fill="#00aeff" stroke="none" stroke-width="0"/><path d="M272.29467,186.4796l1.57196,-0.60511c0,0 0.30083,0.9753 0.34325,1.33009c0.04966,0.41541 -0.09077,1.19345 -0.09077,1.19345l-1.94623,0.41964z" fill="#00aeff" stroke="none" stroke-width="0"/></g><g><path d="M271.57998,185.64678c-6.17249,1.16399 -10.25224,-1.68303 -11.3693,-7.61646c-1.11705,-5.93339 3.29752,-11.74663 9.47006,-12.91064c6.1725,-1.16397 11.33476,2.21357 12.45182,8.147c1.11704,5.93341 -4.38002,11.21613 -10.55256,12.38014z" fill="#00699a" stroke="#000000" stroke-width="1.5" stroke-linecap="butt"/><path d="M271.92995,165.55358c0,0 8.48906,0.89489 9.4664,6.08619c0.55425,2.94381 -0.36226,6.27613 -1.80223,8.86024c-1.02589,1.84106 -2.83957,3.35658 -5.0214,3.76802c-4.48475,0.84569 -6.44106,-0.77328 -7.4184,-5.96458c-0.48807,-2.59247 0.49148,-6.07434 2.01211,-8.5658c1.52432,-2.4975 2.7635,-4.18408 2.7635,-4.18408z" fill="#0091d4" stroke="none" stroke-width="0" stroke-linecap="butt"/><path d="M281.80052,173.39665c0,0 -2.28047,4.64551 -9.37392,6.23646c-7.15156,1.604 -11.10691,-1.398 -11.10691,-1.398" fill="none" stroke="#000000" stroke-width="0.8" stroke-linecap="round"/><path d="M281.40074,178.35349c0,0 -3.75721,3.06241 -8.15744,4.57177c-6.34131,2.17519 -9.27587,0.60728 -9.27587,0.60728" fill="none" stroke="#000000" stroke-width="0.75" stroke-linecap="round"/><path d="M279.95441,168.98533c0,0 -2.58953,4.07243 -9.60273,6.04918c-6.74543,1.9013 -9.20777,0.24386 -9.20777,0.24386" fill="none" stroke="#000000" stroke-width="0.8" stroke-linecap="round"/><path d="M260.95007,173.91155c0,0 3.8058,-3.12009 7.10242,-4.64828c4.34215,-2.01289 9.06801,-2.8554 9.06801,-2.8554" fill="none" stroke="#000000" stroke-width="0.8" stroke-linecap="round"/><path d="M269.06415,185.31726c0,0 -3.11581,-2.82303 -4.55568,-9.02584c-1.34364,-5.78831 1.17214,-8.94663 1.17214,-8.94663" fill="none" stroke="#000000" stroke-width="0.8" stroke-linecap="round"/><path d="M267.89329,166.62241c0,0 0.35342,3.00186 1.25969,6.17734c0.79698,2.79255 2.1301,5.685 2.52439,7.26268c0.46831,1.87384 0.8471,5.09041 0.8471,5.09041" fill="none" stroke="#000000" stroke-width="0.8" stroke-linecap="round"/><path d="M270.61326,165.56034c0,0 4.06223,3.99628 4.94824,8.04638c1.39062,6.35675 -0.23939,10.89652 -0.23939,10.89652" fill="none" stroke="#000000" stroke-width="0.8" stroke-linecap="round"/><path d="M274.25742,165.36131c0,0 3.10469,2.78291 4.55914,6.68409c2.09445,5.61785 1.12755,9.02348 1.12755,9.02348" fill="none" stroke="#000000" stroke-width="0.8" stroke-linecap="round"/><path d="M280.02396,172.38927c-0.44012,0.08297 -0.87145,-0.24548 -0.96333,-0.73363c-0.09192,-0.48816 0.1904,-0.95116 0.6305,-1.03416c0.44014,-0.08298 0.87144,0.24547 0.96332,0.73362c0.09193,0.48816 -0.19039,0.95116 -0.63049,1.03416z" fill="#00aeff" stroke="none" stroke-width="0" stroke-linecap="butt"/><path d="M278.51385,169.25706c-0.25392,0.04788 -0.49703,-0.11119 -0.54297,-0.35525c-0.04594,-0.24406 0.12267,-0.48076 0.37656,-0.52865c0.25391,-0.0479 0.497,0.11117 0.54294,0.35523c0.04597,0.24407 -0.12265,0.48074 -0.37654,0.52863z" fill="#00aeff" stroke="none" stroke-width="0" stroke-linecap="butt"/></g></g><path d="M275.53439,188.23943c0.72636,-0.62504 2.93968,-0.63169 2.93968,-0.63169l5.38437,-0.31655c0,0 1.20913,0.60609 1.43584,1.31119c0.68016,2.11531 1.32766,6.27768 2.25518,10.58054c0.15418,0.7152 -0.89729,1.06885 -0.89729,1.06885c0,0 -1.7191,0.2904 -2.81943,0.47626c-1.6757,0.28305 -4.29376,0.72531 -4.29376,0.72531c0,0 -1.30402,0.38089 -1.55705,-0.93481c0,0 -1.02336,-1.69352 -2.44752,-12.27913z" fill="#582700" stroke="#000000" stroke-width="3" stroke-linecap="round"/><path d="M262.85384,191.73582c1.26566,-1.23352 5.27918,-1.09992 5.27918,-1.09992l9.73884,-0.29114c0,0 2.24292,1.32336 2.71232,2.7845c1.40822,4.38341 2.92629,12.96279 4.96374,21.84883c0.33865,1.47704 -1.53906,2.13234 -1.53906,2.13234c0,0 -3.09381,0.48119 -5.07397,0.78919c-3.01561,0.46904 -7.72717,1.20188 -7.72717,1.20188c0,0 -2.33357,0.69446 -2.90109,-2.02065c0,0 -1.99582,-3.54117 -5.45282,-25.34507z" fill="#582700" stroke="#000000" stroke-width="3" stroke-linecap="round"/></g></g><g data-paper-data="{&quot;index&quot;:null}" stroke="#000000" stroke-linecap="round"><path d="M340.28592,160.34054c0,0 16.74615,-0.99815 16.48094,5.54738c-0.71981,17.76589 -29.52059,10.91204 -29.52059,10.91204z" data-paper-data="{&quot;origPos&quot;:null}" fill="#66c8ff" stroke-width="2"/><path d="M339.45463,161.80397c0,0 12.13248,-0.13556 12.74023,1.81091c0.19166,0.6139 -16.24455,1.92235 -16.24455,1.92235z" data-paper-data="{&quot;origPos&quot;:null}" fill="#0a0a0a" stroke-width="1"/></g><g data-paper-data="{&quot;origRot&quot;:0,&quot;index&quot;:null}" stroke="#000000" stroke-linecap="round"><path d="M319.42939,262.67502c0,0 0.35751,4.41822 -0.76644,6.48747c-0.86041,1.5841 -2.80012,1.95046 -4.643,2.18608c-5.05847,0.64676 -9.79684,-1.30865 -17.6795,-2.20672c-2.14689,-0.24457 -2.9827,-3.41702 -2.58976,-5.46044c0.36752,-1.91123 1.1282,-5.21185 1.1282,-5.21185l6.93217,-32.05196c0,0 1.03845,-4.12155 2.89776,-4.67136c4.47754,-1.32406 8.87973,0.61523 13.55552,0.89222c1.58456,0.09388 1.13338,4.821 1.13338,4.821z" data-paper-data="{&quot;origPos&quot;:null}" fill="#ff0000" stroke-width="3"/><path d="M294.67094,259.52616l23.81649,2.79748c0,0 0.86665,2.58057 0.61914,4.23295c-0.23495,1.56855 -1.85542,4.02028 -1.85542,4.02028c0,0 -8.75506,0.27892 -12.75477,-0.05796c-5.21315,-0.43908 -11.06239,-3.53647 -11.06239,-3.53647z" data-paper-data="{&quot;origPos&quot;:null}" fill="#976e57" stroke-width="2"/><path d="M319.31718,262.98406c0,0 0.3575,4.41822 -0.76645,6.48747c-0.86041,1.58408 -2.80011,1.95046 -4.64299,2.18608c-5.05847,0.64676 -9.79684,-1.30866 -17.6795,-2.20673c-2.14688,-0.24458 -2.9827,-3.41702 -2.58976,-5.46044c0.36752,-1.91122 1.12822,-5.21185 1.12822,-5.21185l6.93217,-32.05196c0,0 1.03843,-4.12154 2.89774,-4.67135c4.47755,-1.32408 8.87976,0.61521 13.55553,0.8922c1.58456,0.09387 1.13338,4.82099 1.13338,4.82099z" data-paper-data="{&quot;origPos&quot;:null}" fill="#4b4b4b" stroke-width="3"/></g><path d="M325.29263,263.38882c0,0 -1.24158,-12.51092 -2.03625,-20.51854c-0.56305,-5.67362 -1.44273,-14.53792 -1.44273,-14.53792c0,0 -0.92032,-4.66381 0.64757,-4.90319c4.62663,-0.70639 8.81527,-3.04219 13.40419,-2.13661c1.90556,0.37603 3.35007,4.38296 3.35007,4.38296l10.09543,31.26602c0,0 1.08621,3.21537 1.64256,5.08394c0.59482,1.99782 0.07911,5.23264 -2.03351,5.67384c-7.75687,1.61994 -12.27849,4.0028 -17.37816,3.8249c-1.85789,-0.06482 -3.82519,-0.25084 -4.83956,-1.7484c-1.32504,-1.95621 -1.40964,-6.38703 -1.40964,-6.38703z" data-paper-data="{&quot;index&quot;:null}" fill="#4b4b4b" stroke="#000000" stroke-width="3" stroke-linecap="round"/><g data-paper-data="{&quot;index&quot;:null}"><path d="M340.2891,207.71914c0,0 1.45315,15.54281 -0.80374,15.89721c-6.77072,1.06325 -24.69196,0.8314 -39.95447,1.35242c-1.71452,0.05855 -2.03581,-14.73149 -2.03581,-14.73149l0.66055,-30.32937c0,0 0.84025,-13.42008 2.41192,-13.47373c10.16672,-0.34708 25.34233,-1.78598 32.05877,-0.38895c2.2388,0.46568 4.78469,14.63696 4.78469,14.63696z" data-paper-data="{&quot;origPos&quot;:null}" fill="#66c8ff" stroke="#000000" stroke-width="3.5" stroke-linecap="round"/><path d="M318.35193,189.4456c-1.32783,0.04532 -1.42284,-2.41283 -1.42284,-2.41283l-0.06336,-1.63877c-0.19709,-5.0984 -0.39416,-10.19678 -0.59124,-15.29517c0,0 -0.09504,-2.45816 1.23279,-2.50349c1.32782,-0.04534 1.42284,2.41283 1.42284,2.41283c0.19708,5.09841 0.45751,11.83555 0.65459,16.93394c0,0 0.09504,2.45815 -1.23279,2.50348z" fill="#ffffff" stroke="none" stroke-width="0.5" stroke-linecap="butt"/><path d="M306.25715,189.44625c-1.32782,0.04534 -1.44718,-3.0428 -1.44718,-3.0428l-0.07958,-2.05876c-0.24759,-6.40502 -0.49517,-12.81003 -0.74277,-19.21505c0,0 -0.11938,-3.08814 1.20845,-3.13347c1.32782,-0.04534 1.44718,3.0428 1.44718,3.0428c0.24759,6.40501 0.57475,14.86877 0.82235,21.27379c0,0 0.11938,3.08813 -1.20845,3.13346z" fill="#ffffff" stroke="none" stroke-width="0.5" stroke-linecap="butt"/></g><g data-paper-data="{&quot;index&quot;:null}" fill="none" stroke="#b9b9b9" stroke-width="3"><path d="M304.07688,172.54595c-1.27277,1.85352 -2.2693,0.71587 -3.48128,-0.53145c-0.949,-0.97668 -2.44382,-1.99387 -0.90761,-3.98549c0.72456,-0.9393 1.97256,-0.52789 3.18451,0.71941c1.21196,1.24733 2.10564,2.48511 1.2044,3.79754z" stroke-linecap="butt"/><path d="M305.65591,174.50923l-2.56891,-2.5822" stroke-linecap="round"/><path d="M309.27844,175.25785c1.21196,1.24734 2.10563,2.48512 1.20439,3.79755c-1.27278,1.85352 -2.26932,0.71586 -3.48128,-0.53145c-0.949,-0.97668 -2.44381,-1.99387 -0.9076,-3.98549c0.72455,-0.9393 1.97254,-0.52789 3.1845,0.71941z" stroke-linecap="butt"/><path d="M312.06186,181.0187l-2.56891,-2.58221" stroke-linecap="round"/><path d="M317.85861,180.77276c0.49584,2.30205 -0.8792,2.56349 -2.45869,2.96255c-1.23678,0.31248 -2.82991,1.11495 -3.26116,-1.51742c-0.20339,-1.24154 0.82847,-2.1721 2.40796,-2.57117c1.5795,-0.39907 2.96081,-0.50403 3.31191,1.12601z" stroke-linecap="butt"/><path d="M320.14683,180.45411l-3.30594,0.88258" stroke-linecap="round"/><path d="M325.42297,176.70617c1.22733,1.88259 0.04848,2.75905 -1.27261,3.85644c-1.03447,0.85928 -2.23305,2.33312 -3.51148,0.11754c-0.60295,-1.04496 0.03583,-2.37649 1.35692,-3.47387c1.32107,-1.09738 2.55809,-1.83319 3.42716,-0.50014z" stroke-linecap="butt"/><path d="M324.67442,177.69473l2.74925,-2.34028" stroke-linecap="round"/><path d="M332.33678,170.88652c1.22734,1.8826 0.0485,2.75906 -1.27259,3.85644c-1.03446,0.85928 -2.23305,2.3331 -3.51148,0.11753c-0.60294,-1.04496 0.03583,-2.37649 1.35693,-3.47387c1.32106,-1.09738 2.55809,-1.83316 3.42716,-0.50013z" stroke-linecap="butt"/><path d="M331.58824,171.87507l2.74925,-2.34028" stroke-linecap="round"/></g><path d="M296.11479,165.3202c0,0 -1.89371,-4.14938 -1.99818,-5.21863c-0.31342,-3.20772 -0.72991,-17.23516 -1.06249,-29.91415c-0.05146,-1.96111 1.53108,-5.0587 1.53108,-5.0587c0,0 2.22234,-1.65528 3.51955,-1.6883c14.31204,-0.36425 27.9019,-1.79187 33.24972,-0.36897c1.7826,0.4743 5.0647,2.12666 5.0647,2.12666c0,0 0.84482,4.331 1.01212,5.4466c0.05578,0.37186 0.08822,0.58116 0.12087,0.95547c0.97817,11.21541 0.86027,24.21907 0.59713,28.76493c-0.08769,1.5153 -1.89341,3.91599 -1.89341,3.91599c0,0 -1.35577,2.7252 -5.85895,3.61643c-4.92726,0.97517 -16.98344,0.8501 -29.41565,0.68431z" data-paper-data="{&quot;index&quot;:null}" fill="#582700" stroke="#000000" stroke-width="2.5" stroke-linecap="round"/><path d="M303.65646,147.45571c0.08935,3.40605 -0.26368,6.17581 -0.78847,6.18639c-0.52479,0.01061 -1.02266,-2.74197 -1.11199,-6.14802c-0.08934,-3.40603 0.26369,-6.17579 0.78848,-6.18637c0.52479,-0.01061 1.02266,2.74197 1.11199,6.14801z" data-paper-data="{&quot;index&quot;:null}" fill="none" stroke="#000000" stroke-width="2.5" stroke-linecap="butt"/><path d="M309.28484,147.60407c0.091,3.46914 -0.15433,6.28785 -0.54793,6.2958c-0.39359,0.00792 -0.78642,-2.79791 -0.87742,-6.26704c-0.091,-3.46913 0.15432,-6.28787 0.54792,-6.29582c0.39357,-0.00794 0.78643,2.79792 0.87743,6.26705z" data-paper-data="{&quot;index&quot;:null}" fill="none" stroke="#000000" stroke-width="2.5" stroke-linecap="butt"/><path d="M340.82759,126.01127c-0.68283,1.04465 -1.77228,0.38378 -1.77228,0.38378l-0.74823,-0.50177c-0.09276,-0.02832 -0.18548,-0.05614 -0.27814,-0.0835c-0.21906,0.3126 -0.65195,0.68063 -1.41441,0.45592c-0.70275,-0.20712 -0.88291,-0.68124 -0.90816,-1.04993c-2.72042,-0.59406 -5.43431,-0.85012 -8.28126,-1.03441c-7.96503,-0.25329 -15.93146,0.08797 -23.89586,0.27131c-2.61196,0.06015 -8.42866,1.20511 -10.65893,-0.41239c-1.0877,-0.78884 -0.72741,-2.70687 -0.86118,-3.74565c-0.3876,-3.01014 -0.85869,-6.12507 -0.95934,-9.15762c-0.10399,-3.96444 -1.74912,-7.46915 -2.38178,-11.34535c-0.31718,-1.94327 -1.06073,-3.88711 0.70441,-5.61306c0.49839,-0.48732 1.40549,-0.2304 2.11558,-0.28212c2.5952,-0.18901 5.11526,-0.07526 7.6943,0.16046c8.17298,0.74702 16.24231,1.07824 24.37359,2.3063c3.28022,0.49918 6.57208,0.49243 9.89043,0.52488c1.95028,0.01908 3.71239,-0.55596 4.93939,1.55888c0.73274,1.26295 0.33272,5.23328 0.31947,6.69975c-0.05101,5.65466 1.07464,12.56997 0.00409,18.28125c0.12157,0.03548 0.2432,0.07173 0.36492,0.10871l1.34675,0.76906c0,0 1.08945,0.66088 0.40664,1.70554z" data-paper-data="{&quot;index&quot;:null}" fill="#000000" stroke="none" stroke-width="0.5" stroke-linecap="butt"/><g data-paper-data="{&quot;index&quot;:null}"><g stroke="#000000" stroke-width="3" stroke-linecap="round"><path d="M360.33394,196.07902c0,0 5.2807,9.33157 5.89109,13.84994c-14.25894,9.58452 -24.51966,9.17742 -24.51966,9.17742c-1.90847,0.82055 -3.82412,-6.13396 -3.82412,-6.13396c0,0 -4.20256,-13.45866 -6.89244,-22.07284c-1.76626,-5.65643 -4.52586,-14.49392 -4.52586,-14.49392c0,0 -1.49318,-5.68018 -0.42594,-6.04515c6.42074,-2.19576 12.18436,-5.53766 15.74262,-5.52371c1.18608,0.00466 4.02317,4.95507 4.02317,4.95507l14.53115,26.28716z" data-paper-data="{&quot;origPos&quot;:null}" fill="#582700"/><path d="M362.33498,201.4384l-24.51809,9.40012l-1.28385,-3.12985l24.45924,-9.64952z" data-paper-data="{&quot;origPos&quot;:null}" fill="none"/></g><path d="M336.1529,207.36582l-10.1159,-35.13772l0.96199,-1.08791l15.05655,-5.91207l18.06534,32.67573z" fill="#66c8ff" stroke="#000000" stroke-width="1" stroke-linecap="round"/><path d="M337.61302,210.44255l-0.89183,-2.13998l24.35138,-9.36947l0.89184,2.13996z" fill="#ffffff" stroke="none" stroke-width="0" stroke-linecap="butt"/></g><path d="M305.39881,141.32274c-0.26447,-0.69783 0.46024,-0.94914 0.46024,-0.94914l0.57611,-0.18628c0.94884,-0.51703 1.95102,-0.84601 2.98804,-0.98534c0.07739,-0.0294 0.15514,-0.05853 0.23325,-0.0874c0.02075,-0.00852 0.04171,-0.01715 0.06284,-0.02585l0.03059,-0.01395l-0.03111,-0.09053l0.76721,-0.241c0.0745,-0.02524 0.15437,-0.0398 0.2377,-0.04172c0.42588,-0.00981 0.78087,0.31421 0.79286,0.72372c0.00889,0.30323 -0.17279,0.56832 -0.44059,0.68946c-0.14137,0.12905 -0.2989,0.18368 -0.2989,0.18368c-0.16736,0.05796 -0.33261,0.11645 -0.49617,0.17596c-0.68541,0.29813 -1.24703,0.72991 -1.83221,0.7566c-0.12762,0.06043 -0.25522,0.12276 -0.38302,0.18722l-0.6464,0.50945c-0.12861,0.10338 -0.29323,0.16712 -0.47417,0.17129c-0.26376,0.00609 -0.50032,-0.11587 -0.64506,-0.30688c-0.20116,0.04133 -0.69334,0.07922 -0.90121,-0.46926z" data-paper-data="{&quot;index&quot;:null}" fill="#582700" stroke="none" stroke-width="0.5" stroke-linecap="butt"/><path d="M318.99124,155.57002c0.72247,-0.25712 0.99297,0.43858 0.99297,0.43858l0.50666,1.31908c0.36884,4.27806 -4.0035,4.33668 -7.31802,3.26714c0,0 -0.73205,-0.23696 -0.48865,-0.93978c0.24339,-0.70281 0.97546,-0.46584 0.97546,-0.46584c1.81508,0.58959 5.81575,1.31949 5.33082,-1.52178l-0.45122,-1.14455c0,0 -0.27049,-0.69571 0.45199,-0.95283z" data-paper-data="{&quot;index&quot;:null}" fill="#000000" stroke="none" stroke-width="0.5" stroke-linecap="butt"/><path d="M151.96363,348.03637v-336.07274h336.07274v336.07274z" data-paper-data="{&quot;index&quot;:null}" fill="none" stroke="#000000" stroke-width="0" stroke-linecap="butt"/></g></g></svg>