<svg version="1.1" xmlns="http://www.w3.org/2000/svg" xmlns:xlink="http://www.w3.org/1999/xlink" width="36.29541" height="36.20598" viewBox="0,0,36.29541,36.20598"><g transform="translate(-301.8523,-161.8523)"><g data-paper-data="{&quot;isPaintingLayer&quot;:true}" fill-rule="nonzero" stroke-linejoin="miter" stroke-miterlimit="10" stroke-dasharray="" stroke-dashoffset="0" style="mix-blend-mode: normal"><path d="M318.26403,197.05828c-9.42103,-0.95875 -16.28106,-9.37322 -15.32231,-18.79425c0.95875,-9.42102 9.37322,-16.28106 18.79425,-15.32231c9.42103,0.95875 16.28106,9.37322 15.32231,18.79425c-0.95875,9.42102 -9.37322,16.28106 -18.79425,15.32231z" data-paper-data="{&quot;index&quot;:null}" fill="#001aff" stroke="#000000" stroke-width="2" stroke-linecap="butt"/><path d="M335.96107,174.82157l-5.09856,5.11556l-5.86939,-4.61184l-5.4104,4.02737l-6.81693,-4.98998l-4.3731,4.90766l-4.34166,-5.09023" data-paper-data="{&quot;index&quot;:null}" fill="none" stroke="#000000" stroke-width="2" stroke-linecap="round"/><path d="M321.35373,181.03204l0.13841,9.26472" data-paper-data="{&quot;index&quot;:null}" fill="none" stroke="#000000" stroke-width="2.5" stroke-linecap="round"/><path d="M315.93121,182.07763l0.216,9.09241" data-paper-data="{&quot;index&quot;:null}" fill="none" stroke="#000000" stroke-width="2.5" stroke-linecap="round"/><path d="M326.9129,188.36548c-0.02168,-0.02889 -0.0386,-0.05963 -0.05174,-0.09188c-0.11918,-0.21459 -0.14009,-0.48046 -0.03354,-0.72243c0.12017,-0.2729 0.37224,-0.44672 0.64835,-0.47956c0.43782,-0.32384 1.25941,0.71732 1.40084,0.96818c0.57139,1.01348 1.25442,2.90597 -0.04879,3.77716c-0.8806,0.58868 -3.67516,-0.46251 -3.18419,-1.57746c0.59577,-1.35295 1.56793,0.37962 2.24325,0.04299c0.63142,-0.31474 -0.82858,-1.72292 -0.97417,-1.917z" data-paper-data="{&quot;index&quot;:null}" fill="#000000" stroke="none" stroke-width="0.5" stroke-linecap="butt"/></g></g></svg>