<svg version="1.1" xmlns="http://www.w3.org/2000/svg" xmlns:xlink="http://www.w3.org/1999/xlink" width="219.99319" height="323.51437" viewBox="0,0,219.99319,323.51437"><g transform="translate(-224.78117,-37.00065)"><g data-paper-data="{&quot;isPaintingLayer&quot;:true}" fill-rule="nonzero" stroke-linejoin="miter" stroke-miterlimit="10" stroke-dasharray="" stroke-dashoffset="0" style="mix-blend-mode: normal"><g><path d="M412.19362,218.91079c-14.95381,-2.00157 -22.68107,-10.69061 -21.3917,-25.57173c1.0084,-11.63867 15.21759,-22.86908 30.17143,-20.86752c14.95389,2.00155 24.52362,13.11838 22.54203,27.9232c-0.30988,2.3152 -1.28298,4.3599 -2.15431,6.23571c-4.70052,10.11907 -16.55207,13.96891 -29.16743,12.28036z" fill="#216aff" stroke="#000000" stroke-width="2" stroke-linecap="butt"/><path d="M407.61549,175.81126c0,0 -1.19874,5.62976 0.23201,7.03204c13.72376,13.4511 27.46696,16.33948 32.08535,16.9479c1.04928,0.13824 1.74801,-0.74074 1.74801,-0.74074c0,0 -0.05886,2.11298 -1.002,4.68678c-1.00359,2.73875 -2.96089,6.00567 -5.27972,8.02266c-2.64878,2.30392 -10.1366,5.97012 -10.1366,5.97012l-20.94317,0.49317c0,0 -9.05774,-9.94546 -9.87519,-11.95262c-0.80083,-1.96635 -1.18448,-4.52282 -1.7018,-7.22456c-0.80318,-4.19481 -0.05516,-8.67224 1.19921,-11.2648c1.6009,-3.30868 4.87601,-6.62914 7.9852,-8.84167c2.8937,-2.05916 5.68865,-3.1281 5.68865,-3.1281z" fill="#3236f4" stroke="none" stroke-width="0" stroke-linecap="butt"/><path d="M406.72751,200.23217c0,0 -0.68161,-8.99632 2.13875,-13.31206c3.57028,-5.46329 13.40827,-13.90819 13.40827,-13.90819" fill="none" stroke="#000000" stroke-width="1" stroke-linecap="round"/><path d="M442.81123,193.34149c0,0 -2.42146,6.72803 -4.8,10.30773c-2.40123,3.61393 -10.27539,9.28403 -10.27539,9.28403" fill="none" stroke="#000000" stroke-width="1" stroke-linecap="round"/><path d="M395.8834,201.89396c0,0 -0.83761,-9.22412 2.43013,-13.75964c5.01423,-6.95958 13.48948,-14.87577 13.48948,-14.87577" fill="none" stroke="#000000" stroke-width="1" stroke-linecap="round"/><path d="M393.69602,186.76741c0,0 14.99469,-8.63911 30.82056,-1.3531c17.33523,7.98089 14.72358,25.02993 14.72358,25.02993" fill="none" stroke="#000000" stroke-width="1" stroke-linecap="round"/><path d="M391.18443,195.95419c0,0 16.67555,-6.22805 30.65442,0.17121c11.47792,5.25441 10.62143,19.821 10.62143,19.821" fill="none" stroke="#000000" stroke-width="1" stroke-linecap="round"/><path d="M432.7445,182.39739c-0.93282,-0.75964 -1.20142,-1.9741 -0.60008,-2.71251c0.60134,-0.73848 1.23307,-0.25383 2.16587,0.50583c0.93282,0.75964 1.81339,1.50661 1.21203,2.24505c-0.60134,0.73848 -1.84507,0.7213 -2.77781,-0.03836z" fill="#8fbbbe" stroke="none" stroke-width="0" stroke-linecap="butt"/><path d="M437.70434,187.71329c-0.59617,-0.07984 -0.98243,-0.86941 -0.86272,-1.76366c0.11968,-0.89425 0.29202,-1.24284 0.88817,-1.16308c0.59617,0.07984 1.16234,0.89349 1.04263,1.78773c-0.11968,0.89425 -0.47196,1.21877 -1.0681,1.13896z" fill="#8fbbbe" stroke="none" stroke-width="0" stroke-linecap="butt"/><path d="M427.33952,178.07885c-0.87642,-0.21432 -1.47106,-0.86164 -1.3282,-1.4459c0.14279,-0.58423 0.8969,-0.34448 1.77329,-0.13019c0.87642,0.21432 1.54328,0.3219 1.40044,0.90618c-0.14279,0.58423 -0.96914,0.88419 -1.84556,0.6699z" fill="#8fbbbe" stroke="none" stroke-width="0" stroke-linecap="butt"/><path d="M403.52437,177.64443c0,0 10.03245,-2.00735 17.48598,-0.64181c4.22578,0.77422 7.6829,2.91536 10.28575,4.56805c2.30184,1.46152 6.02766,6.87852 8.44801,11.32153c1.78195,3.27115 2.68047,6.07464 2.68047,6.07464" fill="none" stroke="#000000" stroke-width="0.5" stroke-linecap="round"/><path d="M437.66036,179.83278c0,0 -1.80447,10.41736 -4.61042,15.0373c-2.36405,3.89241 -10.76808,10.92357 -10.76808,10.92357" fill="none" stroke="#000000" stroke-width="1" stroke-linecap="round"/><path d="M416.92143,203.42793c0,0 1.75591,-9.50498 3.67142,-13.60154c3.36326,-7.19273 11.51575,-13.66683 11.51575,-13.66683" fill="none" stroke="#000000" stroke-width="1" stroke-linecap="round"/></g><path d="M350.65291,324.80572c0,0 23.72755,-48.74876 33.41605,-70.95172c8.29673,-19.01345 15.50161,-50.53064 15.50161,-50.53064l24.89653,3.90663l-52.1555,127.02674z" fill="#000000" stroke="none" stroke-width="0" stroke-linecap="butt"/><path d="M435.23082,221.95346c-2.19556,5.03152 -14.28802,4.61037 -27.00924,-0.94067c-12.72123,-5.55105 -21.25397,-14.12992 -19.05841,-19.16145c2.19556,-5.03152 14.28802,-4.61037 27.00924,0.94067c12.72123,5.55105 21.25397,14.12992 19.05841,19.16145z" fill="#000000" stroke="none" stroke-width="NaN" stroke-linecap="butt"/><g data-paper-data="{&quot;index&quot;:null}" stroke="#000000" stroke-linecap="butt"><path d="M372.79619,229.76154c29.64605,-15.24567 38.28818,-10.95978 41.98857,-3.76412c3.70042,7.19566 -17.3327,25.38793 -46.97876,40.6336c-29.64606,15.24565 -11.96618,-54.77513 -15.66657,-61.97078c0.74126,-7.05542 6.62688,-4.23456 10.52347,2.58983c4.80542,8.41611 7.59926,23.81461 10.13331,22.51146z" fill="#216aff" stroke-width="2"/><path d="M389.54027,207.55824c12.72483,-6.54384 28.48168,-1.26766 35.19391,11.78465c6.71223,13.05232 1.83807,28.93815 -10.88678,35.48198c-12.72483,6.54384 -28.4817,1.26765 -35.19394,-11.78466c-6.71223,-13.05232 -1.83805,-28.93812 10.88679,-35.48196z" fill="#faddbf" stroke-width="2"/><path d="M397.33527,248.23359c12.72483,-6.54384 19.74346,-41.90221 26.45569,-28.84989c6.71223,13.05232 1.83806,28.93813 -10.88678,35.48197c-12.72483,6.54384 -28.29377,-0.08822 -15.56892,-6.63206z" fill="#ef8b89" stroke-width="0"/></g><path d="M224.78117,360.17125v-93.89347h213.03043v93.89347z" fill="#000000" stroke="none" stroke-width="NaN" stroke-linecap="butt"/><g stroke="#000000" stroke-linecap="butt"><path d="M339.5356,324.85997l-14.75435,-94.1458l29.13636,-4.56619l14.75435,94.1458z" fill="#73fffc" stroke-width="2"/><path d="M339.1181,324.29992l-13.21042,-92.86015c0,0 15.68585,66.48538 18.30656,75.60575c0.57936,2.01623 2.92382,2.36571 2.92382,2.36571l20.4165,10.0997z" fill="#59a9e6" stroke-width="0"/></g><g fill="none" stroke="#808080" stroke-width="0.5" stroke-linecap="round"><path d="M437.84876,280.63432l-193.59492,1.15407l-17.0225,-13.84882"/><path d="M243.96532,281.78839l-2.01962,78.47663"/></g><g stroke="#000000" stroke-linecap="butt"><path d="M252.53503,304.31976l49.0292,-81.7145l25.2891,15.17362l-49.0292,81.7145z" fill="#73fffc" stroke-width="2"/><path d="M252.57362,303.62232l49.38998,-79.73802c0,0 -30.58232,61.08251 -34.41765,69.76235c-0.84788,1.91884 0.72745,3.69 0.72745,3.69l9.19498,20.83962z" fill="#59a9e6" stroke-width="0"/></g><g stroke="#000000" stroke-linecap="butt"><path d="M359.9028,231.13606c-0.49815,13.79372 8.71477,37.08256 3.27001,46.60815c-6.65857,11.64915 -28.92204,8.05722 -39.24261,7.6845c-13.65397,-0.4931 -33.07311,2.97849 -37.78397,-16.20637c-1.76158,-7.17401 5.52009,-32.19439 5.82147,-40.53971c1.10736,-30.6625 17.21283,-54.97015 35.97259,-54.29265c18.75976,0.6775 33.06986,26.08358 31.9625,56.74608z" fill="#216aff" stroke-width="2"/><path d="M308.11039,244.85235c-0.49815,13.79372 61.25994,22.77462 55.81517,32.3002c-6.65856,11.64914 -28.92204,8.05722 -39.24261,7.6845c-13.65397,-0.4931 -33.0731,2.97849 -37.78397,-16.20636c-1.76159,-7.17401 5.52009,-32.1944 5.82147,-40.53971c0.34115,-9.44628 4.37849,-28.45853 6.59751,-29.7494c6.54507,-16.53871 9.55116,25.50127 8.79242,46.51078z" fill="#3236f4" stroke-width="0"/></g><g stroke="#000000" stroke-linecap="butt"><g><path d="M243.11726,115.98694c5.27572,-46.49241 47.24207,-79.90516 93.73449,-74.62943c46.49241,5.27573 79.90517,47.24207 74.62945,93.7345c-5.27572,46.49241 -47.24209,79.90516 -93.7345,74.62944c-46.49241,-5.27572 -79.90516,-47.24208 -74.62944,-93.73449z" fill="#faddbf" stroke-width="2"/><path d="M243.44461,115.14898c1.69737,-14.95828 13.22614,-39.77354 18.06883,-42.4588c0.55304,-0.30667 6.75417,-8.20106 14.98402,-14.0268c10.22915,-7.241 22.88772,-12.65651 23.47238,-12.39181c7.62802,3.45309 -24.72724,62.46522 -26.34771,87.73358c-0.00387,0.06026 2.15796,20.07289 3.71663,20.6915c2.33237,5.03759 6.89326,20.0585 16.90013,28.37997c18.64896,15.50807 46.41081,25.07289 44.87995,25.40815c-2.44882,0.53631 -15.02052,1.08236 -21.04478,0.39875c-46.49241,-5.27572 -79.90517,-47.24207 -74.62944,-93.73448z" fill="#ef8b89" stroke-width="0"/><path d="M411.01277,134.5777c-1.31065,11.55021 -3.33131,15.36307 -3.67106,13.4609c-0.34661,-1.94055 0.92101,-9.77208 -7.33319,-15.5754c-2.00016,-1.40625 -10.84879,5.08526 -13.42053,3.55741c-1.61534,-0.95967 -7.44967,-11.0862 -9.27492,-11.97369c-1.27618,-0.62053 -13.31529,6.9204 -14.65511,6.31482c-3.34153,-1.51033 -10.62968,-12.65274 -14.28279,-13.72952c-2.01164,-0.59294 -10.55969,10.72756 -12.62663,10.23753c-2.66559,-0.63196 -8.64367,-13.12672 -11.36362,-13.43536c-7.23344,-0.8208 -8.22256,6.12272 -14.10419,11.50008c-3.82202,3.49434 -12.4276,-14.54585 -16.03156,-10.49116c-4.47571,5.03545 -8.89041,9.87829 -13.51025,12.97678c-3.62444,2.43089 -12.14051,-11.53929 -15.29331,-9.26248c-15.22263,10.99306 -24.40942,18.00634 -22.36052,-0.04959c4.11994,-36.30714 43.93769,-3.28039 87.8806,-19.95384c42.06173,-15.95965 84.16704,0.11638 80.04709,36.42351z" fill="#ef8b89" stroke-width="0"/></g><path d="M413.4739,126.49275c-2.64776,23.3336 5.50739,9.39619 -11.29667,-2.14767c-2.05633,-1.41263 -11.11592,5.05495 -13.75905,3.519c-1.66019,-0.96477 -7.67612,-11.11188 -9.55147,-12.00507c-1.31122,-0.62449 -13.64116,6.88341 -15.01759,6.27369c-3.43289,-1.52071 -10.94344,-12.68834 -14.69472,-13.77625c-2.0657,-0.59907 -10.80263,10.69999 -12.92478,10.20369c-2.73678,-0.64002 -8.90722,-13.15661 -11.69878,-13.47338c-7.42397,-0.84243 -8.41833,6.1005 -14.43704,11.46232c-3.91111,3.48422 -12.79371,-14.5874 -16.47944,-10.54198c-4.57723,5.02393 -9.09245,9.85536 -13.82328,12.94127c-3.71153,2.42101 -12.4903,-11.579 -15.71836,-9.31073c-15.58606,10.95185 -24.99107,17.94034 -22.94218,-0.11559c4.11994,-36.30714 48.77027,-76.24425 94.40424,-71.06596c45.63398,5.17831 82.05913,51.72956 77.93918,88.0367z" fill="#724e36" stroke-width="2"/><path d="M413.35887,125.30944c-2.64776,23.3336 5.50739,9.39619 -11.29667,-2.14767c-2.05633,-1.41263 -11.11591,5.05496 -13.75905,3.51901c-1.66019,-0.96477 -7.67612,-11.11189 -9.55147,-12.00507c-1.31122,-0.62449 -13.64115,6.8834 -15.01758,6.27367c-3.43289,-1.52071 -10.94346,-12.68834 -14.69472,-13.77625c-2.0657,-0.59907 -10.80262,10.7 -12.92478,10.2037c-2.73678,-0.64002 -8.90721,-13.15662 -11.69878,-13.47339c-7.42397,-0.84243 -8.41833,6.1005 -14.43704,11.46231c-3.91111,3.48422 -12.7937,-14.5874 -16.47943,-10.54199c-4.57723,5.02393 -9.09246,9.85536 -13.8233,12.94127c-3.71153,2.42101 -12.4903,-11.579 -15.71836,-9.31074c-15.58606,10.95185 -24.99108,17.94034 -22.94219,-0.11559c4.11994,-36.30714 45.07063,-3.15184 90.10713,-19.70118c43.10849,-15.84086 86.35621,0.3648 82.23628,36.67193z" fill="#623728" stroke-width="0"/></g><g stroke="#000000" stroke-linecap="butt"><path d="M343.43197,150.41946c-3.22006,28.37683 -17.96526,41.52869 -34.42816,39.66056c-16.46288,-1.86812 -28.40929,-18.04882 -25.18924,-46.42564c3.22006,-28.37682 19.17624,-49.86636 35.63912,-47.99824c16.46288,1.86813 27.19833,26.3865 23.97827,54.76332z" fill="#f0f0f0" stroke-width="2"/><path d="M299.18233,125.69018c-7.45846,27.56782 27.00996,65.5047 10.54708,63.63658c-16.46288,-1.86812 -28.40929,-18.04881 -25.18924,-46.42563c3.22006,-28.37682 25.42489,-57.06586 14.64218,-17.21094z" fill="#9a99ff" stroke-width="0"/></g><path d="M338.63407,158.1611c-1.78397,15.72132 -7.88918,27.93729 -13.63636,27.28512c-5.74719,-0.65216 -8.95999,-13.92549 -7.17602,-29.6468c1.78397,-15.72132 7.88917,-27.93727 13.63636,-27.28512c5.74719,0.65215 8.95999,13.92549 7.17602,29.64681z" fill="#000000" stroke="none" stroke-width="0" stroke-linecap="butt"/><g stroke="#000000" stroke-linecap="butt"><path d="M341.84107,120.0115c3.2776,10.66738 6.97987,56.29769 -8.63022,54.52634c-15.61008,-1.77134 -44.89011,-51.05861 -39.29014,-60.10009c5.32828,-8.60282 9.16144,-20.51679 24.77152,-18.74543c15.61008,1.77133 20.02525,14.15301 23.14884,24.31918z" fill="#a100fe" stroke-width="2"/><path d="M340.96263,119.55531c3.12651,10.65023 7.77541,55.77409 -7.30242,54.06313c-15.07781,-1.71096 -44.42946,-50.39249 -38.9835,-59.45143c5.18177,-8.61945 6.40795,1.69534 21.48575,3.4063c15.07781,1.71095 21.8205,-8.16784 24.80012,1.98197z" fill="#99008e" stroke-width="0"/></g><g data-paper-data="{&quot;index&quot;:null}" stroke="#000000" stroke-linecap="butt"><path d="M382.94073,101.3722c16.46288,1.86813 27.19833,26.3865 23.97827,54.76332c-3.22006,28.37681 -18.48822,41.46934 -34.95111,39.60122c-16.46289,-1.86812 -27.88633,-17.98947 -24.66629,-46.3663c3.22006,-28.37682 19.17624,-49.86636 35.63912,-47.99825z" fill="#f0f0f0" stroke-width="2"/><path d="M406.38066,155.23883c-3.22006,28.37681 -18.48823,41.46934 -34.95112,39.60123c-16.46289,-1.86812 25.62946,-31.11731 24.5376,-59.65536c-1.57849,-41.25759 13.63357,-8.32269 10.41352,20.05415z" fill="#9a99ff" stroke-width="0"/></g><path d="M394.89211,135.53993c5.74719,0.65215 8.95999,13.92549 7.17602,29.64681c-1.78397,15.72132 -7.88916,27.93729 -13.63635,27.28512c-5.74719,-0.65216 -8.95999,-13.92549 -7.17602,-29.6468c1.78397,-15.72132 7.88916,-27.93727 13.63635,-27.28512z" data-paper-data="{&quot;index&quot;:null}" fill="#000000" stroke="none" stroke-width="0" stroke-linecap="butt"/><g data-paper-data="{&quot;index&quot;:null}" stroke="#000000" stroke-linecap="butt"><path d="M355.66543,120.09207c5.32205,-9.2078 12.39925,-20.28538 28.00932,-18.51402c15.61008,1.77133 16.6763,14.24128 19.94152,23.81924c3.43171,10.06634 -34.90956,52.50857 -50.51965,50.73722c-15.61008,-1.77134 -3.01563,-46.38065 2.5688,-56.04243z" fill="#a100fe" stroke-width="2"/><path d="M356.62374,119.8443c5.17806,-9.22414 9.53586,1.91428 24.61367,3.62524c15.07781,1.71095 18.58398,-8.06685 21.70269,1.49451c3.27772,10.04886 -35.06458,52.30979 -50.14239,50.59883c-15.07781,-1.71096 -1.60733,-46.03965 3.82603,-55.71856z" fill="#99008e" stroke-width="0"/></g><path d="M402.33226,313.0293c1.80573,11.52216 -11.07516,23.1108 -28.77028,25.88395c-17.69512,2.77315 -33.50368,-4.31934 -35.30941,-15.8415c-0.36097,-2.30331 -2.16344,-13.58899 -1.2672,-15.12455c3.58715,-6.14597 18.4176,2.43929 32.57542,0.2205c17.69512,-2.77315 30.96574,-6.66057 32.77147,4.86159z" fill="#000082" stroke="#000000" stroke-width="2" stroke-linecap="butt"/><path d="M400.04569,310.62199c0.97672,6.23234 -12.14536,12.21788 -29.84049,14.99102c-17.69512,2.77315 -30.25981,1.74868 -31.23653,-4.48366c-0.19525,-1.24586 -1.97236,-12.36981 -0.97815,-13.28023c3.97927,-3.6439 16.2588,3.29501 30.41662,1.07622c17.69512,-2.77315 30.66182,-4.5357 31.63854,1.69664z" fill="#2e0048" stroke="#000000" stroke-width="0" stroke-linecap="butt"/><path d="M307.21743,331.61063c-4.60664,10.71447 -21.68023,13.66514 -38.13493,6.59052c-16.4547,-7.07462 -26.05946,-21.49554 -21.45282,-32.21c0.92088,-2.14185 5.40436,-12.65441 6.98061,-13.47698c6.30885,-3.29227 14.29083,11.87141 27.4562,17.5318c16.4547,7.07462 29.75758,10.85019 25.15094,21.56466z" fill="#000082" stroke="#000000" stroke-width="2" stroke-linecap="butt"/><path d="M306.56375,328.35543c-2.49173,5.79546 -16.78604,3.87494 -33.24075,-3.19969c-16.4547,-7.07462 -26.54465,-14.632 -24.05292,-20.42745c0.4981,-1.15853 4.91693,-11.52068 6.24325,-11.76193c5.3085,-0.96559 12.00787,11.44626 25.17323,17.10665c16.4547,7.07462 28.36892,12.48697 25.87719,18.28243z" fill="#2e0048" stroke="#000000" stroke-width="0" stroke-linecap="butt"/><g stroke="#000000" stroke-linecap="butt"><path d="M281.72831,237.18469c27.53281,18.79529 27.88418,28.43542 23.32221,35.11813c-4.56197,6.68273 -30.57993,-3.13647 -58.11273,-21.93179c-27.5328,-18.79531 42.44945,-36.62714 47.01143,-43.30986c6.55573,-2.71119 6.88122,3.80738 2.7391,10.4856c-5.10819,8.23583 -17.31339,18.03137 -14.96,19.63792z" fill="#216aff" stroke-width="2"/><path d="M309.22806,241.32158c11.81778,8.06742 14.68974,24.43411 6.41469,36.55601c-8.27503,12.1219 -24.56348,15.40872 -36.38127,7.34131c-11.81778,-8.06742 -14.68972,-24.43411 -6.41469,-36.55602c8.27503,-12.12191 24.56348,-15.40872 36.38128,-7.34131z" fill="#faddbf" stroke-width="2"/><path d="M277.18565,267.56147c11.81778,8.06742 46.24671,-2.61548 37.97166,9.50643c-8.27503,12.1219 -24.56348,15.40872 -36.38128,7.34131c-11.81778,-8.06742 -13.40818,-24.91515 -1.5904,-16.84773z" fill="#ef8b89" stroke-width="0"/></g><path d="M283.17315,173.801c0.7786,0.9779 -0.19932,1.7565 -0.19932,1.7565l-0.10793,0.00395c-1.55876,2.3948 -3.01222,5.04927 -5.90677,6.07948c-3.0009,1.06807 -6.7095,-0.36671 -7.01286,-3.76606c-0.40681,-4.55819 4.37191,-8.49046 6.80344,-11.75295c0,0 0.74756,-1.00182 1.74938,-0.25426c1.00182,0.74756 0.25428,1.74939 0.25428,1.74939c-2.05466,2.75037 -6.46554,6.27754 -6.31261,10.09195c0.06835,1.7047 2.36138,2.08114 3.70532,1.56782c2.2872,-0.87358 3.38631,-3.17387 4.62405,-5.07843l0.64651,-0.59673c0,0 0.97791,-0.77859 1.7565,0.19931z" fill="#000000" stroke="none" stroke-width="0.5" stroke-linecap="butt"/></g></g></svg>