<svg version="1.1" xmlns="http://www.w3.org/2000/svg" xmlns:xlink="http://www.w3.org/1999/xlink" width="260.61231" height="327.57725" viewBox="0,0,260.61231,327.57725"><g transform="translate(-99.52843,-25.0856)"><g data-paper-data="{&quot;isPaintingLayer&quot;:true}" fill-rule="nonzero" stroke-linejoin="miter" stroke-miterlimit="10" stroke-dasharray="" stroke-dashoffset="0" style="mix-blend-mode: normal"><g stroke="#2a2b40" stroke-linecap="butt"><path d="M260.96533,263.8638l-7.28991,-116.62177l46.93666,-2.93397l7.28991,116.62177z" fill="#000000" stroke-width="2"/><path d="M259.9878,254.72745l-1.6296,-26.06984l47.38369,-2.96191l1.6296,26.06984z" fill="#ffffff" stroke-width="2.5"/></g><path d="M235.17097,351.66286v-94.89051h40.95702v94.89051z" fill="#000000" stroke="#2a2b40" stroke-width="2" stroke-linecap="butt"/><path d="M193.90771,349.39579v-94.89051h40.95702v94.89051z" fill="#000000" stroke="#2a2b40" stroke-width="2" stroke-linecap="butt"/><g stroke-linecap="butt"><path d="M194.17762,258.94034v-107.85169h82.34382v107.85169z" fill="#000000" stroke="#2a2b40" stroke-width="2"/><path d="M254.63141,180.01357c0,22.14029 -8.58873,40.08854 -19.18347,40.08854c-10.59474,0 -19.18347,-17.94825 -19.18347,-40.08854c0,-22.14029 7.35902,-29.51303 17.95376,-29.51303c10.59474,0 20.41318,7.37275 20.41318,29.51303z" fill="#ffffff" stroke="#2a2b40" stroke-width="2.5"/><path d="M240.72039,176.65068c0,13.71883 -2.80786,24.84014 -6.27152,24.84014c-3.46366,0 -6.27152,-11.12131 -6.27152,-24.84014c0,-13.71883 2.80786,-24.84014 6.27152,-24.84014c3.46366,0 6.27152,11.12131 6.27152,24.84014z" fill="#000000" stroke="none" stroke-width="0"/></g><g><g><path d="M233.57211,228.46215c-8.24578,-12.63449 -6.70808,-24.16035 5.40639,-32.89816c9.47482,-6.83396 27.25802,-3.40154 35.50382,9.23296c8.24584,12.63453 6.07181,27.14098 -6.43675,35.30463c-1.95609,1.27664 -4.14026,1.87429 -6.13003,2.43879c-10.73397,3.0451 -21.38712,-3.41951 -28.34342,-14.0782z" fill="#485e84" stroke="#000000" stroke-width="2" stroke-linecap="butt"/><path d="M263.23228,196.85831c0,0 -5.04719,2.76711 -5.17547,4.76633c-1.23048,19.17706 5.55322,31.47339 8.10726,35.36911c0.58026,0.8851 1.70226,0.84059 1.70226,0.84059c0,0 -1.63903,1.33478 -4.20445,2.30054c-2.72982,1.02766 -6.48234,1.67763 -9.52399,1.23778c-3.47441,-0.50247 -11.13977,-3.78133 -11.13977,-3.78133l-14.04549,-15.54294c0,0 1.62091,-13.35394 2.60774,-15.28346c0.96676,-1.8903 2.65289,-3.84981 4.3618,-6.00541c2.65334,-3.34684 6.53339,-5.70311 9.31618,-6.44535c3.55148,-0.94721 8.20484,-0.63389 11.9106,0.27702c3.4489,0.84778 6.08321,2.26721 6.08321,2.26721z" fill="#343545" stroke="none" stroke-width="0" stroke-linecap="butt"/><path d="M244.15323,212.12785c0,0 6.36994,-6.38921 11.48038,-7.0701c6.46927,-0.86195 19.2888,1.07763 19.2888,1.07763" fill="none" stroke="#000000" stroke-width="1" stroke-linecap="round"/><path d="M272.9289,234.96373c0,0 -6.67737,2.55783 -10.94182,3.0929c-4.30516,0.54023 -13.74072,-1.7231 -13.74072,-1.7231" fill="none" stroke="#000000" stroke-width="1" stroke-linecap="round"/><path d="M235.81525,204.99803c0,0 6.44068,-6.65612 12.00964,-7.14157c8.54538,-0.74488 20.07478,0.5075 20.07478,0.5075" fill="none" stroke="#000000" stroke-width="1" stroke-linecap="round"/><path d="M245.84599,193.46627c0,0 16.333,5.71911 21.14499,22.46391c5.27091,18.34181 -9.349,27.49322 -9.349,27.49322" fill="none" stroke="#000000" stroke-width="1" stroke-linecap="round"/><path d="M237.24722,197.56093c0,0 15.60385,8.56635 19.88181,23.33314c3.51258,12.12491 -8.08105,20.9853 -8.08105,20.9853" fill="none" stroke="#000000" stroke-width="1" stroke-linecap="round"/><path d="M274.64762,220.19355c-0.0335,-1.20253 0.71111,-2.19881 1.66305,-2.22532c0.95198,-0.02657 0.99724,0.76838 1.03072,1.97091c0.0335,1.20253 0.04252,2.35722 -0.90944,2.38374c-0.95198,0.02657 -1.75088,-0.92681 -1.78433,-2.12931z" fill="#8fbbbe" stroke="none" stroke-width="0" stroke-linecap="butt"/><path d="M273.85854,227.42101c-0.32872,-0.50372 0.01725,-1.31177 0.7728,-1.80487c0.75555,-0.4931 1.13212,-0.59013 1.46086,-0.08644c0.32872,0.50372 0.08196,1.46378 -0.67361,1.95686c-0.75555,0.4931 -1.23134,0.43811 -1.56006,-0.06558z" fill="#8fbbbe" stroke="none" stroke-width="0" stroke-linecap="butt"/><path d="M274.39059,213.27996c-0.40979,-0.80382 -0.30761,-1.67684 0.22823,-1.95004c0.53579,-0.27321 0.84644,0.45454 1.25625,1.25832c0.40979,0.80382 0.76365,1.3792 0.2278,1.65243c-0.53579,0.27321 -1.30248,-0.15694 -1.71227,-0.96072z" fill="#8fbbbe" stroke="none" stroke-width="0" stroke-linecap="butt"/><path d="M259.17288,194.95589c0,0 8.06991,6.28936 11.90122,12.82702c2.17214,3.70653 2.80704,7.72314 3.25426,10.77375c0.39554,2.69778 -1.2757,9.05646 -3.06135,13.79035c-1.31467,3.4853 -2.85184,5.9961 -2.85184,5.9961" fill="none" stroke="#000000" stroke-width="0.5" stroke-linecap="round"/><path d="M279.79949,222.24321c0,0 -9.06937,5.43365 -14.40082,6.32402c-4.49186,0.75017 -15.30432,-1.02603 -15.30432,-1.02603" fill="none" stroke="#000000" stroke-width="1" stroke-linecap="round"/><path d="M248.38707,221.93621c0,0 8.34652,-4.87481 12.7002,-6.09804c7.64422,-2.14775 17.87051,-0.19842 17.87051,-0.19842" fill="none" stroke="#000000" stroke-width="1" stroke-linecap="round"/></g><g stroke="#2a2b40" stroke-linecap="butt"><path d="M219.05284,270.89783l-52.58754,-119.85717l43.06548,-18.89505l52.58754,119.85717z" fill="#000000" stroke-width="2"/><path d="M214.28596,261.76089l-11.75552,-26.79308l43.47564,-19.07501l11.75552,26.79308z" fill="#ffffff" stroke-width="2.5"/></g></g><g stroke-linecap="butt"><g stroke="#0c0c0c"><g><path d="M205.29219,105.98828c-1.66302,11.04494 -29.2665,16.0454 -61.65412,11.16884c-32.38761,-4.87656 -41.69071,-28.7471 -40.02768,-39.79204c1.66302,-11.04494 22.64549,4.76031 55.0331,9.63687c32.38761,4.87656 48.31172,7.94139 46.6487,18.98633z" fill="#fac843" stroke-width="2"/><path d="M204.26946,105.25683c-1.66302,11.04494 -29.2665,16.0454 -61.65412,11.16884c-32.38761,-4.87656 -39.64144,-26.24044 -37.97842,-37.28538c1.66302,-11.04494 5.76011,28.21687 38.14771,33.09343c32.38761,4.87656 63.14784,-18.02182 61.48482,-6.97688z" fill="#e47816" stroke-width="0"/></g><g><path d="M202.39441,68.69661c-1.66302,11.04494 -29.2665,16.0454 -61.65412,11.16884c-32.38761,-4.87656 -41.69071,-28.7471 -40.02768,-39.79204c1.66302,-11.04494 22.64549,4.76031 55.0331,9.63687c32.38761,4.87656 48.31172,7.94139 46.6487,18.98633z" fill="#fac843" stroke-width="2"/><path d="M201.37169,67.96515c-1.66302,11.04494 -29.2665,16.0454 -61.65412,11.16884c-32.38761,-4.87656 -39.64145,-26.24045 -37.97843,-37.28539c1.66302,-11.04494 5.76011,28.21687 38.14772,33.09343c32.38761,4.87656 63.14784,-18.02182 61.48482,-6.97688z" fill="#e47816" stroke-width="0"/></g><g><path d="M203.84132,142.48931c-1.66302,11.04494 -29.2665,16.0454 -61.65412,11.16884c-32.38761,-4.87656 -41.69071,-28.7471 -40.02768,-39.79204c1.66302,-11.04494 22.64549,4.76031 55.0331,9.63687c32.38761,4.87656 48.31172,7.94139 46.6487,18.98633z" fill="#fac843" stroke-width="2"/><path d="M202.81859,141.75786c-1.66302,11.04494 -29.2665,16.0454 -61.65412,11.16884c-32.38761,-4.87656 -39.64144,-26.24045 -37.97842,-37.28539c1.66302,-11.04494 5.76011,28.21687 38.14771,33.09343c32.38761,4.87656 63.14784,-18.02182 61.48482,-6.97688z" fill="#e47816" stroke-width="0"/></g></g><g stroke="#0c0c0c"><g data-paper-data="{&quot;index&quot;:null}"><path d="M301.20986,76.85379c32.38761,-4.87656 53.37008,-20.68181 55.0331,-9.63687c1.66302,11.04494 -7.64007,34.91547 -40.02768,39.79204c-32.38761,4.87656 -59.99109,-0.1239 -61.65412,-11.16884c-1.66302,-11.04494 14.26109,-14.10977 46.6487,-18.98633z" fill="#fac843" stroke-width="2"/><path d="M317.0687,102.08555c32.38761,-4.87656 36.4847,-44.13836 38.14772,-33.09342c1.66302,11.04494 -5.5908,32.40883 -37.97843,37.28538c-32.38761,4.87656 -59.99109,-0.1239 -61.65412,-11.16884c-1.66302,-11.04494 29.09721,11.85345 61.48482,6.97688z" fill="#e47816" stroke-width="0"/></g><g data-paper-data="{&quot;index&quot;:null}"><path d="M304.10765,39.56208c32.38761,-4.87656 53.37008,-20.68181 55.0331,-9.63687c1.66302,11.04494 -7.64007,34.91547 -40.02768,39.79204c-32.38761,4.87656 -59.99109,-0.1239 -61.65412,-11.16884c-1.66302,-11.04494 14.26109,-14.10977 46.6487,-18.98633z" fill="#fac843" stroke-width="2"/><path d="M319.96649,64.79386c32.38761,-4.87656 36.48469,-44.13837 38.14771,-33.09343c1.66302,11.04494 -5.5908,32.40883 -37.97842,37.28539c-32.38761,4.87656 -59.99109,-0.1239 -61.65412,-11.16884c-1.66302,-11.04494 29.09721,11.85345 61.48482,6.97688z" fill="#e47816" stroke-width="0"/></g><g data-paper-data="{&quot;index&quot;:null}"><path d="M302.66072,113.3548c32.38761,-4.87656 53.37008,-20.68181 55.0331,-9.63687c1.66302,11.04494 -7.64007,34.91547 -40.02768,39.79204c-32.38761,4.87656 -59.99109,-0.1239 -61.65412,-11.16884c-1.66302,-11.04494 14.26109,-14.10977 46.6487,-18.98633z" fill="#fac843" stroke-width="2"/><path d="M318.51957,138.58652c32.38761,-4.87656 36.48469,-44.13837 38.14771,-33.09343c1.66302,11.04494 -5.5908,32.40883 -37.97842,37.28539c-32.38761,4.87656 -59.99109,-0.1239 -61.65412,-11.16884c-1.66302,-11.04494 29.09721,11.85345 61.48482,6.97688z" fill="#e47816" stroke-width="0"/></g></g><path d="M170.26613,107.76369c0,-31.80358 32.53018,-57.58549 72.6582,-57.58549c40.12802,0 72.6582,25.7819 72.6582,57.58549c0,31.80358 -32.53018,57.58549 -72.6582,57.58549c-40.12802,0 -72.6582,-25.7819 -72.6582,-57.58549z" fill="#fdf7c7" stroke="#000000" stroke-width="2"/><path d="M170.81527,104.83767c0,-3.52561 2.35177,-8.7085 2.62288,-9.88302c3.3547,-14.53329 30.25799,59.95585 65.9376,59.95585c40.12802,0 49.30313,4.60319 4.46071,9.66756c-39.90255,4.24795 -73.02118,-27.93679 -73.02118,-59.74039z" fill="#f2bd9d" stroke="#000000" stroke-width="0"/></g><path d="M221.4255,111.52819c0,-7.78178 6.30839,-14.09017 14.09017,-14.09017c7.78178,0 14.09017,6.30839 14.09017,14.09017c0,7.78178 -6.30839,14.09017 -14.09017,14.09017c-7.78178,0 -14.09017,-6.30839 -14.09017,-14.09017z" fill="#1a1507" stroke="#0c0c0c" stroke-width="2" stroke-linecap="butt"/><path d="M238.04271,110.33958c0,-2.74328 2.22387,-4.96715 4.96715,-4.96715c2.74328,0 4.96715,2.22387 4.96715,4.96715c0,2.74328 -2.22387,4.96715 -4.96715,4.96715c-2.74328,0 -4.96715,-2.22387 -4.96715,-4.96715z" fill="#fdf7c7" stroke="#000000" stroke-width="0" stroke-linecap="butt"/><path d="M277.90129,110.10847c0,-7.78178 6.30838,-14.09017 14.09017,-14.09017c7.78178,0 14.09017,6.30839 14.09017,14.09017c0,7.78179 -6.30839,14.09017 -14.09017,14.09017c-7.78178,0 -14.09017,-6.30839 -14.09017,-14.09017z" fill="#1a1507" stroke="#0c0c0c" stroke-width="2" stroke-linecap="butt"/><path d="M295.15704,108.91986c0,-2.74328 2.22387,-4.96716 4.96715,-4.96716c2.74328,0 4.96715,2.22387 4.96715,4.96716c0,2.74329 -2.22387,4.96715 -4.96715,4.96715c-2.74328,0 -4.96715,-2.22386 -4.96715,-4.96715z" fill="#fdf7c7" stroke="#000000" stroke-width="0" stroke-linecap="butt"/><path d="M290.88373,132.06251c0,0 0.80439,4.42242 -1.28221,7.41951c-1.77824,2.55416 -6.43645,3.76125 -7.03182,3.69099c-16.00822,-1.88909 -60.99789,-4.2288 -72.35253,-8.38683c-6.8162,-2.49606 -5.51716,-17.57967 -5.51716,-17.57967" fill="none" stroke="#1a1507" stroke-width="2" stroke-linecap="round"/></g></g></svg>