<svg version="1.1" xmlns="http://www.w3.org/2000/svg" xmlns:xlink="http://www.w3.org/1999/xlink" width="260.61231" height="312.87038" viewBox="0,0,260.61231,312.87038"><g transform="translate(-115.28899,-39.79248)"><g data-paper-data="{&quot;isPaintingLayer&quot;:true}" fill-rule="nonzero" stroke-linejoin="miter" stroke-miterlimit="10" stroke-dasharray="" stroke-dashoffset="0" style="mix-blend-mode: normal"><g stroke="#2a2b40" stroke-linecap="butt"><path d="M279.04108,282.26217l-7.28991,-116.62177l46.93666,-2.93397l7.28991,116.62177z" fill="#000000" stroke-width="2"/><path d="M278.06355,273.12582l-1.6296,-26.06984l47.38369,-2.96191l1.6296,26.06984z" fill="#ffffff" stroke-width="2.5"/></g><path d="M235.17098,351.66286v-94.89051h40.95702v94.89051z" fill="#000000" stroke="#2a2b40" stroke-width="2" stroke-linecap="butt"/><path d="M193.90772,349.39579v-94.89051h40.95702v94.89051z" fill="#000000" stroke="#2a2b40" stroke-width="2" stroke-linecap="butt"/><g stroke-linecap="butt"><path d="M194.17763,258.94034v-107.85169h82.34382v107.85169z" fill="#000000" stroke="#2a2b40" stroke-width="2"/><path d="M254.63142,180.01357c0,22.14029 -8.58873,40.08854 -19.18347,40.08854c-10.59474,0 -19.18347,-17.94825 -19.18347,-40.08854c0,-22.14029 7.35902,-29.51303 17.95376,-29.51303c10.59474,0 20.41318,7.37275 20.41318,29.51303z" fill="#ffffff" stroke="#2a2b40" stroke-width="2.5"/><path d="M240.7204,176.65068c0,13.71883 -2.80786,24.84014 -6.27152,24.84014c-3.46366,0 -6.27152,-11.12131 -6.27152,-24.84014c0,-13.71883 2.80786,-24.84014 6.27152,-24.84014c3.46366,0 6.27152,11.12131 6.27152,24.84014z" fill="#000000" stroke="none" stroke-width="0"/></g><g><g><path d="M205.80944,230.41591c-0.48226,-15.07948 6.81928,-24.1292 21.71002,-25.30203c11.64619,-0.91733 25.05836,11.25386 25.54062,26.33335c0.48229,15.07955 -8.91138,26.34553 -23.84059,26.82304c-2.33464,0.07468 -4.51143,-0.5493 -6.50489,-1.10064c-10.75381,-2.97427 -16.49832,-14.03237 -16.90517,-26.75371z" fill="#485e84" stroke="#000000" stroke-width="2" stroke-linecap="butt"/><path d="M247.57129,218.81954c0,0 -5.75018,-0.25757 -6.89838,1.38408c-11.01378,15.74707 -11.60517,29.77806 -11.44661,34.43366c0.03601,1.05774 1.01785,1.60257 1.01785,1.60257c0,0 -2.09393,0.28906 -4.78771,-0.21844c-2.86642,-0.54002 -6.41051,-1.93404 -8.78102,-3.89001c-2.70775,-2.23429 -7.55426,-9.01809 -7.55426,-9.01809l-3.92704,-20.57759c0,0 8.32232,-10.56854 10.16792,-11.70461c1.80807,-1.11299 4.26678,-1.9114 6.84682,-2.86554c4.00587,-1.48139 8.54534,-1.4791 11.30875,-0.66768c3.52671,1.0356 7.34013,3.72073 10.0334,6.42419c2.50658,2.51609 4.02014,5.09746 4.02014,5.09746z" fill="#343545" stroke="none" stroke-width="0" stroke-linecap="butt"/><path d="M223.33631,221.95551c0,0 8.7621,-2.15026 13.48256,-0.07723c5.9756,2.62424 15.92195,10.94122 15.92195,10.94122" fill="none" stroke="#000000" stroke-width="1" stroke-linecap="round"/><path d="M236.06127,256.41697c0,0 -7.03442,-1.28326 -10.95624,-3.0414c-3.95929,-1.77489 -10.84595,-8.61057 -10.84595,-8.61057" fill="none" stroke="#000000" stroke-width="1" stroke-linecap="round"/><path d="M219.91562,211.53173c0,0 8.96121,-2.34158 13.97193,0.13665c7.68876,3.8028 16.88974,10.86238 16.88974,10.86238" fill="none" stroke="#000000" stroke-width="1" stroke-linecap="round"/><path d="M234.47731,206.88906c0,0 10.98508,13.37173 6.39797,30.17952c-5.02461,18.41081 -22.27105,18.63549 -22.27105,18.63549" fill="none" stroke="#000000" stroke-width="1" stroke-linecap="round"/><path d="M225.00273,205.92083c0,0 8.88292,15.42583 4.86706,30.26604c-3.29741,12.18518 -17.80679,13.73333 -17.80679,13.73333" fill="none" stroke="#000000" stroke-width="1" stroke-linecap="round"/><path d="M245.20288,244.6891c0.59608,-1.04494 1.7499,-1.5094 2.57708,-1.03753c0.82725,0.47185 0.45294,1.17462 -0.14315,2.21954c-0.59608,1.04494 -1.18824,2.03627 -2.01544,1.56439c-0.82725,-0.47185 -1.01461,-1.70151 -0.4185,-2.74639z" fill="#8fbbbe" stroke="none" stroke-width="0" stroke-linecap="butt"/><path d="M240.77401,250.45485c-0.0192,-0.60118 0.6962,-1.11192 1.59796,-1.14075c0.90176,-0.02883 1.27393,0.08388 1.29317,0.68504c0.0192,0.60118 -0.69039,1.29334 -1.59215,1.32214c-0.90176,0.02883 -1.27974,-0.26532 -1.29896,-0.86647z" fill="#8fbbbe" stroke="none" stroke-width="0" stroke-linecap="butt"/><path d="M248.57483,238.64809c0.06743,-0.89972 0.60826,-1.59262 1.20805,-1.54769c0.59975,0.04488 0.48713,0.82812 0.41975,1.72781c-0.06743,0.89972 -0.06396,1.5752 -0.66379,1.5303c-0.59975,-0.04488 -1.03141,-0.81073 -0.96399,-1.71043z" fill="#8fbbbe" stroke="none" stroke-width="0" stroke-linecap="butt"/><path d="M245.09094,215.08514c0,0 3.62824,9.56637 3.50571,17.14296c-0.06948,4.29555 -1.61359,8.05747 -2.81623,10.89646c-1.0635,2.51066 -5.79483,7.07579 -9.77986,10.19314c-2.93394,2.29513 -5.55177,3.642 -5.55177,3.642" fill="none" stroke="#000000" stroke-width="0.5" stroke-linecap="round"/><path d="M248.54023,249.11684c0,0 -10.5723,-0.06858 -15.59042,-2.07743c-4.22789,-1.6925 -12.54412,-8.82722 -12.54412,-8.82722" fill="none" stroke="#000000" stroke-width="1" stroke-linecap="round"/><path d="M221.85863,232.53596c0,0 9.66432,0.17056 14.01989,1.38707c7.64753,2.13593 15.37297,9.11408 15.37297,9.11408" fill="none" stroke="#000000" stroke-width="1" stroke-linecap="round"/></g><g stroke="#2a2b40" stroke-linecap="butt"><path d="M171.35802,259.13342l17.33042,-129.73375l46.6142,6.22694l-17.33042,129.73375z" fill="#000000" stroke-width="2"/><path d="M172.03142,248.84977l3.87407,-29.00091l47.05816,6.28625l-3.87407,29.00091z" fill="#ffffff" stroke-width="2.5"/></g></g><g stroke-linecap="butt"><g stroke="#0c0c0c"><g><path d="M221.05274,120.69515c-1.66302,11.04494 -29.2665,16.0454 -61.65412,11.16884c-32.38761,-4.87656 -41.69071,-28.7471 -40.02768,-39.79204c1.66302,-11.04494 22.64549,4.76031 55.0331,9.63687c32.38761,4.87656 48.31172,7.94139 46.6487,18.98633z" fill="#fac843" stroke-width="2"/><path d="M220.03001,119.9637c-1.66302,11.04494 -29.2665,16.0454 -61.65412,11.16884c-32.38761,-4.87656 -39.64144,-26.24044 -37.97842,-37.28538c1.66302,-11.04494 5.76011,28.21687 38.14771,33.09343c32.38761,4.87656 63.14784,-18.02182 61.48482,-6.97688z" fill="#e47816" stroke-width="0"/></g><g><path d="M218.15496,83.40348c-1.66302,11.04494 -29.2665,16.0454 -61.65412,11.16884c-32.38761,-4.87656 -41.69071,-28.7471 -40.02768,-39.79204c1.66302,-11.04494 22.64549,4.76031 55.0331,9.63687c32.38761,4.87656 48.31172,7.94139 46.6487,18.98633z" fill="#fac843" stroke-width="2"/><path d="M217.13224,82.67202c-1.66302,11.04494 -29.2665,16.0454 -61.65412,11.16884c-32.38761,-4.87656 -39.64145,-26.24045 -37.97843,-37.28539c1.66302,-11.04494 5.76011,28.21687 38.14772,33.09343c32.38761,4.87656 63.14784,-18.02182 61.48482,-6.97688z" fill="#e47816" stroke-width="0"/></g><g><path d="M219.60187,157.19618c-1.66302,11.04494 -29.2665,16.0454 -61.65412,11.16884c-32.38761,-4.87656 -41.69071,-28.7471 -40.02768,-39.79204c1.66302,-11.04494 22.64549,4.76031 55.0331,9.63687c32.38761,4.87656 48.31172,7.94139 46.6487,18.98633z" fill="#fac843" stroke-width="2"/><path d="M218.57914,156.46473c-1.66302,11.04494 -29.2665,16.0454 -61.65412,11.16884c-32.38761,-4.87656 -39.64144,-26.24045 -37.97842,-37.28539c1.66302,-11.04494 5.76011,28.21687 38.14771,33.09343c32.38761,4.87656 63.14784,-18.02182 61.48482,-6.97688z" fill="#e47816" stroke-width="0"/></g></g><g stroke="#0c0c0c"><g data-paper-data="{&quot;index&quot;:null}"><path d="M316.97041,91.56066c32.38761,-4.87656 53.37008,-20.68181 55.0331,-9.63687c1.66302,11.04494 -7.64007,34.91547 -40.02768,39.79204c-32.38761,4.87656 -59.99109,-0.1239 -61.65412,-11.16884c-1.66302,-11.04494 14.26109,-14.10977 46.6487,-18.98633z" fill="#fac843" stroke-width="2"/><path d="M332.82925,116.79242c32.38761,-4.87656 36.4847,-44.13836 38.14772,-33.09342c1.66302,11.04494 -5.5908,32.40883 -37.97843,37.28538c-32.38761,4.87656 -59.99109,-0.1239 -61.65412,-11.16884c-1.66302,-11.04494 29.09721,11.85345 61.48482,6.97688z" fill="#e47816" stroke-width="0"/></g><g data-paper-data="{&quot;index&quot;:null}"><path d="M319.8682,54.26895c32.38761,-4.87656 53.37008,-20.68181 55.0331,-9.63687c1.66302,11.04494 -7.64007,34.91547 -40.02768,39.79204c-32.38761,4.87656 -59.99109,-0.1239 -61.65412,-11.16884c-1.66302,-11.04494 14.26109,-14.10977 46.6487,-18.98633z" fill="#fac843" stroke-width="2"/><path d="M335.72704,79.50073c32.38761,-4.87656 36.48469,-44.13837 38.14771,-33.09343c1.66302,11.04494 -5.5908,32.40883 -37.97842,37.28539c-32.38761,4.87656 -59.99109,-0.1239 -61.65412,-11.16884c-1.66302,-11.04494 29.09721,11.85345 61.48482,6.97688z" fill="#e47816" stroke-width="0"/></g><g data-paper-data="{&quot;index&quot;:null}"><path d="M318.42127,128.06167c32.38761,-4.87656 53.37008,-20.68181 55.0331,-9.63687c1.66302,11.04494 -7.64007,34.91547 -40.02768,39.79204c-32.38761,4.87656 -59.99109,-0.1239 -61.65412,-11.16884c-1.66302,-11.04494 14.26109,-14.10977 46.6487,-18.98633z" fill="#fac843" stroke-width="2"/><path d="M334.28012,153.29339c32.38761,-4.87656 36.48469,-44.13837 38.14771,-33.09343c1.66302,11.04494 -5.5908,32.40883 -37.97842,37.28539c-32.38761,4.87656 -59.99109,-0.1239 -61.65412,-11.16884c-1.66302,-11.04494 29.09721,11.85345 61.48482,6.97688z" fill="#e47816" stroke-width="0"/></g></g><path d="M186.02668,122.47056c0,-31.80358 32.53018,-57.58549 72.6582,-57.58549c40.12802,0 72.6582,25.7819 72.6582,57.58549c0,31.80358 -32.53018,57.58549 -72.6582,57.58549c-40.12802,0 -72.6582,-25.7819 -72.6582,-57.58549z" fill="#fdf7c7" stroke="#000000" stroke-width="2"/><path d="M186.57582,119.54454c0,-3.52561 2.35177,-8.7085 2.62288,-9.88302c3.3547,-14.53329 30.25799,59.95585 65.9376,59.95585c40.12802,0 49.30313,4.60319 4.46071,9.66756c-39.90255,4.24795 -73.02118,-27.93679 -73.02118,-59.74039z" fill="#f2bd9d" stroke="#000000" stroke-width="0"/></g><path d="M237.18605,126.23506c0,-7.78178 6.30839,-14.09017 14.09017,-14.09017c7.78178,0 14.09017,6.30839 14.09017,14.09017c0,7.78178 -6.30839,14.09017 -14.09017,14.09017c-7.78178,0 -14.09017,-6.30839 -14.09017,-14.09017z" fill="#1a1507" stroke="#0c0c0c" stroke-width="2" stroke-linecap="butt"/><path d="M253.80326,125.04645c0,-2.74328 2.22387,-4.96715 4.96715,-4.96715c2.74328,0 4.96715,2.22387 4.96715,4.96715c0,2.74328 -2.22387,4.96715 -4.96715,4.96715c-2.74328,0 -4.96715,-2.22387 -4.96715,-4.96715z" fill="#fdf7c7" stroke="#000000" stroke-width="0" stroke-linecap="butt"/><path d="M293.66184,124.81534c0,-7.78178 6.30838,-14.09017 14.09017,-14.09017c7.78178,0 14.09017,6.30839 14.09017,14.09017c0,7.78179 -6.30839,14.09017 -14.09017,14.09017c-7.78178,0 -14.09017,-6.30839 -14.09017,-14.09017z" fill="#1a1507" stroke="#0c0c0c" stroke-width="2" stroke-linecap="butt"/><path d="M310.91759,123.62673c0,-2.74328 2.22387,-4.96716 4.96715,-4.96716c2.74328,0 4.96715,2.22387 4.96715,4.96716c0,2.74329 -2.22387,4.96715 -4.96715,4.96715c-2.74328,0 -4.96715,-2.22386 -4.96715,-4.96715z" fill="#fdf7c7" stroke="#000000" stroke-width="0" stroke-linecap="butt"/><path d="M306.64428,146.76938c0,0 0.80439,4.42242 -1.28221,7.41951c-1.77824,2.55416 -6.43645,3.76125 -7.03182,3.69099c-16.00822,-1.88909 -60.99789,-4.2288 -72.35253,-8.38683c-6.8162,-2.49606 -5.51716,-17.57967 -5.51716,-17.57967" fill="none" stroke="#1a1507" stroke-width="2" stroke-linecap="round"/></g></g></svg>