<svg version="1.1" xmlns="http://www.w3.org/2000/svg" xmlns:xlink="http://www.w3.org/1999/xlink" width="150.50184" height="54.45317" viewBox="0,0,150.50184,54.45317"><g transform="translate(-314.09767,-150.50871)"><g data-paper-data="{&quot;isPaintingLayer&quot;:true}" fill-rule="nonzero" stroke="#000000" stroke-linejoin="miter" stroke-miterlimit="10" stroke-dasharray="" stroke-dashoffset="0" style="mix-blend-mode: normal"><text transform="translate(316.27942,191.08926) scale(0.8727,0.8727)" font-size="40" xml:space="preserve" fill="#000000" fill-rule="nonzero" stroke="#000000" stroke-width="5" stroke-linecap="butt" stroke-linejoin="miter" stroke-miterlimit="10" stroke-dasharray="" stroke-dashoffset="0" font-family="&quot;Comic Sans MS&quot;, Sans Serif" font-weight="normal" text-anchor="start" style="mix-blend-mode: normal"><tspan x="0" dy="0">Obby</tspan></text><text transform="translate(315.68642,190.89688) scale(0.8727,0.8727)" font-size="40" xml:space="preserve" fill="#ffffff" fill-rule="nonzero" stroke="#000000" stroke-width="0" stroke-linecap="butt" stroke-linejoin="miter" stroke-miterlimit="10" stroke-dasharray="" stroke-dashoffset="0" font-family="&quot;Comic Sans MS&quot;, Sans Serif" font-weight="normal" text-anchor="start" style="mix-blend-mode: normal"><tspan x="0" dy="0">Obby</tspan></text><path d="M413.79173,178.93299c0,-13.68501 11.09389,-24.77889 24.77889,-24.77889c13.685,0 24.77889,11.09389 24.77889,24.77889c0,13.68501 -11.09388,24.77889 -24.77889,24.77889c-13.685,0 -24.77889,-11.09388 -24.77889,-24.77889z" fill="#ff0000" stroke-width="2.5" stroke-linecap="butt"/><path d="M426.4001,171.43673c0,-0.62392 -5.5897,-0.66119 -5.27213,-2.11185c1.06588,-4.86898 10.04908,-15.51378 17.23238,-15.51378c9.3235,0 16.88169,2.2034 16.88169,4.92144c0,2.71804 -7.55819,4.92144 -16.88169,4.92144c-9.3235,0 -11.96025,10.50078 -11.96025,7.78274z" fill="#ff0000" stroke-width="2.5" stroke-linecap="butt"/><path d="M412.66585,178.58999c0,-8.08934 3.26139,-14.52324 7.77948,-14.37727c1.67783,0.05421 1.06227,5.85058 4.06632,5.85058c4.85971,0 6.46905,-4.63137 7.12909,-3.75864c0.84665,1.11948 -0.09028,8.34069 -0.09028,14.57437c0,11.09339 8.40376,21.57423 -2.68963,21.57423c-11.09339,0 -16.19498,-12.76989 -16.19498,-23.86327z" fill="#ff0000" stroke-width="2.5" stroke-linecap="butt"/><path d="M416.90058,162.73836c0,-5.87855 7.22512,-10.64405 16.13775,-10.64405c8.91264,0 29.07084,5.10886 29.07084,10.98741c0,3.40408 -6.75944,4.1452 -14.18056,5.9967c-5.39452,1.34588 -11.13867,4.304 -14.89029,4.304c-8.91263,0 -16.13775,-4.76551 -16.13775,-10.64405z" fill="#ff0000" stroke-width="2.5" stroke-linecap="butt"/><path d="M428.23134,171.78008c0,-8.28053 7.62832,-5.60816 15.90885,-5.60816c8.28053,0 18.77015,-9.65396 18.77015,-1.37343c0,8.28053 -34.679,15.07623 -34.679,6.98158z" fill="#ff0000" stroke-width="2.5" stroke-linecap="butt"/><path d="M440.56533,181.1428l20.58023,-2.92957" fill="none" stroke-width="2.5" stroke-linecap="round"/><path d="M448.98784,192.64137l-0.36619,-12.08448" fill="none" stroke-width="2.5" stroke-linecap="round"/><path d="M453.67515,179.4583l0.73239,12.23096" fill="none" stroke-width="2.5" stroke-linecap="round"/><path d="M444.15405,196.23009l-5.49294,-0.73239" fill="none" stroke-width="2.5" stroke-linecap="round"/></g></g></svg>