<svg version="1.1" xmlns="http://www.w3.org/2000/svg" xmlns:xlink="http://www.w3.org/1999/xlink" width="184.70917" height="335.24761" viewBox="0,0,184.70917,335.24761"><g transform="translate(-240.46751,-26.41891)"><g data-paper-data="{&quot;isPaintingLayer&quot;:true}" fill-rule="nonzero" stroke-linecap="butt" stroke-linejoin="miter" stroke-miterlimit="10" stroke-dasharray="" stroke-dashoffset="0" style="mix-blend-mode: normal"><g data-paper-data="{&quot;index&quot;:null}" stroke="#000000"><path d="M275.84666,340.83535v-95.29492h29.49199v95.29492z" fill="#73fffc" stroke-width="2"/><path d="M276.82937,339.88894l18.60659,-13.13896c0,0 2.26208,-0.70825 2.52228,-2.78987c1.17702,-9.41615 6.3799,-77.52842 6.3799,-77.52842l1.32626,93.78573z" fill="#59a9e6" stroke-width="0"/></g><g data-paper-data="{&quot;index&quot;:null}" stroke="#000000"><path d="M316.56252,339.73674v-95.29492h29.49199v95.29492z" fill="#73fffc" stroke-width="2"/><path d="M316.23677,339.11885l1.32626,-93.78573c0,0 5.20288,68.11227 6.3799,77.52842c0.2602,2.08162 2.52228,2.78987 2.52228,2.78987l18.60659,13.13896z" fill="#59a9e6" stroke-width="0"/></g><g data-paper-data="{&quot;index&quot;:null}" stroke="#000000"><path d="M311.86435,180.14033c18.77199,0 33.98969,24.87307 33.98969,55.55556c0,8.35076 6.37392,33.61764 4.35457,40.7234c-5.40019,19.00234 -24.68139,14.83216 -38.34426,14.83216c-10.32729,0 -32.7059,2.78608 -38.9397,-9.09579c-5.09742,-9.71589 4.95001,-32.65706 4.95001,-46.45977c0,-30.68249 15.2177,-55.55556 33.98969,-55.55556z" fill="#216aff" stroke-width="2"/><path d="M339.60359,205.10932c2.17098,1.37012 5.51953,20.51569 5.51953,29.96813c0,8.35075 6.37393,33.61764 4.35457,40.7234c-5.40019,19.00233 -24.68138,14.83215 -38.34425,14.83215c-10.32729,0 -32.7059,2.78607 -38.9397,-9.09579c-5.09743,-9.71588 56.94455,-16.46203 56.94455,-30.26474c0,-21.0232 4.52139,-62.9273 10.4653,-46.16315z" fill="#3236f4" stroke-width="0"/></g><g data-paper-data="{&quot;index&quot;:null}" stroke="#000000"><g><path d="M325.87568,198.67384c-46.43831,-5.73249 -79.4369,-48.02527 -73.70442,-94.46358c5.73249,-46.43831 48.02527,-79.4369 94.46358,-73.70442c46.43831,5.73249 79.4369,48.02527 73.70442,94.46358c-5.73249,46.43831 -48.02527,79.4369 -94.46358,73.70442z" fill="#faddbf" stroke-width="2"/><path d="M420.21675,124.07821c-5.73249,46.43831 -48.02527,79.4369 -94.46358,73.70442c-6.01724,-0.74279 -18.11345,-4.21091 -20.36919,-5.30448c-1.41016,-0.68364 27.81803,-3.49765 49.57409,-14.2195c11.6741,-5.75325 19.61815,-19.29289 23.06293,-23.64613c1.66006,-0.23732 8.43769,-19.19102 8.44801,-19.25051c4.32793,-24.94764 -13.34468,-89.88586 -5.12101,-91.46123c0.63031,-0.12075 11.67331,8.10233 19.92762,17.53282c6.64099,7.58729 10.82611,16.71198 11.2922,17.13937c4.08129,3.74237 9.4933,30.56436 7.64895,45.50523z" fill="#ef8b89" stroke-width="0"/><path d="M252.74689,103.81966c4.47665,-36.26489 49.17258,-42.05878 86.34153,-16.71378c38.83131,26.47855 85.26325,3.66858 80.7866,39.93347c-2.22629,18.03494 -9.5203,9.06942 -21.75328,-5.17594c-2.53361,-2.95041 -14.07791,8.64352 -17.0341,5.43312c-3.76808,-4.0921 -6.92915,-9.83233 -10.10453,-15.77411c-2.55691,-4.7845 -15.13913,10.74588 -18.03898,6.4553c-4.46252,-6.60268 -3.80203,-13.58515 -11.02704,-14.47702c-2.71677,-0.33537 -11.44861,10.41693 -14.18808,10.40861c-2.12423,-0.00644 -7.79084,-13.01076 -9.88535,-12.90421c-3.80357,0.19348 -13.49325,9.32476 -17.09517,10.0126c-1.44421,0.27579 -11.38833,-9.86915 -12.77417,-9.56397c-1.98209,0.43649 -10.02084,8.91966 -11.8157,9.47537c-2.85753,0.88472 -9.94463,-7.49448 -12.21798,-6.59445c-9.38162,3.71424 -9.97879,11.62519 -10.76919,13.43106c-0.77475,1.77014 -1.84868,-2.40929 -0.42454,-13.94606z" fill="#ef8b89" stroke-width="0"/></g><path d="M252.24275,95.38345c4.47665,-36.26489 50.76967,-73.01768 96.35052,-67.39104c45.58087,5.62664 79.66482,54.8903 75.18817,91.15519c-2.22629,18.03494 -9.73827,9.04251 -22.33426,-5.24766c-2.60879,-2.95969 -14.41547,8.60185 -17.45865,5.38071c-3.87894,-4.10578 -7.14042,-9.85841 -10.41721,-15.8127c-2.63858,-4.79458 -15.4975,10.70164 -18.48633,6.40007c-4.59945,-6.61958 -3.94418,-13.60269 -11.35951,-14.51806c-2.78833,-0.3442 -11.71229,10.38438 -14.52286,10.36729c-2.17937,-0.01325 -8.03465,-13.04086 -10.18316,-12.94098c-3.90163,0.18138 -13.81347,9.28524 -17.50664,9.96181c-1.48079,0.27128 -11.71541,-9.90953 -13.13623,-9.60866c-2.03212,0.43031 -10.25227,8.89109 -12.09191,9.44127c-2.92883,0.87592 -10.22665,-7.5293 -12.55611,-6.63619c-19.03604,7.29839 -14.36282,22.75538 -11.4858,-0.55105z" fill="#724e36" stroke-width="2"/><path d="M252.6311,94.25977c4.47665,-36.26489 50.31368,-41.91792 88.52816,-16.44385c39.92361,26.61339 87.48718,3.94311 83.01053,40.208c-2.22629,18.03494 -9.73827,9.04251 -22.33426,-5.24766c-2.60879,-2.95969 -14.41547,8.60185 -17.45865,5.38071c-3.87895,-4.10578 -7.14043,-9.85841 -10.41722,-15.8127c-2.63858,-4.79458 -15.4975,10.70164 -18.48633,6.40007c-4.59945,-6.61958 -3.94418,-13.60269 -11.35951,-14.51806c-2.78833,-0.3442 -11.71229,10.38438 -14.52286,10.36729c-2.17937,-0.01325 -8.03465,-13.04086 -10.18316,-12.94098c-3.90163,0.18138 -13.81347,9.28524 -17.50664,9.96181c-1.48079,0.27128 -11.71541,-9.90953 -13.13623,-9.60866c-2.03213,0.43031 -10.25228,8.89109 -12.09192,9.44127c-2.92883,0.87592 -10.22665,-7.5293 -12.55611,-6.63619c-19.03604,7.29839 -14.36282,22.75538 -11.4858,-0.55105z" fill="#623728" stroke-width="0"/></g><g data-paper-data="{&quot;index&quot;:null}" stroke="#000000"><path d="M373.11762,88.11243c16.44373,2.02986 26.93763,26.65258 23.43879,54.99638c-3.49884,28.34379 -18.89498,41.2856 -35.33871,39.25573c-16.44373,-2.02986 -27.70815,-18.26272 -24.2093,-46.60652c3.49884,-28.3438 19.6655,-49.67546 36.10922,-47.6456z" fill="#f0f0f0" stroke-width="2"/><path d="M396.0269,142.20689c-3.49884,28.34379 -18.89498,41.2856 -35.33871,39.25573c-16.44373,-2.02986 25.93409,-30.86386 25.12282,-59.41128c-1.17285,-41.27112 13.71473,-8.18826 10.21589,20.15554z" fill="#9a99ff" stroke-width="0"/></g><path d="M358.81364,114.21092c5.74049,0.70862 8.82267,14.01289 6.88424,29.71591c-1.93843,15.70302 -8.16342,27.85838 -13.90391,27.14976c-5.74049,-0.70862 -8.82267,-14.01289 -6.88424,-29.71591c1.93843,-15.70302 8.16342,-27.85838 13.90391,-27.14976z" data-paper-data="{&quot;index&quot;:null}" fill="#000000" stroke="none" stroke-width="0"/><g data-paper-data="{&quot;index&quot;:null}" stroke="#000000"><path d="M345.65961,106.5633c5.4123,-9.15503 12.59805,-20.16251 28.18997,-18.2378c15.59191,1.92471 16.5355,14.40452 19.70641,24.01411c3.33258,10.09959 -8.61935,13.30097 -24.21127,11.37626c-15.59191,-1.92471 -29.36427,-7.54616 -23.68512,-17.15257z" fill="#a100fe" stroke-width="2"/><path d="M346.62032,106.32496c5.26848,-9.17278 9.51657,2.00793 24.57684,3.86702c15.06027,1.85909 18.66239,-7.88376 21.68696,1.70777c3.17878,10.0806 -8.38501,13.3299 -23.44528,11.47082c-15.06027,-1.85909 -28.34676,-7.42056 -22.81853,-17.04559z" fill="#99008e" stroke-width="0"/></g><g data-paper-data="{&quot;index&quot;:null}" stroke="#000000"><path d="M333.49094,133.83398c-3.49884,28.3438 -18.37263,41.35008 -34.81636,39.32021c-16.44373,-2.02986 -28.2305,-18.32721 -24.73166,-46.671c3.49884,-28.3438 19.6655,-49.67546 36.10922,-47.6456c16.44373,2.02986 26.93763,26.65258 23.43879,54.99638z" fill="#f0f0f0" stroke-width="2"/><path d="M289.48653,108.67089c-7.72909,27.49316 26.36473,65.76706 9.921,63.73719c-16.44373,-2.02986 -28.2305,-18.32721 -24.73166,-46.671c3.49884,-28.3438 25.98462,-56.81318 14.81065,-17.06619z" fill="#9a99ff" stroke-width="0"/></g><path d="M329.60216,139.63182c-1.93843,15.70302 -8.16342,27.85838 -13.90391,27.14976c-5.74049,-0.70862 -8.82267,-14.01289 -6.88424,-29.71591c1.93843,-15.70302 8.16342,-27.85838 13.90391,-27.14976c5.74049,0.70862 8.82267,14.01289 6.88424,29.71591z" data-paper-data="{&quot;index&quot;:null}" fill="#000000" stroke="none" stroke-width="0"/><g data-paper-data="{&quot;index&quot;:null}" stroke="#000000"><path d="M332.19902,103.41182c3.17258,10.69909 -11.55337,12.80262 -27.14529,10.87791c-15.59191,-1.92471 -26.40655,-7.93648 -20.71799,-16.92246c5.41258,-8.55003 9.36269,-20.42574 24.9546,-18.50102c15.59191,1.92471 19.88515,14.3492 22.90866,24.54557z" fill="#a100fe" stroke-width="2"/><path d="M331.32511,102.94701c3.02167,10.68046 -11.21842,12.84397 -26.27869,10.98489c-15.06027,-1.85909 -25.48676,-7.82293 -19.952,-16.82791c5.26624,-8.56809 6.39096,1.75825 21.45123,3.61734c15.06027,1.85909 21.89976,-7.95294 24.77945,2.22567z" fill="#99008e" stroke-width="0"/></g><path d="M241.46751,338.87003c0,-11.6628 13.71248,-9.87692 31.62358,-9.87692c14.33063,0 27.65301,-10.77791 32.14847,-5.26144c1.12318,1.37828 1.08979,12.80695 1.08979,15.13837c0,11.6628 -14.51982,21.11737 -32.43092,21.11737c-17.9111,0 -32.43092,-9.45457 -32.43092,-21.11737z" data-paper-data="{&quot;index&quot;:null}" fill="#000082" stroke="#000000" stroke-width="2"/><path d="M274.34813,329.56302c14.33063,0 25.38775,-8.75646 29.88321,-5.7726c1.12318,0.74551 1.0898,12.01046 1.0898,13.27153c0,6.30841 -12.25456,9.26589 -30.16566,9.26589c-17.91111,0 -31.80169,-3.88169 -31.80169,-10.1901c0,-6.30841 13.08324,-6.57472 30.99434,-6.57472z" data-paper-data="{&quot;index&quot;:null}" fill="#2e0048" stroke="#000000" stroke-width="0"/><path d="M376.7881,339.54915c0,11.6628 -14.51982,21.11737 -32.43092,21.11737c-17.9111,0 -32.43092,-9.45457 -32.43092,-21.11737c0,-2.33142 -0.03339,-13.76009 1.08979,-15.13837c4.49546,-5.51647 17.81784,5.26144 32.14847,5.26144c17.9111,0 31.62358,-1.78588 31.62358,9.87692z" data-paper-data="{&quot;index&quot;:null}" fill="#000082" stroke="#000000" stroke-width="2"/><g data-paper-data="{&quot;index&quot;:null}" stroke="#000000"><path d="M283.68077,246.33224c31.70073,10.31419 34.7431,19.46838 32.23965,27.16274c-2.50345,7.69436 -30.23142,5.57056 -61.93215,-4.74364c-31.70073,-10.31421 30.466,-47.06725 32.96945,-54.76161c5.53156,-4.44187 7.67313,1.72347 5.57141,9.2957c-2.59191,9.33835 -11.55801,22.1652 -8.84836,23.04683z" fill="#216aff" stroke-width="2"/><path d="M311.2365,242.58625c13.60676,4.42711 20.95597,19.33031 16.41492,33.28724c-4.54105,13.95693 -19.25275,21.68238 -32.85951,17.25527c-13.60676,-4.42711 -20.95596,-19.33033 -16.41492,-33.28726c4.54105,-13.95693 19.25275,-21.68237 32.85951,-17.25526z" fill="#faddbf" stroke-width="2"/><path d="M287.8446,276.76322c13.60676,4.42711 43.65468,-15.48766 39.11364,-1.53073c-4.54105,13.95693 -19.25275,21.68238 -32.85951,17.25526c-13.60676,-4.42711 -19.8609,-20.15166 -6.25413,-15.72453z" fill="#ef8b89" stroke-width="0"/></g><path d="M374.90182,336.81684c0,6.30841 -13.89058,10.1901 -31.80169,10.1901c-17.9111,0 -30.16566,-2.95748 -30.16566,-9.26589c0,-1.26107 -0.03338,-12.52602 1.0898,-13.27153c4.49546,-2.98386 15.55258,5.7726 29.88321,5.7726c17.9111,0 30.99434,0.26631 30.99434,6.57472z" data-paper-data="{&quot;index&quot;:null}" fill="#2e0048" stroke="#000000" stroke-width="0"/><g data-paper-data="{&quot;index&quot;:null}" stroke="#000000"><path d="M325.33841,217.42102c2.01256,2.01718 9.39227,-11.7835 16.54625,-18.32133c5.80099,-5.30138 12.26796,-6.18218 10.81074,0.76079c-5.72806,5.71487 -10.36401,77.78426 -33.90926,54.18469c-23.54525,-23.59958 -37.98895,-47.36363 -32.26088,-53.07851c5.72806,-5.71487 15.26794,-7.14522 38.81318,16.45437z" fill="#216aff" stroke-width="2"/><path d="M316.20686,191.15383c10.10622,10.12954 9.87597,26.74471 -0.51425,37.111c-10.39022,10.3663 -27.00587,10.55824 -37.11209,0.42871c-10.10622,-10.12954 -9.87597,-26.74471 0.51424,-37.11101c10.39022,-10.3663 27.00588,-10.55823 37.11208,-0.42869z" fill="#faddbf" stroke-width="2"/><path d="M296.31822,227.48137c10.10623,10.12954 -6.74617,11.66971 -16.85238,1.54017c-10.10623,-10.12954 -9.87598,-26.74471 0.51423,-37.11101c10.39022,-10.3663 6.23193,25.4413 16.33815,35.57084z" fill="#ef8b89" stroke-width="0"/></g><path d="M410.82711,148.32562c5.93692,3.65493 7.46478,11.95378 3.41258,18.53602c-4.0522,6.58223 -12.14998,8.95528 -18.0869,5.30035c-5.93692,-3.65493 -0.6459,-7.32622 3.4063,-13.90845c4.0522,-6.58223 5.33111,-13.58285 11.26802,-9.92792z" fill="#000000" stroke="none" stroke-width="0"/></g></g></svg>