<svg version="1.1" xmlns="http://www.w3.org/2000/svg" xmlns:xlink="http://www.w3.org/1999/xlink" width="336.07274" height="336.07274" viewBox="0,0,336.07274,336.07274"><g transform="translate(-151.96363,-11.96363)"><g data-paper-data="{&quot;isPaintingLayer&quot;:true}" fill-rule="nonzero" stroke-linejoin="miter" stroke-miterlimit="10" stroke-dasharray="" stroke-dashoffset="0" style="mix-blend-mode: normal"><path d="M203,297v-234h234v234z" data-paper-data="{&quot;index&quot;:null}" fill="none" stroke="none" stroke-width="0" stroke-linecap="butt"/><g data-paper-data="{&quot;index&quot;:null}"><g><g data-paper-data="{&quot;origRot&quot;:0}" stroke="#000000" stroke-width="3" stroke-linecap="round"><path d="M290.57832,165.18319c4.7431,2.23359 13.97702,10.41708 13.97702,10.41708l8.44221,6.22207l-2.98769,-2.69243c0,0 12.58245,-9.94085 16.13114,-10.37126c1.86439,-0.22614 7.86383,7.39813 8.12404,9.96961c0.58372,5.76865 -21.78615,36.3381 -25.84236,34.6901c-8.9213,-5.36523 -27.85468,-16.63703 -27.85468,-16.63703c0,0 -7.2624,-4.03883 -5.90579,-6.0028c0,0 13.28554,-26.83411 15.91611,-25.59534z" data-paper-data="{&quot;origPos&quot;:null}" fill="#582700"/><path d="M282.4615,196.10943l15.65452,-24.83915" fill="none"/><path d="M301.28019,173.92232l-15.87541,24.6781" data-paper-data="{&quot;origPos&quot;:null}" fill="none"/></g><path d="M298.4357,171.4256l2.15945,1.59555l-16.16142,25.29902l-2.15945,-1.59555z" fill="#ffffff" stroke="none" stroke-width="0" stroke-linecap="butt"/><path d="M307.59883,212.5937l-22.19294,-13.39685l16.63281,-24.35335l10.20185,7.53246l1.13629,-1.57974l-2.07134,-2.03706l14.63842,-9.28864l1.10669,0.9198l5.53344,4.59898l0.77825,5.06402l-3.21155,7.74279l-13.45083,19.11008l-8.13641,6.80477z" fill="#66c8ff" stroke="#000000" stroke-width="0.5" stroke-linecap="round"/></g><g fill="#fffc96" stroke="#000000" stroke-width="2" stroke-linecap="round"><path d="M305.14962,176.53855c0,0 0.48823,5.84764 3.33491,13.89821c2.8867,8.16369 6.43251,14.18172 6.43251,14.18172l1.98543,-0.14739c0,0 0.38245,3.62658 -1.73163,4.06051c-5.17424,1.06202 -16.81428,-34.2661 -11.90611,-35.6048c3.06769,-0.83671 4.33561,3.96782 4.33561,3.96782z"/><path d="M315.33235,177.10597c0,0 -3.81476,5.13975 -7.37768,13.69377c-3.56292,8.554 -4.87492,14.63786 -4.87492,14.63786l1.46041,-0.06147c0,0 -0.58172,4.01601 -3.55804,4.11887c-4.91451,0.16986 10.24673,-37.90654 15.2504,-36.80078c2.38367,0.52675 0.47106,4.53427 0.47106,4.53427z" data-paper-data="{&quot;index&quot;:null}"/></g></g><g data-paper-data="{&quot;index&quot;:null}" stroke="#000000" stroke-linecap="round"><path d="M345.7331,158.1017c0,0 15.18435,0.29479 14.45244,6.87263c-1.9865,17.85358 -27.45622,8.70677 -27.45622,8.70677z" data-paper-data="{&quot;origPos&quot;:null}" fill="#66c8ff" stroke-width="2"/><path d="M344.87292,159.51235c0,0 10.95674,0.80594 11.3586,2.81535c0.12672,0.63376 -14.80135,0.67585 -14.80135,0.67585z" data-paper-data="{&quot;origPos&quot;:null}" fill="#0a0a0a" stroke-width="1"/></g><g data-paper-data="{&quot;origRot&quot;:0,&quot;index&quot;:null}" stroke="#000000" stroke-linecap="round"><path d="M321.7097,261.73729c0,0 0.32403,4.46819 -0.69312,6.56097c-0.77865,1.60212 -2.53432,1.97282 -4.20238,2.21129c-4.57859,0.65458 -8.8677,-1.32251 -16.00274,-2.22995c-1.94327,-0.24713 -2.70011,-3.4554 -2.34463,-5.52199c0.33247,-1.9329 1.02069,-5.27096 1.02069,-5.27096l6.27154,-32.41544c0,0 0.93953,-4.16829 2.62243,-4.72451c4.05268,-1.3395 8.0375,0.62131 12.2698,0.90097c1.43427,0.09479 1.02634,4.87546 1.02634,4.87546z" data-paper-data="{&quot;origPos&quot;:null}" fill="#ff0000" stroke-width="3"/><path d="M299.29937,258.55526l21.55767,2.82677c0,0 0.78469,2.60969 0.56081,4.2808c-0.21251,1.58633 -1.67903,4.06597 -1.67903,4.06597c0,0 -7.92459,0.28294 -11.54494,-0.05735c-4.7187,-0.44353 -10.01342,-3.5754 -10.01342,-3.5754z" data-paper-data="{&quot;origPos&quot;:null}" fill="#976e57" stroke-width="2"/><path d="M321.60814,262.04983c0,0 0.32403,4.4682 -0.69312,6.56098c-0.77865,1.60209 -2.53432,1.97281 -4.20238,2.21128c-4.57859,0.65459 -8.8677,-1.32251 -16.00274,-2.22995c-1.94326,-0.24713 -2.70011,-3.4554 -2.34463,-5.52199c0.33248,-1.93288 1.02071,-5.27095 1.02071,-5.27095l6.27153,-32.41544c0,0 0.93953,-4.16829 2.62243,-4.72451c4.0527,-1.33952 8.03753,0.62129 12.26982,0.90095c1.43427,0.09478 1.02634,4.87545 1.02634,4.87545z" data-paper-data="{&quot;origPos&quot;:null}" fill="#4b4b4b" stroke-width="3"/></g><path d="M326.08408,262.79377c0,0 -1.12381,-12.65252 -1.8431,-20.75078c-0.50964,-5.73784 -1.30588,-14.70247 -1.30588,-14.70247c0,0 -0.83304,-4.7166 0.58614,-4.95869c4.18778,-0.71438 7.9791,-3.07662 12.13275,-2.16079c1.7248,0.38029 3.0323,4.43257 3.0323,4.43257l9.13784,31.61991c0,0 0.98319,3.25176 1.48676,5.14148c0.5384,2.02043 0.0716,5.29187 -1.84063,5.73806c-7.0211,1.63827 -11.11382,4.0481 -15.72977,3.86819c-1.68166,-0.06555 -3.46235,-0.25368 -4.3805,-1.76819c-1.19935,-1.97835 -1.27593,-6.45932 -1.27593,-6.45932z" data-paper-data="{&quot;index&quot;:null}" fill="#4b4b4b" stroke="#000000" stroke-width="3" stroke-linecap="round"/><g data-paper-data="{&quot;index&quot;:null}"><path d="M340.5157,209.17355c0,0 -0.93477,15.74754 -3.00514,15.77029c-6.21114,0.06825 -22.21322,-2.7955 -35.94461,-4.51631c-1.54254,-0.1933 0.29676,-15.02226 0.29676,-15.02226l4.95232,-30.21541c0,0 2.6816,-13.28917 4.09561,-13.11197c9.14681,1.14626 22.93244,1.93696 28.74123,4.31963c1.93628,0.79422 2.17645,15.33149 2.17645,15.33149z" data-paper-data="{&quot;origPos&quot;:null}" fill="#66c8ff" stroke="#000000" stroke-width="3.5" stroke-linecap="round"/><path d="M322.58847,185.06794l0.17897,-1.64716c0.55678,-5.12449 1.11359,-10.24897 1.67038,-15.37346c0,0 0.26844,-2.47074 1.46306,-2.32103c1.19461,0.14971 0.92615,2.62045 0.92615,2.62045c-0.5568,5.1245 -1.29256,11.89613 -1.84935,17.02062c0,0 -0.26844,2.47074 -1.46306,2.32103c-1.19461,-0.14971 -0.92615,-2.62045 -0.92615,-2.62045z" fill="#ffffff" stroke="none" stroke-width="0.5" stroke-linecap="butt"/><path d="M312.69244,185.91271c-1.19462,-0.14971 -0.85736,-3.25365 -0.85736,-3.25365l0.22484,-2.06929c0.6995,-6.43781 1.39899,-12.87561 2.09848,-19.31341c0,0 0.33725,-3.10394 1.53187,-2.95423c1.19462,0.14971 0.85736,3.25365 0.85736,3.25365c-0.69949,6.4378 -1.62381,14.94488 -2.3233,21.38268c0,0 -0.33725,3.10394 -1.53187,2.95423z" fill="#ffffff" stroke="none" stroke-width="0.5" stroke-linecap="butt"/></g><path d="M305.42381,157.54514c0,0 -0.85245,-4.48238 -0.73244,-5.56027c0.35999,-3.23364 2.7792,-17.1825 5.00472,-29.78162c0.34423,-1.94877 2.36147,-4.69207 2.36147,-4.69207c0,0 2.29722,-1.18894 3.45266,-0.96056c12.74789,2.51976 25.0675,3.84317 29.521,6.32565c1.48449,0.82749 4.06287,3.12114 4.06287,3.12114c0,0 -0.1126,4.45085 -0.18617,5.5872c-0.02453,0.37878 -0.03739,0.59217 -0.08287,0.96872c-1.36286,11.2824 -4.05185,24.11176 -5.18844,28.55206c-0.37886,1.4801 -2.45524,3.48966 -2.45524,3.48966c0,0 -1.74239,2.42086 -5.90778,2.39565c-4.55766,-0.02757 -15.21035,-2.57708 -26.188,-5.24251z" data-paper-data="{&quot;index&quot;:null}" fill="#582700" stroke="#000000" stroke-width="2.5" stroke-linecap="round"/><path d="M352.83676,127.68825c-0.81237,0.89517 -1.64589,0.02273 -1.64589,0.02273l-0.56296,-0.64652c-0.07653,-0.04666 -0.15311,-0.09283 -0.22974,-0.1385c-0.25613,0.2649 -0.71269,0.54156 -1.34328,0.16604c-0.58122,-0.34612 -0.64655,-0.851 -0.59563,-1.22051c-2.29127,-1.13456 -4.64391,-1.93375 -7.1287,-2.68875c-7.0039,-1.85306 -14.1272,-3.11873 -21.21733,-4.54007c-2.32524,-0.46613 -7.70437,-0.50482 -9.35812,-2.55237c-0.80653,-0.99858 -0.10622,-2.82191 -0.01822,-3.87558c0.25502,-3.05328 0.45692,-6.22696 0.97053,-9.24464c0.69587,-3.93947 -0.06455,-7.73462 0.14557,-11.69325c0.10533,-1.98458 -0.16685,-4.05553 1.7395,-5.40633c0.53827,-0.3814 1.29058,0.05506 1.92976,0.14683c2.336,0.33536 4.54529,0.95487 6.78257,1.70681c7.08994,2.38288 14.17071,4.33394 21.1281,7.18393c2.80592,1.15344 5.72268,1.80914 8.65514,2.50891c1.72347,0.41127 3.39838,0.19746 4.06473,2.5347c0.39794,1.39576 -0.74551,5.23964 -1.04869,6.68646c-1.16909,5.57893 -1.54666,12.64068 -3.62995,18.07043c0.10063,0.05952 0.20113,0.11982 0.30159,0.18087l1.03989,1.03116c0,0 0.83352,0.87245 0.02116,1.76762z" data-paper-data="{&quot;index&quot;:null}" fill="#000000" stroke="none" stroke-width="0.5" stroke-linecap="butt"/><g data-paper-data="{&quot;index&quot;:null}" fill="none" stroke="#b9b9b9" stroke-width="3"><path d="M312.37919,167.33062c-1.28786,1.7696 -2.10136,0.54535 -3.10099,-0.80622c-0.78273,-1.0583 -2.05488,-2.19987 -0.51895,-4.08823c0.72442,-0.89061 1.81946,-0.37892 2.81908,0.97262c0.99961,1.35156 1.71277,2.66879 0.80086,3.92181z" stroke-linecap="butt"/><path d="M311.53263,166.62976l2.12346,2.80265" stroke-linecap="round"/><path d="M317.66904,174.39036c-1.28785,1.76961 -2.10136,0.54534 -3.10098,-0.80621c-0.78273,-1.0583 -2.05488,-2.19987 -0.51895,-4.08823c0.72442,-0.89061 1.81946,-0.37892 2.81908,0.97262c0.99962,1.35157 1.71276,2.6688 0.80085,3.92182z" stroke-linecap="butt"/><path d="M318.94598,176.49218l-2.12346,-2.80267" stroke-linecap="round"/><path d="M324.1946,176.6946c0.27412,2.35918 -0.98618,2.5159 -2.44132,2.79548c-1.1394,0.21891 -2.63719,0.9041 -2.82817,-1.78305c-0.09007,-1.26737 0.91095,-2.12529 2.36609,-2.40488c1.45513,-0.27958 2.70932,-0.27806 2.90342,1.39243z" stroke-linecap="butt"/><path d="M323.23392,177.18403l3.04922,-0.63288" stroke-linecap="round"/><path d="M331.32557,173.1828c0.96569,1.99316 -0.1639,2.78513 -1.43844,3.78875c-0.99801,0.78587 -2.19035,2.1785 -3.17708,-0.15432c-0.46536,-1.10024 0.21119,-2.39291 1.48573,-3.39652c1.27454,-1.00362 2.44602,-1.64927 3.12981,-0.23792z" stroke-linecap="butt"/><path d="M330.57584,174.12122l2.65662,-2.14561" stroke-linecap="round"/><path d="M338.00157,167.85324c0.96568,1.99318 -0.16389,2.78515 -1.43843,3.78876c-0.99801,0.78587 -2.19036,2.17849 -3.17708,-0.15432c-0.46536,-1.10024 0.21119,-2.39291 1.48573,-3.39652c1.27454,-1.00362 2.44601,-1.64925 3.12981,-0.23792z" stroke-linecap="butt"/><path d="M337.25182,168.79165l2.65663,-2.14561" stroke-linecap="round"/></g><g data-paper-data="{&quot;index&quot;:null}"><g stroke="#000000" stroke-width="3" stroke-linecap="round"><path d="M359.6948,201.02683c0,0 3.39718,10.10278 3.30034,14.70926c-14.12286,7.49175 -23.24621,5.58088 -23.24621,5.58088c-1.82447,0.54059 -2.54889,-6.69263 -2.54889,-6.69263c0,0 -1.84513,-14.0706 -3.02613,-23.07648c-0.77548,-5.91363 -1.98709,-15.15296 -1.98709,-15.15296c0,0 -0.52776,-5.89734 0.47916,-6.10578c6.05775,-1.25404 11.69063,-3.75018 14.87257,-3.2147c1.06066,0.17849 2.89478,5.54325 2.89478,5.54325l9.2615,28.40915z" data-paper-data="{&quot;origPos&quot;:null}" fill="#582700"/><path d="M360.72265,206.67789l-23.27651,5.80374l-0.70337,-3.31709l23.25934,-6.06171z" data-paper-data="{&quot;origPos&quot;:null}" fill="none"/></g><path d="M336.4514,208.76607l-4.05119,-36.60993l1.01561,-0.94658l14.31395,-3.70352l11.51472,35.31382z" fill="#66c8ff" stroke="#000000" stroke-width="1" stroke-linecap="round"/><path d="M337.32007,212.0559l-0.49346,-2.27006l23.12297,-5.79755l0.49348,2.27005z" fill="#ffffff" stroke="none" stroke-width="0" stroke-linecap="butt"/></g><g data-paper-data="{&quot;index&quot;:null}"><g data-paper-data="{&quot;index&quot;:null}"><path d="M293.74145,163.85558c2.03546,1.09951 6.98416,-0.57102 6.04066,1.45492c-0.62858,1.34968 -13.52167,17.82563 -15.31638,18.21571c-0.89922,0.19544 -2.10833,-0.01723 -2.78777,-0.38424c-0.99867,-0.53947 -1.56083,-1.55058 -1.72514,-2.76129c-0.17056,-1.25699 8.26651,-20.29104 8.74709,-21.323c0.94349,-2.02593 3.00608,3.69835 5.04155,4.79788z" fill="#0091d4" stroke="#000000" stroke-width="1.5" stroke-linecap="butt"/><g stroke-linecap="butt"><path d="M296.84392,157.1438c3.68778,1.99208 5.6921,5.72251 4.47676,8.33215c-1.21533,2.60964 -5.19009,3.11027 -8.87788,1.11819c-3.68778,-1.99208 -5.69208,-5.72252 -4.47674,-8.33216c1.21532,-2.60964 5.19008,-3.11029 8.87786,-1.1182z" fill="#0091d4" stroke="#000000" stroke-width="1.5"/><path d="M297.38469,164.82627l3.67293,0.18419c0,0 -1.36684,1.3412 -2.09626,1.62705c-1.53734,0.57485 -3.08327,0.17271 -3.08327,0.17271z" fill="#00aeff" stroke="none" stroke-width="0"/><path d="M294.10184,163.97627l1.46943,0.45091c0,0 -0.33323,0.96621 -0.50255,1.27768c-0.19827,0.3647 -0.73724,0.90827 -0.73724,0.90827l-1.6337,-0.82406z" fill="#00aeff" stroke="none" stroke-width="0"/></g><g><path d="M294.05764,162.87774c-5.08737,-2.74812 -6.41342,-7.48093 -3.87425,-12.93321c2.53917,-5.45225 8.98241,-7.50357 14.06979,-4.75546c5.08736,2.74811 6.89192,8.55536 4.35275,14.00764c-2.53917,5.45226 -9.46091,6.42916 -14.54829,3.68105z" fill="#00699a" stroke="#000000" stroke-width="1.5" stroke-linecap="butt"/><path d="M305.62381,146.88243c0,0 5.59126,5.79219 3.36968,10.56251c-1.25978,2.70511 -3.79435,4.84506 -6.2834,6.06896c-1.77334,0.87198 -3.92897,1.01088 -5.72724,0.03948c-3.69631,-1.99671 -4.18926,-4.47085 -1.96768,-9.24117c1.10945,-2.38225 3.77349,-4.60515 6.26829,-5.70613c2.50089,-1.10367 4.34036,-1.72366 4.34036,-1.72366z" fill="#0091d4" stroke="none" stroke-width="0" stroke-linecap="butt"/><path d="M308.29436,159.10321c0,0 -4.25336,2.38428 -10.2424,-0.56956c-6.03811,-2.97805 -7.18759,-7.76155 -7.18759,-7.76155" fill="none" stroke="#000000" stroke-width="0.8" stroke-linecap="round"/><path d="M305.21602,162.86189c0,0 -4.4222,0.22553 -8.43154,-1.18547c-5.778,-2.03344 -7.00211,-5.05069 -7.00211,-5.05069" fill="none" stroke="#000000" stroke-width="0.75" stroke-linecap="round"/><path d="M309.45292,154.44303c0,0 -4.15255,1.7375 -10.30121,-0.85728c-5.91391,-2.49572 -6.74855,-5.30312 -6.74855,-5.30312" fill="none" stroke="#000000" stroke-width="0.8" stroke-linecap="round"/><path d="M293.03367,147.06453c0,0 4.48959,-0.24303 7.71713,0.49361c4.25118,0.97025 8.11882,3.11354 8.11882,3.11354" fill="none" stroke="#000000" stroke-width="0.8" stroke-linecap="round"/><path d="M292.43686,161.10928c0,0 -0.64748,-4.13773 1.81162,-10.00006c2.29477,-5.47056 5.87962,-6.51496 5.87962,-6.51496" fill="none" stroke="#000000" stroke-width="0.8" stroke-linecap="round"/><path d="M302.12357,145.33333c0,0 -1.43663,2.63197 -2.5741,5.73417c-1.0003,2.72809 -1.67192,5.85702 -2.27723,7.36485c-0.71895,1.79089 -2.25828,4.61118 -2.25828,4.61118" fill="none" stroke="#000000" stroke-width="0.8" stroke-linecap="round"/><path d="M304.67463,146.10144c0,0 0.66632,5.64919 -0.9782,9.44463c-2.58114,5.95708 -6.30793,8.64461 -6.30793,8.64461" fill="none" stroke="#000000" stroke-width="0.8" stroke-linecap="round"/><path d="M307.40326,148.11757c0,0 0.66206,4.09873 -0.49047,8.11361c-1.65968,5.78157 -4.27172,7.95054 -4.27172,7.95054" fill="none" stroke="#000000" stroke-width="0.8" stroke-linecap="round"/><path d="M307.30749,156.06263c0.20887,-0.44858 0.6723,-0.65336 1.03505,-0.45741c0.36274,0.19595 0.48747,0.71845 0.27856,1.16701c-0.20888,0.44859 -0.6723,0.65337 -1.03505,0.45742c-0.36274,-0.19595 -0.48747,-0.71846 -0.27856,-1.16702z" fill="#00aeff" stroke="none" stroke-width="0" stroke-linecap="butt"/><path d="M308.2656,153.80167c-0.20929,-0.11306 -0.29426,-0.38652 -0.1898,-0.6108c0.10445,-0.22427 0.35878,-0.31445 0.56805,-0.20141c0.20928,0.11305 0.29426,0.38651 0.1898,0.61079c-0.10444,0.22428 -0.35877,0.31445 -0.56804,0.20141z" fill="#00aeff" stroke="none" stroke-width="0" stroke-linecap="butt"/></g></g><path d="M295.437,167.33054c0.87349,-0.07022 2.46642,1.24643 2.46642,1.24643l4.04427,2.96077c0,0 0.52688,1.21098 0.2926,1.91504c-0.70281,2.11219 -2.58181,5.85571 -4.33888,9.87979c-0.29207,0.66889 -1.24617,0.32604 -1.24617,0.32604c0,0 -1.39787,-0.79263 -2.29257,-1.29996c-1.36256,-0.7726 -3.49138,-1.97971 -3.49138,-1.97971c0,0 -1.15078,-0.47171 -0.59156,-1.68391c0,0 0.21883,-1.97701 5.15727,-11.3645z" fill="#582700" stroke="#000000" stroke-width="3" stroke-linecap="round"/><path d="M284.36339,162.57617c1.60339,-0.23881 4.40988,2.2662 4.40988,2.2662l7.15648,5.5822c0,0 0.86521,2.40694 0.37946,3.86565c-1.45725,4.37615 -5.1985,12.20181 -8.73952,20.585c-0.58859,1.39343 -2.30582,0.80035 -2.30582,0.80035c0,0 -2.49234,-1.45984 -4.08756,-2.39421c-2.42936,-1.42297 -6.22496,-3.64615 -6.22496,-3.64615c0,0 -2.06655,-0.83378 -0.94512,-3.36238c0,0 0.5611,-4.04788 10.35716,-23.69668z" fill="#582700" stroke="#000000" stroke-width="3" stroke-linecap="round"/></g><path d="M326.11152,147.11927c0,0 -5.36835,-5.12893 -5.04654,-6.91458c0.29696,-1.64768 6.90882,-3.41875 6.90882,-3.41875" data-paper-data="{&quot;index&quot;:null}" fill="none" stroke="#000000" stroke-width="2.5" stroke-linecap="round"/><path d="M312.92586,131.63098c0,0 4.22251,5.74408 3.51912,7.24272c-0.76229,1.62413 -7.93039,2.15589 -7.93039,2.15589" data-paper-data="{&quot;index&quot;:null}" fill="none" stroke="#000000" stroke-width="2.5" stroke-linecap="round"/><g data-paper-data="{&quot;index&quot;:null}" stroke="#000000" stroke-width="1.25" stroke-linecap="butt"><path d="M323.14199,158.28107c-6.59881,-1.29958 -3.2405,-7.1577 -3.2405,-7.1577l9.26081,1.9048c0,0 0.21245,6.48039 -6.0203,5.2529z" fill="#000000"/><path d="M324.3322,156.61387c1.66924,-0.12413 3.608,0.3776 3.43761,0.56205c-0.87706,0.94939 -2.30476,1.56264 -4.62781,1.10514c-0.77511,-0.15266 -1.41284,-0.3682 -1.93477,-0.62977c-0.25258,-0.12658 1.30715,-0.90225 3.12494,-1.03742z" fill="#ff8484"/><path d="M328.79764,155.1222c-0.00559,0.02806 -8.30102,-1.6457 -8.30102,-1.6457l0.52677,-2.12239l8.1389,1.67406c0,0 -0.19493,1.24284 -0.36464,2.09403z" fill="#ffffff"/></g><path d="M151.96363,348.03637v-336.07274h336.07274v336.07274z" data-paper-data="{&quot;index&quot;:null}" fill="none" stroke="#000000" stroke-width="0" stroke-linecap="butt"/></g></g></svg>