<svg version="1.1" xmlns="http://www.w3.org/2000/svg" xmlns:xlink="http://www.w3.org/1999/xlink" width="260.61231" height="318.95604" viewBox="0,0,260.61231,318.95604"><g transform="translate(-150.67253,-33.70681)"><g data-paper-data="{&quot;isPaintingLayer&quot;:true}" fill-rule="nonzero" stroke-linejoin="miter" stroke-miterlimit="10" stroke-dasharray="" stroke-dashoffset="0" style="mix-blend-mode: normal"><g stroke="#2a2b40" stroke-linecap="butt"><path d="M378.69985,197.81489l-115.91329,14.76109l-5.94089,-46.65152l115.91329,-14.76109z" fill="#000000" stroke-width="2"/><path d="M369.6451,199.37689l-25.91146,3.29972l-5.99747,-47.09583l25.91146,-3.29972z" fill="#ffffff" stroke-width="2.5"/></g><path d="M235.17097,351.66286v-94.89051h40.95702v94.89051z" fill="#000000" stroke="#2a2b40" stroke-width="2" stroke-linecap="butt"/><path d="M193.90771,349.39579v-94.89051h40.95702v94.89051z" fill="#000000" stroke="#2a2b40" stroke-width="2" stroke-linecap="butt"/><g stroke-linecap="butt"><path d="M192.67305,254.08197l22.44896,-105.48948l80.5403,17.13958l-22.44896,105.48948z" fill="#000000" stroke="#2a2b40" stroke-width="2"/><path d="M268.2311,189.46712c-4.60843,21.65537 -16.74491,37.42279 -27.1076,35.21753c-10.36269,-2.20526 -15.02744,-21.54811 -10.41901,-43.20348c4.60843,-21.65537 13.34088,-27.33487 23.70357,-25.12961c10.36269,2.20526 18.43147,11.4602 13.82305,33.11556z" fill="#ffffff" stroke="#2a2b40" stroke-width="2.5"/><path d="M255.32474,183.28235c-2.85553,13.41836 -7.91675,23.71164 -11.30455,22.99069c-3.3878,-0.72095 -3.8193,-12.18312 -0.96377,-25.60148c2.85553,-13.41836 7.91675,-23.71164 11.30455,-22.99069c3.3878,0.72095 3.8193,12.18312 0.96377,25.60148z" fill="#000000" stroke="none" stroke-width="0"/></g><g><g><path d="M210.27712,240.69917c-3.967,-14.55631 1.03618,-25.05288 15.24871,-29.64784c11.11575,-3.59379 26.98536,5.13428 30.95237,19.6906c3.96704,14.55636 -2.55711,27.69406 -16.96835,31.62157c-2.25364,0.61419 -4.51579,0.51217 -6.58277,0.43829c-11.15042,-0.39866 -19.30332,-9.82261 -22.64996,-22.10259z" fill="#485e84" stroke="#000000" stroke-width="2" stroke-linecap="butt"/><path d="M248.20997,219.73187c0,0 -5.65309,1.08329 -6.38917,2.94651c-7.06063,17.87236 -4.3812,31.65782 -3.14703,36.14965c0.28039,1.02054 1.36183,1.32276 1.36183,1.32276c0,0 -1.96976,0.7669 -4.70779,0.89809c-2.9135,0.13962 -6.68429,-0.39429 -9.44385,-1.74703c-3.15218,-1.54524 -9.44008,-7.01981 -9.44008,-7.01981l-8.59318,-19.10539c0,0 5.6438,-12.21075 7.17554,-13.74395c1.50058,-1.50204 3.70702,-2.84901 5.99537,-4.37559c3.55298,-2.37021 7.96917,-3.42097 10.84542,-3.2727c3.67075,0.18929 8.00299,1.91659 11.2499,3.92159c3.02185,1.86603 5.09291,4.0259 5.09291,4.0259z" fill="#343545" stroke="none" stroke-width="0" stroke-linecap="butt"/><path d="M225.36343,228.40394c0,0 8.02433,-4.12411 13.0969,-3.20258c6.42134,1.16654 18.02564,6.94949 18.02564,6.94949" fill="none" stroke="#000000" stroke-width="1" stroke-linecap="round"/><path d="M245.7351,258.97372c0,0 -7.14022,0.38347 -11.3629,-0.417c-4.26301,-0.80807 -12.54746,-5.85985 -12.54746,-5.85985" fill="none" stroke="#000000" stroke-width="1" stroke-linecap="round"/><path d="M219.6181,219.05795c0,0 8.17362,-4.35639 13.62254,-3.10805c8.36116,1.91555 18.94873,6.64829 18.94873,6.64829" fill="none" stroke="#000000" stroke-width="1" stroke-linecap="round"/><path d="M232.70568,211.16412c0,0 13.78721,10.45887 13.22401,27.87227c-0.61692,19.07417 -17.34084,23.29327 -17.34084,23.29327" fill="none" stroke="#000000" stroke-width="1" stroke-linecap="round"/><path d="M223.26494,212.42006c0,0 12.21886,12.94457 11.75493,28.31155c-0.38096,12.6177 -14.13546,17.48928 -14.13546,17.48928" fill="none" stroke="#000000" stroke-width="1" stroke-linecap="round"/><path d="M251.90694,245.44521c0.33744,-1.1547 1.35204,-1.87415 2.26611,-1.60702c0.91413,0.26708 0.71306,1.03751 0.37561,2.19221c-0.33744,1.1547 -0.68348,2.25636 -1.59758,1.98923c-0.91413,-0.26708 -1.38162,-1.41975 -1.04415,-2.5744z" fill="#8fbbbe" stroke="none" stroke-width="0" stroke-linecap="butt"/><path d="M248.93632,252.08103c-0.15813,-0.58033 0.41928,-1.24307 1.28976,-1.4803c0.87048,-0.23723 1.25864,-0.21391 1.41681,0.36639c0.15813,0.58033 -0.37156,1.41821 -1.24204,1.65541c-0.87048,0.23723 -1.30638,0.03877 -1.46452,-0.54154z" fill="#8fbbbe" stroke="none" stroke-width="0" stroke-linecap="butt"/><path d="M253.78562,238.78679c-0.14312,-0.89083 0.22224,-1.69027 0.81609,-1.7857c0.59381,-0.09545 0.66593,0.69253 0.80909,1.58332c0.14312,0.89083 0.30316,1.54708 -0.2907,1.64253c-0.59381,0.09545 -1.19133,-0.54936 -1.33447,-1.44016z" fill="#8fbbbe" stroke="none" stroke-width="0" stroke-linecap="butt"/><path d="M244.93101,216.67467c0,0 5.74833,8.46382 7.38664,15.86218c0.92882,4.19451 0.29947,8.21199 -0.21182,11.25251c-0.45211,2.68888 -3.99545,8.22698 -7.14866,12.18368c-2.32153,2.91311 -4.55552,4.83047 -4.55552,4.83047" fill="none" stroke="#000000" stroke-width="0.5" stroke-linecap="round"/><path d="M256.18035,248.97804c0,0 -10.29984,2.38568 -15.64707,1.59564c-4.50517,-0.66561 -14.24958,-5.67668 -14.24958,-5.67668" fill="none" stroke="#000000" stroke-width="1" stroke-linecap="round"/><path d="M226.38033,239.03855c0,0 9.44029,-2.07586 13.95923,-1.90287c7.9344,0.30372 17.0678,5.29953 17.0678,5.29953" fill="none" stroke="#000000" stroke-width="1" stroke-linecap="round"/></g><g stroke="#2a2b40" stroke-linecap="butt"><path d="M183.42679,276.62487l-13.23579,-130.21523l46.78719,-4.7557l13.23579,130.21523z" fill="#000000" stroke-width="2"/><path d="M181.6964,266.46552l-2.95876,-29.10854l47.2328,-4.801l2.95876,29.10854z" fill="#ffffff" stroke-width="2.5"/></g></g><g stroke-linecap="butt"><g stroke="#0c0c0c"><g><path d="M256.43628,114.60949c-1.66302,11.04494 -29.2665,16.0454 -61.65412,11.16884c-32.38761,-4.87656 -41.69071,-28.7471 -40.02768,-39.79204c1.66302,-11.04494 22.64549,4.76031 55.0331,9.63687c32.38761,4.87656 48.31172,7.94139 46.6487,18.98633z" fill="#fac843" stroke-width="2"/><path d="M255.41355,113.87804c-1.66302,11.04494 -29.2665,16.0454 -61.65412,11.16884c-32.38761,-4.87656 -39.64144,-26.24044 -37.97842,-37.28538c1.66302,-11.04494 5.76011,28.21687 38.14771,33.09343c32.38761,4.87656 63.14784,-18.02182 61.48482,-6.97688z" fill="#e47816" stroke-width="0"/></g><g><path d="M253.5385,77.31782c-1.66302,11.04494 -29.2665,16.0454 -61.65412,11.16884c-32.38761,-4.87656 -41.69071,-28.7471 -40.02768,-39.79204c1.66302,-11.04494 22.64549,4.76031 55.0331,9.63687c32.38761,4.87656 48.31172,7.94139 46.6487,18.98633z" fill="#fac843" stroke-width="2"/><path d="M252.51578,76.58636c-1.66302,11.04494 -29.2665,16.0454 -61.65412,11.16884c-32.38761,-4.87656 -39.64145,-26.24045 -37.97843,-37.28539c1.66302,-11.04494 5.76011,28.21687 38.14772,33.09343c32.38761,4.87656 63.14784,-18.02182 61.48482,-6.97688z" fill="#e47816" stroke-width="0"/></g><g><path d="M254.98541,151.11052c-1.66302,11.04494 -29.2665,16.0454 -61.65412,11.16884c-32.38761,-4.87656 -41.69071,-28.7471 -40.02768,-39.79204c1.66302,-11.04494 22.64549,4.76031 55.0331,9.63687c32.38761,4.87656 48.31172,7.94139 46.6487,18.98633z" fill="#fac843" stroke-width="2"/><path d="M253.96268,150.37907c-1.66302,11.04494 -29.2665,16.0454 -61.65412,11.16884c-32.38761,-4.87656 -39.64144,-26.24045 -37.97842,-37.28539c1.66302,-11.04494 5.76011,28.21687 38.14771,33.09343c32.38761,4.87656 63.14784,-18.02182 61.48482,-6.97688z" fill="#e47816" stroke-width="0"/></g></g><g stroke="#0c0c0c"><g data-paper-data="{&quot;index&quot;:null}"><path d="M352.35395,85.475c32.38761,-4.87656 53.37008,-20.68181 55.0331,-9.63687c1.66302,11.04494 -7.64007,34.91547 -40.02768,39.79204c-32.38761,4.87656 -59.99109,-0.1239 -61.65412,-11.16884c-1.66302,-11.04494 14.26109,-14.10977 46.6487,-18.98633z" fill="#fac843" stroke-width="2"/><path d="M368.21279,110.70676c32.38761,-4.87656 36.4847,-44.13836 38.14772,-33.09342c1.66302,11.04494 -5.5908,32.40883 -37.97843,37.28538c-32.38761,4.87656 -59.99109,-0.1239 -61.65412,-11.16884c-1.66302,-11.04494 29.09721,11.85345 61.48482,6.97688z" fill="#e47816" stroke-width="0"/></g><g data-paper-data="{&quot;index&quot;:null}"><path d="M355.25174,48.18329c32.38761,-4.87656 53.37008,-20.68181 55.0331,-9.63687c1.66302,11.04494 -7.64007,34.91547 -40.02768,39.79204c-32.38761,4.87656 -59.99109,-0.1239 -61.65412,-11.16884c-1.66302,-11.04494 14.26109,-14.10977 46.6487,-18.98633z" fill="#fac843" stroke-width="2"/><path d="M371.11058,73.41507c32.38761,-4.87656 36.48469,-44.13837 38.14771,-33.09343c1.66302,11.04494 -5.5908,32.40883 -37.97842,37.28539c-32.38761,4.87656 -59.99109,-0.1239 -61.65412,-11.16884c-1.66302,-11.04494 29.09721,11.85345 61.48482,6.97688z" fill="#e47816" stroke-width="0"/></g><g data-paper-data="{&quot;index&quot;:null}"><path d="M353.80481,121.97601c32.38761,-4.87656 53.37008,-20.68181 55.0331,-9.63687c1.66302,11.04494 -7.64007,34.91547 -40.02768,39.79204c-32.38761,4.87656 -59.99109,-0.1239 -61.65412,-11.16884c-1.66302,-11.04494 14.26109,-14.10977 46.6487,-18.98633z" fill="#fac843" stroke-width="2"/><path d="M369.66366,147.20773c32.38761,-4.87656 36.48469,-44.13837 38.14771,-33.09343c1.66302,11.04494 -5.5908,32.40883 -37.97842,37.28539c-32.38761,4.87656 -59.99109,-0.1239 -61.65412,-11.16884c-1.66302,-11.04494 29.09721,11.85345 61.48482,6.97688z" fill="#e47816" stroke-width="0"/></g></g><path d="M221.41022,116.3849c0,-31.80358 32.53018,-57.58549 72.6582,-57.58549c40.12802,0 72.6582,25.7819 72.6582,57.58549c0,31.80358 -32.53018,57.58549 -72.6582,57.58549c-40.12802,0 -72.6582,-25.7819 -72.6582,-57.58549z" fill="#fdf7c7" stroke="#000000" stroke-width="2"/><path d="M221.95936,113.45888c0,-3.52561 2.35177,-8.7085 2.62288,-9.88302c3.3547,-14.53329 30.25799,59.95585 65.9376,59.95585c40.12802,0 49.30313,4.60319 4.46071,9.66756c-39.90255,4.24795 -73.02118,-27.93679 -73.02118,-59.74039z" fill="#f2bd9d" stroke="#000000" stroke-width="0"/></g><path d="M293.45831,122.80796c0,-7.78178 6.30839,-14.09017 14.09017,-14.09017c7.78178,0 14.09017,6.30839 14.09017,14.09017c0,7.78178 -6.30839,14.09017 -14.09017,14.09017c-7.78178,0 -14.09017,-6.30839 -14.09017,-14.09017z" fill="#1a1507" stroke="#0c0c0c" stroke-width="2" stroke-linecap="butt"/><path d="M310.07552,121.99444c0,-2.74328 2.22387,-4.96715 4.96715,-4.96715c2.74328,0 4.96715,2.22387 4.96715,4.96715c0,2.74328 -2.22387,4.96715 -4.96715,4.96715c-2.74328,0 -4.96715,-2.22387 -4.96715,-4.96715z" fill="#fdf7c7" stroke="#000000" stroke-width="0" stroke-linecap="butt"/><path d="M335.88168,112.65296c0,-7.78178 6.30838,-14.09017 14.09017,-14.09017c7.78178,0 14.09017,6.30839 14.09017,14.09017c0,7.78179 -6.30839,14.09017 -14.09017,14.09017c-7.78178,0 -14.09017,-6.30839 -14.09017,-14.09017z" fill="#1a1507" stroke="#0c0c0c" stroke-width="2" stroke-linecap="butt"/><path d="M353.13743,111.46435c0,-2.74328 2.22387,-4.96716 4.96715,-4.96716c2.74328,0 4.96715,2.22387 4.96715,4.96716c0,2.74329 -2.22387,4.96715 -4.96715,4.96715c-2.74328,0 -4.96715,-2.22386 -4.96715,-4.96715z" fill="#fdf7c7" stroke="#000000" stroke-width="0" stroke-linecap="butt"/><path d="M358.92869,142.95778c0,0 0.80439,4.42242 -1.28221,7.41951c-1.77824,2.55416 -6.43645,3.76125 -7.03182,3.69099c-16.00822,-1.88909 -60.99789,-4.2288 -72.35253,-8.38683c-6.8162,-2.49606 -5.51716,-17.57967 -5.51716,-17.57967" fill="none" stroke="#1a1507" stroke-width="2" stroke-linecap="round"/><path d="M292.20526,154.02083c3.41384,5.22359 3.58364,11.15584 0.37925,13.25004c-3.20439,2.09421 -8.56952,-0.44266 -11.98336,-5.66625c-1.81793,-2.78165 -5.56439,-13.55006 -5.52281,-16.04704c0.02496,-1.49862 8.32433,1.32571 13.462,4.45114c2.37716,1.44612 2.58502,2.35973 3.66492,4.0121z" fill="#fdf7c7" stroke="#1a1507" stroke-width="2" stroke-linecap="butt"/></g></g></svg>