<svg version="1.1" xmlns="http://www.w3.org/2000/svg" xmlns:xlink="http://www.w3.org/1999/xlink" width="202.22227" height="202.22228" viewBox="0,0,202.22227,202.22228"><g transform="translate(-136.94442,-75.55554)"><g data-paper-data="{&quot;isPaintingLayer&quot;:true}" fill-rule="nonzero" stroke-linejoin="miter" stroke-miterlimit="10" stroke-dasharray="" stroke-dashoffset="0" style="mix-blend-mode: normal"><g data-paper-data="{&quot;index&quot;:null}" stroke="#000000"><path d="M265.10317,191.10535l-2.92071,17.9238c0,0 -1.5337,0.86193 -2.57582,0.75527c-1.04212,-0.10666 -1.77039,-1.20012 -1.77039,-1.20012l-0.37903,-17.91517" fill="#414b67" stroke-width="2" stroke-linecap="round"/><path d="M255.42341,206.19091l-11.42745,-6.39239l-0.90678,-18.26705l3.38459,-3.87527l4.73067,1.95331l6.51489,10.48478l12.54774,-1.00511l-0.83385,13.44888z" fill="#ef8b89" stroke-width="2" stroke-linecap="round"/><path d="M242.11896,181.66059l4.21698,-3.82896l5.58826,0.8428l7.36424,10.55863l-6.59157,5.224l-12.06049,-1.24034z" data-paper-data="{&quot;index&quot;:null}" fill="#133c8f" stroke-width="2" stroke-linecap="butt"/><g stroke-linecap="butt"><path d="M253.78863,184.00678c0.21285,-4.34429 3.84694,-7.69645 8.11698,-7.48725c4.27003,0.20922 7.55904,3.90056 7.3462,8.24486c-0.11685,2.38453 -1.26441,4.47013 -2.98211,5.83198c-1.41175,1.11928 -7.78914,1.15747 -8.87819,0.45955c-2.28507,-1.46437 -3.74704,-4.107 -3.6029,-7.04911z" fill="#414b67" stroke-width="2"/><path d="M264.86623,179.13098c0.35006,-0.30965 1.11798,-0.01341 1.71519,0.66173c0.5972,0.67513 0.79756,1.47347 0.44749,1.78313c-0.35006,0.30965 -1.11798,0.01341 -1.71519,-0.66173c-0.5972,-0.67513 -0.79756,-1.47347 -0.44749,-1.78313z" fill="#7082b2" stroke-width="0"/></g></g><g data-paper-data="{&quot;index&quot;:null}" stroke="#000000"><g data-paper-data="{&quot;index&quot;:null}"><path d="M260.55887,226.92733l-17.17097,2.8958l-6.4954,-2.52887l-1.22682,-32.96231l7.84122,-2.41843l7.87492,2.79768z" data-paper-data="{&quot;index&quot;:null}" fill="#73fffc" stroke-width="2" stroke-linecap="butt"/><path d="M242.54431,228.33657l-3.16475,-24.91141l4.06838,25.42851z" fill="#59a9e6" stroke-width="0" stroke-linecap="round"/></g><g><path d="M237.46031,231.21739l-17.35616,3.17956l-6.29803,-4.02268l8.7293,-33.14725l8.07925,-1.75173l7.72164,3.19651z" data-paper-data="{&quot;index&quot;:null}" fill="#73fffc" stroke-width="2" stroke-linecap="butt"/><path d="M219.33763,232.7442l4.31034,-25.98345l-3.44071,26.6709z" fill="#59a9e6" stroke-width="0" stroke-linecap="round"/></g><path d="M245.04338,176.71028l7.05026,20.25571l-24.72405,2.96816l-4.59812,-2.97089l3.50516,-19.73182z" fill="#1a54c9" stroke-width="2" stroke-linecap="round"/></g><path d="M208.75773,154.04594c0,-11.81358 4.09792,-22.13053 25.61751,-21.99342c31.18271,0.19867 24.19587,28.15109 24.19587,28.15109c0,0 3.43522,1.34556 2.30534,5.0868c-1.38397,4.58258 -13.24046,10.1459 -26.50119,10.1459c-14.14816,0 -25.61751,-9.5768 -25.61751,-21.39038z" data-paper-data="{&quot;index&quot;:null}" fill="#faddbf" stroke="#000000" stroke-width="2" stroke-linecap="butt"/><g data-paper-data="{&quot;index&quot;:null}" stroke="#000000"><g data-paper-data="{&quot;index&quot;:null}"><path d="M224.00178,212.16624l-14.75275,-0.57053l-7.29386,-7.39847l18.63125,-24.65649l5.46064,0.07965l3.41509,4.31668z" data-paper-data="{&quot;index&quot;:null}" fill="#faddbf" stroke-width="2" stroke-linecap="butt"/><path d="M209.02762,209.80496l10.32814,-20.5955l-9.71673,21.5074z" fill="#ef8b89" stroke-width="0" stroke-linecap="round"/></g><path d="M229.68797,194.4151l-12.10096,-0.74869l-5.64852,-6.23163l8.99181,-9.21217l5.65085,0.08242l3.53404,4.46704z" data-paper-data="{&quot;index&quot;:null}" fill="#1a54c9" stroke-width="2" stroke-linecap="butt"/></g><g data-paper-data="{&quot;index&quot;:null}" stroke="#000000" stroke-linecap="butt"><path d="M258.18113,151.24458c0,3.38945 0.03992,4.43555 -0.12105,3.89562c-0.16422,-0.55083 0.32056,-2.73648 -2.26166,-4.14646c-0.62573,-0.34167 -2.97596,1.82998 -3.77128,1.47188c-0.49955,-0.22493 -2.52282,-2.967 -3.08081,-3.16412c-0.39014,-0.13782 -3.63023,2.44275 -4.03831,2.31135c-1.01777,-0.32772 -3.49563,-3.31633 -4.58942,-3.50819c-0.60231,-0.10565 -2.7067,3.45519 -3.32165,3.38117c-0.79306,-0.09546 -2.93583,-3.51894 -3.734,-3.51894c-2.12267,0 -2.18097,2.04422 -3.70822,3.79553c-0.99244,1.13804 -4.07877,-3.8057 -4.98962,-2.51247c-1.13117,1.60603 -2.25099,3.15425 -3.4876,4.20384c-0.97017,0.82344 -3.89675,-2.94407 -4.73534,-2.18077c-4.04892,3.68541 -6.62589,6.27399 -6.62589,0.97541c0,-10.65446 12.76781,-2.64956 24.95092,-8.92491c11.66155,-6.00671 23.38894,-2.73339 23.38894,7.92107z" data-paper-data="{&quot;index&quot;:null}" fill="#ef8b89" stroke-width="0"/><path d="M259.50337,148.82128c0,6.84732 1.90453,2.54123 -3.34351,-0.25084c-0.64221,-0.34167 -3.05435,1.82998 -3.87062,1.47188c-0.51272,-0.22493 -2.58927,-2.967 -3.16196,-3.16412c-0.40042,-0.13782 -3.72585,2.44275 -4.14468,2.31135c-1.04458,-0.32773 -3.58771,-3.31633 -4.71031,-3.50819c-0.61818,-0.10566 -2.77799,3.45518 -3.40914,3.38116c-0.81395,-0.09545 -3.01316,-3.51893 -3.83236,-3.51893c-2.17858,0 -2.23842,2.04422 -3.8059,3.79553c-1.01859,1.13804 -4.18621,-3.8057 -5.12105,-2.51247c-1.16096,1.60603 -2.31028,3.15425 -3.57946,4.20384c-0.99572,0.82344 -3.99939,-2.94407 -4.86007,-2.18077c-4.15558,3.68541 -6.65067,6.01934 -6.65067,0.72076c0,-10.65446 11.62324,-23.69308 25.01468,-23.69308c13.39144,0 25.47507,12.28943 25.47507,22.94389z" data-paper-data="{&quot;index&quot;:null}" fill="#724e36" stroke-width="2"/><path d="M256.08764,148.23139c-0.64221,-0.34167 -3.05435,1.82998 -3.87062,1.47188c-0.51271,-0.22493 -2.58927,-2.967 -3.16196,-3.16412c-0.40041,-0.13782 -3.72585,2.44275 -4.14468,2.31135c-1.04459,-0.32773 -3.58771,-3.31633 -4.71031,-3.50819c-0.61818,-0.10566 -2.778,3.45518 -3.40915,3.38116c-0.81395,-0.09546 -3.01316,-3.51894 -3.83236,-3.51894c-2.17859,0 -2.23842,2.04422 -3.8059,3.79553c-1.01859,1.13804 -4.18621,-3.8057 -5.12105,-2.51247c-1.16097,1.60603 -2.31029,3.15425 -3.57947,4.20384c-0.99572,0.82344 -3.99939,-2.94407 -4.86007,-2.18077c-4.15558,3.68541 -6.65067,6.01934 -6.65067,0.72076c0,-10.65446 12.95437,-2.39491 25.45839,-8.67026c11.96872,-6.00671 25.03136,-2.73339 25.03136,7.92107c0,6.84732 1.90453,2.54123 -3.34351,-0.25084z" data-paper-data="{&quot;index&quot;:null}" fill="#623728" stroke-width="0"/></g><g data-paper-data="{&quot;index&quot;:null}" fill="#000000" stroke="none" stroke-width="0.5" stroke-linecap="butt"><path d="M248.5458,167.12343c-1.91937,-0.60185 -1.39865,-2.83241 -1.22917,-6.71842c0.16948,-3.88601 0.21347,-9.11102 1.90642,-8.81015c1.69295,0.30087 1.91053,3.91117 1.75053,7.57969c-0.15999,3.66852 -0.9377,8.41611 -2.42777,7.94888z"/><path d="M229.69483,163.30482c1.27623,-0.16057 2.13671,1.02744 1.95274,1.06187c0,0 -2.70619,2.95344 1.20657,5.25201c5.79696,3.40544 11.42913,1.28737 11.5123,1.55534c0.14822,0.47753 -0.32931,0.62574 -0.32931,0.62574c-3.59672,1.10812 -8.11581,-0.53763 -11.22587,-2.03966c-6.23984,-3.01358 -1.89505,-5.36638 -1.89505,-5.36638c0,0 -2.4976,-0.92835 -1.22137,-1.08892z"/><path d="M238.77645,167.87343c-2.90524,-0.60185 -2.11705,-2.83241 -1.86052,-6.71842c0.25653,-3.88601 0.32312,-9.11102 2.88564,-8.81015c2.56252,0.30087 2.89186,3.91117 2.64968,7.57969c-0.24217,3.66852 -1.41935,8.41611 -3.67478,7.94888z"/></g><path d="M136.94445,277.77779v-202.22223h202.22222v202.22222z" data-paper-data="{&quot;index&quot;:null}" fill="none" stroke="#000000" stroke-width="0.00005" stroke-linecap="butt"/></g></g></svg>