<svg version="1.1" xmlns="http://www.w3.org/2000/svg" xmlns:xlink="http://www.w3.org/1999/xlink" width="202.22227" height="202.22228" viewBox="0,0,202.22227,202.22228"><g transform="translate(-136.94442,-75.55554)"><g data-paper-data="{&quot;isPaintingLayer&quot;:true}" fill-rule="nonzero" stroke-linejoin="miter" stroke-miterlimit="10" stroke-dasharray="" stroke-dashoffset="0" style="mix-blend-mode: normal"><g data-paper-data="{&quot;index&quot;:null}" stroke="#000000"><path d="M266.98775,191.0689l-1.32475,18.11182c0,0 -1.45151,0.99414 -2.49897,0.98002c-1.04748,-0.01411 -1.86956,-1.03891 -1.86956,-1.03891l-1.9613,-17.81152" fill="#414b67" stroke-width="2" stroke-linecap="round"/><path d="M258.67947,206.95112l-11.94781,-5.35714l-2.51809,-18.11537l3.02876,-4.1593l4.88482,1.52746l7.41627,9.86779l12.40976,-2.11044l0.35834,13.46994z" fill="#ef8b89" stroke-width="2" stroke-linecap="round"/><path d="M243.25857,183.69299l3.86197,-4.18676l5.64089,0.34548l8.26883,9.86627l-6.10394,5.78626l-12.12292,-0.16929z" data-paper-data="{&quot;index&quot;:null}" fill="#133c8f" stroke-width="2" stroke-linecap="butt"/><g stroke-linecap="butt"><path d="M255.08996,184.99839c-0.17204,-4.34611 3.15149,-8.0064 7.4233,-8.17551c4.27181,-0.16908 7.87426,3.21705 8.04631,7.56315c0.09441,2.38552 -0.86429,4.5644 -2.45487,6.07277c-1.30728,1.2397 -7.65633,1.84152 -8.80281,1.24261c-2.40557,-1.25664 -4.09544,-3.75967 -4.21195,-6.70301z" fill="#414b67" stroke-width="2"/><path d="M265.69316,179.16236c0.32132,-0.33939 1.11243,-0.11219 1.76698,0.50751c0.65454,0.61969 0.9247,1.39719 0.60337,1.73659c-0.32132,0.33939 -1.11243,0.11219 -1.76698,-0.50751c-0.65454,-0.61969 -0.9247,-1.39719 -0.60337,-1.73659z" fill="#7082b2" stroke-width="0"/></g></g><g data-paper-data="{&quot;index&quot;:null}" stroke="#000000"><g data-paper-data="{&quot;index&quot;:null}"><path d="M261.10758,227.14048l-17.67477,2.81316l-6.68598,-2.4567l-1.26282,-32.02173l8.07128,-2.34942l8.10597,2.71785z" data-paper-data="{&quot;index&quot;:null}" fill="#73fffc" stroke-width="2" stroke-linecap="butt"/><path d="M242.56445,228.50951l-3.2576,-24.20056l4.18775,24.7029z" fill="#59a9e6" stroke-width="0" stroke-linecap="round"/></g><g><path d="M237.33128,231.30812l-17.8654,3.08883l-6.48282,-3.90789l8.98542,-32.20139l8.3163,-1.70174l7.9482,3.10529z" data-paper-data="{&quot;index&quot;:null}" fill="#73fffc" stroke-width="2" stroke-linecap="butt"/><path d="M218.67687,232.79137l4.43681,-25.24201l-3.54166,25.90984z" fill="#59a9e6" stroke-width="0" stroke-linecap="round"/></g><path d="M245.13684,178.35639l7.25712,19.67771l-25.44947,2.88346l-4.73303,-2.88612l3.60801,-19.16877z" fill="#1a54c9" stroke-width="2" stroke-linecap="round"/></g><path d="M212.15682,155.02405c0.77195,-11.78833 5.53525,-21.81546 26.99989,-20.27246c31.10308,2.23585 22.30465,29.67199 22.30465,29.67199c0,0 3.33995,1.56716 1.96802,5.22657c-1.68044,4.48235 -13.87512,9.25902 -27.10751,8.39252c-14.11792,-0.9245 -24.93698,-11.2303 -24.16503,-23.01862z" data-paper-data="{&quot;index&quot;:null}" fill="#faddbf" stroke="#000000" stroke-width="2" stroke-linecap="butt"/><g data-paper-data="{&quot;index&quot;:null}" stroke="#000000"><g data-paper-data="{&quot;index&quot;:null}"><path d="M224.00178,213.26363l-14.75275,-0.57053l-7.29386,-7.39847l18.63125,-24.65649l5.46064,0.07965l3.41509,4.31668z" data-paper-data="{&quot;index&quot;:null}" fill="#faddbf" stroke-width="2" stroke-linecap="butt"/><path d="M209.02762,210.90235l10.32814,-20.5955l-9.71673,21.5074z" fill="#ef8b89" stroke-width="0" stroke-linecap="round"/></g><path d="M229.68797,195.51249l-12.10096,-0.74869l-5.64852,-6.23163l8.99181,-9.21217l5.65085,0.08242l3.53404,4.46704z" data-paper-data="{&quot;index&quot;:null}" fill="#1a54c9" stroke-width="2" stroke-linecap="butt"/></g><g data-paper-data="{&quot;index&quot;:null}" stroke="#000000" stroke-linecap="butt"><path d="M261.65766,155.45827c-0.22147,3.38218 -0.25,4.42867 -0.37534,3.87937c-0.12789,-0.56039 0.49867,-2.70969 -1.98589,-4.28539c-0.60208,-0.38182 -3.08917,1.6316 -3.8594,1.2223c-0.48379,-0.2571 -2.32357,-3.12553 -2.86748,-3.35868c-0.3803,-0.16301 -3.78211,2.20032 -4.18072,2.04253c-0.99419,-0.39353 -3.27146,-3.53766 -4.35038,-3.80059c-0.59411,-0.14478 -2.92669,3.27093 -3.53548,3.15689c-0.78514,-0.14706 -2.69963,-3.70326 -3.49608,-3.75541c-2.11814,-0.13871 -2.3099,1.89733 -3.94832,3.5451c-1.06469,1.07075 -3.82138,-4.0641 -4.81478,-2.83315c-1.23369,1.52868 -2.4523,3.00042 -3.75484,3.96696c-1.0219,0.75829 -3.69604,-3.1924 -4.58272,-2.48553c-4.28108,3.41297 -7.02169,5.82763 -6.67546,0.54037c0.69621,-10.63171 12.91367,-1.8096 25.48079,-7.27545c12.02913,-5.23186 23.51756,-1.19924 22.82136,9.43246z" data-paper-data="{&quot;index&quot;:null}" fill="#ef8b89" stroke-width="0"/><path d="M263.13543,153.12648c-0.44743,6.83269 1.73441,2.66025 -3.31998,-0.46878c-0.61852,-0.38291 -3.16741,1.62648 -3.95853,1.2158c-0.49693,-0.25796 -2.38985,-3.12986 -2.94845,-3.36397c-0.39057,-0.16369 -3.87751,2.19408 -4.28686,2.03559c-1.02092,-0.39529 -3.36334,-3.54369 -4.471,-3.80849c-0.60996,-0.14582 -2.99783,3.26627 -3.62279,3.15117c-0.80596,-0.14843 -2.77676,-3.7083 -3.59422,-3.76183c-2.17393,-0.14235 -2.36721,1.89359 -4.04579,3.53873c-1.09078,1.06905 -3.92858,-4.07111 -4.94593,-2.84173c-1.26343,1.52674 -2.51146,2.99655 -3.84651,3.96097c-1.04742,0.75662 -3.79847,-3.19913 -4.70719,-2.49369c-4.38752,3.40599 -7.02978,5.57189 -6.68355,0.28463c0.69619,-10.63169 13.1466,-22.88294 26.50942,-22.00789c13.36281,0.87506 24.61758,13.92781 23.92138,24.55951z" data-paper-data="{&quot;index&quot;:null}" fill="#724e36" stroke-width="2"/><path d="M263.08552,152.78347c-0.44743,6.83269 1.73441,2.66025 -3.31998,-0.46878c-0.61852,-0.38291 -3.16741,1.62648 -3.95853,1.2158c-0.49692,-0.25795 -2.38985,-3.12986 -2.94845,-3.36397c-0.39056,-0.16368 -3.87751,2.19408 -4.28686,2.03559c-1.02093,-0.39529 -3.36334,-3.54369 -4.471,-3.80849c-0.60996,-0.14582 -2.99784,3.26627 -3.6228,3.15117c-0.80596,-0.14844 -2.77676,-3.70831 -3.59422,-3.76184c-2.17394,-0.14235 -2.36721,1.89359 -4.04579,3.53873c-1.09078,1.06905 -3.92858,-4.07111 -4.94593,-2.84173c-1.26344,1.52673 -2.51147,2.99654 -3.84652,3.96096c-1.04742,0.75662 -3.79847,-3.19913 -4.70719,-2.49369c-4.38752,3.40599 -7.02978,5.57189 -6.68355,0.28463c0.6962,-10.63169 13.08317,-1.5433 25.97053,-6.98818c12.33565,-5.2118 25.15647,-1.09192 24.46027,9.53978z" data-paper-data="{&quot;index&quot;:null}" fill="#623728" stroke-width="0"/></g><g data-paper-data="{&quot;index&quot;:null}" fill="#000000" stroke="none" stroke-width="0.5" stroke-linecap="butt"><path d="M251.00533,170.67351c-1.87593,-0.72598 -1.21057,-2.91774 -0.78753,-6.78438c0.42304,-3.86662 0.80834,-9.07759 2.47802,-8.66674c1.66967,0.41085 1.65087,4.02765 1.2515,7.67788c-0.39935,3.65022 -1.48563,8.33684 -2.94198,7.77325z"/><path d="M232.44415,165.63128c1.284,-0.07684 2.06502,1.16487 1.87919,1.1872c0,0 -2.8934,2.77029 0.86081,5.31962c5.56202,3.77695 11.32057,2.03143 11.38605,2.30427c0.1167,0.48618 -0.36949,0.60288 -0.36949,0.60288c-3.66144,0.87073 -8.06334,-1.06679 -11.0686,-2.76884c-6.02959,-3.41489 -1.54034,-5.47875 -1.54034,-5.47875c0,0 -2.43159,-1.08957 -1.1476,-1.1664z"/><path d="M241.20782,170.78354c-2.8597,-0.7904 -1.92744,-2.96469 -1.41753,-6.82563c0.50991,-3.86094 0.91778,-9.07043 3.45517,-8.60276c2.53738,0.46766 2.63011,4.09176 2.14873,7.73662c-0.48136,3.64485 -1.96625,8.30538 -4.18633,7.69176z"/></g><path d="M136.94445,277.77779v-202.22223h202.22222v202.22222z" data-paper-data="{&quot;index&quot;:null}" fill="none" stroke="#000000" stroke-width="0.00005" stroke-linecap="butt"/></g></g></svg>