<svg version="1.1" xmlns="http://www.w3.org/2000/svg" xmlns:xlink="http://www.w3.org/1999/xlink" width="260.61231" height="331.41535" viewBox="0,0,260.61231,331.41535"><g transform="translate(-93.59681,-21.24751)"><g data-paper-data="{&quot;isPaintingLayer&quot;:true}" fill-rule="nonzero" stroke-linejoin="miter" stroke-miterlimit="10" stroke-dasharray="" stroke-dashoffset="0" style="mix-blend-mode: normal"><g stroke="#2a2b40" stroke-linecap="butt"><path d="M252.9402,262.46813l-7.28991,-116.62177l46.93666,-2.93397l7.28991,116.62177z" fill="#000000" stroke-width="2"/><path d="M251.96267,253.33178l-1.6296,-26.06984l47.38369,-2.96191l1.6296,26.06984z" fill="#ffffff" stroke-width="2.5"/></g><path d="M235.17096,351.66286v-94.89051h40.95702v94.89051z" fill="#000000" stroke="#2a2b40" stroke-width="2" stroke-linecap="butt"/><path d="M193.9077,349.39579v-94.89051h40.95702v94.89051z" fill="#000000" stroke="#2a2b40" stroke-width="2" stroke-linecap="butt"/><g stroke-linecap="butt"><path d="M194.17761,258.94035v-107.85169h82.34382v107.85169z" fill="#000000" stroke="#2a2b40" stroke-width="2"/><path d="M254.6314,180.01357c0,22.14029 -8.58873,40.08854 -19.18347,40.08854c-10.59474,0 -19.18347,-17.94825 -19.18347,-40.08854c0,-22.14029 7.35902,-29.51303 17.95376,-29.51303c10.59474,0 20.41318,7.37275 20.41318,29.51303z" fill="#ffffff" stroke="#2a2b40" stroke-width="2.5"/><path d="M240.72038,176.65068c0,13.71883 -2.80786,24.84014 -6.27152,24.84014c-3.46366,0 -6.27152,-11.12131 -6.27152,-24.84014c0,-13.71883 2.80786,-24.84014 6.27152,-24.84014c3.46366,0 6.27152,11.12131 6.27152,24.84014z" fill="#000000" stroke="none" stroke-width="0"/></g><g><g><path d="M239.99792,226.04293c-10.16257,-11.15102 -10.49039,-22.77438 0.06853,-33.33936c8.25821,-8.263 26.36157,-7.72256 36.52416,3.42847c10.16264,11.15105 10.33963,25.81844 -0.70024,35.87978c-1.72642,1.5734 -3.78669,2.5131 -5.66039,3.38894c-10.10783,4.72467 -21.6587,0.04941 -30.23205,-9.3578z" fill="#485e84" stroke="#000000" stroke-width="2" stroke-linecap="butt"/><path d="M264.21452,190.09734c0,0 -4.53895,3.53962 -4.34543,5.53359c1.85628,19.12663 10.52149,30.17798 13.66641,33.61444c0.71451,0.78076 1.8149,0.55715 1.8149,0.55715c0,0 -1.40414,1.58002 -3.7818,2.94412c-2.53003,1.45153 -6.13004,2.69402 -9.20288,2.74691c-3.51004,0.06038 -11.60153,-1.94869 -11.60153,-1.94869l-16.35318,-13.09321c0,0 -0.53842,-13.44117 0.1267,-15.50382c0.65158,-2.02072 2.00217,-4.22495 3.34385,-6.62638c2.08316,-3.72854 5.53582,-6.67573 8.16384,-7.85401c3.35397,-1.5037 7.99745,-1.93958 11.80126,-1.63384c3.54015,0.28456 6.36776,1.26383 6.36776,1.26383z" fill="#343545" stroke="none" stroke-width="0" stroke-linecap="butt"/><path d="M247.82684,208.22503c0,0 5.26461,-7.3268 10.20007,-8.81725c6.24776,-1.88677 19.21245,-2.02505 19.21245,-2.02505" fill="none" stroke="#000000" stroke-width="1" stroke-linecap="round"/><path d="M279.88795,226.15828c0,0 -6.18161,3.59409 -10.30534,4.80514c-4.16309,1.22266 -13.83933,0.49948 -13.83933,0.49948" fill="none" stroke="#000000" stroke-width="1" stroke-linecap="round"/><path d="M238.45473,202.5224c0,0 5.2917,-7.60159 10.71106,-8.97255c8.31582,-2.10367 19.89699,-2.71369 19.89699,-2.71369" fill="none" stroke="#000000" stroke-width="1" stroke-linecap="round"/><path d="M246.50941,189.5332c0,0 17.03805,3.02985 24.46934,18.78801c8.14003,17.26107 -4.82578,28.63552 -4.82578,28.63552" fill="none" stroke="#000000" stroke-width="1" stroke-linecap="round"/><path d="M238.6773,194.95197c0,0 16.77425,5.95711 23.36166,19.8483c5.40885,11.40596 -4.61632,22.00854 -4.61632,22.00854" fill="none" stroke="#000000" stroke-width="1" stroke-linecap="round"/><path d="M279.21929,211.30348c-0.22563,-1.18165 0.34983,-2.28431 1.28524,-2.46291c0.93544,-0.17867 1.10741,0.59877 1.33303,1.78042c0.22563,1.18165 0.41944,2.31999 -0.51599,2.49861c-0.93544,0.17867 -1.8767,-0.63448 -2.10228,-1.8161z" fill="#8fbbbe" stroke="none" stroke-width="0" stroke-linecap="butt"/><path d="M279.59775,218.56403c-0.40514,-0.44458 -0.19303,-1.2976 0.47381,-1.90533c0.66684,-0.60773 1.02301,-0.7638 1.42817,-0.31926c0.40514,0.44458 0.3153,1.43177 -0.35156,2.03947c-0.66684,0.60773 -1.14529,0.62963 -1.55043,0.18508z" fill="#8fbbbe" stroke="none" stroke-width="0" stroke-linecap="butt"/><path d="M277.85848,204.52026c-0.53322,-0.72783 -0.57216,-1.60594 -0.08698,-1.96142c0.48513,-0.35548 0.9083,0.31313 1.44154,1.04091c0.53322,0.72783 0.97465,1.23912 0.48947,1.59463c-0.48513,0.35548 -1.3108,0.05366 -1.84402,-0.67413z" fill="#8fbbbe" stroke="none" stroke-width="0" stroke-linecap="butt"/><path d="M259.90286,188.86952c0,0 8.97291,4.91594 13.80167,10.75571c2.73765,3.31087 4.00755,7.17398 4.9375,10.1136c0.82244,2.59963 0.191,9.14387 -0.81355,14.10261c-0.73959,3.65085 -1.85486,6.3754 -1.85486,6.3754" fill="none" stroke="#000000" stroke-width="0.5" stroke-linecap="round"/><path d="M284.6329,212.5017c0,0 -8.08223,6.81584 -13.2023,8.54846c-4.31377,1.45979 -15.27113,1.43794 -15.27113,1.43794" fill="none" stroke="#000000" stroke-width="1" stroke-linecap="round"/><path d="M253.57668,217.22883c0,0 7.45819,-6.14846 11.55981,-8.05307c7.20165,-3.34413 17.60813,-3.05752 17.60813,-3.05752" fill="none" stroke="#000000" stroke-width="1" stroke-linecap="round"/></g><g stroke="#2a2b40" stroke-linecap="butt"><path d="M232.46138,270.25601l-71.10204,-109.88945l39.48401,-25.54743l71.10204,109.88945z" fill="#000000" stroke-width="2"/><path d="M226.29289,262.00032l-15.89428,-24.56488l39.86006,-25.79075l15.89428,24.56488z" fill="#ffffff" stroke-width="2.5"/></g></g><g stroke-linecap="butt"><g stroke="#0c0c0c"><g><path d="M199.36057,102.15018c-1.66302,11.04494 -29.2665,16.0454 -61.65412,11.16884c-32.38761,-4.87656 -41.69071,-28.7471 -40.02768,-39.79204c1.66302,-11.04494 22.64549,4.76031 55.0331,9.63687c32.38761,4.87656 48.31172,7.94139 46.6487,18.98633z" fill="#fac843" stroke-width="2"/><path d="M198.33784,101.41873c-1.66302,11.04494 -29.2665,16.0454 -61.65412,11.16884c-32.38761,-4.87656 -39.64144,-26.24044 -37.97842,-37.28538c1.66302,-11.04494 5.76011,28.21687 38.14771,33.09343c32.38761,4.87656 63.14784,-18.02182 61.48482,-6.97688z" fill="#e47816" stroke-width="0"/></g><g><path d="M196.46279,64.85851c-1.66302,11.04494 -29.2665,16.0454 -61.65412,11.16884c-32.38761,-4.87656 -41.69071,-28.7471 -40.02768,-39.79204c1.66302,-11.04494 22.64549,4.76031 55.0331,9.63687c32.38761,4.87656 48.31172,7.94139 46.6487,18.98633z" fill="#fac843" stroke-width="2"/><path d="M195.44007,64.12705c-1.66302,11.04494 -29.2665,16.0454 -61.65412,11.16884c-32.38761,-4.87656 -39.64145,-26.24045 -37.97843,-37.28539c1.66302,-11.04494 5.76011,28.21687 38.14772,33.09343c32.38761,4.87656 63.14784,-18.02182 61.48482,-6.97688z" fill="#e47816" stroke-width="0"/></g><g><path d="M197.9097,138.65121c-1.66302,11.04494 -29.2665,16.0454 -61.65412,11.16884c-32.38761,-4.87656 -41.69071,-28.7471 -40.02768,-39.79204c1.66302,-11.04494 22.64549,4.76031 55.0331,9.63687c32.38761,4.87656 48.31172,7.94139 46.6487,18.98633z" fill="#fac843" stroke-width="2"/><path d="M196.88697,137.91976c-1.66302,11.04494 -29.2665,16.0454 -61.65412,11.16884c-32.38761,-4.87656 -39.64144,-26.24045 -37.97842,-37.28539c1.66302,-11.04494 5.76011,28.21687 38.14771,33.09343c32.38761,4.87656 63.14784,-18.02182 61.48482,-6.97688z" fill="#e47816" stroke-width="0"/></g></g><g stroke="#0c0c0c"><g data-paper-data="{&quot;index&quot;:null}"><path d="M295.27824,73.01569c32.38761,-4.87656 53.37008,-20.68181 55.0331,-9.63687c1.66302,11.04494 -7.64007,34.91547 -40.02768,39.79204c-32.38761,4.87656 -59.99109,-0.1239 -61.65412,-11.16884c-1.66302,-11.04494 14.26109,-14.10977 46.6487,-18.98633z" fill="#fac843" stroke-width="2"/><path d="M311.13708,98.24745c32.38761,-4.87656 36.4847,-44.13836 38.14772,-33.09342c1.66302,11.04494 -5.5908,32.40883 -37.97843,37.28538c-32.38761,4.87656 -59.99109,-0.1239 -61.65412,-11.16884c-1.66302,-11.04494 29.09721,11.85345 61.48482,6.97688z" fill="#e47816" stroke-width="0"/></g><g data-paper-data="{&quot;index&quot;:null}"><path d="M298.17603,35.72398c32.38761,-4.87656 53.37008,-20.68181 55.0331,-9.63687c1.66302,11.04494 -7.64007,34.91547 -40.02768,39.79204c-32.38761,4.87656 -59.99109,-0.1239 -61.65412,-11.16884c-1.66302,-11.04494 14.26109,-14.10977 46.6487,-18.98633z" fill="#fac843" stroke-width="2"/><path d="M314.03487,60.95576c32.38761,-4.87656 36.48469,-44.13837 38.14771,-33.09343c1.66302,11.04494 -5.5908,32.40883 -37.97842,37.28539c-32.38761,4.87656 -59.99109,-0.1239 -61.65412,-11.16884c-1.66302,-11.04494 29.09721,11.85345 61.48482,6.97688z" fill="#e47816" stroke-width="0"/></g><g data-paper-data="{&quot;index&quot;:null}"><path d="M296.7291,109.5167c32.38761,-4.87656 53.37008,-20.68181 55.0331,-9.63687c1.66302,11.04494 -7.64007,34.91547 -40.02768,39.79204c-32.38761,4.87656 -59.99109,-0.1239 -61.65412,-11.16884c-1.66302,-11.04494 14.26109,-14.10977 46.6487,-18.98633z" fill="#fac843" stroke-width="2"/><path d="M312.58795,134.74842c32.38761,-4.87656 36.48469,-44.13837 38.14771,-33.09343c1.66302,11.04494 -5.5908,32.40883 -37.97842,37.28539c-32.38761,4.87656 -59.99109,-0.1239 -61.65412,-11.16884c-1.66302,-11.04494 29.09721,11.85345 61.48482,6.97688z" fill="#e47816" stroke-width="0"/></g></g><path d="M164.33451,103.92559c0,-31.80358 32.53018,-57.58549 72.6582,-57.58549c40.12802,0 72.6582,25.7819 72.6582,57.58549c0,31.80358 -32.53018,57.58549 -72.6582,57.58549c-40.12802,0 -72.6582,-25.7819 -72.6582,-57.58549z" fill="#fdf7c7" stroke="#000000" stroke-width="2"/><path d="M164.88365,100.99957c0,-3.52561 2.35177,-8.7085 2.62288,-9.88302c3.3547,-14.53329 30.25799,59.95585 65.9376,59.95585c40.12802,0 49.30313,4.60319 4.46071,9.66756c-39.90255,4.24795 -73.02118,-27.93679 -73.02118,-59.74039z" fill="#f2bd9d" stroke="#000000" stroke-width="0"/></g><path d="M215.49388,107.69009c0,-7.78178 6.30839,-14.09017 14.09017,-14.09017c7.78178,0 14.09017,6.30839 14.09017,14.09017c0,7.78178 -6.30839,14.09017 -14.09017,14.09017c-7.78178,0 -14.09017,-6.30839 -14.09017,-14.09017z" fill="#1a1507" stroke="#0c0c0c" stroke-width="2" stroke-linecap="butt"/><path d="M232.11109,106.50148c0,-2.74328 2.22387,-4.96715 4.96715,-4.96715c2.74328,0 4.96715,2.22387 4.96715,4.96715c0,2.74328 -2.22387,4.96715 -4.96715,4.96715c-2.74328,0 -4.96715,-2.22387 -4.96715,-4.96715z" fill="#fdf7c7" stroke="#000000" stroke-width="0" stroke-linecap="butt"/><path d="M271.96967,106.27037c0,-7.78178 6.30838,-14.09017 14.09017,-14.09017c7.78178,0 14.09017,6.30839 14.09017,14.09017c0,7.78179 -6.30839,14.09017 -14.09017,14.09017c-7.78178,0 -14.09017,-6.30839 -14.09017,-14.09017z" fill="#1a1507" stroke="#0c0c0c" stroke-width="2" stroke-linecap="butt"/><path d="M289.22542,105.08176c0,-2.74328 2.22387,-4.96716 4.96715,-4.96716c2.74328,0 4.96715,2.22387 4.96715,4.96716c0,2.74329 -2.22387,4.96715 -4.96715,4.96715c-2.74328,0 -4.96715,-2.22386 -4.96715,-4.96715z" fill="#fdf7c7" stroke="#000000" stroke-width="0" stroke-linecap="butt"/><path d="M284.95211,128.22441c0,0 0.80439,4.42242 -1.28221,7.41951c-1.77824,2.55416 -6.43645,3.76125 -7.03182,3.69099c-16.00822,-1.88909 -60.99789,-4.2288 -72.35253,-8.38683c-6.8162,-2.49606 -5.51716,-17.57967 -5.51716,-17.57967" fill="none" stroke="#1a1507" stroke-width="2" stroke-linecap="round"/></g></g></svg>