<svg version="1.1" xmlns="http://www.w3.org/2000/svg" xmlns:xlink="http://www.w3.org/1999/xlink" width="212.08156" height="325.27447" viewBox="0,0,212.08156,325.27447"><g transform="translate(-237.03189,-19.20018)"><g data-paper-data="{&quot;isPaintingLayer&quot;:true}" fill-rule="nonzero" stroke-linejoin="miter" stroke-miterlimit="10" stroke-dasharray="" stroke-dashoffset="0" style="mix-blend-mode: normal"><g data-paper-data="{&quot;index&quot;:null}" stroke="#000000" stroke-linecap="butt"><path d="M244.68086,252.05215l6.77294,-47.58077l50.48847,7.18684l-6.77294,47.58077z" fill="#ffcaa0" stroke-width="2"/><g><path d="M250.93573,204.57974l9.33914,-65.60867l51.14654,7.28051l-9.33914,65.60867z" fill="#ff0008" stroke-width="2"/><path d="M301.31616,211.96583c0,0 -16.7859,-2.38941 -25.11207,-3.57461c-8.23806,-1.17265 -24.5834,-3.49935 -24.5834,-3.49935l4.89156,-34.36389c0,0 15.82248,16.81573 23.87321,17.96172c8.49099,1.20866 25.82227,-10.88776 25.82227,-10.88776l-4.89157,34.36388z" fill="#8d005e" stroke-width="0"/></g><path d="M243.97476,251.40182l39.71834,-9.98849l17.54308,-30.40544l-6.77294,47.58077z" fill="#ff6e5b" stroke-width="0"/></g><g data-paper-data="{&quot;index&quot;:null}" stroke="#000000" stroke-linecap="butt"><path d="M264.57571,31.72441c14.65975,0 26.54382,26.10753 26.54382,58.3128c0,32.20527 -11.88407,58.3128 -26.54382,58.3128c-14.65975,0 -26.54382,-26.10753 -26.54382,-58.3128c0,-32.20527 11.88407,-58.3128 26.54382,-58.3128z" fill="#01930e" stroke-width="2"/><path d="M290.71767,89.60304c0,32.20527 -11.88408,58.3128 -26.54382,58.3128c-14.65974,0 17.76555,-35.72183 17.76555,-67.9271c0,-32.20527 8.77827,-22.59097 8.77827,9.6143z" fill="#31525b" stroke-width="0"/></g><g data-paper-data="{&quot;index&quot;:null}" stroke="#000000" stroke-linecap="butt"><path d="M281.91162,343.03028v-90.27109h61.17899v90.27109z" fill="#273750" stroke-width="2"/><path d="M281.12429,342.27371l42.75189,-40.95544l18.42709,-49.31565v90.27109z" fill="#1f1e2e" stroke-width="0"/></g><path d="M281.27386,252.34791v-113.80147h113.80147v113.80147z" data-paper-data="{&quot;index&quot;:null}" fill="#ff0008" stroke="#000000" stroke-width="2" stroke-linecap="butt"/><g data-paper-data="{&quot;index&quot;:null}" stroke="#000000" stroke-linecap="butt"><path d="M334.51757,343.47465v-90.27109h61.17899v90.27109z" fill="#273750" stroke-width="2"/><path d="M333.7302,342.71805l42.75189,-40.95544l18.42709,-49.31565v90.27109z" fill="#1f1e2e" stroke-width="0"/></g><g data-paper-data="{&quot;index&quot;:null}" stroke="#000000" stroke-linecap="butt"><path d="M398.75267,260.99249l-12.88915,-46.29981l49.12923,-13.67682l12.88915,46.29981z" fill="#ffcaa0" stroke-width="2"/><g><path d="M385.43247,214.99981l-17.77273,-63.84236l49.76958,-13.85508l17.77273,63.84236z" fill="#ff0008" stroke-width="2"/><path d="M410.10669,208.35145c-8.01627,2.23161 -23.92156,6.6594 -23.92156,6.6594l-9.30883,-33.43875c0,0 21.24042,9.05338 29.07441,6.87252c8.2624,-2.30012 19.28316,-20.33452 19.28316,-20.33452l9.30883,33.43874c0,0 -16.334,4.54714 -24.43601,6.80261z" fill="#8d005e" stroke-width="0"/></g><path d="M397.84497,260.68016l32.37224,-25.08694l3.86784,-34.88969l12.88915,46.29981z" fill="#ff6e5b" stroke-width="0"/></g><g data-paper-data="{&quot;index&quot;:null}" fill="#000000" stroke="#000000" stroke-linecap="butt"><path d="M307.00326,251.87869v-111.68333h61.17899v111.68333z" stroke-width="2"/><path d="M306.21589,250.94266l42.75189,-50.67005l18.42709,-61.01328v111.68333z" stroke-width="0"/></g><g data-paper-data="{&quot;index&quot;:null}" stroke="#000000" stroke-linecap="butt"><path d="M415.46019,88.46794c0,11.10283 -1.42394,36.61614 -7.37538,45.77754c-13.43056,20.67445 -41.94302,19.6932 -72.51838,19.6932c-28.91781,0 -61.48502,3.15028 -75.50889,-15.70582c-7.37439,-9.91539 -4.38487,-37.30378 -4.38487,-49.76492c0,-3.48625 -1.05936,-26.29915 -0.4189,-29.63798c6.00221,-31.29064 40.44282,-35.83276 80.31266,-35.83276c42.44441,0 76.32321,2.48597 78.90464,36.73529c0.10216,1.35538 0.98912,27.359 0.98912,28.73546z" fill="#ffcaa0" stroke-width="2"/><path d="M417.29354,88.47812c0,11.10283 -1.42394,36.61614 -7.37538,45.77754c-13.43056,20.67445 -41.94302,19.6932 -72.51838,19.6932c-28.9178,0 -62.13774,3.04149 -76.16161,-15.81461c-2.96486,-3.98647 62.96704,21.27155 100.416,4.08965c47.78674,-21.92495 53.18361,-101.94005 54.65026,-82.48122c0.10216,1.35538 0.98912,27.359 0.98912,28.73546z" fill="#ff6e5b" stroke-width="0"/></g><g data-paper-data="{&quot;index&quot;:null}" stroke="#000000" stroke-linecap="butt"><path d="M396.65164,29.65049c14.65975,0 26.54382,26.10753 26.54382,58.3128c0,32.20527 -11.88407,58.3128 -26.54382,58.3128c-14.65975,0 -26.54382,-26.10753 -26.54382,-58.3128c0,-32.20527 11.88407,-58.3128 26.54382,-58.3128z" fill="#01930e" stroke-width="2"/><path d="M422.7936,87.52913c0,32.20527 -11.88408,58.3128 -26.54382,58.3128c-14.65974,0 17.76555,-35.72183 17.76555,-67.9271c0,-32.20527 8.77827,-22.59097 8.77827,9.6143z" fill="#31525b" stroke-width="0"/></g><g data-paper-data="{&quot;index&quot;:null}" stroke-linecap="butt"><path d="M239.26977,45.31477c0,-14.42269 41.36032,-26.11459 92.38086,-26.11459c51.02054,0 92.38085,11.69189 92.38085,26.11458c0,14.42268 -41.36031,26.11459 -92.38085,26.11459c-51.02054,0 -92.38086,-11.6919 -92.38086,-26.11459z" fill="#000000" stroke="none" stroke-width="NaN"/><path d="M330.94821,52.82239c51.02054,0 93.81338,-21.64916 93.81338,-7.22647c0,14.42268 -41.36031,26.11459 -92.38085,26.11459c-51.02054,0 -92.38086,-11.6919 -92.38086,-26.11459c0,-14.42269 39.92779,7.22647 90.94833,7.22647z" fill="#ff0000" stroke="#000000" stroke-width="2"/><path d="M331.32018,65.91642c51.02054,0 86.27707,-17.23298 88.68104,-13.78351c2.32757,3.33985 -13.32402,10.34871 -38.81909,14.82706c-13.7328,2.41224 -30.57531,3.74491 -48.42942,4.15429c-51.02054,1.16987 -87.36702,-14.03872 -87.36702,-18.00772c0,-3.969 34.91395,12.80988 85.93449,12.80988z" fill="#900056" stroke="#000000" stroke-width="0"/></g><path d="M309.17654,100.92124c0,-15.71752 2.90507,-28.45909 6.48867,-28.45909c3.58359,0 6.48867,12.74156 6.48867,28.45908c0,15.71751 -2.90507,28.45908 -6.48867,28.45908c-3.5836,0 -6.48867,-12.74157 -6.48867,-28.45909z" data-paper-data="{&quot;index&quot;:null}" fill="#000000" stroke="none" stroke-width="0" stroke-linecap="butt"/><path d="M289.03818,69.32616c3.39498,0 6.14716,12.6906 6.14716,28.34525c0,15.65465 -2.75217,28.34525 -6.14716,28.34525c-3.39498,0 -6.14716,-12.6906 -6.14716,-28.34525c0,-15.65465 2.75217,-28.34525 6.14716,-28.34525z" data-paper-data="{&quot;index&quot;:null}" fill="#000000" stroke="none" stroke-width="0" stroke-linecap="butt"/><path d="M336.03758,74.17954h-30" data-paper-data="{&quot;index&quot;:null}" fill="none" stroke="#000000" stroke-width="5" stroke-linecap="round"/><path d="M296.45406,72.6323l-23.33333,-4.52381" data-paper-data="{&quot;index&quot;:null}" fill="none" stroke="#000000" stroke-width="5" stroke-linecap="round"/><path d="M341.16979,135.0705c-7.39772,0 -13.8234,3.00425 -13.8234,-4.39348c0,-7.39773 5.99704,-13.39477 13.39477,-13.39477c7.39773,0 13.39477,5.99704 13.39477,13.39477c0,7.39772 -5.56841,4.39348 -12.96614,4.39348z" data-paper-data="{&quot;index&quot;:null}" fill="#000000" stroke="none" stroke-width="0" stroke-linecap="butt"/></g></g></svg>