<svg version="1.1" xmlns="http://www.w3.org/2000/svg" xmlns:xlink="http://www.w3.org/1999/xlink" width="221.9377" height="329.26435" viewBox="0,0,221.9377,329.26435"><g transform="translate(-195.22124,-15.16906)"><g data-paper-data="{&quot;isPaintingLayer&quot;:true}" fill-rule="nonzero" stroke-linejoin="miter" stroke-miterlimit="10" stroke-dasharray="" stroke-dashoffset="0" style="mix-blend-mode: normal"><g data-paper-data="{&quot;index&quot;:null}" stroke="#000000" stroke-linecap="butt"><path d="M196.28707,136.34598l47.94863,-3.27586l3.47606,50.87882l-47.94863,3.27586z" fill="#ffcaa0" stroke-width="2"/><g><path d="M244.02193,132.58593l66.11591,-4.51706l3.52136,51.54197l-66.11591,4.51706z" fill="#ff0008" stroke-width="2"/><path d="M247.28061,183.40055c0,0 -1.15569,-16.91568 -1.72893,-25.30622c-0.56718,-8.30175 -1.69253,-24.77346 -1.69253,-24.77346l34.62956,-2.3659c0,0 -13.15534,18.97515 -12.60106,27.08812c0.58459,8.55663 16.02252,22.99155 16.02252,22.99155l-34.62955,2.3659z" fill="#8d005e" stroke-width="0"/></g><path d="M196.77625,135.52003l18.03441,36.77059l33.39027,10.83236l-47.94863,3.27586z" fill="#ff6e5b" stroke-width="0"/></g><g data-paper-data="{&quot;index&quot;:null}" stroke="#000000" stroke-linecap="butt"><path d="M248.4893,32.39322c14.63099,-0.91775 28.12617,24.39458 30.14234,56.53668c2.01617,32.1421 -8.21017,58.94241 -22.84116,59.86016c-14.63099,0.91775 -28.12617,-24.39458 -30.14234,-56.53668c-2.01617,-32.1421 8.21017,-58.94241 22.84116,-59.86016z" fill="#01930e" stroke-width="2"/><path d="M278.20339,88.52174c2.01617,32.1421 -8.21018,58.94241 -22.84116,59.86016c-14.63099,0.91775 15.49439,-36.76395 13.47822,-68.90605c-2.01617,-32.1421 7.34677,-23.09621 9.36294,9.04589z" fill="#31525b" stroke-width="0"/></g><g data-paper-data="{&quot;index&quot;:null}" stroke="#000000" stroke-linecap="butt"><path d="M281.80909,342.98904v-90.27109h61.17899v90.27109z" fill="#273750" stroke-width="2"/><path d="M281.02176,342.23247l42.75189,-40.95544l18.42709,-49.31565v90.27109z" fill="#1f1e2e" stroke-width="0"/></g><path d="M281.17133,252.30667v-113.80147h113.80147v113.80147z" data-paper-data="{&quot;index&quot;:null}" fill="#ff0008" stroke="#000000" stroke-width="2" stroke-linecap="butt"/><g data-paper-data="{&quot;index&quot;:null}" stroke="#000000" stroke-linecap="butt"><path d="M334.41504,343.43341v-90.27109h61.17899v90.27109z" fill="#273750" stroke-width="2"/><path d="M333.62767,342.67681l42.75189,-40.95544l18.42709,-49.31565v90.27109z" fill="#1f1e2e" stroke-width="0"/></g><g data-paper-data="{&quot;index&quot;:null}" fill="#000000" stroke="#000000" stroke-linecap="butt"><path d="M306.90073,251.83745v-111.68333h61.17899v111.68333z" stroke-width="2"/><path d="M306.11336,250.90142l42.75189,-50.67005l18.42709,-61.01328v111.68333z" stroke-width="0"/></g><g data-paper-data="{&quot;index&quot;:null}" stroke="#000000" stroke-linecap="butt"><path d="M402.63015,79.57955c0.69508,11.08105 0.87116,36.63346 -4.49507,46.14947c-12.10992,21.4747 -40.62788,22.28035 -71.14327,24.19448c-28.86109,1.81035 -61.1672,6.99328 -76.34402,-10.94789c-7.98066,-9.43428 -6.71162,-36.9561 -7.49173,-49.3928c-0.21825,-3.47941 -2.7037,-26.18124 -2.27352,-29.55362c4.03154,-31.60502 38.12024,-38.29433 77.91187,-40.79033c42.36116,-2.65717 76.32913,-2.29701 81.04963,31.72352c0.18681,1.34632 2.69995,27.24341 2.78612,28.61717z" fill="#ffcaa0" stroke-width="2"/><path d="M404.46056,79.47492c0.69508,11.08105 0.87116,36.63346 -4.49507,46.14947c-12.10992,21.4747 -40.62788,22.28035 -71.14327,24.19448c-28.86108,1.81036 -61.82545,6.92557 -77.00227,-11.0156c-3.20861,-3.79304 64.17521,17.28787 100.47506,-2.20477c46.32042,-24.87356 46.69747,-105.06957 49.37944,-85.74073c0.18681,1.34632 2.69995,27.24341 2.78612,28.61717z" fill="#ff6e5b" stroke-width="0"/></g><g data-paper-data="{&quot;index&quot;:null}" stroke="#000000" stroke-linecap="butt"><path d="M380.17632,22.05494c14.63099,-0.91775 28.12617,24.39458 30.14234,56.53668c2.01617,32.1421 -8.21017,58.94241 -22.84116,59.86016c-14.63099,0.91775 -28.12617,-24.39458 -30.14234,-56.53668c-2.01617,-32.1421 8.21017,-58.94241 22.84116,-59.86016z" fill="#01930e" stroke-width="2"/><path d="M409.89042,78.18347c2.01617,32.1421 -8.21018,58.94241 -22.84116,59.86016c-14.63099,0.91775 15.49439,-36.76395 13.47822,-68.90605c-2.01617,-32.1421 7.34677,-23.09621 9.36294,9.04589z" fill="#31525b" stroke-width="0"/></g><g data-paper-data="{&quot;index&quot;:null}" stroke-linecap="butt"><path d="M224.45087,53.39307c-1.10563,-17.62632 39.27726,-34.50457 90.19772,-37.69864c50.92046,-3.19407 93.09594,8.50556 94.20158,26.13188c1.10563,17.62631 -39.27725,34.50457 -90.19771,37.69864c-50.92046,3.19407 -93.09595,-8.50557 -94.20159,-26.13189z" fill="#000000" stroke="none" stroke-width="NaN"/><path d="M225.20111,53.69096c-1.10564,-17.62632 40.40345,6.33202 91.32391,3.13795c50.92046,-3.19407 91.96974,-32.33102 93.07538,-14.7047c1.10563,17.62631 -39.27725,34.50457 -90.19771,37.69864c-50.92046,3.19407 -93.09595,-8.50557 -94.20159,-26.13189z" fill="#ff0000" stroke="#000000" stroke-width="2"/><path d="M317.90004,72.80814c50.92046,-3.19406 84.78676,-26.46208 87.45045,-22.3969c2.57903,3.936 -12.50456,13.48154 -37.60631,20.55072c-13.52094,3.80778 -30.22825,6.49086 -48.01596,8.10891c-50.83078,4.62379 -88.27185,-11.68757 -88.57611,-16.53818c-0.30426,-4.85061 35.82747,13.46952 86.74793,10.27545z" fill="#900056" stroke="#000000" stroke-width="0"/></g><path d="M280.37627,118.75804c-0.98397,-15.68669 1.11773,-28.58513 4.6943,-28.80948c3.57656,-0.22435 7.27361,12.31035 8.25758,27.99704c0.98397,15.68668 -1.11773,28.58512 -4.6943,28.80947c-3.57657,0.22435 -7.27361,-12.31036 -8.25758,-27.99705z" data-paper-data="{&quot;index&quot;:null}" fill="#000000" stroke="none" stroke-width="0" stroke-linecap="butt"/><path d="M259.74568,81.51157c3.38832,-0.21253 6.92958,12.28088 7.90962,27.90482c0.98004,15.62394 -0.97226,28.46194 -4.36059,28.67448c-3.38832,0.21253 -6.92958,-12.28088 -7.90962,-27.90482c-0.98004,-15.62394 0.97226,-28.46194 4.36059,-28.67448z" data-paper-data="{&quot;index&quot;:null}" fill="#000000" stroke="none" stroke-width="0" stroke-linecap="butt"/><path d="M274.91703,92.59146l29.94115,-1.87811" data-paper-data="{&quot;index&quot;:null}" fill="none" stroke="#000000" stroke-width="5" stroke-linecap="round"/><path d="M269.31093,83.04234l-23.57077,-3.05419" data-paper-data="{&quot;index&quot;:null}" fill="none" stroke="#000000" stroke-width="5" stroke-linecap="round"/><g data-paper-data="{&quot;index&quot;:null}" stroke="#000000" stroke-linecap="butt"><path d="M299.09847,150.41675l47.97458,-2.87078l3.04621,50.90636l-47.97458,2.87078z" fill="#ffcaa0" stroke-width="2"/><g><path d="M346.86337,147.06001l66.1517,-3.95849l3.08592,51.56987l-66.1517,3.95849z" fill="#ff0008" stroke-width="2"/><path d="M349.69276,197.90032c0,0 -1.01277,-16.92484 -1.51513,-25.31992c-0.49704,-8.30624 -1.48323,-24.78687 -1.48323,-24.78687l34.64831,-2.07334c0,0 -13.31514,18.86337 -12.8294,26.98073c0.5123,8.56127 15.82776,23.12606 15.82776,23.12606l-34.6483,2.07334z" fill="#8d005e" stroke-width="0"/></g><path d="M299.59459,149.59496l17.7232,36.92159l33.29759,11.11399l-47.97458,2.87078z" fill="#ff6e5b" stroke-width="0"/></g><path d="M317.05734,142.39027c-3.79732,1.93318 -9.05227,-0.77513 -11.73725,-6.0492c-2.68498,-5.27406 -1.78325,-11.1167 2.01408,-13.04988c3.79732,-1.93318 9.05227,0.77513 11.73725,6.0492c2.68498,5.27406 1.78325,11.1167 -2.01408,13.04988z" data-paper-data="{&quot;index&quot;:null}" fill="#000000" stroke="none" stroke-width="0" stroke-linecap="butt"/></g></g></svg>