<svg version="1.1" xmlns="http://www.w3.org/2000/svg" xmlns:xlink="http://www.w3.org/1999/xlink" width="260.61231" height="318.16605" viewBox="0,0,260.61231,318.16605"><g transform="translate(-108.22809,-34.49681)"><g data-paper-data="{&quot;isPaintingLayer&quot;:true}" fill-rule="nonzero" stroke-linejoin="miter" stroke-miterlimit="10" stroke-dasharray="" stroke-dashoffset="0" style="mix-blend-mode: normal"><g stroke="#2a2b40" stroke-linecap="butt"><path d="M273.7454,277.40781l-7.28991,-116.62177l46.93666,-2.93397l7.28991,116.62177z" fill="#000000" stroke-width="2"/><path d="M272.76787,268.27146l-1.6296,-26.06984l47.38369,-2.96191l1.6296,26.06984z" fill="#ffffff" stroke-width="2.5"/></g><path d="M235.17098,351.66286v-94.89051h40.95702v94.89051z" fill="#000000" stroke="#2a2b40" stroke-width="2" stroke-linecap="butt"/><path d="M193.90772,349.39579v-94.89051h40.95702v94.89051z" fill="#000000" stroke="#2a2b40" stroke-width="2" stroke-linecap="butt"/><g stroke-linecap="butt"><path d="M194.17763,258.94034v-107.85169h82.34382v107.85169z" fill="#000000" stroke="#2a2b40" stroke-width="2"/><path d="M254.63142,180.01357c0,22.14029 -8.58873,40.08854 -19.18347,40.08854c-10.59474,0 -19.18347,-17.94825 -19.18347,-40.08854c0,-22.14029 7.35902,-29.51303 17.95376,-29.51303c10.59474,0 20.41318,7.37275 20.41318,29.51303z" fill="#ffffff" stroke="#2a2b40" stroke-width="2.5"/><path d="M240.7204,176.65068c0,13.71883 -2.80786,24.84014 -6.27152,24.84014c-3.46366,0 -6.27152,-11.12131 -6.27152,-24.84014c0,-13.71883 2.80786,-24.84014 6.27152,-24.84014c3.46366,0 6.27152,11.12131 6.27152,24.84014z" fill="#000000" stroke="none" stroke-width="0"/></g><g><g><path d="M215.54562,232.50471c-3.23667,-14.73592 2.28339,-24.97012 16.70725,-28.85109c11.28103,-3.03539 26.69597,6.47269 29.93264,21.20862c3.23671,14.73598 -3.93405,27.53222 -18.52311,30.73668c-2.28145,0.50112 -4.53571,0.28649 -6.59644,0.10969c-11.1167,-0.95383 -18.78983,-10.77238 -21.52035,-23.20388z" fill="#485e84" stroke="#000000" stroke-width="2" stroke-linecap="butt"/><path d="M254.47622,213.45381c0,0 -5.70005,0.80023 -6.52807,2.62444c-7.94251,17.49829 -5.9534,31.40016 -4.94462,35.94791c0.22918,1.03324 1.29422,1.38898 1.29422,1.38898c0,0 -2.00553,0.66778 -4.7467,0.66237c-2.91684,-0.00575 -6.65633,-0.7269 -9.34506,-2.21549c-3.07125,-1.70041 -9.07853,-7.48152 -9.07853,-7.48152l-7.6304,-19.50989c0,0 6.24531,-11.91433 7.85154,-13.36928c1.57357,-1.42539 3.8444,-2.66073 6.20597,-4.07138c3.66668,-2.1902 8.12974,-3.01958 10.99504,-2.72815c3.65675,0.37198 7.89754,2.31304 11.0405,4.47734c2.92511,2.0143 4.88596,4.2747 4.88596,4.2747z" fill="#343545" stroke="none" stroke-width="0" stroke-linecap="butt"/><path d="M231.22591,220.97657c0,0 8.21988,-3.71909 13.24023,-2.54593c6.35523,1.48509 17.65692,7.83914 17.65692,7.83914" fill="none" stroke="#000000" stroke-width="1" stroke-linecap="round"/><path d="M250.04886,252.52357c0,0 -7.15046,0.02717 -11.328,-0.98274c-4.21744,-1.01951 -12.23985,-6.47786 -12.23985,-6.47786" fill="none" stroke="#000000" stroke-width="1" stroke-linecap="round"/><path d="M225.95347,211.35588c0,0 8.38057,-3.94365 13.7605,-2.42533c8.25531,2.32985 18.59388,7.58433 18.59388,7.58433" fill="none" stroke="#000000" stroke-width="1" stroke-linecap="round"/><path d="M239.41817,204.12407c0,0 13.24887,11.13295 11.81859,28.49664c-1.5667,19.01973 -18.48009,22.40016 -18.48009,22.40016" fill="none" stroke="#000000" stroke-width="1" stroke-linecap="round"/><path d="M229.92657,204.90797c0,0 11.5586,13.5374 10.32944,28.86216c-1.00927,12.58304 -14.98947,16.76311 -14.98947,16.76311" fill="none" stroke="#000000" stroke-width="1" stroke-linecap="round"/><path d="M256.88721,239.31944c0.39456,-1.13646 1.44376,-1.80444 2.34339,-1.49209c0.89969,0.31231 0.66047,1.07176 0.26589,2.2082c-0.39456,1.13646 -0.79508,2.21949 -1.69473,1.90714c-0.89969,-0.31231 -1.30916,-1.48684 -0.91456,-2.62324z" fill="#8fbbbe" stroke="none" stroke-width="0" stroke-linecap="butt"/><path d="M253.58958,245.79898c-0.12901,-0.58749 0.48071,-1.22064 1.36193,-1.41419c0.88122,-0.19355 1.26774,-0.15092 1.39678,0.43654c0.12901,0.58749 -0.44177,1.39793 -1.32299,1.59145c-0.88122,0.19355 -1.30669,-0.02638 -1.43571,-0.61384z" fill="#8fbbbe" stroke="none" stroke-width="0" stroke-linecap="butt"/><path d="M259.09537,232.76293c-0.09854,-0.89685 0.3062,-1.6771 0.90407,-1.74281c0.59782,-0.06575 0.6306,0.72486 0.72918,1.62167c0.09854,0.89685 0.2257,1.56026 -0.3722,1.62601c-0.59782,0.06575 -1.16248,-0.60805 -1.26103,-1.50488z" fill="#8fbbbe" stroke="none" stroke-width="0" stroke-linecap="butt"/><path d="M251.3537,210.23702c0,0 5.3194,8.73977 6.58698,16.21058c0.71864,4.23558 -0.11015,8.21671 -0.77233,11.22798c-0.58555,2.663 -4.40047,8.01765 -7.74695,11.8123c-2.46382,2.79379 -4.79059,4.59745 -4.79059,4.59745" fill="none" stroke="#000000" stroke-width="0.5" stroke-linecap="round"/><path d="M260.97924,243.06084c0,0 -10.40593,1.86943 -15.70715,0.8139c-4.4664,-0.8893 -13.94897,-6.37974 -13.94897,-6.37974" fill="none" stroke="#000000" stroke-width="1" stroke-linecap="round"/><path d="M231.71158,231.64866c0,0 9.532,-1.60283 14.03672,-1.20486c7.9094,0.69875 16.78249,6.14349 16.78249,6.14349" fill="none" stroke="#000000" stroke-width="1" stroke-linecap="round"/></g><g stroke="#2a2b40" stroke-linecap="butt"><path d="M186.93833,267.04771l-6.73017,-130.71302l46.96606,-2.41819l6.73017,130.71302z" fill="#000000" stroke-width="2"/><path d="M185.71637,256.81474l-1.50448,-29.21982l47.41337,-2.44122l1.50448,29.21982z" fill="#ffffff" stroke-width="2.5"/></g></g><g stroke-linecap="butt"><g stroke="#0c0c0c"><g><path d="M213.99184,115.39948c-1.66302,11.04494 -29.2665,16.0454 -61.65412,11.16884c-32.38761,-4.87656 -41.69071,-28.7471 -40.02768,-39.79204c1.66302,-11.04494 22.64549,4.76031 55.0331,9.63687c32.38761,4.87656 48.31172,7.94139 46.6487,18.98633z" fill="#fac843" stroke-width="2"/><path d="M212.96911,114.66803c-1.66302,11.04494 -29.2665,16.0454 -61.65412,11.16884c-32.38761,-4.87656 -39.64144,-26.24044 -37.97842,-37.28538c1.66302,-11.04494 5.76011,28.21687 38.14771,33.09343c32.38761,4.87656 63.14784,-18.02182 61.48482,-6.97688z" fill="#e47816" stroke-width="0"/></g><g><path d="M211.09406,78.10781c-1.66302,11.04494 -29.2665,16.0454 -61.65412,11.16884c-32.38761,-4.87656 -41.69071,-28.7471 -40.02768,-39.79204c1.66302,-11.04494 22.64549,4.76031 55.0331,9.63687c32.38761,4.87656 48.31172,7.94139 46.6487,18.98633z" fill="#fac843" stroke-width="2"/><path d="M210.07134,77.37635c-1.66302,11.04494 -29.2665,16.0454 -61.65412,11.16884c-32.38761,-4.87656 -39.64145,-26.24045 -37.97843,-37.28539c1.66302,-11.04494 5.76011,28.21687 38.14772,33.09343c32.38761,4.87656 63.14784,-18.02182 61.48482,-6.97688z" fill="#e47816" stroke-width="0"/></g><g><path d="M212.54097,151.90051c-1.66302,11.04494 -29.2665,16.0454 -61.65412,11.16884c-32.38761,-4.87656 -41.69071,-28.7471 -40.02768,-39.79204c1.66302,-11.04494 22.64549,4.76031 55.0331,9.63687c32.38761,4.87656 48.31172,7.94139 46.6487,18.98633z" fill="#fac843" stroke-width="2"/><path d="M211.51824,151.16906c-1.66302,11.04494 -29.2665,16.0454 -61.65412,11.16884c-32.38761,-4.87656 -39.64144,-26.24045 -37.97842,-37.28539c1.66302,-11.04494 5.76011,28.21687 38.14771,33.09343c32.38761,4.87656 63.14784,-18.02182 61.48482,-6.97688z" fill="#e47816" stroke-width="0"/></g></g><g stroke="#0c0c0c"><g data-paper-data="{&quot;index&quot;:null}"><path d="M309.90951,86.26499c32.38761,-4.87656 53.37008,-20.68181 55.0331,-9.63687c1.66302,11.04494 -7.64007,34.91547 -40.02768,39.79204c-32.38761,4.87656 -59.99109,-0.1239 -61.65412,-11.16884c-1.66302,-11.04494 14.26109,-14.10977 46.6487,-18.98633z" fill="#fac843" stroke-width="2"/><path d="M325.76835,111.49675c32.38761,-4.87656 36.4847,-44.13836 38.14772,-33.09342c1.66302,11.04494 -5.5908,32.40883 -37.97843,37.28538c-32.38761,4.87656 -59.99109,-0.1239 -61.65412,-11.16884c-1.66302,-11.04494 29.09721,11.85345 61.48482,6.97688z" fill="#e47816" stroke-width="0"/></g><g data-paper-data="{&quot;index&quot;:null}"><path d="M312.8073,48.97328c32.38761,-4.87656 53.37008,-20.68181 55.0331,-9.63687c1.66302,11.04494 -7.64007,34.91547 -40.02768,39.79204c-32.38761,4.87656 -59.99109,-0.1239 -61.65412,-11.16884c-1.66302,-11.04494 14.26109,-14.10977 46.6487,-18.98633z" fill="#fac843" stroke-width="2"/><path d="M328.66614,74.20506c32.38761,-4.87656 36.48469,-44.13837 38.14771,-33.09343c1.66302,11.04494 -5.5908,32.40883 -37.97842,37.28539c-32.38761,4.87656 -59.99109,-0.1239 -61.65412,-11.16884c-1.66302,-11.04494 29.09721,11.85345 61.48482,6.97688z" fill="#e47816" stroke-width="0"/></g><g data-paper-data="{&quot;index&quot;:null}"><path d="M311.36037,122.766c32.38761,-4.87656 53.37008,-20.68181 55.0331,-9.63687c1.66302,11.04494 -7.64007,34.91547 -40.02768,39.79204c-32.38761,4.87656 -59.99109,-0.1239 -61.65412,-11.16884c-1.66302,-11.04494 14.26109,-14.10977 46.6487,-18.98633z" fill="#fac843" stroke-width="2"/><path d="M327.21922,147.99772c32.38761,-4.87656 36.48469,-44.13837 38.14771,-33.09343c1.66302,11.04494 -5.5908,32.40883 -37.97842,37.28539c-32.38761,4.87656 -59.99109,-0.1239 -61.65412,-11.16884c-1.66302,-11.04494 29.09721,11.85345 61.48482,6.97688z" fill="#e47816" stroke-width="0"/></g></g><path d="M178.96578,117.17489c0,-31.80358 32.53018,-57.58549 72.6582,-57.58549c40.12802,0 72.6582,25.7819 72.6582,57.58549c0,31.80358 -32.53018,57.58549 -72.6582,57.58549c-40.12802,0 -72.6582,-25.7819 -72.6582,-57.58549z" fill="#fdf7c7" stroke="#000000" stroke-width="2"/><path d="M179.51492,114.24887c0,-3.52561 2.35177,-8.7085 2.62288,-9.88302c3.3547,-14.53329 30.25799,59.95585 65.9376,59.95585c40.12802,0 49.30313,4.60319 4.46071,9.66756c-39.90255,4.24795 -73.02118,-27.93679 -73.02118,-59.74039z" fill="#f2bd9d" stroke="#000000" stroke-width="0"/></g><path d="M230.12515,120.93939c0,-7.78178 6.30839,-14.09017 14.09017,-14.09017c7.78178,0 14.09017,6.30839 14.09017,14.09017c0,7.78178 -6.30839,14.09017 -14.09017,14.09017c-7.78178,0 -14.09017,-6.30839 -14.09017,-14.09017z" fill="#1a1507" stroke="#0c0c0c" stroke-width="2" stroke-linecap="butt"/><path d="M246.74236,119.75078c0,-2.74328 2.22387,-4.96715 4.96715,-4.96715c2.74328,0 4.96715,2.22387 4.96715,4.96715c0,2.74328 -2.22387,4.96715 -4.96715,4.96715c-2.74328,0 -4.96715,-2.22387 -4.96715,-4.96715z" fill="#fdf7c7" stroke="#000000" stroke-width="0" stroke-linecap="butt"/><path d="M286.60094,119.51967c0,-7.78178 6.30838,-14.09017 14.09017,-14.09017c7.78178,0 14.09017,6.30839 14.09017,14.09017c0,7.78179 -6.30839,14.09017 -14.09017,14.09017c-7.78178,0 -14.09017,-6.30839 -14.09017,-14.09017z" fill="#1a1507" stroke="#0c0c0c" stroke-width="2" stroke-linecap="butt"/><path d="M303.85669,118.33106c0,-2.74328 2.22387,-4.96716 4.96715,-4.96716c2.74328,0 4.96715,2.22387 4.96715,4.96716c0,2.74329 -2.22387,4.96715 -4.96715,4.96715c-2.74328,0 -4.96715,-2.22386 -4.96715,-4.96715z" fill="#fdf7c7" stroke="#000000" stroke-width="0" stroke-linecap="butt"/><path d="M299.58338,141.47371c0,0 0.80439,4.42242 -1.28221,7.41951c-1.77824,2.55416 -6.43645,3.76125 -7.03182,3.69099c-16.00822,-1.88909 -60.99789,-4.2288 -72.35253,-8.38683c-6.8162,-2.49606 -5.51716,-17.57967 -5.51716,-17.57967" fill="none" stroke="#1a1507" stroke-width="2" stroke-linecap="round"/></g></g></svg>