<svg version="1.1" xmlns="http://www.w3.org/2000/svg" xmlns:xlink="http://www.w3.org/1999/xlink" width="188.7297" height="330.16006" viewBox="0,0,188.7297,330.16006"><g transform="translate(-236.01255,-15.41997)"><g data-paper-data="{&quot;isPaintingLayer&quot;:true}" fill-rule="nonzero" stroke-linejoin="miter" stroke-miterlimit="10" stroke-dasharray="" stroke-dashoffset="0" style="mix-blend-mode: normal"><g data-paper-data="{&quot;index&quot;:null}" stroke="#000000" stroke-linecap="butt"><path d="M256.84717,246.79068v-48.0604h50.99742v48.0604z" fill="#ffcaa0" stroke-width="2"/><g><path d="M256.34954,198.91056v-66.27003h51.66212v66.27003z" fill="#ff0008" stroke-width="2"/><path d="M307.26808,199.12305c0,0 -16.95511,0 -25.36521,0c-8.3211,0 -24.83121,0 -24.83121,0v-34.71029c0,0 18.03434,14.41812 26.16622,14.41812c8.57658,0 24.0302,-14.41812 24.0302,-14.41812v34.71028z" fill="#8d005e" stroke-width="0"/></g><path d="M256.05648,246.24635l37.91432,-15.48613l13.0831,-32.57427v48.0604z" fill="#ff6e5b" stroke-width="0"/></g><g data-paper-data="{&quot;index&quot;:null}" stroke="#000000" stroke-linecap="butt"><path d="M263.55637,27.9442c14.65975,0 26.54382,26.10753 26.54382,58.3128c0,32.20527 -11.88407,58.3128 -26.54382,58.3128c-14.65975,0 -26.54382,-26.10753 -26.54382,-58.3128c0,-32.20527 11.88407,-58.3128 26.54382,-58.3128z" fill="#01930e" stroke-width="2"/><path d="M289.69833,85.82283c0,32.20527 -11.88408,58.3128 -26.54382,58.3128c-14.65974,0 17.76555,-35.72183 17.76555,-67.9271c0,-32.20527 8.77827,-22.59097 8.77827,9.6143z" fill="#31525b" stroke-width="0"/></g><g data-paper-data="{&quot;index&quot;:null}" stroke="#000000" stroke-linecap="butt"><path d="M283.1305,344.13566v-90.27109h61.17899v90.27109z" fill="#273750" stroke-width="2"/><path d="M282.34317,343.37909l42.75189,-40.95544l18.42709,-49.31565v90.27109z" fill="#1f1e2e" stroke-width="0"/></g><path d="M282.49274,253.45329v-113.80147h113.80147v113.80147z" data-paper-data="{&quot;index&quot;:null}" fill="#ff0008" stroke="#000000" stroke-width="2" stroke-linecap="butt"/><g data-paper-data="{&quot;index&quot;:null}" stroke="#000000" stroke-linecap="butt"><path d="M335.73645,344.58003v-90.27109h61.17899v90.27109z" fill="#273750" stroke-width="2"/><path d="M334.94908,343.82343l42.75189,-40.95544l18.42709,-49.31565v90.27109z" fill="#1f1e2e" stroke-width="0"/></g><g data-paper-data="{&quot;index&quot;:null}" stroke="#000000" stroke-linecap="butt"><path d="M372.5234,254.83297v-48.0604h50.99742v48.0604z" fill="#ffcaa0" stroke-width="2"/><g><path d="M372.02578,206.95285v-66.27003h51.66212v66.27003z" fill="#ff0008" stroke-width="2"/><path d="M422.94432,207.16534c0,0 -16.95511,0 -25.36521,0c-8.3211,0 -24.83121,0 -24.83121,0v-34.71029c0,0 18.03434,14.41812 26.16622,14.41812c8.57658,0 24.0302,-14.41812 24.0302,-14.41812v34.71028z" fill="#8d005e" stroke-width="0"/></g><path d="M371.73272,254.28865l37.91432,-15.48613l13.0831,-32.57427v48.0604z" fill="#ff6e5b" stroke-width="0"/></g><g data-paper-data="{&quot;index&quot;:null}" fill="#000000" stroke="#000000" stroke-linecap="butt"><path d="M308.22214,252.98407v-111.68333h61.17899v111.68333z" stroke-width="2"/><path d="M307.43477,252.04804l42.75189,-50.67005l18.42709,-61.01328v111.68333z" stroke-width="0"/></g><g data-paper-data="{&quot;index&quot;:null}" stroke="#000000" stroke-linecap="butt"><path d="M414.44085,84.68773c0,11.10283 -1.42394,36.61614 -7.37538,45.77754c-13.43056,20.67445 -41.94302,19.6932 -72.51838,19.6932c-28.91781,0 -61.48502,3.15028 -75.50889,-15.70582c-7.37439,-9.91539 -4.38487,-37.30378 -4.38487,-49.76492c0,-3.48625 -1.05936,-26.29915 -0.4189,-29.63798c6.00221,-31.29064 40.44282,-35.83276 80.31266,-35.83276c42.44441,0 76.32321,2.48597 78.90464,36.73529c0.10216,1.35538 0.98912,27.359 0.98912,28.73546z" fill="#ffcaa0" stroke-width="2"/><path d="M416.2742,84.69791c0,11.10283 -1.42394,36.61614 -7.37538,45.77754c-13.43056,20.67445 -41.94302,19.6932 -72.51838,19.6932c-28.9178,0 -62.13774,3.04149 -76.16161,-15.81461c-2.96486,-3.98647 62.96704,21.27155 100.416,4.08965c47.78674,-21.92495 53.18361,-101.94005 54.65026,-82.48122c0.10216,1.35538 0.98912,27.359 0.98912,28.73546z" fill="#ff6e5b" stroke-width="0"/></g><g data-paper-data="{&quot;index&quot;:null}" stroke="#000000" stroke-linecap="butt"><path d="M395.6323,25.87028c14.65975,0 26.54382,26.10753 26.54382,58.3128c0,32.20527 -11.88407,58.3128 -26.54382,58.3128c-14.65975,0 -26.54382,-26.10753 -26.54382,-58.3128c0,-32.20527 11.88407,-58.3128 26.54382,-58.3128z" fill="#01930e" stroke-width="2"/><path d="M421.77426,83.74892c0,32.20527 -11.88408,58.3128 -26.54382,58.3128c-14.65974,0 17.76555,-35.72183 17.76555,-67.9271c0,-32.20527 8.77827,-22.59097 8.77827,9.6143z" fill="#31525b" stroke-width="0"/></g><g data-paper-data="{&quot;index&quot;:null}" stroke-linecap="butt"><path d="M238.25043,47.39796c0,-17.66096 41.36032,-31.97799 92.38086,-31.97799c51.02054,0 92.38085,14.31702 92.38085,31.97798c0,17.66095 -41.36031,31.97799 -92.38085,31.97799c-51.02054,0 -92.38086,-14.31703 -92.38086,-31.97799z" fill="#000000" stroke="none" stroke-width="NaN"/><path d="M329.92887,56.59124c51.02054,0 93.81338,-26.50996 93.81338,-8.849c0,17.66095 -41.36031,31.97799 -92.38085,31.97799c-51.02054,0 -92.38086,-14.31703 -92.38086,-31.97799c0,-17.66096 39.92779,8.849 90.94833,8.849z" fill="#ff0000" stroke="#000000" stroke-width="2"/><path d="M330.30084,72.62521c51.02054,0 86.27707,-21.10222 88.68104,-16.87826c2.32757,4.08974 -13.32402,12.67227 -38.81909,18.15612c-13.7328,2.95385 -30.57531,4.58573 -48.42942,5.08703c-51.02054,1.43253 -87.36702,-17.19078 -87.36702,-22.05092c0,-4.86014 34.91395,15.68603 85.93449,15.68603z" fill="#900056" stroke="#000000" stroke-width="0"/></g><path d="M308.69311,109.46686c0,-15.71752 2.90507,-28.45909 6.48867,-28.45909c3.58359,0 6.48867,12.74156 6.48867,28.45908c0,15.71751 -2.90507,28.45908 -6.48867,28.45908c-3.5836,0 -6.48867,-12.74157 -6.48867,-28.45909z" data-paper-data="{&quot;index&quot;:null}" fill="#000000" stroke="none" stroke-width="0" stroke-linecap="butt"/><path d="M289.09065,76.79997c3.39498,0 6.14716,12.6906 6.14716,28.34525c0,15.65465 -2.75217,28.34525 -6.14716,28.34525c-3.39498,0 -6.14716,-12.6906 -6.14716,-28.34525c0,-15.65465 2.75217,-28.34525 6.14716,-28.34525z" data-paper-data="{&quot;index&quot;:null}" fill="#000000" stroke="none" stroke-width="0" stroke-linecap="butt"/><path d="M341.20983,132.93168c-0.02221,0.26386 -0.17634,1.17965 -1.24626,1.17965c-1.25,0 -1.25,-1.25 -1.25,-1.25l0.05272,-0.48431c0.54675,-1.8225 1.0512,-3.65452 1.65322,-5.45933c0.63458,-1.52484 1.07255,-3.27119 1.79943,-4.74034c1.88145,-3.80273 6.84898,-3.79083 8.42149,0.22818c1.61663,4.13178 0.10452,10.53001 -1.51528,14.43995c0,0 -0.48077,1.15385 -1.63462,0.67308c-1.15385,-0.48077 -0.67308,-1.63462 -0.67308,-1.63462c1.42668,-3.40211 2.21671,-7.78202 1.79172,-11.49004c-0.47109,-4.11027 -3.62119,-2.45601 -4.59126,0.2562c-0.42578,1.19043 -0.77618,1.99134 -1.25715,3.14423c-0.56545,1.69768 -1.03922,3.42248 -1.55094,5.13735z" data-paper-data="{&quot;index&quot;:null}" fill="#000000" stroke="none" stroke-width="0.5" stroke-linecap="butt"/><path d="M305.55415,82.72516h30" data-paper-data="{&quot;index&quot;:null}" fill="none" stroke="#000000" stroke-width="5" stroke-linecap="round"/><path d="M273.1732,75.5823l23.33333,4.52381" data-paper-data="{&quot;index&quot;:null}" fill="none" stroke="#000000" stroke-width="5" stroke-linecap="round"/></g></g></svg>