<svg version="1.1" xmlns="http://www.w3.org/2000/svg" xmlns:xlink="http://www.w3.org/1999/xlink" width="202.22227" height="202.22228" viewBox="0,0,202.22227,202.22228"><g transform="translate(-136.94442,-75.55554)"><g data-paper-data="{&quot;isPaintingLayer&quot;:true}" fill-rule="nonzero" stroke-linejoin="miter" stroke-miterlimit="10" stroke-dasharray="" stroke-dashoffset="0" style="mix-blend-mode: normal"><g data-paper-data="{&quot;index&quot;:null}" stroke="#000000"><path d="M266.02986,191.1275l-2.47474,17.9908c0,0 -1.51184,0.89974 -2.55628,0.81899c-1.04445,-0.08074 -1.79965,-1.15578 -1.79965,-1.15578l-0.82375,-17.90023" fill="#414b67" stroke-width="2" stroke-linecap="round"/><path d="M256.72765,206.44877l-11.58265,-6.10667l-1.36008,-18.2389l3.28732,-3.95811l4.77771,1.83524l6.77322,10.31978l12.51892,-1.31637l-0.49964,13.46544z" fill="#ef8b89" stroke-width="2" stroke-linecap="round"/><path d="M242.81823,182.25637l4.12059,-3.93249l5.60746,0.70378l7.62415,10.37252l-6.45982,5.38606l-12.08757,-0.94048z" data-paper-data="{&quot;index&quot;:null}" fill="#133c8f" stroke-width="2" stroke-linecap="butt"/><g stroke-linecap="butt"><path d="M254.54254,184.3121c0.1049,-4.34825 3.65465,-7.78961 7.92856,-7.6865c4.27391,0.10313 7.65356,3.71167 7.54866,8.05991c-0.05761,2.3867 -1.15302,4.50015 -2.83638,5.90423c-1.38353,1.15398 -7.75801,1.35052 -8.86405,0.67985c-2.32072,-1.40719 -3.84787,-4.01269 -3.77682,-6.95748z" fill="#414b67" stroke-width="2"/><path d="M265.49566,179.16273c0.34227,-0.31825 1.11732,-0.04116 1.7311,0.61894c0.61377,0.66008 0.83391,1.4532 0.49163,1.77146c-0.34227,0.31825 -1.11732,0.04116 -1.7311,-0.61894c-0.61377,-0.66008 -0.83391,-1.4532 -0.49163,-1.77146z" fill="#7082b2" stroke-width="0"/></g></g><g data-paper-data="{&quot;index&quot;:null}" stroke="#000000"><g data-paper-data="{&quot;index&quot;:null}"><path d="M260.83322,226.99838l-17.37249,2.86824l-6.57163,-2.5048l-1.24122,-32.64879l7.93324,-2.39542l7.96734,2.77107z" data-paper-data="{&quot;index&quot;:null}" fill="#73fffc" stroke-width="2" stroke-linecap="butt"/><path d="M242.60723,228.39421l-3.20189,-24.67446l4.11613,25.18664z" fill="#59a9e6" stroke-width="0" stroke-linecap="round"/></g><g><path d="M237.46356,231.24764l-17.55985,3.14931l-6.37195,-3.98441l8.83175,-32.83197l8.17407,-1.73506l7.81227,3.16609z" data-paper-data="{&quot;index&quot;:null}" fill="#73fffc" stroke-width="2" stroke-linecap="butt"/><path d="M219.1282,232.75993l4.36093,-25.73631l-3.48109,26.41722z" fill="#59a9e6" stroke-width="0" stroke-linecap="round"/></g><path d="M245.13563,177.25899l7.13301,20.06305l-25.01422,2.93992l-4.65209,-2.94264l3.5463,-19.54413z" fill="#1a54c9" stroke-width="2" stroke-linecap="round"/></g><path d="M209.79435,154.57512c0.22395,-11.81145 4.51669,-22.04888 26.02982,-21.50384c31.17332,0.78976 23.65786,28.60471 23.65786,28.60471c0,0 3.4091,1.41044 2.2085,5.12959c-1.47058,4.55551 -13.43039,9.89307 -26.68874,9.64169c-14.14562,-0.26821 -25.43138,-10.06073 -25.20742,-21.87217z" data-paper-data="{&quot;index&quot;:null}" fill="#faddbf" stroke="#000000" stroke-width="2" stroke-linecap="butt"/><g data-paper-data="{&quot;index&quot;:null}" stroke="#000000"><g data-paper-data="{&quot;index&quot;:null}"><path d="M224.00178,212.44058l-14.75275,-0.57053l-7.29386,-7.39847l18.63125,-24.65649l5.46064,0.07965l3.41509,4.31668z" data-paper-data="{&quot;index&quot;:null}" fill="#faddbf" stroke-width="2" stroke-linecap="butt"/><path d="M209.02762,210.0793l10.32814,-20.5955l-9.71673,21.5074z" fill="#ef8b89" stroke-width="0" stroke-linecap="round"/></g><path d="M229.68797,194.68944l-12.10096,-0.74869l-5.64852,-6.23163l8.99181,-9.21217l5.65085,0.08242l3.53404,4.46704z" data-paper-data="{&quot;index&quot;:null}" fill="#1a54c9" stroke-width="2" stroke-linecap="butt"/></g><g data-paper-data="{&quot;index&quot;:null}" stroke="#000000" stroke-linecap="butt"><path d="M259.26198,152.71119c-0.06425,3.38882 -0.04418,4.43551 -0.19488,3.89262c-0.15375,-0.55386 0.37237,-2.72992 -2.18266,-4.1886c-0.61915,-0.35345 -3.0101,1.77323 -3.7985,1.40013c-0.4952,-0.23437 -2.46614,-3.01432 -3.02028,-3.22197c-0.38745,-0.14519 -3.6759,2.37349 -4.0814,2.23437c-1.01139,-0.34697 -3.43213,-3.382 -4.5221,-3.59457c-0.60019,-0.11705 -2.77172,3.40326 -3.38514,3.31759c-0.79112,-0.11047 -2.8686,-3.57396 -3.66662,-3.58909c-2.1223,-0.04024 -2.21934,2.0025 -3.77951,3.72454c-1.01384,1.11902 -4.0059,-3.88235 -4.94109,-2.60661c-1.16142,1.5843 -2.3104,3.11101 -3.56667,4.13698c-0.98559,0.8049 -3.84022,-3.0174 -4.69314,-2.27014c-4.11805,3.60801 -6.74364,6.14727 -6.64319,0.84964c0.20198,-10.65255 12.81575,-2.40705 25.11562,-8.45032c11.77331,-5.78457 23.43655,-2.28954 23.23458,8.36302z" data-paper-data="{&quot;index&quot;:null}" fill="#ef8b89" stroke-width="0"/><path d="M260.62995,150.31335c-0.12982,6.8461 1.856,2.57688 -3.33817,-0.31417c-0.63564,-0.35379 -3.08851,1.77175 -3.89784,1.39823c-0.50838,-0.23462 -2.53255,-3.01557 -3.10142,-3.22349c-0.39775,-0.1454 -3.77149,2.37168 -4.18775,2.23237c-1.03817,-0.34748 -3.5242,-3.38377 -4.64296,-3.59687c-0.61608,-0.11736 -2.84299,3.40189 -3.47262,3.31593c-0.81197,-0.11085 -2.94588,-3.57542 -3.76495,-3.59094c-2.17819,-0.04129 -2.27676,2.00143 -3.87717,3.72271c-1.03998,1.11854 -4.11331,-3.88437 -5.0725,-2.60909c-1.1912,1.58374 -2.36966,3.10988 -3.65851,4.13524c-1.01117,0.80442 -3.94287,-3.01937 -4.81786,-2.27251c-4.22471,3.60596 -6.76359,5.89217 -6.66314,0.59454c0.20196,-10.65255 12.0703,-23.46849 25.45933,-23.21464c13.38902,0.25385 25.23752,12.77013 25.03555,23.42269z" data-paper-data="{&quot;index&quot;:null}" fill="#724e36" stroke-width="2"/><path d="M260.56415,149.97302c-0.12982,6.8461 1.856,2.57688 -3.33817,-0.31417c-0.63564,-0.35379 -3.08851,1.77175 -3.89784,1.39823c-0.50837,-0.23461 -2.53255,-3.01557 -3.10142,-3.22349c-0.39774,-0.14539 -3.77149,2.37168 -4.18775,2.23237c-1.03818,-0.34748 -3.5242,-3.38377 -4.64296,-3.59687c-0.61608,-0.11736 -2.843,3.40189 -3.47263,3.31593c-0.81197,-0.11086 -2.94588,-3.57543 -3.76495,-3.59095c-2.1782,-0.04129 -2.27676,2.00143 -3.87717,3.72271c-1.03998,1.11854 -4.11331,-3.88437 -5.0725,-2.60909c-1.19121,1.58373 -2.36967,3.10987 -3.65852,4.13523c-1.01117,0.80442 -3.94287,-3.01937 -4.81786,-2.27251c-4.22471,3.60596 -6.76359,5.89217 -6.66314,0.59454c0.20198,-10.65256 12.99744,-2.14891 25.61818,-8.1861c12.08045,-5.77874 25.07868,-2.25841 24.87671,8.39415z" data-paper-data="{&quot;index&quot;:null}" fill="#623728" stroke-width="0"/></g><g data-paper-data="{&quot;index&quot;:null}" fill="#000000" stroke="none" stroke-width="0.5" stroke-linecap="butt"><path d="M249.32737,168.40448c-1.9076,-0.63814 -1.3447,-2.85842 -1.10158,-6.74052c0.24311,-3.88209 0.38612,-9.10532 2.07307,-8.77241c1.68695,0.3329 1.83605,3.94667 1.60653,7.61151c-0.22949,3.66483 -1.09706,8.39682 -2.578,7.90143z"/><path d="M230.55215,164.22923c1.27905,-0.13636 2.11687,1.06777 1.93227,1.09869c0,0 -2.76169,2.90161 1.1068,5.27393c5.73134,3.51471 11.40268,1.50378 11.48074,1.77329c0.13913,0.48025 -0.34112,0.61938 -0.34112,0.61938c-3.61708,1.03974 -8.10416,-0.69137 -11.18519,-2.25209c-6.1816,-3.13134 -1.79298,-5.40135 -1.79298,-5.40135c0,0 -2.47955,-0.97554 -1.2005,-1.11188z"/><path d="M239.54555,168.96918c-2.8933,-0.65682 -2.06297,-2.87204 -1.73282,-6.75248c0.33015,-3.88047 0.49577,-9.10327 3.05213,-8.75388c2.55634,0.34939 2.81721,3.96528 2.50552,7.62855c-0.31166,3.66326 -1.57863,8.38769 -3.8248,7.87778z"/></g><path d="M136.94445,277.77779v-202.22223h202.22222v202.22222z" data-paper-data="{&quot;index&quot;:null}" fill="none" stroke="#000000" stroke-width="0.00005" stroke-linecap="butt"/></g></g></svg>