<svg version="1.1" xmlns="http://www.w3.org/2000/svg" xmlns:xlink="http://www.w3.org/1999/xlink" width="213.31759" height="317.24388" viewBox="0,0,213.31759,317.24388"><g transform="translate(-224.78117,-43.3813)"><g data-paper-data="{&quot;isPaintingLayer&quot;:true}" fill-rule="nonzero" stroke-linejoin="miter" stroke-miterlimit="10" stroke-dasharray="" stroke-dashoffset="0" style="mix-blend-mode: normal"><g><path d="M408.26491,198.47512c-10.6802,10.65628 -22.27686,11.50921 -33.30839,1.43869c-8.62789,-7.87623 -8.90638,-25.98551 1.77383,-36.64181c10.68023,-10.65635 25.32462,-11.49622 35.87474,-0.92248c1.64984,1.65353 2.68171,3.66922 3.64137,5.50141c5.17678,9.8839 1.02847,21.63432 -7.98154,30.62418z" fill="#216aff" stroke="#000000" stroke-width="2" stroke-linecap="butt"/><path d="M371.26131,175.90826c0,0 3.74119,4.37432 5.72439,4.09083c19.02315,-2.71903 29.67148,-11.87498 32.96227,-15.17203c0.74766,-0.74907 0.47454,-1.83823 0.47454,-1.83823c0,0 1.64188,1.33128 3.11208,3.64485c1.56441,2.46183 2.96837,6.00198 3.16013,9.0693c0.219,3.50373 -1.42222,11.67776 -1.42222,11.67776l-12.34056,16.92837c0,0 -13.40309,1.1455 -15.4937,0.57431c-2.04811,-0.55957 -4.31115,-1.80912 -6.77076,-3.04088c-3.81889,-1.91248 -6.91917,-5.22838 -8.21504,-7.80045c-1.65379,-3.28256 -2.29914,-7.90159 -2.16567,-11.71532c0.12423,-3.54939 0.97467,-6.41839 0.97467,-6.41839z" fill="#3236f4" stroke="none" stroke-width="0" stroke-linecap="butt"/><path d="M390.1113,191.4597c0,0 -7.55731,-4.92801 -9.26933,-9.79104c-2.16728,-6.15608 -2.89151,-19.10127 -2.89151,-19.10127" fill="none" stroke="#000000" stroke-width="1" stroke-linecap="round"/><path d="M406.57685,158.62067c0,0 3.86987,6.01282 5.26609,10.07759c1.40962,4.10357 1.12459,13.8026 1.12459,13.8026" fill="none" stroke="#000000" stroke-width="1" stroke-linecap="round"/><path d="M384.8382,201.08002c0,0 -7.83304,-4.94263 -9.44758,-10.29449c-2.47745,-8.21221 -3.61039,-19.75398 -3.61039,-19.75398" fill="none" stroke="#000000" stroke-width="1" stroke-linecap="round"/><path d="M371.49815,193.62077c0,0 2.2565,-17.1576 17.66262,-25.29366c16.87544,-8.91203 28.8244,3.52633 28.8244,3.52633" fill="none" stroke="#000000" stroke-width="1" stroke-linecap="round"/><path d="M377.26543,201.19991c0,0 5.19271,-17.02639 18.7719,-24.23505c11.14978,-5.91895 22.19473,3.61667 22.19473,3.61667" fill="none" stroke="#000000" stroke-width="1" stroke-linecap="round"/><path d="M391.76747,159.96017c-1.17023,0.27882 -2.29779,-0.24621 -2.5185,-1.17259c-0.22077,-0.9264 0.54809,-1.13335 1.71833,-1.41216c1.17023,-0.27882 2.29865,-0.52389 2.51938,0.40251c0.22077,0.9264 -0.54899,1.90346 -1.7192,2.18222z" fill="#8fbbbe" stroke="none" stroke-width="0" stroke-linecap="butt"/><path d="M399.00348,159.25387c-0.42581,0.42482 -1.28755,0.25149 -1.9248,-0.3872c-0.63726,-0.63867 -0.80926,-0.98744 -0.3835,-1.41227c0.42581,-0.42482 1.41605,-0.37968 2.05328,0.25901c0.63726,0.63867 0.68076,1.11566 0.25499,1.54047z" fill="#8fbbbe" stroke="none" stroke-width="0" stroke-linecap="butt"/><path d="M385.0527,161.62623c-0.70298,0.56558 -1.57844,0.64417 -1.95549,0.17556c-0.37706,-0.46855 0.27175,-0.92154 0.97468,-1.48711c0.70298,-0.56558 1.1938,-1.02966 1.57087,-0.56104c0.37706,0.46855 0.11286,1.30702 -0.59009,1.87261z" fill="#8fbbbe" stroke="none" stroke-width="0" stroke-linecap="butt"/><path d="M370.22967,180.271c0,0 4.50529,-9.18595 10.12079,-14.27377c3.18372,-2.88453 6.98548,-4.32776 9.88006,-5.38965c2.5598,-0.93912 9.12588,-0.60416 14.12496,0.17519c3.68055,0.5738 6.45274,1.56475 6.45274,1.56475" fill="none" stroke="#000000" stroke-width="0.5" stroke-linecap="round"/><path d="M392.71973,154.49792c0,0 7.17423,7.76584 9.13655,12.80234c1.65332,4.24337 2.12684,15.19052 2.12684,15.19052" fill="none" stroke="#000000" stroke-width="1" stroke-linecap="round"/><path d="M398.84597,185.30868c0,0 -6.47933,-7.17261 -8.56742,-11.18393c-3.66627,-7.04311 -3.8504,-17.4519 -3.8504,-17.4519" fill="none" stroke="#000000" stroke-width="1" stroke-linecap="round"/></g><path d="M392.06973,319.40454c0,0 2.25056,-54.16986 2.25056,-78.3946c0,-20.74482 -6.0015,-52.51313 -6.0015,-52.51313l24.3811,-6.37659l3.00075,137.28432z" fill="#000000" stroke="none" stroke-width="0" stroke-linecap="butt"/><path d="M423.64489,189.07442c1.50136,5.28041 -8.10425,12.6382 -21.45472,16.43409c-13.35047,3.79589 -25.39026,2.59245 -26.89162,-2.68796c-1.50136,-5.28041 8.10425,-12.6382 21.45472,-16.43409c13.35047,-3.79589 25.39026,-2.59245 26.89162,2.68796z" fill="#000000" stroke="none" stroke-width="NaN" stroke-linecap="butt"/><g data-paper-data="{&quot;index&quot;:null}" stroke="#000000" stroke-linecap="butt"><path d="M374.35276,223.43669c21.07441,-25.82998 30.70938,-25.35814 36.97879,-20.24298c6.26943,5.11515 -5.7324,30.20115 -26.80683,56.03113c-21.07443,25.82998 -32.87437,-45.41783 -39.14378,-50.53299c-2.14236,-6.76304 4.38023,-6.53152 10.68097,-1.83509c7.77031,5.79182 16.4895,18.78777 18.29087,16.57992z" fill="#216aff" stroke-width="2"/><path d="M380.81934,196.38979c9.04566,-11.08689 25.59762,-12.55288 36.96983,-3.27443c11.37221,9.27847 13.25825,25.78786 4.21258,36.87474c-9.04567,11.08689 -25.59763,12.55289 -36.96985,3.27443c-11.37221,-9.27847 -13.25824,-25.78784 -4.21256,-36.87473z" fill="#faddbf" stroke-width="2"/><path d="M404.23157,230.55285c9.04567,-11.08689 1.33721,-46.30131 12.70941,-37.02284c11.37221,9.27847 13.25823,25.78786 4.21256,36.87473c-9.04567,11.08689 -25.96766,11.23501 -16.92198,0.14812z" fill="#ef8b89" stroke-width="0"/></g><path d="M224.78117,360.17125v-93.89347h213.03043v93.89347z" fill="#000000" stroke="none" stroke-width="NaN" stroke-linecap="butt"/><g stroke="#000000" stroke-linecap="butt"><path d="M334.86692,324.49523l-14.75435,-94.1458l29.13636,-4.56619l14.75435,94.1458z" fill="#73fffc" stroke-width="2"/><path d="M334.44942,323.93518l-13.21042,-92.86015c0,0 15.68585,66.48538 18.30656,75.60575c0.57936,2.01623 2.92382,2.36571 2.92382,2.36571l20.4165,10.0997z" fill="#59a9e6" stroke-width="0"/></g><g fill="none" stroke="#808080" stroke-width="0.5" stroke-linecap="round"><path d="M437.84876,280.63432l-193.59492,1.15407l-17.0225,-13.84882"/><path d="M243.96532,281.78839l-2.01962,78.47663"/></g><g stroke="#000000" stroke-linecap="butt"><path d="M251.00383,325.49642l37.64011,-87.54624l27.09392,11.64891l-37.64011,87.54624z" fill="#73fffc" stroke-width="2"/><path d="M250.94863,324.80009l38.26242,-85.63591c0,0 -22.12354,64.62894 -24.76147,73.74435c-0.58317,2.01513 1.21523,3.55928 1.21523,3.55928l11.90394,19.41993z" fill="#59a9e6" stroke-width="0"/></g><g stroke="#000000" stroke-linecap="butt"><path d="M356.92499,242.83276c-1.81048,13.68345 5.14097,37.74433 -1.18683,46.70765c-7.73847,10.96153 -29.55829,5.26414 -39.79635,3.90952c-13.54483,-1.79215 -33.20643,-0.18709 -36.06744,-19.73359c-1.06985,-7.30924 8.56323,-31.52175 9.65859,-39.80036c4.02459,-30.41739 22.37338,-53.07947 40.98318,-50.61717c18.6098,2.4623 30.43344,29.11656 26.40885,59.53395z" fill="#216aff" stroke-width="2"/><path d="M304.06111,251.55057c-1.81048,13.68345 58.81057,28.5093 52.48276,37.47261c-7.73847,10.96152 -29.55828,5.26415 -39.79635,3.90953c-13.54483,-1.79215 -33.20642,-0.18709 -36.06744,-19.73358c-1.06986,-7.30924 8.56323,-31.52176 9.65859,-39.80036c1.23987,-9.37077 7.07079,-27.9117 9.40273,-28.98521c8.09149,-15.83965 7.0773,26.29546 4.31971,47.13702z" fill="#3236f4" stroke-width="0"/></g><g stroke="#000000" stroke-linecap="butt"><g><path d="M249.30591,136.48708c-2.6288,-46.71688 33.11165,-86.71948 79.82853,-89.34828c46.71688,-2.6288 86.71948,33.11164 89.34828,79.82853c2.6288,46.71688 -33.11164,86.71948 -79.82852,89.34828c-46.71688,2.6288 -86.71949,-33.11164 -89.34829,-79.82852z" fill="#faddbf" stroke-width="2"/><path d="M249.48746,135.60597c-0.84579,-15.03051 6.3395,-41.43278 10.66086,-44.89521c0.4935,-0.39542 5.27668,-9.22132 12.40796,-16.34975c8.8637,-8.86016 20.42955,-16.32998 21.05043,-16.16754c8.10059,2.11924 -13.85516,65.73716 -11.19738,90.91754c0.00633,0.06006 5.50736,19.42284 7.14795,19.77014c3.14738,4.57287 10.17259,18.61124 21.43788,25.12876c20.99415,12.14617 49.97023,16.89939 48.5177,17.48766c-2.32353,0.94102 -14.62375,3.59631 -20.67709,3.93694c-46.71688,2.6288 -86.71948,-33.11165 -89.34828,-79.82853z" fill="#ef8b89" stroke-width="0"/><path d="M417.93436,126.53926c0.65308,11.60598 -0.69665,15.70466 -1.35186,13.88687c-0.66845,-1.85447 -0.73773,-9.78763 -9.85132,-14.11808c-2.20839,-1.04935 -9.83752,6.83955 -12.62982,5.76659c-1.75388,-0.67395 -9.21016,-9.67337 -11.1588,-10.24083c-1.36246,-0.39676 -11.95977,9.06381 -13.38243,8.6925c-3.54815,-0.92605 -12.60856,-10.68205 -16.39082,-11.12827c-2.08276,-0.24572 -8.6024,12.35258 -10.72235,12.21762c-2.73395,-0.17404 -10.73075,-11.48369 -13.46382,-11.32989c-7.26835,0.40901 -7.07409,7.41994 -11.96618,13.71096c-3.17901,4.08805 -14.6996,-12.24538 -17.5693,-7.64167c-3.56383,5.71724 -7.09996,11.23435 -11.13205,15.06656c-3.16332,3.00652 -13.91032,-9.3301 -16.63469,-6.55488c-13.15404,13.39953 -21.02863,21.85968 -22.04955,3.71656c-2.0529,-36.48244 42.75783,-10.63251 83.26544,-34.46771c38.7735,-22.81481 82.98467,-14.05877 85.03757,22.42367z" fill="#ef8b89" stroke-width="0"/></g><path d="M418.99887,118.15531c1.31935,23.44625 7.01102,8.33458 -11.49701,-0.21467c-2.26485,-1.04618 -10.10592,6.85465 -12.96996,5.78572c-1.79894,-0.67141 -9.43771,-9.66056 -11.43669,-10.22518c-1.39765,-0.39477 -12.28721,9.08223 -13.74665,8.713c-3.63995,-0.9209 -12.92385,-10.66429 -16.80475,-11.10497c-2.13709,-0.24266 -8.84651,12.36631 -11.02194,12.23447c-2.80547,-0.17002 -10.99556,-11.46879 -13.8006,-11.31094c-7.45981,0.41977 -7.27079,7.431 -12.30064,13.72978c-3.26853,4.09309 -15.06748,-12.22465 -18.01934,-7.61635c-3.66586,5.72298 -7.303,11.24576 -11.44661,15.08426c-3.25083,3.01145 -14.26178,-9.31031 -17.06179,-6.53084c-13.51922,13.42009 -21.61309,21.89256 -22.63402,3.74944c-2.0529,-36.48244 35.23449,-83.3682 81.08879,-85.94846c45.85429,-2.58026 89.59836,37.1723 91.65126,73.65474z" fill="#724e36" stroke-width="2"/><path d="M418.68621,117.00828c1.31935,23.44625 7.01103,8.33458 -11.49701,-0.21467c-2.26485,-1.04618 -10.10593,6.85465 -12.96996,5.78572c-1.79894,-0.67141 -9.4377,-9.66056 -11.43669,-10.22518c-1.39765,-0.39477 -12.28722,9.08223 -13.74666,8.713c-3.63995,-0.9209 -12.92384,-10.66429 -16.80474,-11.10497c-2.13709,-0.24266 -8.84652,12.36631 -11.02194,12.23447c-2.80547,-0.17002 -10.99555,-11.46879 -13.80059,-11.31094c-7.45981,0.41977 -7.2708,7.431 -12.30065,13.72978c-3.26853,4.09309 -15.06748,-12.22466 -18.01934,-7.61635c-3.66586,5.72298 -7.303,11.24576 -11.44662,15.08426c-3.25083,3.01145 -14.26178,-9.31031 -17.06178,-6.53084c-13.51922,13.42009 -21.61309,21.89256 -22.63402,3.74945c-2.0529,-36.48244 43.89622,-10.69657 85.50272,-34.59359c39.82531,-22.87399 85.18442,-14.18255 87.23733,22.29988z" fill="#623728" stroke-width="0"/></g><g stroke="#000000" stroke-linecap="butt"><path d="M353.72771,133.35929c1.6045,28.51384 -10.7154,43.96092 -27.25778,44.89178c-16.54238,0.93086 -31.04295,-13.00703 -32.64746,-41.52085c-1.6045,-28.51383 10.50504,-52.38346 27.04741,-53.31432c16.54238,-0.93085 31.25333,21.42957 32.85783,49.94339z" fill="#f0f0f0" stroke-width="2"/><path d="M305.94565,116.43467c-2.70961,28.4301 37.65502,60.02085 21.11266,60.95171c-16.54238,0.93086 -31.04295,-13.00702 -32.64746,-41.52085c-1.6045,-28.51383 15.45209,-60.53239 11.5348,-19.43086z" fill="#9a99ff" stroke-width="0"/></g><path d="M350.302,141.79833c0.88892,15.79721 -3.07196,28.86683 -8.84688,29.19179c-5.77492,0.32496 -11.17705,-12.21778 -12.06597,-28.01501c-0.88892,-15.79721 3.07196,-28.86683 8.84688,-29.19179c5.77492,-0.32496 11.17705,12.21778 12.06597,28.01501z" fill="#000000" stroke="none" stroke-width="0" stroke-linecap="butt"/><g stroke="#000000" stroke-linecap="butt"><path d="M347.03892,103.65349c5.02715,9.9631 16.36055,54.31832 0.67509,55.20096c-15.68544,0.88264 -52.84716,-42.7701 -48.84973,-52.62548c3.80349,-9.37723 5.57566,-21.76656 21.2611,-22.64919c15.68544,-0.88264 22.1226,10.57873 26.91354,20.0737z" fill="#a100fe" stroke-width="2"/><path d="M346.09621,103.35173c4.87534,9.97164 17.05656,53.66824 1.90593,54.52078c-15.1506,0.85254 -52.28092,-42.19106 -48.43822,-52.03772c3.65628,-9.36894 6.60192,0.59205 21.75252,-0.26049c15.1506,-0.85254 20.13347,-11.7257 24.77972,-2.22259z" fill="#99008e" stroke-width="0"/></g><g data-paper-data="{&quot;index&quot;:null}" stroke="#000000" stroke-linecap="butt"><path d="M384.15418,89.22325c16.54238,-0.93085 31.25333,21.42957 32.85782,49.94339c1.6045,28.51382 -11.24089,43.99049 -27.78327,44.92134c-16.54238,0.93086 -30.51746,-13.03659 -32.12197,-41.55042c-1.6045,-28.51383 10.50504,-52.38345 27.04741,-53.31432z" fill="#f0f0f0" stroke-width="2"/><path d="M416.33034,138.37341c1.6045,28.51382 -11.24088,43.99049 -27.78326,44.92135c-16.54238,0.93086 20.02338,-34.98885 14.14139,-62.9355c-8.5036,-40.4026 12.03736,-10.49968 13.64187,18.01416z" fill="#9a99ff" stroke-width="0"/></g><path d="M401.68863,120.89046c5.77492,-0.32496 11.17705,12.21779 12.06598,28.01501c0.88892,15.79721 -3.07196,28.86683 -8.84689,29.19179c-5.77492,0.32496 -11.17705,-12.21779 -12.06597,-28.01501c-0.88892,-15.79721 3.07196,-28.86683 8.84688,-29.19179z" data-paper-data="{&quot;index&quot;:null}" fill="#000000" stroke="none" stroke-width="0" stroke-linecap="butt"/><g data-paper-data="{&quot;index&quot;:null}" stroke="#000000" stroke-linecap="butt"><path d="M360.42075,112.26887c3.69548,-9.97252 8.80618,-22.08369 24.49162,-22.96631c15.68544,-0.88264 18.83634,11.22966 23.66782,20.12099c5.07784,9.34469 -25.56876,57.63738 -41.25421,58.52002c-15.68544,0.88264 -10.78294,-45.21047 -6.90526,-55.67468z" fill="#a100fe" stroke-width="2"/><path d="M361.32366,111.86325c3.5508,-9.96438 9.72204,0.28114 24.87264,-0.5714c15.1506,-0.85254 16.96016,-11.08113 21.64443,-2.18151c4.92311,9.3534 -25.75503,57.46752 -40.90563,58.32008c-15.1506,0.85254 -9.33731,-45.11149 -5.61145,-55.56715z" fill="#99008e" stroke-width="0"/></g><path d="M397.66358,312.66456c1.80573,11.52216 -11.07516,23.1108 -28.77028,25.88395c-17.69512,2.77315 -33.50368,-4.31934 -35.30941,-15.8415c-0.36097,-2.30331 -2.16344,-13.58899 -1.2672,-15.12455c3.58715,-6.14597 18.4176,2.43929 32.57542,0.2205c17.69512,-2.77315 30.96574,-6.66057 32.77147,4.86159z" fill="#000082" stroke="#000000" stroke-width="2" stroke-linecap="butt"/><path d="M395.37701,310.25725c0.97672,6.23234 -12.14536,12.21788 -29.84049,14.99102c-17.69512,2.77315 -30.25981,1.74868 -31.23653,-4.48366c-0.19525,-1.24586 -1.97236,-12.36981 -0.97815,-13.28023c3.97927,-3.6439 16.2588,3.29501 30.41662,1.07622c17.69512,-2.77315 30.66182,-4.5357 31.63854,1.69664z" fill="#2e0048" stroke="#000000" stroke-width="0" stroke-linecap="butt"/><path d="M306.57448,349.18457c-4.60664,10.71447 -21.68023,13.66514 -38.13493,6.59052c-16.4547,-7.07462 -26.05946,-21.49554 -21.45282,-32.21c0.92088,-2.14185 5.40436,-12.65441 6.98061,-13.47698c6.30885,-3.29227 14.29083,11.87141 27.4562,17.5318c16.4547,7.07462 29.75758,10.85019 25.15094,21.56466z" fill="#000082" stroke="#000000" stroke-width="2" stroke-linecap="butt"/><path d="M305.9208,345.92937c-2.49173,5.79546 -16.78604,3.87494 -33.24075,-3.19969c-16.4547,-7.07462 -26.54465,-14.632 -24.05292,-20.42745c0.4981,-1.15853 4.91693,-11.52068 6.24325,-11.76193c5.3085,-0.96559 12.00787,11.44626 25.17323,17.10665c16.4547,7.07462 28.36892,12.48697 25.87719,18.28243z" fill="#2e0048" stroke="#000000" stroke-width="0" stroke-linecap="butt"/><g stroke="#000000" stroke-linecap="butt"><path d="M308.05302,245.20391c32.79381,-5.99036 39.82108,0.6182 41.27504,8.57786c1.45397,7.95967 -23.95201,19.26839 -56.74583,25.25873c-32.79382,5.99035 4.43764,-55.89106 2.98368,-63.85074c2.75604,-6.53701 7.57032,-2.13015 9.3197,5.53115c2.15742,9.44817 0.36433,24.99502 3.16742,24.48299z" fill="#216aff" stroke-width="2"/><path d="M330.51789,228.81245c14.07594,-2.57121 27.62477,7.04888 30.26213,21.48706c2.63738,14.43818 -6.6354,28.22702 -20.71134,30.79825c-14.07594,2.57121 -27.62475,-7.04889 -30.26213,-21.48707c-2.63739,-14.43818 6.6354,-28.22702 20.71135,-30.79825z" fill="#faddbf" stroke-width="2"/><path d="M326.17857,270.00004c14.07594,-2.57121 31.0496,-34.37326 33.68698,-19.93507c2.63738,14.43818 -6.6354,28.22702 -20.71135,30.79825c-14.07594,2.57121 -27.05157,-8.29195 -12.97563,-10.86317z" fill="#ef8b89" stroke-width="0"/></g><path d="M296.8538,176.13736c0,6.35713 -2.48987,11.5106 -5.5613,11.5106c-3.07142,0 -5.56131,-5.15347 -5.56131,-11.5106c0,-6.35713 2.48988,-11.5106 5.56131,-11.5106c3.07142,0 5.5613,5.15347 5.5613,11.5106z" fill="#000000" stroke="none" stroke-width="0" stroke-linecap="butt"/></g></g></svg>