<svg version="1.1" xmlns="http://www.w3.org/2000/svg" xmlns:xlink="http://www.w3.org/1999/xlink" width="206.73789" height="315.62931" viewBox="0,0,206.73789,315.62931"><g transform="translate(-201.69134,-44.88305)"><g data-paper-data="{&quot;isPaintingLayer&quot;:true}" fill-rule="nonzero" stroke-linejoin="miter" stroke-miterlimit="10" stroke-dasharray="" stroke-dashoffset="0" style="mix-blend-mode: normal"><g data-paper-data="{&quot;index&quot;:null}" stroke="#000000" stroke-linecap="butt"><path d="M283.21052,244.72277c20.063,26.6232 17.30845,35.86807 10.8465,40.73773c-6.46195,4.86967 -27.96467,-12.76507 -48.02767,-39.38828c-20.06299,-26.62321 51.94403,-21.10263 58.40598,-25.97229c7.07874,-0.46879 5.29938,5.81067 -0.76339,10.81055c-7.47682,6.16603 -22.17633,11.53665 -20.46143,13.8123z" fill="#216aff" stroke-width="2"/><path d="M307.93685,257.44909c8.61155,11.42735 6.09049,27.85174 -5.63095,36.68491c-11.72144,8.83317 -28.20459,6.73017 -36.81614,-4.69718c-8.61155,-11.42735 -6.09048,-27.85175 5.63096,-36.68492c11.72144,-8.83317 28.20458,-6.73016 36.81613,4.69719z" fill="#faddbf" stroke-width="2"/><path d="M269.17839,272.04459c8.61155,11.42735 44.6484,12.33367 32.92696,21.16684c-11.72144,8.83317 -28.20459,6.73017 -36.81613,-4.69719c-8.61155,-11.42735 -4.72238,-27.89702 3.88917,-16.46965z" fill="#ef8b89" stroke-width="0"/></g><g data-paper-data="{&quot;index&quot;:null}" stroke="#000000" stroke-linecap="butt"><path d="M275.90329,340.36029v-95.29492h29.49199v95.29492z" fill="#73fffc" stroke-width="2"/><path d="M276.886,339.41388l18.60659,-13.13896c0,0 2.26208,-0.70825 2.52228,-2.78987c1.17702,-9.41615 6.3799,-77.52842 6.3799,-77.52842l1.32626,93.78573z" fill="#59a9e6" stroke-width="0"/></g><g data-paper-data="{&quot;index&quot;:null}" stroke="#000000" stroke-linecap="butt"><path d="M315.24467,337.93774v-95.29492h29.49199v95.29492z" fill="#73fffc" stroke-width="2"/><path d="M316.22738,336.99137l18.60659,-13.13896c0,0 2.26208,-0.70825 2.52228,-2.78987c1.17702,-9.41615 6.3799,-77.52842 6.3799,-77.52842l1.32626,93.78573z" fill="#59a9e6" stroke-width="0"/></g><g data-paper-data="{&quot;index&quot;:null}" stroke="#000000" stroke-linecap="butt"><path d="M311.92098,179.66527c18.77199,0 33.98969,24.87307 33.98969,55.55556c0,8.35076 6.37392,33.61764 4.35457,40.7234c-5.40019,19.00234 -24.68139,14.83216 -38.34426,14.83216c-10.32729,0 -32.7059,2.78608 -38.9397,-9.09579c-5.09742,-9.71589 4.95001,-32.65706 4.95001,-46.45977c0,-30.68249 15.2177,-55.55556 33.98969,-55.55556z" fill="#216aff" stroke-width="2"/><path d="M339.66022,204.63425c2.17098,1.37012 5.51953,20.51569 5.51953,29.96813c0,8.35075 6.37393,33.61764 4.35457,40.7234c-5.40019,19.00233 -24.68138,14.83215 -38.34425,14.83215c-10.32729,0 -32.7059,2.78607 -38.9397,-9.09579c-5.09743,-9.71588 56.94455,-16.46203 56.94455,-30.26474c0,-21.0232 4.52139,-62.9273 10.4653,-46.16315z" fill="#3236f4" stroke-width="0"/></g><g data-paper-data="{&quot;index&quot;:null}" stroke="#000000" stroke-linecap="butt"><g><path d="M309.27452,215.69826c-45.50316,10.9014 -91.22807,-17.14889 -102.12946,-62.65205c-10.9014,-45.50316 17.14889,-91.22807 62.65205,-102.12946c45.50316,-10.9014 91.22807,17.14889 102.12946,62.65205c10.9014,45.50316 -17.14889,91.22807 -62.65205,102.12946z" fill="#faddbf" stroke-width="2"/><path d="M371.49956,112.77701c10.9014,45.50316 -17.14889,91.22807 -62.65205,102.12946c-5.89607,1.41254 -18.44064,2.40238 -20.93656,2.16847c-1.5603,-0.14623 24.82923,-13.02249 41.44963,-30.68733c8.91836,-9.47879 11.61499,-24.94353 13.31617,-30.22776c1.47168,-0.80392 1.17893,-20.93084 1.16774,-20.99018c-4.68726,-24.88262 -43.99192,-79.51263 -36.84149,-83.86945c0.54804,-0.33394 13.77216,3.49878 24.80738,9.43945c8.87837,4.77954 15.99519,11.85951 16.58149,12.09651c5.1338,2.07521 19.60031,25.3008 23.10768,39.94081z" fill="#ef8b89" stroke-width="0"/><path d="M207.54733,152.47871c-8.51319,-35.5346 31.31958,-56.62126 75.01254,-45.90563c45.64711,11.19486 81.14394,-26.43749 89.65712,9.09712c4.2337,17.67175 -5.7392,11.83014 -22.18787,2.7738c-3.40674,-1.8757 -10.15712,13.02807 -14.05075,11.05692c-4.96297,-2.51249 -9.93487,-6.78133 -14.99078,-11.23391c-4.07117,-3.58537 -10.41449,15.36897 -14.63381,12.36638c-6.49301,-4.62062 -8.32083,-11.3919 -15.40034,-9.69583c-2.66205,0.63777 -7.07314,13.76786 -9.64188,14.71989c-1.99184,0.73822 -11.85555,-9.45637 -13.77996,-8.62273c-3.49469,1.51387 -9.37085,13.4613 -12.50346,15.36753c-1.25603,0.76431 -14.12428,-5.25346 -15.31535,-4.48207c-1.70352,1.10326 -6.26048,11.86523 -7.74686,13.01458c-2.36641,1.82982 -11.94008,-3.53515 -13.75399,-1.89566c-7.4856,6.76582 -5.27317,14.38454 -5.38075,16.35287c-0.10544,1.92939 -2.57564,-1.60886 -5.28389,-12.9133z" fill="#ef8b89" stroke-width="0"/></g><path d="M204.11934,144.7539c-8.51318,-35.53461 21.96842,-86.1773 66.6314,-96.87741c44.663,-10.7001 93.84684,23.49891 102.36002,59.03352c4.2337,17.67176 -5.95276,11.8813 -22.75714,2.91019c-3.48041,-1.85804 -10.48789,13.10732 -14.46675,11.15659c-5.07159,-2.48646 -10.14187,-6.73173 -15.29715,-11.16051c-4.1512,-3.56618 -10.76564,15.4531 -15.07215,12.4714c-6.62719,-4.58848 -8.46011,-11.35853 -15.72612,-9.61779c-2.73217,0.65456 -7.33151,13.82974 -9.96991,14.79847c-2.04589,0.75116 -12.09446,-9.39914 -14.07179,-8.55282c-3.59077,1.53688 -9.68462,13.53644 -12.90663,15.46411c-1.29188,0.7729 -14.44479,-5.17668 -15.67012,-4.39708c-1.75254,1.11501 -6.48725,11.91955 -8.01751,13.07942c-2.4363,1.84656 -12.21643,-3.46893 -14.08531,-1.81627c-15.27226,13.50538 -5.47962,26.34525 -10.95081,3.50814z" fill="#724e36" stroke-width="2"/><path d="M204.08939,143.56538c-8.51318,-35.5346 32.4377,-56.88914 77.15514,-46.41895c46.7174,10.93846 83.32307,-26.95956 91.83625,8.57505c4.2337,17.67176 -5.95276,11.8813 -22.75714,2.91019c-3.48041,-1.85804 -10.48789,13.10732 -14.46675,11.15659c-5.0716,-2.48645 -10.14188,-6.73172 -15.29716,-11.1605c-4.1512,-3.56618 -10.76564,15.4531 -15.07215,12.4714c-6.62719,-4.58848 -8.46011,-11.35853 -15.72612,-9.61779c-2.73217,0.65456 -7.33151,13.82974 -9.96991,14.79847c-2.04589,0.75116 -12.09446,-9.39914 -14.07179,-8.55282c-3.59077,1.53688 -9.68462,13.53644 -12.90663,15.46411c-1.29188,0.7729 -14.44479,-5.17668 -15.67012,-4.39708c-1.75255,1.11502 -6.48726,11.91956 -8.01752,13.07943c-2.4363,1.84656 -12.21643,-3.46893 -14.08531,-1.81627c-15.27226,13.50538 -5.47962,26.34525 -10.95081,3.50814z" fill="#623728" stroke-width="0"/></g><g data-paper-data="{&quot;index&quot;:null}" stroke="#000000" stroke-linecap="butt"><path d="M276.5548,159.96787c-6.65371,-27.77304 1.01425,-53.4168 17.12684,-57.27696c16.11259,-3.86016 34.56833,15.52504 41.22203,43.29807c6.6537,27.77302 -3.23212,45.28878 -19.34471,49.14894c-16.11259,3.86017 -32.35045,-7.39703 -39.00415,-35.17006z" fill="#f0f0f0" stroke-width="2"/><path d="M317.46154,130.03114c-15.55858,-38.24411 9.97649,-12.47443 16.63019,15.2986c6.6537,27.77302 -3.23212,45.28878 -19.34471,49.14894c-16.11259,3.86016 13.47647,-37.99395 2.71453,-64.44755z" fill="#9a99ff" stroke-width="0"/></g><path d="M285.77044,136.76692c5.62487,-1.34757 13.17308,10.03346 16.85936,25.42027c3.68627,15.3868 2.11471,28.9527 -3.51017,30.30028c-5.62487,1.34757 -13.17308,-10.03346 -16.85936,-25.42027c-3.68627,-15.3868 -2.11471,-28.9527 3.51017,-30.30028z" data-paper-data="{&quot;index&quot;:null}" fill="#000000" stroke="none" stroke-width="0" stroke-linecap="butt"/><g data-paper-data="{&quot;index&quot;:null}" stroke="#000000" stroke-linecap="butt"><path d="M274.42876,129.59262c1.8616,-10.47102 4.73518,-23.29842 20.01312,-26.95862c15.27794,-3.66019 20.53424,7.69794 26.87104,15.58742c6.6599,8.29176 -3.41275,15.4778 -18.69069,19.138c-15.27794,3.6602 -30.14688,3.22046 -28.19349,-7.7668z" fill="#a100fe" stroke-width="2"/><path d="M275.24508,129.03278c1.72067,-10.43724 9.61684,-1.45366 24.37384,-4.98905c14.757,-3.53539 14.71721,-13.92272 20.91062,-5.99889c6.50918,8.32786 -3.18314,15.42279 -17.94014,18.95818c-14.75701,3.53539 -29.14986,2.98161 -27.34435,-7.97023z" fill="#99008e" stroke-width="0"/></g><g data-paper-data="{&quot;index&quot;:null}" stroke="#000000" stroke-linecap="butt"><path d="M231.36418,116.10008c16.11259,-3.86016 34.56833,15.52504 41.22203,43.29807c6.65372,27.77303 -2.72028,45.16617 -18.83287,49.02633c-16.11259,3.86017 -32.8623,-7.27441 -39.516,-35.04743c-6.65371,-27.77304 1.01425,-53.4168 17.12684,-57.27696z" fill="#f0f0f0" stroke-width="2"/><path d="M214.6624,172.42144c-6.65369,-27.77303 4.432,-62.31609 7.89239,-21.17358c2.39357,28.45846 47.7362,52.36086 31.62361,56.22102c-16.11259,3.86017 -32.8623,-7.27441 -39.516,-35.04743z" fill="#9a99ff" stroke-width="0"/></g><path d="M240.52445,176.88975c3.68627,15.3868 2.11471,28.9527 -3.51017,30.30028c-5.62487,1.34757 -13.17308,-10.03346 -16.85936,-25.42027c-3.68627,-15.3868 -2.11471,-28.9527 3.51017,-30.30028c5.62487,-1.34757 13.17308,10.03346 16.85936,25.42027z" data-paper-data="{&quot;index&quot;:null}" fill="#000000" stroke="none" stroke-width="0" stroke-linecap="butt"/><g data-paper-data="{&quot;index&quot;:null}" stroke="#000000" stroke-linecap="butt"><path d="M260.7172,131.35704c6.72011,8.90934 -6.33538,16.03903 -21.61332,19.69923c-15.27794,3.66021 -27.51339,1.81862 -25.33381,-8.59086c2.07385,-9.90444 1.61268,-22.41137 16.89062,-26.07157c15.27794,-3.6602 23.65218,6.47251 30.05651,14.96321z" fill="#a100fe" stroke-width="2"/><path d="M259.73585,131.2279c6.57222,8.94474 -6.00719,15.96039 -20.76419,19.49578c-14.757,3.53539 -26.61212,1.6027 -24.58325,-8.77068c1.93044,-9.87009 6.60188,-0.59238 21.35888,-4.12777c14.75701,-3.53539 17.72514,-15.1218 23.98855,-6.59733z" fill="#99008e" stroke-width="0"/></g><path d="M241.52414,338.39498c0,-11.6628 13.71248,-9.87692 31.62358,-9.87692c14.33063,0 27.65301,-10.77791 32.14847,-5.26144c1.12318,1.37828 1.08979,12.80695 1.08979,15.13837c0,11.6628 -14.51982,21.11737 -32.43092,21.11737c-17.9111,0 -32.43092,-9.45457 -32.43092,-21.11737z" data-paper-data="{&quot;index&quot;:null}" fill="#000082" stroke="#000000" stroke-width="2" stroke-linecap="butt"/><path d="M274.40476,329.08797c14.33063,0 25.38775,-8.75646 29.88321,-5.7726c1.12318,0.74551 1.0898,12.01046 1.0898,13.27153c0,6.30841 -12.25456,9.26589 -30.16566,9.26589c-17.91111,0 -31.80169,-3.88169 -31.80169,-10.1901c0,-6.30841 13.08324,-6.57472 30.99434,-6.57472z" data-paper-data="{&quot;index&quot;:null}" fill="#2e0048" stroke="#000000" stroke-width="0" stroke-linecap="butt"/><path d="M284.51108,337.75014c0,-11.6628 13.71248,-9.87692 31.62358,-9.87692c14.33063,0 27.65301,-10.77791 32.14847,-5.26144c1.12318,1.37828 1.08979,12.80695 1.08979,15.13837c0,11.6628 -14.51982,21.11737 -32.43092,21.11737c-17.9111,0 -32.43092,-9.45457 -32.43092,-21.11737z" data-paper-data="{&quot;index&quot;:null}" fill="#000082" stroke="#000000" stroke-width="2" stroke-linecap="butt"/><path d="M317.3917,328.44312c14.33063,0 25.38775,-8.75646 29.88321,-5.7726c1.12318,0.74551 1.0898,12.01046 1.0898,13.27153c0,6.30841 -12.25456,9.26589 -30.16566,9.26589c-17.91111,0 -31.80169,-3.88169 -31.80169,-10.1901c0,-6.30841 13.08324,-6.57472 30.99434,-6.57472z" data-paper-data="{&quot;index&quot;:null}" fill="#2e0048" stroke="#000000" stroke-width="0" stroke-linecap="butt"/><g data-paper-data="{&quot;index&quot;:null}"><path d="M375.55066,240.81204c-4.30637,11.9772 -13.17832,20.72757 -24.32538,20.24404c-2.06635,-0.08966 -4.32949,-0.16667 -6.52756,-0.95699c-14.0559,-5.0538 -19.52172,-18.66587 -14.41705,-32.86332c5.10462,-14.19741 21.61419,-21.64442 32.41127,-17.18366c13.80508,5.70346 17.96334,16.5625 12.85872,30.75989z" fill="#485e84" stroke="#000000" stroke-width="2" stroke-linecap="butt"/><path d="M339.39304,216.9134c0,0 2.23523,-1.9895 5.39506,-3.61095c3.39517,-1.74221 7.85033,-3.12184 11.52456,-3.02053c2.87897,0.07943 7.19834,1.47581 10.55296,4.11931c2.16059,1.70259 4.25372,3.21967 5.63094,4.83557c1.40582,1.64941 6.06727,14.26789 6.06727,14.26789l-10.07574,18.36677c0,0 -6.70076,4.96068 -9.96518,6.25205c-2.85782,1.1305 -6.659,1.36482 -9.55236,0.99546c-2.7191,-0.34711 -4.62212,-1.26723 -4.62212,-1.26723c0,0 1.10194,-0.21583 1.46208,-1.21103c1.58518,-4.38029 5.34535,-17.91097 -0.2812,-36.28529c-0.58657,-1.91555 -6.13641,-3.44208 -6.13641,-3.44208z" fill="#343545" stroke="none" stroke-width="0" stroke-linecap="butt"/><path d="M330.16161,228.63966c0,0 12.02491,-4.84808 18.51834,-5.50365c5.12952,-0.51789 12.80294,4.22729 12.80294,4.22729" fill="none" stroke="#000000" stroke-width="1" stroke-linecap="round"/><path d="M363.09126,251.85987c0,0 -8.65768,4.38148 -12.9712,4.85022c-4.27272,0.46435 -11.36033,-0.48203 -11.36033,-0.48203" fill="none" stroke="#000000" stroke-width="1" stroke-linecap="round"/><path d="M335.19948,219.45631c0,0 10.9284,-3.88147 19.41476,-5.13046c5.5305,-0.81395 13.3344,4.17458 13.3344,4.17458" fill="none" stroke="#000000" stroke-width="1" stroke-linecap="round"/><path d="M355.58724,260.92814c0,0 -16.33832,-5.52718 -15.44635,-24.59047c0.81431,-17.40347 15.38473,-26.74038 15.38473,-26.74038" fill="none" stroke="#000000" stroke-width="1" stroke-linecap="round"/><path d="M363.59224,257.44092c0,0 -13.32664,-5.94302 -12.70954,-18.55138c0.75158,-15.3556 13.95494,-27.29436 13.95494,-27.29436" fill="none" stroke="#000000" stroke-width="1" stroke-linecap="round"/><path d="M333.67599,242.25425c0.2452,1.1777 -0.31189,2.28983 -1.24427,2.48386c-0.93235,0.19407 -1.19027,-0.93148 -1.43543,-2.10923c-0.24517,-1.17774 -0.38475,-1.96165 0.54763,-2.15568c0.93233,-0.19408 1.88691,0.60328 2.13207,1.78103z" fill="#8fbbbe" stroke="none" stroke-width="0" stroke-linecap="butt"/><path d="M336.11307,249.10397c-0.2035,0.56599 -0.65371,0.72941 -1.50273,0.42414c-0.84902,-0.30523 -1.31086,-1.18234 -1.10737,-1.74836c0.20352,-0.56599 0.5923,-0.55858 1.44132,-0.25331c0.84901,0.30526 1.37227,1.01155 1.16878,1.57757z" fill="#8fbbbe" stroke="none" stroke-width="0" stroke-linecap="butt"/><path d="M332.32922,235.46821c-0.21305,0.87671 -0.85966,1.4723 -1.44407,1.33023c-0.58447,-0.14207 -0.37308,-0.78362 -0.16003,-1.66036c0.21308,-0.8767 0.34724,-1.65652 0.93165,-1.51445c0.58446,0.14205 0.88552,0.96785 0.67247,1.84459z" fill="#8fbbbe" stroke="none" stroke-width="0" stroke-linecap="butt"/><path d="M343.93193,258.47352c0,0 -2.07552,-2.08787 -4.15965,-5.17528c-2.83076,-4.19346 -5.92547,-9.99418 -6.16374,-12.71038c-0.26947,-3.07141 -0.57946,-7.12606 0.67785,-11.23407c2.2177,-7.2458 8.61675,-15.22902 8.61675,-15.22902" fill="none" stroke="#000000" stroke-width="0.5" stroke-linecap="round"/><path d="M359.26246,243.73212c0,0 -10.10984,4.22554 -14.65352,4.53314c-5.39294,0.36511 -15.4721,-2.82685 -15.4721,-2.82685" fill="none" stroke="#000000" stroke-width="1" stroke-linecap="round"/><path d="M328.43059,238.81909c0,0 9.49953,-4.2586 17.43313,-3.93452c4.51849,0.18457 13.76526,2.99977 13.76526,2.99977" fill="none" stroke="#000000" stroke-width="1" stroke-linecap="round"/></g><g data-paper-data="{&quot;index&quot;:null}" stroke="#000000" stroke-linecap="butt"><path d="M367.30821,215.42248c0.10592,-2.8475 -15.02472,1.15038 -24.68431,0.36623c-7.83273,-0.63584 -12.88274,-4.77046 -6.80703,-8.43297c8.08579,0.30078 64.00708,-45.39713 62.76785,-12.08372c-1.23924,33.31341 -8.79865,60.07544 -16.88444,59.77465c-8.08578,-0.30079 -15.63131,-6.31079 -14.39207,-39.6242z" fill="#216aff" stroke-width="2"/><path d="M354.29771,240.00046c0.53192,-14.29896 12.85303,-25.44827 27.51997,-24.90267c14.66694,0.5456 26.12566,12.57949 25.59375,26.87845c-0.53191,14.29896 -12.85303,25.44826 -27.51997,24.90266c-14.66695,-0.5456 -26.12565,-12.57949 -25.59374,-26.87845z" fill="#faddbf" stroke-width="2"/><path d="M394.44149,229.81585c0.53191,-14.29897 13.13895,-3.01013 12.60704,11.28883c-0.53191,14.29897 -12.85303,25.44827 -27.51997,24.90267c-14.66695,-0.54559 14.38101,-21.89253 14.91292,-36.19149z" fill="#ef8b89" stroke-width="0"/></g><path d="M340.82218,175.93853c0.71186,-1.0275 1.73935,-0.31562 1.73935,-0.31562l0.68474,0.55243c1.36161,1.81809 2.61119,4.04022 4.95138,4.75985c1.3751,0.42283 3.63805,-0.10518 3.59294,-1.81065c-0.10093,-3.81615 -4.73649,-7.04235 -6.96943,-9.65006c0,0 -0.81249,-0.94991 0.13743,-1.76241c0.94992,-0.8125 1.76241,0.13742 1.76241,0.13742c2.64301,3.09365 7.67253,6.69961 7.56958,11.27476c-0.07677,3.41197 -3.68181,5.09009 -6.74706,4.22383c-2.95662,-0.83556 -4.58328,-3.38755 -6.29777,-5.67344l-0.10794,0.00324c0,0 -1.0275,-0.71186 -0.31562,-1.73936z" data-paper-data="{&quot;index&quot;:null}" fill="#000000" stroke="none" stroke-width="0.5" stroke-linecap="butt"/></g></g></svg>