<svg version="1.1" xmlns="http://www.w3.org/2000/svg" xmlns:xlink="http://www.w3.org/1999/xlink" width="36.30209" height="36.30208" viewBox="0,0,36.30209,36.30208"><g transform="translate(-301.84896,-161.84896)"><g data-paper-data="{&quot;isPaintingLayer&quot;:true}" fill-rule="nonzero" stroke-linejoin="miter" stroke-miterlimit="10" stroke-dasharray="" stroke-dashoffset="0" style="mix-blend-mode: normal"><path d="M314.0479,196.08014c-8.88082,-3.28726 -13.41529,-13.15143 -10.12804,-22.03225c3.28725,-8.88081 13.15143,-13.41529 22.03225,-10.12804c8.88082,3.28726 13.41529,13.15143 10.12804,22.03225c-3.28725,8.88081 -13.15143,13.41529 -22.03225,10.12804z" data-paper-data="{&quot;index&quot;:null}" fill="#001aff" stroke="#000000" stroke-width="2" stroke-linecap="butt"/><path d="M336.74927,178.98324l-6.21708,3.67589l-4.52758,-5.93463l-6.2465,2.54429l-5.35025,-6.53799l-5.46267,3.65627l-2.92874,-6.01523" data-paper-data="{&quot;index&quot;:null}" fill="none" stroke="#000000" stroke-width="2" stroke-linecap="round"/><path d="M324.74635,181.56203l-2.18591,9.00422" data-paper-data="{&quot;index&quot;:null}" fill="none" stroke="#000000" stroke-width="2.5" stroke-linecap="round"/><path d="M317.1671,190.07332l2.06765,-8.85683" data-paper-data="{&quot;index&quot;:null}" fill="none" stroke="#000000" stroke-width="2.5" stroke-linecap="round"/><path d="M328.2921,190.05387c-0.01376,-0.0334 -0.02244,-0.0674 -0.02708,-0.10191c-0.06165,-0.2376 -0.01532,-0.50023 0.14843,-0.70781c0.18468,-0.23411 0.47224,-0.33928 0.74778,-0.30193c0.50496,-0.20389 1.03967,1.00983 1.11378,1.28811c0.29941,1.12427 0.48679,3.1275 -0.99305,3.64461c-0.99995,0.34942 -3.44226,-1.36805 -2.68775,-2.32453c0.91557,-1.16066 1.42292,0.76014 2.16102,0.60334c0.69012,-0.1466 -0.37076,-1.87551 -0.46311,-2.09986z" data-paper-data="{&quot;index&quot;:null}" fill="#000000" stroke="none" stroke-width="0.5" stroke-linecap="butt"/></g></g></svg>