<svg version="1.1" xmlns="http://www.w3.org/2000/svg" xmlns:xlink="http://www.w3.org/1999/xlink" width="304.27705" height="311.4946" viewBox="0,0,304.27705,311.4946"><g transform="translate(-192.12275,-34.08543)"><g data-paper-data="{&quot;isPaintingLayer&quot;:true}" fill-rule="nonzero" stroke-linecap="butt" stroke-linejoin="miter" stroke-miterlimit="10" stroke-dasharray="" stroke-dashoffset="0" style="mix-blend-mode: normal"><g data-paper-data="{&quot;index&quot;:null}"><path d="M494.99099,132.31897l-89.53306,75.10751l-32.77548,-39.07051l89.53306,-75.10751z" fill="#fac843" stroke="#000000" stroke-width="2"/><g fill="none" stroke="none" stroke-width="1" font-family="sans-serif" font-weight="normal" font-size="12" text-anchor="start"/><path d="M493.4688,132.56386l-89.53306,75.10751l52.27515,-60.92952l4.48243,-53.24851z" fill="#e47816" stroke="#000000" stroke-width="0"/></g><g data-paper-data="{&quot;index&quot;:null}" stroke="#000000"><path d="M316.44531,344.13567v-90.27109h61.17899v90.27109z" fill="#00791c" stroke-width="2"/><path d="M317.23265,343.37909v-90.27109l18.42709,49.31565l42.75189,40.95544z" fill="#00393e" stroke-width="0"/></g><path d="M263.15957,250.05322l18.54991,-112.27945l112.27945,18.54991l-18.54991,112.27945z" data-paper-data="{&quot;index&quot;:null}" fill="#0000c0" stroke="#000000" stroke-width="2"/><g data-paper-data="{&quot;index&quot;:null}" stroke="#000000"><path d="M263.83936,344.58003v-90.27109h61.17899v90.27109z" fill="#00791c" stroke-width="2"/><path d="M264.62674,343.82344v-90.27109l18.42709,49.31565l42.75189,40.95544z" fill="#00393e" stroke-width="0"/></g><g data-paper-data="{&quot;index&quot;:null}"><path d="M193.51461,214.06004l66.69354,-95.96499l41.87728,29.10378l-66.69354,95.96499z" fill="#fac843" stroke="#000000" stroke-width="2"/><g fill="none" stroke="none" stroke-width="1" font-family="sans-serif" font-weight="normal" font-size="12" text-anchor="start"/><path d="M194.91924,213.4244l66.69354,-95.96499l-34.46001,72.50934l9.64376,52.55942z" fill="#e47816" stroke="#000000" stroke-width="0"/></g><g data-paper-data="{&quot;index&quot;:null}" stroke="#000000"><path d="M285.84079,100.55618c0,-1.37646 0.88696,-27.38008 0.98912,-28.73546c2.58143,-34.24932 36.46023,-36.73529 78.90464,-36.73529c39.86984,0 74.31045,4.54212 80.31266,35.83276c0.64046,3.33883 -0.4189,26.15173 -0.4189,29.63798c0,12.46114 2.98952,39.84953 -4.38487,49.76492c-14.02387,18.8561 -46.59108,15.70582 -75.50889,15.70582c-30.57536,0 -59.08782,0.98125 -72.51838,-19.6932c-5.95144,-9.1614 -7.37538,-34.67471 -7.37538,-45.77754z" fill="#fac843" stroke-width="2"/><path d="M287.82989,71.83091c1.46665,-19.45883 4.03019,60.72294 51.81693,82.64789c37.44896,17.1819 103.38086,-8.07612 100.416,-4.08965c-14.02387,18.8561 -47.24381,15.81461 -76.16161,15.81461c-19.1252,0 -52.27236,1.45245 -68.67457,-16.9042c-9.81993,-10.99004 -8.71919,-43.40864 -8.71919,-47.56654c0,0 1.22028,-28.54672 1.32244,-29.9021z" fill="#e47816" stroke-width="0"/></g><path d="M406.55007,97.87374c0,15.71752 -2.90507,28.45909 -6.48867,28.45909c-3.5836,0 -6.48867,-12.74157 -6.48867,-28.45908c0,-15.71752 2.90508,-28.45908 6.48867,-28.45908c3.5836,0 6.48867,12.74157 6.48867,28.45909z" data-paper-data="{&quot;index&quot;:null}" fill="#000000" stroke="none" stroke-width="0"/><path d="M432.91508,98.89828c0,15.65465 -2.75218,28.34525 -6.14716,28.34525c-3.39499,0 -6.14716,-12.6906 -6.14716,-28.34525c0,-15.65465 2.75218,-28.34525 6.14716,-28.34525c3.39499,0 6.14716,12.6906 6.14716,28.34525z" data-paper-data="{&quot;index&quot;:null}" fill="#000000" stroke="none" stroke-width="0"/><path d="M380.28197,138.09497c0,8.57141 -6.77479,15.51992 -15.13192,15.51992c-8.35713,0 -17.45991,-22.20976 -17.45991,-30.78117c0,-8.57141 9.10278,-0.25867 17.45991,-0.25867c8.35713,0 15.13192,6.9485 15.13192,15.51992z" fill="none" stroke="#000000" stroke-width="2.5"/></g></g></svg>