<svg version="1.1" xmlns="http://www.w3.org/2000/svg" xmlns:xlink="http://www.w3.org/1999/xlink" width="238.61696" height="338.55417" viewBox="0,0,238.61696,338.55417"><g transform="translate(-170.25353,-22.43324)"><g data-paper-data="{&quot;isPaintingLayer&quot;:true}" fill-rule="nonzero" stroke-linecap="butt" stroke-linejoin="miter" stroke-miterlimit="10" stroke-dasharray="" stroke-dashoffset="0" style="mix-blend-mode: normal"><g data-paper-data="{&quot;index&quot;:null}" stroke="#000000"><path d="M254.31378,209.82486c7.7422,32.42495 1.52045,39.79685 -6.34968,41.67602c-7.87015,1.87918 -20.52644,-22.88307 -28.26864,-55.30802c-7.74219,-32.42495 56.04869,1.43078 63.91883,-0.44839c6.67555,2.40114 2.53349,7.44505 -5.02285,9.60321c-9.31875,2.66152 -24.93942,1.70563 -24.27766,4.47718z" fill="#216aff" stroke-width="2"/><path d="M271.88759,231.37739c3.32315,13.91761 -5.5557,27.96332 -19.83148,31.372c-14.27579,3.40868 -28.54254,-5.1105 -31.86569,-19.02811c-3.32316,-13.91761 5.55571,-27.96333 19.83149,-31.372c14.27579,-3.40867 28.54253,5.11051 31.86568,19.02811z" fill="#faddbf" stroke-width="2"/><path d="M230.52646,229.25539c3.32315,13.91761 35.99057,29.15953 21.71478,32.56821c-14.27579,3.40868 -28.54254,-5.1105 -31.86568,-19.02812c-3.32316,-13.91761 6.82776,-27.45772 10.1509,-13.54009z" fill="#ef8b89" stroke-width="0"/></g><g data-paper-data="{&quot;index&quot;:null}" stroke="#000000"><path d="M275.84666,340.83535v-95.29492h29.49199v95.29492z" fill="#73fffc" stroke-width="2"/><path d="M276.82937,339.88894l18.60659,-13.13896c0,0 2.26208,-0.70825 2.52228,-2.78987c1.17702,-9.41615 6.3799,-77.52842 6.3799,-77.52842l1.32626,93.78573z" fill="#59a9e6" stroke-width="0"/></g><g data-paper-data="{&quot;index&quot;:null}" stroke="#000000"><path d="M356.92627,328.42877l-57.34315,-76.111l23.55492,-17.74663l57.34315,76.111z" fill="#73fffc" stroke-width="2"/><path d="M356.29429,328.13129l-55.37574,-75.7037c0,0 45.14164,51.26972 51.74782,58.08203c1.46042,1.50599 3.69331,0.71047 3.69331,0.71047l22.76717,-0.70246z" fill="#59a9e6" stroke-width="0"/></g><g data-paper-data="{&quot;index&quot;:null}" stroke="#000000"><path d="M297.2155,174.65787c18.48305,-3.28095 37.81379,18.54954 43.17644,48.75976c1.45954,8.22223 12.15146,31.98617 11.40513,39.33549c-1.99586,19.65369 -21.70914,18.91764 -35.16171,21.30562c-10.16833,1.80499 -31.71553,8.45949 -39.93008,-2.14995c-6.71709,-8.67542 -0.83394,-33.01955 -3.24636,-46.60981c-5.36264,-30.21022 5.27354,-57.36016 23.75658,-60.64111z" fill="#216aff" stroke-width="2"/><path d="M328.89182,194.39431c2.37703,0.96959 9.02028,19.23521 10.67237,28.54216c1.45954,8.22222 12.15146,31.98617 11.40512,39.33549c-1.99586,19.65368 -21.70913,18.91762 -35.1617,21.30561c-10.16833,1.80499 -31.71554,8.45949 -39.93008,-2.14995c-6.7171,-8.67541 53.19083,-26.16134 50.77841,-39.7516c-3.67441,-20.6996 -6.54656,-62.74895 2.23588,-47.2817z" fill="#3236f4" stroke-width="0"/></g><g data-paper-data="{&quot;index&quot;:null}" stroke="#000000"><g><path d="M297.29666,193.50252c-45.63279,10.34538 -91.01206,-18.2607 -101.35744,-63.89348c-10.34538,-45.63278 18.2607,-91.01206 63.89349,-101.35745c45.63279,-10.34538 91.01205,18.2607 101.35744,63.89349c10.34539,45.63279 -18.2607,91.01206 -63.89348,101.35744z" fill="#faddbf" stroke-width="2"/><path d="M360.77285,91.34812c10.34539,45.63279 -18.26071,91.01206 -63.89349,101.35745c-5.91286,1.3405 -18.46858,2.17721 -20.96145,1.91286c-1.5584,-0.16526 24.98629,-12.71858 41.82097,-30.17932c9.03334,-9.36927 11.91845,-24.79996 13.68399,-30.06304c1.48138,-0.78589 1.43421,-20.9149 1.42375,-20.97437c-4.38333,-24.93796 -43.0185,-80.04346 -35.81545,-84.31272c0.55208,-0.32722 13.72845,3.66656 24.69037,9.74143c8.81941,4.88753 15.84931,12.0538 16.43267,12.29794c5.10809,2.13768 19.29016,25.53806 22.61864,40.21977z" fill="#ef8b89" stroke-width="0"/><path d="M196.3484,129.04646c-8.07898,-35.63583 32.00809,-56.23491 75.56706,-44.98698c45.50713,11.75099 81.46047,-25.44547 89.53945,10.19037c4.01777,17.72211 -5.8831,11.75923 -22.22006,2.50288c-3.3836,-1.91711 -10.31533,12.90318 -14.18462,10.88467c-4.93194,-2.57286 -9.85138,-6.90204 -14.85259,-11.41598c-4.02711,-3.63477 -10.60122,15.24077 -14.78359,12.18692c-6.43616,-4.6995 -8.18122,-11.49258 -15.28091,-9.88301c-2.66965,0.60523 -7.24061,13.68052 -9.82076,14.60115c-2.0007,0.71387 -11.73929,-9.60032 -13.67373,-8.79022c-3.51289,1.47111 -9.53439,13.34596 -12.69003,15.21383c-1.26526,0.74894 -14.05913,-5.42541 -15.25952,-4.6686c-1.71685,1.08241 -6.40478,11.78798 -7.90507,12.9191c-2.38856,1.80081 -11.89606,-3.68056 -13.72984,-2.06332c-7.56758,6.67398 -5.44827,14.31913 -5.57986,16.286c-0.12897,1.92795 -2.55581,-1.64015 -5.12593,-12.97681z" fill="#ef8b89" stroke-width="0"/></g><path d="M193.01494,121.28039c-8.07898,-35.63583 23.01825,-85.90286 67.80845,-96.05722c44.79021,-10.15436 93.55315,24.64219 101.63213,60.27803c4.01777,17.72211 -6.09729,11.80779 -22.79096,2.63231c-3.45747,-1.90037 -10.64703,12.97839 -14.60179,10.97925c-5.04088,-2.54816 -10.05899,-6.85498 -15.15985,-11.34633c-4.10737,-3.61657 -10.95337,15.32062 -15.22318,12.28659c-6.57072,-4.66899 -8.3209,-11.46091 -15.6076,-9.80894c-2.73996,0.62117 -7.49971,13.73926 -10.14974,14.67573c-2.05489,0.72616 -11.97887,-9.54601 -13.96637,-8.72388c-3.60925,1.49296 -9.84905,13.4173 -13.09435,15.3055c-1.30122,0.75709 -14.38054,-5.35254 -15.61531,-4.58794c-1.76601,1.09355 -6.63219,11.83953 -8.17649,12.98063c-2.45863,1.8167 -12.1732,-3.61774 -14.0621,-1.988c-15.4359,13.31803 -5.80067,26.27643 -10.99281,3.37427z" fill="#724e36" stroke-width="2"/><path d="M192.99948,120.0916c-8.07898,-35.63583 33.1294,-56.48912 77.71577,-45.47412c46.58048,11.50765 83.64583,-25.94091 91.72481,9.69492c4.01777,17.72211 -6.09729,11.80779 -22.79096,2.63231c-3.45747,-1.90037 -10.64704,12.97838 -14.6018,10.97925c-5.04089,-2.54816 -10.05899,-6.85497 -15.15985,-11.34632c-4.10737,-3.61657 -10.95337,15.32061 -15.22318,12.28658c-6.57072,-4.66899 -8.3209,-11.46091 -15.6076,-9.80895c-2.73996,0.62117 -7.49971,13.73927 -10.14974,14.67573c-2.05489,0.72616 -11.97887,-9.546 -13.96637,-8.72387c-3.60925,1.49296 -9.84906,13.41729 -13.09435,15.30549c-1.30122,0.75709 -14.38054,-5.35254 -15.6153,-4.58794c-1.76602,1.09356 -6.6322,11.83953 -8.17651,12.98064c-2.45863,1.8167 -12.17319,-3.61774 -14.0621,-1.988c-15.4359,13.31803 -5.80067,26.27642 -10.9928,3.37426z" fill="#623728" stroke-width="0"/></g><g data-paper-data="{&quot;index&quot;:null}" stroke="#000000"><path d="M253.71738,82.60589c16.15849,-3.66329 34.37633,15.94566 40.69068,43.79781c6.31435,27.85214 -3.78445,45.24598 -19.94294,48.90927c-16.15849,3.66329 -32.2578,-7.79119 -38.57214,-35.64334c-6.31435,-27.85215 1.66591,-53.40045 17.8244,-57.06373z" fill="#f0f0f0" stroke-width="2"/><path d="M293.60421,125.73461c6.31435,27.85213 -3.78445,45.24598 -19.94294,48.90926c-10.40726,2.35942 -1.6261,-14.0121 3.15428,-33.06759c2.64173,-10.53041 4.06167,-21.88047 0.34638,-31.34205c-15.09081,-38.43108 10.12794,-12.35177 16.44229,15.50038z" fill="#9a99ff" stroke-width="0"/></g><path d="M269.9792,107.11525c5.64092,-1.27885 13.04969,10.19344 16.54796,25.62408c3.49827,15.43063 1.76131,28.97635 -3.8796,30.2552c-5.64092,1.27885 -13.04969,-10.19344 -16.54796,-25.62408c-3.49827,-15.43063 -1.76132,-28.97635 3.8796,-30.2552z" data-paper-data="{&quot;index&quot;:null}" fill="#000000" stroke="none" stroke-width="0"/><g data-paper-data="{&quot;index&quot;:null}" stroke="#000000"><path d="M234.09999,109.10444c1.98922,-10.44751 5.0191,-23.23889 20.34056,-26.71241c15.32146,-3.47352 20.43878,7.9479 26.67886,15.91411c6.55825,8.37241 -16.53402,45.60587 -31.85547,49.07939c-15.32145,3.47352 -17.25124,-27.31845 -15.16395,-38.28107z" fill="#a100fe" stroke-width="2"/><path d="M234.96075,108.72087c1.84789,-10.41548 9.63388,-1.33621 24.43291,-4.69129c14.79903,-3.35508 14.88598,-13.74213 20.98225,-5.74331c6.40711,8.40667 -17.8562,45.86568 -32.65522,49.22076c-14.79903,3.35508 -14.69893,-27.85715 -12.75993,-38.78615z" fill="#99008e" stroke-width="0"/></g><g data-paper-data="{&quot;index&quot;:null}" stroke="#000000"><path d="M231.9316,139.05156c6.31435,27.85215 -3.27115,45.12961 -19.42964,48.79289c-16.15849,3.66329 -32.7711,-7.67484 -39.08544,-35.52697c-6.31435,-27.85215 1.66592,-53.40044 17.82441,-57.06373c16.15849,-3.66329 34.37633,15.94566 40.69068,43.79781z" fill="#f0f0f0" stroke-width="2"/><path d="M182.00337,130.29142c2.04617,28.48554 47.09379,52.93939 30.93529,56.60268c-16.15849,3.66329 -32.7711,-7.67484 -39.08544,-35.52697c-6.31435,-27.85215 5.19199,-62.25738 8.15015,-21.07571z" fill="#9a99ff" stroke-width="0"/></g><path d="M232.19489,143.21497c3.49827,15.43063 1.76132,28.97634 -3.87959,30.25519c-5.64092,1.27885 -13.04969,-10.19344 -16.54796,-25.62408c-3.49827,-15.43063 -1.76131,-28.97635 3.8796,-30.2552c5.64092,-1.27885 13.04968,10.19345 16.54795,25.62408z" data-paper-data="{&quot;index&quot;:null}" fill="#000000" stroke="none" stroke-width="0"/><g data-paper-data="{&quot;index&quot;:null}" stroke="#000000"><path d="M220.40564,110.86772c6.61089,8.99066 19.0618,37.18716 3.74034,40.66069c-15.32146,3.47352 -53.12594,-19.74385 -50.81952,-30.12596c2.19452,-9.87842 1.88601,-22.39004 17.20746,-25.86356c15.32145,-3.47352 23.57144,6.76061 29.8717,15.32882z" fill="#a100fe" stroke-width="2"/><path d="M219.27044,110.04077c6.46259,9.02428 19.40765,37.76429 4.60862,41.11937c-14.79903,3.35508 -52.23882,-20.60049 -50.08353,-30.94834c2.05073,-9.84582 6.60862,-0.51179 21.40765,-3.86687c14.79903,-3.35508 17.90831,-14.90441 24.06725,-6.30416z" fill="#99008e" stroke-width="0"/></g><path d="M241.46751,338.87003c0,-11.6628 13.71248,-9.87692 31.62358,-9.87692c14.33063,0 27.65301,-10.77791 32.14847,-5.26144c1.12318,1.37828 1.08979,12.80695 1.08979,15.13837c0,11.6628 -14.51982,21.11737 -32.43092,21.11737c-17.9111,0 -32.43092,-9.45457 -32.43092,-21.11737z" data-paper-data="{&quot;index&quot;:null}" fill="#000082" stroke="#000000" stroke-width="2"/><path d="M274.34813,329.56302c14.33063,0 25.38775,-8.75646 29.88321,-5.7726c1.12318,0.74551 1.0898,12.01046 1.0898,13.27153c0,6.30841 -12.25456,9.26589 -30.16566,9.26589c-17.91111,0 -31.80169,-3.88169 -31.80169,-10.1901c0,-6.30841 13.08324,-6.57472 30.99434,-6.57472z" data-paper-data="{&quot;index&quot;:null}" fill="#2e0048" stroke="#000000" stroke-width="0"/><path d="M404.9149,292.03857c7.01802,9.31495 1.11043,25.60342 -13.19497,36.38132c-14.3054,10.7779 -31.59145,11.96385 -38.60947,2.6489c-1.40292,-1.86208 -8.30672,-10.96994 -8.23902,-12.74662c0.27097,-7.11106 17.39695,-6.51952 28.84267,-15.1429c14.3054,-10.7779 24.18277,-20.45567 31.20078,-11.14071z" data-paper-data="{&quot;index&quot;:null}" fill="#000082" stroke="#000000" stroke-width="2"/><path d="M401.7642,290.99136c3.79605,5.03846 -4.96242,16.4973 -19.26783,27.2752c-14.3054,10.7779 -25.87263,15.7899 -29.66868,10.75144c-0.75884,-1.0072 -7.56412,-9.98431 -7.11565,-11.25561c1.79496,-5.08829 15.8953,-4.74816 27.34101,-13.37153c14.3054,-10.7779 24.91509,-18.43796 28.71114,-13.3995z" data-paper-data="{&quot;index&quot;:null}" fill="#2e0048" stroke="#000000" stroke-width="0"/><g data-paper-data="{&quot;index&quot;:null}" stroke="#000000"><path d="M360.96247,197.45229c-0.30845,-2.83272 -14.69871,3.31862 -24.36985,3.9446c-7.84209,0.5076 -13.43867,-2.85037 -7.95879,-7.35584c8.04384,-0.87583 56.74133,-54.2054 60.34974,-21.06482c3.60841,33.14059 0.0128,60.71634 -8.03105,61.59216c-8.04384,0.87583 -16.38167,-3.97554 -19.99007,-37.11612z" fill="#216aff" stroke-width="2"/><path d="M351.65651,223.65819c-1.54881,-14.22478 9.02385,-27.04412 23.61469,-28.6328c14.59085,-1.58868 27.67465,8.6549 29.22347,22.87968c1.54881,14.22478 -9.02384,27.04412 -23.6147,28.6328c-14.59085,1.58868 -27.67465,-8.6549 -29.22346,-22.87968z" fill="#faddbf" stroke-width="2"/><path d="M389.89729,207.75563c-1.54883,-14.22478 12.56302,-4.88503 14.11183,9.33975c1.54883,14.22478 -9.02384,27.04413 -23.61469,28.63281c-14.59085,1.58868 11.05167,-23.74778 9.50286,-37.97256z" fill="#ef8b89" stroke-width="0"/></g><path d="M331.52796,166.26841c0,8.23476 -4.51846,5.0311 -12.34906,5.0311c-7.8306,0 -16.00805,3.20366 -16.00805,-5.0311c0,-8.23476 6.34796,-14.91036 14.17856,-14.91036c7.8306,0 14.17856,6.6756 14.17856,14.91036z" fill="#000000" stroke="none" stroke-width="0"/></g></g></svg>