<svg version="1.1" xmlns="http://www.w3.org/2000/svg" xmlns:xlink="http://www.w3.org/1999/xlink" width="336.07274" height="336.07274" viewBox="0,0,336.07274,336.07274"><g transform="translate(-151.96363,-11.96363)"><g data-paper-data="{&quot;isPaintingLayer&quot;:true}" fill-rule="nonzero" stroke-linejoin="miter" stroke-miterlimit="10" stroke-dasharray="" stroke-dashoffset="0" style="mix-blend-mode: normal"><g data-paper-data="{&quot;index&quot;:null}" stroke="#000000" stroke-linecap="round"><path d="M340.22473,162.79308c0,0 16.78812,-0.97838 16.52224,5.4375c-0.72161,17.41399 -29.59455,10.6959 -29.59455,10.6959z" data-paper-data="{&quot;origPos&quot;:null}" fill="#66c8ff" stroke-width="2"/><path d="M339.39137,164.22752c0,0 12.16287,-0.13287 12.77215,1.77504c0.19214,0.60174 -16.28526,1.88427 -16.28526,1.88427z" data-paper-data="{&quot;origPos&quot;:null}" fill="#0a0a0a" stroke-width="1"/></g><g data-paper-data="{&quot;index&quot;:null}"><g><g><g data-paper-data="{&quot;origRot&quot;:0}" stroke="#000000" stroke-width="3" stroke-linecap="round"><path d="M274.25083,225.48604c0,0 -8.18816,-28.56571 -5.20793,-29.7748c5.37358,-2.18009 18.52831,-3.82131 18.52831,-3.82131l11.14213,-2.35554l-4.28762,0.50075c0,0 3.11207,-16.55198 5.65653,-19.60942c1.33679,-1.60629 11.5041,-1.10662 13.51881,0.43594c4.51962,3.46046 8.04373,41.64041 3.63245,43.68268c-10.92466,3.31044 -34.02923,10.41388 -34.02923,10.41388c0,0 -8.66237,2.91801 -8.95342,0.52788z" data-paper-data="{&quot;origPos&quot;:null}" fill="#582700"/><path d="M284.25133,223.02671l-4.88668,-29.05773" fill="none"/><path d="M288.3619,222.42383l-4.59641,-29.12054" data-paper-data="{&quot;origPos&quot;:null}" fill="none"/></g><path d="M279.7302,193.82529l2.85288,-0.59982l4.80304,29.76484l-2.85288,0.59982z" fill="#ffffff" stroke="none" stroke-width="0" stroke-linecap="butt"/><path d="M315.99348,214.62666l-27.2118,8.20114l-3.76074,-29.49033l13.47398,-2.83735l-0.19793,-1.95767l-3.09228,0.23151l5.21941,-17.71143l1.53377,-0.23811l7.6688,-1.1905l4.18079,2.83062l2.86153,7.7578l2.63092,23.45204l-1.74795,10.95886z" fill="#66c8ff" stroke="#000000" stroke-width="0.5" stroke-linecap="round"/></g><g fill="#fffc96" stroke="#000000" stroke-width="2" stroke-linecap="round"><path d="M288.70695,192.06371c0,0 4.49849,3.58845 12.43608,6.83428c8.0491,3.29144 15.12005,4.61292 15.12005,4.61292l1.48919,-1.64717c0,0 2.85375,2.16344 1.46261,4.10535c-3.40489,4.75287 -37.55368,-10.15462 -34.55655,-14.88793c1.87327,-2.95842 6.26464,-0.68549 6.26464,-0.68549z"/><path d="M297.27401,184.5139c0,0 0.54948,6.46115 3.69888,15.04336c3.14936,8.58223 6.36962,13.73384 6.36962,13.73384l1.12836,-1.17974c0,0 2.35383,3.17906 0.03846,5.56817c-3.82312,3.94494 -18.40215,-33.71282 -13.61163,-36.86143c2.28213,-1.49994 3.56234,2.71046 3.56234,2.71046z" data-paper-data="{&quot;index&quot;:null}"/></g></g><g><g data-paper-data="{&quot;index&quot;:null}"><path d="M270.64801,192.34535c2.40505,-0.83987 5.20162,-5.82998 5.86759,-3.7197c0.44365,1.40586 1.67202,22.63543 0.50627,24.29872c-0.58409,0.83338 -1.70339,1.63122 -2.5062,1.91159c-1.17997,0.41206 -2.34108,0.16387 -3.32317,-0.52983c-1.01961,-0.72022 -7.61919,-20.21369 -7.95841,-21.28858c-0.66596,-2.1103 5.00885,0.16764 7.4139,-0.67223z" fill="#0091d4" stroke="#000000" stroke-width="1.5" stroke-linecap="butt"/><g stroke-linecap="butt"><path d="M268.4231,185.3723c4.35736,-1.52165 8.58513,-0.55158 9.44295,2.16669c0.85782,2.71828 -1.97914,6.15542 -6.33651,7.67706c-4.35736,1.52163 -8.58513,0.55154 -9.44295,-2.16673c-0.85786,-2.71826 1.97907,-6.15539 6.33646,-7.67703z" fill="#0091d4" stroke="#000000" stroke-width="1.5"/><path d="M274.25229,190.16519l3.07578,-2.73711c0,0 -0.15452,1.97539 -0.53891,2.7378c-0.82953,1.58817 -2.3521,2.51988 -2.3521,2.51988z" fill="#00aeff" stroke="none" stroke-width="0"/><path d="M271.0219,192.14642l1.49545,-0.839c0,0 0.41126,0.91546 0.49417,1.2588c0.09707,0.40202 0.04647,1.19095 0.04647,1.19095l-1.88931,0.71377z" fill="#00aeff" stroke="none" stroke-width="0"/></g><g><path d="M270.21487,191.43529c-6.01105,2.09912 -10.39871,-0.0798 -12.19097,-5.75905c-1.79224,-5.67922 1.93584,-12.0924 7.94695,-14.19155c6.01109,-2.09911 11.53717,0.43617 13.32943,6.11542c1.79222,5.67922 -3.07426,11.73604 -9.08537,13.83519z" fill="#00699a" stroke="#000000" stroke-width="1.5" stroke-linecap="butt"/><path d="M268.25963,171.56592c0,0 8.55319,-0.42573 10.12127,4.54318c0.88924,2.8177 0.35891,6.2452 -0.77825,9.01549c-0.81017,1.9737 -2.44187,3.74777 -4.56664,4.48976c-4.36749,1.52513 -6.50053,0.23002 -8.06861,-4.73889c-0.78308,-2.48141 -0.20715,-6.0661 1.02095,-8.75745c1.23108,-2.69788 2.27127,-4.5521 2.27127,-4.5521z" fill="#0091d4" stroke="none" stroke-width="0" stroke-linecap="butt"/><path d="M278.98468,177.77942c0,0 -1.73755,4.93271 -8.61644,7.59483c-6.93526,2.68394 -11.21684,0.33301 -11.21684,0.33301" fill="none" stroke="#000000" stroke-width="0.8" stroke-linecap="round"/><path d="M279.15496,182.72935c0,0 -3.38908,3.59907 -7.59632,5.76568c-6.06318,3.12237 -9.1642,2.02838 -9.1642,2.02838" fill="none" stroke="#000000" stroke-width="0.75" stroke-linecap="round"/><path d="M276.64119,173.71362c0,0 -2.1109,4.41517 -8.86568,7.44539c-6.49687,2.91453 -9.13808,1.65947 -9.13808,1.65947" fill="none" stroke="#000000" stroke-width="0.8" stroke-linecap="round"/><path d="M258.28777,181.5004c0,0 3.43085,-3.66346 6.53731,-5.67855c4.0917,-2.65421 8.69954,-4.21336 8.69954,-4.21336" fill="none" stroke="#000000" stroke-width="0.8" stroke-linecap="round"/><path d="M267.6727,191.49798c0,0 -3.42536,-2.30382 -5.56984,-8.19898c-2.00115,-5.5012 0.14112,-9.00356 0.14112,-9.00356" fill="none" stroke="#000000" stroke-width="0.8" stroke-linecap="round"/><path d="M264.36382,173.24204c0,0 0.69598,2.90588 1.9622,5.8978c1.11353,2.63111 2.7722,5.27816 3.34559,6.77325c0.68103,1.77576 1.42688,4.88949 1.42688,4.88949" fill="none" stroke="#000000" stroke-width="0.8" stroke-linecap="round"/><path d="M266.94971,171.77551c0,0 4.50198,3.31499 5.84831,7.17255c2.11309,6.05457 1.01096,10.78276 1.01096,10.78276" fill="none" stroke="#000000" stroke-width="0.8" stroke-linecap="round"/><path d="M270.55454,171.0176c0,0 3.40967,2.26598 5.30478,5.88909c2.72904,5.21743 2.15696,8.72497 2.15696,8.72497" fill="none" stroke="#000000" stroke-width="0.8" stroke-linecap="round"/><path d="M277.10065,177.05977c-0.4286,0.14966 -0.89562,-0.10777 -1.04306,-0.57502c-0.14747,-0.46726 0.08048,-0.96737 0.50908,-1.11704c0.42861,-0.14968 0.89562,0.10776 1.04306,0.57501c0.14747,0.46725 -0.08048,0.96736 -0.50908,1.11703z" fill="#00aeff" stroke="none" stroke-width="0" stroke-linecap="butt"/><path d="M275.23829,174.20358c-0.24727,0.08635 -0.50751,-0.03306 -0.58123,-0.26667c-0.07372,-0.23361 0.06699,-0.49301 0.31425,-0.57937c0.24725,-0.08636 0.50749,0.03304 0.58121,0.26665c0.07374,0.2336 -0.06697,0.49299 -0.31423,0.57935z" fill="#00aeff" stroke="none" stroke-width="0" stroke-linecap="butt"/></g></g><path d="M274.44869,193.38264c0.65138,-0.72835 2.85392,-1.07599 2.85392,-1.07599l5.32367,-1.14195c0,0 1.27315,0.41136 1.57967,1.07178c0.9196,1.98124 2.04136,5.98628 3.45799,10.08671c0.23546,0.68156 -0.77069,1.19236 -0.77069,1.19236c0,0 -1.67802,0.55132 -2.75206,0.90418c-1.63566,0.53741 -4.19115,1.377 -4.19115,1.377c0,0 -1.25445,0.57659 -1.65717,-0.68194c0,0 -1.21291,-1.51237 -3.84422,-11.73216z" fill="#582700" stroke="#000000" stroke-width="3" stroke-linecap="round"/><path d="M262.2264,198.78484c1.11853,-1.41152 5.12915,-1.89828 5.12915,-1.89828l9.66132,-1.78795c0,0 2.38448,0.95944 3.01927,2.32802c1.9044,4.10579 4.39919,12.3326 7.44617,20.78181c0.50647,1.40441 -1.28761,2.34004 -1.28761,2.34004c0,0 -3.0246,0.95133 -4.96049,1.56023c-2.94819,0.92729 -7.55437,2.37609 -7.55437,2.37609c0,0 -2.24335,1.04448 -3.11959,-1.54563c0,0 -2.39275,-3.18463 -8.33387,-24.15432z" fill="#582700" stroke="#000000" stroke-width="3" stroke-linecap="round"/></g></g><g data-paper-data="{&quot;origRot&quot;:0,&quot;index&quot;:null}" stroke="#000000" stroke-linecap="round"><path d="M319.73533,262.8555c0,0 0.35841,4.33071 -0.76836,6.35897c-0.86256,1.55273 -2.80713,1.91182 -4.65463,2.14278c-5.07115,0.63395 -9.82139,-1.28273 -17.7238,-2.16301c-2.15227,-0.23973 -2.99017,-3.34934 -2.59625,-5.35229c0.36844,-1.87337 1.13103,-5.10861 1.13103,-5.10861l6.94954,-31.41709c0,0 1.04105,-4.03991 2.90502,-4.57883c4.48875,-1.29783 8.90198,0.60304 13.58948,0.87455c1.58853,0.09203 1.13622,4.72551 1.13622,4.72551z" data-paper-data="{&quot;origPos&quot;:null}" fill="#ff0000" stroke-width="3"/><path d="M294.91485,259.76905l23.87616,2.74206c0,0 0.86882,2.52945 0.62069,4.1491c-0.23554,1.53747 -1.86007,3.94064 -1.86007,3.94064c0,0 -8.77699,0.27338 -12.78673,-0.05682c-5.22621,-0.43038 -11.09011,-3.46642 -11.09011,-3.46642z" data-paper-data="{&quot;origPos&quot;:null}" fill="#976e57" stroke-width="2"/><path d="M319.62282,263.15842c0,0 0.3584,4.33071 -0.76837,6.35897c-0.86256,1.55271 -2.80712,1.91182 -4.65462,2.14278c-5.07115,0.63395 -9.82139,-1.28274 -17.7238,-2.16302c-2.15226,-0.23974 -2.99017,-3.34934 -2.59625,-5.35229c0.36844,-1.87336 1.13105,-5.10861 1.13105,-5.10861l6.94954,-31.41709c0,0 1.04104,-4.0399 2.90501,-4.57882c4.48876,-1.29785 8.902,0.60302 13.58949,0.87453c1.58853,0.09202 1.13622,4.7255 1.13622,4.7255z" data-paper-data="{&quot;origPos&quot;:null}" fill="#4b4b4b" stroke-width="3"/></g><path d="M325.61325,263.55517c0,0 -1.24469,-12.2631 -2.04135,-20.11211c-0.56446,-5.56124 -1.44635,-14.24996 -1.44635,-14.24996c0,0 -0.92263,-4.57143 0.64919,-4.80607c4.63823,-0.6924 8.83736,-2.98193 13.43778,-2.09429c1.91033,0.36858 3.35846,4.29614 3.35846,4.29614l10.12073,30.64671c0,0 1.08893,3.15168 1.64667,4.98324c0.59631,1.95824 0.0793,5.12899 -2.03861,5.56145c-7.7763,1.58784 -12.30926,3.9235 -17.4217,3.74913c-1.86254,-0.06353 -3.83476,-0.24587 -4.85168,-1.71377c-1.32836,-1.91746 -1.41317,-6.26051 -1.41317,-6.26051z" data-paper-data="{&quot;index&quot;:null}" fill="#4b4b4b" stroke="#000000" stroke-width="3" stroke-linecap="round"/><g data-paper-data="{&quot;index&quot;:null}"><path d="M340.76325,208.80759c0,0 1.78031,15.20205 -0.47436,15.59533c-6.76407,1.1799 -24.73116,1.31776 -40.01775,2.13927c-1.71723,0.0923 -2.3474,-14.39511 -2.3474,-14.39511l0.03014,-29.73565c0,0 0.56256,-13.16854 2.13671,-13.25313c10.18277,-0.54724 25.36314,-2.26648 32.12405,-1.03424c2.25364,0.41075 5.10061,14.24647 5.10061,14.24647z" data-paper-data="{&quot;origPos&quot;:null}" fill="#66c8ff" stroke="#000000" stroke-width="3.5" stroke-linecap="round"/><path d="M318.39512,191.34676c-1.32993,0.07145 -1.47637,-2.33554 -1.47637,-2.33554l-0.09764,-1.60467c-0.30377,-4.99231 -0.60751,-9.98461 -0.91127,-14.97692c0,0 -0.14647,-2.407 1.18345,-2.47848c1.32992,-0.07147 1.47637,2.33554 1.47637,2.33554c0.30375,4.99231 0.70515,11.58928 1.00891,16.58159c0,0 0.14647,2.40699 -1.18345,2.47847z" fill="#ffffff" stroke="none" stroke-width="0.5" stroke-linecap="butt"/><path d="M306.27268,191.59377c-1.32993,0.07148 -1.5139,-2.95241 -1.5139,-2.95241l-0.12265,-2.01592c-0.38161,-6.27175 -0.76321,-12.54349 -1.14482,-18.81524c0,0 -0.18399,-3.02388 1.14593,-3.09536c1.32993,-0.07148 1.5139,2.95241 1.5139,2.95241c0.38161,6.27175 0.88586,14.5594 1.26747,20.83115c0,0 0.18399,3.02387 -1.14593,3.09535z" fill="#ffffff" stroke="none" stroke-width="0.5" stroke-linecap="butt"/></g><g data-paper-data="{&quot;index&quot;:null}" fill="none" stroke="#b9b9b9" stroke-width="3"><path d="M304.67686,174.51169c-1.27597,1.81679 -2.27499,0.70169 -3.49001,-0.52093c-0.95138,-0.95733 -2.44995,-1.95438 -0.90989,-3.90655c0.72637,-0.92069 1.9775,-0.51744 3.19249,0.70516c1.215,1.22262 2.11091,2.43589 1.20742,3.72232z" stroke-linecap="butt"/><path d="M303.68449,173.90502l2.57534,2.53106" stroke-linecap="round"/><path d="M309.89145,177.16988c1.215,1.22263 2.1109,2.4359 1.20741,3.72233c-1.27598,1.81679 -2.27501,0.70168 -3.49001,-0.52093c-0.95138,-0.95733 -2.44994,-1.95438 -0.90988,-3.90655c0.72636,-0.92069 1.97748,-0.51744 3.19248,0.70516z" stroke-linecap="butt"/><path d="M312.68184,182.8166l-2.57534,-2.53106" stroke-linecap="round"/><path d="M318.49311,182.57554c0.49708,2.25645 -0.8814,2.51271 -2.46485,2.90387c-1.23988,0.30628 -2.837,1.09286 -3.26933,-1.48737c-0.20389,-1.21695 0.83055,-2.12907 2.414,-2.52024c1.58345,-0.39116 2.96822,-0.49404 3.3202,1.10371z" stroke-linecap="butt"/><path d="M320.78706,182.2632l-3.31422,0.8651" stroke-linecap="round"/><path d="M326.07642,178.5895c1.2304,1.8453 0.0486,2.7044 -1.2758,3.78005c-1.03705,0.84226 -2.23863,2.28691 -3.52027,0.11521c-0.60446,-1.02426 0.03592,-2.32942 1.36032,-3.40506c1.32439,-1.07564 2.5645,-1.79688 3.43575,-0.49023z" stroke-linecap="butt"/><path d="M325.326,179.55848l2.75614,-2.29393" stroke-linecap="round"/><path d="M333.00755,172.88512c1.23041,1.84531 0.04862,2.70441 -1.27578,3.78005c-1.03704,0.84226 -2.23863,2.28689 -3.52027,0.1152c-0.60445,-1.02426 0.03592,-2.32942 1.36033,-3.40506c1.32438,-1.07564 2.5645,-1.79685 3.43575,-0.49022z" stroke-linecap="butt"/><path d="M335.01329,171.56016l-2.75614,2.29393" stroke-linecap="round"/></g><path d="M295.91928,168.55051c0,0 -2.11763,-3.96239 -2.2794,-5.0035c-0.48528,-3.12332 -1.65236,-16.83156 -2.66333,-29.22432c-0.15638,-1.91684 1.26221,-5.0315 1.26221,-5.0315c0,0 2.13623,-1.73638 3.43307,-1.83653c14.308,-1.10486 27.83616,-3.21276 33.26584,-2.09966c1.80989,0.37103 5.18389,1.81675 5.18389,1.81675c0,0 1.07734,4.195 1.30448,5.2782c0.07572,0.36106 0.11939,0.56423 0.17209,0.92889c1.57899,10.92648 2.15636,23.66057 2.13603,28.12381c-0.00677,1.48776 -1.68604,3.93195 -1.68604,3.93195c0,0 -1.2115,2.73832 -5.67188,3.8461c-4.88043,1.21211 -16.95629,1.72007 -29.41077,2.20783z" data-paper-data="{&quot;index&quot;:null}" fill="#582700" stroke="#000000" stroke-width="2.5" stroke-linecap="round"/><path d="M302.51377,150.6705c0.27159,3.32915 0.0663,6.05864 -0.45849,6.09644c-0.52479,0.03782 -1.17038,-2.63037 -1.44196,-5.95952c-0.27158,-3.32915 -0.06629,-6.05864 0.4585,-6.09644c0.52479,-0.03782 1.17038,2.63036 1.44196,5.95951z" data-paper-data="{&quot;index&quot;:null}" fill="none" stroke="#000000" stroke-width="2.5" stroke-linecap="butt"/><path d="M308.15617,150.52139c0.27661,3.39082 0.18175,6.16258 -0.21184,6.19095c-0.39359,0.02834 -0.93689,-2.69746 -1.2135,-6.08827c-0.27661,-3.39081 -0.18176,-6.1626 0.21183,-6.19097c0.39357,-0.02836 0.9369,2.69747 1.21351,6.08828z" data-paper-data="{&quot;index&quot;:null}" fill="none" stroke="#000000" stroke-width="2.5" stroke-linecap="butt"/><path d="M338.57818,127.73722c-0.62769,1.05821 -1.75366,0.46831 -1.75366,0.46831l-0.77588,-0.45201c-0.09437,-0.02288 -0.18868,-0.04526 -0.2829,-0.06719c-0.20256,0.31743 -0.61625,0.70029 -1.39154,0.52021c-0.71457,-0.16599 -0.92028,-0.62063 -0.96528,-0.98018c-2.75511,-0.43921 -5.48562,-0.54796 -8.3455,-0.57948c-7.98715,0.16854 -15.94393,0.91909 -23.90711,1.51498c-2.61156,0.19543 -8.37331,1.62026 -10.69248,0.15366c-1.13106,-0.71525 -0.87296,-2.61145 -1.06242,-3.62121c-0.54899,-2.92604 -1.18717,-5.95031 -1.45009,-8.91329c-0.31612,-3.87494 -2.15043,-7.21931 -2.99106,-10.98025c-0.42144,-1.88548 -1.26975,-3.74923 0.405,-5.53087c0.47286,-0.50306 1.39467,-0.29903 2.10277,-0.38677c2.58789,-0.3207 5.11676,-0.34113 7.71118,-0.24525c8.22174,0.30384 16.31747,0.20612 24.5232,0.98298c3.31046,0.31708 6.60549,0.13837 9.92916,-0.00338c1.9534,-0.08329 3.68665,-0.73828 5.02807,1.26756c0.80108,1.19785 0.61293,5.10493 0.6781,6.54099c0.25134,5.53744 1.74799,12.24726 0.98172,17.89342c0.1236,0.02836 0.24729,0.05749 0.37113,0.08732l1.38933,0.68234c0,0 1.12598,0.5899 0.4983,1.64811z" data-paper-data="{&quot;index&quot;:null}" fill="#000000" stroke="none" stroke-width="0.5" stroke-linecap="butt"/><g data-paper-data="{&quot;index&quot;:null}"><g stroke="#000000" stroke-width="3" stroke-linecap="round"><path d="M362.86896,194.3507c0,0 5.85654,8.83683 6.7443,13.22404c-13.68231,10.17256 -23.97571,10.34565 -23.97571,10.34565c-1.85962,0.9092 -4.20291,-5.78909 -4.20291,-5.78909c0,0 -5.03053,-12.93521 -8.25034,-21.21437c-2.11423,-5.43643 -5.4175,-13.93021 -5.4175,-13.93021c0,0 -1.84241,-5.47488 -0.79672,-5.89144c6.29102,-2.50614 11.85418,-6.09717 15.41598,-6.28169c1.18727,-0.0615 4.32987,4.62446 4.32987,4.62446l16.15304,24.91266z" data-paper-data="{&quot;origPos&quot;:null}" fill="#582700"/><path d="M365.19992,199.48342l-23.96049,10.56346l-1.47662,-2.99106l23.88632,-10.80424z" data-paper-data="{&quot;origPos&quot;:null}" fill="none"/></g><path d="M339.36137,206.7415l-12.27686,-33.8188l0.89605,-1.11808l14.70558,-6.6235l20.08142,30.96703z" fill="#66c8ff" stroke="#000000" stroke-width="1" stroke-linecap="round"/><path d="M341.01115,209.67078l-1.02365,-2.04431l23.79554,-10.5242l1.02366,2.04428z" fill="#ffffff" stroke="none" stroke-width="0" stroke-linecap="butt"/></g><path d="M303.93005,144.57646c-0.30208,-0.66919 0.40998,-0.95308 0.40998,-0.95308l0.56678,-0.21244c0.92221,-0.55567 1.90788,-0.93006 2.93856,-1.12067c0.0759,-0.03282 0.15216,-0.06541 0.22882,-0.09775c0.02033,-0.00943 0.04084,-0.01897 0.06153,-0.02859l0.02989,-0.01527l-0.03599,-0.08698l0.75515,-0.27601c0.07322,-0.02861 0.1524,-0.04704 0.23572,-0.05327c0.42582,-0.03188 0.79851,0.26672 0.83242,0.66691c0.02511,0.29634 -0.14258,0.5653 -0.4042,0.69788c-0.13462,0.1337 -0.28941,0.19541 -0.28941,0.19541c-0.16444,0.06548 -0.32674,0.13137 -0.48729,0.19817c-0.67021,0.32765 -1.20936,0.77963 -1.79374,0.83636c-0.12453,0.06582 -0.24892,0.13351 -0.37342,0.20328l-0.61985,0.53245c-0.12322,0.10789 -0.28462,0.17889 -0.46553,0.19244c-0.2637,0.01975 -0.50704,-0.08727 -0.66215,-0.26665c-0.19916,0.05097 -0.68986,0.11379 -0.92728,-0.41219z" data-paper-data="{&quot;index&quot;:null}" fill="#582700" stroke="none" stroke-width="0.5" stroke-linecap="butt"/><path d="M318.29905,157.81091c0.7095,-0.28945 1.01749,0.37736 1.01749,0.37736l0.57774,1.26461c0.59802,4.16807 -3.7759,4.45408 -7.1512,3.58051c0,0 -0.7455,-0.19367 -0.53943,-0.89431c0.20607,-0.70063 0.95159,-0.50696 0.95159,-0.50696c1.84856,0.48219 5.89258,0.98743 5.25519,-1.76824l-0.51291,-1.09668c0,0 -0.30799,-0.6668 0.40152,-0.95625z" data-paper-data="{&quot;index&quot;:null}" fill="#000000" stroke="none" stroke-width="0.5" stroke-linecap="butt"/><path d="M151.96363,348.03637v-336.07274h336.07274v336.07274z" data-paper-data="{&quot;index&quot;:null}" fill="none" stroke="#000000" stroke-width="0" stroke-linecap="butt"/></g></g></svg>