<svg version="1.1" xmlns="http://www.w3.org/2000/svg" xmlns:xlink="http://www.w3.org/1999/xlink" width="208.03556" height="327.2163" viewBox="0,0,208.03556,327.2163"><g transform="translate(-178.26939,-34.45022)"><g data-paper-data="{&quot;isPaintingLayer&quot;:true}" fill-rule="nonzero" stroke-linecap="butt" stroke-linejoin="miter" stroke-miterlimit="10" stroke-dasharray="" stroke-dashoffset="0" style="mix-blend-mode: normal"><g data-paper-data="{&quot;index&quot;:null}" stroke="#000000"><path d="M275.84666,340.83535v-95.29492h29.49199v95.29492z" fill="#73fffc" stroke-width="2"/><path d="M276.82937,339.88894l18.60659,-13.13896c0,0 2.26208,-0.70825 2.52228,-2.78987c1.17702,-9.41615 6.3799,-77.52842 6.3799,-77.52842l1.32626,93.78573z" fill="#59a9e6" stroke-width="0"/></g><g data-paper-data="{&quot;index&quot;:null}" stroke="#000000"><path d="M316.56253,339.73674v-95.29492h29.49199v95.29492z" fill="#73fffc" stroke-width="2"/><path d="M316.23677,339.11885l1.32626,-93.78573c0,0 5.20288,68.11227 6.3799,77.52842c0.2602,2.08162 2.52228,2.78987 2.52228,2.78987l18.60659,13.13896z" fill="#59a9e6" stroke-width="0"/></g><g data-paper-data="{&quot;index&quot;:null}" stroke="#000000"><path d="M297.18767,172.93826c18.6501,-2.13567 36.5988,20.84458 40.08952,51.32786c0.95006,8.29654 10.15719,32.67422 8.95937,39.96358c-3.20325,19.49333 -22.83369,17.54384 -36.40786,19.09826c-10.26023,1.17492 -32.17657,6.48892 -39.72169,-4.60659c-6.1697,-9.07288 1.2025,-33.00818 -0.36782,-46.72128c-3.49072,-30.48328 8.79838,-56.92615 27.44848,-59.06183z" fill="#216aff" stroke-width="2"/><path d="M327.5875,194.58926c2.31277,1.11424 7.81774,19.75453 8.89314,29.14561c0.95006,8.29653 10.15721,32.67421 8.95937,39.96357c-3.20325,19.49333 -22.83369,17.54384 -36.40785,19.09825c-10.26023,1.17492 -32.17657,6.48891 -39.72169,-4.60658c-6.1697,-9.07286 54.70194,-22.83369 53.13162,-36.54677c-2.39179,-20.8867 -2.66716,-63.03313 5.1454,-47.05405z" fill="#3236f4" stroke-width="0"/></g><g data-paper-data="{&quot;index&quot;:null}" stroke="#000000"><g><path d="M284.06445,207.6362c-46.78974,0.31356 -84.9745,-37.36283 -85.28806,-84.15257c-0.31356,-46.78974 37.36284,-84.9745 84.15258,-85.28806c46.78974,-0.31356 84.9745,37.36283 85.28806,84.15258c0.31356,46.78974 -37.36284,84.9745 -84.15258,85.28806z" fill="#faddbf" stroke-width="2"/><path d="M367.98044,121.4802c0.31356,46.78974 -37.36284,84.97451 -84.15258,85.28806c-6.06277,0.04063 -18.50561,-1.83608 -20.88371,-2.62914c-1.48665,-0.49578 27.13326,-7.06136 47.32223,-20.50344c10.83322,-7.2129 16.96193,-21.66519 19.81558,-26.42689c1.6155,-0.44975 5.88828,-20.12009 5.89083,-20.18042c1.06941,-25.29766 -24.84265,-87.40933 -16.89134,-90.03368c0.60944,-0.20115 12.62203,6.52673 22.02525,14.81209c7.56535,6.66599 12.89396,15.17369 13.41135,15.5373c4.53048,3.18388 13.36151,29.08217 13.46239,44.13611z" fill="#ef8b89" stroke-width="0"/><path d="M199.29676,123.02195c-0.24487,-36.53933 43.32833,-48.05766 83.45952,-27.72575c41.92604,21.24126 85.02289,-7.37484 85.26776,29.16449c0.12178,18.17142 -8.26914,10.22311 -22.2396,-2.32291c-2.89347,-2.59845 -12.84357,10.38944 -16.18966,7.58775c-4.26506,-3.57113 -8.14106,-8.85499 -12.0573,-14.33686c-3.15346,-4.41416 -13.62437,12.61126 -17.0541,8.73116c-5.27795,-5.97098 -5.52486,-12.98028 -12.80454,-12.9315c-2.73733,0.01834 -10.00725,11.80839 -12.72485,12.15398c-2.10727,0.26798 -9.40607,-11.8955 -11.46927,-11.51932c-3.74671,0.68314 -12.17583,10.98946 -15.65874,12.13676c-1.39649,0.46002 -12.56764,-8.31556 -13.90246,-7.83393c-1.90911,0.68884 -8.78483,10.13925 -10.49287,10.92213c-2.71932,1.24639 -10.82933,-6.14724 -12.96739,-4.96112c-8.8233,4.89486 -8.39368,12.81668 -8.94421,14.70951c-0.53963,1.85538 -2.14438,-2.15032 -2.22227,-13.7744z" fill="#ef8b89" stroke-width="0"/></g><path d="M197.70721,114.72151c-0.24487,-36.53933 40.91336,-78.96352 86.83916,-79.27129c45.92581,-0.30777 86.08721,44.14092 86.33207,80.68025c0.12178,18.17142 -8.48875,10.22458 -22.82497,-2.31898c-2.96922,-2.59794 -13.18369,10.39172 -16.61743,7.59062c-4.37676,-3.57038 -8.35393,-8.85357 -12.37234,-14.33475c-3.23575,-4.41361 -13.98545,12.61368 -17.50484,8.73418c-5.41592,-5.97006 -5.66809,-12.97932 -13.13953,-12.92925c-2.80942,0.01883 -10.27292,11.81016 -13.06216,12.15623c-2.16283,0.26835 -9.65172,-11.89386 -11.76933,-11.51731c-3.84553,0.6838 -12.49847,10.99163 -16.07332,12.13954c-1.43335,0.46027 -12.8972,-8.31335 -14.26726,-7.83149c-1.95952,0.68918 -9.01801,10.14081 -10.77118,10.924c-2.79117,1.24687 -11.11348,-6.14535 -13.30807,-4.95884c-17.93392,9.69597 -11.3034,24.4199 -11.46077,0.93709z" fill="#724e36" stroke-width="2"/><path d="M197.94717,113.55709c-0.24487,-36.53933 44.47807,-48.06537 85.66271,-27.74051c43.02661,21.23389 87.26365,-7.38986 87.50851,29.14947c0.12178,18.17142 -8.48875,10.22457 -22.82497,-2.31899c-2.96922,-2.59794 -13.18369,10.39173 -16.61743,7.59062c-4.37676,-3.57038 -8.35394,-8.85357 -12.37235,-14.33476c-3.23575,-4.41362 -13.98545,12.61368 -17.50484,8.73418c-5.41592,-5.97006 -5.66809,-12.97932 -13.13952,-12.92925c-2.80942,0.01883 -10.27292,11.81017 -13.06216,12.15624c-2.16283,0.26835 -9.65172,-11.89386 -11.76934,-11.51731c-3.84553,0.6838 -12.49848,10.99163 -16.07333,12.13954c-1.43335,0.46027 -12.8972,-8.31334 -14.26726,-7.83149c-1.95953,0.68918 -9.01801,10.14081 -10.77119,10.924c-2.79117,1.24687 -11.11348,-6.14535 -13.30807,-4.95884c-17.93392,9.69597 -11.3034,24.4199 -11.46077,0.93708z" fill="#623728" stroke-width="0"/></g><g data-paper-data="{&quot;index&quot;:null}" stroke="#000000"><path d="M272.65735,93.96839c16.56817,-0.11103 30.15447,22.95003 30.34585,51.50833c0.19138,28.55829 -13.40422,43.38027 -29.97239,43.4913c-16.56817,0.11103 -29.83488,-14.53092 -30.02626,-43.08922c-0.19138,-28.5583 13.08463,-51.79937 29.6528,-51.9104z" fill="#f0f0f0" stroke-width="2"/><path d="M302.36163,144.65074c0.19138,28.55829 -13.40422,43.38027 -29.97239,43.4913c-16.56817,0.11103 21.73045,-33.95501 17.23876,-62.15852c-6.49365,-40.77393 12.54225,-9.89108 12.73363,18.66722z" fill="#9a99ff" stroke-width="0"/></g><path d="M279.8293,118.76752c5.78393,-0.03876 10.55869,12.75597 10.66472,28.57783c0.10603,15.82186 -4.49682,28.67943 -10.28075,28.71819c-5.78393,0.03876 -10.55869,-12.75597 -10.66472,-28.57783c-0.10603,-15.82185 4.49683,-28.67942 10.28075,-28.71818z" data-paper-data="{&quot;index&quot;:null}" fill="#000000" stroke="none" stroke-width="0"/><g data-paper-data="{&quot;index&quot;:null}" stroke="#000000"><path d="M247.81248,115.81121c4.18449,-9.7774 9.88832,-21.6208 25.59822,-21.72608c15.7099,-0.10528 18.2575,12.14812 22.64303,21.26766c4.60914,9.58455 -6.82919,14.30284 -22.5391,14.40812c-15.7099,0.10528 -30.09297,-3.69023 -25.70216,-13.9497z" fill="#a100fe" stroke-width="2"/><path d="M248.73435,115.45079c4.03958,-9.77643 9.6962,0.76194 24.87044,0.66025c15.17424,-0.10169 17.48779,-10.22818 21.72587,-1.10765c4.45418,9.58558 -6.59307,14.30126 -21.76731,14.40295c-15.17424,0.10169 -29.06776,-3.6971 -24.82901,-13.95554z" fill="#99008e" stroke-width="0"/></g><g data-paper-data="{&quot;index&quot;:null}" stroke="#000000"><path d="M239.26804,144.42518c0.19138,28.5583 -12.87791,43.37674 -29.44608,43.48777c-16.56817,0.11103 -30.36119,-14.5274 -30.55257,-43.08569c-0.19138,-28.5583 13.08463,-51.79938 29.65281,-51.91041c16.56817,-0.11103 30.15447,22.95004 30.34585,51.50834z" fill="#f0f0f0" stroke-width="2"/><path d="M192.38214,125.15653c-4.1133,28.26117 34.63844,61.81087 18.07027,61.9219c-16.56817,0.11103 -30.36119,-14.52741 -30.55257,-43.0857c-0.19138,-28.5583 18.42891,-59.69349 12.4823,-18.8362z" fill="#9a99ff" stroke-width="0"/></g><path d="M237.22265,147.49704c0.10603,15.82186 -4.49683,28.67943 -10.28075,28.71819c-5.78393,0.03876 -10.55868,-12.75597 -10.66471,-28.57782c-0.10603,-15.82185 4.49682,-28.67943 10.28075,-28.71819c5.78393,-0.03876 10.55869,12.75597 10.66472,28.57783z" data-paper-data="{&quot;index&quot;:null}" fill="#000000" stroke="none" stroke-width="0"/><g data-paper-data="{&quot;index&quot;:null}" stroke="#000000"><path d="M234.05759,114.42471c4.52791,10.1997 -9.803,14.18763 -25.5129,14.29291c-15.7099,0.10528 -27.21044,-4.4593 -22.73017,-14.10476c4.26291,-9.1775 6.64606,-21.46394 22.35596,-21.56922c15.7099,-0.10528 21.57194,11.66062 25.8871,21.38106z" fill="#a100fe" stroke-width="2"/><path d="M233.13096,114.07668c4.37586,10.20072 -9.46551,14.18537 -24.63975,14.28706c-15.17424,0.10169 -26.2837,-4.46551 -21.95839,-14.10993c4.11547,-9.17651 6.56453,0.91807 21.73877,0.81638c15.17424,-0.10169 20.68911,-10.71492 24.85936,-0.99351z" fill="#99008e" stroke-width="0"/></g><path d="M241.46752,338.87003c0,-11.6628 13.71248,-9.87692 31.62358,-9.87692c14.33063,0 27.65301,-10.77791 32.14847,-5.26144c1.12318,1.37828 1.08979,12.80695 1.08979,15.13837c0,11.6628 -14.51982,21.11737 -32.43092,21.11737c-17.9111,0 -32.43092,-9.45457 -32.43092,-21.11737z" data-paper-data="{&quot;index&quot;:null}" fill="#000082" stroke="#000000" stroke-width="2"/><path d="M274.34814,329.56302c14.33063,0 25.38775,-8.75646 29.88321,-5.7726c1.12318,0.74551 1.0898,12.01046 1.0898,13.27153c0,6.30841 -12.25456,9.26589 -30.16566,9.26589c-17.91111,0 -31.80169,-3.88169 -31.80169,-10.1901c0,-6.30841 13.08324,-6.57472 30.99434,-6.57472z" data-paper-data="{&quot;index&quot;:null}" fill="#2e0048" stroke="#000000" stroke-width="0"/><path d="M376.78811,339.54915c0,11.6628 -14.51982,21.11737 -32.43092,21.11737c-17.9111,0 -32.43092,-9.45457 -32.43092,-21.11737c0,-2.33142 -0.03339,-13.76009 1.08979,-15.13837c4.49546,-5.51647 17.81784,5.26144 32.14847,5.26144c17.9111,0 31.62358,-1.78588 31.62358,9.87692z" data-paper-data="{&quot;index&quot;:null}" fill="#000082" stroke="#000000" stroke-width="2"/><path d="M374.90183,336.81684c0,6.30841 -13.89058,10.1901 -31.80169,10.1901c-17.9111,0 -30.16566,-2.95748 -30.16566,-9.26589c0,-1.26107 -0.03338,-12.52602 1.0898,-13.27153c4.49546,-2.98386 15.55258,5.7726 29.88321,5.7726c17.9111,0 30.99434,0.26631 30.99434,6.57472z" data-paper-data="{&quot;index&quot;:null}" fill="#2e0048" stroke="#000000" stroke-width="0"/><g data-paper-data="{&quot;index&quot;:null}" stroke="#000000"><path d="M348.69832,216.29431c0.86884,-2.71377 -14.77944,-2.93832 -23.871,-6.29486c-7.37213,-2.72173 -11.1221,-8.06357 -4.28453,-9.95457c7.70606,2.4672 73.86794,-26.48267 63.7031,5.26626c-10.16485,31.74894 -24.65206,55.48648 -32.35813,53.01928c-7.70606,-2.4672 -13.35431,-10.2872 -3.18946,-42.03613z" fill="#216aff" stroke-width="2"/><path d="M329.54955,236.46049c4.36301,-13.62745 19.23147,-21.04673 33.20961,-16.57144c13.97815,4.47529 21.77277,19.15046 17.40976,32.77791c-4.36301,13.62745 -19.23147,21.04673 -33.20962,16.57144c-13.97815,-4.47529 -21.77276,-19.15046 -17.40975,-32.77791z" fill="#faddbf" stroke-width="2"/><path d="M370.95298,237.46298c4.363,-13.62745 13.46417,0.63943 9.10116,14.26688c-4.363,13.62745 -19.23147,21.04674 -33.20962,16.57145c-13.97815,-4.47529 19.74544,-17.21088 24.10845,-30.83833z" fill="#ef8b89" stroke-width="0"/></g><g data-paper-data="{&quot;index&quot;:null}" stroke="#000000"><path d="M252.85039,239.05436c25.02057,22.0293 24.18733,31.63975 18.84041,37.71271c-5.34692,6.07296 -29.96464,-6.86222 -54.98521,-28.89152c-25.02056,-22.02931 46.62002,-31.14606 51.96694,-37.21902c6.8387,-1.88694 6.36248,4.62236 1.4328,10.74234c-6.07946,7.54738 -19.39359,15.77252 -17.25494,17.6555z" fill="#216aff" stroke-width="2"/><path d="M279.63544,246.5318c10.73946,9.45553 11.58303,26.05085 1.88416,37.0667c-9.69887,11.01585 -26.26743,12.28073 -37.00689,2.8252c-10.73946,-9.45553 -11.58302,-26.05086 -1.88415,-37.06671c9.69887,-11.01585 26.26742,-12.28072 37.00688,-2.82519z" fill="#faddbf" stroke-width="2"/><path d="M244.61749,268.64493c10.73946,9.45553 46.21846,3.07456 36.51959,14.09041c-9.69887,11.01585 -26.26743,12.28073 -37.00688,2.82519c-10.73946,-9.45553 -10.25217,-26.37115 0.4873,-16.9156z" fill="#ef8b89" stroke-width="0"/></g><path d="M333.55904,164.34123c4.37369,4.34749 4.31423,11.4986 -0.13282,15.97246c-4.44705,4.47386 -11.59767,4.57629 -15.97137,0.22881c-4.37369,-4.34749 3.34815,-7.22717 7.7952,-11.70103c3.18353,-3.20272 6.09528,-5.08628 7.06315,-5.27183c0.38414,-0.07364 0.00315,-0.46364 1.24583,0.77159z" fill="#000000" stroke="none" stroke-width="0"/></g></g></svg>