<svg version="1.1" xmlns="http://www.w3.org/2000/svg" xmlns:xlink="http://www.w3.org/1999/xlink" width="218.83024" height="351.41481" viewBox="0,0,218.83024,351.41481"><g transform="translate(-224.78117,-9.10021)"><g data-paper-data="{&quot;isPaintingLayer&quot;:true}" fill-rule="nonzero" stroke-linejoin="miter" stroke-miterlimit="10" stroke-dasharray="" stroke-dashoffset="0" style="mix-blend-mode: normal"><g data-paper-data="{&quot;index&quot;:null}" stroke="#000000" stroke-linecap="butt"><path d="M375.08835,227.97238c23.36678,-23.77629 32.91717,-22.41787 38.68811,-16.74631c5.77096,5.67155 -8.49329,29.54376 -31.86009,53.32005c-23.3668,23.77629 -28.54557,-48.25613 -34.31651,-53.92769c-1.5095,-6.9318 4.96394,-6.09971 10.80469,-0.84221c7.20304,6.48376 14.68651,20.22845 16.68382,18.19615z" fill="#216aff" stroke-width="2"/><path d="M384.02179,201.63714c10.0296,-10.2054 26.64622,-10.13862 37.11426,0.14909c10.46803,10.28774 10.82344,26.90071 0.79383,37.10609c-10.02961,10.2054 -26.64624,10.13863 -37.11428,-0.1491c-10.46803,-10.28774 -10.82343,-26.90069 -0.79381,-37.10608z" fill="#faddbf" stroke-width="2"/><path d="M404.18353,237.81381c10.02961,-10.2054 5.60168,-45.98065 16.0697,-35.69292c10.46803,10.28774 10.82342,26.9007 0.79381,37.10608c-10.02961,10.2054 -26.89315,8.79224 -16.86352,-1.41315z" fill="#ef8b89" stroke-width="0"/></g><path d="M224.78117,360.17125v-93.89347h213.03043v93.89347z" fill="#000000" stroke="none" stroke-width="NaN" stroke-linecap="butt"/><g><path d="M409.09297,205.31005c-14.82685,2.79063 -24.88986,-3.03568 -28.33392,-17.57007c-2.69367,-11.36748 7.27514,-26.48854 22.10201,-29.27917c14.82691,-2.79066 27.401,4.76288 30.16386,19.44196c0.43206,2.29553 0.14951,4.54229 -0.08936,6.59675c-1.28878,11.08285 -11.33434,18.45628 -23.84256,20.81053z" fill="#216aff" stroke="#000000" stroke-width="2" stroke-linecap="butt"/><path d="M391.22524,165.82241c0,0 0.62789,5.72162 2.42632,6.60428c17.2507,8.4668 31.20624,6.898 35.78238,6.02688c1.03968,-0.19791 1.42739,-1.25172 1.42739,-1.25172c0,0 0.60697,2.02477 0.51887,4.76453c-0.09376,2.91534 -0.92739,6.63136 -2.49642,9.27397c-1.7923,3.01857 -7.752,8.84869 -7.752,8.84869l-19.73122,7.03833c0,0 -11.72049,-6.60191 -13.12633,-8.2513c-1.37727,-1.61586 -2.54355,-3.92292 -3.88229,-6.32598c-2.07858,-3.73109 -2.77294,-8.21716 -2.3952,-11.07235c0.48212,-3.64387 2.55024,-7.82416 4.80838,-10.90038c2.10163,-2.863 4.42016,-4.75477 4.42016,-4.75477z" fill="#3236f4" stroke="none" stroke-width="0" stroke-linecap="butt"/><path d="M398.04313,189.28911c0,0 -3.46943,-8.32834 -2.14532,-13.31099c1.67615,-6.30753 8.36827,-17.41239 8.36827,-17.41239" fill="none" stroke="#000000" stroke-width="1" stroke-linecap="round"/><path d="M430.14365,171.42647c0,0 -0.18857,7.14803 -1.32406,11.2932c-1.14628,4.18478 -6.84418,12.03884 -6.84418,12.03884" fill="none" stroke="#000000" stroke-width="1" stroke-linecap="round"/><path d="M388.26777,194.2689c0,0 -3.68903,-8.49571 -2.00907,-13.8274c2.57783,-8.18126 8.14184,-18.35661 8.14184,-18.35661" fill="none" stroke="#000000" stroke-width="1" stroke-linecap="round"/><path d="M381.44547,180.59215c0,0 11.52757,-12.90698 28.84023,-10.95349c18.96381,2.13978 21.83244,19.14748 21.83244,19.14748" fill="none" stroke="#000000" stroke-width="1" stroke-linecap="round"/><path d="M381.94265,190.10308c0,0 13.87995,-11.14492 29.16066,-9.454c12.54686,1.38843 16.30328,15.48837 16.30328,15.48837" fill="none" stroke="#000000" stroke-width="1" stroke-linecap="round"/><path d="M417.15184,164.19288c-1.12403,-0.42866 -1.76007,-1.49754 -1.42072,-2.38733c0.33931,-0.88985 1.09119,-0.62784 2.21522,-0.19916c1.12403,0.42866 2.19448,0.86167 1.85514,1.75149c-0.33931,0.88985 -1.52566,1.2637 -2.64962,0.835z" fill="#8fbbbe" stroke="none" stroke-width="0" stroke-linecap="butt"/><path d="M423.52894,167.68448c-0.59112,0.11123 -1.20558,-0.51732 -1.37246,-1.40398c-0.16689,-0.88665 -0.11261,-1.27171 0.47848,-1.38299c0.59112,-0.11123 1.38395,0.48376 1.55081,1.37041c0.16689,0.88665 -0.06579,1.3053 -0.65687,1.41654z" fill="#8fbbbe" stroke="none" stroke-width="0" stroke-linecap="butt"/><path d="M410.66493,161.78792c-0.89942,0.07144 -1.6671,-0.35666 -1.71475,-0.95624c-0.04769,-0.59953 0.74355,-0.60845 1.64293,-0.67992c0.89942,-0.07144 1.56636,-0.1785 1.61402,0.42109c0.04769,0.59953 -0.64284,1.14359 -1.54224,1.21505z" fill="#8fbbbe" stroke="none" stroke-width="0" stroke-linecap="butt"/><path d="M387.91572,168.84647c0,0 8.89627,-5.05329 16.40192,-6.09492c4.25534,-0.59054 8.20964,0.35799 11.19956,1.11071c2.64414,0.66562 7.88123,4.64035 11.5732,8.09978c2.71819,2.54699 4.45083,4.9271 4.45083,4.9271" fill="none" stroke="#000000" stroke-width="0.5" stroke-linecap="round"/><path d="M421.01499,160.21557c0,0 1.55464,10.45758 0.33966,15.72454c-1.02363,4.43755 -6.79766,13.75017 -6.79766,13.75017" fill="none" stroke="#000000" stroke-width="1" stroke-linecap="round"/><path d="M408.72502,189.12561c0,0 -1.31453,-9.57601 -0.78084,-14.06667c0.93706,-7.88472 6.64701,-16.58951 6.64701,-16.58951" fill="none" stroke="#000000" stroke-width="1" stroke-linecap="round"/></g><path d="M383.87911,325.16519c0,0 7.23682,-53.73144 9.47097,-77.85293c1.91321,-20.65641 -1.13286,-52.84282 -1.13286,-52.84282l24.86528,-4.10085l-9.67318,136.97598z" fill="#000000" stroke="none" stroke-width="0" stroke-linecap="butt"/><path d="M431.92175,200.97213c-0.50629,5.4663 -12.12043,8.85992 -25.9409,7.57987c-13.82047,-1.28006 -24.61374,-6.74906 -24.10745,-12.21537c0.50629,-5.4663 12.12043,-8.85992 25.9409,-7.57987c13.82047,1.28006 24.61374,6.74906 24.10745,12.21537z" fill="#000000" stroke="none" stroke-width="NaN" stroke-linecap="butt"/><g stroke="#000000" stroke-linecap="butt"><path d="M315.25161,321.04678l22.83398,-92.51882l28.63284,7.0667l-22.83399,92.51882z" fill="#73fffc" stroke-width="2"/><path d="M315.08341,320.36879l23.75999,-90.7358c0,0 -11.26933,67.37473 -12.38285,76.7986c-0.24616,2.08333 1.78032,3.31297 1.78032,3.31297l14.91627,17.21459z" fill="#59a9e6" stroke-width="0"/></g><path d="M377.73299,334.44314c-2.79457,11.32304 -19.15684,17.02303 -36.54616,12.73129c-17.38932,-4.29174 -29.22071,-16.95004 -26.42614,-28.27308c0.55864,-2.26351 3.26469,-13.36723 4.68541,-14.43623c5.68633,-4.27859 16.03806,9.37757 29.95121,12.81138c17.38932,4.29174 31.13025,5.84359 28.33568,17.16663z" fill="#000082" stroke="#000000" stroke-width="2" stroke-linecap="butt"/><path d="M376.55636,331.33845c-1.51159,6.12464 -15.92761,6.56488 -33.31694,2.27312c-17.38932,-4.29174 -28.57824,-10.09944 -27.06665,-16.22408c0.30217,-1.22433 2.96901,-12.16912 4.2381,-12.62378c5.07948,-1.81975 13.71631,9.33105 27.62946,12.76486c17.38932,4.29174 30.02761,7.68523 28.51602,13.80987z" fill="#2e0048" stroke="#000000" stroke-width="0" stroke-linecap="butt"/><g fill="none" stroke="#808080" stroke-width="0.5" stroke-linecap="round"><path d="M437.84876,280.63432l-193.59492,1.15407l-17.0225,-13.84882"/><path d="M243.96532,281.78839l-2.01962,78.47663"/></g><g stroke="#000000" stroke-linecap="butt"><path d="M292.98277,336.40041l-2.3595,-95.2657l29.48295,-0.73022l2.3595,95.2657z" fill="#73fffc" stroke-width="2"/><path d="M292.64181,335.79076l-0.99628,-93.78981c0,0 6.88775,67.96256 8.29756,77.34668c0.31166,2.07453 2.59058,2.72656 2.59058,2.72656l18.92621,12.67423z" fill="#59a9e6" stroke-width="0"/></g><g stroke="#000000" stroke-linecap="butt"><path d="M350.25508,227.2904c-2.39717,13.59295 3.51328,37.93047 -3.19407,46.61342c-8.20264,10.61865 -29.7573,3.98833 -39.92764,2.19475c-13.45524,-2.37289 -33.16768,-1.61472 -35.18559,-21.26616c-0.75458,-7.34848 9.91068,-31.1244 11.36099,-39.34826c5.32875,-30.21621 24.635,-52.06837 43.12171,-48.80817c18.48672,3.26021 29.15335,30.3982 23.8246,60.61442z" fill="#216aff" stroke-width="2"/><path d="M297.06525,233.72711c-2.39717,13.59295 57.53034,31.01166 50.82298,39.6946c-8.20264,10.61864 -29.7573,3.98833 -39.92764,2.19475c-13.45524,-2.37289 -33.16767,-1.61472 -35.18558,-21.26615c-0.75459,-7.34849 9.91068,-31.12441 11.36099,-39.34826c1.64164,-9.30879 8.26439,-27.58186 10.64034,-28.55411c8.76508,-15.47709 5.9401,26.57545 2.28892,47.27917z" fill="#3236f4" stroke-width="0"/></g><g stroke="#000000" stroke-linecap="butt"><g><path d="M250.04786,89.11516c4.70795,-46.55333 46.26342,-80.47574 92.81676,-75.7678c46.55333,4.70795 80.47574,46.26342 75.7678,92.81676c-4.70795,46.55333 -46.26342,80.47574 -92.81676,75.7678c-46.55333,-4.70795 -80.47574,-46.26342 -75.7678,-92.81676z" fill="#faddbf" stroke-width="2"/><path d="M250.36495,88.27327c1.51471,-14.97789 12.73976,-39.93198 17.54933,-42.67616c0.54925,-0.3134 6.65358,-8.28286 14.81172,-14.20862c10.14002,-7.36531 22.73156,-12.93488 23.3194,-12.67736c7.6696,3.35975 -23.96309,62.76233 -25.27506,88.04858c-0.00314,0.0603 2.40277,20.04506 3.96888,20.6446c2.39367,5.00874 7.13752,19.97288 17.2452,28.17162c18.83683,15.27932 46.71334,24.50463 45.18669,24.85856c-2.44209,0.56615 -15.0062,1.26558 -21.03834,0.65555c-46.55333,-4.70795 -80.47574,-46.26342 -75.7678,-92.81676z" fill="#ef8b89" stroke-width="0"/><path d="M418.15773,105.65559c-1.16961,11.56534 -3.14358,15.40258 -3.50651,13.50471c-0.37028,-1.93617 0.80169,-9.7826 -7.52273,-15.48474c-2.01716,-1.38173 -10.78593,5.21728 -13.37612,3.72093c-1.62693,-0.93988 -7.58441,-10.99445 -9.42035,-11.85961c-1.28366,-0.60491 -13.22985,7.08237 -14.57696,6.49319c-3.35972,-1.46944 -10.7833,-12.52208 -14.44927,-13.55419c-2.01873,-0.56835 -10.42798,10.85563 -12.50075,10.39086c-2.67311,-0.59937 -8.80323,-13.02026 -11.52674,-13.29568c-7.24291,-0.73246 -8.14723,6.22261 -13.96279,11.67136c-3.77909,3.54072 -12.60419,-14.39313 -16.15841,-10.29473c-4.41392,5.08969 -8.76919,9.98606 -13.35087,13.14069c-3.5945,2.47494 -12.28043,-11.3903 -15.40521,-9.07517c-15.08734,11.17802 -24.18787,18.30289 -22.35947,0.22329c3.67656,-36.35472 43.89439,-3.81634 87.63055,-21.02482c41.86383,-16.47177 84.1622,-0.9108 80.48564,35.44392z" fill="#ef8b89" stroke-width="0"/></g><path d="M420.52002,97.5412c-2.36281,23.36417 5.62164,9.32828 -11.32204,-2.00965c-2.07342,-1.38743 -11.05339,5.19023 -13.71507,3.68665c-1.67183,-0.94443 -7.81116,-11.01738 -9.69726,-11.8876c-1.31874,-0.60844 -13.55614,7.04936 -14.93991,6.45648c-3.4512,-1.4787 -11.09748,-12.55384 -14.86175,-13.59589c-2.07286,-0.57382 -10.67125,10.83102 -12.7993,10.36067c-2.74438,-0.60657 -9.06712,-13.04695 -11.86234,-13.32962c-7.43369,-0.75177 -8.34325,6.20279 -14.29608,11.63765c-3.8683,3.5317 -12.97078,-14.43018 -16.60687,-10.34009c-4.51559,5.07942 -8.97151,9.96559 -13.66432,13.109c-3.6817,2.46613 -12.63066,-11.4257 -15.83081,-9.11821c-15.45125,11.14124 -24.77028,18.24398 -22.94189,0.16439c3.67656,-36.35472 47.83618,-76.83376 93.52994,-72.21275c45.69377,4.62102 82.68431,50.72427 79.00775,87.07899z" fill="#724e36" stroke-width="2"/><path d="M420.39055,96.35939c-2.36281,23.36417 5.62164,9.32828 -11.32204,-2.00965c-2.07342,-1.38743 -11.05339,5.19023 -13.71507,3.68665c-1.67183,-0.94443 -7.81116,-11.01738 -9.69727,-11.8876c-1.31874,-0.60844 -13.55614,7.04936 -14.93991,6.45648c-3.4512,-1.4787 -11.09748,-12.55384 -14.86175,-13.59589c-2.07286,-0.57382 -10.67125,10.83102 -12.7993,10.36067c-2.74438,-0.60657 -9.06712,-13.04695 -11.86234,-13.32962c-7.43369,-0.75177 -8.34325,6.20279 -14.29608,11.63765c-3.8683,3.5317 -12.97078,-14.43018 -16.60687,-10.34009c-4.51559,5.07942 -8.97151,9.96559 -13.66433,13.109c-3.6817,2.46613 -12.63066,-11.4257 -15.83081,-9.11821c-15.45125,11.14124 -24.77028,18.24398 -22.94189,0.16439c3.67656,-36.35472 45.02881,-3.70162 89.85999,-20.79935c42.91195,-16.36578 86.35424,-0.68911 82.6777,35.6656z" fill="#623728" stroke-width="0"/></g><g stroke="#000000" stroke-linecap="butt"><path d="M374.62078,125.09095c-2.87351,28.41401 -17.45712,41.74483 -33.94158,40.07776c-16.48447,-1.66708 -28.62744,-17.70077 -25.75394,-46.11477c2.87351,-28.41401 18.56624,-50.09668 35.05071,-48.42961c16.48447,1.66708 27.51832,26.05261 24.64481,54.46662z" fill="#f0f0f0" stroke-width="2"/><path d="M330.07265,100.90352c-7.12147,27.65678 27.80734,65.17021 11.3229,63.50313c-16.48447,-1.66708 -28.62744,-17.70077 -25.75394,-46.11477c2.87351,-28.41401 24.72658,-57.37189 14.43105,-17.38835z" fill="#9a99ff" stroke-width="0"/></g><path d="M369.91772,132.89058c-1.59198,15.74191 -7.54764,28.03148 -13.30235,27.4495c-5.75471,-0.58198 -9.12927,-13.81511 -7.53729,-29.55703c1.59198,-15.74191 7.54764,-28.03148 13.30235,-27.4495c5.75471,0.58198 9.12927,13.81511 7.53729,29.55703z" fill="#000000" stroke="none" stroke-width="0" stroke-linecap="butt"/><g stroke="#000000" stroke-linecap="butt"><path d="M372.65891,94.70467c3.40754,10.62659 7.66639,56.20831 -7.96416,54.62759c-15.63053,-1.58071 -45.50987,-50.50698 -40.02067,-59.61613c5.22289,-8.6672 8.91039,-20.62707 24.54092,-19.04634c15.63053,1.58071 20.19648,13.90759 23.4439,24.03487z" fill="#a100fe" stroke-width="2"/><path d="M371.77497,94.25923c3.25626,10.61128 8.45549,55.67505 -6.6421,54.14823c-15.09757,-1.52682 -45.04113,-49.84654 -39.70612,-58.97127c5.07619,-8.68204 6.42815,1.61701 21.52572,3.14383c15.09757,1.52682 21.71921,-8.43352 24.82247,1.67918z" fill="#99008e" stroke-width="0"/></g><g data-paper-data="{&quot;index&quot;:null}" stroke="#000000" stroke-linecap="butt"><path d="M412.69176,70.95975c16.48447,1.66708 27.51832,26.05261 24.64481,54.46662c-2.87351,28.414 -17.98077,41.69188 -34.46523,40.0248c-16.48447,-1.66708 -28.10379,-17.64781 -25.23028,-46.06182c2.87351,-28.41401 18.56624,-50.09668 35.05071,-48.42961z" fill="#f0f0f0" stroke-width="2"/><path d="M436.78732,124.53633c-2.87351,28.414 -17.98077,41.69188 -34.46523,40.0248c-16.48447,-1.66708 25.24779,-31.42777 23.80774,-59.95038c-2.08187,-41.23526 13.53099,-8.48844 10.65749,19.92557z" fill="#9a99ff" stroke-width="0"/></g><path d="M425.05923,104.9791c5.75471,0.58198 9.12927,13.81511 7.53729,29.55703c-1.59198,15.74191 -7.54764,28.03148 -13.30235,27.4495c-5.75471,-0.58198 -9.12927,-13.81511 -7.53729,-29.55703c1.59198,-15.74191 7.54764,-28.03148 13.30235,-27.4495z" data-paper-data="{&quot;index&quot;:null}" fill="#000000" stroke="none" stroke-width="0" stroke-linecap="butt"/><g data-paper-data="{&quot;index&quot;:null}" stroke="#000000" stroke-linecap="butt"><path d="M385.64694,90.0111c5.20928,-9.27206 12.15076,-20.43519 27.78129,-18.85445c15.63053,1.58071 16.84886,14.0367 20.23071,23.5741c3.5543,10.02371 -34.26617,52.9307 -49.89671,51.34997c-15.63053,-1.58071 -3.58143,-46.3404 1.88469,-56.0696z" fill="#a100fe" stroke-width="2"/><path d="M386.60216,89.75165c5.06511,-9.28664 9.5585,1.79777 24.65607,3.32459c15.09757,1.52682 18.48416,-8.29304 21.71931,1.22954c3.4001,10.00811 -34.42359,52.7338 -49.52116,51.20699c-15.09757,-1.52682 -2.16907,-46.0166 3.14577,-55.7611z" fill="#99008e" stroke-width="0"/></g><path d="M349.08842,333.32499c0.28877,11.65923 -13.9925,21.4704 -31.89811,21.91389c-17.9056,0.44348 -32.65508,-8.64868 -32.94384,-20.30791c-0.05773,-2.33071 -0.37407,-13.75505 0.71463,-15.16072c4.3575,-5.62608 17.94265,4.81866 32.26889,4.46383c17.9056,-0.44348 31.56966,-2.56833 31.85843,9.0909z" fill="#000082" stroke="#000000" stroke-width="2" stroke-linecap="butt"/><path d="M347.13506,330.64021c0.1562,6.30648 -13.63401,10.53092 -31.53963,10.97439c-17.9056,0.44348 -30.22964,-2.20968 -30.38584,-8.51615c-0.03123,-1.26068 -0.3435,-12.52136 0.76086,-13.29444c4.4202,-3.09425 15.69075,5.38575 30.01697,5.03092c17.9056,-0.44348 30.99143,-0.5012 31.14763,5.80528z" fill="#2e0048" stroke="#000000" stroke-width="0" stroke-linecap="butt"/><path d="M308.81714,226.60071c31.15897,-11.85065 95.17819,2.24951 98.05455,9.81236c1.62931,4.28396 20.88028,25.06105 0.19734,30.36017c-15.83054,4.05589 -93.80639,-9.22563 -107.31547,-4.08775c-31.15896,11.85064 -5.79409,-55.76677 -8.67045,-63.32964c1.52208,-6.92903 7.05711,-3.47053 10.16975,3.74525c3.83864,8.89872 4.90094,24.51254 7.56428,23.4996z" fill="#216aff" stroke="#000000" stroke-width="2" stroke-linecap="butt"/><path d="M407.16367,220.16886c13.37422,-5.08659 28.44579,1.91087 33.66327,15.62927c5.2175,13.7184 -1.39482,28.96287 -14.76904,34.04948c-13.37423,5.0866 -28.44577,-1.91089 -33.66328,-15.62928c-5.2175,-13.7184 1.39482,-28.96287 14.76905,-34.04948z" fill="#faddbf" stroke="#000000" stroke-width="2" stroke-linecap="butt"/><path d="M410.38218,261.45916c13.37422,-5.08659 24.2854,-39.44386 29.50289,-25.72545c5.2175,13.7184 -1.39482,28.96287 -14.76905,34.04948c-13.37422,5.08659 -28.10807,-3.23742 -14.73384,-8.32401z" fill="#ef8b89" stroke="#000000" stroke-width="0" stroke-linecap="butt"/><path d="M313.22335,155.31259c0,8.22627 -4.84561,14.89498 -10.82297,14.89498c-5.97736,0 -10.82297,-6.66871 -10.82297,-14.89498c0,-8.22627 4.63129,-3.53622 10.60866,-3.53622c5.97736,0 11.03729,-4.69005 11.03729,3.53622z" fill="#000000" stroke="none" stroke-width="0" stroke-linecap="butt"/></g></g></svg>