<svg version="1.1" xmlns="http://www.w3.org/2000/svg" xmlns:xlink="http://www.w3.org/1999/xlink" width="214.54494" height="334.77437" viewBox="0,0,214.54494,334.77437"><g transform="translate(-202.50976,-26.89216)"><g data-paper-data="{&quot;isPaintingLayer&quot;:true}" fill-rule="nonzero" stroke-linecap="butt" stroke-linejoin="miter" stroke-miterlimit="10" stroke-dasharray="" stroke-dashoffset="0" style="mix-blend-mode: normal"><g data-paper-data="{&quot;index&quot;:null}" stroke="#000000"><path d="M275.84666,340.83535v-95.29492h29.49199v95.29492z" fill="#73fffc" stroke-width="2"/><path d="M276.82937,339.88894l18.60659,-13.13896c0,0 2.26208,-0.70825 2.52228,-2.78987c1.17702,-9.41615 6.3799,-77.52842 6.3799,-77.52842l1.32626,93.78573z" fill="#59a9e6" stroke-width="0"/></g><g data-paper-data="{&quot;index&quot;:null}" stroke="#000000"><path d="M316.56252,339.73674v-95.29492h29.49199v95.29492z" fill="#73fffc" stroke-width="2"/><path d="M316.23677,339.11885l1.32626,-93.78573c0,0 5.20288,68.11227 6.3799,77.52842c0.2602,2.08162 2.52228,2.78987 2.52228,2.78987l18.60659,13.13896z" fill="#59a9e6" stroke-width="0"/></g><g data-paper-data="{&quot;index&quot;:null}" stroke="#000000"><path d="M311.86435,180.14033c18.77199,0 33.98969,24.87307 33.98969,55.55556c0,8.35076 6.37392,33.61764 4.35457,40.7234c-5.40019,19.00234 -24.68139,14.83216 -38.34426,14.83216c-10.32729,0 -32.7059,2.78608 -38.9397,-9.09579c-5.09742,-9.71589 4.95001,-32.65706 4.95001,-46.45977c0,-30.68249 15.2177,-55.55556 33.98969,-55.55556z" fill="#216aff" stroke-width="2"/><path d="M339.60359,205.10932c2.17098,1.37012 5.51953,20.51569 5.51953,29.96813c0,8.35075 6.37393,33.61764 4.35457,40.7234c-5.40019,19.00233 -24.68138,14.83215 -38.34425,14.83215c-10.32729,0 -32.7059,2.78607 -38.9397,-9.09579c-5.09743,-9.71588 56.94455,-16.46203 56.94455,-30.26474c0,-21.0232 4.52139,-62.9273 10.4653,-46.16315z" fill="#3236f4" stroke-width="0"/></g><g data-paper-data="{&quot;index&quot;:null}" stroke="#000000"><g><path d="M309.78616,200.07104c-46.79079,0 -84.72222,-37.93143 -84.72222,-84.72222c0,-46.79079 37.93143,-84.72222 84.72222,-84.72222c46.79079,0 84.72222,37.93143 84.72222,84.72222c0,46.79079 -37.93143,84.72222 -84.72222,84.72222z" fill="#faddbf" stroke-width="2"/><path d="M394.27761,114.47932c0,46.79079 -37.93143,84.72222 -84.72222,84.72222c-6.06291,0 -18.49289,-1.96005 -20.86562,-2.76903c-1.48329,-0.50573 27.17997,-6.87938 47.45857,-20.18586c10.88131,-7.14014 17.10673,-21.55104 19.99223,-26.29351c1.61848,-0.43891 6.02298,-20.08018 6.02593,-20.14049c1.23891,-25.28993 -24.25635,-87.57384 -16.28763,-90.14485c0.61077,-0.19706 12.57802,6.61116 21.9255,14.95935c7.52051,6.71653 12.79199,15.25975 13.30693,15.62682c4.50904,3.21417 13.16632,29.17106 13.16632,44.22534z" fill="#ef8b89" stroke-width="0"/><path d="M225.58738,114.89064c0,-36.54015 43.64941,-47.76623 83.64345,-27.16584c41.78276,21.52174 85.0704,-6.80492 85.0704,29.73523c0,18.17183 -8.33746,10.16746 -22.22353,-2.47189c-2.87599,-2.61778 -12.91291,10.30314 -16.24015,7.47909c-4.24103,-3.59963 -8.08154,-8.90935 -11.96095,-14.41734c-3.12381,-4.4352 -13.70857,12.51967 -17.11223,8.61668c-5.23782,-6.00622 -5.43775,-13.01701 -12.7176,-13.01701c-2.73739,0 -10.08616,11.74106 -12.80601,12.06843c-2.10902,0.25385 -9.32614,-11.95827 -11.39182,-11.59592c-3.75121,0.65801 -12.2492,10.90762 -15.73972,12.03156c-1.39954,0.45065 -12.51164,-8.39959 -13.84965,-7.92692c-1.91368,0.67603 -8.85258,10.08015 -10.56583,10.85157c-2.72761,1.22814 -10.78789,-6.21968 -12.93385,-5.04791c-8.8559,4.83563 -8.47938,12.76015 -9.04258,14.64925c-0.55205,1.85172 -2.12992,-2.16465 -2.12992,-13.78899z" fill="#ef8b89" stroke-width="0"/></g><path d="M224.05349,106.57974c0,-36.54015 41.44159,-78.68758 87.36842,-78.68758c45.92684,0 85.78948,44.71682 85.78948,81.25697c0,18.17183 -8.55708,10.16746 -22.80892,-2.47189c-2.95174,-2.61778 -13.25304,10.30314 -16.66792,7.47909c-4.35273,-3.59963 -8.29441,-8.90935 -12.276,-14.41734c-3.2061,-4.4352 -14.06966,12.51967 -17.56298,8.61668c-5.37579,-6.00622 -5.58098,-13.01701 -13.05259,-13.01701c-2.80949,0 -10.35184,11.74106 -13.14333,12.06843c-2.16458,0.25385 -9.5718,-11.95827 -11.69189,-11.59592c-3.85002,0.65801 -12.57185,10.90762 -16.15431,12.03156c-1.4364,0.45065 -12.8412,-8.39959 -14.21446,-7.92692c-1.96409,0.67603 -9.08576,10.08015 -10.84414,10.85157c-2.79946,1.22814 -11.07205,-6.21968 -13.27454,-5.04791c-17.99849,9.57557 -11.46679,24.3436 -11.46679,0.86026z" fill="#724e36" stroke-width="2"/><path d="M224.30125,105.41695c0,-36.54015 44.79917,-47.76623 85.84668,-27.16584c42.88335,21.52174 87.31121,-6.80492 87.31121,29.73523c0,18.17183 -8.55708,10.16746 -22.80892,-2.47189c-2.95174,-2.61778 -13.25304,10.30314 -16.66792,7.47909c-4.35274,-3.59963 -8.29442,-8.90935 -12.27601,-14.41734c-3.2061,-4.4352 -14.06966,12.51967 -17.56298,8.61668c-5.37579,-6.00622 -5.58098,-13.01701 -13.05259,-13.01701c-2.80949,0 -10.35184,11.74106 -13.14333,12.06843c-2.16458,0.25385 -9.5718,-11.95827 -11.69189,-11.59592c-3.85002,0.65801 -12.57185,10.90762 -16.15431,12.03156c-1.4364,0.45065 -12.8412,-8.39959 -14.21446,-7.92692c-1.9641,0.67603 -9.08577,10.08015 -10.84415,10.85157c-2.79946,1.22814 -11.07205,-6.21968 -13.27454,-5.04791c-17.99849,9.57557 -11.46679,24.3436 -11.46679,0.86026z" fill="#623728" stroke-width="0"/></g><g data-paper-data="{&quot;index&quot;:null}" stroke="#000000"><path d="M340.93161,47.78197c16.56854,0 30,23.15159 30,51.71053c0,28.55893 -13.69462,43.28947 -30.26316,43.28947c-16.56854,0 -29.73684,-14.73053 -29.73684,-43.28947c0,-28.55894 13.43146,-51.71053 30,-51.71053z" fill="#f0f0f0" stroke-width="2"/><path d="M370.29559,98.66224c0,28.55893 -13.69462,43.28947 -30.26316,43.28947c-16.56854,0 21.9575,-33.80863 17.65491,-62.0416c-6.22027,-40.81653 12.60825,-9.80681 12.60825,18.75213z" fill="#9a99ff" stroke-width="0"/></g><path d="M329.74984,81.4736c5.78406,0 10.47297,12.82644 10.47297,28.64865c0,15.82221 -4.68891,28.64865 -10.47297,28.64865c-5.78406,0 -10.47297,-12.82644 -10.47297,-28.64865c0,-15.82221 4.68891,-28.64865 10.47297,-28.64865z" data-paper-data="{&quot;index&quot;:null}" fill="#000000" stroke="none" stroke-width="0"/><g data-paper-data="{&quot;index&quot;:null}" stroke="#000000"><path d="M315.94092,69.28734c4.24992,-9.74914 10.03298,-21.55405 25.74324,-21.55405c15.71026,0 18.17568,12.27019 22.5,21.41892c4.54481,9.61522 -26.20823,40.82154 -41.91849,40.82154c-15.71026,0 -10.78422,-30.45659 -6.32476,-40.6864z" fill="#a100fe" stroke-width="2"/><path d="M316.86519,69.10357c4.10501,-9.74914 9.69088,0.8269 24.86546,0.8269c15.17458,0 17.55594,-10.11076 21.73281,-0.96203c4.38984,9.61522 -27.55512,40.78259 -42.7297,40.78259c-15.17458,0 -8.17598,-30.41764 -3.86858,-40.64745z" fill="#99008e" stroke-width="0"/></g><g data-paper-data="{&quot;index&quot;:null}" stroke="#000000"><path d="M307.02198,97.83093c0,28.55894 -13.1683,43.28947 -29.73684,43.28947c-16.56854,0 -30.26316,-14.73054 -30.26316,-43.28947c0,-28.55894 13.43146,-51.71053 30,-51.71053c16.56854,0 30,23.15159 30,51.71053z" fill="#f0f0f0" stroke-width="2"/><path d="M260.26625,78.24852c-4.30259,28.23297 34.22345,62.0416 17.65491,62.0416c-16.56854,0 -30.26316,-14.73054 -30.26316,-43.28947c0,-28.55894 18.82852,-59.56866 12.60825,-18.75213z" fill="#9a99ff" stroke-width="0"/></g><path d="M302.77512,108.4523c0,15.82221 -4.68891,28.64865 -10.47297,28.64865c-5.78406,0 -10.47297,-12.82644 -10.47297,-28.64865c0,-15.82221 4.68891,-28.64865 10.47297,-28.64865c5.78406,0 10.47297,12.82644 10.47297,28.64865z" data-paper-data="{&quot;index&quot;:null}" fill="#000000" stroke="none" stroke-width="0"/><g data-paper-data="{&quot;index&quot;:null}" stroke="#000000"><path d="M302.01268,67.79622c4.45946,10.22981 10.36801,40.48138 -5.34225,40.48138c-15.71026,0 -47.44581,-31.0013 -42.901,-40.61652c4.32432,-9.14873 6.78974,-21.41892 22.5,-21.41892c15.71026,0 21.49332,11.80491 25.74324,21.55405z" fill="#a100fe" stroke-width="2"/><path d="M301.08841,66.73875c4.3074,10.22981 10.5777,41.12068 -4.59688,41.12068c-15.17458,0 -46.39124,-31.6406 -42.0014,-41.25582c4.17687,-9.14873 6.55823,0.96203 21.73281,0.96203c15.17458,0 20.76045,-10.57604 24.86546,-0.8269z" fill="#99008e" stroke-width="0"/></g><path d="M241.46751,338.87003c0,-11.6628 13.71248,-9.87692 31.62358,-9.87692c14.33063,0 27.65301,-10.77791 32.14847,-5.26144c1.12318,1.37828 1.08979,12.80695 1.08979,15.13837c0,11.6628 -14.51982,21.11737 -32.43092,21.11737c-17.9111,0 -32.43092,-9.45457 -32.43092,-21.11737z" data-paper-data="{&quot;index&quot;:null}" fill="#000082" stroke="#000000" stroke-width="2"/><path d="M274.34813,329.56302c14.33063,0 25.38775,-8.75646 29.88321,-5.7726c1.12318,0.74551 1.0898,12.01046 1.0898,13.27153c0,6.30841 -12.25456,9.26589 -30.16566,9.26589c-17.91111,0 -31.80169,-3.88169 -31.80169,-10.1901c0,-6.30841 13.08324,-6.57472 30.99434,-6.57472z" data-paper-data="{&quot;index&quot;:null}" fill="#2e0048" stroke="#000000" stroke-width="0"/><path d="M376.7881,339.54915c0,11.6628 -14.51982,21.11737 -32.43092,21.11737c-17.9111,0 -32.43092,-9.45457 -32.43092,-21.11737c0,-2.33142 -0.03339,-13.76009 1.08979,-15.13837c4.49546,-5.51647 17.81784,5.26144 32.14847,5.26144c17.9111,0 31.62358,-1.78588 31.62358,9.87692z" data-paper-data="{&quot;index&quot;:null}" fill="#000082" stroke="#000000" stroke-width="2"/><path d="M374.90182,336.81684c0,6.30841 -13.89058,10.1901 -31.80169,10.1901c-17.9111,0 -30.16566,-2.95748 -30.16566,-9.26589c0,-1.26107 -0.03338,-12.52602 1.0898,-13.27153c4.49546,-2.98386 15.55258,5.7726 29.88321,5.7726c17.9111,0 30.99434,0.26631 30.99434,6.57472z" data-paper-data="{&quot;index&quot;:null}" fill="#2e0048" stroke="#000000" stroke-width="0"/><g data-paper-data="{&quot;index&quot;:null}" stroke="#000000"><path d="M363.4947,222.17841c19.04404,-27.36135 28.68694,-27.62534 35.32805,-23.003c6.64112,4.62235 -3.41347,30.55024 -22.45752,57.91159c-19.04405,27.36133 -36.24094,-42.77964 -42.88205,-47.40198c-2.65168,-6.58004 3.86957,-6.84644 10.51,-2.64397c8.18921,5.18263 17.87372,17.47608 19.50154,15.13736z" fill="#216aff" stroke-width="2"/><path d="M404.4933,188.63412c12.04642,8.38456 15.18549,24.70213 7.0113,36.44631c-8.17418,11.74418 -24.56624,14.46769 -36.61265,6.08315c-12.04641,-8.38454 -15.18548,-24.70211 -7.0113,-36.4463c8.17418,-11.74418 24.56623,-14.4677 36.61265,-6.08315z" fill="#faddbf" stroke-width="2"/><path d="M393.82905,226.99618c8.17418,-11.74418 -2.19627,-46.26851 9.85015,-37.88396c12.04642,8.38456 15.1855,24.70213 7.01129,36.44631c-8.17418,11.74418 -25.03564,13.18183 -16.86143,1.43765z" fill="#ef8b89" stroke-width="0"/></g><g data-paper-data="{&quot;index&quot;:null}" stroke="#000000"><path d="M255.45831,221.51546c1.50951,2.41678 11.79333,-9.37992 20.23011,-14.14894c6.84117,-3.86708 13.34112,-3.27676 10.36554,3.16329c-6.86273,4.28641 -27.52604,73.48551 -45.18603,45.21107c-17.65999,-28.27444 -26.41289,-54.67023 -19.55016,-58.95663c6.86273,-4.28641 16.48058,-3.54325 34.14055,24.7312z" fill="#216aff" stroke-width="2"/><path d="M243.6284,229.92279c-12.44843,7.77519 -28.68478,4.23997 -36.26489,-7.89614c-7.5801,-12.13611 -3.63354,-28.27741 8.81489,-36.0526c12.44843,-7.77519 28.68477,-4.23997 36.26488,7.89614c7.5801,12.13611 3.63356,28.2774 -8.81487,36.05258z" fill="#faddbf" stroke-width="2"/><path d="M208.15287,222.54464c-7.58012,-12.1361 -3.63356,-28.2774 8.81487,-36.05258c12.44843,-7.77519 0.37411,26.19078 7.95423,38.32689c7.58013,12.13612 -9.18899,9.86181 -16.7691,-2.2743z" fill="#ef8b89" stroke-width="0"/></g><path d="M385.13254,146.84144c0,6.26448 -4.8162,6.03732 -11.43432,6.03732c-6.61812,0 -12.53202,0.22716 -12.53202,-6.03732c0,-6.26448 5.36505,-11.34285 11.98317,-11.34285c6.61812,0 11.98317,5.07837 11.98317,11.34285z" fill="#000000" stroke="none" stroke-width="0"/></g></g></svg>