<svg version="1.1" xmlns="http://www.w3.org/2000/svg" xmlns:xlink="http://www.w3.org/1999/xlink" width="220.74422" height="319.70595" viewBox="0,0,220.74422,319.70595"><g transform="translate(-216.75732,-5.70815)"><g data-paper-data="{&quot;isPaintingLayer&quot;:true}" fill-rule="nonzero" stroke-linejoin="miter" stroke-miterlimit="10" stroke-dasharray="" stroke-dashoffset="0" style="mix-blend-mode: normal"><g data-paper-data="{&quot;index&quot;:null}" stroke="#000000" stroke-linecap="butt"><path d="M373.54713,184.77788c3.8258,-33.11619 12.19528,-37.91274 20.2332,-36.98414c8.03792,0.92859 11.45251,28.52735 7.62671,61.64355c-3.82581,33.11619 -52.17231,-20.53178 -60.21022,-21.46037c-5.4502,-4.54133 0.1683,-7.86251 8.00688,-7.30346c9.66682,0.68943 24.01643,6.93507 24.34345,4.10443z" fill="#303145" stroke-width="2"/><path d="M364.41334,158.51147c1.64213,-14.21431 14.79285,-24.37181 29.37297,-22.68742c14.58012,1.68439 25.06844,14.57284 23.42631,28.78714c-1.64213,14.21431 -14.79286,24.37181 -29.37298,22.68742c-14.58012,-1.68439 -25.06842,-14.57284 -23.4263,-28.78714z" fill="#faddbf" stroke-width="2"/><path d="M402.54892,174.66463c1.64213,-14.21431 -23.8336,-39.71849 -9.25348,-38.0341c14.58012,1.68439 25.06844,14.57284 23.4263,28.78714c-1.64213,14.21431 -15.81496,23.46128 -14.17282,9.24696z" fill="#ef8b89" stroke-width="0"/></g><g stroke="#000000" stroke-linecap="butt"><path d="M388.01147,316.44794l-66.83681,-67.92616l21.02187,-20.68474l66.83681,67.92616z" fill="#7485a3" stroke-width="2"/><path d="M387.34588,316.23595l-64.83295,-67.78061c0,0 51.48037,44.90125 58.92354,50.78755c1.64546,1.30128 3.7546,0.21957 3.7546,0.21957l22.47801,-3.68463z" fill="#49374f" stroke-width="0"/></g><g data-paper-data="{&quot;index&quot;:null}" stroke="#000000" stroke-linecap="butt"><path d="M242.93527,294.94805l72.85003,-61.43285l19.01232,22.54572l-72.85003,61.43285z" fill="#7485a3" stroke-width="2"/><path d="M244.29225,295.0892l22.03926,5.754c0,0 1.99971,1.27271 3.75878,0.12969c7.95714,-5.17042 63.38096,-45.10226 63.38096,-45.10226l-70.84132,61.47382z" fill="#49374f" stroke-width="0"/></g><g stroke="#000000" stroke-linecap="butt"><path d="M358.55338,219.29158c0,13.80271 10.04743,36.74388 4.95001,46.45977c-6.2338,11.88187 -28.61241,9.09579 -38.9397,9.09579c-13.66287,0 -32.94407,4.17018 -38.34426,-14.83216c-2.01935,-7.10576 4.35457,-32.37264 4.35457,-40.7234c0,-30.68249 15.2177,-55.55556 33.98969,-55.55556c18.77199,0 33.98969,24.87307 33.98969,55.55556z" fill="#585858" stroke-width="2"/><path d="M307.28975,234.86815c0,13.80271 62.04198,20.54886 56.94455,30.26474c-6.2338,11.88186 -28.61241,9.09579 -38.9397,9.09579c-13.66287,0 -32.94406,4.17018 -38.34425,-14.83215c-2.01936,-7.10576 4.35457,-32.37265 4.35457,-40.7234c0,-9.45244 3.34855,-28.59801 5.51953,-29.96813c5.94391,-16.76415 10.4653,25.13995 10.4653,46.16315z" fill="#303145" stroke-width="0"/></g><g stroke="#000000" stroke-linecap="butt"><g><path d="M238.63557,94.16481c0,-46.79079 37.93143,-84.72222 84.72222,-84.72222c46.79079,0 84.72222,37.93143 84.72222,84.72222c0,46.79079 -37.93143,84.72222 -84.72222,84.72222c-46.79079,0 -84.72222,-37.93143 -84.72222,-84.72222z" fill="#faddbf" stroke-width="2"/><path d="M238.86634,93.2953c0,-15.05428 8.65728,-41.01117 13.16632,-44.22534c0.51494,-0.36707 5.78642,-8.91029 13.30693,-15.62682c9.34748,-8.34819 21.31473,-15.15641 21.9255,-14.95935c7.96872,2.57101 -17.52654,64.85492 -16.28763,90.14485c0.00295,0.06031 4.40745,19.70158 6.02593,20.14049c2.8855,4.74247 9.11092,19.15337 19.99223,26.29351c20.2786,13.30648 48.94186,19.68013 47.45857,20.18586c-2.37273,0.80898 -14.80271,2.76903 -20.86562,2.76903c-46.79079,0 -84.72222,-37.93143 -84.72222,-84.72222z" fill="#ef8b89" stroke-width="0"/><path d="M407.55657,93.70661c0,11.62434 -1.57787,15.64071 -2.12992,13.78899c-0.5632,-1.8891 -0.18668,-9.81362 -9.04258,-14.64925c-2.14596,-1.17177 -10.20624,6.27605 -12.93385,5.04791c-1.71325,-0.77142 -8.65215,-10.17554 -10.56583,-10.85157c-1.33801,-0.47267 -12.45011,8.37757 -13.84965,7.92692c-3.49052,-1.12394 -11.98851,-11.37355 -15.73972,-12.03156c-2.06568,-0.36235 -9.2828,11.84977 -11.39182,11.59592c-2.71985,-0.32737 -10.06862,-12.06843 -12.80601,-12.06843c-7.27985,0 -7.47978,7.01079 -12.7176,13.01701c-3.40366,3.90299 -13.98842,-13.05188 -17.11223,-8.61668c-3.87941,5.50799 -7.71992,10.81771 -11.96095,14.41734c-3.32724,2.82405 -13.36416,-10.09687 -16.24015,-7.47909c-13.88607,12.63935 -22.22353,20.64372 -22.22353,2.47189c0,-36.54015 43.28764,-8.21349 85.0704,-29.73523c39.99404,-20.60039 83.64345,-9.37431 83.64345,27.16584z" fill="#ef8b89" stroke-width="0"/></g><path d="M409.09044,85.39572c0,23.48334 6.5317,8.71531 -11.46679,-0.86026c-2.20249,-1.17177 -10.47508,6.27605 -13.27454,5.04791c-1.75838,-0.77142 -8.88005,-10.17554 -10.84414,-10.85157c-1.37326,-0.47267 -12.77806,8.37757 -14.21446,7.92692c-3.58246,-1.12394 -12.30429,-11.37355 -16.15431,-12.03156c-2.12009,-0.36235 -9.52731,11.84977 -11.69189,11.59592c-2.79149,-0.32737 -10.33384,-12.06843 -13.14333,-12.06843c-7.47161,0 -7.6768,7.01079 -13.05259,13.01701c-3.49332,3.90299 -14.35688,-13.05188 -17.56298,-8.61668c-3.98159,5.50799 -7.92327,10.81771 -12.276,14.41734c-3.41488,2.82405 -13.71618,-10.09687 -16.66792,-7.47909c-14.25184,12.63935 -22.80892,20.64372 -22.80892,2.47189c0,-36.54015 39.86264,-81.25697 85.78948,-81.25697c45.92683,0 87.36842,42.14743 87.36842,78.68758z" fill="#724e36" stroke-width="2"/><path d="M408.84271,84.23293c0,23.48334 6.5317,8.71531 -11.46679,-0.86026c-2.20249,-1.17177 -10.47508,6.27605 -13.27454,5.04791c-1.75838,-0.77142 -8.88005,-10.17554 -10.84415,-10.85157c-1.37326,-0.47267 -12.77806,8.37757 -14.21446,7.92692c-3.58246,-1.12394 -12.30429,-11.37355 -16.15431,-12.03156c-2.12009,-0.36235 -9.52731,11.84977 -11.69189,11.59592c-2.79149,-0.32737 -10.33384,-12.06843 -13.14333,-12.06843c-7.47161,0 -7.6768,7.01079 -13.05259,13.01701c-3.49332,3.90299 -14.35688,-13.05188 -17.56298,-8.61668c-3.98159,5.50799 -7.92327,10.81771 -12.27601,14.41734c-3.41488,2.82405 -13.71618,-10.09687 -16.66792,-7.47909c-14.25184,12.63935 -22.80892,20.64372 -22.80892,2.47189c0,-36.54015 44.42786,-8.21349 87.31121,-29.73523c41.04751,-20.60039 85.84668,-9.37431 85.84668,27.16584z" fill="#623728" stroke-width="0"/></g><g stroke="#000000" stroke-linecap="butt"><path d="M342.19291,117.06717c0,28.55894 -13.1683,43.28947 -29.73684,43.28947c-16.56854,0 -30.26316,-14.73054 -30.26316,-43.28947c0,-28.55894 13.43146,-51.71053 30,-51.71053c16.56854,0 30,23.15159 30,51.71053z" fill="#f0f0f0" stroke-width="2"/><path d="M295.43718,97.48477c-4.30259,28.23297 34.22345,62.0416 17.65491,62.0416c-16.56854,0 -30.26316,-14.73054 -30.26316,-43.28947c0,-28.55894 18.82852,-59.56866 12.60825,-18.75213z" fill="#9a99ff" stroke-width="0"/></g><path d="M340.69848,124.30042c0,15.82221 -4.68891,28.64865 -10.47297,28.64865c-5.78406,0 -10.47297,-12.82644 -10.47297,-28.64865c0,-15.82221 4.68891,-28.64865 10.47297,-28.64865c5.78406,0 10.47297,12.82644 10.47297,28.64865z" fill="#000000" stroke="none" stroke-width="0" stroke-linecap="butt"/><g stroke="#000000" stroke-linecap="butt"><path d="M337.18361,86.8325c4.45946,10.22981 9.90215,28.32162 -5.80811,28.32162c-15.71026,0 -46.97995,-18.84154 -42.43514,-28.45676c4.32432,-9.14873 6.78974,-21.41892 22.5,-21.41892c15.71026,0 21.49332,11.80491 25.74324,21.55405z" fill="#a100fe" stroke-width="2"/><path d="M336.25934,86.47824c4.3074,10.22981 10.23964,28.32162 -4.93494,28.32162c-15.17458,0 -46.05318,-18.84154 -41.66334,-28.45676c4.17687,-9.14873 6.55823,0.96203 21.73281,0.96203c15.17458,0 20.76045,-10.57604 24.86546,-0.8269z" fill="#99008e" stroke-width="0"/></g><g data-paper-data="{&quot;index&quot;:null}" stroke="#000000" stroke-linecap="butt"><path d="M375.91959,63.87801c16.56854,0 30,23.15159 30,51.71053c0,28.55893 -13.69462,43.28947 -30.26316,43.28947c-16.56854,0 -29.73684,-14.73053 -29.73684,-43.28947c0,-28.55894 13.43146,-51.71053 30,-51.71053z" fill="#f0f0f0" stroke-width="2"/><path d="M405.28357,114.75827c0,28.55893 -13.69462,43.28947 -30.26316,43.28947c-16.56854,0 21.9575,-33.80863 17.65491,-62.0416c-6.22027,-40.81653 12.60825,-9.80681 12.60825,18.75213z" fill="#9a99ff" stroke-width="0"/></g><path d="M394.24721,92.08033c5.78406,0 10.47297,12.82644 10.47297,28.64865c0,15.82221 -4.68891,28.64865 -10.47297,28.64865c-5.78406,0 -10.47297,-12.82644 -10.47297,-28.64865c0,-15.82221 4.68891,-28.64865 10.47297,-28.64865z" data-paper-data="{&quot;index&quot;:null}" fill="#000000" stroke="none" stroke-width="0" stroke-linecap="butt"/><g data-paper-data="{&quot;index&quot;:null}" stroke="#000000" stroke-linecap="butt"><path d="M350.9289,85.55383c4.24992,-9.74914 10.03298,-21.55405 25.74324,-21.55405c15.71026,0 18.17568,12.27019 22.5,21.41892c4.54481,9.61522 -26.32488,26.25676 -42.03514,26.25676c-15.71026,0 -10.66757,-15.89181 -6.20811,-26.12162z" fill="#a100fe" stroke-width="2"/><path d="M351.85317,85.19959c4.10501,-9.74914 9.69088,0.8269 24.86546,0.8269c15.17458,0 17.55594,-10.11076 21.73281,-0.96203c4.38984,9.61522 -27.68876,26.45676 -42.86334,26.45676c-15.17458,0 -8.04234,-16.09181 -3.73494,-26.32162z" fill="#99008e" stroke-width="0"/></g><path d="M432.16037,270.2499c8.17992,8.31323 4.46133,25.23618 -8.30569,37.79845c-12.76702,12.56227 -29.74787,16.00679 -37.92779,7.69356c-1.63518,-1.66183 -9.67469,-9.78476 -9.84076,-11.55496c-0.66471,-7.08511 16.39075,-8.74651 26.60561,-18.79755c12.76702,-12.56227 21.28871,-23.45274 29.46862,-15.1395z" fill="#000082" stroke="#000000" stroke-width="2" stroke-linecap="butt"/><path d="M428.89949,269.6253c4.42452,4.49664 -2.75419,17.00591 -15.52122,29.56818c-12.76702,12.56227 -23.57634,19.04914 -28.00086,14.55251c-0.88448,-0.89889 -8.80914,-8.90512 -8.53141,-10.22429c1.11158,-5.27987 15.13458,-6.79337 25.34945,-16.84442c12.76702,-12.56227 22.27953,-21.54861 26.70404,-17.05198z" fill="#2e0048" stroke="#000000" stroke-width="0" stroke-linecap="butt"/><path d="M223.26597,271.33222c8.91585,-7.51855 16.39049,4.11551 27.93707,17.80799c9.23839,10.95533 26.06617,14.19178 24.74705,21.18467c-0.32958,1.74716 -9.08798,9.08925 -10.87027,10.59222c-8.91585,7.51855 -25.50393,2.51357 -37.0505,-11.17891c-11.54658,-13.69249 -13.6792,-30.88742 -4.76335,-38.40597z" data-paper-data="{&quot;index&quot;:null}" fill="#000082" stroke="#000000" stroke-width="2" stroke-linecap="butt"/><path d="M251.57774,290.46855c9.23839,10.95533 23.06052,13.76321 23.67749,19.12343c0.15415,1.33923 -8.47907,8.57578 -9.44312,9.38875c-4.82259,4.06678 -14.98351,-3.39488 -26.53009,-17.08737c-11.54658,-13.69249 -17.53385,-26.81379 -12.71127,-30.88057c4.82259,-4.06678 13.46041,5.76327 25.00699,19.45576z" data-paper-data="{&quot;index&quot;:null}" fill="#2e0048" stroke="#000000" stroke-width="0" stroke-linecap="butt"/><g><path d="M293.44572,243.09368c-13.64858,-6.42956 -18.38675,-17.0484 -12.65804,-30.84302c4.48045,-10.78892 21.42031,-17.19712 35.06891,-10.76755c13.64866,6.42956 19.40893,19.91967 13.04348,33.43227c-0.99543,2.11311 -2.54126,3.76785 -3.93899,5.29238c-7.54025,8.22407 -20.00112,8.31004 -31.51534,2.88594z" fill="#485e84" stroke="#000000" stroke-width="2" stroke-linecap="butt"/><path d="M302.11421,200.62736c0,0 -2.84491,5.00375 -1.90518,6.77301c9.01403,16.97118 21.24051,23.87997 25.45874,25.85641c0.95837,0.44905 1.89018,-0.17752 1.89018,-0.17752c0,0 -0.69501,1.99626 -2.37227,4.1644c-1.78474,2.30709 -4.63827,4.82924 -7.45843,6.05064c-3.22143,1.39515 -11.46731,2.62558 -11.46731,2.62558l-20.11189,-5.86264c0,0 -5.62647,-12.21875 -5.79872,-14.37913c-0.16877,-2.11646 0.23856,-4.66926 0.56241,-7.40094c0.50284,-4.24131 2.5697,-8.28296 4.54928,-10.37486c2.52643,-2.66971 6.65226,-4.84444 10.28493,-6.01326c3.38088,-1.0878 6.36821,-1.26156 6.36821,-1.26156z" fill="#343545" stroke="none" stroke-width="0" stroke-linecap="butt"/><path d="M293.88347,223.63658c0,0 2.07058,-8.78128 6.0639,-12.04219c5.05511,-4.12799 16.98611,-9.20278 16.98611,-9.20278" fill="none" stroke="#000000" stroke-width="1" stroke-linecap="round"/><path d="M330.36164,227.97935c0,0 -4.3425,5.68089 -7.69212,8.37381c-3.38157,2.71867 -12.60164,5.7424 -12.60164,5.7424" fill="none" stroke="#000000" stroke-width="1" stroke-linecap="round"/><path d="M283.0445,221.94156c0,0 1.99077,-9.04561 6.47697,-12.38072c6.88393,-5.11759 17.35609,-10.10052 17.35609,-10.10052" fill="none" stroke="#000000" stroke-width="1" stroke-linecap="round"/><path d="M285.53343,206.86169c0,0 16.90504,-3.70065 29.78695,8.02966c14.1105,12.84906 6.46587,28.31031 6.46587,28.31031" fill="none" stroke="#000000" stroke-width="1" stroke-linecap="round"/><path d="M280.36156,214.859c0,0 17.77816,-0.89421 29.16766,9.43239c9.35181,8.4791 4.13081,22.10481 4.13081,22.10481" fill="none" stroke="#000000" stroke-width="1" stroke-linecap="round"/><path d="M324.07539,214.50361c-0.65944,-1.00615 -0.54827,-2.24496 0.24822,-2.76698c0.79649,-0.52209 1.2521,0.13091 1.91153,1.13706c0.65944,1.00615 1.27295,1.98441 0.47645,2.50645c-0.79649,0.52209 -1.97681,0.12962 -2.63619,-0.87652z" fill="#8fbbbe" stroke="none" stroke-width="0" stroke-linecap="butt"/><path d="M327.19564,221.07041c-0.54413,-0.25635 -0.67355,-1.12577 -0.28906,-1.94196c0.38449,-0.8162 0.65416,-1.09636 1.19829,-0.84005c0.54413,0.25635 0.83777,1.20313 0.45325,2.01931c-0.38449,0.8162 -0.81839,1.019 -1.3625,0.76268z" fill="#8fbbbe" stroke="none" stroke-width="0" stroke-linecap="butt"/><path d="M320.22925,208.7529c-0.7706,-0.4693 -1.14165,-1.26611 -0.82882,-1.77983c0.31278,-0.5137 0.95906,-0.05715 1.72965,0.4121c0.7706,0.4693 1.37372,0.77347 1.0609,1.28721c-0.31278,0.5137 -1.19115,0.54977 -1.96173,0.0805z" fill="#8fbbbe" stroke="none" stroke-width="0" stroke-linecap="butt"/><path d="M297.66028,201.13766c0,0 10.1698,1.12018 16.8615,4.67558c3.79385,2.01575 6.44173,5.10202 8.423,7.46438c1.75216,2.08912 3.6656,8.37915 4.62917,13.34602c0.70943,3.65683 0.71816,6.60079 0.71816,6.60079" fill="none" stroke="#000000" stroke-width="0.5" stroke-linecap="round"/><path d="M329.53661,213.54552c0,0 -4.86998,9.3841 -8.94154,12.93931c-3.43037,2.99536 -13.56702,7.15619 -13.56702,7.15619" fill="none" stroke="#000000" stroke-width="1" stroke-linecap="round"/><path d="M302.63388,229.76516c0,0 4.54781,-8.5291 7.61235,-11.85467c5.38074,-5.83906 15.10921,-9.54496 15.10921,-9.54496" fill="none" stroke="#000000" stroke-width="1" stroke-linecap="round"/></g><g stroke="#000000" stroke-linecap="butt"><path d="M281.3209,219.31226c24.43241,22.67986 23.34663,32.26507 17.84181,38.19527c-5.50483,5.93021 -29.77375,-7.64809 -54.20616,-30.32796c-24.4324,-22.67987 47.42322,-29.90889 52.92805,-35.83909c6.88596,-1.70639 6.23868,4.78812 1.14971,10.77631c-6.27589,7.38484 -19.80179,15.25689 -17.71341,17.19548z" fill="#585858" stroke-width="2"/><path d="M307.89997,227.49171c10.48701,9.73477 10.89373,26.34655 0.90843,37.10344c-9.9853,10.75689 -26.58139,11.58549 -37.0684,1.85072c-10.48701,-9.73477 -10.89372,-26.34656 -0.90842,-37.10345c9.9853,-10.75689 26.58139,-11.58548 37.0684,-1.85071z" fill="#faddbf" stroke-width="2"/><path d="M272.31245,248.67604c10.48701,9.73477 46.12158,4.28933 36.13628,15.04622c-9.9853,10.75689 -26.58139,11.58549 -37.0684,1.85071c-10.48701,-9.73477 -9.5549,-26.63171 0.93211,-16.89693z" fill="#ef8b89" stroke-width="0"/></g><path d="M277.82946,163.08669v-92.8c0,0 21.21425,-8.6 31.8,-8.6c11.41789,0 34.4,8.6 34.4,8.6v92.8c0,0 -24.38211,5.8 -35.8,5.8c-10.58575,0 -30.4,-5.8 -30.4,-5.8z" fill-opacity="0.74902" fill="#fffe00" stroke="#000000" stroke-width="2.5" stroke-linecap="butt"/><path d="M273.37403,136.78977c-2.00433,2.54124 -6.13358,-2.74785 -10.40286,-6.11514c-4.26928,-3.36728 -7.06191,-3.53763 -5.05757,-6.07887c2.00433,-2.54124 7.0901,-1.8716 11.35939,1.49569c4.26928,3.36728 6.10538,8.15708 4.10105,10.69832z" fill="#000000" stroke="none" stroke-width="0" stroke-linecap="butt"/></g></g></svg>