<svg version="1.1" xmlns="http://www.w3.org/2000/svg" xmlns:xlink="http://www.w3.org/1999/xlink" width="180.60267" height="298.3545" viewBox="0,0,180.60267,298.3545"><g transform="translate(-222.19087,-63.31202)"><g data-paper-data="{&quot;isPaintingLayer&quot;:true}" fill-rule="nonzero" stroke-linecap="butt" stroke-linejoin="miter" stroke-miterlimit="10" stroke-dasharray="" stroke-dashoffset="0" style="mix-blend-mode: normal"><g data-paper-data="{&quot;index&quot;:null}" stroke="#000000"><path d="M275.84666,340.83535v-95.29492h29.49199v95.29492z" fill="#73fffc" stroke-width="2"/><path d="M276.82937,339.88894l18.60659,-13.13896c0,0 2.26208,-0.70825 2.52228,-2.78987c1.17702,-9.41615 6.3799,-77.52842 6.3799,-77.52842l1.32626,93.78573z" fill="#59a9e6" stroke-width="0"/></g><g data-paper-data="{&quot;index&quot;:null}" stroke="#000000"><path d="M316.56252,339.73674v-95.29492h29.49199v95.29492z" fill="#73fffc" stroke-width="2"/><path d="M316.23677,339.11885l1.32626,-93.78573c0,0 5.20288,68.11227 6.3799,77.52842c0.2602,2.08162 2.52228,2.78987 2.52228,2.78987l18.60659,13.13896z" fill="#59a9e6" stroke-width="0"/></g><g data-paper-data="{&quot;index&quot;:null}" stroke="#000000"><path d="M311.86435,180.14033c18.77199,0 33.98969,24.87307 33.98969,55.55556c0,8.35076 6.37392,33.61764 4.35457,40.7234c-5.40019,19.00234 -24.68139,14.83216 -38.34426,14.83216c-10.32729,0 -32.7059,2.78608 -38.9397,-9.09579c-5.09742,-9.71589 4.95001,-32.65706 4.95001,-46.45977c0,-30.68249 15.2177,-55.55556 33.98969,-55.55556z" fill="#216aff" stroke-width="2"/><path d="M339.60359,205.10932c2.17098,1.37012 5.51953,20.51569 5.51953,29.96813c0,8.35075 6.37393,33.61764 4.35457,40.7234c-5.40019,19.00233 -24.68138,14.83215 -38.34425,14.83215c-10.32729,0 -32.7059,2.78607 -38.9397,-9.09579c-5.09743,-9.71588 56.94455,-16.46203 56.94455,-30.26474c0,-21.0232 4.52139,-62.9273 10.4653,-46.16315z" fill="#3236f4" stroke-width="0"/></g><path d="M241.46751,338.87003c0,-11.6628 13.71248,-9.87692 31.62358,-9.87692c14.33063,0 27.65301,-10.77791 32.14847,-5.26144c1.12318,1.37828 1.08979,12.80695 1.08979,15.13837c0,11.6628 -14.51982,21.11737 -32.43092,21.11737c-17.9111,0 -32.43092,-9.45457 -32.43092,-21.11737z" data-paper-data="{&quot;index&quot;:null}" fill="#000082" stroke="#000000" stroke-width="2"/><path d="M274.34813,329.56302c14.33063,0 25.38775,-8.75646 29.88321,-5.7726c1.12318,0.74551 1.0898,12.01046 1.0898,13.27153c0,6.30841 -12.25456,9.26589 -30.16566,9.26589c-17.91111,0 -31.80169,-3.88169 -31.80169,-10.1901c0,-6.30841 13.08324,-6.57472 30.99434,-6.57472z" data-paper-data="{&quot;index&quot;:null}" fill="#2e0048" stroke="#000000" stroke-width="0"/><path d="M376.7881,339.54915c0,11.6628 -14.51982,21.11737 -32.43092,21.11737c-17.9111,0 -32.43092,-9.45457 -32.43092,-21.11737c0,-2.33142 -0.03339,-13.76009 1.08979,-15.13837c4.49546,-5.51647 17.81784,5.26144 32.14847,5.26144c17.9111,0 31.62358,-1.78588 31.62358,9.87692z" data-paper-data="{&quot;index&quot;:null}" fill="#000082" stroke="#000000" stroke-width="2"/><path d="M374.90182,336.81684c0,6.30841 -13.89058,10.1901 -31.80169,10.1901c-17.9111,0 -30.16566,-2.95748 -30.16566,-9.26589c0,-1.26107 -0.03338,-12.52602 1.0898,-13.27153c4.49546,-2.98386 15.55258,5.7726 29.88321,5.7726c17.9111,0 30.99434,0.26631 30.99434,6.57472z" data-paper-data="{&quot;index&quot;:null}" fill="#2e0048" stroke="#000000" stroke-width="0"/><g data-paper-data="{&quot;index&quot;:null}" stroke="#000000"><path d="M345.43952,238.66874c2.84848,0.07453 -1.31585,-15.01113 -0.63818,-24.67879c0.5495,-7.83927 4.62822,-12.93452 8.35746,-6.89953c-0.21168,8.08861 46.0996,63.50301 12.77456,62.6309c-33.32504,-0.87212 -60.16873,-8.1362 -59.95705,-16.22482c0.21168,-8.08861 6.13818,-15.69989 39.46322,-14.82777z" fill="#216aff" stroke-width="2"/><path d="M320.71969,225.92981c14.30395,0.37434 25.58832,12.57187 25.20435,27.24392c-0.38396,14.67207 -12.29087,26.26267 -26.59482,25.88834c-14.30395,-0.37433 -25.58833,-12.57186 -25.20436,-27.24393c0.38396,-14.67207 12.29089,-26.26267 26.59483,-25.88833z" fill="#faddbf" stroke-width="2"/><path d="M331.34598,265.95894c14.30395,0.37432 3.15472,13.10498 -11.14923,12.73064c-14.30395,-0.37432 -25.58834,-12.57185 -25.20438,-27.24392c0.38396,-14.67207 22.04966,14.13893 36.35361,14.51327z" fill="#ef8b89" stroke-width="0"/></g><g data-paper-data="{&quot;index&quot;:null}" stroke="#000000"><path d="M262.90799,206.032c1.7183,33.29214 -5.73999,39.41007 -13.82061,39.82712c-8.08062,0.41707 -16.02421,-26.23345 -17.74251,-59.52559c-1.71829,-33.29213 54.85455,11.59664 62.93517,11.17958c6.12777,3.57474 1.13774,7.78157 -6.68503,8.53001c-9.64732,0.92301 -24.83389,-2.8568 -24.68703,-0.01112z" fill="#216aff" stroke-width="2"/><path d="M276.27067,230.4203c0.73754,14.28983 -10.54687,26.48729 -25.20445,27.24381c-14.65759,0.75652 -27.1378,-10.2144 -27.87534,-24.50422c-0.73754,-14.28983 10.54688,-26.4873 25.20447,-27.24382c14.65759,-0.75652 27.13778,10.2144 27.87533,24.50423z" fill="#faddbf" stroke-width="2"/><path d="M235.98459,220.81417c0.73754,14.28983 30.08956,35.21671 15.43198,35.97323c-14.65759,0.75652 -27.1378,-10.2144 -27.87533,-24.50423c-0.73754,-14.28983 11.70582,-25.75885 12.44335,-11.46901z" fill="#ef8b89" stroke-width="0"/></g><g data-paper-data="{&quot;index&quot;:null}" stroke="#000000"><g><path d="M314.36831,236.4909c-46.79079,0 -84.72222,-37.93143 -84.72222,-84.72222c0,-46.79079 37.93143,-84.72222 84.72222,-84.72222c46.79079,0 84.72222,37.93143 84.72222,84.72222c0,46.79079 -37.93143,84.72222 -84.72222,84.72222z" fill="#faddbf" stroke-width="2"/><path d="M398.85976,150.89918c0,46.79079 -37.93143,84.72222 -84.72222,84.72222c-6.06291,0 -18.49289,-1.96005 -20.86562,-2.76903c-1.48329,-0.50573 27.17997,-6.87938 47.45857,-20.18586c10.88131,-7.14014 17.10673,-21.55104 19.99223,-26.29351c1.61848,-0.43891 6.02298,-20.08018 6.02593,-20.14049c1.23891,-25.28993 -24.25635,-87.57384 -16.28763,-90.14485c0.61077,-0.19706 12.57802,6.61116 21.9255,14.95935c7.52051,6.71653 12.79199,15.25975 13.30693,15.62682c4.50904,3.21417 13.16632,29.17106 13.16632,44.22534z" fill="#ef8b89" stroke-width="0"/><path d="M230.16953,151.3105c0,-36.54015 43.64941,-47.76623 83.64345,-27.16584c41.78276,21.52174 85.0704,-6.80492 85.0704,29.73523c0,18.17183 -8.33746,10.16746 -22.22353,-2.47189c-2.87599,-2.61778 -12.91291,10.30314 -16.24015,7.47909c-4.24103,-3.59963 -8.08154,-8.90935 -11.96095,-14.41734c-3.12381,-4.4352 -13.70857,12.51967 -17.11223,8.61668c-5.23782,-6.00622 -5.43775,-13.01701 -12.7176,-13.01701c-2.73739,0 -10.08616,11.74106 -12.80601,12.06843c-2.10902,0.25385 -9.32614,-11.95827 -11.39182,-11.59592c-3.75121,0.65801 -12.2492,10.90762 -15.73972,12.03156c-1.39954,0.45065 -12.51164,-8.39959 -13.84965,-7.92692c-1.91368,0.67603 -8.85258,10.08015 -10.56583,10.85157c-2.72761,1.22814 -10.78789,-6.21968 -12.93385,-5.04791c-8.8559,4.83563 -8.47938,12.76015 -9.04258,14.64925c-0.55205,1.85172 -2.12992,-2.16465 -2.12992,-13.78899z" fill="#ef8b89" stroke-width="0"/></g><path d="M228.63564,142.9996c0,-36.54015 41.44159,-78.68758 87.36842,-78.68758c45.92684,0 85.78948,44.71682 85.78948,81.25697c0,18.17183 -8.55708,10.16746 -22.80892,-2.47189c-2.95174,-2.61778 -13.25304,10.30314 -16.66792,7.47909c-4.35273,-3.59963 -8.29441,-8.90935 -12.276,-14.41734c-3.2061,-4.4352 -14.06966,12.51967 -17.56298,8.61668c-5.37579,-6.00622 -5.58098,-13.01701 -13.05259,-13.01701c-2.80949,0 -10.35184,11.74106 -13.14333,12.06843c-2.16458,0.25385 -9.5718,-11.95827 -11.69189,-11.59592c-3.85002,0.65801 -12.57185,10.90762 -16.15431,12.03156c-1.4364,0.45065 -12.8412,-8.39959 -14.21446,-7.92692c-1.96409,0.67603 -9.08576,10.08015 -10.84414,10.85157c-2.79946,1.22814 -11.07205,-6.21968 -13.27454,-5.04791c-17.99849,9.57557 -11.46679,24.3436 -11.46679,0.86026z" fill="#724e36" stroke-width="2"/><path d="M228.8834,141.83681c0,-36.54015 44.79917,-47.76623 85.84668,-27.16584c42.88335,21.52174 87.31121,-6.80492 87.31121,29.73523c0,18.17183 -8.55708,10.16746 -22.80892,-2.47189c-2.95174,-2.61778 -13.25304,10.30314 -16.66792,7.47909c-4.35274,-3.59963 -8.29442,-8.90935 -12.27601,-14.41734c-3.2061,-4.4352 -14.06966,12.51967 -17.56298,8.61668c-5.37579,-6.00622 -5.58098,-13.01701 -13.05259,-13.01701c-2.80949,0 -10.35184,11.74106 -13.14333,12.06843c-2.16458,0.25385 -9.5718,-11.95827 -11.69189,-11.59592c-3.85002,0.65801 -12.57185,10.90762 -16.15431,12.03156c-1.4364,0.45065 -12.8412,-8.39959 -14.21446,-7.92692c-1.9641,0.67603 -9.08577,10.08015 -10.84415,10.85157c-2.79946,1.22814 -11.07205,-6.21968 -13.27454,-5.04791c-17.99849,9.57557 -11.46679,24.3436 -11.46679,0.86026z" fill="#623728" stroke-width="0"/></g><g data-paper-data="{&quot;index&quot;:null}" stroke="#000000"><path d="M345.33081,133.04924c16.56854,0 30,23.15159 30,51.71053c0,28.55893 -13.69462,43.28947 -30.26316,43.28947c-16.56854,0 -29.73684,-14.73053 -29.73684,-43.28947c0,-28.55894 13.43146,-51.71053 30,-51.71053z" fill="#f0f0f0" stroke-width="2"/><path d="M374.69479,183.92951c0,28.55893 -13.69462,43.28947 -30.26316,43.28947c-16.56854,0 21.9575,-33.80863 17.65491,-62.0416c-6.22027,-40.81653 12.60825,-9.80681 12.60825,18.75213z" fill="#9a99ff" stroke-width="0"/></g><path d="M330.3763,165.06711c5.68302,0 10.29002,12.60238 10.29002,28.14819c0,15.54582 -4.607,28.1482 -10.29002,28.1482c-5.68302,0 -10.29002,-12.60238 -10.29002,-28.1482c0,-15.54582 4.607,-28.14819 10.29002,-28.14819z" data-paper-data="{&quot;index&quot;:null}" fill="#000000" stroke="none" stroke-width="0"/><g data-paper-data="{&quot;index&quot;:null}" stroke="#000000"><path d="M320.34012,154.72508c4.24992,-9.74914 10.03298,-21.55405 25.74324,-21.55405c15.71026,0 18.17568,12.27019 22.5,21.41892c4.54481,9.61522 -6.92488,14.25676 -22.63514,14.25676c-15.71026,0 -30.06757,-3.89181 -25.60811,-14.12162z" fill="#a100fe" stroke-width="2"/><path d="M321.26439,154.37084c4.10501,-9.74914 9.69088,0.8269 24.86546,0.8269c15.17458,0 17.55594,-10.11076 21.73281,-0.96203c4.38984,9.61522 -6.68876,14.25676 -21.86334,14.25676c-15.17458,0 -29.04234,-3.89181 -24.73494,-14.12162z" fill="#99008e" stroke-width="0"/></g><g data-paper-data="{&quot;index&quot;:null}" stroke="#000000"><path d="M311.60413,183.28115c0,28.55894 -13.1683,43.28947 -29.73684,43.28947c-16.56854,0 -30.26316,-14.73054 -30.26316,-43.28947c0,-28.55894 13.43146,-51.71053 30,-51.71053c16.56854,0 30,23.15159 30,51.71053z" fill="#f0f0f0" stroke-width="2"/><path d="M264.8484,163.69874c-4.30259,28.23297 34.22345,62.0416 17.65491,62.0416c-16.56854,0 -30.26316,-14.73054 -30.26316,-43.28947c0,-28.55894 18.82852,-59.56866 12.60825,-18.75213z" fill="#9a99ff" stroke-width="0"/></g><path d="M304.05765,195.46104c0,15.82221 -4.68891,28.64865 -10.47297,28.64865c-5.78406,0 -10.47297,-12.82644 -10.47297,-28.64865c0,-15.82221 4.68891,-28.64865 10.47297,-28.64865c5.78406,0 10.47297,12.82644 10.47297,28.64865z" data-paper-data="{&quot;index&quot;:null}" fill="#000000" stroke="none" stroke-width="0"/><g data-paper-data="{&quot;index&quot;:null}" stroke="#000000"><path d="M306.59483,153.24644c4.45946,10.22981 -9.89785,14.12162 -25.60811,14.12162c-15.71026,0 -27.17995,-4.64154 -22.63514,-14.25676c4.32432,-9.14873 6.78974,-21.41892 22.5,-21.41892c15.71026,0 21.49332,11.80491 25.74324,21.55405z" fill="#a100fe" stroke-width="2"/><path d="M305.67056,152.8922c4.3074,10.22981 -9.56036,14.12162 -24.73494,14.12162c-15.17458,0 -26.25318,-4.64154 -21.86334,-14.25676c4.17687,-9.14873 6.55823,0.96203 21.73281,0.96203c15.17458,0 20.76045,-10.57604 24.86546,-0.8269z" fill="#99008e" stroke-width="0"/></g><path d="M393.98843,199.99011c0,7.64284 -3.06892,13.83859 -6.85463,13.83859c-3.78571,0 -6.85463,-6.19575 -6.85463,-13.83859c0,-7.64284 3.06892,-13.83859 6.85463,-13.83859c3.78571,0 6.85463,6.19575 6.85463,13.83859z" fill="#000000" stroke="none" stroke-width="0"/></g></g></svg>