<svg version="1.1" xmlns="http://www.w3.org/2000/svg" xmlns:xlink="http://www.w3.org/1999/xlink" width="207.93553" height="318.3368" viewBox="0,0,207.93553,318.3368"><g transform="translate(-216.34502,-27.24323)"><g data-paper-data="{&quot;isPaintingLayer&quot;:true}" fill-rule="nonzero" stroke-linecap="butt" stroke-linejoin="miter" stroke-miterlimit="10" stroke-dasharray="" stroke-dashoffset="0" style="mix-blend-mode: normal"><g data-paper-data="{&quot;index&quot;:null}"><path d="M383.22661,219.00233l-73.50246,-90.85535l39.64754,-32.07507l73.50246,90.85535z" fill="#fac843" stroke="#000000" stroke-width="2"/><g fill="none" stroke="none" stroke-width="1" font-family="sans-serif" font-weight="normal" font-size="12" text-anchor="start"/><path d="M383.00885,217.47601l-73.50246,-90.85535l59.98968,53.35106l53.16031,5.42923z" fill="#e47816" stroke="#000000" stroke-width="0"/></g><g data-paper-data="{&quot;index&quot;:null}" stroke="#000000"><path d="M316.44531,344.13567v-90.27109h61.17899v90.27109z" fill="#00791c" stroke-width="2"/><path d="M317.23265,343.37909v-90.27109l18.42709,49.31565l42.75189,40.95544z" fill="#00393e" stroke-width="0"/></g><path d="M263.58249,261.64159l-4.29198,-113.7205l113.7205,-4.29198l4.29198,113.7205z" data-paper-data="{&quot;index&quot;:null}" fill="#0000c0" stroke="#000000" stroke-width="2"/><g data-paper-data="{&quot;index&quot;:null}" stroke="#000000"><path d="M263.83936,344.58003v-90.27109h61.17899v90.27109z" fill="#00791c" stroke-width="2"/><path d="M264.62674,343.82344v-90.27109l18.42709,49.31565l42.75189,40.95544z" fill="#00393e" stroke-width="0"/></g><g data-paper-data="{&quot;index&quot;:null}"><path d="M298.81227,251.69973l-81.05329,-84.18831l36.73816,-35.3701l81.05329,84.18831z" fill="#fac843" stroke="#000000" stroke-width="2"/><g fill="none" stroke="none" stroke-width="1" font-family="sans-serif" font-weight="normal" font-size="12" text-anchor="start"/><path d="M298.46389,250.19785l-81.05329,-84.18831l64.36108,47.98696l53.43036,0.83124z" fill="#e47816" stroke="#000000" stroke-width="0"/></g><g data-paper-data="{&quot;index&quot;:null}" stroke="#000000"><path d="M222.39935,96.52501c-0.04915,-1.37559 -0.09128,-27.39429 -0.03757,-28.75245c1.35684,-34.31965 35.12526,-38.01376 77.54261,-39.52933c39.84441,-1.42364 74.42525,1.88581 81.54093,32.94217c0.75928,3.31383 0.51517,26.15001 0.63965,29.63404c0.44495,12.45319 4.41053,39.71737 -2.60511,49.88975c-13.34163,19.34483 -46.00056,17.35944 -74.89993,18.39202c-30.55586,1.09176 -59.0151,3.09048 -73.17532,-17.09121c-6.27477,-8.94305 -8.60881,-34.38924 -9.00526,-45.485z" fill="#fac843" stroke-width="2"/><path d="M223.36149,67.74703c0.77089,-19.49879 6.19586,60.54031 54.73501,80.74494c38.03859,15.83374 103.02656,-11.76241 100.20594,-7.67261c-13.34163,19.34483 -46.64899,17.49147 -75.54835,18.52404c-19.113,0.68291 -52.18716,3.31802 -69.23438,-14.44125c-10.20609,-10.63239 -10.26362,-43.06962 -10.41209,-47.22487c0,0 0.20018,-28.57209 0.25387,-29.93026z" fill="#e47816" stroke-width="0"/></g><path d="M343.89712,88.85658c0.56123,15.7075 -1.88703,28.54467 -5.46834,28.67263c-3.58132,0.12796 -6.93949,-12.50175 -7.50072,-28.20924c-0.56123,-15.7075 1.88704,-28.54466 5.46834,-28.67262c3.58132,-0.12796 6.93949,12.50175 7.50072,28.20924z" data-paper-data="{&quot;index&quot;:null}" fill="#000000" stroke="none" stroke-width="0"/><path d="M369.90946,88.8945c0.55898,15.64467 -1.7383,28.42545 -5.13111,28.54667c-3.39282,0.12122 -6.59638,-12.46301 -7.15536,-28.10768c-0.55898,-15.64467 1.7383,-28.42545 5.13111,-28.54667c3.39282,-0.12122 6.59638,12.46301 7.15536,28.10768z" data-paper-data="{&quot;index&quot;:null}" fill="#000000" stroke="none" stroke-width="0"/><path d="M317.25297,134.74927c-1.96703,8.77795 -16.06131,13.09285 -31.48046,9.63761c-15.41915,-3.45524 -24.63015,-24.85267 -22.66312,-33.6306c1.96703,-8.77795 13.38307,2.77935 28.80223,6.23459c15.41915,3.45524 27.30838,8.98046 25.34135,17.75841z" fill="#fac843" stroke="#000000" stroke-width="2"/></g></g></svg>