<svg version="1.1" xmlns="http://www.w3.org/2000/svg" xmlns:xlink="http://www.w3.org/1999/xlink" width="336.07274" height="336.07274" viewBox="0,0,336.07274,336.07274"><g transform="translate(-151.96363,-11.96363)"><g data-paper-data="{&quot;isPaintingLayer&quot;:true}" fill-rule="nonzero" stroke-linejoin="miter" stroke-miterlimit="10" stroke-dasharray="" stroke-dashoffset="0" style="mix-blend-mode: normal"><g data-paper-data="{&quot;index&quot;:null}"><g><g><g data-paper-data="{&quot;origRot&quot;:0}" stroke="#000000" stroke-width="3" stroke-linecap="round"><path d="M272.17116,219.36193c0,0 -5.08731,-29.66938 -2.01499,-30.44365c5.5396,-1.39606 18.71205,-1.12845 18.71205,-1.12845l11.25868,-0.736l-4.28981,-0.1213c0,0 4.81631,-16.05426 7.65238,-18.73467c1.48999,-1.40822 11.48504,0.56175 13.31378,2.39153c4.10245,4.1048 3.56942,42.68588 -1.00471,44.08378c-11.14422,1.71964 -34.72383,5.45845 -34.72383,5.45845c0,0 -8.86728,1.65581 -8.90351,-0.76962z" data-paper-data="{&quot;origPos&quot;:null}" fill="#582700"/><path d="M282.3126,218.3572l-1.77295,-29.68212" fill="none"/><path d="M284.95869,188.64828l1.47948,29.70273" data-paper-data="{&quot;origPos&quot;:null}" fill="none"/></g><path d="M280.91601,188.58471l2.88238,-0.18516l1.61591,30.3751l-2.88238,0.18516z" fill="#ffffff" stroke="none" stroke-width="0" stroke-linecap="butt"/><path d="M314.56445,214.57567l-27.75397,4.23885l-0.61475,-29.95051l13.61375,-0.8789l0.01031,-1.98073l-3.08021,-0.21675l7.02077,-16.90534l1.54075,-0.0154l7.70372,-0.07705l3.83386,3.42772l2.01188,8.14985l0.13333,23.76592l-2.87998,10.67456z" fill="#66c8ff" stroke="#000000" stroke-width="0.5" stroke-linecap="round"/></g><g fill="#fffc96" stroke="#000000" stroke-width="2" stroke-linecap="round"><path d="M289.97232,188.12751c0,0 4.0681,4.22937 11.57083,8.61489c7.60816,4.44713 14.45685,6.78835 14.45685,6.78835l1.6449,-1.4269c0,0 2.5926,2.57033 1.0136,4.30533c-3.86469,4.24645 -36.04347,-15.56146 -32.58378,-19.84745c2.16239,-2.67881 6.26298,0.22327 6.26298,0.22327z"/><path d="M299.23257,181.83939c0,0 -0.13654,6.52221 2.07311,15.5358c2.20964,9.0136 4.85015,14.61664 4.85015,14.61664l1.23916,-1.01305c0,0 1.99174,3.5107 -0.54764,5.55784c-4.193,3.38027 -14.63967,-36.28028 -9.57439,-38.72648c2.41302,-1.16536 3.2353,3.21834 3.2353,3.21834z" data-paper-data="{&quot;index&quot;:null}"/></g></g><g><g data-paper-data="{&quot;index&quot;:null}"><path d="M272.0964,185.79432c2.46505,-0.48936 5.75356,-5.06042 6.18973,-2.85977c0.29056,1.46608 -0.7284,22.81286 -2.05535,24.30266c-0.66485,0.74646 -1.8549,1.38001 -2.67774,1.54338c-1.20944,0.24008 -2.33076,-0.17548 -3.22833,-1.00935c-0.93186,-0.86574 -5.40346,-21.25885 -5.62563,-22.37977c-0.43616,-2.20068 4.93224,0.89218 7.39731,0.40284z" fill="#0091d4" stroke="#000000" stroke-width="1.5" stroke-linecap="butt"/><g stroke-linecap="butt"><path d="M270.63105,178.51913c4.46613,-0.88658 8.54207,0.69269 9.1039,3.52737c0.56183,2.83467 -2.60321,5.85135 -7.06932,6.73793c-4.46613,0.88657 -8.54207,-0.69271 -9.1039,-3.52739c-0.56183,-2.83467 2.60319,-5.85134 7.06931,-6.73792z" fill="#0091d4" stroke="#000000" stroke-width="1.5"/><path d="M275.88756,184.14214l3.32744,-2.28409c0,0 -0.36047,1.94738 -0.82052,2.65199c-0.9868,1.46353 -2.58943,2.1722 -2.58943,2.1722z" fill="#00aeff" stroke="none" stroke-width="0"/><path d="M272.48676,185.65008l1.5661,-0.62014c0,0 0.31015,0.97237 0.35597,1.32674c0.05363,0.41492 -0.07934,1.19427 -0.07934,1.19427l-1.94212,0.43826z" fill="#00aeff" stroke="none" stroke-width="0"/></g><g><path d="M271.76412,184.82416c-6.16106,1.22303 -10.26788,-1.58479 -11.44171,-7.50725c-1.17381,-5.92242 3.18489,-11.77766 9.346,-13.00073c6.16107,-1.22303 11.35543,2.10493 12.52926,8.02739c1.17381,5.92245 -4.27241,11.25755 -10.43352,12.48062z" fill="#00699a" stroke="#000000" stroke-width="1.5" stroke-linecap="butt"/><path d="M271.92168,164.72853c0,0 8.49724,0.81355 9.52425,5.99526c0.58241,2.93837 -0.30215,6.27931 -1.71731,8.87709c-1.00822,1.8508 -2.8073,3.38361 -4.98509,3.81593c-4.47645,0.8886 -6.44817,-0.71156 -7.47518,-5.89327c-0.51287,-2.58768 0.4333,-6.07877 1.93,-8.58468c1.50033,-2.51198 2.72331,-4.21035 2.72331,-4.21035z" fill="#0091d4" stroke="none" stroke-width="0" stroke-linecap="butt"/><path d="M281.86692,172.47671c0,0 -2.23589,4.66714 -9.31378,6.32594c-7.13588,1.67241 -11.11979,-1.29158 -11.11979,-1.29158" fill="none" stroke="#000000" stroke-width="0.8" stroke-linecap="round"/><path d="M281.5146,177.43716c0,0 -3.72772,3.09824 -8.11329,4.64967c-6.32019,2.23581 -9.26963,0.69607 -9.26963,0.69607" fill="none" stroke="#000000" stroke-width="0.75" stroke-linecap="round"/><path d="M279.97862,168.08328c0,0 -2.55041,4.09703 -9.54436,6.14085c-6.72691,1.9658 -9.20501,0.33202 -9.20501,0.33202" fill="none" stroke="#000000" stroke-width="0.8" stroke-linecap="round"/><path d="M261.02232,173.19123c0,0 3.77575,-3.15638 7.05759,-4.71607c4.32269,-2.05437 9.04026,-2.9421 9.04026,-2.9421" fill="none" stroke="#000000" stroke-width="0.8" stroke-linecap="round"/><path d="M269.24527,184.51875c0,0 -3.1427,-2.79307 -4.6419,-8.98181c-1.39901,-5.77518 1.08641,-8.95745 1.08641,-8.95745" fill="none" stroke="#000000" stroke-width="0.8" stroke-linecap="round"/><path d="M267.89543,165.83596c0,0 0.38215,2.99833 1.31879,6.16499c0.82369,2.78479 2.18445,5.66435 2.59382,7.23818c0.48624,1.86926 0.89581,5.08206 0.89581,5.08206" fill="none" stroke="#000000" stroke-width="0.8" stroke-linecap="round"/><path d="M270.60512,164.74789c0,0 4.1003,3.9572 5.02506,7.99863c1.45142,6.34314 -0.13504,10.89831 -0.13504,10.89831" fill="none" stroke="#000000" stroke-width="0.8" stroke-linecap="round"/><path d="M274.2472,164.51398c0,0 3.13119,2.75305 4.62293,6.64012c2.14815,5.59754 1.21391,9.01227 1.21391,9.01227" fill="none" stroke="#000000" stroke-width="0.8" stroke-linecap="round"/><path d="M280.08077,171.48639c-0.43931,0.08717 -0.87377,-0.23713 -0.97032,-0.72438c-0.09659,-0.48725 0.18128,-0.95294 0.62057,-1.04015c0.43933,-0.08718 0.87376,0.23712 0.97031,0.72437c0.0966,0.48725 -0.18127,0.95294 -0.62056,1.04015z" fill="#00aeff" stroke="none" stroke-width="0" stroke-linecap="butt"/><path d="M278.54074,168.36879c-0.25345,0.05031 -0.49807,-0.10642 -0.54635,-0.35003c-0.04827,-0.24361 0.11806,-0.48191 0.37148,-0.53223c0.25344,-0.05033 0.49804,0.1064 0.54632,0.35001c0.0483,0.24362 -0.11804,0.48189 -0.37146,0.53221z" fill="#00aeff" stroke="none" stroke-width="0" stroke-linecap="butt"/></g></g><path d="M275.7432,187.37883c0.72034,-0.63196 2.9335,-0.65981 2.9335,-0.65981l5.38109,-0.3681c0,0 1.21488,0.59448 1.44833,1.29738c0.70038,2.1087 1.38771,6.26468 2.35639,10.55846c0.16103,0.71369 -0.88701,1.07739 -0.88701,1.07739c0,0 -1.71625,0.30684 -2.81475,0.50323c-1.67292,0.29908 -4.28662,0.76639 -4.28662,0.76639c0,0 -1.30032,0.39337 -1.56593,-0.91985c0,0 -1.03954,-1.68365 -2.56499,-12.25513z" fill="#582700" stroke="#000000" stroke-width="3" stroke-linecap="round"/><path d="M263.0967,190.99644c1.25379,-1.24558 5.26841,-1.15042 5.26841,-1.15042l9.73561,-0.38438c0,0 2.25549,1.30182 2.73886,2.7584c1.45013,4.36973 3.05029,12.93418 5.17273,21.8003c0.35278,1.47373 -1.51857,2.14698 -1.51857,2.14698c0,0 -3.08906,0.5108 -5.06618,0.83775c-3.01099,0.4979 -7.71531,1.27582 -7.71531,1.27582c0,0 -2.32682,0.71679 -2.92031,-1.99277c0,0 -2.02964,-3.52189 -5.69527,-25.29169z" fill="#582700" stroke="#000000" stroke-width="3" stroke-linecap="round"/></g></g><g data-paper-data="{&quot;index&quot;:null}" stroke="#000000" stroke-linecap="round"><path d="M340.23755,159.96508c0,0 16.65139,-2.03988 16.79463,4.50945c0.38882,17.77621 -28.78313,12.73064 -28.78313,12.73064z" data-paper-data="{&quot;origPos&quot;:null}" fill="#66c8ff" stroke-width="2"/><path d="M339.49908,161.47748c0,0 12.10044,-0.89143 12.82832,1.01338c0.22955,0.60076 -16.09316,2.93102 -16.09316,2.93102z" data-paper-data="{&quot;origPos&quot;:null}" fill="#0a0a0a" stroke-width="1"/></g><g data-paper-data="{&quot;origRot&quot;:0,&quot;index&quot;:null}" stroke="#000000" stroke-linecap="round"><path d="M319.42939,262.67502c0,0 0.35751,4.41822 -0.76644,6.48747c-0.86041,1.5841 -2.80012,1.95046 -4.643,2.18608c-5.05847,0.64676 -9.79684,-1.30865 -17.6795,-2.20672c-2.14689,-0.24457 -2.9827,-3.41702 -2.58976,-5.46044c0.36752,-1.91123 1.1282,-5.21185 1.1282,-5.21185l6.93217,-32.05196c0,0 1.03845,-4.12155 2.89776,-4.67136c4.47754,-1.32406 8.87973,0.61523 13.55552,0.89222c1.58456,0.09388 1.13338,4.821 1.13338,4.821z" data-paper-data="{&quot;origPos&quot;:null}" fill="#ff0000" stroke-width="3"/><path d="M294.67094,259.52616l23.81649,2.79748c0,0 0.86665,2.58057 0.61914,4.23295c-0.23495,1.56855 -1.85542,4.02028 -1.85542,4.02028c0,0 -8.75506,0.27892 -12.75477,-0.05796c-5.21315,-0.43908 -11.06239,-3.53647 -11.06239,-3.53647z" data-paper-data="{&quot;origPos&quot;:null}" fill="#976e57" stroke-width="2"/><path d="M319.31718,262.98406c0,0 0.3575,4.41822 -0.76645,6.48747c-0.86041,1.58408 -2.80011,1.95046 -4.64299,2.18608c-5.05847,0.64676 -9.79684,-1.30866 -17.6795,-2.20673c-2.14688,-0.24458 -2.9827,-3.41702 -2.58976,-5.46044c0.36752,-1.91122 1.12822,-5.21185 1.12822,-5.21185l6.93217,-32.05196c0,0 1.03843,-4.12154 2.89774,-4.67135c4.47755,-1.32408 8.87976,0.61521 13.55553,0.8922c1.58456,0.09387 1.13338,4.82099 1.13338,4.82099z" data-paper-data="{&quot;origPos&quot;:null}" fill="#4b4b4b" stroke-width="3"/></g><path d="M325.29263,263.38882c0,0 -1.24158,-12.51092 -2.03625,-20.51854c-0.56305,-5.67362 -1.44273,-14.53792 -1.44273,-14.53792c0,0 -0.92032,-4.66381 0.64757,-4.90319c4.62663,-0.70639 8.81527,-3.04219 13.40419,-2.13661c1.90556,0.37603 3.35007,4.38296 3.35007,4.38296l10.09543,31.26602c0,0 1.08621,3.21537 1.64256,5.08394c0.59482,1.99782 0.07911,5.23264 -2.03351,5.67384c-7.75687,1.61994 -12.27849,4.0028 -17.37816,3.8249c-1.85789,-0.06482 -3.82519,-0.25084 -4.83956,-1.7484c-1.32504,-1.95621 -1.40964,-6.38703 -1.40964,-6.38703z" data-paper-data="{&quot;index&quot;:null}" fill="#4b4b4b" stroke="#000000" stroke-width="3" stroke-linecap="round"/><g data-paper-data="{&quot;index&quot;:null}"><path d="M340.26208,207.75944c0,0 1.42294,15.54561 -0.83464,15.89562c-6.77277,1.05009 -24.69352,0.7834 -39.95702,1.27476c-1.71463,0.05522 -2.00717,-14.73542 -2.00717,-14.73542l0.7195,-30.32803c0,0 0.86632,-13.41843 2.4381,-13.46902c10.16737,-0.32732 25.34575,-1.73672 32.05946,-0.32664c2.2379,0.47003 4.75624,14.64623 4.75624,14.64623z" data-paper-data="{&quot;origPos&quot;:null}" fill="#66c8ff" stroke="#000000" stroke-width="3.5" stroke-linecap="round"/><path d="M318.36045,189.4433c-1.32791,0.04274 -1.41815,-2.41559 -1.41815,-2.41559l-0.06017,-1.63889c-0.18718,-5.09877 -0.37434,-10.19753 -0.56151,-15.29629c0,0 -0.09026,-2.45834 1.23765,-2.50109c1.32791,-0.04276 1.41815,2.41559 1.41815,2.41559c0.18717,5.09878 0.43451,11.83642 0.62168,16.93518c0,0 0.09026,2.45833 -1.23765,2.50108z" fill="#ffffff" stroke="none" stroke-width="0.5" stroke-linecap="butt"/><path d="M306.26572,189.42044c-1.32792,0.04275 -1.44127,-3.04561 -1.44127,-3.04561l-0.07558,-2.05891c-0.23515,-6.40548 -0.47028,-12.81096 -0.70543,-19.21645c0,0 -0.11337,-3.08837 1.21454,-3.13112c1.32792,-0.04275 1.44127,3.04561 1.44127,3.04561c0.23514,6.40547 0.54585,14.86985 0.781,21.27534c0,0 0.11337,3.08836 -1.21454,3.13111z" fill="#ffffff" stroke="none" stroke-width="0.5" stroke-linecap="butt"/></g><g data-paper-data="{&quot;index&quot;:null}" fill="none" stroke="#b9b9b9" stroke-width="3"><path d="M304.07688,172.54595c-1.27277,1.85352 -2.2693,0.71587 -3.48128,-0.53145c-0.949,-0.97668 -2.44382,-1.99387 -0.90761,-3.98549c0.72456,-0.9393 1.97256,-0.52789 3.18451,0.71941c1.21196,1.24733 2.10564,2.48511 1.2044,3.79754z" stroke-linecap="butt"/><path d="M305.65591,174.50923l-2.56891,-2.5822" stroke-linecap="round"/><path d="M309.27844,175.25785c1.21196,1.24734 2.10563,2.48512 1.20439,3.79755c-1.27278,1.85352 -2.26932,0.71586 -3.48128,-0.53145c-0.949,-0.97668 -2.44381,-1.99387 -0.9076,-3.98549c0.72455,-0.9393 1.97254,-0.52789 3.1845,0.71941z" stroke-linecap="butt"/><path d="M312.06186,181.0187l-2.56891,-2.58221" stroke-linecap="round"/><path d="M317.85861,180.77276c0.49584,2.30205 -0.8792,2.56349 -2.45869,2.96255c-1.23678,0.31248 -2.82991,1.11495 -3.26116,-1.51742c-0.20339,-1.24154 0.82847,-2.1721 2.40796,-2.57117c1.5795,-0.39907 2.96081,-0.50403 3.31191,1.12601z" stroke-linecap="butt"/><path d="M320.14683,180.45411l-3.30594,0.88258" stroke-linecap="round"/><path d="M325.42297,176.70617c1.22733,1.88259 0.04848,2.75905 -1.27261,3.85644c-1.03447,0.85928 -2.23305,2.33312 -3.51148,0.11754c-0.60295,-1.04496 0.03583,-2.37649 1.35692,-3.47387c1.32107,-1.09738 2.55809,-1.83319 3.42716,-0.50014z" stroke-linecap="butt"/><path d="M327.42367,175.35445l-2.74925,2.34028" stroke-linecap="round"/><path d="M332.33678,170.88652c1.22734,1.8826 0.0485,2.75906 -1.27259,3.85644c-1.03446,0.85928 -2.23305,2.3331 -3.51148,0.11753c-0.60294,-1.04496 0.03583,-2.37649 1.35693,-3.47387c1.32106,-1.09738 2.55809,-1.83316 3.42716,-0.50013z" stroke-linecap="butt"/><path d="M331.58824,171.87507l2.74925,-2.34028" stroke-linecap="round"/></g><path d="M296.96614,164.3499c0,0 -1.84492,-4.1713 -1.93684,-5.24171c-0.27578,-3.21117 -0.52773,-17.24253 -0.71159,-29.92455c-0.02845,-1.96158 1.59031,-5.0404 1.59031,-5.0404c0,0 2.24161,-1.6291 3.53911,-1.64691c14.31533,-0.19637 27.921,-1.46452 33.25176,0.02101c1.77691,0.49517 5.03941,2.18591 5.03941,2.18591c0,0 0.79398,4.3406 0.94818,5.45809c0.05141,0.37249 0.0814,0.58215 0.10966,0.95682c0.84657,11.22611 0.57618,24.22749 0.25974,28.76995c-0.10546,1.51417 -1.93921,3.89351 -1.93921,3.89351c0,0 -1.38763,2.70911 -5.90096,3.54746c-4.93836,0.91732 -16.99224,0.65087 -29.42165,0.33928z" data-paper-data="{&quot;index&quot;:null}" fill="#582700" stroke="#000000" stroke-width="2.5" stroke-linecap="round"/><path d="M304.71682,146.57505c0.0494,3.40687 -0.33609,6.1723 -0.86097,6.17672c-0.52488,0.00445 -0.99043,-2.75377 -1.03981,-6.16064c-0.04939,-3.40685 0.3361,-6.17228 0.86098,-6.1767c0.52488,-0.00445 0.99043,2.75377 1.03981,6.16063z" data-paper-data="{&quot;index&quot;:null}" fill="none" stroke="#000000" stroke-width="2.5" stroke-linecap="butt"/><path d="M310.34307,146.78942c0.05031,3.46997 -0.22806,6.28561 -0.62173,6.28894c-0.39366,0.0033 -0.75355,-2.80694 -0.80386,-6.2769c-0.05031,-3.46996 0.22805,-6.28563 0.62172,-6.28896c0.39364,-0.00332 0.75356,2.80695 0.80387,6.27691z" data-paper-data="{&quot;index&quot;:null}" fill="none" stroke="#000000" stroke-width="2.5" stroke-linecap="butt"/><path d="M342.1369,125.56805c-0.69503,1.03657 -1.77665,0.36297 -1.77665,0.36297l-0.7423,-0.51051c-0.09242,-0.02941 -0.18481,-0.05831 -0.27714,-0.08676c-0.22271,0.31001 -0.65989,0.67294 -1.41966,0.4393c-0.70028,-0.21535 -0.87486,-0.69155 -0.89579,-1.06051c-2.71326,-0.62592 -5.42396,-0.91379 -8.26856,-1.13146c-7.96151,-0.34669 -15.93139,-0.09888 -23.8974,-0.00896c-2.61248,0.02951 -8.44221,1.10618 -10.65336,-0.53737c-1.07837,-0.80154 -0.69561,-2.71521 -0.81719,-3.75549c-0.35227,-3.01447 -0.78679,-6.13472 -0.85187,-9.16824c-0.05749,-3.96539 -1.66141,-7.48915 -2.24856,-11.37251c-0.29437,-1.94685 -1.01507,-3.89928 0.77019,-5.60441c0.50406,-0.48144 1.4081,-0.2139 2.11874,-0.25729c2.59724,-0.15856 5.11579,-0.01526 7.69189,0.25069c8.16366,0.84282 16.22856,1.26865 24.34487,2.59199c3.27414,0.53762 6.56585,0.56948 9.88359,0.64084c1.94992,0.04195 3.71866,-0.51238 4.92077,1.6167c0.71787,1.27145 0.27132,5.23681 0.24087,6.70303c-0.11732,5.65367 0.92715,12.58171 -0.21031,18.28004c0.12114,0.03691 0.24234,0.07457 0.36362,0.11298l1.33763,0.7848c0,0 1.08162,0.67361 0.38661,1.71019z" data-paper-data="{&quot;index&quot;:null}" fill="#000000" stroke="none" stroke-width="0.5" stroke-linecap="butt"/><g data-paper-data="{&quot;index&quot;:null}"><g stroke="#000000" stroke-width="3" stroke-linecap="round"><path d="M360.16925,196.62154c0,0 4.92332,9.52496 5.36207,14.06321c-14.61186,9.03736 -24.84979,8.24176 -24.84979,8.24176c-1.93819,0.74765 -3.58895,-6.27445 -3.58895,-6.27445c0,0 -3.68958,-13.60823 -6.05113,-22.31815c-1.55066,-5.71929 -3.97342,-14.655 -3.97342,-14.655c0,0 -1.27688,-5.73268 -0.19658,-6.05695c6.49933,-1.95089 12.38543,-5.07201 15.94061,-4.92324c1.18505,0.0496 3.83253,5.10395 3.83253,5.10395l13.52467,26.81888z" data-paper-data="{&quot;origPos&quot;:null}" fill="#582700"/><path d="M361.96579,202.0529l-24.85666,8.46436l-1.16434,-3.17625l24.8073,-8.71581z" data-paper-data="{&quot;origPos&quot;:null}" fill="none"/></g><path d="M335.57792,206.984l-8.77724,-35.49579l1.00252,-1.05068l15.26975,-5.33732l16.81425,33.33678z" fill="#66c8ff" stroke="#000000" stroke-width="1" stroke-linecap="round"/><path d="M336.9204,210.11385l-0.8101,-2.17224l24.68891,-8.44005l0.81011,2.17222z" fill="#ffffff" stroke="none" stroke-width="0" stroke-linecap="butt"/></g><path d="M306.531,140.46298c-0.25627,-0.70088 0.47134,-0.94367 0.47134,-0.94367l0.57826,-0.17951c0.95484,-0.50587 1.96081,-0.82307 2.99939,-0.95023c0.07773,-0.02849 0.1558,-0.05669 0.23425,-0.08465c0.02084,-0.00828 0.0419,-0.01667 0.06313,-0.02512l0.03075,-0.01359l-0.03005,-0.09089l0.76998,-0.23199c0.07479,-0.02437 0.15482,-0.03799 0.23817,-0.03893c0.42596,-0.00482 0.77714,0.32333 0.78432,0.73296c0.00533,0.3033 -0.17945,0.56625 -0.44865,0.68424c-0.14288,0.12738 -0.30104,0.18016 -0.30104,0.18016c-0.16803,0.05599 -0.33395,0.11253 -0.4982,0.17012c-0.68885,0.29007 -1.25549,0.71523 -1.84095,0.73506c-0.12832,0.05893 -0.25664,0.11975 -0.38519,0.18271l-0.65233,0.50183c-0.12981,0.10186 -0.29516,0.16367 -0.47614,0.16571c-0.26382,0.00299 -0.49893,-0.12174 -0.64142,-0.31443c-0.20163,0.03898 -0.69422,0.07109 -0.89565,-0.47979z" data-paper-data="{&quot;index&quot;:null}" fill="#582700" stroke="none" stroke-width="0.5" stroke-linecap="butt"/><path d="M319.95536,154.86865c0.72544,-0.24862 0.98776,0.4502 0.98776,0.4502l0.49116,1.32493c0.31864,4.28209 -4.05408,4.28943 -7.35583,3.18109c0,0 -0.72922,-0.24553 -0.47759,-0.94544c0.25162,-0.69991 0.98086,-0.45437 0.98086,-0.45437c1.80804,0.61084 5.79988,1.38761 5.3483,-1.45916l-0.43777,-1.14977c0,0 -0.26231,-0.69883 0.46314,-0.94746z" data-paper-data="{&quot;index&quot;:null}" fill="#000000" stroke="none" stroke-width="0.5" stroke-linecap="butt"/><path d="M151.96363,348.03637v-336.07274h336.07274v336.07274z" data-paper-data="{&quot;index&quot;:null}" fill="none" stroke="#000000" stroke-width="0" stroke-linecap="butt"/></g></g></svg>