<svg version="1.1" xmlns="http://www.w3.org/2000/svg" xmlns:xlink="http://www.w3.org/1999/xlink" width="217.93444" height="370.32292" viewBox="0,0,217.93444,370.32292"><g transform="translate(-220.16433,9.8079)"><g data-paper-data="{&quot;isPaintingLayer&quot;:true}" fill-rule="nonzero" stroke-linejoin="miter" stroke-miterlimit="10" stroke-dasharray="" stroke-dashoffset="0" style="mix-blend-mode: normal"><g><path d="M408.70784,146.34998c-14.73023,3.2624 -24.97406,-2.23978 -28.88023,-16.65685c-3.05509,-11.27572 6.42606,-26.70722 21.15632,-29.96963c14.7303,-3.26244 27.53905,3.88595 30.76897,18.46939c0.50511,2.28057 0.29441,4.5352 0.12122,6.59624c-0.93442,11.11833 -10.73954,18.80862 -23.16626,21.56086z" fill="#216aff" stroke="#000000" stroke-width="2" stroke-linecap="butt"/><path d="M389.58897,107.45271c0,0 0.81017,5.69867 2.63585,6.52347c17.51213,7.91194 31.41049,5.89855 35.95649,4.88183c1.03283,-0.23099 1.38672,-1.29664 1.38672,-1.29664c0,0 0.67129,2.00437 0.67066,4.74554c-0.00067,2.91684 -0.71528,6.65758 -2.19917,9.34892c-1.69505,3.07423 -7.46566,9.09158 -7.46566,9.09158l-19.49654,7.66447c0,0 -11.92521,-6.22449 -13.38298,-7.82817c-1.42813,-1.57108 -2.66745,-3.83975 -4.08221,-6.19886c-2.1966,-3.66285 -3.03377,-8.12447 -2.74735,-10.99026c0.36559,-3.6574 2.29923,-7.90156 4.45805,-11.04828c2.00919,-2.92861 4.26616,-4.89342 4.26616,-4.89342z" fill="#3236f4" stroke="none" stroke-width="0" stroke-linecap="butt"/><path d="M397.15233,130.68986c0,0 -3.73346,-8.21338 -2.56904,-13.23575c1.474,-6.35781 7.8083,-17.67059 7.8083,-17.67059" fill="none" stroke="#000000" stroke-width="1" stroke-linecap="round"/><path d="M428.66641,111.81185c0,0 0.03965,7.15041 -0.96296,11.3297c-1.01214,4.21923 -6.45648,12.25114 -6.45648,12.25114" fill="none" stroke="#000000" stroke-width="1" stroke-linecap="round"/><path d="M387.54087,135.97909c0,0 -3.95828,-8.37365 -2.44934,-13.75624c2.31541,-8.25936 7.55185,-18.6071 7.55185,-18.6071" fill="none" stroke="#000000" stroke-width="1" stroke-linecap="round"/><path d="M380.28556,122.52704c0,0 11.10978,-13.2683 28.47596,-11.86834c19.02244,1.53347 22.4324,18.44095 22.4324,18.44095" fill="none" stroke="#000000" stroke-width="1" stroke-linecap="round"/><path d="M381.08602,132.01726c0,0 13.5172,-11.58222 28.84409,-10.37984c12.58479,0.98729 16.78928,14.96017 16.78928,14.96017" fill="none" stroke="#000000" stroke-width="1" stroke-linecap="round"/><path d="M415.45036,104.99656c-1.13714,-0.39257 -1.80697,-1.44061 -1.49619,-2.34078c0.31074,-0.90023 1.0706,-0.66235 2.20774,-0.26976c1.13714,0.39257 2.22087,0.7912 1.9101,1.69139c-0.31074,0.90023 -1.48455,1.31175 -2.62162,0.91913z" fill="#8fbbbe" stroke="none" stroke-width="0" stroke-linecap="butt"/><path d="M421.93565,108.28286c-0.58727,0.13003 -1.22147,-0.47858 -1.41656,-1.35946c-0.1951,-0.88087 -0.15314,-1.26748 0.43409,-1.39756c0.58727,-0.13003 1.39869,0.43935 1.59376,1.32022c0.1951,0.88087 -0.0241,1.30673 -0.61133,1.43678z" fill="#8fbbbe" stroke="none" stroke-width="0" stroke-linecap="butt"/><path d="M408.89001,102.79986c-0.89668,0.10011 -1.67764,-0.30327 -1.74439,-0.90103c-0.0668,-0.5977 0.72376,-0.63187 1.62039,-0.73201c0.89668,-0.10011 1.55986,-0.2284 1.62664,0.36937c0.0668,0.5977 -0.60601,1.16352 -1.50267,1.26366z" fill="#8fbbbe" stroke="none" stroke-width="0" stroke-linecap="butt"/><path d="M386.37765,110.58084c0,0 8.73046,-5.33464 16.19905,-6.61528c4.23433,-0.72604 8.21688,0.0958 11.2293,0.75272c2.66404,0.5809 8.02531,4.38646 11.82581,7.7263c2.79809,2.45895 4.60581,4.78254 4.60581,4.78254" fill="none" stroke="#000000" stroke-width="0.5" stroke-linecap="round"/><path d="M419.18461,100.89799c0,0 1.8876,10.40263 0.84133,15.70569c-0.88148,4.46795 -6.35537,13.96012 -6.35537,13.96012" fill="none" stroke="#000000" stroke-width="1" stroke-linecap="round"/><path d="M407.82355,130.18553c0,0 -1.61948,-9.52918 -1.22938,-14.03459c0.68494,-7.91061 6.11417,-16.79319 6.11417,-16.79319" fill="none" stroke="#000000" stroke-width="1" stroke-linecap="round"/></g><path d="M387.33196,266.94876c0,0 5.51832,-53.93502 6.98149,-78.11554c1.25299,-20.70694 -2.81874,-52.77974 -2.81874,-52.77974l24.72173,-4.89233l-5.29671,137.21492z" fill="#000000" stroke="none" stroke-width="0" stroke-linecap="butt"/><path d="M431.38655,141.2857c-0.33158,5.47967 -11.83149,9.24223 -25.68577,8.4039c-13.85428,-0.83833 -24.8166,-5.96009 -24.48502,-11.43976c0.33158,-5.47967 11.83149,-9.24223 25.68577,-8.4039c13.85428,0.83833 24.8166,5.96009 24.48502,11.43976z" fill="#000000" stroke="none" stroke-width="NaN" stroke-linecap="butt"/><g data-paper-data="{&quot;index&quot;:null}" stroke="#000000" stroke-linecap="butt"><path d="M371.85326,184.55427c22.59607,-24.50993 32.18494,-23.457 38.13395,-17.9725c5.94903,5.48449 -7.54609,29.79977 -30.14217,54.30969c-22.59609,24.50992 -30.07111,-47.32052 -36.02012,-52.80501c-1.72996,-6.88009 4.76674,-6.25503 10.77231,-1.18661c7.4063,6.25057 15.32461,19.74944 17.25605,17.65442z" fill="#216aff" stroke-width="2"/><path d="M379.94167,157.94733c9.6988,-10.52029 26.30908,-10.98386 37.1001,-1.03547c10.79102,9.94841 11.67646,26.54157 1.97765,37.06186c-9.6988,10.52029 -26.30909,10.98388 -37.10013,1.03547c-10.79102,-9.94841 -11.67644,-26.54156 -1.97763,-37.06185z" fill="#faddbf" stroke-width="2"/><path d="M401.2477,193.46212c9.6988,-10.52029 4.13137,-46.136 14.92239,-36.18759c10.79102,9.94841 11.67644,26.54157 1.97764,37.06185c-9.6988,10.52029 -26.59885,9.64605 -16.90004,-0.87424z" fill="#ef8b89" stroke-width="0"/></g><path d="M224.78117,360.17126v-93.89347h213.03043v93.89347z" fill="#000000" stroke="none" stroke-width="NaN" stroke-linecap="butt"/><g stroke="#000000" stroke-linecap="butt"><path d="M347.22139,314.06079l-27.74435,-91.16674l28.2144,-8.58635l27.74435,91.16674z" fill="#73fffc" stroke-width="2"/><path d="M346.72984,313.56446l-26.03616,-90.10905c0,0 24.80783,63.64686 28.6753,72.31242c0.85498,1.91568 3.22527,1.93468 3.22527,1.93468l21.62585,7.15262z" fill="#59a9e6" stroke-width="0"/></g><g fill="none" stroke="#808080" stroke-width="0.5" stroke-linecap="round"><path d="M437.84876,280.63433l-193.59492,1.15407l-17.0225,-13.84882"/><path d="M241.9457,360.26502l2.01962,-78.47663"/></g><g stroke="#000000" stroke-linecap="butt"><path d="M303.08787,324.66028l-25.37841,-91.85346l28.42692,-7.85414l25.37841,91.85346z" fill="#73fffc" stroke-width="2"/><path d="M302.60932,324.15144l-23.69813,-90.75197c0,0 23.15426,64.26688 26.79644,73.02952c0.80516,1.93715 3.17417,2.01739 3.17417,2.01739l21.43373,7.70926z" fill="#59a9e6" stroke-width="0"/></g><g stroke="#000000" stroke-linecap="butt"><path d="M351.3877,189.10098c-0.8879,13.77412 7.66295,37.31411 1.95108,46.68197c-6.98523,11.45625 -29.13826,7.23636 -39.44416,6.57203c-13.63457,-0.87891 -33.1441,2.04231 -37.31071,-17.26806c-1.55807,-7.22094 6.42803,-32.02547 6.96522,-40.35893c1.97375,-30.61894 18.75998,-54.46156 37.49308,-53.25399c18.73311,1.20757 32.31925,27.00805 30.3455,57.62699z" fill="#216aff" stroke-width="2"/><path d="M299.22823,201.34759c-0.8879,13.77412 60.5916,24.49735 54.87973,33.8652c-6.98523,11.45624 -29.13826,7.23636 -39.44416,6.57203c-13.63457,-0.87891 -33.14409,2.04231 -37.3107,-17.26805c-1.55808,-7.22094 6.42803,-32.02548 6.96522,-40.35893c0.60806,-9.43286 5.18128,-28.32337 7.4359,-29.551c7.01001,-16.34707 8.82641,25.76109 7.47403,46.74075z" fill="#3236f4" stroke-width="0"/></g><g stroke="#000000" stroke-linecap="butt"><g><path d="M224.31126,83.47188c-2.7276,-46.71121 32.92816,-86.78931 79.63939,-89.5169c46.71121,-2.72759 86.78931,32.92817 89.51691,79.63939c2.7276,46.71122 -32.92818,86.78931 -79.63939,89.51691c-46.71121,2.7276 -86.78931,-32.92818 -89.51691,-79.63939z" fill="#faddbf" stroke-width="2"/><path d="M224.49096,82.59038c-0.87758,-15.02868 6.25187,-41.4461 10.56589,-44.91765c0.49266,-0.39647 5.25717,-9.23246 12.37335,-16.37596c8.84494,-8.87888 20.39497,-16.37315 21.01619,-16.21201c8.10505,2.10211 -13.71611,65.76631 -11.00507,90.94103c0.00646,0.06003 5.54843,19.41116 7.18974,19.75498c3.15704,4.56621 10.21193,18.58969 21.49098,25.08336c21.01979,12.10175 50.00585,16.79368 48.55456,17.38502c-2.32155,0.94593 -14.61611,3.62722 -20.66872,3.98065c-46.71121,2.7276 -86.78931,-32.92817 -89.51691,-79.63938z" fill="#ef8b89" stroke-width="0"/><path d="M392.9183,73.16745c0.67762,11.60457 -0.66343,15.7061 -1.32249,13.8897c-0.67237,-1.85305 -0.75842,-9.78605 -9.88115,-14.09722c-2.21061,-1.04467 -9.82303,6.86034 -12.61759,5.79328c-1.7553,-0.67024 -9.23061,-9.65387 -11.18043,-10.2172c-1.36329,-0.39387 -11.94057,9.08908 -13.36401,8.72078c-3.55009,-0.91855 -12.63113,-10.65535 -16.41432,-11.09358c-2.08328,-0.24132 -8.57625,12.37075 -10.69649,12.24027c-2.73431,-0.16827 -10.755,-11.46097 -13.48774,-11.30139c-7.26748,0.42438 -7.05839,7.43488 -11.93717,13.73624c-3.17034,4.09476 -14.72546,-12.21426 -17.58542,-7.6045c-3.55174,5.72476 -7.0762,11.24933 -11.10017,15.09006c-3.15696,3.0132 -13.93001,-9.30065 -16.64851,-6.51967c-13.12567,13.42732 -20.98235,21.90411 -22.04164,3.76318c-2.13005,-36.47801 42.73524,-10.72292 83.19235,-34.64373c38.72516,-22.89675 82.95475,-14.23424 85.08479,22.24376z" fill="#ef8b89" stroke-width="0"/></g><path d="M393.96508,64.78127c1.36894,23.44341 7.02864,8.31973 -11.49743,-0.19035c-2.26706,-1.04138 -10.09141,6.876 -12.9577,5.81315c-1.80036,-0.66761 -9.45811,-9.64058 -11.45828,-10.20097c-1.39848,-0.3918 -12.26797,9.1082 -13.72821,8.74206c-3.64189,-0.9132 -12.94637,-10.63695 -16.82819,-11.06941c-2.13759,-0.23815 -8.82035,12.385 -10.99604,12.25776c-2.80582,-0.16407 -11.01978,-11.4455 -13.82448,-11.28173c-7.4589,0.43555 -7.25507,7.44636 -12.27158,13.75576c-3.25986,4.09999 -15.0933,-12.19277 -18.03541,-7.57822c-3.65375,5.73072 -7.2792,11.26117 -11.41468,15.10843c-3.24446,3.01831 -14.28144,-9.28013 -17.07556,-6.49474c-13.49081,13.44866 -21.56674,21.93822 -22.62603,3.79731c-2.13005,-36.47801 35.0581,-83.44253 80.90684,-86.11977c45.84873,-2.67723 89.67677,36.98274 91.80683,73.46075z" fill="#724e36" stroke-width="2"/><path d="M393.65,63.6349c1.36894,23.44341 7.02864,8.31973 -11.49743,-0.19036c-2.26706,-1.04138 -10.09141,6.87601 -12.9577,5.81315c-1.80036,-0.66761 -9.45811,-9.64059 -11.45828,-10.20097c-1.39848,-0.3918 -12.26797,9.1082 -13.72821,8.74206c-3.64189,-0.9132 -12.94637,-10.63693 -16.82819,-11.06941c-2.13759,-0.23815 -8.82034,12.385 -10.99604,12.25776c-2.80582,-0.16407 -11.01978,-11.44551 -13.82448,-11.28174c-7.4589,0.43555 -7.25507,7.44636 -12.27159,13.75576c-3.25986,4.09999 -15.0933,-12.19277 -18.03541,-7.57823c-3.65375,5.73072 -7.2792,11.26118 -11.41469,15.10843c-3.24446,3.01831 -14.28145,-9.28012 -17.07556,-6.49474c-13.49081,13.44866 -21.56675,21.93821 -22.62605,3.79731c-2.13005,-36.47801 43.87351,-10.78938 85.42937,-34.77434c39.77685,-22.95816 85.15423,-14.36267 87.28429,22.11534z" fill="#623728" stroke-width="0"/></g><g stroke="#000000" stroke-linecap="butt"><path d="M325.51138,58.33888c1.6648,28.51038 -10.62241,43.98349 -27.16278,44.94932c-16.54037,0.96583 -31.07039,-12.94135 -32.7352,-41.45172c-1.6648,-28.51037 10.39423,-52.40555 26.9346,-53.3714c16.54037,-0.96584 31.29857,21.36342 32.96337,49.87379z" fill="#f0f0f0" stroke-width="2"/><path d="M277.69363,41.51535c-2.64947,28.43578 37.78188,59.94108 21.24153,60.90691c-16.54037,0.96583 -31.07039,-12.94133 -32.7352,-41.4517c-1.6648,-28.51037 15.32403,-60.56494 11.49368,-19.45521z" fill="#9a99ff" stroke-width="0"/></g><path d="M322.10352,66.78514c0.92233,15.79531 -3.01091,28.87327 -8.78513,29.21044c-5.77423,0.33717 -11.20286,-12.19412 -12.12519,-27.98943c-0.92233,-15.7953 3.0109,-28.87326 8.78513,-29.21044c5.77423,-0.33718 11.20286,12.19413 12.1252,27.98943z" fill="#000000" stroke="none" stroke-width="0" stroke-linecap="butt"/><g stroke="#000000" stroke-linecap="butt"><path d="M318.75978,28.64729c5.04822,9.95245 16.47539,54.28359 0.79183,55.19941c-15.68354,0.91581 -52.9375,-42.65823 -48.96092,-52.52205c3.78366,-9.38525 5.52961,-21.77829 21.21315,-22.6941c15.68354,-0.91582 22.14493,10.53191 26.95593,20.01673z" fill="#a100fe" stroke-width="2"/><path d="M317.81643,28.34753c4.89641,9.9613 17.17003,53.63204 2.02123,54.51662c-15.14877,0.88457 -52.37004,-42.0804 -48.54817,-51.93516c3.63646,-9.37666 6.60316,0.57808 21.75193,-0.30649c15.14878,-0.88457 20.10861,-11.76825 24.77496,-2.27499z" fill="#99008e" stroke-width="0"/></g><g data-paper-data="{&quot;index&quot;:null}" stroke="#000000" stroke-linecap="butt"><path d="M356.72925,8.52112c16.54037,-0.96584 31.29858,21.36342 32.96338,49.87379c1.6648,28.51036 -11.14783,44.01417 -27.6882,44.98c-16.54037,0.96583 -30.54496,-12.97202 -32.20977,-41.4824c-1.6648,-28.51037 10.39423,-52.40556 26.93459,-53.3714z" fill="#f0f0f0" stroke-width="2"/><path d="M389.00929,57.60313c1.6648,28.51036 -11.14783,44.01418 -27.6882,44.98001c-16.54037,0.96583 19.94934,-35.03113 14.00826,-62.96527c-8.58903,-40.38451 12.01513,-10.52512 13.67994,17.98526z" fill="#9a99ff" stroke-width="0"/></g><path d="M374.33064,40.15119c5.77423,-0.33718 11.20286,12.19413 12.12519,27.98943c0.92233,15.79531 -3.0109,28.87327 -8.78512,29.21044c-5.77423,0.33717 -11.20286,-12.19413 -12.1252,-27.98943c-0.92233,-15.7953 3.0109,-28.87325 8.78512,-29.21043z" data-paper-data="{&quot;index&quot;:null}" fill="#000000" stroke="none" stroke-width="0" stroke-linecap="butt"/><g data-paper-data="{&quot;index&quot;:null}" stroke="#000000" stroke-linecap="butt"><path d="M333.04462,31.61688c3.67438,-9.98031 8.75946,-22.10225 24.44299,-23.01805c15.68354,-0.91582 18.86004,11.18979 23.71032,20.07089c5.0976,9.33393 -25.4468,57.69133 -41.13035,58.60713c-15.68354,0.91581 -10.87851,-45.18757 -7.02298,-55.65995z" fill="#a100fe" stroke-width="2"/><path d="M333.94666,31.20936c3.52972,-9.97187 9.7226,0.26057 24.87138,-0.624c15.14878,-0.88457 16.93669,-11.11697 21.63977,-2.22727c4.94287,9.34296 -25.63343,57.52187 -40.7822,58.40645c-15.14877,0.88457 -9.4327,-45.09164 -5.72895,-55.55516z" fill="#99008e" stroke-width="0"/></g><path d="M407.75344,293.58505c3.39553,11.15756 -7.74266,24.42989 -24.87786,29.64457c-17.13519,5.21468 -33.77863,0.397 -37.17416,-10.76057c-0.67877,-2.23043 -4.03808,-13.15427 -3.36483,-14.79985c2.69464,-6.58631 18.5778,-0.154 32.28762,-4.32625c17.13519,-5.21467 29.7337,-10.91547 33.12923,0.2421z" fill="#000082" stroke="#000000" stroke-width="2" stroke-linecap="butt"/><path d="M405.15339,291.52028c1.83664,6.03513 -10.32208,13.79279 -27.45728,19.00746c-17.13519,5.21468 -29.71993,5.95313 -31.55657,-0.082c-0.36715,-1.20643 -3.67879,-11.97368 -2.82131,-13.01389c3.43199,-4.16341 16.55948,0.99452 30.2693,-3.17773c17.13519,-5.21467 29.7292,-8.76897 31.56583,-2.73384z" fill="#2e0048" stroke="#000000" stroke-width="0" stroke-linecap="butt"/><path d="M361.26485,308.3918c3.10597,11.24162 -8.3716,24.22157 -25.63586,28.99156c-17.26426,4.76999 -33.7776,-0.47631 -36.88357,-11.71792c-0.62089,-2.24723 -3.69669,-13.25427 -2.98113,-14.88189c2.864,-6.51445 18.57557,0.32629 32.38867,-3.49017c17.26426,-4.76999 30.00592,-10.1432 33.1119,1.09842z" fill="#000082" stroke="#000000" stroke-width="2" stroke-linecap="butt"/><path d="M358.71904,306.2605c1.68003,6.08059 -10.67517,13.52136 -27.93944,18.29135c-17.26426,4.76999 -29.86389,5.18287 -31.5439,-0.89771c-0.33585,-1.21553 -3.36803,-12.06477 -2.48395,-13.08247c3.53846,-4.07331 16.52825,1.42225 30.34134,-2.3942c17.26426,-4.76999 29.94594,-7.99754 31.62597,-1.91695z" fill="#2e0048" stroke="#000000" stroke-width="0" stroke-linecap="butt"/><g stroke="#000000" stroke-linecap="butt"><path d="M270.96209,197.69427c23.26958,23.87143 21.70657,33.39049 15.91254,39.03844c-5.79404,5.64796 -29.35477,-9.12511 -52.62433,-32.99656c-23.26957,-23.87144 48.85737,-27.50383 54.65143,-33.15178c6.96257,-1.36045 5.99184,5.09365 0.61023,10.82026c-6.63676,7.06228 -20.53884,14.2492 -18.54985,16.28964z" fill="#216aff" stroke-width="2"/><path d="M297.09963,207.19056c9.9879,10.24623 9.56471,26.8576 -0.94521,37.10252c-10.50991,10.24492 -27.12667,10.24388 -37.11458,-0.00234c-9.9879,-10.24623 -9.56469,-26.85759 0.94522,-37.10253c10.50991,-10.24493 27.12667,-10.24388 37.11458,0.00235z" fill="#faddbf" stroke-width="2"/><path d="M260.49879,226.57166c9.9879,10.24623 45.8499,6.58675 35.33998,16.83168c-10.50991,10.24492 -27.12667,10.24388 -37.11458,-0.00235c-9.9879,-10.24623 -8.21331,-27.07556 1.77459,-16.82933z" fill="#ef8b89" stroke-width="0"/></g><path d="M280.06277,103.37831c0,9.32214 -7.22121,16.87922 -16.12903,16.87922c-8.90782,0 -16.12903,-7.55708 -16.12903,-16.87922c0,-9.32214 7.22121,-4.50113 16.12903,-4.50113c8.90782,0 16.12903,-4.82101 16.12903,4.50113z" fill="#000000" stroke="none" stroke-width="0" stroke-linecap="butt"/></g></g></svg>