<svg version="1.1" xmlns="http://www.w3.org/2000/svg" xmlns:xlink="http://www.w3.org/1999/xlink" width="215.37756" height="326.84121" viewBox="0,0,215.37756,326.84121"><g transform="translate(-171.14259,-34.82531)"><g data-paper-data="{&quot;isPaintingLayer&quot;:true}" fill-rule="nonzero" stroke-linecap="butt" stroke-linejoin="miter" stroke-miterlimit="10" stroke-dasharray="" stroke-dashoffset="0" style="mix-blend-mode: normal"><g data-paper-data="{&quot;index&quot;:null}" stroke="#000000"><path d="M275.84666,340.83535v-95.29492h29.49199v95.29492z" fill="#73fffc" stroke-width="2"/><path d="M276.82937,339.88894l18.60659,-13.13896c0,0 2.26208,-0.70825 2.52228,-2.78987c1.17702,-9.41615 6.3799,-77.52842 6.3799,-77.52842l1.32626,93.78573z" fill="#59a9e6" stroke-width="0"/></g><g data-paper-data="{&quot;index&quot;:null}" stroke="#000000"><path d="M316.56252,339.73674v-95.29492h29.49199v95.29492z" fill="#73fffc" stroke-width="2"/><path d="M316.23677,339.11885l1.32626,-93.78573c0,0 5.20288,68.11227 6.3799,77.52842c0.2602,2.08162 2.52228,2.78987 2.52228,2.78987l18.60659,13.13896z" fill="#59a9e6" stroke-width="0"/></g><g data-paper-data="{&quot;index&quot;:null}" stroke="#000000"><path d="M287.7476,178.48281c18.1784,-4.68329 39.12032,15.6067 46.77508,45.31899c2.08337,8.0867 14.55941,30.96444 14.37668,38.3493c-0.48867,19.74872 -20.20057,20.52074 -33.43141,23.9294c-10.00073,2.57648 -30.97663,10.85755 -39.97764,0.90663c-7.36019,-8.13695 -3.3539,-32.85936 -6.79744,-46.22562c-7.65476,-29.71229 0.87633,-57.5954 19.05473,-62.2787z" fill="#216aff" stroke-width="2"/><path d="M320.83904,195.74179c2.44416,0.78518 10.46331,18.48994 12.82154,27.64349c2.08337,8.08669 14.55942,30.96443 14.37668,38.34929c-0.48867,19.74872 -20.20057,20.52074 -33.43141,23.92939c-10.00073,2.57648 -30.97663,10.85754 -39.97763,0.90663c-7.36019,-8.13693 51.03691,-30.14819 47.59337,-43.51444c-5.24493,-20.35843 -11.32088,-62.0655 -1.38255,-47.31435z" fill="#3236f4" stroke-width="0"/></g><g data-paper-data="{&quot;index&quot;:null}" stroke="#000000"><g><path d="M276.93766,208.01129c-46.78974,0.31356 -84.9745,-37.36283 -85.28806,-84.15257c-0.31356,-46.78974 37.36284,-84.9745 84.15258,-85.28806c46.78974,-0.31356 84.9745,37.36283 85.28806,84.15258c0.31356,46.78974 -37.36284,84.9745 -84.15258,85.28806z" fill="#faddbf" stroke-width="2"/><path d="M360.85365,121.85529c0.31356,46.78974 -37.36284,84.97451 -84.15258,85.28806c-6.06277,0.04063 -18.50561,-1.83608 -20.88371,-2.62914c-1.48665,-0.49578 27.13326,-7.06136 47.32223,-20.50344c10.83322,-7.2129 16.96193,-21.66519 19.81558,-26.42689c1.6155,-0.44975 5.88828,-20.12009 5.89083,-20.18042c1.06941,-25.29766 -24.84265,-87.40933 -16.89134,-90.03368c0.60944,-0.20115 12.62203,6.52673 22.02525,14.81209c7.56535,6.66599 12.89396,15.17369 13.41135,15.5373c4.53048,3.18388 13.36151,29.08217 13.46239,44.13611z" fill="#ef8b89" stroke-width="0"/><path d="M192.16997,123.39704c-0.24487,-36.53933 43.32833,-48.05766 83.45952,-27.72575c41.92604,21.24126 85.02289,-7.37484 85.26776,29.16449c0.12178,18.17142 -8.26914,10.22311 -22.2396,-2.32291c-2.89347,-2.59845 -12.84357,10.38944 -16.18966,7.58775c-4.26506,-3.57113 -8.14106,-8.85499 -12.0573,-14.33686c-3.15346,-4.41416 -13.62437,12.61126 -17.0541,8.73116c-5.27795,-5.97098 -5.52486,-12.98028 -12.80454,-12.9315c-2.73733,0.01834 -10.00725,11.80839 -12.72485,12.15398c-2.10727,0.26798 -9.40607,-11.8955 -11.46927,-11.51932c-3.74671,0.68314 -12.17583,10.98946 -15.65874,12.13676c-1.39649,0.46002 -12.56764,-8.31556 -13.90246,-7.83393c-1.90911,0.68884 -8.78483,10.13925 -10.49287,10.92213c-2.71932,1.24639 -10.82933,-6.14724 -12.96739,-4.96112c-8.8233,4.89486 -8.39368,12.81668 -8.94421,14.70951c-0.53963,1.85538 -2.14438,-2.15032 -2.22227,-13.7744z" fill="#ef8b89" stroke-width="0"/></g><path d="M190.58042,115.0966c-0.24487,-36.53933 40.91336,-78.96352 86.83916,-79.27129c45.92581,-0.30777 86.08721,44.14092 86.33207,80.68025c0.12178,18.17142 -8.48875,10.22458 -22.82497,-2.31898c-2.96922,-2.59794 -13.18369,10.39172 -16.61743,7.59062c-4.37676,-3.57038 -8.35393,-8.85357 -12.37234,-14.33475c-3.23575,-4.41361 -13.98545,12.61368 -17.50484,8.73418c-5.41592,-5.97006 -5.66809,-12.97932 -13.13953,-12.92925c-2.80942,0.01883 -10.27292,11.81016 -13.06216,12.15623c-2.16283,0.26835 -9.65172,-11.89386 -11.76933,-11.51731c-3.84553,0.6838 -12.49847,10.99163 -16.07332,12.13954c-1.43335,0.46027 -12.8972,-8.31335 -14.26726,-7.83149c-1.95952,0.68918 -9.01801,10.14081 -10.77118,10.924c-2.79117,1.24687 -11.11348,-6.14535 -13.30807,-4.95884c-17.93392,9.69597 -11.3034,24.4199 -11.46077,0.93709z" fill="#724e36" stroke-width="2"/><path d="M190.82038,113.93218c-0.24487,-36.53933 44.47807,-48.06537 85.66271,-27.74051c43.02661,21.23389 87.26365,-7.38986 87.50851,29.14947c0.12178,18.17142 -8.48875,10.22457 -22.82497,-2.31899c-2.96922,-2.59794 -13.18369,10.39173 -16.61743,7.59062c-4.37676,-3.57038 -8.35394,-8.85357 -12.37235,-14.33476c-3.23575,-4.41362 -13.98545,12.61368 -17.50484,8.73418c-5.41592,-5.97006 -5.66809,-12.97932 -13.13952,-12.92925c-2.80942,0.01883 -10.27292,11.81017 -13.06216,12.15624c-2.16283,0.26835 -9.65172,-11.89386 -11.76934,-11.51731c-3.84553,0.6838 -12.49848,10.99163 -16.07333,12.13954c-1.43335,0.46027 -12.8972,-8.31334 -14.26726,-7.83149c-1.95953,0.68918 -9.01801,10.14081 -10.77119,10.924c-2.79117,1.24687 -11.11348,-6.14535 -13.30807,-4.95884c-17.93392,9.69597 -11.3034,24.4199 -11.46077,0.93708z" fill="#623728" stroke-width="0"/></g><g data-paper-data="{&quot;index&quot;:null}" stroke="#000000"><path d="M265.53056,94.34348c16.56817,-0.11103 30.15447,22.95003 30.34585,51.50833c0.19138,28.55829 -13.40422,43.38027 -29.97239,43.4913c-16.56817,0.11103 -29.83488,-14.53092 -30.02626,-43.08922c-0.19138,-28.5583 13.08463,-51.79937 29.6528,-51.9104z" fill="#f0f0f0" stroke-width="2"/><path d="M295.23484,145.02583c0.19138,28.55829 -13.40422,43.38027 -29.97239,43.4913c-16.56817,0.11103 21.73045,-33.95501 17.23876,-62.15852c-6.49365,-40.77393 12.54225,-9.89108 12.73363,18.66722z" fill="#9a99ff" stroke-width="0"/></g><path d="M273.40769,117.83438c5.78393,-0.03876 10.55869,12.75597 10.66472,28.57783c0.10603,15.82186 -4.49682,28.67943 -10.28075,28.71819c-5.78393,0.03876 -10.55869,-12.75597 -10.66472,-28.57783c-0.10603,-15.82185 4.49683,-28.67942 10.28075,-28.71818z" data-paper-data="{&quot;index&quot;:null}" fill="#000000" stroke="none" stroke-width="0"/><g data-paper-data="{&quot;index&quot;:null}" stroke="#000000"><path d="M240.68569,116.1863c4.18449,-9.7774 9.88832,-21.6208 25.59822,-21.72608c15.7099,-0.10528 18.2575,12.14812 22.64303,21.26766c4.60914,9.58455 -6.82919,14.30284 -22.5391,14.40812c-15.7099,0.10528 -30.09297,-3.69023 -25.70216,-13.9497z" fill="#a100fe" stroke-width="2"/><path d="M241.60756,115.82588c4.03958,-9.77643 9.6962,0.76194 24.87044,0.66025c15.17424,-0.10169 17.48779,-10.22818 21.72587,-1.10765c4.45418,9.58558 -6.59307,14.30126 -21.76731,14.40295c-15.17424,0.10169 -29.06776,-3.6971 -24.82901,-13.95554z" fill="#99008e" stroke-width="0"/></g><g data-paper-data="{&quot;index&quot;:null}" stroke="#000000"><path d="M232.14125,144.80027c0.19138,28.5583 -12.87791,43.37674 -29.44608,43.48777c-16.56817,0.11103 -30.36119,-14.5274 -30.55257,-43.08569c-0.19138,-28.5583 13.08463,-51.79938 29.65281,-51.91041c16.56817,-0.11103 30.15447,22.95004 30.34585,51.50834z" fill="#f0f0f0" stroke-width="2"/><path d="M185.25535,125.53162c-4.1133,28.26117 34.63844,61.81087 18.07027,61.9219c-16.56817,0.11103 -30.36119,-14.52741 -30.55257,-43.0857c-0.19138,-28.5583 18.42891,-59.69349 12.4823,-18.8362z" fill="#9a99ff" stroke-width="0"/></g><path d="M229.18112,147.68918c0.10603,15.82186 -4.49683,28.67943 -10.28075,28.71819c-5.78393,0.03876 -10.55868,-12.75597 -10.66471,-28.57782c-0.10603,-15.82185 4.49682,-28.67943 10.28075,-28.71819c5.78393,-0.03876 10.55869,12.75597 10.66472,28.57783z" data-paper-data="{&quot;index&quot;:null}" fill="#000000" stroke="none" stroke-width="0"/><g data-paper-data="{&quot;index&quot;:null}" stroke="#000000"><path d="M226.9308,114.7998c4.52791,10.1997 -9.803,14.18763 -25.5129,14.29291c-15.7099,0.10528 -27.21044,-4.4593 -22.73017,-14.10476c4.26291,-9.1775 6.64606,-21.46394 22.35596,-21.56922c15.7099,-0.10528 21.57194,11.66062 25.8871,21.38106z" fill="#a100fe" stroke-width="2"/><path d="M226.00417,114.45177c4.37586,10.20072 -9.46551,14.18537 -24.63975,14.28706c-15.17424,0.10169 -26.2837,-4.46551 -21.95839,-14.10993c4.11547,-9.17651 6.56453,0.91807 21.73877,0.81638c15.17424,-0.10169 20.68911,-10.71492 24.85936,-0.99351z" fill="#99008e" stroke-width="0"/></g><path d="M241.46751,338.87003c0,-11.6628 13.71248,-9.87692 31.62358,-9.87692c14.33063,0 27.65301,-10.77791 32.14847,-5.26144c1.12318,1.37828 1.08979,12.80695 1.08979,15.13837c0,11.6628 -14.51982,21.11737 -32.43092,21.11737c-17.9111,0 -32.43092,-9.45457 -32.43092,-21.11737z" data-paper-data="{&quot;index&quot;:null}" fill="#000082" stroke="#000000" stroke-width="2"/><path d="M274.34813,329.56302c14.33063,0 25.38775,-8.75646 29.88321,-5.7726c1.12318,0.74551 1.0898,12.01046 1.0898,13.27153c0,6.30841 -12.25456,9.26589 -30.16566,9.26589c-17.91111,0 -31.80169,-3.88169 -31.80169,-10.1901c0,-6.30841 13.08324,-6.57472 30.99434,-6.57472z" data-paper-data="{&quot;index&quot;:null}" fill="#2e0048" stroke="#000000" stroke-width="0"/><path d="M376.7881,339.54915c0,11.6628 -14.51982,21.11737 -32.43092,21.11737c-17.9111,0 -32.43092,-9.45457 -32.43092,-21.11737c0,-2.33142 -0.03339,-13.76009 1.08979,-15.13837c4.49546,-5.51647 17.81784,5.26144 32.14847,5.26144c17.9111,0 31.62358,-1.78588 31.62358,9.87692z" data-paper-data="{&quot;index&quot;:null}" fill="#000082" stroke="#000000" stroke-width="2"/><path d="M374.90182,336.81684c0,6.30841 -13.89058,10.1901 -31.80169,10.1901c-17.9111,0 -30.16566,-2.95748 -30.16566,-9.26589c0,-1.26107 -0.03338,-12.52602 1.0898,-13.27153c4.49546,-2.98386 15.55258,5.7726 29.88321,5.7726c17.9111,0 30.99434,0.26631 30.99434,6.57472z" data-paper-data="{&quot;index&quot;:null}" fill="#2e0048" stroke="#000000" stroke-width="0"/><g data-paper-data="{&quot;index&quot;:null}" stroke="#000000"><path d="M346.29683,221.47995c1.34235,-2.51347 -14.01085,-5.54631 -22.35126,-10.48193c-6.76304,-4.00217 -9.49206,-9.93092 -2.42598,-10.56245c7.13727,3.81179 77.42437,-12.77775 61.71981,16.62778c-15.70457,29.40554 -34.22152,50.15338 -41.3588,46.34158c-7.13727,-3.81179 -11.28835,-12.51947 4.41622,-41.925z" fill="#216aff" stroke-width="2"/><path d="M323.83597,237.8769c6.7408,-12.6216 22.70045,-17.2483 35.64686,-10.33403c12.94642,6.91427 17.97708,22.75123 11.23628,35.37283c-6.7408,12.6216 -22.70045,17.2483 -35.64687,10.33403c-12.94642,-6.91427 -17.97707,-22.75123 -11.23627,-35.37283z" fill="#faddbf" stroke-width="2"/><path d="M364.38529,246.30313c6.74079,-12.62161 13.1301,3.04849 6.3893,15.67009c-6.74079,12.62161 -22.70045,17.24831 -35.64687,10.33404c-12.94642,-6.91427 22.51676,-13.38253 29.25756,-26.00413z" fill="#ef8b89" stroke-width="0"/></g><g data-paper-data="{&quot;index&quot;:null}" stroke="#000000"><path d="M247.00801,236.83815c20.063,26.6232 17.30845,35.86807 10.8465,40.73773c-6.46195,4.86967 -27.96467,-12.76507 -48.02767,-39.38828c-20.06299,-26.62321 51.94403,-21.10263 58.40598,-25.97229c7.07874,-0.46879 5.29938,5.81067 -0.76339,10.81055c-7.47682,6.16603 -22.17633,11.53665 -20.46143,13.8123z" fill="#216aff" stroke-width="2"/><path d="M271.73434,249.56447c8.61155,11.42735 6.09049,27.85174 -5.63095,36.68491c-11.72144,8.83317 -28.20459,6.73017 -36.81614,-4.69718c-8.61155,-11.42735 -6.09048,-27.85175 5.63096,-36.68492c11.72144,-8.83317 28.20458,-6.73016 36.81613,4.69719z" fill="#faddbf" stroke-width="2"/><path d="M232.97588,264.15996c8.61155,11.42735 44.6484,12.33367 32.92696,21.16684c-11.72144,8.83317 -28.20459,6.73017 -36.81613,-4.69719c-8.61155,-11.42735 -4.72238,-27.89702 3.88917,-16.46965z" fill="#ef8b89" stroke-width="0"/></g><path d="M326.43225,164.71632c4.37369,4.34749 4.31423,11.4986 -0.13282,15.97246c-4.44705,4.47386 -11.59767,4.57629 -15.97137,0.22881c-4.37369,-4.34749 1.61011,-5.60975 6.05716,-10.08361c4.44705,-4.47386 5.67333,-10.46514 10.04702,-6.11766z" fill="#000000" stroke="none" stroke-width="0"/></g></g></svg>