<svg version="1.1" xmlns="http://www.w3.org/2000/svg" xmlns:xlink="http://www.w3.org/1999/xlink" width="202.22227" height="202.22228" viewBox="0,0,202.22227,202.22228"><g transform="translate(-136.94442,-75.55554)"><g data-paper-data="{&quot;isPaintingLayer&quot;:true}" fill-rule="nonzero" stroke-linejoin="miter" stroke-miterlimit="10" stroke-dasharray="" stroke-dashoffset="0" style="mix-blend-mode: normal"><g data-paper-data="{&quot;index&quot;:null}" stroke="#000000"><path d="M266.5365,191.21233l-2.12136,18.03588c0,0 -1.4939,0.92923 -2.53972,0.86898c-1.04584,-0.06024 -1.82198,-1.12026 -1.82198,-1.12026l-1.17472,-17.88063" fill="#414b67" stroke-width="2" stroke-linecap="round"/><path d="M257.53661,206.71312l-11.70021,-5.87829l-1.71759,-18.20871l3.20905,-4.02183l4.81279,1.74117l6.97435,10.18493l12.49069,-1.56169l-0.23541,13.47265z" fill="#ef8b89" stroke-width="2" stroke-linecap="round"/><path d="M243.1553,182.79822l4.04266,-4.01256l5.62019,0.59365l7.82615,10.22097l-6.35292,5.51174l-12.10369,-0.70319z" data-paper-data="{&quot;index&quot;:null}" fill="#133c8f" stroke-width="2" stroke-linecap="butt"/><g stroke-linecap="butt"><path d="M254.9177,184.62358c0.01959,-4.34947 3.50115,-7.8598 7.77626,-7.84055c4.27511,0.01927 7.72489,3.56082 7.70531,7.91028c-0.01078,2.38737 -1.06453,4.5219 -2.72002,5.95873c-1.36063,1.1809 -7.73003,1.50244 -8.84901,0.8536c-2.34788,-1.3614 -3.92584,-3.93644 -3.91257,-6.88206z" fill="#414b67" stroke-width="2"/><path d="M265.7677,179.26033c0.33596,-0.32491 1.1163,-0.06307 1.74291,0.58486c0.6266,0.64792 0.86225,1.43657 0.52628,1.76148c-0.33596,0.32491 -1.1163,0.06307 -1.74291,-0.58486c-0.6266,-0.64792 -0.86225,-1.43657 -0.52628,-1.76148z" fill="#7082b2" stroke-width="0"/></g></g><g data-paper-data="{&quot;index&quot;:null}" stroke="#000000"><g data-paper-data="{&quot;index&quot;:null}"><path d="M261.10757,227.06943l-17.57401,2.8407l-6.64786,-2.48075l-1.25562,-32.33526l8.02527,-2.37242l8.05976,2.74446z" data-paper-data="{&quot;index&quot;:null}" fill="#73fffc" stroke-width="2" stroke-linecap="butt"/><path d="M242.67016,228.45186l-3.23903,-24.43751l4.16388,24.94477z" fill="#59a9e6" stroke-width="0" stroke-linecap="round"/></g><g><path d="M237.46682,231.27788l-17.76355,3.11907l-6.44586,-3.94615l8.9342,-32.51668l8.26889,-1.7184l7.90289,3.13569z" data-paper-data="{&quot;index&quot;:null}" fill="#73fffc" stroke-width="2" stroke-linecap="butt"/><path d="M218.91877,232.77565l4.41152,-25.48916l-3.52147,26.16353z" fill="#59a9e6" stroke-width="0" stroke-linecap="round"/></g><path d="M245.22789,177.80769l7.21575,19.87038l-25.30439,2.91169l-4.70605,-2.91438l3.58744,-19.35645z" fill="#1a54c9" stroke-width="2" stroke-linecap="round"/></g><path d="M210.89426,155.14942c0.21326,-11.81165 4.49674,-22.05296 26.01035,-21.52739c31.17403,0.76155 23.68374,28.58329 23.68374,28.58329c0,0 3.41037,1.40736 2.21314,5.12759c-1.46646,4.55684 -13.42144,9.90522 -26.68001,9.66584c-14.14585,-0.25541 -25.44047,-10.03771 -25.2272,-21.84935z" data-paper-data="{&quot;index&quot;:null}" fill="#faddbf" stroke="#000000" stroke-width="2" stroke-linecap="butt"/><g data-paper-data="{&quot;index&quot;:null}" stroke="#000000"><g data-paper-data="{&quot;index&quot;:null}"><path d="M224.00178,212.71493l-14.75275,-0.57053l-7.29386,-7.39847l18.63125,-24.65649l5.46064,0.07965l3.41509,4.31668z" data-paper-data="{&quot;index&quot;:null}" fill="#faddbf" stroke-width="2" stroke-linecap="butt"/><path d="M209.02762,210.35365l10.32814,-20.5955l-9.71673,21.5074z" fill="#ef8b89" stroke-width="0" stroke-linecap="round"/></g><path d="M229.68797,194.96379l-12.10096,-0.74869l-5.64852,-6.23163l8.99181,-9.21217l5.65085,0.08242l3.53404,4.46704z" data-paper-data="{&quot;index&quot;:null}" fill="#1a54c9" stroke-width="2" stroke-linecap="butt"/></g><g data-paper-data="{&quot;index&quot;:null}" stroke="#000000" stroke-linecap="butt"><path d="M260.36017,153.24075c-0.06118,3.38887 -0.04016,4.43554 -0.19135,3.89279c-0.15426,-0.55372 0.36989,-2.73025 -2.18645,-4.18662c-0.61947,-0.3529 -3.00849,1.77595 -3.79723,1.40356c-0.49541,-0.23392 -2.46887,-3.01208 -3.0232,-3.21923c-0.38759,-0.14483 -3.67375,2.37682 -4.07938,2.23807c-1.0117,-0.34606 -3.43519,-3.3789 -4.52535,-3.59048c-0.60029,-0.11651 -2.76863,3.40576 -3.38213,3.32065c-0.79122,-0.10975 -2.87184,-3.57136 -3.66987,-3.58577c-2.12233,-0.03832 -2.21752,2.00451 -3.77614,3.72796c-1.01283,1.11993 -4.00941,-3.87872 -4.94345,-2.60214c-1.15998,1.58535 -2.30758,3.1131 -3.56292,4.1402c-0.98487,0.8058 -3.84296,-3.01392 -4.6952,-2.26589c-4.11478,3.61173 -6.73806,6.15337 -6.64241,0.85565c0.19234,-10.65274 12.81357,-2.41865 25.10797,-8.47305c11.76808,-5.79522 23.43447,-2.31075 23.24214,8.34199z" data-paper-data="{&quot;index&quot;:null}" fill="#ef8b89" stroke-width="0"/><path d="M261.72598,150.84165c-0.12362,6.84621 1.85834,2.5752 -3.33845,-0.31115c-0.63596,-0.35321 -3.0869,1.77454 -3.89657,1.40176c-0.50858,-0.23416 -2.53527,-3.01327 -3.10433,-3.22068c-0.39788,-0.14503 -3.76934,2.3751 -4.18573,2.23616c-1.03848,-0.34654 -3.52726,-3.38057 -4.64621,-3.59266c-0.61618,-0.1168 -2.83991,3.40446 -3.46962,3.31907c-0.81207,-0.11012 -2.94912,-3.57275 -3.7682,-3.58753c-2.17823,-0.03933 -2.27495,2.00348 -3.8738,3.72621c-1.03897,1.11947 -4.11683,-3.88065 -5.07486,-2.6045c-1.18977,1.58482 -2.36685,3.11203 -3.65477,4.13855c-1.01044,0.80534 -3.9456,-3.0158 -4.81992,-2.26815c-4.22144,3.60978 -6.75825,5.89829 -6.6626,0.60057c0.19232,-10.65273 12.04905,-23.47941 25.43831,-23.23767c13.38925,0.24174 25.24907,12.74729 25.05674,23.40003z" data-paper-data="{&quot;index&quot;:null}" fill="#724e36" stroke-width="2"/><path d="M261.65988,150.50137c-0.12362,6.84621 1.85834,2.5752 -3.33845,-0.31115c-0.63596,-0.35321 -3.0869,1.77454 -3.89657,1.40176c-0.50857,-0.23415 -2.53527,-3.01327 -3.10433,-3.22068c-0.39787,-0.14502 -3.76934,2.3751 -4.18573,2.23616c-1.03849,-0.34654 -3.52726,-3.38057 -4.64621,-3.59266c-0.61618,-0.1168 -2.83992,3.40446 -3.46963,3.31907c-0.81207,-0.11013 -2.94912,-3.57276 -3.7682,-3.58754c-2.17824,-0.03933 -2.27495,2.00348 -3.8738,3.72621c-1.03897,1.11947 -4.11683,-3.88065 -5.07486,-2.6045c-1.18978,1.58481 -2.36686,3.11202 -3.65478,4.13854c-1.01044,0.80534 -3.9456,-3.0158 -4.81992,-2.26815c-4.22144,3.60978 -6.75825,5.89829 -6.6626,0.60057c0.19234,-10.65273 12.99549,-2.16067 25.61076,-8.20928c12.07522,-5.78967 25.07663,-2.2811 24.8843,8.37164z" data-paper-data="{&quot;index&quot;:null}" fill="#623728" stroke-width="0"/></g><g data-paper-data="{&quot;index&quot;:null}" fill="#000000" stroke="none" stroke-width="0.5" stroke-linecap="butt"><path d="M250.43978,168.94301c-1.90818,-0.63641 -1.34728,-2.8572 -1.10768,-6.73952c0.2396,-3.88231 0.37788,-9.10567 2.06513,-8.77429c1.68725,0.33138 1.83962,3.94502 1.61342,7.61006c-0.22617,3.66504 -1.08946,8.39781 -2.57085,7.90376z"/><path d="M231.66079,164.78475c1.27893,-0.13752 2.11784,1.06585 1.93327,1.09694c0,0 -2.75907,2.90411 1.11157,5.27293c5.73451,3.50952 11.40402,1.49346 11.48233,1.7629c0.13957,0.48012 -0.34055,0.61969 -0.34055,0.61969c-3.61613,1.04301 -8.10478,-0.68403 -11.18722,-2.24197c-6.18443,-3.12575 -1.79787,-5.39973 -1.79787,-5.39973c0,0 -2.48043,-0.97329 -1.20151,-1.11079z"/><path d="M240.65847,169.51655c-2.8939,-0.6542 -2.06557,-2.87017 -1.73893,-6.75091c0.32664,-3.88076 0.48754,-9.10371 3.04421,-8.75663c2.55666,0.34707 2.82079,3.96273 2.51242,7.62628c-0.30835,3.66354 -1.57104,8.38912 -3.81767,7.88124z"/></g><path d="M136.94445,277.77779v-202.22223h202.22222v202.22222z" data-paper-data="{&quot;index&quot;:null}" fill="none" stroke="#000000" stroke-width="0.00005" stroke-linecap="butt"/></g></g></svg>