<svg version="1.1" xmlns="http://www.w3.org/2000/svg" xmlns:xlink="http://www.w3.org/1999/xlink" width="186.68716" height="338.00413" viewBox="0,0,186.68716,338.00413"><g transform="translate(-213.70317,-22.05908)"><g data-paper-data="{&quot;isPaintingLayer&quot;:true}" fill-rule="nonzero" stroke-linejoin="miter" stroke-miterlimit="10" stroke-dasharray="" stroke-dashoffset="0" style="mix-blend-mode: normal"><g data-paper-data="{&quot;index&quot;:null}" stroke="#000000" stroke-linecap="butt"><path d="M269.61139,219.71789c2.29765,1.68534 7.47773,-13.08239 13.54655,-20.63833c4.92105,-6.12693 11.17698,-7.98734 10.79977,-0.90313c-4.78569,6.52439 1.66558,78.45399 -25.21484,58.73696c-26.88043,-19.71705 -44.79175,-40.98992 -40.00605,-47.51431c4.78569,-6.52438 13.99417,-9.39825 40.87458,10.31879z" fill="#216aff" stroke-width="2"/><path d="M256.56639,195.15818c11.53775,8.46306 13.85373,24.91762 5.17288,36.75231c-8.68085,11.83469 -25.07127,14.56794 -36.60903,6.10488c-11.53776,-8.46305 -13.85373,-24.91763 -5.17288,-36.75232c8.68085,-11.83469 25.07126,-14.56793 36.60902,-6.10487z" fill="#faddbf" stroke-width="2"/><path d="M226.05534,238.20395c-11.53776,-8.46304 -13.85373,-24.91762 -5.17288,-36.75231c8.68085,-11.83468 10.0531,24.18743 21.59086,32.65049c11.53777,8.46305 -4.88022,12.56488 -16.41798,4.10182z" fill="#ef8b89" stroke-width="0"/></g><g data-paper-data="{&quot;index&quot;:null}" stroke="#000000" stroke-linecap="butt"><path d="M275.77281,339.91115v-95.29492h29.49199v95.29492z" fill="#73fffc" stroke-width="2"/><path d="M276.75552,338.96474l18.60659,-13.13896c0,0 2.26208,-0.70825 2.52228,-2.78987c1.17702,-9.41615 6.3799,-77.52842 6.3799,-77.52842l1.32626,93.78573z" fill="#59a9e6" stroke-width="0"/></g><g data-paper-data="{&quot;index&quot;:null}" stroke="#000000" stroke-linecap="butt"><path d="M315.11419,337.4886v-95.29492h29.49199v95.29492z" fill="#73fffc" stroke-width="2"/><path d="M316.0969,336.54222l18.60659,-13.13896c0,0 2.26208,-0.70825 2.52228,-2.78987c1.17702,-9.41615 6.3799,-77.52842 6.3799,-77.52842l1.32626,93.78573z" fill="#59a9e6" stroke-width="0"/></g><g data-paper-data="{&quot;index&quot;:null}" stroke="#000000" stroke-linecap="butt"><path d="M311.7905,179.21612c18.77199,0 33.98969,24.87307 33.98969,55.55556c0,8.35076 6.37392,33.61764 4.35457,40.7234c-5.40019,19.00234 -24.68139,14.83216 -38.34426,14.83216c-10.32729,0 -32.7059,2.78608 -38.9397,-9.09579c-5.09742,-9.71589 4.95001,-32.65706 4.95001,-46.45977c0,-30.68249 15.2177,-55.55556 33.98969,-55.55556z" fill="#216aff" stroke-width="2"/><path d="M339.52974,204.18511c2.17098,1.37012 5.51953,20.51569 5.51953,29.96813c0,8.35075 6.37393,33.61764 4.35457,40.7234c-5.40019,19.00233 -24.68138,14.83215 -38.34425,14.83215c-10.32729,0 -32.7059,2.78607 -38.9397,-9.09579c-5.09743,-9.71588 56.94455,-16.46203 56.94455,-30.26474c0,-21.0232 4.52139,-62.9273 10.4653,-46.16315z" fill="#3236f4" stroke-width="0"/></g><g data-paper-data="{&quot;index&quot;:null}" stroke="#000000" stroke-linecap="butt"><g><path d="M396.56759,112.01423c-0.84499,46.78316 -39.45523,84.02341 -86.23839,83.17842c-46.78316,-0.84499 -84.02341,-39.45523 -83.17842,-86.23839c0.84499,-46.78316 39.45523,-84.02341 86.23839,-83.17842c46.78316,0.84499 84.02341,39.45522 83.17842,86.23838z" fill="#faddbf" stroke-width="2"/><path d="M396.35256,111.1407c-0.84499,46.78316 -39.45523,84.02341 -86.23839,83.17842c-6.06192,-0.10949 -18.45449,-2.29369 -20.81222,-3.14539c-1.47391,-0.53243 27.29978,-6.38741 47.81537,-19.32552c11.00847,-6.94248 17.49313,-21.2386 20.4638,-25.92819c1.62614,-0.40961 6.38463,-19.96814 6.38866,-20.02838c1.6954,-25.26343 -22.67092,-87.9976 -14.65707,-90.42429c0.61423,-0.186 12.45658,6.83723 21.65177,15.35286c7.39799,6.85125 12.51433,15.48827 13.02256,15.86458c4.45026,3.29508 12.63739,29.40407 12.36552,44.4559z" fill="#ef8b89" stroke-width="0"/><path d="M227.68237,108.50561c0.65987,-36.5342 44.50489,-46.97019 84.12039,-25.65091c41.3873,22.27278 85.17943,-5.26754 84.51955,31.26665c-0.32817,18.16888 -8.5197,10.01525 -22.17526,-2.87281c-2.82825,-2.66929 -13.09686,10.06826 -16.37256,7.18459c-4.17533,-3.67563 -7.91933,-9.05385 -11.69864,-14.63099c-3.0432,-4.49089 -13.93242,12.27007 -17.26504,8.30625c-5.1285,-6.09983 -5.20178,-13.11309 -12.48045,-13.24456c-2.73695,-0.04944 -10.29655,11.557 -13.02187,11.8352c-2.11327,0.21572 -9.10867,-12.12475 -11.18056,-11.79976c-3.76248,0.59016 -12.44417,10.68464 -15.95442,11.74536c-1.40745,0.42531 -12.35792,-8.62416 -13.70424,-8.17573c-1.92558,0.64136 -9.03317,9.91864 -10.76007,10.65899c-2.74934,1.17869 -10.67381,-6.41348 -12.84058,-5.28066c-8.94179,4.67491 -8.70843,12.60494 -9.30566,14.48356c-0.5854,1.84144 -2.09047,-2.20277 -1.88055,-13.82521z" fill="#ef8b89" stroke-width="0"/></g><path d="M226.29881,100.16831c0.65988,-36.53418 42.85584,-77.92636 88.77518,-77.09697c45.91935,0.82939 84.96797,46.25879 84.30809,82.79298c-0.32817,18.16887 -8.73929,10.01127 -22.76056,-2.88339c-2.90398,-2.67066 -13.43694,10.06213 -16.80026,7.17687c-4.28701,-3.67765 -8.13217,-9.05768 -12.01364,-14.63668c-3.12548,-4.49237 -14.29345,12.26355 -17.71572,8.29811c-5.26645,-6.10232 -5.34499,-13.11566 -12.81539,-13.25059c-2.80904,-0.05074 -10.56218,11.55221 -13.35913,11.82911c-2.16881,0.21472 -9.35428,-12.12917 -11.48057,-11.80517c-3.86127,0.58838 -12.76678,10.67881 -16.36895,11.73787c-1.4443,0.42464 -12.68741,-8.63011 -14.06898,-8.18232c-1.97597,0.64045 -9.26631,9.91443 -11.03834,10.65397c-2.82118,1.17739 -10.95792,-6.41861 -13.18121,-5.28681c-18.16847,9.24899 -11.90453,24.13256 -11.48045,0.65305z" fill="#724e36" stroke-width="2"/><path d="M226.56754,99.01022c0.65988,-36.53419 45.65447,-46.94942 86.32327,-25.61112c42.4877,22.29266 87.41987,-5.22707 86.75999,31.30712c-0.32817,18.16886 -8.73929,10.01127 -22.76056,-2.88339c-2.90398,-2.67067 -13.43694,10.06212 -16.80026,7.17686c-4.28703,-3.67765 -8.13218,-9.05768 -12.01365,-14.63668c-3.12548,-4.49237 -14.29345,12.26355 -17.71572,8.29811c-5.26645,-6.10232 -5.34499,-13.11567 -12.81539,-13.2506c-2.80904,-0.05073 -10.56218,11.55222 -13.35913,11.82912c-2.16881,0.21472 -9.35428,-12.12917 -11.48057,-11.80517c-3.86127,0.58838 -12.76678,10.67881 -16.36895,11.73787c-1.4443,0.42464 -12.68741,-8.63011 -14.06898,-8.18232c-1.97598,0.64045 -9.26632,9.91443 -11.03835,10.65397c-2.82118,1.17739 -10.95792,-6.41861 -13.18121,-5.28681c-18.16848,9.24898 -11.90454,24.13255 -11.48046,0.65304z" fill="#623728" stroke-width="0"/></g><g data-paper-data="{&quot;index&quot;:null}" stroke="#000000" stroke-linecap="butt"><path d="M304.15426,117.47096c0.51574,-28.55428 14.36311,-51.45954 30.92894,-51.16033c16.56584,0.29921 29.57702,23.68958 29.06128,52.24386c-0.51574,28.55427 -14.47416,43.0351 -31.03999,42.73589c-16.56583,-0.29921 -29.46597,-15.26515 -28.95023,-43.81943z" fill="#f0f0f0" stroke-width="2"/><path d="M351.25599,98.7361c-5.48215,-40.9222 12.7833,-9.57752 12.26756,18.97676c-0.51574,28.55427 -14.47416,43.0351 -31.03999,42.73589c-16.56583,-0.29921 22.56447,-33.4066 18.77244,-61.71266z" fill="#9a99ff" stroke-width="0"/></g><path d="M313.58002,92.44256c5.76818,-0.42825 11.39386,12.01583 12.56531,27.79462c1.17145,15.7788 -2.55496,28.91719 -8.32314,29.34542c-5.76818,0.42825 -11.39386,-12.01583 -12.56531,-27.79462c-1.17145,-15.7788 2.55496,-28.91719 8.32314,-29.34542z" data-paper-data="{&quot;index&quot;:null}" fill="#000000" stroke="none" stroke-width="0" stroke-linecap="butt"/><g data-paper-data="{&quot;index&quot;:null}" stroke="#000000" stroke-linecap="butt"><path d="M335.83342,66.44599c15.7077,0.2837 17.95114,12.59643 22.10954,21.82175c4.37043,9.69573 -7.18121,14.12937 -22.88891,13.84567c-15.7077,-0.28372 -29.99238,-4.43418 -25.34891,-14.58178c4.42528,-9.6708 10.42058,-21.36934 26.12828,-21.08564z" fill="#a100fe" stroke-width="2"/><path d="M310.63566,87.19411c4.2804,-9.67341 9.67437,1.00177 24.84647,1.27581c15.1721,0.27404 17.73567,-9.79208 21.74664,-0.56941c4.21548,9.69293 -6.94514,14.13365 -22.11724,13.85961c-15.1721,-0.27404 -28.96732,-4.41565 -24.47588,-14.566z" fill="#99008e" stroke-width="0"/></g><g data-paper-data="{&quot;index&quot;:null}" stroke="#000000" stroke-linecap="butt"><path d="M300.4549,116.21376c-0.51574,28.55428 -13.94793,43.04461 -30.51376,42.7454c-16.56584,-0.29921 -29.99221,-15.27466 -29.47647,-43.82893c0.51574,-28.55428 14.36312,-51.45954 30.92895,-51.16033c16.56584,0.29921 29.57702,23.68958 29.06128,52.24386z" fill="#f0f0f0" stroke-width="2"/><path d="M241.11559,114.31159c0.51574,-28.55429 19.90119,-59.21893 12.94484,-18.52139c-4.81174,28.15067 33.09746,62.64952 16.53163,62.35031c-16.56584,-0.29921 -29.99221,-15.27466 -29.47647,-43.82893z" fill="#9a99ff" stroke-width="0"/></g><path d="M247.0521,94.16297c5.74731,-0.65101 11.85004,11.56619 13.63085,27.28787c1.7808,15.72167 -1.4347,28.99436 -7.182,29.64535c-5.7473,0.65101 -11.85004,-11.56619 -13.63085,-27.28787c-1.78079,-15.72167 1.43471,-28.99436 7.18201,-29.64535z" data-paper-data="{&quot;index&quot;:null}" fill="#000000" stroke="none" stroke-width="0" stroke-linecap="butt"/><g data-paper-data="{&quot;index&quot;:null}" stroke="#000000" stroke-linecap="butt"><path d="M295.98879,86.0935c4.274,10.30868 -10.15125,13.94057 -25.85895,13.65687c-15.7077,-0.28371 -27.09168,-5.13162 -22.37398,-14.6632c4.48883,-9.06915 7.17543,-21.29281 22.88313,-21.00911c15.7077,0.28371 21.27663,12.19113 25.3498,22.01543z" fill="#a100fe" stroke-width="2"/><path d="M295.07108,85.72262c4.12195,10.30593 -9.81383,13.94667 -24.98593,13.67263c-15.1721,-0.27403 -26.16507,-5.11488 -21.60231,-14.64926c4.3414,-9.07181 6.53979,1.08031 21.71189,1.35435c15.1721,0.27404 20.94805,-10.1994 24.87634,-0.37772z" fill="#99008e" stroke-width="0"/></g><path d="M241.39366,337.94583c0,-11.6628 13.71248,-9.87692 31.62358,-9.87692c14.33063,0 27.65301,-10.77791 32.14847,-5.26144c1.12318,1.37828 1.08979,12.80695 1.08979,15.13837c0,11.6628 -14.51982,21.11737 -32.43092,21.11737c-17.9111,0 -32.43092,-9.45457 -32.43092,-21.11737z" data-paper-data="{&quot;index&quot;:null}" fill="#000082" stroke="#000000" stroke-width="2" stroke-linecap="butt"/><path d="M274.27428,328.63882c14.33063,0 25.38775,-8.75646 29.88321,-5.7726c1.12318,0.74551 1.0898,12.01046 1.0898,13.27153c0,6.30841 -12.25456,9.26589 -30.16566,9.26589c-17.91111,0 -31.80169,-3.88169 -31.80169,-10.1901c0,-6.30841 13.08324,-6.57472 30.99434,-6.57472z" data-paper-data="{&quot;index&quot;:null}" fill="#2e0048" stroke="#000000" stroke-width="0" stroke-linecap="butt"/><path d="M284.3806,337.301c0,-11.6628 13.71248,-9.87692 31.62358,-9.87692c14.33063,0 27.65301,-10.77791 32.14847,-5.26144c1.12318,1.37828 1.08979,12.80695 1.08979,15.13837c0,11.6628 -14.51982,21.11737 -32.43092,21.11737c-17.9111,0 -32.43092,-9.45457 -32.43092,-21.11737z" data-paper-data="{&quot;index&quot;:null}" fill="#000082" stroke="#000000" stroke-width="2" stroke-linecap="butt"/><path d="M317.26122,327.99397c14.33063,0 25.38775,-8.75646 29.88321,-5.7726c1.12318,0.74551 1.0898,12.01046 1.0898,13.27153c0,6.30841 -12.25456,9.26589 -30.16566,9.26589c-17.91111,0 -31.80169,-3.88169 -31.80169,-10.1901c0,-6.30841 13.08324,-6.57472 30.99434,-6.57472z" data-paper-data="{&quot;index&quot;:null}" fill="#2e0048" stroke="#000000" stroke-width="0" stroke-linecap="butt"/><g data-paper-data="{&quot;index&quot;:null}"><path d="M305.78,250.22432c-11.78668,-4.80336 -20.15847,-14.03342 -19.2093,-25.15051c0.17598,-2.0608 0.34755,-4.31873 1.22907,-6.48184c5.63706,-13.83231 19.46575,-18.72423 33.43736,-13.03043c13.97157,5.69376 20.7218,22.50026 15.81351,33.10138c-6.27566,13.55454 -17.29907,17.25515 -31.27062,11.56141z" fill="#485e84" stroke="#000000" stroke-width="2" stroke-linecap="butt"/><path d="M331.16948,215.0975c0,0 1.89429,2.31646 3.38222,5.54132c1.59873,3.46503 2.79089,7.97399 2.53604,11.64077c-0.19971,2.87314 -1.77548,7.13035 -4.55692,10.37151c-1.79144,2.08751 -3.3947,4.11538 -5.06677,5.42384c-1.70675,1.33564 -14.50909,5.46543 -14.50909,5.46543l-17.92944,-10.83484c0,0 -4.67618,-6.90231 -5.82994,-10.21786c-1.01001,-2.9026 -1.08521,-6.71024 -0.5952,-9.58563c0.46049,-2.70222 1.45937,-4.5651 1.45937,-4.5651c0,0 0.16959,1.11 1.14885,1.51144c4.31018,1.76694 17.67183,6.08955 36.26532,1.23614c1.93839,-0.50597 3.69562,-5.98713 3.69562,-5.98713z" fill="#343545" stroke="none" stroke-width="0" stroke-linecap="butt"/><path d="M319.83942,205.38388c0,0 4.34108,12.2171 4.72459,18.73226c0.30298,5.14668 -4.75888,12.61501 -4.75888,12.61501" fill="none" stroke="#000000" stroke-width="1" stroke-linecap="round"/><path d="M295.26273,237.31391c0,0 -4.01567,-8.8333 -4.30365,-13.16264c-0.2853,-4.2884 0.95659,-11.33024 0.95659,-11.33024" fill="none" stroke="#000000" stroke-width="1" stroke-linecap="round"/><path d="M328.8041,210.80133c0,0 3.42117,11.08113 4.31425,19.61228c0.582,5.55969 -4.72844,13.1482 -4.72844,13.1482" fill="none" stroke="#000000" stroke-width="1" stroke-linecap="round"/><path d="M286.51613,229.43732c0,0 6.20546,-16.09296 25.21478,-14.40472c17.3542,1.54123 26.07377,16.48929 26.07377,16.48929" fill="none" stroke="#000000" stroke-width="1" stroke-linecap="round"/><path d="M289.66561,237.5811c0,0 6.49501,-13.06652 19.06655,-11.9228c15.31075,1.39295 26.68704,15.08392 26.68704,15.08392" fill="none" stroke="#000000" stroke-width="1" stroke-linecap="round"/><path d="M306.0898,208.32597c-1.18693,0.19574 -2.27479,-0.40736 -2.42967,-1.34704c-0.15491,-0.93965 0.98044,-1.15028 2.16741,-1.34598c1.18696,-0.19571 1.97602,-0.30239 2.1309,0.63729c0.15493,0.93962 -0.68164,1.86004 -1.86861,2.05574z" fill="#8fbbbe" stroke="none" stroke-width="0" stroke-linecap="butt"/><path d="M299.14418,210.47454c-0.55699,-0.22699 -0.70143,-0.68364 -0.36094,-1.51915c0.34045,-0.83551 1.23611,-1.26028 1.79313,-1.0333c0.557,0.22699 0.53332,0.61514 0.19283,1.45065c-0.34049,0.83551 -1.06804,1.32878 -1.62506,1.1018z" fill="#8fbbbe" stroke="none" stroke-width="0" stroke-linecap="butt"/><path d="M312.92624,207.2641c-0.86703,-0.24954 -1.43506,-0.92046 -1.26869,-1.49843c0.16638,-0.57801 0.79853,-0.33998 1.6656,-0.09046c0.86702,0.24956 1.64053,0.41619 1.47416,0.99416c-0.16637,0.578 -1.00403,0.84427 -1.8711,0.59475z" fill="#8fbbbe" stroke="none" stroke-width="0" stroke-linecap="butt"/><path d="M289.4559,217.89484c0,0 2.17283,-1.98642 5.34467,-3.93964c4.30815,-2.65297 10.23319,-5.50245 12.95698,-5.62694c3.08,-0.14082 7.14407,-0.28101 11.19592,1.14695c7.14674,2.51871 14.85544,9.24594 14.85544,9.24594" fill="none" stroke="#000000" stroke-width="0.5" stroke-linecap="round"/><path d="M303.54346,233.82828c0,0 -3.79916,-10.27766 -3.91652,-14.83023c-0.13931,-5.40351 3.47127,-15.34039 3.47127,-15.34039" fill="none" stroke="#000000" stroke-width="1" stroke-linecap="round"/><path d="M309.74127,203.22877c0,0 3.8577,9.66928 3.2022,17.58239c-0.37332,4.50682 -3.57266,13.62781 -3.57266,13.62781" fill="none" stroke="#000000" stroke-width="1" stroke-linecap="round"/></g><g data-paper-data="{&quot;index&quot;:null}" stroke="#000000" stroke-linecap="butt"><path d="M331.49196,243.05063c2.84058,0.22488 -0.52119,-15.05967 0.66614,-24.67804c0.96277,-7.79931 5.30491,-12.67202 8.71019,-6.4485c-0.63858,8.06614 42.6813,65.84916 9.44884,63.21818c-33.23247,-2.63098 -59.65503,-11.3027 -59.01644,-19.36885c0.63859,-8.06613 6.95882,-15.35379 40.19128,-12.7228z" fill="#216aff" stroke-width="2"/><path d="M307.47945,229.02389c14.26421,1.12929 24.88862,13.90577 23.73028,28.53708c-1.15834,14.6313 -13.6608,25.57687 -27.92502,24.44758c-14.26422,-1.12928 -24.88862,-13.90577 -23.73028,-28.53708c1.15833,-14.6313 13.66079,-25.57686 27.92501,-24.44757z" fill="#faddbf" stroke-width="2"/><path d="M304.17066,281.6824c-14.26422,-1.12928 -24.88862,-13.90577 -23.73028,-28.53708c1.15835,-14.63131 21.27212,15.28376 35.53634,16.41305c14.26423,1.12928 2.45816,13.25332 -11.80606,12.12403z" fill="#ef8b89" stroke-width="0"/></g><path d="M381.88472,134.49038c-0.24148,-0.43215 -0.24148,-0.8897 -0.24148,-0.8897l0.0032,-1.33467c0.10863,-1.52208 0.02188,-3.54143 1.33001,-4.70788c2.21713,-1.97699 5.8562,-0.76445 7.43284,1.22751c1.60697,2.03029 1.40325,4.47263 1.464,6.90019c0.16506,6.59584 -0.70682,12.83668 -6.63791,16.69575c-0.74184,0.3841 -1.4287,0.90139 -2.22551,1.15228c-4.25767,1.34061 -12.50776,0.87299 -14.07303,-4.13384c-0.27179,-0.8694 -0.16755,-1.83008 -0.04244,-2.73234c0.59894,-4.31947 4.39964,-5.36507 7.75755,-6.9373c1.47292,-0.68965 5.04034,-1.89963 5.36713,-3.91265c0.07154,-0.4407 -0.03301,-0.88406 -0.13436,-1.32737z" data-paper-data="{&quot;index&quot;:null}" fill="#000000" stroke="none" stroke-width="0.5" stroke-linecap="butt"/></g></g></svg>