<svg version="1.1" xmlns="http://www.w3.org/2000/svg" xmlns:xlink="http://www.w3.org/1999/xlink" width="213.31759" height="327.1638" viewBox="0,0,213.31759,327.1638"><g transform="translate(-224.78117,-33.35122)"><g data-paper-data="{&quot;isPaintingLayer&quot;:true}" fill-rule="nonzero" stroke-linejoin="miter" stroke-miterlimit="10" stroke-dasharray="" stroke-dashoffset="0" style="mix-blend-mode: normal"><g><path d="M410.20142,205.82007c-15.00082,1.61194 -24.5727,-4.99027 -26.85911,-19.75111c-1.78826,-11.54459 9.34267,-25.83185 24.34352,-27.44379c15.00089,-1.61197 26.93972,6.91023 28.53563,21.76157c0.24958,2.32247 -0.20938,4.53992 -0.60963,6.56913c-2.15931,10.94659 -12.75538,17.50434 -25.41038,18.86422z" fill="#216aff" stroke="#000000" stroke-width="2" stroke-linecap="butt"/><path d="M395.50537,165.04563c0,0 0.17443,5.75333 1.8976,6.77514c16.52879,9.80166 30.56461,9.33898 35.19521,8.83168c1.05205,-0.11525 1.52172,-1.13518 1.52172,-1.13518c0,0 0.44531,2.06636 0.14128,4.79061c-0.32352,2.89884 -1.44778,6.5375 -3.22044,9.04806c-2.02491,2.86772 -8.42609,8.20938 -8.42609,8.20938l-20.22509,5.4594c0,0 -11.16298,-7.50619 -12.43429,-9.26137c-1.24546,-1.7195 -2.22606,-4.1114 -3.37101,-6.61261c-1.77768,-3.88347 -2.11587,-8.41034 -1.51401,-11.22682c0.76816,-3.59446 3.15969,-7.59852 5.65354,-10.48695c2.321,-2.68823 4.78158,-4.39115 4.78158,-4.39115z" fill="#3236f4" stroke="none" stroke-width="0" stroke-linecap="butt"/><path d="M400.45025,188.97715c0,0 -2.80142,-8.57615 -1.08826,-13.43878c2.16866,-6.15559 9.71619,-16.69775 9.71619,-16.69775" fill="none" stroke="#000000" stroke-width="1" stroke-linecap="round"/><path d="M433.86021,173.70327c0,0 -0.75204,7.11086 -2.21107,11.1535c-1.47293,4.08128 -7.77283,11.46123 -7.77283,11.46123" fill="none" stroke="#000000" stroke-width="1" stroke-linecap="round"/><path d="M390.31241,193.17004c0,0 -3.00712,-8.76032 -0.91168,-13.94282c3.21537,-7.95233 9.56498,-17.65689 9.56498,-17.65689" fill="none" stroke="#000000" stroke-width="1" stroke-linecap="round"/><path d="M384.59062,178.99759c0,0 12.51012,-11.95709 29.61464,-8.64355c18.73583,3.62955 20.25343,20.81057 20.25343,20.81057" fill="none" stroke="#000000" stroke-width="1" stroke-linecap="round"/><path d="M384.33574,188.5181c0,0 14.71612,-10.0149 29.81575,-7.12345c12.39818,2.37417 15.03025,16.72657 15.03025,16.72657" fill="none" stroke="#000000" stroke-width="1" stroke-linecap="round"/><path d="M421.47971,165.46704c-1.0867,-0.51602 -1.63641,-1.63176 -1.22791,-2.492c0.40847,-0.8603 1.13733,-0.53978 2.22403,-0.02374c1.0867,0.51602 2.11965,1.03216 1.71115,1.89242c-0.40847,0.8603 -1.62062,1.13937 -2.70725,0.62331z" fill="#8fbbbe" stroke="none" stroke-width="0" stroke-linecap="butt"/><path d="M427.56141,169.45097c-0.59805,0.06423 -1.16099,-0.61084 -1.25738,-1.5079c-0.0964,-0.89705 -0.01191,-1.27664 0.58611,-1.34093c0.59805,-0.06423 1.34147,0.59146 1.43784,1.48851c0.0964,0.89705 -0.16859,1.29603 -0.7666,1.36029z" fill="#8fbbbe" stroke="none" stroke-width="0" stroke-linecap="butt"/><path d="M415.20282,162.55771c-0.90225,0.00025 -1.63376,-0.4871 -1.63394,-1.08857c-0.00023,-0.60142 0.78925,-0.54788 1.69146,-0.54816c0.90225,-0.00025 1.57556,-0.05434 1.57576,0.54715c0.00023,0.60142 -0.73107,1.08929 -1.63331,1.08957z" fill="#8fbbbe" stroke="none" stroke-width="0" stroke-linecap="butt"/><path d="M391.96754,167.7991c0,0 9.26728,-4.33553 16.83173,-4.78164c4.28867,-0.2529 8.15579,1.0047 11.07699,1.99101c2.58337,0.8722 7.49048,5.24779 10.89796,8.98777c2.50873,2.75355 4.04815,5.26295 4.04815,5.26295" fill="none" stroke="#000000" stroke-width="0.5" stroke-linecap="round"/><path d="M425.64467,161.80698c0,0 0.72459,10.54764 -0.90222,15.70231c-1.3706,4.34293 -7.8615,13.1709 -7.8615,13.1709" fill="none" stroke="#000000" stroke-width="1" stroke-linecap="round"/><path d="M411.11172,189.65707c0,0 -0.55479,-9.64988 0.33159,-14.08443c1.55632,-7.78619 7.93536,-16.01326 7.93536,-16.01326" fill="none" stroke="#000000" stroke-width="1" stroke-linecap="round"/></g><path d="M375.6084,323.31185c0,0 11.45421,-52.99282 15.58481,-76.86282c3.53724,-20.44102 3.04051,-52.76743 3.04051,-52.76743l25.11134,-2.12594l-20.4518,135.78554z" fill="#000000" stroke="none" stroke-width="0" stroke-linecap="butt"/><path d="M433.30132,203.2971c-0.93606,5.4093 -12.78177,7.87587 -26.45813,5.50923c-13.67636,-2.36664 -24.00442,-8.67029 -23.06836,-14.07959c0.93606,-5.4093 12.78177,-7.87587 26.45813,-5.50923c13.67636,2.36664 24.00442,8.67029 23.06836,14.07959z" fill="#000000" stroke="none" stroke-width="NaN" stroke-linecap="butt"/><g data-paper-data="{&quot;index&quot;:null}" stroke="#000000" stroke-linecap="butt"><path d="M374.51454,225.72843c25.17011,-21.85828 34.58352,-19.75048 39.88892,-13.64121c5.30543,6.10926 -10.79811,28.78143 -35.96823,50.6397c-25.17013,21.85827 -24.64867,-50.35818 -29.95407,-56.46744c-0.95781,-7.0293 5.42979,-5.68899 10.83746,0.01301c6.66895,7.03193 13.04448,21.3243 15.19594,19.45593z" fill="#216aff" stroke-width="2"/><path d="M385.49824,200.18025c10.80364,-9.38214 27.36317,-8.00435 36.98675,3.07732c9.62357,11.08169 8.66696,27.6709 -2.1367,37.05303c-10.80364,9.38214 -27.36319,8.00437 -36.98678,-3.07732c-9.62357,-11.08169 -8.66694,-27.67088 2.13671,-37.05302z" fill="#faddbf" stroke-width="2"/><path d="M402.7424,237.83507c10.80364,-9.38214 9.21255,-45.39524 18.83612,-34.31355c9.62357,11.08169 8.66694,27.67089 -2.1367,37.05302c-10.80364,9.38214 -27.50309,6.64269 -16.69943,-2.73945z" fill="#ef8b89" stroke-width="0"/></g><path d="M224.78117,360.17125v-93.89347h213.03043v93.89347z" fill="#000000" stroke="none" stroke-width="NaN" stroke-linecap="butt"/><g stroke="#000000" stroke-linecap="butt"><path d="M339.96424,335.79011l-14.75435,-94.1458l29.13636,-4.56619l14.75435,94.1458z" fill="#73fffc" stroke-width="2"/><path d="M339.54674,335.23006l-13.21042,-92.86015c0,0 15.68585,66.48538 18.30656,75.60575c0.57936,2.01623 2.92382,2.36571 2.92382,2.36571l20.4165,10.0997z" fill="#59a9e6" stroke-width="0"/></g><g fill="none" stroke="#808080" stroke-width="0.5" stroke-linecap="round"><path d="M437.84876,280.63432l-193.59492,1.15407l-17.0225,-13.84882"/><path d="M243.96532,281.78839l-2.01962,78.47663"/></g><g stroke="#000000" stroke-linecap="butt"><path d="M249.58249,316.78615l42.96713,-85.0585l26.32401,13.29752l-42.96713,85.0585z" fill="#73fffc" stroke-width="2"/><path d="M249.57034,316.08774l43.47045,-83.11343c0,0 -26.06686,63.14166 -29.26189,72.07705c-0.70633,1.97533 0.99343,3.62744 0.99343,3.62744l10.68373,20.11704z" fill="#59a9e6" stroke-width="0"/></g><g stroke="#000000" stroke-linecap="butt"><path d="M358.20572,229.02576c-0.98549,13.76748 7.39833,37.36748 1.62022,46.69462c-7.06624,11.40646 -29.18881,7.02969 -39.48975,6.29234c-13.628,-0.97551 -33.15774,1.80738 -37.18741,-17.53203c-1.50686,-7.2318 6.65482,-31.97911 7.25105,-40.30856c2.19069,-30.60418 19.14545,-54.32725 37.86953,-52.98696c18.72408,1.34029 32.12704,27.23641 29.93636,57.84059z" fill="#216aff" stroke-width="2"/><path d="M305.96078,240.90244c-0.98549,13.76748 60.41648,24.92613 54.63836,34.25326c-7.06624,11.40645 -29.18881,7.02969 -39.48975,6.29234c-13.628,-0.97551 -33.15773,1.80738 -37.1874,-17.53202c-1.50687,-7.2318 6.65482,-31.97912 7.25105,-40.30856c0.67489,-9.42832 5.38186,-28.28594 7.64513,-29.49756c7.12568,-16.29698 8.64363,25.823 7.14261,46.79254z" fill="#3236f4" stroke-width="0"/></g><g stroke="#000000" stroke-linecap="butt"><g><path d="M237.30228,115.43899c3.5601,-46.65515 44.2676,-81.59061 90.92276,-78.0305c46.65515,3.56011 81.59061,44.2676 78.03051,90.92276c-3.5601,46.65515 -44.26761,81.59061 -90.92276,78.03051c-46.65515,-3.5601 -81.59061,-44.26761 -78.03051,-90.92276z" fill="#faddbf" stroke-width="2"/><path d="M237.59855,114.58954c1.1454,-15.01064 11.75254,-40.23361 16.49307,-43.09538c0.54137,-0.32683 6.44759,-8.44421 14.45733,-14.56906c9.95557,-7.61277 22.40614,-13.49074 23.00014,-13.24776c7.75001,3.16985 -22.41025,63.33341 -23.09914,88.6443c-0.00165,0.06036 2.89567,19.97981 4.47606,20.5406c2.51629,4.94828 7.62721,19.79106 17.93373,27.73839c19.20738,14.81082 47.30262,23.34685 45.78514,23.73826c-2.42741,0.62612 -14.97048,1.63474 -21.01582,1.17344c-46.65515,-3.5601 -81.59061,-44.2676 -78.03051,-90.92275z" fill="#ef8b89" stroke-width="0"/><path d="M405.7685,127.83454c-0.88444,11.59064 -2.76332,15.47532 -3.17289,13.58696c-0.41784,-1.92647 0.56054,-9.79937 -7.90177,-15.2948c-2.05058,-1.33164 -10.65417,5.48131 -13.28043,4.0492c-1.64959,-0.89953 -7.85286,-10.80435 -9.70955,-11.62403c-1.29817,-0.57311 -13.05142,7.40602 -14.41263,6.85019c-3.39488,-1.38626 -11.0884,-12.25273 -14.77868,-13.19425c-2.03211,-0.51846 -10.15749,11.10914 -12.24108,10.69555c-2.68706,-0.53337 -9.12119,-12.79952 -11.85066,-13.00779c-7.25876,-0.55388 -7.99152,6.42135 -13.67114,12.01166c-3.69075,3.63271 -12.95481,-14.07836 -16.40702,-9.8937c-4.28725,5.19685 -8.52062,10.19897 -13.02323,13.46548c-3.53247,2.56271 -12.5572,-11.08441 -15.62402,-8.69304c-14.8075,11.54617 -23.7298,18.89299 -22.34718,0.77385c2.78017,-36.43423 43.7871,-4.89613 87.08622,-23.17643c41.4455,-17.49771 84.11424,-2.98308 81.33406,33.45114z" fill="#ef8b89" stroke-width="0"/></g><path d="M407.93024,119.66445c-1.78673,23.41527 5.84966,9.18701 -11.36809,-1.73022c-2.10696,-1.33595 -10.92223,5.46085 -13.62013,4.02328c-1.69459,-0.90298 -8.0801,-10.82168 -9.98707,-11.6452c-1.33332,-0.57578 -13.37843,7.38107 -14.77638,6.82244c-3.48656,-1.39326 -11.40326,-12.27676 -15.19205,-13.22579c-2.08636,-0.5226 -10.40129,11.09053 -12.54028,10.67272c-2.75849,-0.5388 -9.38566,-12.81969 -12.18699,-13.03345c-7.44995,-0.56848 -8.18797,6.40636 -14.00516,11.98617c-3.78016,3.62588 -13.3222,-14.10639 -16.85646,-9.92799c-4.38913,5.18908 -8.72337,10.18349 -13.33736,13.44152c-3.61986,2.55604 -12.90821,-11.1112 -16.05056,-8.7256c-15.1722,11.51836 -24.31349,18.84844 -22.93088,0.72931c2.78017,-36.43423 45.92957,-77.98846 91.72328,-74.49411c45.79371,3.49437 83.90836,48.67272 81.12818,85.10695z" fill="#724e36" stroke-width="2"/><path d="M407.77172,118.48618c-1.78673,23.41527 5.84966,9.18701 -11.36809,-1.73023c-2.10696,-1.33595 -10.92223,5.46086 -13.62013,4.02329c-1.69459,-0.90298 -8.0801,-10.82169 -9.98707,-11.6452c-1.33332,-0.57578 -13.37843,7.38106 -14.77638,6.82243c-3.48656,-1.39326 -11.40327,-12.27675 -15.19205,-13.22579c-2.08636,-0.5226 -10.40128,11.09053 -12.54027,10.67272c-2.75849,-0.5388 -9.38565,-12.8197 -12.18699,-13.03346c-7.44995,-0.56848 -8.18797,6.40636 -14.00516,11.98617c-3.78016,3.62588 -13.3222,-14.10639 -16.85646,-9.928c-4.38913,5.18908 -8.72338,10.1835 -13.33737,13.44152c-3.61986,2.55604 -12.90821,-11.1112 -16.05056,-8.72561c-15.1722,11.51836 -24.3135,18.84844 -22.93089,0.72931c2.78017,-36.43423 44.924,-4.80938 89.32054,-23.00592c42.49592,-17.41755 86.31108,-2.81544 83.53092,33.61878z" fill="#623728" stroke-width="0"/></g><g stroke="#000000" stroke-linecap="butt"><path d="M338.8169,146.15416c-2.17292,28.47616 -16.42382,42.16207 -32.94434,40.90144c-16.52051,-1.26063 -29.05465,-16.99043 -26.88174,-45.46658c2.17292,-28.47615 17.32695,-50.53869 33.84746,-49.27807c16.52051,1.26063 28.15154,25.36705 25.97862,53.8432z" fill="#f0f0f0" stroke-width="2"/><path d="M293.68664,123.0711c-6.43824,27.82377 29.40379,64.46566 12.88328,63.20503c-16.52051,-1.26063 -29.05465,-16.99042 -26.88174,-45.46657c2.17292,-28.47615 23.30625,-57.9634 13.99847,-17.73845z" fill="#9a99ff" stroke-width="0"/></g><path d="M334.30733,154.06723c-1.20384,15.77635 -6.85506,28.20885 -12.62236,27.76876c-5.7673,-0.44009 -9.4667,-13.5861 -8.26287,-29.36245c1.20384,-15.77635 6.85506,-28.20884 12.62236,-27.76876c5.7673,0.44008 9.4667,13.5861 8.26287,29.36245z" fill="#000000" stroke="none" stroke-width="0" stroke-linecap="butt"/><g stroke="#000000" stroke-linecap="butt"><path d="M336.10733,115.82541c3.6682,10.53945 9.04825,56.00247 -6.61649,54.80715c-15.66472,-1.19531 -46.73985,-49.37095 -41.47663,-58.61251c5.00788,-8.79319 8.39972,-20.84023 24.06444,-19.6449c15.66472,1.1953 20.53284,13.40601 24.02867,23.45025z" fill="#a100fe" stroke-width="2"/><path d="M335.21269,115.40187c3.51658,10.52787 9.82397,55.44994 -5.30664,54.29537c-15.13059,-1.15457 -46.25499,-48.72224 -41.1463,-57.97558c4.86085,-8.80442 6.46603,1.45822 21.59661,2.61279c15.13059,1.15457 21.50493,-8.96582 24.85629,1.06739z" fill="#99008e" stroke-width="0"/></g><g data-paper-data="{&quot;index&quot;:null}" stroke="#000000" stroke-linecap="butt"><path d="M376.49274,95.68529c16.52051,1.26063 28.15154,25.36705 25.97862,53.8432c-2.17292,28.47614 -16.94862,42.12202 -33.46913,40.8614c-16.52051,-1.26063 -28.52986,-16.95038 -26.35695,-45.42654c2.17292,-28.47615 17.32695,-50.53869 33.84746,-49.27807z" fill="#f0f0f0" stroke-width="2"/><path d="M401.90036,148.65223c-2.17292,28.47614 -16.94863,42.12203 -33.46914,40.86141c-16.52051,-1.26063 24.46621,-32.03999 22.3242,-60.51848c-3.09669,-41.17148 13.31785,-8.81909 11.14494,19.65708z" fill="#9a99ff" stroke-width="0"/></g><path d="M389.69421,129.38975c5.7673,0.44008 9.4667,13.5861 8.26287,29.36245c-1.20384,15.77635 -6.85505,28.20885 -12.62235,27.76876c-5.7673,-0.44009 -9.4667,-13.5861 -8.26287,-29.36245c1.20384,-15.77635 6.85505,-28.20884 12.62235,-27.76876z" data-paper-data="{&quot;index&quot;:null}" fill="#000000" stroke="none" stroke-width="0" stroke-linecap="butt"/><g data-paper-data="{&quot;index&quot;:null}" stroke="#000000" stroke-linecap="butt"><path d="M349.92528,115.39685c4.97937,-9.39753 11.64385,-20.72821 27.30856,-19.53288c15.66472,1.1953 17.18941,13.61753 20.80511,23.06876c3.80007,9.93314 -32.95231,53.75847 -48.61704,52.56315c-15.66472,-1.19531 -4.72151,-46.23814 0.50335,-56.09901z" fill="#a100fe" stroke-width="2"/><path d="M350.87382,115.11396c4.83488,-9.40856 9.59988,1.56183 24.73047,2.71641c15.13059,1.15457 18.27432,-8.74571 21.743,0.69431c3.64553,9.92134 -33.11454,53.56553 -48.24513,52.41096c-15.13059,-1.15457 -3.30161,-45.94923 1.77165,-55.82166z" fill="#99008e" stroke-width="0"/></g><path d="M402.7609,323.95944c1.80573,11.52216 -11.07516,23.1108 -28.77028,25.88395c-17.69512,2.77315 -33.50368,-4.31934 -35.30941,-15.8415c-0.36097,-2.30331 -2.16344,-13.58899 -1.2672,-15.12455c3.58715,-6.14597 18.4176,2.43929 32.57542,0.2205c17.69512,-2.77315 30.96574,-6.66057 32.77147,4.86159z" fill="#000082" stroke="#000000" stroke-width="2" stroke-linecap="butt"/><path d="M400.47433,321.55213c0.97672,6.23234 -12.14536,12.21788 -29.84049,14.99102c-17.69512,2.77315 -30.25981,1.74868 -31.23653,-4.48366c-0.19525,-1.24586 -1.97236,-12.36981 -0.97815,-13.28023c3.97927,-3.6439 16.2588,3.29501 30.41662,1.07622c17.69512,-2.77315 30.66182,-4.5357 31.63854,1.69664z" fill="#2e0048" stroke="#000000" stroke-width="0" stroke-linecap="butt"/><path d="M307.43175,342.54077c-4.60664,10.71447 -21.68023,13.66514 -38.13493,6.59052c-16.4547,-7.07462 -26.05946,-21.49554 -21.45282,-32.21c0.92088,-2.14185 5.40436,-12.65441 6.98061,-13.47698c6.30885,-3.29227 14.29083,11.87141 27.4562,17.5318c16.4547,7.07462 29.75758,10.85019 25.15094,21.56466z" fill="#000082" stroke="#000000" stroke-width="2" stroke-linecap="butt"/><path d="M306.77807,339.28557c-2.49173,5.79546 -16.78604,3.87494 -33.24075,-3.19969c-16.4547,-7.07462 -26.54465,-14.632 -24.05292,-20.42745c0.4981,-1.15853 4.91693,-11.52068 6.24325,-11.76193c5.3085,-0.96559 12.00787,11.44626 25.17323,17.10665c16.4547,7.07462 28.36892,12.48697 25.87719,18.28243z" fill="#2e0048" stroke="#000000" stroke-width="0" stroke-linecap="butt"/><g stroke="#000000" stroke-linecap="butt"><path d="M277.4924,235.45089c24.69762,22.39076 23.72471,31.9881 18.29006,37.98266c-5.43466,5.99457 -29.8617,-7.29719 -54.5593,-29.68797c-24.69761,-22.39077 47.06797,-30.46489 52.50264,-36.45946c6.8654,-1.7873 6.2946,4.71438 1.27644,10.76202c-6.18854,7.45818 -19.62088,15.48887 -17.50982,17.40274z" fill="#216aff" stroke-width="2"/><path d="M304.16588,243.31699c10.60085,9.61069 11.20302,26.21653 1.345,37.09017c-9.85801,10.87365 -26.4432,11.8975 -37.04406,2.28682c-10.60085,-9.61069 -11.203,-26.21653 -1.34499,-37.09019c9.85801,-10.87366 26.4432,-11.8975 37.04406,-2.28681z" fill="#faddbf" stroke-width="2"/><path d="M268.83013,264.91866c10.60085,9.61069 46.16886,3.74628 36.31084,14.61993c-9.85801,10.87365 -26.4432,11.8975 -37.04406,2.28681c-10.60085,-9.61069 -9.86764,-26.51743 0.73321,-16.90674z" fill="#ef8b89" stroke-width="0"/></g><path d="M279.45995,171.73881c0.81408,0.94857 -0.1345,1.76265 -0.1345,1.76265l-0.10771,0.00792c-1.46951,2.45058 -2.82424,5.15677 -5.67889,6.29287c-2.95953,1.17785 -6.71845,-0.11939 -7.14679,-3.50526c-0.57438,-4.54012 4.05629,-8.6457 6.36604,-11.99551c0,0 0.71016,-1.02867 1.73883,-0.31851c1.02867,0.71016 0.31852,1.73884 0.31852,1.73884c-1.95199,2.82417 -6.22999,6.51137 -5.9367,10.31756c0.13108,1.70103 2.43642,1.99277 3.76054,1.43031c2.25348,-0.95721 3.26714,-3.29642 4.4339,-5.24526l0.6241,-0.62013c0,0 0.94857,-0.81408 1.76264,0.13449z" fill="#000000" stroke="none" stroke-width="0.5" stroke-linecap="butt"/></g></g></svg>