<svg version="1.1" xmlns="http://www.w3.org/2000/svg" xmlns:xlink="http://www.w3.org/1999/xlink" width="176.31314" height="329.16621" viewBox="0,0,176.31314,329.16621"><g transform="translate(-228.27147,-31.82119)"><g data-paper-data="{&quot;isPaintingLayer&quot;:true}" fill-rule="nonzero" stroke-linejoin="miter" stroke-miterlimit="10" stroke-dasharray="" stroke-dashoffset="0" style="mix-blend-mode: normal"><g data-paper-data="{&quot;index&quot;:null}" stroke="#000000" stroke-linecap="butt"><path d="M282.86538,228.75235c20.063,26.6232 17.30845,35.86807 10.8465,40.73773c-6.46195,4.86967 -27.96467,-12.76507 -48.02767,-39.38828c-20.06299,-26.62321 51.94403,-21.10263 58.40598,-25.97229c7.07874,-0.46879 5.29938,5.81067 -0.76339,10.81055c-7.47682,6.16603 -22.17633,11.53665 -20.46143,13.8123z" fill="#216aff" stroke-width="2"/><path d="M307.59171,241.47867c8.61155,11.42735 6.09049,27.85174 -5.63095,36.68491c-11.72144,8.83317 -28.20459,6.73017 -36.81614,-4.69718c-8.61155,-11.42735 -6.09048,-27.85175 5.63096,-36.68492c11.72144,-8.83317 28.20458,-6.73016 36.81613,4.69719z" fill="#faddbf" stroke-width="2"/><path d="M268.83325,256.07417c8.61155,11.42735 44.6484,12.33367 32.92696,21.16684c-11.72144,8.83317 -28.20459,6.73017 -36.81613,-4.69719c-8.61155,-11.42735 -4.72238,-27.89702 3.88917,-16.46965z" fill="#ef8b89" stroke-width="0"/></g><g data-paper-data="{&quot;index&quot;:null}" stroke="#000000" stroke-linecap="butt"><path d="M275.84666,340.83534v-95.29492h29.49199v95.29492z" fill="#73fffc" stroke-width="2"/><path d="M276.82937,339.88893l18.60659,-13.13896c0,0 2.26208,-0.70825 2.52228,-2.78987c1.17702,-9.41615 6.3799,-77.52842 6.3799,-77.52842l1.32626,93.78573z" fill="#59a9e6" stroke-width="0"/></g><g data-paper-data="{&quot;index&quot;:null}" stroke="#000000" stroke-linecap="butt"><path d="M315.18804,338.41279v-95.29492h29.49199v95.29492z" fill="#73fffc" stroke-width="2"/><path d="M316.17075,337.46642l18.60659,-13.13896c0,0 2.26208,-0.70825 2.52228,-2.78987c1.17702,-9.41615 6.3799,-77.52842 6.3799,-77.52842l1.32626,93.78573z" fill="#59a9e6" stroke-width="0"/></g><g data-paper-data="{&quot;index&quot;:null}" stroke="#000000" stroke-linecap="butt"><path d="M311.86435,180.14032c18.77199,0 33.98969,24.87307 33.98969,55.55556c0,8.35076 6.37392,33.61764 4.35457,40.7234c-5.40019,19.00234 -24.68139,14.83216 -38.34426,14.83216c-10.32729,0 -32.7059,2.78608 -38.9397,-9.09579c-5.09742,-9.71589 4.95001,-32.65706 4.95001,-46.45977c0,-30.68249 15.2177,-55.55556 33.98969,-55.55556z" fill="#216aff" stroke-width="2"/><path d="M339.60359,205.10931c2.17098,1.37012 5.51953,20.51569 5.51953,29.96813c0,8.35075 6.37393,33.61764 4.35457,40.7234c-5.40019,19.00233 -24.68138,14.83215 -38.34425,14.83215c-10.32729,0 -32.7059,2.78607 -38.9397,-9.09579c-5.09743,-9.71588 56.94455,-16.46203 56.94455,-30.26474c0,-21.0232 4.52139,-62.9273 10.4653,-46.16315z" fill="#3236f4" stroke-width="0"/></g><g data-paper-data="{&quot;index&quot;:null}" stroke="#000000" stroke-linecap="butt"><g><path d="M316.15939,205.00007c-46.79079,0 -84.72222,-37.93143 -84.72222,-84.72222c0,-46.79079 37.93143,-84.72222 84.72222,-84.72222c46.79079,0 84.72222,37.93143 84.72222,84.72222c0,46.79079 -37.93143,84.72222 -84.72222,84.72222z" fill="#faddbf" stroke-width="2"/><path d="M400.65083,119.40835c0,46.79079 -37.93143,84.72222 -84.72222,84.72222c-6.06291,0 -18.49289,-1.96005 -20.86562,-2.76903c-1.48329,-0.50573 27.17997,-6.87938 47.45857,-20.18586c10.88131,-7.14014 17.10673,-21.55104 19.99223,-26.29351c1.61848,-0.43891 6.02298,-20.08018 6.02593,-20.14049c1.23891,-25.28993 -24.25635,-87.57384 -16.28763,-90.14485c0.61077,-0.19706 12.57802,6.61116 21.9255,14.95935c7.52051,6.71653 12.79199,15.25975 13.30693,15.62682c4.50904,3.21417 13.16632,29.17106 13.16632,44.22534z" fill="#ef8b89" stroke-width="0"/><path d="M231.9606,119.81967c0,-36.54015 43.64941,-47.76623 83.64345,-27.16584c41.78276,21.52174 85.0704,-6.80492 85.0704,29.73523c0,18.17183 -8.33746,10.16746 -22.22353,-2.47189c-2.87599,-2.61778 -12.91291,10.30314 -16.24015,7.47909c-4.24103,-3.59963 -8.08154,-8.90935 -11.96095,-14.41734c-3.12381,-4.4352 -13.70857,12.51967 -17.11223,8.61668c-5.23782,-6.00622 -5.43775,-13.01701 -12.7176,-13.01701c-2.73739,0 -10.08616,11.74106 -12.80601,12.06843c-2.10902,0.25385 -9.32614,-11.95827 -11.39182,-11.59592c-3.75121,0.65801 -12.2492,10.90762 -15.73972,12.03156c-1.39954,0.45065 -12.51164,-8.39959 -13.84965,-7.92692c-1.91368,0.67603 -8.85258,10.08015 -10.56583,10.85157c-2.72761,1.22814 -10.78789,-6.21968 -12.93385,-5.04791c-8.8559,4.83563 -8.47938,12.76015 -9.04258,14.64925c-0.55205,1.85172 -2.12992,-2.16465 -2.12992,-13.78899z" fill="#ef8b89" stroke-width="0"/></g><path d="M230.42671,111.50877c0,-36.54015 41.44159,-78.68758 87.36842,-78.68758c45.92684,0 85.78948,44.71682 85.78948,81.25697c0,18.17183 -8.55708,10.16746 -22.80892,-2.47189c-2.95174,-2.61778 -13.25304,10.30314 -16.66792,7.47909c-4.35273,-3.59963 -8.29441,-8.90935 -12.276,-14.41734c-3.2061,-4.4352 -14.06966,12.51967 -17.56298,8.61668c-5.37579,-6.00622 -5.58098,-13.01701 -13.05259,-13.01701c-2.80949,0 -10.35184,11.74106 -13.14333,12.06843c-2.16458,0.25385 -9.5718,-11.95827 -11.69189,-11.59592c-3.85002,0.65801 -12.57185,10.90762 -16.15431,12.03156c-1.4364,0.45065 -12.8412,-8.39959 -14.21446,-7.92692c-1.96409,0.67603 -9.08576,10.08015 -10.84414,10.85157c-2.79946,1.22814 -11.07205,-6.21968 -13.27454,-5.04791c-17.99849,9.57557 -11.46679,24.3436 -11.46679,0.86026z" fill="#724e36" stroke-width="2"/><path d="M230.67447,110.34598c0,-36.54015 44.79917,-47.76623 85.84668,-27.16584c42.88335,21.52174 87.31121,-6.80492 87.31121,29.73523c0,18.17183 -8.55708,10.16746 -22.80892,-2.47189c-2.95174,-2.61778 -13.25304,10.30314 -16.66792,7.47909c-4.35274,-3.59963 -8.29442,-8.90935 -12.27601,-14.41734c-3.2061,-4.4352 -14.06966,12.51967 -17.56298,8.61668c-5.37579,-6.00622 -5.58098,-13.01701 -13.05259,-13.01701c-2.80949,0 -10.35184,11.74106 -13.14333,12.06843c-2.16458,0.25385 -9.5718,-11.95827 -11.69189,-11.59592c-3.85002,0.65801 -12.57185,10.90762 -16.15431,12.03156c-1.4364,0.45065 -12.8412,-8.39959 -14.21446,-7.92692c-1.9641,0.67603 -9.08577,10.08015 -10.84415,10.85157c-2.79946,1.22814 -11.07205,-6.21968 -13.27454,-5.04791c-17.99849,9.57557 -11.46679,24.3436 -11.46679,0.86026z" fill="#623728" stroke-width="0"/></g><g data-paper-data="{&quot;index&quot;:null}" stroke="#000000" stroke-linecap="butt"><path d="M327.32427,91.46968c16.56854,0 30,23.15159 30,51.71053c0,28.55893 -13.69462,43.28947 -30.26316,43.28947c-16.56854,0 -29.73684,-14.73053 -29.73684,-43.28947c0,-28.55894 13.43146,-51.71053 30,-51.71053z" fill="#f0f0f0" stroke-width="2"/><path d="M356.68825,142.34995c0,28.55893 -13.69462,43.28947 -30.26316,43.28947c-16.56854,0 21.9575,-33.80863 17.65491,-62.0416c-6.22027,-40.81653 12.60825,-9.80681 12.60825,18.75213z" fill="#9a99ff" stroke-width="0"/></g><path d="M311.69167,122.76481c5.78406,0 10.47297,12.82644 10.47297,28.64865c0,15.82221 -4.68891,28.64865 -10.47297,28.64865c-5.78406,0 -10.47297,-12.82644 -10.47297,-28.64865c0,-15.82221 4.68891,-28.64865 10.47297,-28.64865z" data-paper-data="{&quot;index&quot;:null}" fill="#000000" stroke="none" stroke-width="0" stroke-linecap="butt"/><g data-paper-data="{&quot;index&quot;:null}" stroke="#000000" stroke-linecap="butt"><path d="M302.33358,113.14552c4.24992,-9.74914 10.03298,-21.55405 25.74324,-21.55405c15.71026,0 18.17568,12.27019 22.5,21.41892c4.54481,9.61522 -6.92488,14.25676 -22.63514,14.25676c-15.71026,0 -30.06757,-3.89181 -25.60811,-14.12162z" fill="#a100fe" stroke-width="2"/><path d="M303.25785,112.79128c4.10501,-9.74914 9.69088,0.8269 24.86546,0.8269c15.17458,0 17.55594,-10.11076 21.73281,-0.96203c4.38984,9.61522 -6.68876,14.25676 -21.86334,14.25676c-15.17458,0 -29.04234,-3.89181 -24.73494,-14.12162z" fill="#99008e" stroke-width="0"/></g><g data-paper-data="{&quot;index&quot;:null}" stroke="#000000" stroke-linecap="butt"><path d="M293.59759,141.70159c0,28.55894 -13.1683,43.28947 -29.73684,43.28947c-16.56854,0 -30.26316,-14.73054 -30.26316,-43.28947c0,-28.55894 13.43146,-51.71053 30,-51.71053c16.56854,0 30,23.15159 30,51.71053z" fill="#f0f0f0" stroke-width="2"/><path d="M246.84186,122.11918c-4.30259,28.23297 34.22345,62.0416 17.65491,62.0416c-16.56854,0 -30.26316,-14.73054 -30.26316,-43.28947c0,-28.55894 18.82852,-59.56866 12.60825,-18.75213z" fill="#9a99ff" stroke-width="0"/></g><path d="M258.34294,151.24202c0,15.82221 -4.68891,28.64865 -10.47297,28.64865c-5.78406,0 -10.47297,-12.82644 -10.47297,-28.64865c0,-15.82221 4.68891,-28.64865 10.47297,-28.64865c5.78406,0 10.47297,12.82644 10.47297,28.64865z" data-paper-data="{&quot;index&quot;:null}" fill="#000000" stroke="none" stroke-width="0" stroke-linecap="butt"/><g data-paper-data="{&quot;index&quot;:null}" stroke="#000000" stroke-linecap="butt"><path d="M288.58829,111.66688c4.45946,10.22981 -9.89785,14.12162 -25.60811,14.12162c-15.71026,0 -27.17995,-4.64154 -22.63514,-14.25676c4.32432,-9.14873 6.78974,-21.41892 22.5,-21.41892c15.71026,0 21.49332,11.80491 25.74324,21.55405z" fill="#a100fe" stroke-width="2"/><path d="M287.66402,111.31264c4.3074,10.22981 -9.56036,14.12162 -24.73494,14.12162c-15.17458,0 -26.25318,-4.64154 -21.86334,-14.25676c4.17687,-9.14873 6.55823,0.96203 21.73281,0.96203c15.17458,0 20.76045,-10.57604 24.86546,-0.8269z" fill="#99008e" stroke-width="0"/></g><path d="M241.46751,338.87002c0,-11.6628 13.71248,-9.87692 31.62358,-9.87692c14.33063,0 27.65301,-10.77791 32.14847,-5.26144c1.12318,1.37828 1.08979,12.80695 1.08979,15.13837c0,11.6628 -14.51982,21.11737 -32.43092,21.11737c-17.9111,0 -32.43092,-9.45457 -32.43092,-21.11737z" data-paper-data="{&quot;index&quot;:null}" fill="#000082" stroke="#000000" stroke-width="2" stroke-linecap="butt"/><path d="M274.34813,329.56301c14.33063,0 25.38775,-8.75646 29.88321,-5.7726c1.12318,0.74551 1.0898,12.01046 1.0898,13.27153c0,6.30841 -12.25456,9.26589 -30.16566,9.26589c-17.91111,0 -31.80169,-3.88169 -31.80169,-10.1901c0,-6.30841 13.08324,-6.57472 30.99434,-6.57472z" data-paper-data="{&quot;index&quot;:null}" fill="#2e0048" stroke="#000000" stroke-width="0" stroke-linecap="butt"/><path d="M284.45445,338.22519c0,-11.6628 13.71248,-9.87692 31.62358,-9.87692c14.33063,0 27.65301,-10.77791 32.14847,-5.26144c1.12318,1.37828 1.08979,12.80695 1.08979,15.13837c0,11.6628 -14.51982,21.11737 -32.43092,21.11737c-17.9111,0 -32.43092,-9.45457 -32.43092,-21.11737z" data-paper-data="{&quot;index&quot;:null}" fill="#000082" stroke="#000000" stroke-width="2" stroke-linecap="butt"/><path d="M317.33507,328.91817c14.33063,0 25.38775,-8.75646 29.88321,-5.7726c1.12318,0.74551 1.0898,12.01046 1.0898,13.27153c0,6.30841 -12.25456,9.26589 -30.16566,9.26589c-17.91111,0 -31.80169,-3.88169 -31.80169,-10.1901c0,-6.30841 13.08324,-6.57472 30.99434,-6.57472z" data-paper-data="{&quot;index&quot;:null}" fill="#2e0048" stroke="#000000" stroke-width="0" stroke-linecap="butt"/><g data-paper-data="{&quot;index&quot;:null}"><path d="M342.9823,259.49798c-11.51422,5.4241 -23.97509,5.33813 -31.51534,-2.88594c-1.39773,-1.52453 -2.94356,-3.17927 -3.93899,-5.29238c-6.36545,-13.5126 -0.60518,-27.00271 13.04348,-33.43227c13.6486,-6.42957 30.58846,-0.02137 35.06891,10.76755c5.72871,13.79462 0.99054,24.41346 -12.65804,30.84302z" fill="#485e84" stroke="#000000" stroke-width="2" stroke-linecap="butt"/><path d="M334.31388,217.0318c0,0 2.98733,0.17376 6.36821,1.26156c3.63267,1.16882 7.7585,3.34355 10.28493,6.01326c1.97958,2.0919 4.04644,6.13355 4.54928,10.37486c0.32385,2.73168 0.73118,5.28448 0.56241,7.40094c-0.17225,2.16038 -5.79872,14.37913 -5.79872,14.37913l-20.11189,5.86264c0,0 -8.24588,-1.23043 -11.46731,-2.62558c-2.82016,-1.2214 -5.67369,-3.74355 -7.45843,-6.05064c-1.67726,-2.16814 -2.37227,-4.1644 -2.37227,-4.1644c0,0 0.93181,0.62657 1.89018,0.17752c4.21823,-1.97644 16.44471,-8.88523 25.45874,-25.85641c0.93973,-1.76926 -1.90518,-6.77301 -1.90518,-6.77301z" fill="#343545" stroke="none" stroke-width="0" stroke-linecap="butt"/><path d="M319.49456,218.79591c0,0 11.931,5.07479 16.98611,9.20278c3.99332,3.26091 6.0639,12.04219 6.0639,12.04219" fill="none" stroke="#000000" stroke-width="1" stroke-linecap="round"/><path d="M326.36016,258.49985c0,0 -9.22007,-3.02373 -12.60164,-5.7424c-3.34962,-2.69292 -7.69212,-8.37381 -7.69212,-8.37381" fill="none" stroke="#000000" stroke-width="1" stroke-linecap="round"/><path d="M329.55048,215.86463c0,0 10.47216,4.98293 17.35609,10.10052c4.4862,3.33511 6.47697,12.38072 6.47697,12.38072" fill="none" stroke="#000000" stroke-width="1" stroke-linecap="round"/><path d="M314.64179,259.60596c0,0 -7.64463,-15.46125 6.46587,-28.31031c12.88191,-11.73031 29.78695,-8.02966 29.78695,-8.02966" fill="none" stroke="#000000" stroke-width="1" stroke-linecap="round"/><path d="M322.76801,262.8005c0,0 -5.221,-13.62571 4.13081,-22.10481c11.3895,-10.3266 29.16766,-9.43239 29.16766,-9.43239" fill="none" stroke="#000000" stroke-width="1" stroke-linecap="round"/><path d="M312.35264,230.90792c-0.65938,1.00614 -1.8397,1.39861 -2.63619,0.87652c-0.7965,-0.52204 -0.18299,-1.5003 0.47645,-2.50645c0.65943,-1.00615 1.11504,-1.65915 1.91153,-1.13706c0.79649,0.52202 0.90766,1.76083 0.24822,2.76698z" fill="#8fbbbe" stroke="none" stroke-width="0" stroke-linecap="butt"/><path d="M309.23242,237.47469c-0.54411,0.25632 -0.97801,0.05352 -1.3625,-0.76268c-0.38452,-0.81618 -0.09088,-1.76296 0.45325,-2.01931c0.54413,-0.25631 0.8138,0.02385 1.19829,0.84005c0.38449,0.81619 0.25507,1.68561 -0.28906,1.94196z" fill="#8fbbbe" stroke="none" stroke-width="0" stroke-linecap="butt"/><path d="M316.19879,225.15716c-0.77058,0.46927 -1.64895,0.4332 -1.96173,-0.0805c-0.31282,-0.51374 0.2903,-0.81791 1.0609,-1.28721c0.77059,-0.46925 1.41687,-0.9258 1.72965,-0.4121c0.31283,0.51372 -0.05822,1.31053 -0.82882,1.77983z" fill="#8fbbbe" stroke="none" stroke-width="0" stroke-linecap="butt"/><path d="M308.13593,249.62873c0,0 0.00873,-2.94396 0.71816,-6.60079c0.96357,-4.96687 2.87701,-11.2569 4.62917,-13.34602c1.98127,-2.36236 4.62915,-5.44863 8.423,-7.46438c6.6917,-3.5554 16.8615,-4.67558 16.8615,-4.67558" fill="none" stroke="#000000" stroke-width="0.5" stroke-linecap="round"/><path d="M329.39999,250.0453c0,0 -10.13665,-4.16083 -13.56702,-7.15619c-4.07156,-3.55521 -8.94154,-12.93931 -8.94154,-12.93931" fill="none" stroke="#000000" stroke-width="1" stroke-linecap="round"/><path d="M311.0726,224.76983c0,0 9.72847,3.7059 15.10921,9.54496c3.06454,3.32557 7.61235,11.85467 7.61235,11.85467" fill="none" stroke="#000000" stroke-width="1" stroke-linecap="round"/></g><g data-paper-data="{&quot;index&quot;:null}" stroke="#000000" stroke-linecap="butt"><path d="M355.10714,235.71658c2.08838,-1.93859 -11.43752,-9.81064 -17.71341,-17.19548c-5.08897,-5.98819 -5.73625,-12.4827 1.14971,-10.77631c5.50483,5.9302 77.36045,13.15922 52.92805,35.83909c-24.43241,22.67987 -48.70133,36.25817 -54.20616,30.32796c-5.50482,-5.9302 -6.5906,-15.51541 17.84181,-38.19527z" fill="#216aff" stroke-width="2"/><path d="M328.52806,243.89601c10.48701,-9.73477 27.0831,-8.90618 37.0684,1.85071c9.9853,10.75689 9.57859,27.36868 -0.90842,37.10345c-10.48701,9.73477 -27.0831,8.90617 -37.0684,-1.85072c-9.9853,-10.75689 -9.57858,-27.36867 0.90843,-37.10344z" fill="#faddbf" stroke-width="2"/><path d="M364.1156,265.08034c10.48701,-9.73478 11.41912,7.16216 0.93211,16.89693c-10.48701,9.73478 -27.0831,8.90618 -37.0684,-1.85071c-9.9853,-10.75689 25.64927,-5.31145 36.13628,-15.04622z" fill="#ef8b89" stroke-width="0"/></g><path d="M354.56255,173.20689c0.88388,-0.88388 1.76776,0 1.76776,0l0.5751,0.66581c1.01511,2.03198 1.84787,4.44152 4.02197,5.56741c1.27749,0.66156 3.59836,0.54607 3.85848,-1.14005c0.58204,-3.77285 -3.40302,-7.77486 -5.13448,-10.73935c0,0 -0.62983,-1.07972 0.44989,-1.70956c1.07973,-0.62984 1.70956,0.44988 1.70956,0.44988c2.04819,3.51583 6.35306,7.96185 5.43491,12.4451c-0.68472,3.34345 -4.53146,4.35094 -7.39279,2.95132c-2.75993,-1.35002 -3.90482,-4.15143 -5.18362,-6.70671l-0.10679,-0.01608c0,0 -0.88389,-0.88389 0,-1.76777z" data-paper-data="{&quot;index&quot;:null}" fill="#000000" stroke="none" stroke-width="0.5" stroke-linecap="butt"/></g></g></svg>