<svg version="1.1" xmlns="http://www.w3.org/2000/svg" xmlns:xlink="http://www.w3.org/1999/xlink" width="309.91015" height="60.66071" viewBox="0,0,309.91015,60.66071"><g transform="translate(-314.09767,-143.0827)"><g data-paper-data="{&quot;isPaintingLayer&quot;:true}" fill-rule="nonzero" stroke="#000000" stroke-linejoin="miter" stroke-miterlimit="10" stroke-dasharray="" stroke-dashoffset="0" style="mix-blend-mode: normal"><text transform="translate(316.27942,191.08926) scale(0.8727,0.8727)" font-size="40" xml:space="preserve" fill="#000000" fill-rule="nonzero" stroke="#000000" stroke-width="5" stroke-linecap="butt" stroke-linejoin="miter" stroke-miterlimit="10" stroke-dasharray="" stroke-dashoffset="0" font-family="&quot;Comic Sans MS&quot;, Sans Serif" font-weight="normal" text-anchor="start" style="mix-blend-mode: normal"><tspan x="0" dy="0">Beta Corntheft</tspan></text><text transform="translate(315.68642,190.89688) scale(0.8727,0.8727)" font-size="40" xml:space="preserve" fill="#ffffff" fill-rule="nonzero" stroke="#000000" stroke-width="0" stroke-linecap="butt" stroke-linejoin="miter" stroke-miterlimit="10" stroke-dasharray="" stroke-dashoffset="0" font-family="&quot;Comic Sans MS&quot;, Sans Serif" font-weight="normal" text-anchor="start" style="mix-blend-mode: normal"><tspan x="0" dy="0">Beta Corntheft</tspan></text><path d="M573.20004,171.17137c0,-13.68501 11.09389,-24.77889 24.77889,-24.77889c13.685,0 24.77889,11.09389 24.77889,24.77889c0,13.68501 -11.09388,24.77889 -24.77889,24.77889c-13.685,0 -24.77889,-11.09388 -24.77889,-24.77889z" data-paper-data="{&quot;index&quot;:null}" fill="#ff0000" stroke-width="2.5" stroke-linecap="butt"/><path d="M585.80841,163.67511c0,-0.62392 -5.5897,-0.66119 -5.27213,-2.11185c1.06588,-4.86898 10.04908,-15.51378 17.23238,-15.51378c9.3235,0 16.88169,2.2034 16.88169,4.92144c0,2.71804 -7.55819,4.92144 -16.88169,4.92144c-9.3235,0 -11.96025,10.50078 -11.96025,7.78274z" data-paper-data="{&quot;index&quot;:null}" fill="#ff0000" stroke-width="2.5" stroke-linecap="butt"/><path d="M572.07416,170.82837c0,-8.08934 3.26139,-14.52324 7.77948,-14.37727c1.67783,0.05421 1.06227,5.85058 4.06632,5.85058c4.85971,0 6.46905,-4.63137 7.12909,-3.75864c0.84665,1.11948 -0.09028,8.34069 -0.09028,14.57437c0,11.09339 8.40376,21.57423 -2.68963,21.57423c-11.09339,0 -16.19498,-12.76989 -16.19498,-23.86327z" data-paper-data="{&quot;index&quot;:null}" fill="#ff0000" stroke-width="2.5" stroke-linecap="butt"/><path d="M576.30889,154.97675c0,-5.87855 7.22512,-10.64405 16.13775,-10.64405c8.91264,0 29.07084,5.10886 29.07084,10.98741c0,3.40408 -6.75944,4.1452 -14.18056,5.9967c-5.39452,1.34588 -11.13867,4.304 -14.89029,4.304c-8.91263,0 -16.13775,-4.76551 -16.13775,-10.64405z" data-paper-data="{&quot;index&quot;:null}" fill="#ff0000" stroke-width="2.5" stroke-linecap="butt"/><path d="M587.63965,164.01846c0,-8.28053 7.62832,-5.60816 15.90885,-5.60816c8.28053,0 18.77015,-9.65396 18.77015,-1.37343c0,8.28053 -34.679,15.07623 -34.679,6.98158z" data-paper-data="{&quot;index&quot;:null}" fill="#ff0000" stroke-width="2.5" stroke-linecap="butt"/><path d="M599.97364,173.38118l20.58023,-2.92957" data-paper-data="{&quot;index&quot;:null}" fill="none" stroke-width="2.5" stroke-linecap="round"/><path d="M608.02996,172.79527l0.36619,12.08448" data-paper-data="{&quot;index&quot;:null}" fill="none" stroke-width="2.5" stroke-linecap="round"/><path d="M613.81585,183.92764l-0.73239,-12.23096" data-paper-data="{&quot;index&quot;:null}" fill="none" stroke-width="2.5" stroke-linecap="round"/><path d="M603.56236,188.46847l-5.49294,-0.73239" data-paper-data="{&quot;index&quot;:null}" fill="none" stroke-width="2.5" stroke-linecap="round"/></g></g></svg>