<svg version="1.1" xmlns="http://www.w3.org/2000/svg" xmlns:xlink="http://www.w3.org/1999/xlink" width="184.11281" height="286.19851" viewBox="0,0,184.11281,286.19851"><g transform="translate(-221.64942,-59.47307)"><g data-paper-data="{&quot;isPaintingLayer&quot;:true}" fill-rule="nonzero" stroke-linecap="butt" stroke-linejoin="miter" stroke-miterlimit="10" stroke-dasharray="" stroke-dashoffset="0" style="mix-blend-mode: normal"><g data-paper-data="{&quot;index&quot;:null}"><path d="M353.76481,287.86421v-116.86448h50.99742v116.86448z" fill="#fac843" stroke="#000000" stroke-width="2"/><g fill="none" stroke="none" stroke-width="1" font-family="sans-serif" font-weight="normal" font-size="12" text-anchor="start"/><path d="M354.55549,286.54063v-116.86448l13.0831,79.20814l37.91432,37.65634z" fill="#e47816" stroke="#000000" stroke-width="0"/></g><path d="M263.3888,246.48652v-113.80147h113.80147v113.80147z" data-paper-data="{&quot;index&quot;:null}" fill="#0000c0" stroke="#000000" stroke-width="2"/><g data-paper-data="{&quot;index&quot;:null}" stroke="#000000"><path d="M316.44533,344.67158v-98.76577h61.17899v98.76577z" fill="#00791c" stroke-width="2"/><path d="M317.23267,343.8438v-98.76577l18.42709,53.95635l42.75189,44.80942z" fill="#00393e" stroke-width="0"/></g><g data-paper-data="{&quot;index&quot;:null}" stroke="#000000"><path d="M263.83938,344.57142v-98.76577h61.17899v98.76577z" fill="#00791c" stroke-width="2"/><path d="M264.62676,343.74363v-98.76577l18.42709,53.95635l42.75189,44.80942z" fill="#00393e" stroke-width="0"/></g><g data-paper-data="{&quot;index&quot;:null}"><path d="M222.64942,281.93979v-116.86448h50.99742v116.86448z" fill="#fac843" stroke="#000000" stroke-width="2"/><g fill="none" stroke="none" stroke-width="1" font-family="sans-serif" font-weight="normal" font-size="12" text-anchor="start"/><path d="M223.4401,280.61622v-116.86448l13.0831,79.20814l37.91432,37.65633z" fill="#e47816" stroke="#000000" stroke-width="0"/></g><g data-paper-data="{&quot;index&quot;:null}" stroke="#000000"><path d="M244.00583,125.94382c0,-1.37646 0.88696,-27.38008 0.98912,-28.73546c2.58143,-34.24932 36.46023,-36.73529 78.90464,-36.73529c39.86984,0 74.31045,4.54212 80.31266,35.83276c0.64046,3.33883 -0.4189,26.15173 -0.4189,29.63798c0,12.46114 2.98952,39.84953 -4.38487,49.76492c-14.02387,18.8561 -46.59108,15.70582 -75.50889,15.70582c-30.57536,0 -59.08782,0.98125 -72.51838,-19.6932c-5.95144,-9.1614 -7.37538,-34.67471 -7.37538,-45.77754z" fill="#fac843" stroke-width="2"/><path d="M245.99493,97.21855c1.46665,-19.45883 4.03019,60.72294 51.81693,82.64789c37.44896,17.1819 103.38086,-8.07612 100.416,-4.08965c-14.02387,18.8561 -47.24381,15.81461 -76.16161,15.81461c-19.1252,0 -52.27236,1.45245 -68.67457,-16.9042c-9.81993,-10.99004 -8.71919,-43.40864 -8.71919,-47.56654c0,0 1.22028,-28.54672 1.32244,-29.9021z" fill="#e47816" stroke-width="0"/></g><path d="M365.14374,138.90647c0,15.71752 -2.90507,28.45909 -6.48867,28.45909c-3.5836,0 -6.48867,-12.74157 -6.48867,-28.45908c0,-15.71752 2.90508,-28.45908 6.48867,-28.45908c3.5836,0 6.48867,12.74157 6.48867,28.45909z" data-paper-data="{&quot;index&quot;:null}" fill="#000000" stroke="none" stroke-width="0"/><path d="M391.50875,139.93101c0,15.65465 -2.75218,28.34525 -6.14716,28.34525c-3.39499,0 -6.14716,-12.6906 -6.14716,-28.34525c0,-15.65465 2.75218,-28.34525 6.14716,-28.34525c3.39499,0 6.14716,12.6906 6.14716,28.34525z" data-paper-data="{&quot;index&quot;:null}" fill="#000000" stroke="none" stroke-width="0"/><path d="M337.96195,167.21427c-2.33585,7.57855 -6.56768,13.00149 -9.45206,12.11247c-2.88438,-0.88902 -3.32904,-7.75334 -0.99318,-15.3319c2.33585,-7.57855 6.56768,-13.00149 9.45206,-12.11247c2.88438,0.88902 3.32904,7.75334 0.99318,15.3319z" fill="none" stroke="#000000" stroke-width="2.5"/></g></g></svg>