<svg version="1.1" xmlns="http://www.w3.org/2000/svg" xmlns:xlink="http://www.w3.org/1999/xlink" width="390.62084" height="53.2347" viewBox="0,0,390.62084,53.2347"><g transform="translate(-314.09768,-150.50873)"><g data-paper-data="{&quot;isPaintingLayer&quot;:true}" fill-rule="nonzero" stroke-linejoin="miter" stroke-miterlimit="10" stroke-dasharray="" stroke-dashoffset="0" style="mix-blend-mode: normal"><text transform="translate(316.27943,191.08928) scale(0.8727,0.8727)" font-size="40" xml:space="preserve" fill="#000000" fill-rule="nonzero" stroke="#000000" stroke-width="5" stroke-linecap="butt" stroke-linejoin="miter" stroke-miterlimit="10" stroke-dasharray="" stroke-dashoffset="0" font-family="&quot;Comic Sans MS&quot;, Sans Serif" font-weight="normal" text-anchor="start" style="mix-blend-mode: normal"><tspan x="0" dy="0">A Teacher's Sorrow</tspan></text><text transform="translate(315.68644,190.8969) scale(0.8727,0.8727)" font-size="40" xml:space="preserve" fill="#ffffff" fill-rule="nonzero" stroke="#000000" stroke-width="0" stroke-linecap="butt" stroke-linejoin="miter" stroke-miterlimit="10" stroke-dasharray="" stroke-dashoffset="0" font-family="&quot;Comic Sans MS&quot;, Sans Serif" font-weight="normal" text-anchor="start" style="mix-blend-mode: normal"><tspan x="0" dy="0">A Teacher's Sorrow</tspan></text><path d="M655.90153,176.54135c-0.09371,-13.13526 10.47856,-23.85946 23.61382,-23.95318c13.13527,-0.09371 23.85946,10.47856 23.95318,23.61382c0.09371,13.13527 -10.47856,23.85946 -23.61382,23.95318c-13.13527,0.09371 -23.85946,-10.47856 -23.95318,-23.61382z" fill="#001aff" stroke="#000000" stroke-width="2.5" stroke-linecap="butt"/><path d="M702.46995,170.41739l-6.6604,6.46243l-5.39819,-7.34836l-10.06555,6.00075l-6.94562,-6.26817l-8.70765,5.60228l-6.37287,-7.73019" fill="none" stroke="#000000" stroke-width="2.5" stroke-linecap="round"/><path d="M663.40959,182.93097c-0.2264,0.24901 -2.42648,2.00298 -1.59562,2.52008c0.88863,0.55306 2.45739,-1.71261 3.10345,0.23357c0.53241,1.60381 -3.46405,2.69052 -4.60325,1.76258c-1.68593,-1.37326 -0.49554,-3.89753 0.42588,-5.22248c0.22807,-0.32795 1.49861,-1.65845 2.06094,-1.15408c0.37701,0.08141 0.7024,0.35436 0.83272,0.74691c0.11554,0.34806 0.05194,0.71249 -0.14067,0.99327c-0.02235,0.04281 -0.04974,0.08306 -0.08344,0.12013z" fill="#000000" stroke="none" stroke-width="2.5" stroke-linecap="butt"/><path d="M683.11373,182.74454c0,5.47242 -3.9954,9.90869 -8.92398,9.90869c-4.92858,0 -8.92398,-4.43627 -8.92398,-9.90869c0,-5.47242 4.61085,-6.09292 9.53943,-6.09292c4.92858,0 8.30853,0.6205 8.30853,6.09292z" fill="#000000" stroke="#000000" stroke-width="0" stroke-linecap="butt"/><path d="M700.97393,182.63972c0,5.47242 -3.9954,9.90869 -8.92398,9.90869c-4.92858,0 -8.92398,-4.43627 -8.92398,-9.90869c0,-5.47242 4.61085,-6.09292 9.53942,-6.09292c4.92858,0 8.30853,0.6205 8.30853,6.09292z" fill="#000000" stroke="#000000" stroke-width="0" stroke-linecap="butt"/><path d="M675.96624,181.56009v-5.00664h21.30277v5.00664z" fill="#000000" stroke="none" stroke-width="0" stroke-linecap="butt"/></g></g></svg>