<svg version="1.1" xmlns="http://www.w3.org/2000/svg" xmlns:xlink="http://www.w3.org/1999/xlink" width="216.20224" height="334.29775" viewBox="0,0,216.20224,334.29775"><g transform="translate(-221.89652,-26.32743)"><g data-paper-data="{&quot;isPaintingLayer&quot;:true}" fill-rule="nonzero" stroke-linejoin="miter" stroke-miterlimit="10" stroke-dasharray="" stroke-dashoffset="0" style="mix-blend-mode: normal"><g><path d="M406.12241,197.73484c-14.50629,4.14615 -25.06375,-0.72726 -29.83358,-14.88207c-3.73056,-11.07061 4.80121,-27.0466 19.30752,-31.19276c14.50635,-4.14619 27.72348,2.2155 31.82835,16.57722c0.64193,2.2459 0.56779,4.50914 0.51941,6.57688c-0.26116,11.15447 -9.58389,19.42294 -21.82168,22.92073z" fill="#216aff" stroke="#000000" stroke-width="2" stroke-linecap="butt"/><path d="M384.68905,160.06336c0,0 1.15289,5.63933 3.02506,6.35236c17.95804,6.83976 31.70942,3.99058 36.18571,2.70114c1.017,-0.29295 1.30587,-1.37803 1.30587,-1.37803c0,0 0.79112,1.96016 0.95607,4.69637c0.17551,2.91156 -0.31186,6.68863 -1.63048,9.46468c-1.50627,3.171 -6.90289,9.52591 -6.90289,9.52591l-18.99801,8.82806c0,0 -12.2794,-5.49284 -13.83137,-7.00555c-1.52042,-1.48195 -2.8945,-3.67162 -4.44916,-5.94097c-2.41382,-3.52349 -3.51896,-7.9264 -3.40615,-10.80426c0.14401,-3.6728 1.81778,-8.02601 3.78259,-11.29738c1.82863,-3.04462 3.96281,-5.14216 3.96281,-5.14216z" fill="#3236f4" stroke="none" stroke-width="0" stroke-linecap="butt"/><path d="M393.64212,182.80126c0,0 -4.22273,-7.97288 -3.36379,-13.05641c1.08729,-6.43523 6.72674,-18.10995 6.72674,-18.10995" fill="none" stroke="#000000" stroke-width="1" stroke-linecap="round"/><path d="M423.95843,162.05427c0,0 0.47147,7.13496 -0.27689,11.36718c-0.75545,4.27266 -5.70472,12.61874 -5.70472,12.61874" fill="none" stroke="#000000" stroke-width="1" stroke-linecap="round"/><path d="M384.36768,188.66137c0,0 -4.45683,-8.11928 -3.27575,-13.58318c1.81232,-8.38413 6.41419,-19.02926 6.41419,-19.02926" fill="none" stroke="#000000" stroke-width="1" stroke-linecap="round"/><path d="M376.31311,175.6721c0,0 10.28809,-13.91511 27.70712,-13.56662c19.08033,0.38171 23.50528,17.05236 23.50528,17.05236" fill="none" stroke="#000000" stroke-width="1" stroke-linecap="round"/><path d="M377.68532,185.09664c0,0 12.79295,-12.37751 28.16448,-12.10307c12.62144,0.22537 17.66222,13.91878 17.66222,13.91878" fill="none" stroke="#000000" stroke-width="1" stroke-linecap="round"/><path d="M410.35487,156.04967c-1.15877,-0.32317 -1.89068,-1.32883 -1.63484,-2.24613c0.2558,-0.91735 1.02864,-0.7258 2.18741,-0.40261c1.15877,0.32317 2.2646,0.65561 2.00877,1.57293c-0.2558,0.91735 -1.40261,1.39902 -2.56132,1.0758z" fill="#8fbbbe" stroke="none" stroke-width="0" stroke-linecap="butt"/><path d="M417.02681,158.93826c-0.57834,0.16527 -1.24815,-0.40393 -1.49609,-1.27142c-0.24795,-0.86748 -0.22941,-1.25591 0.34889,-1.42122c0.57834,-0.16527 1.42267,0.35406 1.67059,1.22154c0.24795,0.86748 0.05487,1.3058 -0.52343,1.47108z" fill="#8fbbbe" stroke="none" stroke-width="0" stroke-linecap="butt"/><path d="M403.67381,154.25322c-0.889,0.15409 -1.69289,-0.20139 -1.79563,-0.79402c-0.10278,-0.59258 0.68427,-0.67443 1.57322,-0.82854c0.889,-0.15409 1.54322,-0.3222 1.64598,0.27044c0.10278,0.59258 -0.53463,1.198 -1.42361,1.35211z" fill="#8fbbbe" stroke="none" stroke-width="0" stroke-linecap="butt"/><path d="M381.67253,163.37975c0,0 8.39231,-5.85222 15.76991,-7.58162c4.18274,-0.98047 8.20767,-0.40068 11.25427,0.07309c2.69426,0.41893 8.2756,3.89372 12.27088,6.99791c2.9415,2.28545 4.88627,4.49562 4.88627,4.49562" fill="none" stroke="#000000" stroke-width="0.5" stroke-linecap="round"/><path d="M413.83475,151.73303c0,0 2.51247,10.26963 1.78842,15.6262c-0.61001,4.51304 -5.50057,14.31849 -5.50057,14.31849" fill="none" stroke="#000000" stroke-width="1" stroke-linecap="round"/><path d="M404.2634,181.65331c0,0 -2.19208,-9.41397 -2.07482,-13.93471c0.20589,-7.93754 5.0887,-17.13183 5.0887,-17.13183" fill="none" stroke="#000000" stroke-width="1" stroke-linecap="round"/></g><path d="M392.06973,319.40454c0,0 2.25056,-54.16986 2.25056,-78.3946c0,-20.74482 -6.0015,-52.51313 -6.0015,-52.51313l24.3811,-6.37659l3.00075,137.28432z" fill="#000000" stroke="none" stroke-width="0" stroke-linecap="butt"/><path d="M428.45383,191.31001c0,5.4897 -11.25166,9.93998 -25.13128,9.93998c-13.87962,0 -25.13128,-4.45028 -25.13128,-9.93998c0,-5.4897 11.25166,-9.93998 25.13128,-9.93998c13.87962,0 25.13128,4.45028 25.13128,9.93998z" fill="#000000" stroke="none" stroke-width="none" stroke-linecap="butt"/><g data-paper-data="{&quot;index&quot;:null}" stroke="#000000" stroke-linecap="butt"><path d="M374.35276,223.43669c21.07441,-25.82998 30.70938,-25.35814 36.97879,-20.24298c6.26943,5.11515 -5.7324,30.20115 -26.80683,56.03113c-21.07443,25.82998 -32.87437,-45.41783 -39.14378,-50.53299c-2.14236,-6.76304 4.38023,-6.53152 10.68097,-1.83509c7.77031,5.79182 16.4895,18.78777 18.29087,16.57992z" fill="#216aff" stroke-width="2"/><path d="M380.81934,196.38979c9.04566,-11.08689 25.59762,-12.55288 36.96983,-3.27443c11.37221,9.27847 13.25825,25.78786 4.21258,36.87474c-9.04567,11.08689 -25.59763,12.55289 -36.96985,3.27443c-11.37221,-9.27847 -13.25824,-25.78784 -4.21256,-36.87473z" fill="#faddbf" stroke-width="2"/><path d="M404.23157,230.55285c9.04567,-11.08689 1.33721,-46.30131 12.70941,-37.02284c11.37221,9.27847 13.25823,25.78786 4.21256,36.87473c-9.04567,11.08689 -25.96766,11.23501 -16.92198,0.14812z" fill="#ef8b89" stroke-width="0"/></g><path d="M224.78117,360.17125v-93.89347h213.03043v93.89347z" fill="#000000" stroke="none" stroke-width="none" stroke-linecap="butt"/><g stroke="#000000" stroke-linecap="butt"><path d="M339.10697,342.43391l-14.75435,-94.1458l29.13636,-4.56619l14.75435,94.1458z" fill="#73fffc" stroke-width="2"/><path d="M338.68947,341.87386l-13.21042,-92.86015c0,0 15.68585,66.48538 18.30656,75.60575c0.57936,2.01623 2.92382,2.36571 2.92382,2.36571l20.4165,10.0997z" fill="#59a9e6" stroke-width="0"/></g><g fill="none" stroke="#808080" stroke-width="0.5" stroke-linecap="round"><path d="M227.23134,267.93957l17.0225,13.84882l193.59492,-1.15407"/><path d="M243.96532,281.78839l-2.01962,78.47663"/></g><g stroke="#000000" stroke-linecap="butt"><path d="M251.00383,325.49642l37.64011,-87.54624l27.09392,11.64891l-37.64011,87.54624z" fill="#73fffc" stroke-width="2"/><path d="M250.94863,324.80009l38.26242,-85.63591c0,0 -22.12354,64.62894 -24.76147,73.74435c-0.58317,2.01513 1.21523,3.55928 1.21523,3.55928l11.90394,19.41993z" fill="#59a9e6" stroke-width="0"/></g><g stroke="#000000" stroke-linecap="butt"><path d="M355.22917,224.78181c0,13.80271 10.04743,36.74388 4.95001,46.45977c-6.2338,11.88187 -28.61241,9.09579 -38.9397,9.09579c-13.66287,0 -32.94407,4.17018 -38.34426,-14.83216c-2.01935,-7.10576 4.35457,-32.37264 4.35457,-40.7234c0,-30.68249 15.2177,-55.55556 33.98969,-55.55556c18.77199,0 33.98969,24.87307 33.98969,55.55556z" fill="#216aff" stroke-width="2"/><path d="M303.96554,240.35839c0,13.80271 62.04198,20.54886 56.94455,30.26474c-6.2338,11.88186 -28.61241,9.09579 -38.9397,9.09579c-13.66287,0 -32.94406,4.17018 -38.34425,-14.83215c-2.01936,-7.10576 4.35457,-32.37265 4.35457,-40.7234c0,-9.45244 3.34855,-28.59801 5.51953,-29.96813c5.94391,-16.76415 10.4653,25.13995 10.4653,46.16315z" fill="#3236f4" stroke-width="0"/></g><g stroke="#000000" stroke-linecap="butt"><g><path d="M225.58651,114.60825c0.09901,-46.79068 38.11061,-84.64178 84.90129,-84.54277c46.79068,0.09901 84.64178,38.11061 84.54277,84.90129c-0.09901,46.79068 -38.11061,84.64178 -84.90129,84.54277c-46.79068,-0.09901 -84.64178,-38.11061 -84.54277,-84.90129z" fill="#faddbf" stroke-width="2"/><path d="M225.81912,113.73922c0.03185,-15.05425 8.74403,-40.99276 13.25988,-44.19739c0.51571,-0.36598 5.80526,-8.89803 13.33996,-15.59863c9.36513,-8.32839 21.34676,-15.11128 21.95711,-14.91292c7.96327,2.58786 -17.66372,64.81769 -16.47833,90.11019c0.00282,0.06032 4.36575,19.71086 5.9833,20.1532c2.87545,4.74857 9.07036,19.1726 19.93655,26.33574c20.25039,13.34936 48.90011,19.78364 47.41575,20.28624c-2.37444,0.80397 -14.80853,2.73771 -20.87143,2.72488c-46.79068,-0.09901 -84.64178,-38.11061 -84.54277,-84.90129z" fill="#ef8b89" stroke-width="0"/><path d="M394.5081,114.50747c-0.0246,11.62431 -1.61096,15.63734 -2.15909,13.78445c-0.55921,-1.89028 -0.16591,-9.81399 -9.01156,-14.66835c-2.14347,-1.1763 -10.2195,6.25444 -12.9445,5.02053c-1.71161,-0.77504 -8.6306,-10.19382 -10.54284,-10.87391c-1.33701,-0.47551 -12.4678,8.35121 -13.8664,7.8976c-3.48813,-1.13132 -11.96442,-11.39889 -15.71423,-12.06484c-2.0649,-0.36672 -9.30785,11.8301 -11.41633,11.57179c-2.71915,-0.33312 -10.04306,-12.08971 -12.78045,-12.09549c-7.27984,-0.01539 -7.4946,6.99494 -12.74511,12.99008c-3.41191,3.89578 -13.96077,-13.08146 -17.09396,-8.65287c-3.89106,5.49976 -7.74279,10.80135 -11.99142,14.39199c-3.33321,2.817 -13.34277,-10.12513 -16.22429,-7.51344c-13.91279,12.60993 -22.26717,20.59665 -22.22871,2.42487c0.07732,-36.54007 43.30493,-8.12188 85.13312,-29.55517c40.03754,-20.51572 83.6631,-9.19731 83.58578,27.34276z" fill="#ef8b89" stroke-width="0"/></g><path d="M396.05954,106.19984c-0.04968,23.48329 6.51324,8.72911 -11.46494,-0.88452c-2.20001,-1.17643 -10.48833,6.25387 -13.28518,5.01981c-1.75674,-0.77514 -8.8585,-10.1943 -10.82116,-10.87449c-1.37226,-0.47557 -12.79576,8.35051 -14.2312,7.89683c-3.58008,-1.13152 -12.2802,-11.39955 -16.12881,-12.06571c-2.11931,-0.36683 -9.55236,11.82958 -11.7164,11.57115c-2.79079,-0.33327 -10.30829,-12.09027 -13.11776,-12.09621c-7.47159,-0.01581 -7.69162,6.99452 -13.0801,12.98937c-3.50157,3.89559 -14.32923,-13.08222 -17.54471,-8.65383c-3.99324,5.49955 -7.94615,10.80091 -12.30647,14.39133c-3.42085,2.81682 -13.69479,-10.12586 -16.65206,-7.51434c-14.27855,12.60917 -22.85255,20.5954 -22.8141,2.42363c0.07732,-36.54007 40.03449,-81.17245 85.96122,-81.07527c45.92673,0.09718 87.27905,42.33219 87.20173,78.87226z" fill="#724e36" stroke-width="2"/><path d="M395.81428,105.03653c-0.04968,23.48329 6.51324,8.72911 -11.46494,-0.88452c-2.20001,-1.17643 -10.48833,6.25387 -13.28518,5.01981c-1.75674,-0.77514 -8.8585,-10.1943 -10.82117,-10.87449c-1.37226,-0.47557 -12.79576,8.35051 -14.2312,7.89683c-3.58008,-1.13152 -12.2802,-11.39955 -16.12881,-12.06571c-2.11931,-0.36683 -9.55236,11.82958 -11.7164,11.57115c-2.79079,-0.33327 -10.30829,-12.09027 -13.11776,-12.09621c-7.47159,-0.01581 -7.69162,6.99452 -13.0801,12.98937c-3.50157,3.89559 -14.32923,-13.08222 -17.54471,-8.65383c-3.99324,5.49955 -7.94615,10.80091 -12.30648,14.39133c-3.42085,2.81682 -13.69479,-10.12586 -16.65206,-7.51434c-14.27855,12.60917 -22.85255,20.5954 -22.8141,2.42363c0.07732,-36.54007 44.44513,-8.11947 87.37393,-29.55042c41.09101,-20.51349 85.86632,-9.19264 85.78902,27.34742z" fill="#623728" stroke-width="0"/></g><g stroke="#000000" stroke-linecap="butt"><path d="M329.09515,137.72967c-0.06043,28.55888 -13.25986,43.26151 -29.82837,43.22645c-16.56851,-0.03506 -30.23192,-14.79454 -30.1715,-43.35341c0.06043,-28.55888 13.54084,-51.68199 30.10935,-51.64694c16.56851,0.03506 29.95095,23.21502 29.89052,51.77389z" fill="#f0f0f0" stroke-width="2"/><path d="M282.38096,118.04839c-4.36232,28.2238 34.0921,62.11387 17.52361,62.07881c-16.56851,-0.03506 -30.23192,-14.79454 -30.1715,-43.35341c0.06043,-28.55888 18.95452,-59.52868 12.6479,-18.7254z" fill="#9a99ff" stroke-width="0"/></g><path d="M325.18331,145.95466c-0.03348,15.82217 -4.74951,28.63866 -10.53356,28.62642c-5.78405,-0.01224 -10.44581,-12.84857 -10.41233,-28.67075c0.03348,-15.82217 4.74951,-28.63866 10.53356,-28.62642c5.78405,0.01224 10.44581,12.84857 10.41233,28.67075z" fill="#000000" stroke="none" stroke-width="0" stroke-linecap="butt"/><g stroke="#000000" stroke-linecap="butt"><path d="M324.14942,107.68446c4.43781,10.23922 13.16626,55.17968 -2.54398,55.14644c-15.71022,-0.03323 -50.26402,-45.77807 -45.69888,-55.38366c4.34367,-9.13956 6.83505,-21.40451 22.54527,-21.37126c15.71022,0.03323 21.4683,11.85036 25.69758,21.60847z" fill="#a100fe" stroke-width="2"/><path d="M323.2259,107.32826c4.28575,10.23889 13.89899,54.57128 -1.27557,54.53917c-15.17454,-0.03211 -49.7325,-45.16701 -45.32233,-54.77292c4.19622,-9.13987 6.55618,0.9759 21.73072,1.00801c15.17454,0.03211 20.78277,-10.53209 24.86715,-0.77429z" fill="#99008e" stroke-width="0"/></g><g data-paper-data="{&quot;index&quot;:null}" stroke="#000000" stroke-linecap="butt"><path d="M362.9343,84.61199c16.56851,0.03506 29.95095,23.21502 29.89052,51.77389c-0.06043,28.55887 -13.78618,43.2604 -30.35469,43.22534c-16.56851,-0.03506 -29.7056,-14.79342 -29.64518,-43.3523c0.06043,-28.55888 13.54084,-51.68199 30.10935,-51.64694z" fill="#f0f0f0" stroke-width="2"/><path d="M392.19056,135.55427c-0.06043,28.55887 -13.78618,43.2604 -30.35469,43.22534c-16.56851,-0.03506 22.02899,-33.7621 17.78614,-62.00411c-6.13389,-40.8296 12.62897,-9.78011 12.56855,18.77877z" fill="#9a99ff" stroke-width="0"/></g><path d="M378.59291,117.24752c5.78405,0.01224 10.44581,12.84857 10.41233,28.67075c-0.03348,15.82217 -4.74951,28.63866 -10.53356,28.62642c-5.78405,-0.01224 -10.44581,-12.84857 -10.41233,-28.67075c0.03348,-15.82217 4.74951,-28.63866 10.53356,-28.62642z" data-paper-data="{&quot;index&quot;:null}" fill="#000000" stroke="none" stroke-width="0" stroke-linecap="butt"/><g data-paper-data="{&quot;index&quot;:null}" stroke="#000000" stroke-linecap="butt"><path d="M337.8978,106.23489c4.27054,-9.74013 10.07856,-21.53278 25.78878,-21.49952c15.71022,0.03323 18.14968,12.30862 22.45463,21.46648c4.52446,9.62481 -28.88522,56.04885 -44.59545,56.0156c-15.71022,-0.03323 -8.12907,-45.76218 -3.64798,-55.98254z" fill="#a100fe" stroke-width="2"/><path d="M338.82282,105.8826c4.12563,-9.74044 9.68911,0.8474 24.86365,0.87951c15.17454,0.03211 17.57729,-10.0736 21.73479,-0.91604c4.36948,9.62448 -29.06127,55.86842 -44.23581,55.83632c-15.17454,-0.03211 -6.69168,-45.57909 -2.36264,-55.79977z" fill="#99008e" stroke-width="0"/></g><path d="M401.90363,330.60324c1.80573,11.52216 -11.07516,23.1108 -28.77028,25.88395c-17.69512,2.77315 -33.50368,-4.31934 -35.30941,-15.8415c-0.36097,-2.30331 -2.16344,-13.58899 -1.2672,-15.12455c3.58715,-6.14597 18.4176,2.43929 32.57542,0.2205c17.69512,-2.77315 30.96574,-6.66057 32.77147,4.86159z" fill="#000082" stroke="#000000" stroke-width="2" stroke-linecap="butt"/><path d="M399.61706,328.19593c0.97672,6.23234 -12.14536,12.21788 -29.84049,14.99102c-17.69512,2.77315 -30.25981,1.74868 -31.23653,-4.48366c-0.19525,-1.24586 -1.97236,-12.36981 -0.97815,-13.28023c3.97927,-3.6439 16.2588,3.29501 30.41662,1.07622c17.69512,-2.77315 30.66182,-4.5357 31.63854,1.69664z" fill="#2e0048" stroke="#000000" stroke-width="0" stroke-linecap="butt"/><path d="M306.57448,349.18457c-4.60664,10.71447 -21.68023,13.66514 -38.13493,6.59052c-16.4547,-7.07462 -26.05946,-21.49554 -21.45282,-32.21c0.92088,-2.14185 5.40436,-12.65441 6.98061,-13.47698c6.30885,-3.29227 14.29083,11.87141 27.4562,17.5318c16.4547,7.07462 29.75758,10.85019 25.15094,21.56466z" fill="#000082" stroke="#000000" stroke-width="2" stroke-linecap="butt"/><path d="M305.9208,345.92937c-2.49173,5.79546 -16.78604,3.87494 -33.24075,-3.19969c-16.4547,-7.07462 -26.54465,-14.632 -24.05292,-20.42745c0.4981,-1.15853 4.91693,-11.52068 6.24325,-11.76193c5.3085,-0.96559 12.00787,11.44626 25.17323,17.10665c16.4547,7.07462 28.36892,12.48697 25.87719,18.28243z" fill="#2e0048" stroke="#000000" stroke-width="0" stroke-linecap="butt"/><g stroke="#000000" stroke-linecap="butt"><path d="M272.89007,231.47878c20.10682,26.59012 17.36747,35.83952 10.91356,40.71981c-6.45392,4.8803 -27.98565,-12.71901 -48.09245,-39.30915c-20.10681,-26.59013 51.90922,-21.18812 58.36315,-26.06841c7.07795,-0.48044 5.30894,5.80194 -0.74559,10.81178c-7.46664,6.17833 -22.1573,11.57315 -20.43865,13.84597z" fill="#216aff" stroke-width="2"/><path d="M297.63732,244.16436c8.63036,11.41316 6.13634,27.84169 -5.57054,36.69413c-11.70687,8.85245 -28.19346,6.7766 -36.82383,-4.63655c-8.63036,-11.41316 -6.13632,-27.84168 5.57055,-36.69414c11.70687,-8.85246 28.19346,-6.7766 36.82383,4.63656z" fill="#faddbf" stroke-width="2"/><path d="M258.90295,258.8237c8.63036,11.41316 44.66864,12.26015 32.96176,21.1126c-11.70687,8.85245 -28.19346,6.7766 -36.82383,-4.63656c-8.63036,-11.41316 -4.7683,-27.8892 3.86206,-16.47604z" fill="#ef8b89" stroke-width="0"/></g><path d="M271.79348,167.63517c0.88202,0.88575 -0.00374,1.76777 -0.00374,1.76777l-0.10683,0.01586c-1.2842,2.55257 -2.43502,5.35156 -5.1978,6.69573c-2.86428,1.39356 -6.70888,0.37794 -7.38652,-2.96696c-0.90866,-4.48519 3.40561,-8.92208 5.46123,-12.43357c0,0 0.63211,-1.07838 1.7105,-0.44627c1.07838,0.63212 0.44628,1.71051 0.44628,1.71051c-1.73773,2.96082 -5.73124,6.95439 -5.15719,10.72846c0.25655,1.68667 2.57717,1.80707 3.85605,1.14821c2.17649,-1.12129 3.01433,-3.52907 4.03373,-5.55889l0.57651,-0.6646c0,0 0.88575,-0.88201 1.76776,0.00374z" fill="#000000" stroke="none" stroke-width="0.5" stroke-linecap="butt"/></g></g></svg>