<svg version="1.1" xmlns="http://www.w3.org/2000/svg" xmlns:xlink="http://www.w3.org/1999/xlink" width="336.07274" height="336.07274" viewBox="0,0,336.07274,336.07274"><g transform="translate(-151.96363,-11.96363)"><g data-paper-data="{&quot;isPaintingLayer&quot;:true}" fill-rule="nonzero" stroke-linejoin="miter" stroke-miterlimit="10" stroke-dasharray="" stroke-dashoffset="0" style="mix-blend-mode: normal"><path d="M357.88218,269.00846c0,0 -12.51383,-3.56851 -20.52331,-5.85254c-5.67494,-1.61829 -14.54129,-4.14668 -14.54129,-4.14668c0,0 -4.83603,-0.92389 -4.48011,-2.40596c1.05024,-4.3734 0.36735,-8.96614 2.95599,-12.70416c1.07493,-1.55222 5.47436,-1.33921 5.47436,-1.33921l33.88884,2.70681c0,0 3.50306,0.23573 5.5108,0.43923c2.14661,0.21759 5.06922,1.8835 4.70392,3.92479c-1.34125,7.49496 -0.73759,12.40106 -2.81643,16.86445c-0.75737,1.62609 -1.67239,3.3041 -3.49413,3.64596c-2.37967,0.44656 -6.67869,-1.13268 -6.67869,-1.13268z" data-paper-data="{&quot;index&quot;:null}" fill="#4b4b4b" stroke="#000000" stroke-width="3" stroke-linecap="round"/><g data-paper-data="{&quot;index&quot;:null}" stroke="#000000" stroke-linecap="round"><path d="M346.1977,177.25557c0,0 16.93264,-1.8889 17.05834,4.57206c0.34122,17.53637 -29.29724,12.34398 -29.29724,12.34398z" data-paper-data="{&quot;origPos&quot;:null}" fill="#66c8ff" stroke-width="2"/><path d="M345.44244,178.74182c0,0 12.30302,-0.78975 13.03713,1.09441c0.23153,0.59427 -16.36789,2.77202 -16.36789,2.77202z" data-paper-data="{&quot;origPos&quot;:null}" fill="#0a0a0a" stroke-width="1"/></g><g data-paper-data="{&quot;index&quot;:null}"><path d="M347.69135,227.35339c0,0 1.21023,15.35072 -1.08953,15.66909c-6.89927,0.95513 -25.10858,0.47871 -40.62874,0.78165c-1.74349,0.03404 -1.81631,-14.55854 -1.81631,-14.55854l1.19155,-29.90621c0,0 1.08411,-13.22527 2.68232,-13.25646c10.33835,-0.2018 25.78595,-1.41127 32.58787,0.05953c2.26732,0.49025 4.61159,14.50329 4.61159,14.50329z" data-paper-data="{&quot;origPos&quot;:null}" fill="#66c8ff" stroke="#000000" stroke-width="3.5" stroke-linecap="round"/><path d="M325.71009,209.02606c-1.35024,0.02635 -1.40464,-2.39956 -1.40464,-2.39956l-0.03627,-1.61727c-0.11285,-5.03151 -0.22567,-10.06303 -0.33852,-15.09455c0,0 -0.05441,-2.42592 1.29583,-2.45227c1.35024,-0.02635 1.40464,2.39956 1.40464,2.39956c0.11285,5.03153 0.26195,11.6803 0.3748,16.71182c0,0 0.05441,2.42592 -1.29583,2.45227z" fill="#ffffff" stroke="none" stroke-width="0.5" stroke-linecap="butt"/><path d="M313.4182,208.85952c-1.35023,0.02636 -1.41858,-3.02127 -1.41858,-3.02127l-0.04555,-2.03176c-0.14175,-6.32103 -0.28352,-12.64202 -0.42527,-18.96303c0,0 -0.06835,-3.04763 1.28189,-3.07398c1.35023,-0.02636 1.41858,3.02127 1.41858,3.02127c0.14176,6.321 0.32909,14.67374 0.47084,20.99475c0,0 0.06835,3.04763 -1.28189,3.07398z" fill="#ffffff" stroke="none" stroke-width="0.5" stroke-linecap="butt"/></g><path d="M302.47215,183.19316c0,0 -1.73913,-4.15722 -1.79771,-5.21473c-0.17575,-3.1725 0.02479,-17.01172 0.25064,-29.51899c0.03492,-1.93456 1.78012,-4.93051 1.78012,-4.93051c0,0 2.331,-1.55156 3.65014,-1.53756c14.55405,0.15453 28.42177,-0.7648 33.79071,0.82936c1.78966,0.53138 5.05008,2.27758 5.05008,2.27758c0,0 0.6656,4.29858 0.78595,5.40403c0.04012,0.36847 0.06377,0.5759 0.08029,0.94596c0.49499,11.08808 -0.20284,23.89912 -0.67224,28.36972c-0.15647,1.49021 -2.09738,3.79133 -2.09738,3.79133c0,0 -1.49832,2.63709 -6.11216,3.35383c-5.04835,0.78424 -17.28917,0.22841 -29.91015,-0.38105z" data-paper-data="{&quot;index&quot;:null}" fill="#582700" stroke="#000000" stroke-width="2.5" stroke-linecap="round"/><path d="M322.62945,179.42938c-1.052,-2.65912 -0.50122,-5.39684 1.23015,-6.11491c1.73139,-0.71807 3.98776,0.85544 5.03975,3.51454c1.05199,2.65911 0.50122,5.39685 -1.23015,6.11492c-1.73138,0.71806 -3.98776,-0.85546 -5.03975,-3.51456z" data-paper-data="{&quot;index&quot;:null}" fill="#ff8484" stroke="#000000" stroke-width="1.25" stroke-linecap="butt"/><path d="M309.85108,171.92651c-0.53354,-0.00838 -0.91687,-2.73896 -0.85621,-6.09888c0.06068,-3.3599 0.5424,-6.07688 1.07594,-6.06848c0.53354,0.00838 0.91687,2.73895 0.85621,6.09887c-0.06068,3.35991 -0.5424,6.07689 -1.07594,6.06849z" data-paper-data="{&quot;index&quot;:null}" fill="none" stroke="#000000" stroke-width="2.5" stroke-linecap="butt"/><path d="M314.98522,167.27984c-0.19115,-0.14357 0.7975,-1.58508 2.20819,-3.21973c1.41069,-1.63463 2.70924,-2.84337 2.90038,-2.6998c0.19115,0.14356 -0.7975,1.58509 -2.20819,3.21974c-1.41069,1.63464 -2.70924,2.84336 -2.90038,2.69979z" data-paper-data="{&quot;index&quot;:null}" fill="none" stroke="#000000" stroke-width="2.5" stroke-linecap="butt"/><path d="M349.63794,146.0579c-0.74002,1.00502 -1.81729,0.31463 -1.81729,0.31463l-0.73775,-0.52135c-0.09298,-0.03124 -0.18592,-0.06199 -0.27883,-0.09227c-0.2364,0.3002 -0.6925,0.64737 -1.45699,0.39856c-0.70462,-0.22933 -0.86655,-0.70304 -0.87581,-1.0673c-2.73692,-0.68306 -5.48223,-1.03281 -8.36591,-1.31656c-8.07944,-0.53542 -16.18673,-0.48494 -24.28493,-0.59002c-2.65584,-0.03445 -8.61521,0.88524 -10.80875,-0.78887c-1.06979,-0.81646 -0.61855,-2.69377 -0.70824,-3.72231c-0.25989,-2.98045 -0.59994,-6.06718 -0.56735,-9.05941c0.07061,-3.91073 -1.44467,-7.42371 -1.91498,-11.26647c-0.23578,-1.9265 -0.90466,-3.86886 0.96506,-5.50648c0.52791,-0.46238 1.43792,-0.17664 2.16151,-0.20213c2.64453,-0.09315 5.1993,0.10938 7.80855,0.43422c8.26871,1.02944 16.45062,1.64538 24.6556,3.14741c3.30979,0.60966 6.65386,0.72112 10.02313,0.87216c1.9802,0.08878 3.79567,-0.41471 4.94801,1.71352c0.68816,1.27093 0.10529,5.16943 0.02666,6.61416c-0.3032,5.57093 0.53274,12.42646 -0.80858,18.01661c0.12191,0.03934 0.24384,0.07941 0.36584,0.12023l1.33381,0.80626c0,0 1.07727,0.6904 0.33725,1.69542z" data-paper-data="{&quot;index&quot;:null}" fill="#000000" stroke="none" stroke-width="0.5" stroke-linecap="butt"/><g data-paper-data="{&quot;index&quot;:null}" fill="none" stroke="#b9b9b9" stroke-width="3"><path d="M310.41469,190.94838c-1.17971,1.89433 -2.25956,0.8278 -3.56462,-0.33512c-1.02189,-0.91057 -2.60009,-1.83156 -1.16139,-3.87617c0.67856,-0.9643 1.96976,-0.62662 3.27481,0.53628c1.30505,1.16292 2.28656,2.33367 1.45121,3.67502z" stroke-linecap="butt"/><path d="M312.13539,192.79658l-2.7625,-2.40422" stroke-linecap="round"/><path d="M315.85647,193.33794c1.30504,1.16293 2.28654,2.33368 1.45119,3.67503c-1.17971,1.89433 -2.25956,0.82779 -3.56461,-0.33512c-1.02189,-0.91057 -2.60009,-1.83156 -1.16139,-3.87617c0.67856,-0.9643 1.96976,-0.62662 3.27481,0.53628z" stroke-linecap="butt"/><path d="M319.02839,198.86117l-2.7625,-2.40424" stroke-linecap="round"/><path d="M324.89567,198.30538c0.642,2.24043 -0.73752,2.5723 -2.31621,3.05077c-1.23614,0.37465 -2.80435,1.25119 -3.40073,-1.31808c-0.28128,-1.21176 0.70965,-2.18408 2.28834,-2.66256c1.57869,-0.47848 2.97403,-0.65657 3.42862,0.92985z" stroke-linecap="butt"/><path d="M323.89698,198.91585l3.3014,-1.04808" stroke-linecap="round"/><path d="M332.32619,193.89107c1.35897,1.78776 0.21562,2.71474 -1.05873,3.86701c-0.99786,0.90225 -2.12518,2.41865 -3.55611,0.30569c-0.67486,-0.99653 -0.10698,-2.3425 1.16736,-3.49476c1.27433,-1.15226 2.48519,-1.94387 3.44747,-0.67796z" stroke-linecap="butt"/><path d="M334.2748,192.45157l-2.64857,2.45362" stroke-linecap="round"/><path d="M338.9908,187.78538c1.35897,1.78776 0.21562,2.71475 -1.05872,3.86701c-0.99786,0.90225 -2.12519,2.41864 -3.55611,0.30569c-0.67486,-0.99653 -0.10699,-2.3425 1.16736,-3.49476c1.27433,-1.15226 2.48519,-1.94385 3.44747,-0.67796z" stroke-linecap="butt"/><path d="M338.29085,188.79949l2.64858,-2.45362" stroke-linecap="round"/></g><g data-paper-data="{&quot;origRot&quot;:0,&quot;index&quot;:null}" stroke="#000000" stroke-linecap="round"><path d="M324.98261,257.06987c0,0 2.07624,3.91917 1.8304,6.2105c-0.18817,1.75409 -1.8738,2.77414 -3.51955,3.64034c-4.51736,2.37758 -9.75693,2.25962 -17.54652,4.21955c-2.12153,0.53382 -4.15865,-2.0759 -4.59224,-4.08556c-0.40555,-1.87965 -0.98706,-5.17021 -0.98706,-5.17021l-6.07594,-31.79377c0,0 -0.64259,-4.14024 0.89499,-5.2999c3.70275,-2.79268 8.61885,-2.57081 13.13878,-3.96753c1.53175,-0.47331 2.96668,4.01411 2.96668,4.01411z" data-paper-data="{&quot;origPos&quot;:null}" fill="#ff0000" stroke-width="3"/><path d="M300.38736,262.92535l23.56837,-5.84473c0,0 1.83325,2.0569 2.25013,3.65719c0.39573,1.5191 -0.16796,4.33587 -0.16796,4.33587c0,0 -8.14932,3.34551 -12.05504,4.44878c-5.09065,1.43798 -11.82764,0.66649 -11.82764,0.66649z" data-paper-data="{&quot;origPos&quot;:null}" fill="#976e57" stroke-width="2"/><path d="M324.99839,257.39244c0,0 2.07623,3.91917 1.83039,6.2105c-0.18818,1.75408 -1.87379,2.77414 -3.51954,3.64034c-4.51736,2.37758 -9.75694,2.25961 -17.54653,4.21954c-2.12153,0.53381 -4.15865,-2.0759 -4.59224,-4.08556c-0.40554,-1.87964 -0.98704,-5.17022 -0.98704,-5.17022l-6.07594,-31.79377c0,0 -0.64259,-4.14023 0.89499,-5.29989c3.70275,-2.79271 8.61886,-2.57084 13.13878,-3.96756c1.53175,-0.47332 2.96668,4.01411 2.96668,4.01411z" data-paper-data="{&quot;origPos&quot;:null}" fill="#4b4b4b" stroke-width="3"/></g><g data-paper-data="{&quot;index&quot;:null}"><g><g fill="#582700"><path d="M262.35043,202.70035c4.32673,-7.20944 9.6735,-18.24556 13.44075,-18.78444c2.31675,-0.33142 15.91071,-4.8691 17.14943,-3.68245c0.35776,0.34271 14.54659,5.08605 14.86057,7.18085c0.39142,2.61134 -4.72038,9.03369 -4.72038,9.03369c0,0 -4.38028,-1.85499 -8.99354,-3.80804c-5.19491,-2.19932 -10.68528,-4.52303 -10.54896,-4.46234c9.60061,4.27336 -23.52135,18.41091 -21.18787,14.52273z" stroke="#000000" stroke-width="3" stroke-linecap="round"/><path d="M281.29054,190.28715c-0.00077,-0.15521 -0.14007,-0.38982 -0.33256,-0.66697c-0.37807,-0.3077 -0.65048,-0.70776 -0.79234,-1.1468c-0.37501,-0.62993 -0.5569,-1.24989 0.06916,-1.59479c0.52683,-1.25094 2.04295,-1.85905 3.38634,-1.35828c0.21058,0.07849 0.40441,0.17957 0.57954,0.29905c2.41831,0.25956 3.06709,6.0823 1.87118,7.48048c-3.28834,3.84449 -9.53961,6.56311 -14.33489,8.71366c-1.13579,0.50936 -3.84736,1.98149 -5.10014,1.91019c-2.82896,-0.16101 -2.09599,0.79888 -0.42404,-1.22136c2.63985,-3.18973 7.57433,-6.39285 10.7609,-8.80255c0.44684,-0.33792 4.31976,-3.02531 4.31686,-3.61266z" stroke="none" stroke-width="0.5" stroke-linecap="butt"/></g><path d="M317.45702,206.6867c-5.11762,11.79083 -12.85544,26.01974 -18.06117,24.71897c-5.20573,-1.30078 -15.10336,-8.71138 -15.10336,-8.71138c0,0 -13.00625,-9.6918 -18.21444,-13.338c-1.64988,-1.15508 -3.32553,-7.44671 -2.85894,-7.29298c9.45853,3.11624 23.78547,-14.6654 23.78547,-14.6654c0,0 12.84197,6.04042 22.00284,11.09258c9.16089,5.05216 10.25757,4.03066 8.44958,8.19617z" data-paper-data="{&quot;origPos&quot;:null}" fill="#582700" stroke="#000000" stroke-width="3" stroke-linecap="round"/><path d="M290.18946,226.3607c-2.15646,-1.20381 13.55605,-28.95439 16.37451,-28.77831" fill="none" stroke="#000000" stroke-width="3" stroke-linecap="round"/><path d="M287.28356,224.50458c-2.95201,-1.0751 11.30928,-29.16355 16.17715,-28.15942" fill="none" stroke="#000000" stroke-width="3" stroke-linecap="round"/><path d="M292.0437,180.06994c-0.98651,0.27387 -1.80394,0.88517 -2.81307,1.20944c-3.46956,1.11491 -7.42332,2.69117 -11.1022,2.68448c-2.21982,0.32736 -3.23551,1.81001 -4.41615,3.43974c-2.11685,2.92202 -4.63689,5.77932 -6.03674,9.07967c-1.5376,2.00646 -2.37231,4.55454 -3.58233,6.75204c-0.21045,0.38216 -1.26635,1.77598 -1.16416,2.16676c0.60811,2.32562 3.82246,4.03133 5.39051,5.65295c4.97263,3.30059 9.82267,6.76699 15.06593,9.72938c0.70065,0.43035 1.15992,0.84453 1.8616,1.20605c0.12658,0.06523 0.56123,0.47479 0.85186,0.76113c-0.31415,-0.75114 0.58894,-2.5132 0.7785,-2.96329c1.1206,-2.66078 2.39676,-5.22893 3.50867,-7.8868c3.29997,-5.41493 6.76931,-11.20772 11.37951,-15.74719c0.05961,-0.02425 0.11925,-0.04851 0.17885,-0.07274c-1.43253,-0.24588 -3.05761,-1.09772 -4.28295,-1.51826c-3.68575,-1.26492 -7.71175,-2.75227 -10.91819,-4.884c-0.06691,-0.03225 -0.13327,-0.06496 -0.19918,-0.09836c-0.28504,-0.10453 -0.56987,-0.20957 -0.85451,-0.31504l-0.00023,0.00053l-1.20169,-0.44794c-0.33186,-0.1237 -0.49536,-0.47448 -0.36521,-0.78347c0.13015,-0.309 0.50463,-0.45922 0.83648,-0.33551l1.20169,0.44794l-0.00021,0.00049c0.37134,0.13919 0.74244,0.27898 1.11331,0.41929c0.09038,0.06068 0.18148,0.12083 0.27326,0.18045c0.7466,0.31356 1.47205,0.73162 2.32487,1.13328c2.55095,1.20148 5.48996,2.30104 8.21184,3.0583c1.48472,0.41308 4.17502,0.54381 5.06296,1.94452c0.91962,-2.02456 2.23089,-3.90474 3.35574,-5.83533c0.1526,-0.2619 1.20138,-1.73151 1.04426,-2.00844c-0.67146,-1.18345 -4.7277,-2.43586 -6.05939,-2.93227c-3.21859,-1.19979 -6.23254,-2.82626 -9.44363,-4.03783zM293.38725,179.29145c2.88968,1.16377 5.64642,2.60698 8.57137,3.69732c1.58219,0.58979 6.0722,1.9978 6.77109,3.57675c0.38488,0.86956 -0.45346,1.78267 -0.83364,2.45482c-1.1744,2.07625 -2.23295,5.03163 -4.13875,6.66073l0.21808,0.17139c0.2159,0.16186 0.30471,0.44122 0.19871,0.69291c-0.09407,0.22334 -0.31581,0.36373 -0.55682,0.37769l-0.67541,0.05241c-0.14414,0.05627 -0.2883,0.11255 -0.43246,0.1688c-4.43274,4.39636 -7.77148,10.05456 -10.95802,15.28337c-1.21946,2.87724 -2.55832,5.6666 -3.78643,8.55457c-0.24134,0.56749 -0.29403,2.79157 -0.66271,3.05041c-0.91953,0.64556 -3.72874,-1.82934 -4.39695,-2.22833c-5.29675,-2.9915 -10.25656,-6.47711 -15.24465,-9.85521c-1.72893,-1.81915 -5.35786,-3.7657 -5.81883,-6.46604c-0.11822,-0.69257 0.72787,-1.65514 1.05315,-2.21097c1.38951,-2.3743 2.15789,-5.16795 3.84547,-7.37012c1.29536,-3.09871 3.63419,-5.96015 5.70002,-8.65552c1.61813,-2.11123 2.8164,-4.03158 5.77615,-4.48403c3.60177,-0.00438 7.37965,-1.55015 10.78267,-2.62184c0.75256,-0.23699 1.38314,-0.58828 2.04219,-0.88222c-0.00235,-0.07804 0.01324,-0.16577 0.05453,-0.26382c0.23564,-0.5595 0.83649,-0.33552 0.83649,-0.33552l0.41941,0.15635c0.17116,-0.03511 0.34867,-0.06168 0.53424,-0.07774c0,0 0.6428,-0.04989 0.70074,0.5507c0.0001,0.00105 0.00022,0.00213 0.00031,0.00319z" fill="#000000" stroke="none" stroke-width="0.5" stroke-linecap="butt"/><path d="M292.0594,180.03263c3.21108,1.21156 6.24068,2.84801 9.45927,4.04781c1.3317,0.49642 5.39398,1.7565 6.06546,2.93995c0.15713,0.27693 -0.89056,1.74843 -1.04318,2.01036c-1.12485,1.93058 -2.43298,3.8186 -3.3526,5.84315c-0.88795,-1.4007 -3.65835,-1.50384 -5.14307,-1.91691c-2.72188,-0.75727 -5.644,-1.83994 -8.19497,-3.0414c-0.85284,-0.40168 -1.56973,-0.8161 -2.31636,-1.1297c-0.09176,-0.05963 -0.18179,-0.11947 -0.27217,-0.18014c-0.37086,-0.1403 -0.73792,-0.27916 -1.10928,-0.41836l0.00021,-0.00049l-1.19741,-0.44737c-0.33183,-0.1237 -0.70351,0.02668 -0.83366,0.33567c-0.13012,0.30901 0.03656,0.57949 0.36841,0.7032l1.20642,0.44846l0.00022,-0.00052c0.28464,0.1055 0.57292,0.2112 0.85796,0.31573c0.0659,0.03338 0.1331,0.06631 0.2,0.09855c3.20643,2.13172 7.26121,3.6435 10.94696,4.90841c1.22535,0.42053 2.85243,1.27876 4.28496,1.52465c-0.0596,0.02425 -0.11921,0.04859 -0.17881,0.07282c-4.61021,4.53946 -8.10274,10.37626 -11.40269,15.79118c-1.11192,2.65787 -2.40117,5.22967 -3.52177,7.89045c-0.18956,0.45008 -1.0947,2.21236 -0.78055,2.96349c-0.29064,-0.28635 -0.72668,-0.69584 -0.85326,-0.76105c-0.70168,-0.36153 -1.1643,-0.77567 -1.86495,-1.20602c-5.24326,-2.96238 -10.12592,-6.44399 -15.09853,-9.74458c-1.56806,-1.62163 -4.78998,-3.34066 -5.39809,-5.66629c-0.10217,-0.39078 0.95272,-1.78823 1.16317,-2.1704c1.21004,-2.19751 2.04454,-4.76141 3.58215,-6.76786c1.39984,-3.30035 3.93548,-6.18152 6.05233,-9.10354c1.18063,-1.62973 2.2089,-3.11875 4.42873,-3.4461c3.6789,0.00668 7.65814,-1.57021 11.1277,-2.6851c1.00915,-0.32428 1.83088,-0.93419 2.81739,-1.20807z" data-paper-data="{&quot;noHover&quot;:false,&quot;origItem&quot;:[&quot;Path&quot;,{&quot;applyMatrix&quot;:true,&quot;segments&quot;:[[[230.82308,152.52668],[0,0],[-0.93988,0.74338]],[[228.33766,155.1429],[0.94139,-0.81156],[-3.23664,2.79023]],[[217.57953,163.04819],[3.97209,-1.58115],[-2.24615,1.33801]],[[214.37799,168.94085],[0.53327,-2.39813],[-0.95612,4.29976]],[[211.99064,182.06795],[0.01066,-4.42845],[-0.7472,2.98879]],[[211.1937,191.43817],[0.307,-3.06867],[-0.05339,0.53367]],[[210.92223,194.45142],[-0.2878,-0.40863],[1.71279,2.43186]],[[219.30646,198.67289],[-2.42854,-1.20161],[6.86452,1.67648]],[[239.98146,203.43859],[-7.00284,-1.16771],[0.95146,0.19601]],[[242.53788,204.03192],[-0.9213,-0.11581],[0.16621,0.02089]],[[243.80278,204.54585],[-0.44366,-0.20624],[-0.68022,-0.7346]],[[243.29624,200.77631],[0,0.60336],[0,-3.56681]],[[243.49813,190.12314],[0.00805,3.55968],[1.09986,-7.69905]],[[248.62011,166.96343],[-2.91121,7.25063],[0.05329,-0.05383]],[[248.78,166.80192],[-0.05329,0.05384],[-1.65725,0.33382]],[[243.46938,166.89261],[1.51307,-0.04199],[-4.5512,0.1263]],[[229.47086,165.94945],[4.42793,1.08501],[-0.08683,-0.00846]],[[229.21129,165.92152],[0.08627,0.01022],[-0.35502,0.00201]],[[228.14624,165.92558],[0.35502,-0.00073],[0,0]],[228.14624,165.92629],[[226.64624,165.92629],[0,0],[-0.41422,0]],[[225.89624,165.17629],[0,0.41422],[0,-0.41422]],[[226.64624,164.42629],[-0.41422,0],[0,0]],[228.14624,164.42629],[[228.14624,164.42695],[0,0],[0.46388,0.00087]],[[229.53787,164.4319],[-0.46387,-0.00238],[0.12507,0.03126]],[[229.91467,164.52296],[-0.12612,-0.02945],[0.948,0.04085]],[[232.93787,164.8319],[-1.10259,-0.09705],[3.29808,0.29029]],[[243.18703,164.82862],[-3.28065,0.2982],[1.78951,-0.16266]],[[249.53285,164.89489],[-1.59443,-1.23936],[0.07225,-2.74287]],[[250.50186,156.68464],[-0.33637,2.72263],[0.04564,-0.36937]],[[250.71591,153.90661],[0.29535,0.25299],[-1.26215,-1.08115]],[[242.84624,153.12628],[1.66228,0],[-4.0176,0]],[[230.82306,152.52665],[4.01487,0.01687],[0,0]]],&quot;closed&quot;:true,&quot;fillColor&quot;:[0,0,0,1]}]}" fill="#66c8ff" stroke="none" stroke-width="0.5" stroke-linecap="butt"/><path d="M295.002,211.47794c-1.76863,4.18753 -3.76758,8.2918 -5.51994,12.47809l-0.35907,0.85256c-0.1735,0.412 -0.67283,0.61228 -1.11528,0.44735c-0.36038,-0.13434 -0.57187,-0.46953 -0.54416,-0.81189l0.05958,-1.0686l0.27387,0.01511c-0.0479,-1.70112 0.6846,-2.95948 1.35299,-4.92986c1.46379,-4.31516 4.10444,-8.65027 6.50314,-12.5802c0.40021,-0.55317 0.82717,-1.08482 1.27023,-1.6038c1.38932,-2.14776 2.96393,-4.21015 4.64107,-6.10551c0.12476,-0.19153 0.24684,-0.3847 0.36575,-0.57982l0.05464,-0.02957l-0.02067,-0.01486l0.53153,-0.64662c0.12919,-0.16487 0.32037,-0.27454 0.53024,-0.3117c0.01613,-0.01671 0.03224,-0.0334 0.04838,-0.05009c0,0 0.57546,-0.59365 1.21525,-0.05209c0.63981,0.54156 0.06434,1.1352 0.06434,1.1352c-0.20289,0.20871 -0.40481,0.42034 -0.60554,0.63472l-0.29458,0.69947l-0.01157,-0.00431c0.09136,0.19071 0.10394,0.41373 0.01603,0.62248c-0.03732,0.0886 -0.08969,0.16738 -0.15333,0.23488l-0.73441,0.81683l-0.05289,-0.04156c-0.07331,0.08818 -0.14718,0.17592 -0.22151,0.26326c-0.0276,0.04942 -0.05548,0.09869 -0.0837,0.14779c-1.54131,2.8785 -3.96139,5.72671 -5.93495,8.23147l0.0481,0.02642l-0.33632,0.53825c-0.07482,0.15849 -0.14652,0.31891 -0.21473,0.48139l-0.31417,0.74598c0,0 -0.1363,0.32366 -0.45832,0.45925z" fill="#ffffff" stroke="none" stroke-width="0.5" stroke-linecap="butt"/><g fill="#fffc96" stroke="#000000" stroke-width="2" stroke-linecap="round"><path d="M288.15172,190.74177c0,0 -2.42832,4.69025 -3.85597,12.21879c-1.44772,7.63434 -1.26602,13.9607 -1.26602,13.9607l1.8209,0.86605c0,0 -1.43584,2.94806 -3.51014,2.23664c-5.07687,-1.74118 1.93858,-34.35877 6.91631,-32.95921c3.11117,0.87475 1.87953,5.1554 1.87953,5.1554z"/><path d="M296.8438,196.1905c0,0 -5.8726,2.03154 -13.19226,6.78519c-7.31967,4.75362 -11.44916,8.73667 -11.44916,8.73667l1.31644,0.67276c0,0 -2.47545,2.76934 -5.14744,1.38118c-4.41196,-2.29209 27.55483,-23.79608 31.42182,-20.48937c1.8422,1.57526 -1.80143,3.68242 -1.80143,3.68242z" data-paper-data="{&quot;index&quot;:null}"/></g></g><g data-paper-data="{&quot;index&quot;:null}"><g data-paper-data="{&quot;index&quot;:null}"><path d="M311.14829,198.45975c2.34984,1.15668 8.14136,-0.42773 7.00631,1.60256c-0.75617,1.35259 -16.06427,17.75151 -18.16073,18.10772c-1.05042,0.17849 -2.45425,-0.06278 -3.23863,-0.44887c-1.15288,-0.56751 -1.78907,-1.60301 -1.9585,-2.83198c-0.17584,-1.27595 9.99073,-20.35996 10.56886,-21.39412c1.13504,-2.03027 3.43287,3.80799 5.78271,4.96468z" fill="#0091d4" stroke="#000000" stroke-width="1.5" stroke-linecap="butt"/><g stroke-linecap="butt"><path d="M314.88154,191.73311c4.25734,2.09564 6.52336,5.91455 5.06129,8.52977c-1.46207,2.61523 -6.09859,3.03645 -10.35595,0.94081c-4.25732,-2.09567 -6.52333,-5.91458 -5.06126,-8.5298c1.46206,-2.61523 6.09855,-3.03645 10.35591,-0.9408z" fill="#0091d4" stroke="#000000" stroke-width="1.5"/><path d="M315.37223,199.52062l4.27274,0.26545c0,0 -1.61552,1.32813 -2.46989,1.60175c-1.80017,0.54878 -3.59269,0.10849 -3.59269,0.10849z" fill="#00aeff" stroke="none" stroke-width="0"/><path d="M311.56568,198.58969l1.70256,0.48802c0,0 -0.40538,0.9708 -0.60815,1.28241c-0.23742,0.36486 -0.87471,0.90344 -0.87471,0.90344l-1.8871,-0.86922z" fill="#00aeff" stroke="none" stroke-width="0"/></g><g><path d="M311.53405,197.47687c-5.87308,-2.89096 -7.33137,-7.70985 -4.27668,-13.17381c3.05468,-5.46393 10.59302,-7.40159 16.46617,-4.51062c5.8731,2.89095 7.86903,8.80765 4.81434,14.27161c-3.05468,5.46391 -11.13065,6.30379 -17.0038,3.41282z" fill="#00699a" stroke="#000000" stroke-width="1.5" stroke-linecap="butt"/><path d="M325.28865,181.53577c0,0 6.40472,5.98291 3.7321,10.76345c-1.51555,2.71093 -4.50499,4.82237 -7.4249,6.00761c-2.08029,0.84443 -4.5924,0.93863 -6.66841,-0.08325c-4.26722,-2.10051 -4.79639,-4.61533 -2.12377,-9.39587c1.33469,-2.38732 4.47635,-4.57995 7.40074,-5.64065c2.93151,-1.06327 5.08425,-1.65123 5.08425,-1.65123z" fill="#0091d4" stroke="none" stroke-width="0" stroke-linecap="butt"/><path d="M328.17685,193.96269c0,0 -4.99491,2.32178 -11.91403,-0.79683c-6.97579,-3.14415 -8.22757,-8.01055 -8.22757,-8.01055" fill="none" stroke="#000000" stroke-width="0.8" stroke-linecap="round"/><path d="M324.52505,197.70085c0,0 -5.15246,0.13314 -9.79467,-1.38127c-6.69005,-2.18247 -8.06063,-5.26275 -8.06063,-5.26275" fill="none" stroke="#000000" stroke-width="0.75" stroke-linecap="round"/><path d="M329.6099,189.27077c0,0 -4.86583,1.66931 -11.97728,-1.08931c-6.83994,-2.65329 -7.76088,-5.51279 -7.76088,-5.51279" fill="none" stroke="#000000" stroke-width="0.8" stroke-linecap="round"/><path d="M310.62779,181.44932c0,0 5.23121,-0.14941 8.97543,0.66563c4.93173,1.07349 9.39574,3.32606 9.39574,3.32606" fill="none" stroke="#000000" stroke-width="0.8" stroke-linecap="round"/><path d="M309.67914,195.65201c0,0 -0.67901,-4.20197 2.28985,-10.08269c2.77046,-5.48771 6.96287,-6.4677 6.96287,-6.4677" fill="none" stroke="#000000" stroke-width="0.8" stroke-linecap="round"/><path d="M321.24167,179.89259c0,0 -1.72012,2.63307 -3.10046,5.74852c-1.21387,2.73977 -2.05236,5.89229 -2.78431,7.40544c-0.8694,1.79722 -2.71247,4.61868 -2.71247,4.61868" fill="none" stroke="#000000" stroke-width="0.8" stroke-linecap="round"/><path d="M324.19771,180.72493c0,0 0.67363,5.73221 -1.30955,9.53843c-3.11266,5.97399 -7.5,8.61404 -7.5,8.61404" fill="none" stroke="#000000" stroke-width="0.8" stroke-linecap="round"/><path d="M327.33796,182.8243c0,0 0.6967,4.1628 -0.71764,8.20171c-2.03673,5.81616 -5.11688,7.95532 -5.11688,7.95532" fill="none" stroke="#000000" stroke-width="0.8" stroke-linecap="round"/><path d="M327.38607,192.05111c-0.41877,-0.20614 -0.55453,-0.7377 -0.30321,-1.18722c0.25132,-0.44954 0.79454,-0.64683 1.2133,-0.4407c0.41879,0.20615 0.55454,0.73768 0.30322,1.1872c-0.25133,0.44953 -0.79454,0.64684 -1.2133,0.44071z" fill="#00aeff" stroke="none" stroke-width="0" stroke-linecap="butt"/><path d="M328.23919,188.59606c-0.2416,-0.11894 -0.33557,-0.39756 -0.20991,-0.62231c0.12565,-0.22474 0.42338,-0.31055 0.66496,-0.19163c0.2416,0.11893 0.33559,0.39755 0.20993,0.6223c-0.12564,0.22477 -0.42338,0.31056 -0.66496,0.19164z" fill="#00aeff" stroke="none" stroke-width="0" stroke-linecap="butt"/></g></g><path d="M313.05951,202.01352c1.01819,-0.0523 2.84889,1.31464 2.84889,1.31464l4.65486,3.08376c0,0 0.5915,1.23705 0.30602,1.94462c-0.85639,2.12273 -3.11164,5.87137 -5.22995,9.90658c-0.35213,0.67073 -1.4567,0.30319 -1.4567,0.30319c0,0 -1.61308,-0.83232 -2.64553,-1.36508c-1.57234,-0.81131 -4.02892,-2.07888 -4.02892,-2.07888c0,0 -1.33124,-0.50221 -0.65827,-1.71712c0,0 0.29053,-1.99633 6.20957,-11.39176z" fill="#582700" stroke="#000000" stroke-width="3" stroke-linecap="round"/><path d="M300.25341,196.96306c1.87099,-0.20722 5.09305,2.38863 5.09305,2.38863l8.23076,5.80402c0,0 0.96377,2.45482 0.37189,3.92082c-1.77566,4.39802 -6.27269,12.23835 -10.54671,20.6473c-0.71042,1.39772 -2.69892,0.76049 -2.69892,0.76049c0,0 -2.87523,-1.53121 -4.71552,-2.51126c-2.80256,-1.49253 -7.18126,-3.8244 -7.18126,-3.8244c0,0 -2.39084,-0.88837 -1.03955,-3.42359c0,0 0.7264,-4.08504 12.48623,-23.76203z" fill="#582700" stroke="#000000" stroke-width="3" stroke-linecap="round"/></g></g><path d="M317.65325,169.15413c1.41069,1.63464 2.39934,3.07618 2.2082,3.21974c-0.19114,0.14358 -1.48969,-1.06516 -2.90038,-2.6998c-1.41069,-1.63464 -2.39933,-3.07615 -2.20819,-3.21973c0.19114,-0.14358 1.48969,1.06515 2.90038,2.69979z" data-paper-data="{&quot;index&quot;:null}" fill="none" stroke="#000000" stroke-width="2.5" stroke-linecap="butt"/><g data-paper-data="{&quot;index&quot;:null}"><g stroke="#000000" stroke-width="3" stroke-linecap="round"><path d="M376.36242,203.7517c0,0 8.93255,6.1991 11.46024,9.99218c-9.00082,14.37024 -18.65275,18.17817 -18.65275,18.17817c-1.40564,1.50993 -6.19758,-3.93136 -6.19758,-3.93136c0,0 -9.73094,-10.32876 -15.95923,-16.93967c-4.08975,-4.341 -10.47949,-11.12326 -10.47949,-11.12326c0,0 -3.8479,-4.47328 -3.02103,-5.23366c4.97458,-4.57461 8.84419,-9.90715 12.13603,-11.34147c1.09729,-0.47812 5.86895,2.79602 5.86895,2.79602l24.84485,17.60308z" data-paper-data="{&quot;origPos&quot;:null}" fill="#582700"/><path d="M380.53979,207.73162l-18.55448,18.37669l-2.54602,-2.27736l18.39174,-18.57586z" data-paper-data="{&quot;origPos&quot;:null}" fill="none"/></g><path d="M358.93921,223.67884l-24.61486,-27.31436l0.41544,-1.36417l11.33369,-11.40989l30.88538,21.88007z" fill="#66c8ff" stroke="#000000" stroke-width="1" stroke-linecap="round"/><path d="M361.62491,225.837l-1.75374,-1.5514l18.41388,-18.28151l1.75376,1.55139z" fill="#ffffff" stroke="none" stroke-width="0" stroke-linecap="butt"/></g><path d="M151.96363,348.03637v-336.07274h336.07274v336.07274z" data-paper-data="{&quot;index&quot;:null}" fill="none" stroke="#000000" stroke-width="0" stroke-linecap="butt"/></g></g></svg>