<svg version="1.1" xmlns="http://www.w3.org/2000/svg" xmlns:xlink="http://www.w3.org/1999/xlink" width="264.91968" height="345.62148" viewBox="0,0,264.91968,345.62148"><g transform="translate(-139.52038,-4.77431)"><g data-paper-data="{&quot;isPaintingLayer&quot;:true}" fill-rule="nonzero" stroke-linejoin="miter" stroke-miterlimit="10" stroke-dasharray="" stroke-dashoffset="0" style="mix-blend-mode: normal"><g stroke="#2a2b40" stroke-linecap="butt"><path d="M335.4823,253.12886l-23.54456,-114.45276l46.0637,-9.47597l23.54456,114.45276z" fill="#000000" stroke-width="2"/><path d="M333.23535,244.21933l-5.26319,-25.58497l46.50241,-9.56621l5.26319,25.58497z" fill="#ffffff" stroke-width="2.5"/></g><path d="M337.88048,336.97571l-37.09913,-87.33764l37.69703,-16.01287l37.09913,87.33764z" fill="#000000" stroke="#2a2b40" stroke-width="2" stroke-linecap="butt"/><path d="M273.9077,349.39579v-94.89051h40.95702v94.89051z" fill="#000000" stroke="#2a2b40" stroke-width="2" stroke-linecap="butt"/><g stroke-linecap="butt"><path d="M267.95891,268.60892l-15.09868,-106.78959l81.53292,-11.52771l15.09868,106.78959z" fill="#000000" stroke="#2a2b40" stroke-width="2"/><path d="M316.76802,181.99618c3.09953,21.92226 -2.89196,40.89614 -13.38237,42.37934c-10.49041,1.48321 -21.50722,-15.08591 -24.60674,-37.00817c-3.09953,-21.92226 3.15488,-30.25262 13.64528,-31.73583c10.49041,-1.48321 21.2443,4.44241 24.34383,26.36465z" fill="#ffffff" stroke="#2a2b40" stroke-width="2.5"/><path d="M302.52321,180.61387c1.92057,13.58373 0.69728,24.98861 -2.73227,25.4735c-3.42955,0.48489 -7.76669,-10.13381 -9.68725,-23.71754c-1.92057,-13.58373 -0.69728,-24.98861 2.73227,-25.4735c3.42955,-0.48489 7.76669,10.13381 9.68725,23.71754z" fill="#000000" stroke="none" stroke-width="0"/></g><g><g><path d="M304.53813,227.90541c-9.14672,-11.99836 -8.45512,-23.60575 2.98868,-33.20521c8.95028,-7.50784 26.93671,-5.38369 36.08345,6.61467c9.14678,11.9984 8.03829,26.62491 -3.84048,35.68052c-1.85761,1.41613 -3.99227,2.17174 -5.93549,2.88008c-10.48284,3.8211 -21.57977,-1.848 -29.29613,-11.97005z" fill="#485e84" stroke="#000000" stroke-width="2" stroke-linecap="butt"/><path d="M331.81034,194.21928c0,0 -4.83156,3.12842 -4.81344,5.13167c0.17372,19.21572 7.83757,30.98362 10.66937,34.68236c0.64338,0.84034 1.75912,0.71399 1.75912,0.71399c0,0 -1.53715,1.45095 -4.02516,2.60153c-2.64746,1.22433 -6.34246,2.14669 -9.40812,1.93021c-3.50183,-0.24732 -11.38624,-2.95746 -11.38624,-2.95746l-15.1434,-14.47536c0,0 0.64105,-13.43667 1.48429,-15.43313c0.82608,-1.95588 2.36456,-4.03333 3.91144,-6.308c2.40176,-3.53173 6.09931,-6.16516 8.82044,-7.1087c3.4728,-1.20412 8.13661,-1.23158 11.89901,-0.59382c3.50161,0.59357 6.23257,1.81676 6.23257,1.81676z" fill="#343545" stroke="none" stroke-width="0" stroke-linecap="butt"/><path d="M313.89774,210.84179c0,0 5.88617,-6.83748 10.93322,-7.88987c6.38902,-1.33223 19.31598,-0.33433 19.31598,-0.33433" fill="none" stroke="#000000" stroke-width="1" stroke-linecap="round"/><path d="M344.26472,231.51454c0,0 -6.47268,3.03879 -10.68664,3.88396c-4.25419,0.85329 -13.82989,-0.71471 -13.82989,-0.71471" fill="none" stroke="#000000" stroke-width="1" stroke-linecap="round"/><path d="M305.06118,204.34011c0,0 5.93723,-7.10883 11.45585,-7.99981c8.46812,-1.36715 20.05822,-0.96035 20.05822,-0.96035" fill="none" stroke="#000000" stroke-width="1" stroke-linecap="round"/><path d="M314.22271,192.1064c0,0 16.70716,4.51067 22.72952,20.85922c6.59673,17.90776 -7.31559,28.10273 -7.31559,28.10273" fill="none" stroke="#000000" stroke-width="1" stroke-linecap="round"/><path d="M305.94604,196.81828c0,0 16.18795,7.40358 21.53322,21.8184c4.38894,11.83592 -6.52645,21.51957 -6.52645,21.51957" fill="none" stroke="#000000" stroke-width="1" stroke-linecap="round"/><path d="M344.89986,216.65826c-0.12125,-1.19688 0.54858,-2.24489 1.49604,-2.34086c0.9475,-0.09604 1.0507,0.69347 1.17195,1.89034c0.12125,1.19688 0.21461,2.34781 -0.73288,2.44381c-0.9475,0.09604 -1.81391,-0.79643 -1.93511,-1.99327z" fill="#8fbbbe" stroke="none" stroke-width="0" stroke-linecap="butt"/><path d="M344.64086,223.92406c-0.36464,-0.47836 -0.07863,-1.30952 0.63889,-1.8565c0.71751,-0.54698 1.08599,-0.67125 1.45064,-0.19293c0.36464,0.47836 0.18867,1.45389 -0.52886,2.00083c-0.71751,0.54698 -1.19604,0.52688 -1.56068,0.04856z" fill="#8fbbbe" stroke="none" stroke-width="0" stroke-linecap="butt"/><path d="M344.13847,209.78192c-0.46741,-0.77174 -0.42929,-1.64989 0.08517,-1.9615c0.51441,-0.31162 0.87738,0.39149 1.34482,1.16318c0.46741,0.77174 0.86236,1.31973 0.34791,1.63137c-0.51441,0.31162 -1.31046,-0.06136 -1.77788,-0.83307z" fill="#8fbbbe" stroke="none" stroke-width="0" stroke-linecap="butt"/><path d="M327.62281,192.6185c0,0 8.5078,5.68304 12.80646,11.92334c2.4371,3.53795 3.36373,7.49745 4.03261,10.50723c0.59157,2.66168 -0.61071,9.12545 -2.04576,13.97713c-1.05655,3.57203 -2.40619,6.18842 -2.40619,6.18842" fill="none" stroke="#000000" stroke-width="0.5" stroke-linecap="round"/><path d="M350.18769,218.3261c0,0 -8.64821,6.08167 -13.90037,7.35913c-4.42506,1.07631 -15.33839,0.09472 -15.33839,0.09472" fill="none" stroke="#000000" stroke-width="1" stroke-linecap="round"/><path d="M318.83678,220.31464c0,0 7.9681,-5.47152 12.22079,-7.00952c7.4669,-2.70044 17.80827,-1.50336 17.80827,-1.50336" fill="none" stroke="#000000" stroke-width="1" stroke-linecap="round"/></g><g stroke="#2a2b40" stroke-linecap="butt"><path d="M293.15766,271.28837l-61.20282,-115.69532l41.57009,-21.99057l61.20282,115.69532z" fill="#000000" stroke-width="2"/><path d="M287.73604,262.52407l-13.68139,-25.86273l41.96602,-22.20002l13.68139,25.86273z" fill="#ffffff" stroke-width="2.5"/></g></g><g stroke-linecap="butt"><g stroke="#0c0c0c"><g><path d="M251.56747,101.22929c-0.47136,11.15949 -27.3811,19.08555 -60.10461,17.70336c-32.7235,-1.38219 -44.52797,-24.11994 -44.0566,-35.27942c0.47136,-11.15949 23.0249,2.30928 55.7484,3.69147c32.7235,1.38219 48.88417,2.7251 48.41281,13.88459z" fill="#fac843" stroke-width="2"/><path d="M250.47233,100.6115c-0.47136,11.15949 -27.3811,19.08555 -60.10461,17.70336c-32.7235,-1.38219 -42.22219,-21.847 -41.75083,-33.00649c0.47136,-11.15949 8.747,27.43831 41.47049,28.8205c32.7235,1.38219 60.8563,-24.67685 60.38494,-13.51736z" fill="#e47816" stroke-width="0"/></g><g><path d="M244.69511,64.46196c-0.47136,11.15949 -27.3811,19.08555 -60.10461,17.70336c-32.7235,-1.38219 -44.52797,-24.11994 -44.0566,-35.27942c0.47136,-11.15949 23.0249,2.30928 55.7484,3.69147c32.7235,1.38219 48.88417,2.7251 48.41281,13.88459z" fill="#fac843" stroke-width="2"/><path d="M243.59998,63.84416c-0.47136,11.15949 -27.3811,19.08555 -60.10461,17.70336c-32.7235,-1.38219 -42.2222,-21.84701 -41.75084,-33.0065c0.47136,-11.15949 8.747,27.43831 41.4705,28.8205c32.7235,1.38219 60.8563,-24.67685 60.38494,-13.51736z" fill="#e47816" stroke-width="0"/></g><g><path d="M254.03154,137.67594c-0.47136,11.15949 -27.3811,19.08555 -60.10461,17.70336c-32.7235,-1.38219 -44.52797,-24.11994 -44.0566,-35.27942c0.47136,-11.15949 23.0249,2.30928 55.7484,3.69147c32.7235,1.38219 48.88417,2.7251 48.41281,13.88459z" fill="#fac843" stroke-width="2"/><path d="M252.9364,137.05815c-0.47136,11.15949 -27.3811,19.08555 -60.10461,17.70336c-32.7235,-1.38219 -42.22219,-21.84701 -41.75083,-33.0065c0.47136,-11.15949 8.747,27.43831 41.47049,28.8205c32.7235,1.38219 60.8563,-24.67685 60.38494,-13.51736z" fill="#e47816" stroke-width="0"/></g></g><g stroke="#0c0c0c"><g data-paper-data="{&quot;index&quot;:null}"><path d="M343.81601,61.99634c31.67965,-8.31491 50.85001,-26.27507 53.68559,-15.47156c2.83558,10.80351 -3.85928,35.53261 -35.53893,43.84753c-31.67965,8.31491 -59.65977,6.2975 -62.49535,-4.50601c-2.83558,-10.80351 12.66905,-15.55505 44.3487,-23.86996z" fill="#fac843" stroke-width="2"/><path d="M362.28425,85.38584c31.67965,-8.31491 31.55113,-47.78969 34.3867,-36.98618c2.83558,10.80351 -2.09006,32.82104 -33.76973,41.13594c-31.67965,8.31491 -59.65977,6.2975 -62.49535,-4.50601c-2.83558,-10.80351 30.19872,8.67117 61.87837,0.35625z" fill="#e47816" stroke-width="0"/></g><g data-paper-data="{&quot;index&quot;:null}"><path d="M342.70593,24.60868c31.67965,-8.31491 50.85001,-26.27507 53.68559,-15.47156c2.83558,10.80351 -3.85928,35.53261 -35.53893,43.84753c-31.67965,8.31491 -59.65977,6.2975 -62.49535,-4.50601c-2.83558,-10.80351 12.66905,-15.55505 44.3487,-23.86996z" fill="#fac843" stroke-width="2"/><path d="M361.17416,47.99821c31.67965,-8.31491 31.55111,-47.7897 34.38669,-36.98619c2.83558,10.80351 -2.09006,32.82104 -33.76972,41.13595c-31.67965,8.31491 -59.65977,6.2975 -62.49535,-4.50601c-2.83558,-10.80351 30.19872,8.67117 61.87837,0.35625z" fill="#e47816" stroke-width="0"/></g><g data-paper-data="{&quot;index&quot;:null}"><path d="M349.16514,98.1324c31.67965,-8.31491 50.85001,-26.27507 53.68559,-15.47156c2.83558,10.80351 -3.85928,35.53261 -35.53893,43.84753c-31.67965,8.31491 -59.65977,6.2975 -62.49535,-4.50601c-2.83558,-10.80351 12.66905,-15.55505 44.3487,-23.86996z" fill="#fac843" stroke-width="2"/><path d="M367.63338,121.52187c31.67965,-8.31491 31.55111,-47.7897 34.38669,-36.98619c2.83558,10.80351 -2.09006,32.82104 -33.76972,41.13595c-31.67965,8.31491 -59.65977,6.2975 -62.49535,-4.50601c-2.83558,-10.80351 30.19872,8.67117 61.87837,0.35625z" fill="#e47816" stroke-width="0"/></g></g><path d="M216.93261,106.74324c-3.40385,-31.6209 26.18011,-60.73634 66.07764,-65.03113c39.89753,-4.29479 75.00022,17.8574 78.40408,49.47831c3.40385,31.6209 -26.18011,60.73634 -66.07764,65.03113c-39.89753,4.29479 -75.00022,-17.8574 -78.40408,-49.47831z" fill="#fdf7c7" stroke="#000000" stroke-width="2"/><path d="M217.16544,103.77526c-0.37734,-3.50536 1.40621,-8.91018 1.55006,-10.10697c1.77997,-14.80886 36.5011,56.37304 71.97577,52.55435c39.89753,-4.29479 49.5126,-0.70003 5.46978,9.13461c-39.21871,8.49421 -75.59175,-19.96106 -78.9956,-51.58199z" fill="#f2bd9d" stroke="#000000" stroke-width="0"/></g><path d="M268.20103,105.01067c-0.83286,-7.73708 4.76412,-14.68441 12.5012,-15.51727c7.73708,-0.83286 14.68441,4.76412 15.51727,12.5012c0.83286,7.73708 -4.76412,14.68441 -12.5012,15.51727c-7.73708,0.83286 -14.68441,-4.76412 -15.51727,-12.5012z" fill="#1a1507" stroke="#0c0c0c" stroke-width="2" stroke-linecap="butt"/><path d="M268.94,102.05039c-0.29361,-2.72752 1.67948,-5.17663 4.407,-5.47024c2.72752,-0.29361 5.17663,1.67948 5.47024,4.407c0.29361,2.72752 -1.67948,5.17663 -4.407,5.47024c-2.72752,0.29361 -5.17663,-1.67948 -5.47024,-4.407z" fill="#fdf7c7" stroke="#000000" stroke-width="0" stroke-linecap="butt"/><path d="M324.20048,97.55466c-0.83286,-7.73708 4.76411,-14.68441 12.5012,-15.51727c7.73708,-0.83286 14.68441,4.76412 15.51727,12.5012c0.83286,7.73709 -4.76412,14.68441 -12.5012,15.51727c-7.73708,0.83286 -14.68441,-4.76412 -15.51727,-12.5012z" fill="#1a1507" stroke="#0c0c0c" stroke-width="2" stroke-linecap="butt"/><path d="M323.94354,96.48298c-0.29361,-2.72752 1.67947,-5.17664 4.407,-5.47025c2.72752,-0.29361 5.17663,1.67948 5.47024,4.40701c0.29361,2.72753 -1.67948,5.17663 -4.407,5.47024c-2.72752,0.29361 -5.17663,-1.67947 -5.47024,-4.407z" fill="#fdf7c7" stroke="#000000" stroke-width="0" stroke-linecap="butt"/><path d="M339.45803,117.99312c0,0 1.27309,4.31093 -0.48076,7.51412c-1.49466,2.72981 -5.99692,4.42852 -6.59639,4.42239c-16.11845,-0.16492 -61.10012,2.32393 -72.83456,-0.59496" fill="none" stroke="#1a1507" stroke-width="2" stroke-linecap="round"/><path d="M278.48731,136.78885c0,7.26177 1.64776,12.50031 -3.81076,12.50031c-5.45852,0 -15.95627,-5.23854 -15.95627,-12.50031c0,-2.4137 0.01048,-5.37653 0.36901,-6.38347c0.72014,-2.02251 2.51698,-0.41145 6.16117,-0.41145c5.45852,0 13.23685,-0.46686 13.23685,6.79492z" fill="#fdf7c7" stroke="#1a1507" stroke-width="2" stroke-linecap="butt"/></g></g></svg>