<svg version="1.1" xmlns="http://www.w3.org/2000/svg" xmlns:xlink="http://www.w3.org/1999/xlink" width="191.35422" height="341.97589" viewBox="0,0,191.35422,341.97589"><g transform="translate(-213.90208,-17.3474)"><g data-paper-data="{&quot;isPaintingLayer&quot;:true}" fill-rule="nonzero" stroke-linejoin="miter" stroke-miterlimit="10" stroke-dasharray="" stroke-dashoffset="0" style="mix-blend-mode: normal"><g data-paper-data="{&quot;index&quot;:null}" stroke="#000000" stroke-linecap="butt"><path d="M269.05719,212.19786c2.00249,2.02721 9.45087,-11.73654 16.63733,-18.23866c5.82732,-5.27242 12.29862,-6.12099 10.80681,0.81463c-5.75646,5.68627 -10.75143,77.73165 -34.17881,54.01507c-23.42738,-23.7166 -37.7525,-47.55232 -31.99603,-53.23859c5.75645,-5.68626 15.30334,-7.06905 38.73071,16.64754z" fill="#216aff" stroke-width="2"/><path d="M260.0566,185.88549c10.05562,10.17977 9.74261,26.79357 -0.69913,37.10798c-10.44174,10.31441 -27.05814,10.42357 -37.11376,0.2438c-10.05563,-10.17976 -9.74261,-26.79358 0.69913,-37.10799c10.44174,-10.31441 27.05813,-10.42356 37.11375,-0.24379z" fill="#faddbf" stroke-width="2"/><path d="M223.12738,223.56966c-10.05563,-10.17975 -9.74261,-26.79357 0.69913,-37.10798c10.44174,-10.31441 6.1051,25.47203 16.16072,35.6518c10.05564,10.17976 -6.80423,11.63595 -16.85985,1.45618z" fill="#ef8b89" stroke-width="0"/></g><g data-paper-data="{&quot;index&quot;:null}" stroke="#000000" stroke-linecap="butt"><path d="M275.78441,339.17123v-95.29492h29.49199v95.29492z" fill="#73fffc" stroke-width="2"/><path d="M276.76712,338.22482l18.60659,-13.13896c0,0 2.26208,-0.70825 2.52228,-2.78987c1.17702,-9.41615 6.3799,-77.52842 6.3799,-77.52842l1.32626,93.78573z" fill="#59a9e6" stroke-width="0"/></g><g data-paper-data="{&quot;index&quot;:null}" stroke="#000000" stroke-linecap="butt"><path d="M315.12579,336.74868v-95.29492h29.49199v95.29492z" fill="#73fffc" stroke-width="2"/><path d="M316.1085,335.8023l18.60659,-13.13896c0,0 2.26208,-0.70825 2.52228,-2.78987c1.17702,-9.41615 6.3799,-77.52842 6.3799,-77.52842l1.32626,93.78573z" fill="#59a9e6" stroke-width="0"/></g><g data-paper-data="{&quot;index&quot;:null}" stroke="#000000" stroke-linecap="butt"><path d="M311.8021,178.4762c18.77199,0 33.98969,24.87307 33.98969,55.55556c0,8.35076 6.37392,33.61764 4.35457,40.7234c-5.40019,19.00234 -24.68139,14.83216 -38.34426,14.83216c-10.32729,0 -32.7059,2.78608 -38.9397,-9.09579c-5.09742,-9.71589 4.95001,-32.65706 4.95001,-46.45977c0,-30.68249 15.2177,-55.55556 33.98969,-55.55556z" fill="#216aff" stroke-width="2"/><path d="M339.54134,203.44519c2.17098,1.37012 5.51953,20.51569 5.51953,29.96813c0,8.35075 6.37393,33.61764 4.35457,40.7234c-5.40019,19.00233 -24.68138,14.83215 -38.34425,14.83215c-10.32729,0 -32.7059,2.78607 -38.9397,-9.09579c-5.09743,-9.71588 56.94455,-16.46203 56.94455,-30.26474c0,-21.0232 4.52139,-62.9273 10.4653,-46.16315z" fill="#3236f4" stroke-width="0"/></g><g data-paper-data="{&quot;index&quot;:null}" stroke="#000000" stroke-linecap="butt"><g><path d="M401.43356,107.30255c-0.84499,46.78316 -39.45523,84.02341 -86.23839,83.17842c-46.78316,-0.84499 -84.02341,-39.45523 -83.17842,-86.23839c0.84499,-46.78316 39.45523,-84.02341 86.23839,-83.17842c46.78316,0.84499 84.02341,39.45522 83.17842,86.23838z" fill="#faddbf" stroke-width="2"/><path d="M401.21853,106.42902c-0.84499,46.78316 -39.45523,84.02341 -86.23839,83.17842c-6.06192,-0.10949 -18.45449,-2.29369 -20.81222,-3.14539c-1.47391,-0.53243 27.29978,-6.38741 47.81537,-19.32552c11.00847,-6.94248 17.49313,-21.2386 20.4638,-25.92819c1.62614,-0.40961 6.38463,-19.96814 6.38866,-20.02838c1.6954,-25.26343 -22.67092,-87.9976 -14.65707,-90.42429c0.61423,-0.186 12.45658,6.83723 21.65177,15.35286c7.39799,6.85125 12.51433,15.48827 13.02256,15.86458c4.45026,3.29508 12.63739,29.40407 12.36552,44.4559z" fill="#ef8b89" stroke-width="0"/><path d="M232.54834,103.79393c0.65987,-36.5342 44.50489,-46.97019 84.12039,-25.65091c41.3873,22.27278 85.17943,-5.26754 84.51955,31.26665c-0.32817,18.16888 -8.5197,10.01525 -22.17526,-2.87281c-2.82825,-2.66929 -13.09686,10.06826 -16.37256,7.18459c-4.17533,-3.67563 -7.91933,-9.05385 -11.69864,-14.63099c-3.0432,-4.49089 -13.93242,12.27007 -17.26504,8.30625c-5.1285,-6.09983 -5.20178,-13.11309 -12.48045,-13.24456c-2.73695,-0.04944 -10.29655,11.557 -13.02187,11.8352c-2.11327,0.21572 -9.10867,-12.12475 -11.18056,-11.79976c-3.76248,0.59016 -12.44417,10.68464 -15.95442,11.74536c-1.40745,0.42531 -12.35792,-8.62416 -13.70424,-8.17573c-1.92558,0.64136 -9.03317,9.91864 -10.76007,10.65899c-2.74934,1.17869 -10.67381,-6.41348 -12.84058,-5.28066c-8.94179,4.67491 -8.70843,12.60494 -9.30566,14.48356c-0.5854,1.84144 -2.09047,-2.20277 -1.88055,-13.82521z" fill="#ef8b89" stroke-width="0"/></g><path d="M231.16478,95.45663c0.65988,-36.53418 42.85584,-77.92636 88.77518,-77.09697c45.91935,0.82939 84.96797,46.25879 84.30809,82.79298c-0.32817,18.16887 -8.73929,10.01127 -22.76056,-2.88339c-2.90398,-2.67066 -13.43694,10.06213 -16.80026,7.17687c-4.28701,-3.67765 -8.13217,-9.05768 -12.01364,-14.63668c-3.12548,-4.49237 -14.29345,12.26355 -17.71572,8.29811c-5.26645,-6.10232 -5.34499,-13.11566 -12.81539,-13.25059c-2.80904,-0.05074 -10.56218,11.55221 -13.35913,11.82911c-2.16881,0.21472 -9.35428,-12.12917 -11.48057,-11.80517c-3.86127,0.58838 -12.76678,10.67881 -16.36895,11.73787c-1.4443,0.42464 -12.68741,-8.63011 -14.06898,-8.18232c-1.97597,0.64045 -9.26631,9.91443 -11.03834,10.65397c-2.82118,1.17739 -10.95792,-6.41861 -13.18121,-5.28681c-18.16847,9.24899 -11.90453,24.13256 -11.48045,0.65305z" fill="#724e36" stroke-width="2"/><path d="M231.43351,94.29854c0.65988,-36.53419 45.65447,-46.94942 86.32327,-25.61112c42.4877,22.29266 87.41987,-5.22707 86.75999,31.30712c-0.32817,18.16886 -8.73929,10.01127 -22.76056,-2.88339c-2.90398,-2.67067 -13.43694,10.06212 -16.80026,7.17686c-4.28703,-3.67765 -8.13218,-9.05768 -12.01365,-14.63668c-3.12548,-4.49237 -14.29345,12.26355 -17.71572,8.29811c-5.26645,-6.10232 -5.34499,-13.11567 -12.81539,-13.2506c-2.80904,-0.05073 -10.56218,11.55222 -13.35913,11.82912c-2.16881,0.21472 -9.35428,-12.12917 -11.48057,-11.80517c-3.86127,0.58838 -12.76678,10.67881 -16.36895,11.73787c-1.4443,0.42464 -12.68741,-8.63011 -14.06898,-8.18232c-1.97598,0.64045 -9.26632,9.91443 -11.03835,10.65397c-2.82118,1.17739 -10.95792,-6.41861 -13.18121,-5.28681c-18.16848,9.24898 -11.90454,24.13255 -11.48046,0.65304z" fill="#623728" stroke-width="0"/></g><g data-paper-data="{&quot;index&quot;:null}" stroke="#000000" stroke-linecap="butt"><path d="M304.69248,111.89373c0.51574,-28.55428 14.36311,-51.45954 30.92894,-51.16033c16.56584,0.29921 29.57702,23.68958 29.06128,52.24386c-0.51574,28.55427 -14.47416,43.0351 -31.03999,42.73589c-16.56583,-0.29921 -29.46597,-15.26515 -28.95023,-43.81943z" fill="#f0f0f0" stroke-width="2"/><path d="M351.79421,93.15887c-5.48215,-40.9222 12.7833,-9.57752 12.26756,18.97676c-0.51574,28.55427 -14.47416,43.0351 -31.03999,42.73589c-16.56583,-0.29921 22.56447,-33.4066 18.77244,-61.71266z" fill="#9a99ff" stroke-width="0"/></g><path d="M314.11824,86.86533c5.76818,-0.42825 11.39386,12.01583 12.56531,27.79462c1.17145,15.7788 -2.55496,28.91719 -8.32314,29.34542c-5.76818,0.42825 -11.39386,-12.01583 -12.56531,-27.79462c-1.17145,-15.7788 2.55496,-28.91719 8.32314,-29.34542z" data-paper-data="{&quot;index&quot;:null}" fill="#000000" stroke="none" stroke-width="0" stroke-linecap="butt"/><g data-paper-data="{&quot;index&quot;:null}" stroke="#000000" stroke-linecap="butt"><path d="M336.66015,60.58024c15.7077,0.2837 17.95114,12.59643 22.10954,21.82175c4.37043,9.69573 -7.18121,14.12937 -22.88891,13.84567c-15.7077,-0.28372 -29.99238,-4.43418 -25.34891,-14.58178c4.42528,-9.6708 10.42058,-21.36934 26.12828,-21.08564z" fill="#a100fe" stroke-width="2"/><path d="M311.46239,81.32836c4.2804,-9.67341 9.67437,1.00177 24.84647,1.27581c15.1721,0.27404 17.73567,-9.79208 21.74664,-0.56941c4.21548,9.69293 -6.94514,14.13365 -22.11724,13.85961c-15.1721,-0.27404 -28.96732,-4.41565 -24.47588,-14.566z" fill="#99008e" stroke-width="0"/></g><g data-paper-data="{&quot;index&quot;:null}" stroke="#000000" stroke-linecap="butt"><path d="M300.99312,110.34802c-0.51574,28.55428 -13.94793,43.04461 -30.51376,42.7454c-16.56584,-0.29921 -29.99221,-15.27466 -29.47647,-43.82893c0.51574,-28.55428 14.36312,-51.45954 30.92895,-51.16033c16.56584,0.29921 29.57702,23.68958 29.06128,52.24386z" fill="#f0f0f0" stroke-width="2"/><path d="M241.65381,108.44585c0.51574,-28.55429 19.90119,-59.21893 12.94484,-18.52139c-4.81174,28.15067 33.09746,62.64952 16.53163,62.35031c-16.56584,-0.29921 -29.99221,-15.27466 -29.47647,-43.82893z" fill="#9a99ff" stroke-width="0"/></g><path d="M247.59032,88.29723c5.74731,-0.65101 11.85004,11.56619 13.63085,27.28787c1.7808,15.72167 -1.4347,28.99436 -7.182,29.64535c-5.7473,0.65101 -11.85004,-11.56619 -13.63085,-27.28787c-1.78079,-15.72167 1.43471,-28.99436 7.18201,-29.64535z" data-paper-data="{&quot;index&quot;:null}" fill="#000000" stroke="none" stroke-width="0" stroke-linecap="butt"/><g data-paper-data="{&quot;index&quot;:null}" stroke="#000000" stroke-linecap="butt"><path d="M296.52701,80.22776c4.274,10.30868 -10.15125,13.94057 -25.85895,13.65687c-15.7077,-0.28371 -27.09168,-5.13162 -22.37398,-14.6632c4.48883,-9.06915 7.17543,-21.29281 22.88313,-21.00911c15.7077,0.28371 21.27663,12.19113 25.3498,22.01543z" fill="#a100fe" stroke-width="2"/><path d="M295.6093,79.85688c4.12195,10.30593 -9.81383,13.94667 -24.98593,13.67263c-15.1721,-0.27403 -26.16507,-5.11488 -21.60231,-14.64926c4.3414,-9.07181 6.53979,1.08031 21.71189,1.35435c15.1721,0.27404 20.94805,-10.1994 24.87634,-0.37772z" fill="#99008e" stroke-width="0"/></g><path d="M241.40526,337.20591c0,-11.6628 13.71248,-9.87692 31.62358,-9.87692c14.33063,0 27.65301,-10.77791 32.14847,-5.26144c1.12318,1.37828 1.08979,12.80695 1.08979,15.13837c0,11.6628 -14.51982,21.11737 -32.43092,21.11737c-17.9111,0 -32.43092,-9.45457 -32.43092,-21.11737z" data-paper-data="{&quot;index&quot;:null}" fill="#000082" stroke="#000000" stroke-width="2" stroke-linecap="butt"/><path d="M274.28588,327.8989c14.33063,0 25.38775,-8.75646 29.88321,-5.7726c1.12318,0.74551 1.0898,12.01046 1.0898,13.27153c0,6.30841 -12.25456,9.26589 -30.16566,9.26589c-17.91111,0 -31.80169,-3.88169 -31.80169,-10.1901c0,-6.30841 13.08324,-6.57472 30.99434,-6.57472z" data-paper-data="{&quot;index&quot;:null}" fill="#2e0048" stroke="#000000" stroke-width="0" stroke-linecap="butt"/><path d="M284.3922,336.56108c0,-11.6628 13.71248,-9.87692 31.62358,-9.87692c14.33063,0 27.65301,-10.77791 32.14847,-5.26144c1.12318,1.37828 1.08979,12.80695 1.08979,15.13837c0,11.6628 -14.51982,21.11737 -32.43092,21.11737c-17.9111,0 -32.43092,-9.45457 -32.43092,-21.11737z" data-paper-data="{&quot;index&quot;:null}" fill="#000082" stroke="#000000" stroke-width="2" stroke-linecap="butt"/><path d="M317.27282,327.25405c14.33063,0 25.38775,-8.75646 29.88321,-5.7726c1.12318,0.74551 1.0898,12.01046 1.0898,13.27153c0,6.30841 -12.25456,9.26589 -30.16566,9.26589c-17.91111,0 -31.80169,-3.88169 -31.80169,-10.1901c0,-6.30841 13.08324,-6.57472 30.99434,-6.57472z" data-paper-data="{&quot;index&quot;:null}" fill="#2e0048" stroke="#000000" stroke-width="0" stroke-linecap="butt"/><g data-paper-data="{&quot;index&quot;:null}"><path d="M298.59412,241.70962c-10.57813,-7.07822 -16.92,-17.8049 -13.75185,-28.50319c0.58731,-1.98316 1.21,-4.16031 2.50901,-6.10162c8.30673,-12.414 22.83719,-14.42134 35.37621,-6.03098c12.53899,8.39031 15.767,26.21175 8.82471,35.60748c-8.87632,12.01334 -20.41908,13.41861 -32.95806,5.02832z" fill="#485e84" stroke="#000000" stroke-width="2" stroke-linecap="butt"/><path d="M330.53638,212.41436c0,0 1.38908,2.65043 2.19721,6.10884c0.8683,3.71597 1.12817,8.37262 0.14024,11.91299c-0.77413,2.77408 -3.17481,6.62682 -6.55189,9.24156c-2.17507,1.68406 -4.15381,3.34758 -6.05509,4.29257c-1.94073,0.96463 -15.3124,2.4321 -15.3124,2.4321l-15.38065,-14.22301c0,0 -3.19063,-7.7025 -3.65318,-11.18245c-0.40489,-3.04651 0.28812,-6.79131 1.34705,-9.50915c0.99515,-2.55416 2.34866,-4.17776 2.34866,-4.17776c0,0 -0.05739,1.12141 0.82099,1.7118c3.86613,2.5986 16.08377,9.52304 35.27369,8.51281c2.00057,-0.10531 4.82544,-5.1204 4.82544,-5.1204z" fill="#343545" stroke="none" stroke-width="0" stroke-linecap="butt"/><path d="M321.39419,200.61838c0,0 1.79227,12.84096 0.8561,19.29991c-0.73951,5.10228 -7.20144,11.39845 -7.20144,11.39845" fill="none" stroke="#000000" stroke-width="1" stroke-linecap="round"/><path d="M290.89175,226.94597c0,0 -2.15485,-9.46094 -1.56522,-13.7596c0.58401,-4.25801 3.21833,-10.90558 3.21833,-10.90558" fill="none" stroke="#000000" stroke-width="1" stroke-linecap="round"/><path d="M329.08447,207.72991c0,0 1.11993,11.54303 0.27698,20.07928c-0.54936,5.56301 -7.27898,11.92685 -7.27898,11.92685" fill="none" stroke="#000000" stroke-width="1" stroke-linecap="round"/><path d="M283.91023,217.46958c0,0 9.31867,-14.5139 27.59875,-9.03273c16.68845,5.00392 22.21966,21.40151 22.21966,21.40151" fill="none" stroke="#000000" stroke-width="1" stroke-linecap="round"/><path d="M285.35548,226.08072c0,0 8.99292,-11.49114 21.0767,-7.83958c14.71671,4.44722 23.10334,20.1484 23.10334,20.1484" fill="none" stroke="#000000" stroke-width="1" stroke-linecap="round"/><path d="M307.33377,200.73175c-1.20203,-0.04725 -2.14618,-0.85704 -2.10868,-1.80866c0.03746,-0.9516 1.19196,-0.92931 2.39403,-0.88201c1.20206,0.04729 1.99644,0.10167 1.95894,1.05329c-0.03743,0.95157 -1.04219,1.68469 -2.24426,1.63739z" fill="#8fbbbe" stroke="none" stroke-width="0" stroke-linecap="butt"/><path d="M300.09779,201.43781c-0.49988,-0.33449 -0.54942,-0.81087 -0.04767,-1.56071c0.50171,-0.74985 1.46455,-0.98558 1.96446,-0.65109c0.49988,0.3345 0.39854,0.70993 -0.10321,1.45977c-0.50174,0.74984 -1.31371,1.08652 -1.81362,0.75203z" fill="#8fbbbe" stroke="none" stroke-width="0" stroke-linecap="butt"/><path d="M314.24401,201.06813c-0.79903,-0.419 -1.22034,-1.19056 -0.941,-1.72319c0.27935,-0.53267 0.85063,-0.17223 1.6497,0.24676c0.79902,0.41902 1.52314,0.73799 1.2438,1.27062c-0.27934,0.53267 -1.15346,0.62482 -1.95253,0.20583z" fill="#8fbbbe" stroke="none" stroke-width="0" stroke-linecap="butt"/><path d="M289.11388,206.75541c0,0 2.52829,-1.50824 6.02845,-2.78281c4.75409,-1.73119 11.13152,-3.32931 13.82459,-2.90282c3.04527,0.48222 7.05433,1.1632 10.73568,3.37775c6.49323,3.90612 12.68953,12.04771 12.68953,12.04771" fill="none" stroke="#000000" stroke-width="0.5" stroke-linecap="round"/><path d="M299.70472,225.19905c0,0 -1.65195,-10.83213 -0.85025,-15.31509c0.95153,-5.32089 6.48895,-14.32727 6.48895,-14.32727" fill="none" stroke="#000000" stroke-width="1" stroke-linecap="round"/><path d="M311.93678,196.47416c0,0 1.83179,10.248 -0.40358,17.86706c-1.27312,4.33935 -6.24344,12.62935 -6.24344,12.62935" fill="none" stroke="#000000" stroke-width="1" stroke-linecap="round"/></g><g data-paper-data="{&quot;index&quot;:null}" stroke="#000000" stroke-linecap="butt"><path d="M325.22391,239.85992c2.73713,0.79222 2.52174,-14.85619 5.6214,-24.0385c2.51343,-7.44572 7.74776,-11.34435 9.8302,-4.56264c-2.24961,7.77237 28.5485,73.09438 -3.4736,63.82596c-32.02211,-9.26842 -56.15748,-23.0827 -53.90786,-30.85507c2.24962,-7.77235 9.90777,-13.63818 41.92987,-4.36975z" fill="#216aff" stroke-width="2"/><path d="M304.52746,221.28556c13.74469,3.97825 21.57898,18.63228 17.49836,32.7307c-4.08061,14.09842 -18.5309,22.30246 -32.2756,18.32421c-13.7447,-3.97824 -21.57898,-18.63228 -17.49836,-32.7307c4.08061,-14.09842 18.53089,-22.30245 32.27559,-18.3242z" fill="#faddbf" stroke-width="2"/><path d="M304.68912,262.70081c13.74471,3.97824 -0.26073,13.47683 -14.00543,9.49858c-13.7447,-3.97824 -21.57898,-18.63228 -17.49836,-32.7307c4.08063,-14.09842 17.75909,19.25386 31.50379,23.23211z" fill="#ef8b89" stroke-width="0"/></g><path d="M388.41949,133.75043c-0.24148,-0.43215 -0.24148,-0.8897 -0.24148,-0.8897l0.0032,-1.33467c0.10863,-1.52208 0.02188,-3.54143 1.33001,-4.70788c2.21712,-1.97699 5.8562,-0.76446 7.43283,1.22751c1.60697,2.03029 1.40325,4.47263 1.464,6.90019c0.16505,6.59585 -0.70681,12.83667 -6.63791,16.69575c-0.74184,0.38409 -1.4287,0.90139 -2.22551,1.15228c-4.25767,1.34061 -12.50776,0.873 -14.07303,-4.13383c-0.2718,-0.86939 -0.16756,-1.83008 -0.04245,-2.73234c0.59893,-4.31947 4.39963,-5.36506 7.75755,-6.93729c1.47293,-0.68964 5.04036,-1.89962 5.36714,-3.91265c0.07154,-0.44069 -0.03301,-0.88405 -0.13436,-1.32736z" data-paper-data="{&quot;index&quot;:null}" fill="#000000" stroke="none" stroke-width="0.5" stroke-linecap="butt"/></g></g></svg>