<svg version="1.1" xmlns="http://www.w3.org/2000/svg" xmlns:xlink="http://www.w3.org/1999/xlink" width="195.31861" height="335.6007" viewBox="0,0,195.31861,335.6007"><g transform="translate(-216.16003,-8.32025)"><g data-paper-data="{&quot;isPaintingLayer&quot;:true}" fill-rule="nonzero" stroke-linejoin="miter" stroke-miterlimit="10" stroke-dasharray="" stroke-dashoffset="0" style="mix-blend-mode: normal"><g data-paper-data="{&quot;index&quot;:null}" stroke="#000000" stroke-linecap="butt"><path d="M354.57422,201.1626c25.66069,-21.28022 35.02373,-18.95888 40.18883,-12.73055c5.16511,6.22833 -11.44986,28.52842 -37.11056,49.80864c-25.6607,21.28021 -23.49707,-50.90571 -28.66217,-57.13404c-0.7977,-7.04925 5.55776,-5.56405 10.83436,0.25948c6.5073,7.18177 12.55616,21.61543 14.74954,19.79648z" fill="#303145" stroke-width="2"/><path d="M366.13605,175.87082c11.01422,-9.13401 27.53813,-7.38002 36.90721,3.91765c9.36908,11.29767 8.03543,27.86083 -2.97879,36.99484c-11.01422,9.13401 -27.53814,7.38001 -36.90722,-3.91766c-9.36908,-11.29767 -8.03542,-27.86082 2.9788,-36.99483z" fill="#faddbf" stroke-width="2"/><path d="M382.51943,213.90806c11.01422,-9.13401 10.24252,-45.174 19.61159,-33.87632c9.36908,11.29767 8.03543,27.86083 -2.9788,36.99483c-11.01422,9.13401 -27.64703,6.0155 -16.6328,-3.11851z" fill="#ef8b89" stroke-width="0"/></g><g stroke="#000000" stroke-linecap="butt"><path d="M354.2133,321.15344l-50.76692,-80.64639l24.95855,-15.71142l50.76692,80.64639z" fill="#7485a3" stroke-width="2"/><path d="M353.60843,320.80404l-48.84054,-80.07575c0,0 40.68888,54.87045 46.70129,62.21213c1.32916,1.62302 3.62082,1.01731 3.62082,1.01731l22.74601,1.20689z" fill="#49374f" stroke-width="0"/></g><g data-paper-data="{&quot;index&quot;:null}" stroke="#000000" stroke-linecap="butt"><path d="M285.33996,321.00129l13.94422,-94.26919l29.17455,4.31547l-13.94422,94.26919z" fill="#7485a3" stroke-width="2"/><path d="M286.45056,320.2089l20.3289,-10.27489c0,0 2.34137,-0.36962 2.90336,-2.39076c2.54219,-9.14257 17.65572,-75.76038 17.65572,-75.76038l-12.4114,92.97031z" fill="#49374f" stroke-width="0"/></g><g stroke="#000000" stroke-linecap="butt"><path d="M346.8877,211.2369c1.72362,13.69467 14.55718,35.20159 10.71294,45.47797c-4.70125,12.56731 -27.25261,12.59757 -37.49906,13.88719c-13.55592,1.70615 -32.16545,8.25143 -39.89629,-9.92781c-2.89088,-6.79797 0.27794,-32.66302 -0.76486,-40.94841c-3.83148,-30.44232 8.16107,-57.02101 26.78612,-59.36517c18.62505,-2.34416 36.82966,20.43391 40.66115,50.87623z" fill="#585858" stroke-width="2"/><path d="M297.97046,233.0931c1.72362,13.69467 64.12239,12.64051 60.27813,22.91688c-4.70126,12.5673 -27.25261,12.59757 -37.49906,13.88719c-13.55592,1.70615 -32.16544,8.25143 -39.89628,-9.92781c-2.89089,-6.79797 0.27794,-32.66303 -0.76486,-40.94841c-1.18038,-9.37845 -0.24884,-28.79231 1.73405,-30.42281c3.80396,-17.37517 13.52274,23.63631 16.14801,44.49495z" fill="#303145" stroke-width="0"/></g><g stroke="#000000" stroke-linecap="butt"><g><path d="M219.66685,93.67782c1.73885,-46.75847 41.05369,-83.25408 87.81216,-81.51523c46.75847,1.73885 83.25408,41.05369 81.51523,87.81216c-1.73885,46.75847 -41.05369,83.25408 -87.81216,81.51523c-46.75847,-1.73885 -83.25408,-41.05369 -81.51523,-87.81216z" fill="#faddbf" stroke-width="2"/><path d="M219.92977,92.81749c0.55945,-15.04388 10.17537,-40.66112 14.80074,-43.7055c0.52823,-0.34768 6.11355,-8.6891 13.87847,-15.12151c9.65126,-7.99505 21.86325,-14.35384 22.46628,-14.13422c7.86767,2.86537 -19.92459,64.1588 -19.62636,89.4773c0.00071,0.06038 3.67225,19.85176 5.2733,20.35051c2.70727,4.84643 8.39285,19.47872 19.0013,27.0183c19.77009,14.05089 48.1767,21.48532 46.67564,21.93558c-2.40115,0.72025 -14.89539,2.21702 -20.95411,1.9917c-46.75847,-1.73885 -83.25408,-41.05369 -81.51523,-87.81216z" fill="#ef8b89" stroke-width="0"/><path d="M388.48819,99.49742c-0.43199,11.61631 -2.15802,15.57127 -2.64088,13.70031c-0.49261,-1.90872 0.17814,-9.81378 -8.49194,-14.97517c-2.10093,-1.25071 -10.43242,5.89243 -13.11251,4.56377c-1.6834,-0.83456 -8.26803,-10.49004 -10.15526,-11.23672c-1.31952,-0.52207 -12.75284,7.90911 -14.13467,7.40676c-3.44634,-1.25288 -11.55756,-11.81121 -15.28173,-12.60817c-2.05079,-0.43886 -9.71675,11.49662 -11.81488,11.16456c-2.70581,-0.42822 -9.61318,-12.43427 -12.34867,-12.53599c-7.27482,-0.27054 -7.73515,6.72798 -13.19256,12.5354c-3.54635,3.77381 -13.49372,-13.5627 -16.78019,-9.24666c-4.08142,5.36002 -8.1166,10.52335 -12.48847,13.96289c-3.42989,2.69845 -12.97971,-10.58654 -15.95099,-8.07744c-14.34618,12.11458 -22.97535,19.80358 -22.30004,1.64431c1.35791,-36.51491 43.56297,-6.59915 86.11666,-26.55329c40.73197,-19.09989 83.93404,-6.25946 82.57613,30.25545z" fill="#ef8b89" stroke-width="0"/></g><path d="M390.32985,91.24927c-0.87269,23.46712 6.20331,8.95202 -11.4269,-1.2858c-2.15742,-1.25281 -10.70108,5.88244 -13.45296,4.55111c-1.7285,-0.83623 -8.49577,-10.49851 -10.43338,-11.24707c-1.35475,-0.52338 -13.08056,7.89692 -14.49922,7.3932c-3.53822,-1.2563 -11.87312,-11.82295 -15.69603,-12.62358c-2.10516,-0.44089 -9.96109,11.48753 -12.11474,11.15341c-2.7774,-0.43088 -9.87821,-12.44412 -12.68576,-12.54853c-7.46645,-0.27766 -7.93203,6.72066 -13.52731,12.52296c-3.63595,3.77047 -13.86193,-13.5764 -17.23063,-9.26341c-4.18353,5.35622 -8.31981,10.51579 -12.8033,13.95118c-3.51747,2.69519 -13.33148,-10.59962 -16.37847,-8.09334c-14.7117,12.10099 -23.56033,19.78183 -22.88503,1.62255c1.35791,-36.51491 42.85479,-79.71946 88.74991,-78.01271c45.89511,1.70674 85.74178,45.36512 84.38387,81.88003z" fill="#724e36" stroke-width="2"/><path d="M390.12551,90.07808c-0.87269,23.46712 6.20331,8.95202 -11.4269,-1.2858c-2.15742,-1.25281 -10.70108,5.88244 -13.45296,4.55111c-1.7285,-0.83623 -8.49577,-10.49851 -10.43339,-11.24707c-1.35475,-0.52338 -13.08056,7.89692 -14.49922,7.3932c-3.53822,-1.2563 -11.87312,-11.82295 -15.69603,-12.62358c-2.10516,-0.44089 -9.96109,11.48753 -12.11474,11.15341c-2.7774,-0.43088 -9.87821,-12.44412 -12.68576,-12.54853c-7.46645,-0.27766 -7.93203,6.72066 -13.52731,12.52296c-3.63595,3.77047 -13.86193,-13.5764 -17.23063,-9.26341c-4.18353,5.35622 -8.31981,10.51579 -12.80331,13.95118c-3.51747,2.69519 -13.33148,-10.59962 -16.37847,-8.09334c-14.7117,12.10099 -23.56033,19.78183 -22.88503,1.62255c1.35791,-36.51491 44.7024,-6.55678 88.35593,-26.47001c41.78471,-19.06074 86.13575,-6.17758 84.77784,30.33733z" fill="#623728" stroke-width="0"/></g><g stroke="#000000" stroke-linecap="butt"><path d="M322.30155,120.41278c-1.06131,28.53921 -14.76794,42.7702 -31.32503,42.15448c-16.5571,-0.61572 -29.69484,-15.84501 -28.63352,-44.38421c1.06131,-28.53921 15.34386,-51.17567 31.90095,-50.55994c16.5571,0.61572 29.11891,24.25046 28.0576,52.78968z" fill="#f0f0f0" stroke-width="2"/><path d="M276.30584,99.10636c-5.34882,28.05357 31.89421,63.27056 15.33711,62.65484c-16.5571,-0.61572 -29.69484,-15.84501 -28.63352,-44.38421c1.06131,-28.53921 21.02922,-58.8278 13.29641,-18.27063z" fill="#9a99ff" stroke-width="0"/></g><path d="M320.53935,127.5855c-0.58799,15.81128 -5.75032,28.45461 -11.53038,28.23966c-5.78006,-0.21495 -9.98908,-13.20678 -9.40109,-29.01806c0.58799,-15.81128 5.75032,-28.45461 11.53038,-28.23966c5.78006,0.21495 9.98908,13.20678 9.40109,29.01806z" fill="#000000" stroke="none" stroke-width="0" stroke-linecap="butt"/><g stroke="#000000" stroke-linecap="butt"><path d="M318.4193,90.01284c4.07622,10.38847 8.84282,28.67004 -6.85659,28.08621c-15.69941,-0.58383 -46.24731,-20.5744 -41.34831,-30.01409c4.66132,-8.98171 7.58102,-21.1518 23.28043,-20.56798c15.69941,0.58383 21.03978,12.59549 24.92446,22.49584z" fill="#a100fe" stroke-width="2"/><path d="M317.50883,89.62448c3.92426,10.38282 9.18007,28.68258 -5.98403,28.11866c-15.1641,-0.56392 -45.32118,-20.53996 -40.57704,-29.98541c4.51397,-8.98719 6.51795,1.20508 21.68205,1.769c15.1641,0.56392 21.13914,-9.79723 24.87901,0.09773z" fill="#99008e" stroke-width="0"/></g><g data-paper-data="{&quot;index&quot;:null}" stroke="#000000" stroke-linecap="butt"><path d="M357.98156,68.51372c16.5571,0.61572 29.11891,24.25046 28.0576,52.78968c-1.06131,28.5392 -15.29389,42.75065 -31.85099,42.13492c-16.5571,-0.61572 -29.16888,-15.82544 -28.10757,-44.36465c1.06131,-28.53921 15.34386,-51.17567 31.90095,-50.55994z" fill="#f0f0f0" stroke-width="2"/><path d="M385.43443,120.45007c-1.06131,28.5392 -15.29389,42.75065 -31.85099,42.13492c-16.5571,-0.61572 23.19874,-32.96929 19.94832,-61.34265c-4.69914,-41.01949 12.96398,-9.33149 11.90267,19.20773z" fill="#9a99ff" stroke-width="0"/></g><path d="M375.24846,97.37766c5.78006,0.21495 9.98908,13.20678 9.40109,29.01806c-0.58799,15.81128 -5.75032,28.45461 -11.53038,28.23966c-5.78006,-0.21495 -9.98908,-13.20678 -9.40109,-29.01806c0.58799,-15.81128 5.75032,-28.45461 11.53038,-28.23966z" data-paper-data="{&quot;index&quot;:null}" fill="#000000" stroke="none" stroke-width="0" stroke-linecap="butt"/><g data-paper-data="{&quot;index&quot;:null}" stroke="#000000" stroke-linecap="butt"><path d="M332.20261,89.24586c4.60928,-9.58447 10.82705,-21.16631 26.52645,-20.58249c15.69941,0.58383 17.70714,12.93716 21.68848,22.24027c4.18435,9.77747 -27.28246,25.26033 -42.98186,24.6765c-15.69941,-0.58383 -10.06963,-16.27726 -5.23308,-26.33428z" fill="#a100fe" stroke-width="2"/><path d="M333.13941,88.92621c4.46447,-9.58985 9.65346,1.18646 24.81755,1.75038c15.1641,0.56392 17.91955,-9.45136 21.75355,-0.15373c4.02948,9.77171 -28.65283,25.40951 -43.81692,24.84559c-15.1641,-0.56392 -7.43878,-16.37957 -2.75419,-26.44224z" fill="#99008e" stroke-width="0"/></g><path d="M409.14365,300.47145c4.93203,10.56863 -4.22739,25.27642 -20.45813,32.85076c-16.23074,7.57434 -33.38655,5.14698 -38.31858,-5.42165c-0.98592,-2.11269 -5.8492,-12.45504 -5.41424,-14.17899c1.74088,-6.9 18.37121,-2.76707 31.35739,-8.82728c16.23074,-7.57434 27.90154,-14.99148 32.83356,-4.42284z" fill="#000082" stroke="#000000" stroke-width="2" stroke-linecap="butt"/><path d="M406.27889,298.79317c2.66773,5.71658 -8.27817,15.10822 -24.50892,22.68256c-16.23074,7.57434 -28.58629,10.07659 -31.25402,4.36002c-0.53329,-1.14276 -5.32732,-11.33675 -4.62477,-12.4873c2.81188,-4.60499 16.53463,-1.34592 29.52081,-7.40613c16.23074,-7.57434 28.19917,-12.86572 30.8669,-7.14915z" fill="#2e0048" stroke="#000000" stroke-width="0" stroke-linecap="butt"/><path d="M254.22775,312.07179c3.13394,-11.23385 15.86219,-5.82893 33.11453,-1.016c13.80356,3.85082 29.5321,-2.95079 32.37988,3.57077c0.71151,1.6294 -2.39168,12.62876 -3.01816,14.87443c-3.13394,11.23385 -19.66029,16.43902 -36.91263,11.62608c-17.25234,-4.81294 -28.69756,-17.82143 -25.56362,-29.05528z" data-paper-data="{&quot;index&quot;:null}" fill="#000082" stroke="#000000" stroke-width="2" stroke-linecap="butt"/><path d="M288.39995,311.94249c13.80356,3.85082 26.80697,-1.61239 30.33529,2.46971c0.88154,1.0199 -2.17764,11.86156 -2.51651,13.07625c-1.69515,6.07639 -14.2937,5.63214 -31.54604,0.8192c-17.25235,-4.81294 -29.58898,-12.28444 -27.89383,-18.36083c1.69515,-6.07639 14.36875,-2.81727 31.62109,1.99567z" data-paper-data="{&quot;index&quot;:null}" fill="#2e0048" stroke="#000000" stroke-width="0" stroke-linecap="butt"/><g><path d="M285.26196,242.98302c-14.34464,-4.67486 -20.37175,-14.6189 -16.41049,-29.02092c3.09811,-11.26397 19.10515,-19.73737 33.44981,-15.0625c14.34472,4.67485 21.74448,17.34005 17.11624,31.54177c-0.72376,2.22087 -2.05086,4.0557 -3.24727,5.74284c-6.45425,9.10129 -18.80684,10.74264 -30.90827,6.79883z" fill="#485e84" stroke="#000000" stroke-width="2" stroke-linecap="butt"/><path d="M288.55961,199.76663c0,0 -2.1978,5.31984 -1.04449,6.9579c11.06275,15.71271 24.05626,21.04064 28.48828,22.47485c1.00694,0.32586 1.85322,-0.41217 1.85322,-0.41217c0,0 -0.44029,2.06742 -1.83367,4.42804c-1.48267,2.5119 -3.99891,5.37064 -6.64447,6.93465c-3.02199,1.78651 -11.04968,4.03701 -11.04968,4.03701l-20.68656,-3.30527c0,0 -7.10825,-11.4205 -7.54893,-13.54246c-0.43174,-2.07882 -0.34638,-4.6625 -0.36619,-7.41324c-0.03073,-4.2709 1.51525,-8.53902 3.21811,-10.86174c2.17327,-2.9643 5.99524,-5.63722 9.45352,-7.25052c3.21858,-1.50147 6.16083,-2.04692 6.16083,-2.04692z" fill="#343545" stroke="none" stroke-width="0" stroke-linecap="butt"/><path d="M283.26658,223.62356c0,0 0.95781,-8.97111 4.51266,-12.70516c4.50006,-4.72694 15.70395,-11.25189 15.70395,-11.25189" fill="none" stroke="#000000" stroke-width="1" stroke-linecap="round"/><path d="M320.00152,223.37712c0,0 -3.59911,6.17869 -6.58623,9.26882c-3.01561,3.11966 -11.78592,7.27108 -11.78592,7.27108" fill="none" stroke="#000000" stroke-width="1" stroke-linecap="round"/><path d="M272.30078,223.29532c0,0 0.84561,-9.2234 4.88023,-13.09262c6.19099,-5.93716 15.95893,-12.1888 15.95893,-12.1888" fill="none" stroke="#000000" stroke-width="1" stroke-linecap="round"/><path d="M272.88713,208.02269c0,0 16.3106,-5.7827 30.5565,4.24716c15.60458,10.98643 9.95051,27.28128 9.95051,27.28128" fill="none" stroke="#000000" stroke-width="1" stroke-linecap="round"/><path d="M268.75441,216.60324c0,0 17.52734,-3.10726 30.11722,5.71624c10.33744,7.24492 6.85882,21.41595 6.85882,21.41595" fill="none" stroke="#000000" stroke-width="1" stroke-linecap="round"/><path d="M312.08169,210.79186c-0.77992,-0.91593 -0.82432,-2.15892 -0.09925,-2.77632c0.72506,-0.61747 1.25865,-0.02647 2.03856,0.88946c0.77992,0.91593 1.51079,1.80992 0.78571,2.42733c-0.72506,0.61747 -1.94515,0.37546 -2.72501,-0.54046z" fill="#8fbbbe" stroke="none" stroke-width="0" stroke-linecap="butt"/><path d="M315.99754,216.91761c-0.57188,-0.1864 -0.80886,-1.03285 -0.5293,-1.89066c0.27956,-0.85782 0.51213,-1.16947 1.08401,-0.98311c0.57188,0.1864 0.98145,1.0891 0.70186,1.9469c-0.27956,0.85782 -0.68474,1.11322 -1.2566,0.92685z" fill="#8fbbbe" stroke="none" stroke-width="0" stroke-linecap="butt"/><path d="M307.54753,205.56645c-0.82317,-0.3694 -1.29082,-1.11364 -1.04459,-1.6624c0.24618,-0.54874 0.94442,-0.17647 1.76757,0.19288c0.82317,0.3694 1.45955,0.59587 1.21334,1.14465c-0.24618,0.54874 -1.11317,0.69421 -1.93632,0.32484z" fill="#8fbbbe" stroke="none" stroke-width="0" stroke-linecap="butt"/><path d="M284.20427,200.82912c0,0 10.23008,-0.15854 17.31338,2.5334c4.01587,1.52621 7.02842,4.25767 9.28918,6.35413c1.99932,1.85397 4.68326,7.85582 6.25952,12.66348c1.16052,3.53962 1.53681,6.45944 1.53681,6.45944" fill="none" stroke="#000000" stroke-width="0.5" stroke-linecap="round"/><path d="M317.38052,209.15929c0,0 -3.66002,9.91879 -7.25575,13.9546c-3.02947,3.40028 -12.56719,8.79436 -12.56719,8.79436" fill="none" stroke="#000000" stroke-width="1" stroke-linecap="round"/><path d="M292.7138,228.61146c0,0 3.44714,-9.03025 6.07241,-12.71247c4.60947,-6.46528 13.79901,-11.35701 13.79901,-11.35701" fill="none" stroke="#000000" stroke-width="1" stroke-linecap="round"/></g><g stroke="#000000" stroke-linecap="butt"><path d="M270.26234,220.90184c27.07332,19.45133 27.19299,29.0971 22.47179,35.6683c-4.7212,6.57121 -30.49575,-3.87022 -57.56907,-23.32156c-27.07331,-19.45134 43.31713,-35.59676 48.03834,-42.16796c6.61897,-2.55292 6.78776,3.97158 2.4864,10.54839c-5.30458,8.11074 -17.74158,17.61022 -15.42747,19.27285z" fill="#585858" stroke-width="2"/><path d="M297.65477,225.6982c11.62055,8.349 14.09849,24.77996 5.53462,36.69957c-8.56387,11.91961 -24.92658,14.81416 -36.54714,6.46516c-11.62055,-8.349 -14.09848,-24.77998 -5.53461,-36.69958c8.56387,-11.91961 24.92658,-14.81415 36.54714,-6.46515z" fill="#faddbf" stroke-width="2"/><path d="M264.99121,251.16071c11.62055,8.349 46.29619,-1.50369 37.73232,10.41592c-8.56387,11.91961 -24.92658,14.81416 -36.54714,6.46515c-11.62055,-8.349 -12.80575,-25.23008 -1.18519,-16.88107z" fill="#ef8b89" stroke-width="0"/></g><path d="M256.27237,164.00863l3.44865,-92.7359c0,0 21.51919,-7.80569 32.09763,-7.4123c11.41,0.42431 34.05664,9.87244 34.05664,9.87244l-3.44865,92.7359c0,0 -24.58081,4.8899 -35.99081,4.46559c-10.57844,-0.39339 -30.16346,-6.92572 -30.16346,-6.92572z" fill-opacity="0.74902" fill="#fffe00" stroke="#000000" stroke-width="2.5" stroke-linecap="butt"/><path d="M254.14375,129.49531c0,2.39505 -4.56531,4.33662 -10.19691,4.33662c-5.6316,0 -10.19691,-1.94157 -10.19691,-4.33662c0,-2.39505 4.56531,-4.33662 10.19691,-4.33662c5.6316,0 10.19691,1.94157 10.19691,4.33662z" fill="#000000" stroke="none" stroke-width="0" stroke-linecap="butt"/></g></g></svg>