<svg version="1.1" xmlns="http://www.w3.org/2000/svg" xmlns:xlink="http://www.w3.org/1999/xlink" width="202.22227" height="202.22228" viewBox="0,0,202.22227,202.22228"><g transform="translate(-136.94442,-75.55554)"><g data-paper-data="{&quot;isPaintingLayer&quot;:true}" fill-rule="nonzero" stroke-linejoin="miter" stroke-miterlimit="10" stroke-dasharray="" stroke-dashoffset="0" style="mix-blend-mode: normal"><path d="M264.42919,176.84338l7.49117,16.59201c0,0 -0.82221,1.56161 -1.766,2.04365c-0.94379,0.48204 -2.17011,-0.03329 -2.17011,-0.03329l-10.28688,-14.77601" data-paper-data="{&quot;index&quot;:null}" fill="#414b67" stroke="#000000" stroke-width="2" stroke-linecap="round"/><path d="M264.60515,194.76661l-13.25429,0.91764l-10.93052,-14.78102l0.71694,-5.09647l5.10147,-0.95947l11.36133,5.19799l10.09028,-7.71881l6.77315,11.70537z" data-paper-data="{&quot;index&quot;:null}" fill="#ef8b89" stroke="#000000" stroke-width="2" stroke-linecap="round"/><path d="M239.66874,181.54306l1.44915,-5.51402l5.2116,-2.35836l12.12325,4.79418l-2.6885,7.98245l-10.92576,5.57369z" data-paper-data="{&quot;index&quot;:null}" fill="#133c8f" stroke="#000000" stroke-width="2" stroke-linecap="butt"/><g data-paper-data="{&quot;index&quot;:null}" stroke="#000000"><g data-paper-data="{&quot;index&quot;:null}"><path d="M260.35381,226.92743l-17.79688,2.8958l-6.73217,-2.52887l-1.27154,-32.96231l8.12705,-2.41843l6.30961,3.30831z" data-paper-data="{&quot;index&quot;:null}" fill="#73fffc" stroke-width="2" stroke-linecap="butt"/><path d="M241.68259,228.33665l-3.28011,-24.91141l4.21668,25.42851z" fill="#59a9e6" stroke-width="0" stroke-linecap="round"/></g><g><path d="M236.41327,231.21747l-17.98882,3.17956l-6.5276,-4.02268l8.78287,-33.14725l8.63838,-1.75173l6.41536,3.19651z" data-paper-data="{&quot;index&quot;:null}" fill="#73fffc" stroke-width="2" stroke-linecap="butt"/><path d="M217.63,232.74429l4.46745,-25.98345l-3.56613,26.6709z" fill="#59a9e6" stroke-width="0" stroke-linecap="round"/></g><path d="M241.89112,176.45503l10.48273,20.51103l-26.41915,2.96816l-6.08884,-2.46026l2.30982,-20.75309z" fill="#1a54c9" stroke-width="2" stroke-linecap="round"/></g><path d="M205.70561,152.58037c0.90073,-11.78019 5.83395,-21.76007 27.59871,-20.00642c31.53797,2.5411 22.33689,29.88953 22.33689,29.88953c0,0 3.37342,1.59987 1.94487,5.24564c-1.74981,4.46564 -14.17132,9.12237 -27.58956,8.12599c-14.31622,-1.06306 -25.19162,-11.47456 -24.29089,-23.25475z" data-paper-data="{&quot;index&quot;:null}" fill="#faddbf" stroke="#000000" stroke-width="2" stroke-linecap="butt"/><g data-paper-data="{&quot;index&quot;:null}" stroke="#000000" stroke-linecap="butt"><path d="M255.92967,153.50049c-0.25843,3.37987 -0.29779,4.42601 -0.41951,3.87551c-0.12417,-0.56161 0.53302,-2.70465 -1.97237,-4.30467c-0.60711,-0.38772 -3.15083,1.60121 -3.9283,1.18436c-0.48834,-0.26183 -2.32657,-3.14817 -2.87616,-3.38666c-0.38427,-0.16674 -3.8596,2.16308 -4.26251,2.00139c-1.00487,-0.40327 -3.2843,-3.56961 -4.37645,-3.84311c-0.60141,-0.15061 -3.00229,3.24205 -3.6189,3.12203c-0.7952,-0.15478 -2.7024,-3.72959 -3.51005,-3.78956c-2.14789,-0.1595 -2.36274,1.87456 -4.04166,3.50617c-1.09099,1.06026 -3.83704,-4.10141 -4.85732,-2.88027c-1.26706,1.5165 -2.51822,2.9762 -3.84955,3.92991c-1.04448,0.74821 -3.71857,-3.22854 -4.62532,-2.53041c-4.37802,3.37077 -7.18296,5.7584 -6.77897,0.4748c0.81235,-10.62434 13.12149,-1.68273 25.92778,-7.02493c12.25807,-5.11351 23.87519,-0.96828 23.06283,9.65606z" data-paper-data="{&quot;index&quot;:null}" fill="#ef8b89" stroke-width="0"/><path d="M257.45239,151.18336c-0.52208,6.82797 1.7334,2.67715 -3.3641,-0.50135c-0.62379,-0.38896 -3.23015,1.59531 -4.02882,1.17689c-0.50166,-0.26282 -2.39381,-3.15317 -2.95827,-3.39276c-0.39467,-0.16751 -3.95636,2.1559 -4.37014,1.9934c-1.032,-0.40529 -3.37747,-3.57652 -4.49878,-3.85219c-0.61746,-0.15181 -3.07443,3.23668 -3.70743,3.11545c-0.81634,-0.15634 -2.78065,-3.73539 -3.60958,-3.79694c-2.20445,-0.16369 -2.42087,1.87026 -4.1405,3.49884c-1.11746,1.05829 -3.94576,-4.10948 -4.99031,-2.89015c-1.29721,1.51426 -2.57822,2.97175 -3.94251,3.92301c-1.07032,0.74629 -3.82242,-3.23625 -4.75152,-2.53978c-4.48594,3.36275 -7.18862,5.50261 -6.78463,0.21901c0.81234,-10.62435 13.56779,-22.75277 27.1183,-21.74657c13.55051,1.0062 24.84067,14.16882 24.02831,24.79316z" data-paper-data="{&quot;index&quot;:null}" fill="#724e36" stroke-width="2"/><path d="M257.40517,150.83987c-0.52208,6.82797 1.7334,2.67715 -3.3641,-0.50135c-0.62379,-0.38896 -3.23015,1.59531 -4.02882,1.17689c-0.50165,-0.26282 -2.39381,-3.15317 -2.95827,-3.39276c-0.39466,-0.16751 -3.95636,2.1559 -4.37014,1.9934c-1.03201,-0.40529 -3.37747,-3.57652 -4.49878,-3.85219c-0.61746,-0.15181 -3.07444,3.23668 -3.70744,3.11545c-0.81634,-0.15635 -2.78065,-3.7354 -3.60958,-3.79695c-2.20446,-0.16369 -2.42087,1.87026 -4.1405,3.49884c-1.11746,1.05829 -3.94576,-4.10948 -4.99031,-2.89015c-1.29722,1.51425 -2.57823,2.97174 -3.94252,3.923c-1.07032,0.74629 -3.82242,-3.23625 -4.75152,-2.53978c-4.48594,3.36275 -7.18862,5.50261 -6.78463,0.21901c0.81234,-10.62434 13.29084,-1.41478 26.42186,-6.73287c12.56887,-5.09043 25.53711,-0.84487 24.72475,9.77947z" data-paper-data="{&quot;index&quot;:null}" fill="#623728" stroke-width="0"/></g><path d="M244.2377,161.81875c0.46778,-3.86229 0.91068,-9.06922 2.6008,-8.642c1.69011,0.42722 1.63501,4.04366 1.1934,7.68979c-0.44161,3.64612 -1.59054,8.32186 -3.06268,7.74399c-1.89628,-0.74436 -1.19931,-2.92949 -0.73152,-6.79178z" data-paper-data="{&quot;index&quot;:null}" fill="#000000" stroke="none" stroke-width="0.5" stroke-linecap="butt"/><path d="M236.0556,169.01867c-2.89387,-0.81844 -1.92625,-2.98347 -1.37038,-6.83922c0.55586,-3.85575 1.02163,-9.06099 3.59165,-8.56843c2.57002,0.49256 2.62801,4.1174 2.10324,7.75735c-0.52476,3.63996 -2.0779,8.28568 -4.3245,7.6503z" data-paper-data="{&quot;index&quot;:null}" fill="#000000" stroke="none" stroke-width="0.5" stroke-linecap="butt"/><g data-paper-data="{&quot;index&quot;:null}" stroke="#000000" stroke-linecap="butt"><path d="M250.87792,177.10852c-2.23583,-3.75013 -1.01617,-8.54585 2.72421,-10.71154c3.74039,-2.16568 8.58508,-0.88124 10.82093,2.86889c1.2272,2.05841 1.41337,4.4318 0.71306,6.51239c-0.57558,1.71 -5.96688,5.23777 -7.27937,5.25102c-2.7539,0.02782 -5.46463,-1.38101 -6.97883,-3.92073z" fill="#414b67" stroke-width="2"/><path d="M257.56744,166.95823c0.12485,-0.45087 0.94137,-0.62404 1.82377,-0.38674c0.88238,0.2373 1.4965,0.79518 1.37164,1.24607c-0.12485,0.45087 -0.94137,0.62404 -1.82377,0.38674c-0.88238,-0.2373 -1.4965,-0.79518 -1.37164,-1.24607z" fill="#7082b2" stroke-width="0"/></g><path d="M220.77477,161.7221c1.30514,-0.01794 2.03911,1.25823 1.84971,1.27203c0,0 -3.06174,2.63485 0.62532,5.35347c5.46259,4.02777 11.38104,2.54786 11.43474,2.82341c0.0957,0.49103 -0.40257,0.58533 -0.40257,0.58533c-3.75201,0.7021 -11.70569,0.84882 -14.67296,-0.9891c-5.95335,-3.68748 2.27487,-7.82739 2.27487,-7.82739c0,0 -2.41423,-1.1998 -1.10909,-1.21774z" data-paper-data="{&quot;index&quot;:null}" fill="#000000" stroke="none" stroke-width="0.5" stroke-linecap="butt"/><path d="M219.65056,169.76722c-3.89193,-2.66609 1.71116,-5.41814 1.58319,-5.41467c0,0 -1.79836,2.02172 0.59824,3.96572c3.55069,2.88014 7.44407,2.95407 7.47151,3.14127c0.04889,0.33358 -7.71314,-0.36348 -9.65295,-1.69231z" data-paper-data="{&quot;index&quot;:null}" fill="#ffffff" stroke="none" stroke-width="0.5" stroke-linecap="butt"/><g data-paper-data="{&quot;index&quot;:null}" stroke="#000000"><g data-paper-data="{&quot;index&quot;:null}"><g data-paper-data="{&quot;index&quot;:null}"><path d="M220.53989,186.76787l-0.24365,-6.76487l5.31032,-3.90585l32.51158,1.56607l-4.15153,14.71062l-18.12619,8.30842z" data-paper-data="{&quot;index&quot;:null}" fill="#faddbf" stroke-width="2" stroke-linecap="butt"/><path d="M252.94623,191.2792l-21.39608,-9.14861l21.67506,7.75286z" fill="#ef8b89" stroke-width="0" stroke-linecap="round"/></g><g data-paper-data="{&quot;index&quot;:null}" fill="#ef8b89" stroke-width="0" stroke-linecap="butt"><path d="M236.00019,184.95959l20.35277,-5.98679l-3.15349,12.41762l-17.59618,8.56511z" data-paper-data="{&quot;index&quot;:null}"/></g></g><path d="M237.67288,175.56521l-8.42733,5.47156l-5.44791,9.15058l-3.54215,-3.38704l-0.44188,-6.28269l4.69915,-4.34099z" data-paper-data="{&quot;index&quot;:null}" fill="#1a54c9" stroke-width="2" stroke-linecap="butt"/></g><path d="M136.94445,277.77779v-202.22223h202.22222v202.22222z" data-paper-data="{&quot;index&quot;:null}" fill="none" stroke="#000000" stroke-width="0.00005" stroke-linecap="butt"/></g></g></svg>