<svg version="1.1" xmlns="http://www.w3.org/2000/svg" xmlns:xlink="http://www.w3.org/1999/xlink" width="202.22227" height="202.22228" viewBox="0,0,202.22227,202.22228"><g transform="translate(-136.94442,-75.55554)"><g data-paper-data="{&quot;isPaintingLayer&quot;:true}" fill-rule="nonzero" stroke-linejoin="miter" stroke-miterlimit="10" stroke-dasharray="" stroke-dashoffset="0" style="mix-blend-mode: normal"><path d="M266.66725,181.9864l2.23859,18.02909c0,0 -1.26773,1.25439 -2.32696,1.44171c-1.05924,0.18731 -2.09062,-0.66053 -2.09062,-0.66053l-5.49355,-17.10331" data-paper-data="{&quot;index&quot;:null}" fill="#414b67" stroke="#000000" stroke-width="2" stroke-linecap="round"/><path d="M261.4224,199.16857l-13.10757,-2.96287l-6.11508,-17.29455l2.23379,-4.66355l5.22817,0.5609l9.42745,8.25982l12.09961,-4.45443l3.01996,13.15038z" data-paper-data="{&quot;index&quot;:null}" fill="#ef8b89" stroke="#000000" stroke-width="2" stroke-linecap="round"/><path d="M241.27888,179.30492l3.06875,-4.85052l5.75744,-0.74427l10.28699,8.0946l-5.01423,6.85081l-12.26025,2.16205z" data-paper-data="{&quot;index&quot;:null}" fill="#133c8f" stroke="#000000" stroke-width="2" stroke-linecap="butt"/><g data-paper-data="{&quot;index&quot;:null}" stroke="#000000"><g data-paper-data="{&quot;index&quot;:null}"><path d="M263.55641,226.89807l-18.0241,2.8958l-6.81812,-2.52887l-1.28777,-32.96231l8.23081,-2.41843l9.93902,2.79768z" data-paper-data="{&quot;index&quot;:null}" fill="#73fffc" stroke-width="2" stroke-linecap="butt"/><path d="M244.64681,228.30731l-3.32199,-24.91141l4.27052,25.42851z" fill="#59a9e6" stroke-width="0" stroke-linecap="round"/></g><g><path d="M239.31022,231.18812l-18.21849,3.17956l-6.61094,-4.02268l11.20759,-32.61603l6.43608,-2.28295l10.14987,3.01944z" data-paper-data="{&quot;index&quot;:null}" fill="#73fffc" stroke-width="2" stroke-linecap="butt"/><path d="M220.65888,232.89201l4.52449,-25.98345l-3.61166,26.6709z" fill="#59a9e6" stroke-width="0" stroke-linecap="round"/></g><path d="M249.68638,176.68102l7.21468,20.25571l-28.1829,2.96816l-4.82657,-2.97089l6.09563,-19.73182z" fill="#1a54c9" stroke-width="2" stroke-linecap="round"/></g><g data-paper-data="{&quot;index&quot;:null}" stroke="#000000"><path d="M221.46911,211.1093l-14.96916,-2.4106l-6.48644,-8.25237l22.16536,-22.13353l5.55764,0.76177l2.92748,4.7098z" data-paper-data="{&quot;index&quot;:null}" fill="#faddbf" stroke-width="2" stroke-linecap="butt"/><path d="M206.50428,206.89431l13.17737,-19.14255l-12.67113,20.12374z" fill="#ef8b89" stroke-width="0" stroke-linecap="round"/></g><path d="M212.7433,155.62937c-0.63434,-11.79745 3.01738,-22.31441 25.11027,-23.30185c32.01344,-1.43084 26.34378,26.84845 26.34378,26.84845c0,0 3.59781,1.16424 2.63911,4.9594c-1.17431,4.64863 -13.04388,10.82383 -26.65336,11.51668c-14.52024,0.73921 -26.80545,-8.22526 -27.43979,-20.0227z" data-paper-data="{&quot;index&quot;:null}" fill="#faddbf" stroke="#000000" stroke-width="2" stroke-linecap="butt"/><g data-paper-data="{&quot;index&quot;:null}" stroke="#000000" stroke-linecap="butt"><path d="M253.46934,178.31382c-1.03129,-4.23217 1.59829,-8.46261 5.87335,-9.44896c4.27507,-0.98634 8.57672,1.6449 9.60802,5.87707c0.56604,2.32299 0.02917,4.64543 -1.27734,6.43118c-1.0738,1.46769 -7.35851,3.27764 -8.63302,2.91005c-2.67421,-0.77125 -4.87258,-2.90316 -5.57102,-5.76933z" fill="#414b67" stroke-width="2"/><path d="M263.96288,172.1385c-0.78245,-0.48247 -1.20836,-1.1936 -0.95128,-1.58839c0.25708,-0.39479 1.09982,-0.32376 1.88229,0.15871c0.78245,0.48247 1.20836,1.1936 0.95128,1.58839c-0.25709,0.39478 -1.09982,0.32375 -1.88229,-0.15872z" fill="#7082b2" stroke-width="0"/></g><path d="M229.2106,192.65987l-12.22346,-2.35103l-4.90193,-6.92735l10.41767,-7.93479l5.74457,0.83304l2.98929,4.89727z" data-paper-data="{&quot;index&quot;:null}" fill="#1a54c9" stroke="#000000" stroke-width="2" stroke-linecap="butt"/><g data-paper-data="{&quot;index&quot;:null}" stroke="#000000" stroke-linecap="butt"><path d="M263.01245,152.33284c0,3.38945 0.04103,4.43555 -0.1244,3.89562c-0.16877,-0.55083 0.32944,-2.73648 -2.32431,-4.14646c-0.64306,-0.34167 -3.0584,1.82998 -3.87575,1.47188c-0.51339,-0.22493 -2.59271,-2.967 -3.16616,-3.16412c-0.40095,-0.13782 -3.7308,2.44275 -4.15018,2.31135c-1.04597,-0.32772 -3.59247,-3.31633 -4.71656,-3.50819c-0.619,-0.10565 -2.78168,3.45519 -3.41367,3.38117c-0.81503,-0.09546 -3.01716,-3.51894 -3.83744,-3.51894c-2.18148,0 -2.24139,2.04422 -3.81095,3.79553c-1.01994,1.13804 -4.19177,-3.8057 -5.12785,-2.51247c-1.16251,1.60603 -2.31335,3.15425 -3.58422,4.20384c-0.99704,0.82344 -4.0047,-2.94407 -4.86652,-2.18077c-4.16108,3.68541 -6.80944,6.27399 -6.80944,0.97541c0,-10.65446 13.12152,-2.64956 25.64213,-8.92491c11.98461,-6.00671 24.03688,-2.73339 24.03688,7.92107z" data-paper-data="{&quot;index&quot;:null}" fill="#ef8b89" stroke-width="0"/><path d="M264.37133,149.90954c0,6.84732 1.95729,2.54123 -3.43613,-0.25084c-0.66,-0.34167 -3.13897,1.82998 -3.97785,1.47188c-0.52692,-0.22493 -2.66099,-2.967 -3.24955,-3.16412c-0.41151,-0.13782 -3.82907,2.44275 -4.2595,2.31135c-1.07352,-0.32773 -3.6871,-3.31633 -4.8408,-3.50819c-0.6353,-0.10566 -2.85495,3.45518 -3.50358,3.38116c-0.8365,-0.09545 -3.09664,-3.51893 -3.93853,-3.51893c-2.23893,0 -2.30043,2.04422 -3.91133,3.79553c-1.04681,1.13804 -4.30218,-3.8057 -5.26292,-2.51247c-1.19312,1.60603 -2.37428,3.15425 -3.67862,4.20384c-1.02331,0.82344 -4.11019,-2.94407 -4.99471,-2.18077c-4.2707,3.68541 -6.83491,6.01934 -6.83491,0.72076c0,-10.65446 11.94523,-23.69308 25.70765,-23.69308c13.76242,0 26.1808,12.28943 26.1808,22.94389z" data-paper-data="{&quot;index&quot;:null}" fill="#724e36" stroke-width="2"/><path d="M264.2971,149.57049c0,6.84732 1.95729,2.54123 -3.43613,-0.25084c-0.66,-0.34167 -3.13897,1.82998 -3.97785,1.47188c-0.52691,-0.22493 -2.66099,-2.967 -3.24955,-3.16412c-0.4115,-0.13782 -3.82907,2.44275 -4.2595,2.31135c-1.07353,-0.32773 -3.6871,-3.31633 -4.8408,-3.50819c-0.6353,-0.10566 -2.85496,3.45518 -3.50359,3.38116c-0.8365,-0.09546 -3.09664,-3.51894 -3.93853,-3.51894c-2.23894,0 -2.30043,2.04422 -3.91133,3.79553c-1.04681,1.13804 -4.30218,-3.8057 -5.26292,-2.51247c-1.19313,1.60603 -2.37429,3.15425 -3.67863,4.20384c-1.02331,0.82344 -4.11019,-2.94407 -4.99471,-2.18077c-4.2707,3.68541 -6.83491,6.01934 -6.83491,0.72076c0,-10.65446 13.31325,-2.39491 26.16366,-8.67026c12.30029,-6.00671 25.7248,-2.73339 25.7248,7.92107z" data-paper-data="{&quot;index&quot;:null}" fill="#623728" stroke-width="0"/></g><g data-paper-data="{&quot;index&quot;:null}" stroke="none" stroke-width="0.5" stroke-linecap="butt"><path d="M236.8943,170.00789c0,0 -6.39212,7.7123 -9.40095,6.49726c-3.81957,-1.54244 -0.08821,-13.40134 -0.08821,-13.40134c0,0 -2.12616,0.43099 -2.04147,-0.56562c0.08469,-0.99661 4.58273,-0.19382 4.58273,-0.19382c0,0 -1.33174,1.12164 -0.496,2.14548c5.13087,6.28569 15.58262,4.69742 15.66745,5.694c0.08485,0.99659 -8.22356,-0.17595 -8.22356,-0.17595zM228.22702,163.93999c0,0 -2.95542,9.2947 -0.32437,10.99529c2.63105,1.70059 7.34606,-4.54186 7.97242,-5.26479c-1.12597,-0.39102 -3.50849,-1.34248 -4.87785,-2.3685c-1.36936,-1.02603 -2.77021,-3.36201 -2.77021,-3.36201z" fill="#000000"/><path d="M227.87619,174.97814c-2.63105,-1.7006 0.32648,-11.0822 0.32648,-11.0822c0,0 1.41873,2.33042 2.78809,3.35644c1.36936,1.02602 3.80965,2.02941 4.93563,2.42042c-0.62636,0.72294 -5.41915,7.00594 -8.0502,5.30535z" data-paper-data="{&quot;noHover&quot;:false,&quot;origItem&quot;:[&quot;Path&quot;,{&quot;applyMatrix&quot;:true,&quot;segments&quot;:[[489.75881,336.88645],[[483.06683,342.31726],[3.03881,-1.4416],[-3.03881,1.4416]],[[472.78663,344.93799],[2.30712,-0.30058],[0.88535,1.67108]],[[485.72188,358.51254],[-5.72409,2.24054],[5.72409,-2.24054]]],&quot;closed&quot;:true,&quot;fillColor&quot;:[0,0,0,1]}]}" fill="#852368"/></g><path d="M252.22381,160.68277c0.17417,-3.88601 0.21938,-9.11102 1.95923,-8.81015c1.73984,0.30087 1.96345,3.91117 1.79902,7.57969c-0.16443,3.66852 -0.96368,8.41611 -2.49503,7.94888c-1.97254,-0.60185 -1.4374,-2.83241 -1.26322,-6.71842z" data-paper-data="{&quot;index&quot;:null}" fill="#000000" stroke="none" stroke-width="0.5" stroke-linecap="butt"/><path d="M244.47467,167.65124c-2.98572,-0.60185 -2.1757,-2.83241 -1.91206,-6.71842c0.26364,-3.88601 0.33207,-9.11102 2.96558,-8.81015c2.63351,0.30087 2.97197,3.91117 2.72308,7.57969c-0.24888,3.66852 -1.45867,8.41611 -3.77658,7.94888z" data-paper-data="{&quot;index&quot;:null}" fill="#000000" stroke="none" stroke-width="0.5" stroke-linecap="butt"/><path d="M136.94445,277.77779v-202.22223h202.22222v202.22222z" data-paper-data="{&quot;index&quot;:null}" fill="none" stroke="#000000" stroke-width="0.00005" stroke-linecap="butt"/></g></g></svg>