<svg version="1.1" xmlns="http://www.w3.org/2000/svg" xmlns:xlink="http://www.w3.org/1999/xlink" width="202.22227" height="202.22228" viewBox="0,0,202.22227,202.22228"><g transform="translate(-136.94442,-75.55554)"><g data-paper-data="{&quot;isPaintingLayer&quot;:true}" fill-rule="nonzero" stroke-linejoin="miter" stroke-miterlimit="10" stroke-dasharray="" stroke-dashoffset="0" style="mix-blend-mode: normal"><path d="M262.59805,178.6481l8.27754,16.16401c0,0 -0.72376,1.60354 -1.62611,2.13566c-0.90235,0.53212 -2.13719,0.08357 -2.13719,0.08357l-10.92933,-14.20025" data-paper-data="{&quot;index&quot;:null}" fill="#414b67" stroke="#000000" stroke-width="2" stroke-linecap="round"/><path d="M263.75017,196.53509l-12.99205,1.62971l-11.56293,-14.17061l0.42709,-5.12745l4.96742,-1.23263l11.46342,4.57869l9.50719,-8.25041l7.30411,11.32332z" data-paper-data="{&quot;index&quot;:null}" fill="#ef8b89" stroke="#000000" stroke-width="2" stroke-linecap="round"/><path d="M238.49055,184.67351l1.12478,-5.58379l4.99938,-2.63536l12.1911,4.13447l-2.20947,8.11524l-10.44647,6.15347z" data-paper-data="{&quot;index&quot;:null}" fill="#133c8f" stroke="#000000" stroke-width="2" stroke-linecap="butt"/><g data-paper-data="{&quot;index&quot;:null}" stroke="#000000"><g data-paper-data="{&quot;index&quot;:null}"><path d="M260.22553,226.79786l-17.04854,2.946l-6.44909,-2.57271l-1.21807,-33.53371l7.78531,-2.46036l7.81878,2.84618z" data-paper-data="{&quot;index&quot;:null}" fill="#73fffc" stroke-width="2" stroke-linecap="butt"/><path d="M242.33941,228.23153l-3.14219,-25.34325l4.03938,25.86931z" fill="#59a9e6" stroke-width="0" stroke-linecap="round"/></g><g><path d="M237.29168,231.16229l-17.23242,3.23468l-6.25313,-4.09242l8.66706,-33.72185l8.02165,-1.7821l7.66658,3.25192z" data-paper-data="{&quot;index&quot;:null}" fill="#73fffc" stroke-width="2" stroke-linecap="butt"/><path d="M219.29819,232.71557l4.27961,-26.43388l-3.41618,27.13324z" fill="#59a9e6" stroke-width="0" stroke-linecap="round"/></g><path d="M244.82067,175.71029l6.99999,20.60685l-24.54777,3.01961l-4.56533,-3.02239l3.48016,-20.07387z" fill="#1a54c9" stroke-width="2" stroke-linecap="round"/></g><path d="M208.02096,155.45378c-0.73872,-11.79046 2.70604,-22.34347 24.19209,-23.55229c31.13411,-1.75163 25.90886,26.58299 25.90886,26.58299c0,0 3.51264,1.12812 2.61892,4.93269c-1.09471,4.66015 -12.58011,10.95399 -25.81489,11.78321c-14.12047,0.88471 -26.16623,-7.95615 -26.90495,-19.74661z" data-paper-data="{&quot;index&quot;:null}" fill="#faddbf" stroke="#000000" stroke-width="2" stroke-linecap="butt"/><g data-paper-data="{&quot;index&quot;:null}" stroke="#000000" stroke-linecap="butt"><path d="M257.17245,149.56737c0.21195,3.38282 0.31721,4.42438 0.12279,3.89557c-0.19834,-0.53948 0.14882,-2.75117 -2.51652,-3.99692c-0.64587,-0.30188 -2.8557,2.01249 -3.67186,1.70482c-0.51264,-0.19325 -2.70342,-2.80344 -3.27264,-2.96528c-0.39799,-0.11315 -3.47037,2.66497 -3.88587,2.55935c-1.03627,-0.26344 -3.69616,-3.09125 -4.79981,-3.21434c-0.60774,-0.06778 -2.48534,3.61768 -3.10372,3.58226c-0.79748,-0.04568 -3.15013,-3.32847 -3.94674,-3.27856c-2.11851,0.13273 -2.04887,2.1766 -3.46362,4.01998c-0.91933,1.19787 -4.30876,-3.5432 -5.13696,-2.19554c-1.02853,1.67362 -2.04934,3.28884 -3.2179,4.4137c-0.91678,0.8825 -4.07322,-2.69463 -4.86244,-1.88039c-3.81054,3.93138 -6.2206,6.67604 -6.55193,1.38783c-0.66624,-10.63361 12.57714,-3.44277 24.344,-10.46767c11.26312,-6.72417 23.17225,-4.19059 23.83849,6.44302z" data-paper-data="{&quot;index&quot;:null}" fill="#ef8b89" stroke-width="0"/><path d="M258.34059,147.06611c0.42818,6.83392 2.05971,2.41717 -3.35265,-0.04127c-0.66232,-0.30084 -2.93394,2.0174 -3.77101,1.71104c-0.52578,-0.19242 -2.76973,-2.79928 -3.35363,-2.9602c-0.40826,-0.11251 -3.56581,2.67095 -3.99204,2.566c-1.06303,-0.26177 -3.78807,-3.08549 -4.92047,-3.20678c-0.62358,-0.0668 -2.5565,3.62213 -3.19104,3.58772c-0.81832,-0.04437 -3.2273,-3.32363 -4.0449,-3.2724c-2.17432,0.13623 -2.10621,2.18019 -3.56111,4.02609c-0.94544,1.19951 -4.416,-3.53648 -5.26814,-2.18732c-1.05826,1.67548 -2.10852,3.29254 -3.30958,4.41944c-0.94228,0.8841 -4.17566,-2.68822 -4.98693,-1.87259c-3.91699,3.93806 -6.26125,6.42344 -6.59258,1.13523c-0.66625,-10.6336 10.11892,-24.37353 23.48415,-25.21092c13.36524,-0.83739 26.1937,10.67238 26.85994,21.30599z" data-paper-data="{&quot;index&quot;:null}" fill="#724e36" stroke-width="2"/><path d="M258.24732,146.73225c0.42818,6.83392 2.05971,2.41717 -3.35265,-0.04127c-0.66232,-0.30084 -2.93394,2.0174 -3.77101,1.71104c-0.52577,-0.19242 -2.76973,-2.79928 -3.35363,-2.9602c-0.40825,-0.11251 -3.56581,2.67095 -3.99204,2.566c-1.06304,-0.26177 -3.78807,-3.08549 -4.92047,-3.20678c-0.62358,-0.0668 -2.55651,3.62213 -3.19105,3.58772c-0.81833,-0.04438 -3.22731,-3.32364 -4.04491,-3.27241c-2.17433,0.13623 -2.10621,2.18019 -3.56111,4.02609c-0.94544,1.19951 -4.416,-3.53648 -5.26814,-2.18732c-1.05827,1.67548 -2.10853,3.29254 -3.30959,4.41944c-0.94228,0.8841 -4.17566,-2.68822 -4.98693,-1.87259c-3.91699,3.93806 -6.26125,6.42344 -6.59258,1.13523c-0.66624,-10.63361 12.77926,-3.20028 24.8664,-10.24525c11.56968,-6.74338 24.81145,-4.2933 25.47769,6.34031z" data-paper-data="{&quot;index&quot;:null}" fill="#623728" stroke-width="0"/></g><path d="M248.54892,166.01765c-1.95325,-0.48065 -1.57303,-2.73941 -1.64688,-6.62841c-0.07386,-3.889 -0.35668,-9.10654 1.35177,-8.91212c1.70845,0.19442 2.15137,3.78404 2.22108,7.45539c0.06972,3.67135 -0.40959,8.45828 -1.92596,8.08514z" data-paper-data="{&quot;index&quot;:null}" fill="#000000" stroke="none" stroke-width="0.5" stroke-linecap="butt"/><path d="M238.84558,167.37709c-2.93719,-0.419 -2.29002,-2.69448 -2.27699,-6.58893c0.01303,-3.89444 -0.24724,-9.11339 2.32908,-8.97335c2.57632,0.14005 3.13078,3.72269 3.11847,7.39917c-0.0123,3.67648 -0.8903,8.48839 -3.17053,8.16311z" data-paper-data="{&quot;index&quot;:null}" fill="#000000" stroke="none" stroke-width="0.5" stroke-linecap="butt"/><g data-paper-data="{&quot;index&quot;:null}" stroke="#000000" stroke-width="2"><path d="M197.45986,197.85276l2.07424,-14.52548l13.15929,3.83672l9.25771,-9.7453l5.47514,-1.04059l2.75538,4.87833l-4.9921,19.27997l-13.59466,4.29875z" fill="#faddbf" stroke-linecap="round"/><path d="M230.22243,194.25794l-13.13448,-1.33483l-5.87808,-7.02326l10.17973,-9.63691l6.14497,0.33262l3.65323,5.01236z" data-paper-data="{&quot;index&quot;:null}" fill="#1a54c9" stroke-linecap="butt"/></g><g data-paper-data="{&quot;index&quot;:null}" stroke="#000000" stroke-linecap="butt"><path d="M249.27814,179.64224c-2.40489,-3.62418 -1.46669,-8.47839 2.09554,-10.84219c3.56224,-2.36377 8.39955,-1.34203 10.80445,2.28215c1.32,1.98928 1.63282,4.34911 1.05736,6.46429c-0.47296,1.73843 -5.58529,5.55113 -6.87606,5.63501c-2.70831,0.17601 -5.45261,-1.08481 -7.08129,-3.53923z" fill="#414b67" stroke-width="2"/><path d="M256.72392,170.31741c-0.88122,-0.18945 -1.51598,-0.71345 -1.41775,-1.17038c0.09824,-0.45692 0.89223,-0.67379 1.77347,-0.48434c0.88122,0.18945 1.51598,0.71345 1.41775,1.17038c-0.09823,0.45692 -0.89222,0.67379 -1.77346,0.48434z" fill="#7082b2" stroke-width="0"/></g><path d="M199.70104,198.41777l26.14469,2.18356l-22.11822,-0.13598z" data-paper-data="{&quot;index&quot;:null}" fill="#ef8b89" stroke="#000000" stroke-width="0" stroke-linecap="round"/><g data-paper-data="{&quot;index&quot;:null}" stroke="none" stroke-width="0.5" stroke-linecap="butt"><path d="M236.65804,170.78327c0,0 -2.51894,4.39778 -5.62978,3.78905c-3.94907,-0.77275 -4.79186,-8.71963 -4.79186,-8.71963c0,0 -1.94187,0.83371 -2.05924,-0.1594c-0.11737,-0.99311 4.33166,-1.07649 4.33166,-1.07649c0,0 -1.04698,1.35689 -0.04645,2.19861c6.14255,5.16766 15.7938,1.5892 16.07282,2.54948c0.27904,0.96029 -7.87714,1.41841 -7.87714,1.41841zM227.18639,166.51321c0,0 0.53721,5.78195 3.38433,6.93962c2.84711,1.15767 4.5947,-1.97335 5.04829,-2.80302c-1.15149,-0.16539 -3.61266,-0.63696 -5.1225,-1.3776c-1.50984,-0.74065 -3.31013,-2.75901 -3.31013,-2.75901z" fill="#000000"/><path d="M230.39325,173.4416c-2.84712,-1.15768 -3.23882,-6.96684 -3.23882,-6.96684c0,0 1.81622,2.00944 3.32606,2.75008c1.50983,0.74063 4.03642,1.25192 5.18792,1.4173c-0.45359,0.82968 -1.68747,4.04005 -4.53459,2.88238z" data-paper-data="{&quot;noHover&quot;:false,&quot;origItem&quot;:[&quot;Path&quot;,{&quot;applyMatrix&quot;:true,&quot;segments&quot;:[[489.75881,336.88645],[[483.06683,342.31726],[3.03881,-1.4416],[-3.03881,1.4416]],[[472.78663,344.93799],[2.30712,-0.30058],[0.88535,1.67108]],[[485.72188,358.51254],[-5.72409,2.24054],[5.72409,-2.24054]]],&quot;closed&quot;:true,&quot;fillColor&quot;:[0,0,0,1]}]}" fill="#852368"/></g><path d="M136.94445,277.77779v-202.22223h202.22222v202.22222z" data-paper-data="{&quot;index&quot;:null}" fill="none" stroke="#000000" stroke-width="0.00005" stroke-linecap="butt"/></g></g></svg>