<svg version="1.1" xmlns="http://www.w3.org/2000/svg" xmlns:xlink="http://www.w3.org/1999/xlink" width="193.26847" height="319.79546" viewBox="0,0,193.26847,319.79546"><g transform="translate(-208.71741,-40.47938)"><g data-paper-data="{&quot;isPaintingLayer&quot;:true}" fill-rule="nonzero" stroke-linejoin="miter" stroke-miterlimit="10" stroke-dasharray="" stroke-dashoffset="0" style="mix-blend-mode: normal"><g data-paper-data="{&quot;index&quot;:null}" stroke="#000000" stroke-linecap="butt"><path d="M283.3692,239.58046c20.063,26.6232 17.30845,35.86807 10.8465,40.73773c-6.46195,4.86967 -27.96467,-12.76507 -48.02767,-39.38828c-20.06299,-26.62321 51.94403,-21.10263 58.40598,-25.97229c7.07874,-0.46879 5.29938,5.81067 -0.76339,10.81055c-7.47682,6.16603 -22.17633,11.53665 -20.46143,13.8123z" fill="#216aff" stroke-width="2"/><path d="M308.09553,252.30678c8.61155,11.42735 6.09049,27.85174 -5.63095,36.68491c-11.72144,8.83317 -28.20459,6.73017 -36.81614,-4.69718c-8.61155,-11.42735 -6.09048,-27.85175 5.63096,-36.68492c11.72144,-8.83317 28.20458,-6.73016 36.81613,4.69719z" fill="#faddbf" stroke-width="2"/><path d="M269.33707,266.90228c8.61155,11.42735 44.6484,12.33367 32.92696,21.16684c-11.72144,8.83317 -28.20459,6.73017 -36.81613,-4.69719c-8.61155,-11.42735 -4.72238,-27.89702 3.88917,-16.46965z" fill="#ef8b89" stroke-width="0"/></g><g data-paper-data="{&quot;index&quot;:null}" stroke="#000000" stroke-linecap="butt"><path d="M275.77345,340.12277v-95.29492h29.49199v95.29492z" fill="#73fffc" stroke-width="2"/><path d="M276.75616,339.17636l18.60659,-13.13896c0,0 2.26208,-0.70825 2.52228,-2.78987c1.17702,-9.41615 6.3799,-77.52842 6.3799,-77.52842l1.32626,93.78573z" fill="#59a9e6" stroke-width="0"/></g><g data-paper-data="{&quot;index&quot;:null}" stroke="#000000" stroke-linecap="butt"><path d="M315.11483,337.70022v-95.29492h29.49199v95.29492z" fill="#73fffc" stroke-width="2"/><path d="M316.09754,336.75385l18.60659,-13.13896c0,0 2.26208,-0.70825 2.52228,-2.78987c1.17702,-9.41615 6.3799,-77.52842 6.3799,-77.52842l1.32626,93.78573z" fill="#59a9e6" stroke-width="0"/></g><g data-paper-data="{&quot;index&quot;:null}" stroke="#000000" stroke-linecap="butt"><path d="M311.79114,179.42775c18.77199,0 33.98969,24.87307 33.98969,55.55556c0,8.35076 6.37392,33.61764 4.35457,40.7234c-5.40019,19.00234 -24.68139,14.83216 -38.34426,14.83216c-10.32729,0 -32.7059,2.78608 -38.9397,-9.09579c-5.09742,-9.71589 4.95001,-32.65706 4.95001,-46.45977c0,-30.68249 15.2177,-55.55556 33.98969,-55.55556z" fill="#216aff" stroke-width="2"/><path d="M339.53038,204.39673c2.17098,1.37012 5.51953,20.51569 5.51953,29.96813c0,8.35075 6.37393,33.61764 4.35457,40.7234c-5.40019,19.00233 -24.68138,14.83215 -38.34425,14.83215c-10.32729,0 -32.7059,2.78607 -38.9397,-9.09579c-5.09743,-9.71588 56.94455,-16.46203 56.94455,-30.26474c0,-21.0232 4.52139,-62.9273 10.4653,-46.16315z" fill="#3236f4" stroke-width="0"/></g><g data-paper-data="{&quot;index&quot;:null}" stroke="#000000" stroke-linecap="butt"><g><path d="M311.58353,212.3396c-46.03894,8.35425 -90.13332,-22.19525 -98.48756,-68.2342c-8.35425,-46.03894 22.19525,-90.13332 68.2342,-98.48756c46.03894,-8.35425 90.13332,22.19525 98.48756,68.2342c8.35425,46.03894 -22.19525,90.13332 -68.2342,98.48756z" fill="#faddbf" stroke-width="2"/><path d="M379.43542,113.03774c8.35425,46.03894 -22.19525,90.13332 -68.2342,98.48756c-5.9655,1.08249 -18.5457,1.37324 -21.02475,1.0009c-1.54975,-0.23277 25.51495,-11.62167 43.09192,-28.33497c9.43164,-8.9682 12.98404,-24.25906 14.97643,-29.44052c1.51411,-0.72084 2.341,-20.8329 2.33313,-20.89277c-3.29637,-25.10477 -39.50242,-81.83585 -32.12078,-85.78832c0.56576,-0.30295 13.5563,4.25919 24.2441,10.8043c8.59886,5.26585 15.31098,12.7306 15.88319,12.99984c5.01046,2.35747 18.16309,26.35156 20.85095,41.16395z" fill="#ef8b89" stroke-width="0"/><path d="M213.52917,143.56114c-6.52405,-35.95301 34.41965,-54.79207 77.44914,-41.6634c44.95398,13.71583 82.4885,-21.88443 89.01254,14.06859c3.24448,17.87983 -6.38815,11.49269 -22.30778,1.53571c-3.29717,-2.06223 -10.86585,12.44311 -14.64385,10.2585c-4.81558,-2.78458 -9.54241,-7.32329 -14.3429,-12.05012c-3.8655,-3.8062 -11.25299,14.76608 -15.29882,11.53351c-6.22603,-4.97453 -7.67449,-11.83697 -14.83736,-10.53719c-2.6934,0.48875 -7.82779,13.35324 -10.44549,14.16096c-2.02981,0.62632 -11.31137,-10.10099 -13.27916,-9.37565c-3.57346,1.3172 -10.10489,12.91939 -13.33865,14.64848c-1.29659,0.69329 -13.8103,-6.03074 -15.04242,-5.32677c-1.76223,1.00683 -6.91058,11.49875 -8.45857,12.56367c-2.4645,1.6954 -11.72503,-4.19363 -13.6273,-2.65754c-7.85024,6.3391 -6.06488,14.06906 -6.28175,16.02836c-0.21257,1.92054 -2.48219,-1.74959 -4.55765,-13.18714z" fill="#ef8b89" stroke-width="0"/></g><path d="M210.53605,135.65766c-6.52405,-35.95302 26.72647,-84.82237 71.91534,-93.02236c45.18889,-8.19998 92.39494,28.68107 98.91898,64.63409c3.24448,17.87984 -6.60424,11.53191 -22.88376,1.64024c-3.37171,-2.0487 -11.20052,12.50384 -15.06475,10.33488c-4.92548,-2.76463 -9.75185,-7.28527 -14.65288,-11.99387c-3.94647,-3.7915 -11.60828,14.83055 -15.74232,11.61399c-6.36178,-4.9499 -7.81541,-11.8114 -15.16697,-10.47739c-2.76434,0.50162 -8.08919,13.40066 -10.77738,14.22118c-2.08449,0.63624 -11.55309,-10.05713 -13.57442,-9.32207c-3.67068,1.33483 -10.42235,12.97697 -13.74657,14.72249c-1.33286,0.69987 -14.13458,-5.9719 -15.40137,-5.26164c-1.81183,1.01584 -7.14002,11.54038 -8.73241,12.61336c-2.53521,1.70823 -12.00463,-4.14288 -13.96252,-2.5967c-15.99962,12.63524 -6.93611,25.99978 -11.12894,2.89377z" fill="#724e36" stroke-width="2"/><path d="M210.57222,134.46932c-6.52404,-35.95301 35.55093,-54.99736 79.61697,-42.05678c46.03687,13.51934 84.69329,-22.28452 91.21733,13.6685c3.24448,17.87984 -6.60424,11.53191 -22.88376,1.64024c-3.37171,-2.0487 -11.20052,12.50384 -15.06475,10.33488c-4.92549,-2.76462 -9.75186,-7.28526 -14.65289,-11.99386c-3.94647,-3.7915 -11.60828,14.83055 -15.74232,11.61399c-6.36178,-4.9499 -7.81541,-11.8114 -15.16697,-10.47739c-2.76434,0.50162 -8.08919,13.40066 -10.77738,14.22118c-2.08449,0.63624 -11.55309,-10.05713 -13.57442,-9.32207c-3.67068,1.33483 -10.42235,12.97697 -13.74657,14.72249c-1.33286,0.69987 -14.13458,-5.9719 -15.40137,-5.26164c-1.81184,1.01584 -7.14003,11.54038 -8.73242,12.61336c-2.53521,1.70823 -12.00463,-4.14288 -13.96252,-2.5967c-15.99962,12.63524 -6.93611,25.99978 -11.12894,2.89377z" fill="#623728" stroke-width="0"/></g><g data-paper-data="{&quot;index&quot;:null}" stroke="#000000" stroke-linecap="butt"><path d="M282.01343,154.876c-5.09904,-28.10006 3.98302,-53.27775 20.28533,-56.23597c16.30231,-2.95822 33.65154,17.42325 38.75058,45.5233c5.09904,28.10004 -5.74548,45.03898 -22.04779,47.9972c-16.30231,2.95823 -31.88907,-9.18449 -36.98811,-37.28454z" fill="#f0f0f0" stroke-width="2"/><path d="M324.52156,127.26028c-13.40788,-39.0501 10.65471,-11.90037 15.75375,16.19968c5.09904,28.10004 -5.74548,45.03898 -22.04779,47.9972c-16.30231,2.95822 15.56834,-37.18578 6.29405,-64.19689z" fill="#9a99ff" stroke-width="0"/></g><path d="M292.50494,132.2234c5.69111,-1.03271 12.59477,10.75045 15.41974,26.31843c2.82496,15.56798 0.50147,29.0255 -5.18964,30.05821c-5.69111,1.03271 -12.59477,-10.75045 -15.41974,-26.31843c-2.82496,-15.56798 -0.50147,-29.0255 5.18964,-30.05821z" data-paper-data="{&quot;index&quot;:null}" fill="#000000" stroke="none" stroke-width="0" stroke-linecap="butt"/><g data-paper-data="{&quot;index&quot;:null}" stroke="#000000" stroke-linecap="butt"><path d="M281.57974,124.42953c2.44098,-10.3513 6.02341,-22.99906 21.48124,-25.80404c15.45783,-2.80497 20.07441,8.82787 25.9627,17.05751c6.18852,8.64927 -4.26814,15.26408 -19.72597,18.06906c-15.45783,2.80498 -30.27931,1.53911 -27.71798,-9.32253z" fill="#a100fe" stroke-width="2"/><path d="M282.42593,123.91596c2.29839,-10.32541 9.68279,-0.91665 24.61355,-3.62598c14.93075,-2.70933 15.46863,-13.08281 21.21184,-4.82684c6.03603,8.67693 -4.03582,15.22192 -18.96658,17.93125c-14.93077,2.70933 -29.27055,1.35607 -26.85884,-9.47843z" fill="#99008e" stroke-width="0"/></g><g data-paper-data="{&quot;index&quot;:null}" stroke="#000000" stroke-linecap="butt"><path d="M239.33208,108.56318c16.30231,-2.95822 33.65154,17.42325 38.75058,45.5233c5.09905,28.10005 -5.22762,44.94502 -21.52993,47.90324c-16.30232,2.95823 -32.40695,-9.09052 -37.50599,-37.19056c-5.09904,-28.10006 3.98302,-53.27775 20.28533,-56.23597z" fill="#f0f0f0" stroke-width="2"/><path d="M219.5243,163.86867c-5.09903,-28.10005 7.89034,-61.97322 9.05757,-20.70195c0.80738,28.54753 44.75072,54.9343 28.44841,57.89252c-16.30232,2.95823 -32.40695,-9.09052 -37.50599,-37.19056z" fill="#9a99ff" stroke-width="0"/></g><path d="M245.09786,169.76817c2.82496,15.56798 0.50147,29.0255 -5.18964,30.05821c-5.69111,1.03271 -12.59477,-10.75045 -15.41974,-26.31843c-2.82496,-15.56798 -0.50147,-29.0255 5.18964,-30.05821c5.69111,-1.03271 12.59477,10.75045 15.41974,26.31843z" data-paper-data="{&quot;index&quot;:null}" fill="#000000" stroke="none" stroke-width="0" stroke-linecap="butt"/><g data-paper-data="{&quot;index&quot;:null}" stroke="#000000" stroke-linecap="butt"><path d="M245.116,143.89567c-15.45783,2.80499 -27.57194,0.28587 -24.8169,-9.9863c2.62139,-9.7738 2.85641,-22.28702 18.31424,-25.092c15.45783,-2.80498 23.25567,7.77771 29.17795,16.6114c6.21429,9.26923 -7.21746,15.66192 -22.67529,18.4669z" fill="#a100fe" stroke-width="2"/><path d="M266.81864,125.24525c6.06466,9.29636 -6.8854,15.60166 -21.81616,18.31099c-14.93075,2.70934 -26.66006,0.12041 -24.0575,-10.1241c2.47629,-9.74748 6.6246,-0.22436 21.55536,-2.93369c14.93077,-2.70933 18.53859,-14.11277 24.31829,-5.2532z" fill="#99008e" stroke-width="0"/></g><path d="M241.3943,338.15746c0,-11.6628 13.71248,-9.87692 31.62358,-9.87692c14.33063,0 27.65301,-10.77791 32.14847,-5.26144c1.12318,1.37828 1.08979,12.80695 1.08979,15.13837c0,11.6628 -14.51982,21.11737 -32.43092,21.11737c-17.9111,0 -32.43092,-9.45457 -32.43092,-21.11737z" data-paper-data="{&quot;index&quot;:null}" fill="#000082" stroke="#000000" stroke-width="2" stroke-linecap="butt"/><path d="M274.27492,328.85045c14.33063,0 25.38775,-8.75646 29.88321,-5.7726c1.12318,0.74551 1.0898,12.01046 1.0898,13.27153c0,6.30841 -12.25456,9.26589 -30.16566,9.26589c-17.91111,0 -31.80169,-3.88169 -31.80169,-10.1901c0,-6.30841 13.08324,-6.57472 30.99434,-6.57472z" data-paper-data="{&quot;index&quot;:null}" fill="#2e0048" stroke="#000000" stroke-width="0" stroke-linecap="butt"/><path d="M284.38124,337.51262c0,-11.6628 13.71248,-9.87692 31.62358,-9.87692c14.33063,0 27.65301,-10.77791 32.14847,-5.26144c1.12318,1.37828 1.08979,12.80695 1.08979,15.13837c0,11.6628 -14.51982,21.11737 -32.43092,21.11737c-17.9111,0 -32.43092,-9.45457 -32.43092,-21.11737z" data-paper-data="{&quot;index&quot;:null}" fill="#000082" stroke="#000000" stroke-width="2" stroke-linecap="butt"/><path d="M317.26186,328.2056c14.33063,0 25.38775,-8.75646 29.88321,-5.7726c1.12318,0.74551 1.0898,12.01046 1.0898,13.27153c0,6.30841 -12.25456,9.26589 -30.16566,9.26589c-17.91111,0 -31.80169,-3.88169 -31.80169,-10.1901c0,-6.30841 13.08324,-6.57472 30.99434,-6.57472z" data-paper-data="{&quot;index&quot;:null}" fill="#2e0048" stroke="#000000" stroke-width="0" stroke-linecap="butt"/><g data-paper-data="{&quot;index&quot;:null}"><path d="M357.96477,255.04288c-9.13738,8.86039 -20.95467,12.81414 -30.75177,7.47489c-1.8161,-0.98977 -3.81448,-2.05478 -5.44054,-3.73169c-10.39813,-10.72325 -9.31662,-25.35179 1.5146,-35.85464c10.83116,-10.50284 28.93338,-9.92541 36.6661,-1.16868c9.88703,11.19627 8.84276,22.77727 -1.98838,33.28009z" fill="#485e84" stroke="#000000" stroke-width="2" stroke-linecap="butt"/><path d="M336.01196,217.67185c0,0 2.88263,-0.80297 6.4336,-0.86858c3.81542,-0.07049 8.42317,0.65103 11.67798,2.35878c2.55032,1.33815 5.81459,4.49274 7.66376,8.34269c1.19098,2.47962 2.40301,4.76297 2.92869,6.82004c0.53661,2.09976 -0.83001,15.48211 -0.83001,15.48211l-17.12978,12.05941c0,0 -8.20002,1.50606 -11.69965,1.22925c-3.06372,-0.24236 -6.58022,-1.70458 -9.01588,-3.30942c-2.28898,-1.50818 -3.59297,-3.17182 -3.59297,-3.17182c0,0 1.0845,0.29106 1.84582,-0.44413c3.35093,-3.2359 12.68142,-13.73162 15.71413,-32.7073c0.31617,-1.97823 -3.99577,-5.79113 -3.99577,-5.79113z" fill="#343545" stroke="none" stroke-width="0" stroke-linecap="butt"/><path d="M322.5624,224.13972c0,0 12.93146,0.93784 19.05092,3.20646c4.8341,1.79209 9.63668,9.42972 9.63668,9.42972" fill="none" stroke="#000000" stroke-width="1" stroke-linecap="round"/><path d="M341.91504,259.48113c0,0 -9.70242,0.12485 -13.78215,-1.35231c-4.04116,-1.46314 -9.98927,-5.43174 -9.98927,-5.43174" fill="none" stroke="#000000" stroke-width="1" stroke-linecap="round"/><path d="M331.12727,218.11006c0,0 11.52148,1.32334 19.69168,3.93602c5.32446,1.70269 10.13712,9.61625 10.13712,9.61625" fill="none" stroke="#000000" stroke-width="1" stroke-linecap="round"/><path d="M331.18625,264.32229c0,0 -12.23941,-12.15268 -3.05,-28.87869c8.38929,-15.26969 25.58181,-17.24265 25.58181,-17.24265" fill="none" stroke="#000000" stroke-width="1" stroke-linecap="round"/><path d="M339.90908,264.71327c0,0 -9.35198,-11.20086 -3.24977,-22.25141c7.43184,-13.45834 24.54165,-18.36926 24.54165,-18.36926" fill="none" stroke="#000000" stroke-width="1" stroke-linecap="round"/><path d="M319.72741,237.91183c-0.29804,1.16545 -1.28767,1.91899 -2.21031,1.68295c-0.92263,-0.23599 -0.65896,-1.3602 -0.36086,-2.52568c0.29809,-1.16548 0.51769,-1.93083 1.44033,-1.69479c0.92261,0.23597 1.42895,1.37203 1.13085,2.53751z" fill="#8fbbbe" stroke="none" stroke-width="0" stroke-linecap="butt"/><path d="M318.90179,245.13516c-0.43179,0.4187 -0.90798,0.36734 -1.53606,-0.28038c-0.6281,-0.64769 -0.65687,-1.63854 -0.22507,-2.05728c0.43181,-0.4187 0.77767,-0.24096 1.40575,0.40676c0.62807,0.64771 0.78716,1.51219 0.35536,1.93093z" fill="#8fbbbe" stroke="none" stroke-width="0" stroke-linecap="butt"/><path d="M321.50412,231.22545c-0.5771,0.69352 -1.41983,0.94383 -1.8821,0.55909c-0.46233,-0.38476 0.0098,-0.86784 0.58691,-1.56139c0.57712,-0.6935 1.04074,-1.33473 1.50301,-0.94999c0.46232,0.38474 0.36929,1.25877 -0.20782,1.95232z" fill="#8fbbbe" stroke="none" stroke-width="0" stroke-linecap="butt"/><path d="M321.80011,256.98938c0,0 -0.94506,-2.78816 -1.45801,-6.47768c-0.69673,-5.01127 -0.92323,-11.582 0.05802,-14.12594c1.10953,-2.87665 2.61534,-6.65406 5.55203,-9.78973c5.17982,-5.53074 14.43892,-9.88376 14.43892,-9.88376" fill="none" stroke="#000000" stroke-width="0.5" stroke-linecap="round"/><path d="M342.05332,250.49776c0,0 -10.93783,-0.65417 -15.15333,-2.37731c-5.00343,-2.04519 -12.64978,-9.34666 -12.64978,-9.34666" fill="none" stroke="#000000" stroke-width="1" stroke-linecap="round"/><path d="M316.5287,232.51897c0,0 10.40433,0.35594 17.38596,4.13798c3.97631,2.15402 11.04098,8.75088 11.04098,8.75088" fill="none" stroke="#000000" stroke-width="1" stroke-linecap="round"/></g><g data-paper-data="{&quot;index&quot;:null}" stroke="#000000" stroke-linecap="butt"><path d="M361.73538,228.61656c1.3481,-2.51039 -13.99814,-5.57831 -22.32724,-10.53298c-6.75388,-4.01762 -9.46934,-9.95259 -2.40184,-10.56796c7.12854,3.82809 77.45337,-12.60077 61.68165,16.7688c-15.77173,29.36957 -34.33606,50.07504 -41.46461,46.24694c-7.12853,-3.82809 -11.2597,-12.54524 4.51203,-41.9148z" fill="#216aff" stroke-width="2"/><path d="M339.2371,244.96215c6.76963,-12.60616 22.73981,-17.19638 35.67039,-10.25254c12.93059,6.94384 17.92504,22.79226 11.15541,35.39842c-6.76962,12.60616 -22.73981,17.19637 -35.67039,10.25253c-12.93059,-6.94384 -17.92503,-22.79225 -11.1554,-35.39841z" fill="#faddbf" stroke-width="2"/><path d="M379.76705,253.48104c6.76963,-12.60617 13.1231,3.0785 6.35347,15.68466c-6.76962,12.60617 -22.73981,17.19638 -35.67039,10.25254c-12.93059,-6.94384 22.54728,-13.33104 29.31691,-25.9372z" fill="#ef8b89" stroke-width="0"/></g><path d="M343.69309,174.20064c0.71186,-1.0275 1.73935,-0.31562 1.73935,-0.31562l0.68474,0.55243c1.36161,1.81809 2.61119,4.04022 4.95138,4.75985c1.3751,0.42283 3.63805,-0.10518 3.59294,-1.81065c-0.10093,-3.81615 -4.73649,-7.04235 -6.96943,-9.65006c0,0 -0.81249,-0.94991 0.13743,-1.76241c0.94992,-0.8125 1.76241,0.13742 1.76241,0.13742c2.64301,3.09365 7.67253,6.69961 7.56958,11.27476c-0.07677,3.41197 -3.68181,5.09009 -6.74706,4.22383c-2.95662,-0.83556 -4.58328,-3.38755 -6.29777,-5.67344l-0.10794,0.00324c0,0 -1.0275,-0.71186 -0.31562,-1.73936z" data-paper-data="{&quot;index&quot;:null}" fill="#000000" stroke="none" stroke-width="0.5" stroke-linecap="butt"/></g></g></svg>