<svg version="1.1" xmlns="http://www.w3.org/2000/svg" xmlns:xlink="http://www.w3.org/1999/xlink" width="264.91968" height="347.29633" viewBox="0,0,264.91968,347.29633"><g transform="translate(-143.20505,-3.09946)"><g data-paper-data="{&quot;isPaintingLayer&quot;:true}" fill-rule="nonzero" stroke-linejoin="miter" stroke-miterlimit="10" stroke-dasharray="" stroke-dashoffset="0" style="mix-blend-mode: normal"><g stroke="#2a2b40" stroke-linecap="butt"><path d="M330.9913,260.52581l-23.54456,-114.45276l46.0637,-9.47597l23.54456,114.45276z" fill="#000000" stroke-width="2"/><path d="M328.74435,251.61628l-5.26319,-25.58497l46.50241,-9.56621l5.26319,25.58497z" fill="#ffffff" stroke-width="2.5"/></g><path d="M348.52756,336.45358l-49.58668,-80.90346l34.91988,-21.4028l49.58668,80.90346z" fill="#000000" stroke="#2a2b40" stroke-width="2" stroke-linecap="butt"/><path d="M273.9077,349.39579v-94.89051h40.95702v94.89051z" fill="#000000" stroke="#2a2b40" stroke-width="2" stroke-linecap="butt"/><g stroke-linecap="butt"><path d="M272.31352,265.25923l-15.09868,-106.78959l81.53292,-11.52771l15.09868,106.78959z" fill="#000000" stroke="#2a2b40" stroke-width="2"/><path d="M321.12263,178.64649c3.09953,21.92226 -2.89196,40.89614 -13.38237,42.37934c-10.49041,1.48321 -21.50722,-15.08591 -24.60674,-37.00817c-3.09953,-21.92226 3.15488,-30.25262 13.64528,-31.73583c10.49041,-1.48321 21.2443,4.44241 24.34383,26.36465z" fill="#ffffff" stroke="#2a2b40" stroke-width="2.5"/><path d="M306.87782,177.26418c1.92057,13.58373 0.69728,24.98861 -2.73227,25.4735c-3.42955,0.48489 -7.76669,-10.13381 -9.68725,-23.71754c-1.92057,-13.58373 -0.69728,-24.98861 2.73227,-25.4735c3.42955,-0.48489 7.76669,10.13381 9.68725,23.71754z" fill="#000000" stroke="none" stroke-width="0"/></g><g><g><path d="M322.46108,223.3838c-11.62358,-9.6185 -13.57538,-21.0815 -4.59948,-33.02064c7.02011,-9.33773 25.02085,-11.33699 36.64445,-1.71849c11.62365,9.61852 13.85226,24.11669 4.32964,35.62447c-1.48915,1.7996 -3.39758,3.01847 -5.13021,4.14799c-9.34686,6.09319 -21.43849,3.08103 -31.24438,-5.03332z" fill="#485e84" stroke="#000000" stroke-width="2" stroke-linecap="butt"/><path d="M341.407,184.402c0,0 -3.99872,4.14019 -3.52796,6.08743c4.51563,18.67841 14.64264,28.40784 18.23767,31.37019c0.81678,0.67304 1.87503,0.29759 1.87503,0.29759c0,0 -1.16912,1.76103 -3.3324,3.44456c-2.30191,1.79143 -5.69252,3.52566 -8.7277,4.00821c-3.46702,0.55117 -11.76009,-0.30535 -11.76009,-0.30535l-18.02512,-10.67491c0,0 -2.41481,-13.23343 -2.045,-15.36888c0.36227,-2.09204 1.39098,-4.46364 2.38326,-7.02925c1.54067,-3.98345 4.54674,-7.38498 6.98392,-8.91956c3.11043,-1.95843 7.64716,-3.04008 11.45631,-3.26987c3.54512,-0.21384 6.48198,0.35993 6.48198,0.35993z" fill="#343545" stroke="none" stroke-width="0" stroke-linecap="butt"/><path d="M327.71849,204.64536c0,0 4.18705,-7.99167 8.86525,-10.15838c5.9221,-2.74284 18.73975,-4.69475 18.73975,-4.69475" fill="none" stroke="#000000" stroke-width="1" stroke-linecap="round"/><path d="M361.97443,217.91362c0,0 -5.61758,4.42409 -9.53116,6.20051c-3.95093,1.79343 -13.63312,2.432 -13.63312,2.432" fill="none" stroke="#000000" stroke-width="1" stroke-linecap="round"/><path d="M317.64033,200.31093c0,0 4.17541,-8.26754 9.34947,-10.38368c7.93942,-3.24713 19.32115,-5.47244 19.32115,-5.47244" fill="none" stroke="#000000" stroke-width="1" stroke-linecap="round"/><path d="M323.79727,186.32203c0,0 17.29443,0.61477 26.8586,15.17741c10.47633,15.95153 -0.76943,29.02911 -0.76943,29.02911" fill="none" stroke="#000000" stroke-width="1" stroke-linecap="round"/><path d="M316.80089,192.7839c0,0 17.44303,3.55014 25.91026,16.38233c6.95236,10.53643 -1.48978,22.43807 -1.48978,22.43807" fill="none" stroke="#000000" stroke-width="1" stroke-linecap="round"/><path d="M359.23276,203.29871c-0.38883,-1.13843 0.02659,-2.31079 0.92779,-2.61858c0.90122,-0.30787 1.18033,0.43784 1.56915,1.57627c0.38883,1.13843 0.7401,2.23842 -0.16112,2.54624c-0.90122,0.30787 -1.94704,-0.3655 -2.33582,-1.50391z" fill="#8fbbbe" stroke="none" stroke-width="0" stroke-linecap="butt"/><path d="M360.62393,210.43478c-0.46339,-0.38348 -0.37279,-1.2578 0.20241,-1.9529c0.57519,-0.6951 0.90601,-0.89949 1.36941,-0.51605c0.46339,0.38348 0.51264,1.37353 -0.06258,2.0686c-0.57519,0.6951 -1.04587,0.78376 -1.50925,0.40031z" fill="#8fbbbe" stroke="none" stroke-width="0" stroke-linecap="butt"/><path d="M356.93574,196.7728c-0.62986,-0.64601 -0.79135,-1.51003 -0.36071,-1.92993c0.43059,-0.4199 0.94319,0.18289 1.57307,0.82885c0.62986,0.64601 1.13852,1.09047 0.70789,1.5104c-0.43059,0.4199 -1.29038,0.23664 -1.92024,-0.40934z" fill="#8fbbbe" stroke="none" stroke-width="0" stroke-linecap="butt"/><path d="M336.96592,183.78988c0,0 9.57275,3.61137 15.1715,8.71763c3.17419,2.89501 4.9724,6.5423 6.30473,9.32278c1.17828,2.45889 1.46921,9.02708 1.16875,14.07762c-0.22121,3.71844 -0.94407,6.57229 -0.94407,6.57229" fill="none" stroke="#000000" stroke-width="0.5" stroke-linecap="round"/><path d="M364.7608,203.72726c0,0 -7.04846,7.88019 -11.87555,10.31253c-4.06693,2.04932 -14.91944,3.56166 -14.91944,3.56166" fill="none" stroke="#000000" stroke-width="1" stroke-linecap="round"/><path d="M334.67219,212.75554c0,0 6.52399,-7.13202 10.31858,-9.59208c6.66257,-4.31939 17.00669,-5.49246 17.00669,-5.49246" fill="none" stroke="#000000" stroke-width="1" stroke-linecap="round"/></g><g stroke="#2a2b40" stroke-linecap="butt"><path d="M321.18836,268.21656l-85.7858,-98.85337l35.51867,-30.8234l85.7858,98.85337z" fill="#000000" stroke-width="2"/><path d="M313.92486,260.90572l-19.17671,-22.09785l35.85696,-31.11697l19.17671,22.09785z" fill="#ffffff" stroke-width="2.5"/></g></g><g stroke-linecap="butt"><g stroke="#0c0c0c"><g><path d="M255.25214,99.55444c-0.47136,11.15949 -27.3811,19.08555 -60.10461,17.70336c-32.7235,-1.38219 -44.52797,-24.11994 -44.0566,-35.27942c0.47136,-11.15949 23.0249,2.30928 55.7484,3.69147c32.7235,1.38219 48.88417,2.7251 48.41281,13.88459z" fill="#fac843" stroke-width="2"/><path d="M254.157,98.93665c-0.47136,11.15949 -27.3811,19.08555 -60.10461,17.70336c-32.7235,-1.38219 -42.22219,-21.847 -41.75083,-33.00649c0.47136,-11.15949 8.747,27.43831 41.47049,28.8205c32.7235,1.38219 60.8563,-24.67685 60.38494,-13.51736z" fill="#e47816" stroke-width="0"/></g><g><path d="M248.37978,62.78711c-0.47136,11.15949 -27.3811,19.08555 -60.10461,17.70336c-32.7235,-1.38219 -44.52797,-24.11994 -44.0566,-35.27942c0.47136,-11.15949 23.0249,2.30928 55.7484,3.69147c32.7235,1.38219 48.88417,2.7251 48.41281,13.88459z" fill="#fac843" stroke-width="2"/><path d="M247.28465,62.16931c-0.47136,11.15949 -27.3811,19.08555 -60.10461,17.70336c-32.7235,-1.38219 -42.2222,-21.84701 -41.75084,-33.0065c0.47136,-11.15949 8.747,27.43831 41.4705,28.8205c32.7235,1.38219 60.8563,-24.67685 60.38494,-13.51736z" fill="#e47816" stroke-width="0"/></g><g><path d="M257.71621,136.00109c-0.47136,11.15949 -27.3811,19.08555 -60.10461,17.70336c-32.7235,-1.38219 -44.52797,-24.11994 -44.0566,-35.27942c0.47136,-11.15949 23.0249,2.30928 55.7484,3.69147c32.7235,1.38219 48.88417,2.7251 48.41281,13.88459z" fill="#fac843" stroke-width="2"/><path d="M256.62107,135.3833c-0.47136,11.15949 -27.3811,19.08555 -60.10461,17.70336c-32.7235,-1.38219 -42.22219,-21.84701 -41.75083,-33.0065c0.47136,-11.15949 8.747,27.43831 41.47049,28.8205c32.7235,1.38219 60.8563,-24.67685 60.38494,-13.51736z" fill="#e47816" stroke-width="0"/></g></g><g stroke="#0c0c0c"><g data-paper-data="{&quot;index&quot;:null}"><path d="M347.50068,60.32149c31.67965,-8.31491 50.85001,-26.27507 53.68559,-15.47156c2.83558,10.80351 -3.85928,35.53261 -35.53893,43.84753c-31.67965,8.31491 -59.65977,6.2975 -62.49535,-4.50601c-2.83558,-10.80351 12.66905,-15.55505 44.3487,-23.86996z" fill="#fac843" stroke-width="2"/><path d="M365.96892,83.71099c31.67965,-8.31491 31.55113,-47.78969 34.3867,-36.98618c2.83558,10.80351 -2.09006,32.82104 -33.76973,41.13594c-31.67965,8.31491 -59.65977,6.2975 -62.49535,-4.50601c-2.83558,-10.80351 30.19872,8.67117 61.87837,0.35625z" fill="#e47816" stroke-width="0"/></g><g data-paper-data="{&quot;index&quot;:null}"><path d="M346.3906,22.93383c31.67965,-8.31491 50.85001,-26.27507 53.68559,-15.47156c2.83558,10.80351 -3.85928,35.53261 -35.53893,43.84753c-31.67965,8.31491 -59.65977,6.2975 -62.49535,-4.50601c-2.83558,-10.80351 12.66905,-15.55505 44.3487,-23.86996z" fill="#fac843" stroke-width="2"/><path d="M364.85883,46.32336c31.67965,-8.31491 31.55111,-47.7897 34.38669,-36.98619c2.83558,10.80351 -2.09006,32.82104 -33.76972,41.13595c-31.67965,8.31491 -59.65977,6.2975 -62.49535,-4.50601c-2.83558,-10.80351 30.19872,8.67117 61.87837,0.35625z" fill="#e47816" stroke-width="0"/></g><g data-paper-data="{&quot;index&quot;:null}"><path d="M352.84981,96.45755c31.67965,-8.31491 50.85001,-26.27507 53.68559,-15.47156c2.83558,10.80351 -3.85928,35.53261 -35.53893,43.84753c-31.67965,8.31491 -59.65977,6.2975 -62.49535,-4.50601c-2.83558,-10.80351 12.66905,-15.55505 44.3487,-23.86996z" fill="#fac843" stroke-width="2"/><path d="M371.31805,119.84702c31.67965,-8.31491 31.55111,-47.7897 34.38669,-36.98619c2.83558,10.80351 -2.09006,32.82104 -33.76972,41.13595c-31.67965,8.31491 -59.65977,6.2975 -62.49535,-4.50601c-2.83558,-10.80351 30.19872,8.67117 61.87837,0.35625z" fill="#e47816" stroke-width="0"/></g></g><path d="M220.61728,105.06839c-3.40385,-31.6209 26.18011,-60.73634 66.07764,-65.03113c39.89753,-4.29479 75.00022,17.8574 78.40408,49.47831c3.40385,31.6209 -26.18011,60.73634 -66.07764,65.03113c-39.89753,4.29479 -75.00022,-17.8574 -78.40408,-49.47831z" fill="#fdf7c7" stroke="#000000" stroke-width="2"/><path d="M220.85011,102.10041c-0.37734,-3.50536 1.40621,-8.91018 1.55006,-10.10697c1.77997,-14.80886 36.5011,56.37304 71.97577,52.55435c39.89753,-4.29479 49.5126,-0.70003 5.46978,9.13461c-39.21871,8.49421 -75.59175,-19.96106 -78.9956,-51.58199z" fill="#f2bd9d" stroke="#000000" stroke-width="0"/></g><path d="M271.8857,103.33582c-0.83286,-7.73708 4.76412,-14.68441 12.5012,-15.51727c7.73708,-0.83286 14.68441,4.76412 15.51727,12.5012c0.83286,7.73708 -4.76412,14.68441 -12.5012,15.51727c-7.73708,0.83286 -14.68441,-4.76412 -15.51727,-12.5012z" fill="#1a1507" stroke="#0c0c0c" stroke-width="2" stroke-linecap="butt"/><path d="M272.62467,100.37554c-0.29361,-2.72752 1.67948,-5.17663 4.407,-5.47024c2.72752,-0.29361 5.17663,1.67948 5.47024,4.407c0.29361,2.72752 -1.67948,5.17663 -4.407,5.47024c-2.72752,0.29361 -5.17663,-1.67948 -5.47024,-4.407z" fill="#fdf7c7" stroke="#000000" stroke-width="0" stroke-linecap="butt"/><path d="M327.88515,95.87981c-0.83286,-7.73708 4.76411,-14.68441 12.5012,-15.51727c7.73708,-0.83286 14.68441,4.76412 15.51727,12.5012c0.83286,7.73709 -4.76412,14.68441 -12.5012,15.51727c-7.73708,0.83286 -14.68441,-4.76412 -15.51727,-12.5012z" fill="#1a1507" stroke="#0c0c0c" stroke-width="2" stroke-linecap="butt"/><path d="M327.62821,94.80813c-0.29361,-2.72752 1.67947,-5.17664 4.407,-5.47025c2.72752,-0.29361 5.17663,1.67948 5.47024,4.40701c0.29361,2.72753 -1.67948,5.17663 -4.407,5.47024c-2.72752,0.29361 -5.17663,-1.67947 -5.47024,-4.407z" fill="#fdf7c7" stroke="#000000" stroke-width="0" stroke-linecap="butt"/><path d="M343.1427,116.31827c0,0 1.27309,4.31093 -0.48076,7.51412c-1.49466,2.72981 -5.99692,4.42852 -6.59639,4.42239c-16.11845,-0.16492 -61.10012,2.32393 -72.83456,-0.59496" fill="none" stroke="#1a1507" stroke-width="2" stroke-linecap="round"/><path d="M282.17198,135.114c0,7.26177 2.98764,16.85492 -2.47088,16.85492c-5.45852,0 -17.29615,-9.59315 -17.29615,-16.85492c0,-2.4137 0.01048,-5.37653 0.36901,-6.38347c0.72014,-2.02251 2.51698,-0.41145 6.16117,-0.41145c5.45852,0 13.23685,-0.46686 13.23685,6.79492z" fill="#fdf7c7" stroke="#1a1507" stroke-width="2" stroke-linecap="butt"/></g></g></svg>