<svg version="1.1" xmlns="http://www.w3.org/2000/svg" xmlns:xlink="http://www.w3.org/1999/xlink" width="230.62409" height="329.72757" viewBox="0,0,230.62409,329.72757"><g transform="translate(-312.28715,-30.45694)"><g data-paper-data="{&quot;isPaintingLayer&quot;:true}" fill-rule="nonzero" stroke-linecap="butt" stroke-linejoin="miter" stroke-miterlimit="10" stroke-dasharray="" stroke-dashoffset="0" style="mix-blend-mode: normal"><g data-paper-data="{&quot;index&quot;:null}" stroke="#000000"><path d="M401.27645,227.38813c20.063,26.6232 17.30845,35.86807 10.8465,40.73773c-6.46195,4.86967 -27.96467,-12.76507 -48.02767,-39.38828c-20.06299,-26.62321 51.94403,-21.10263 58.40598,-25.97229c7.07874,-0.46879 5.29938,5.81067 -0.76339,10.81055c-7.47682,6.16603 -22.17633,11.53665 -20.46143,13.8123z" fill="#216aff" stroke-width="2"/><path d="M426.00278,240.11442c8.61155,11.42735 6.09049,27.85174 -5.63095,36.68491c-11.72144,8.83317 -28.20459,6.73017 -36.81614,-4.69718c-8.61155,-11.42735 -6.09048,-27.85175 5.63096,-36.68492c11.72144,-8.83317 28.20458,-6.73016 36.81613,4.69719z" fill="#faddbf" stroke-width="2"/><path d="M387.24432,254.70992c8.61155,11.42735 44.6484,12.33367 32.92696,21.16684c-11.72144,8.83317 -28.20459,6.73017 -36.81613,-4.69719c-8.61155,-11.42735 -4.72238,-27.89702 3.88917,-16.46965z" fill="#ef8b89" stroke-width="0"/></g><g data-paper-data="{&quot;index&quot;:null}" stroke="#000000"><path d="M374.75115,314.84977l50.46493,-80.83571l25.01713,15.61795l-50.46492,80.83572z" fill="#73fffc" stroke-width="2"/><path d="M376.08593,314.56739l22.74134,-1.29196c0,0 2.29392,0.59713 3.617,-1.03084c5.9849,-7.36412 46.46827,-62.38636 46.46827,-62.38636l-48.54069,80.25786z" fill="#59a9e6" stroke-width="0"/></g><g data-paper-data="{&quot;index&quot;:null}" stroke="#000000"><path d="M418.00199,333.54913l41.25567,-85.90164l26.58494,12.76785l-41.25567,85.90164z" fill="#73fffc" stroke-width="2"/><path d="M419.29754,333.12149l22.46074,-3.78857c0,0 2.34572,0.34087 3.48146,-1.42291c5.1375,-7.97843 39.31513,-67.12437 39.31513,-67.12437l-39.40677,85.11539z" fill="#59a9e6" stroke-width="0"/></g><g data-paper-data="{&quot;index&quot;:null}" stroke="#000000"><path d="M430.27542,178.7761c18.77199,0 33.98969,24.87307 33.98969,55.55556c0,8.35076 6.37392,33.61764 4.35457,40.7234c-5.40019,19.00234 -24.68139,14.83216 -38.34426,14.83216c-10.32729,0 -32.7059,2.78608 -38.9397,-9.09579c-5.09742,-9.71589 4.95001,-32.65706 4.95001,-46.45977c0,-30.68249 15.2177,-55.55556 33.98969,-55.55556z" fill="#216aff" stroke-width="2"/><path d="M458.01466,203.74505c2.17098,1.37012 5.51953,20.51569 5.51953,29.96813c0,8.35075 6.37393,33.61764 4.35457,40.7234c-5.40019,19.00233 -24.68138,14.83215 -38.34425,14.83215c-10.32729,0 -32.7059,2.78607 -38.9397,-9.09579c-5.09743,-9.71588 56.94455,-16.46203 56.94455,-30.26474c0,-21.0232 4.52139,-62.9273 10.4653,-46.16315z" fill="#3236f4" stroke-width="0"/></g><g data-paper-data="{&quot;index&quot;:null}" stroke="#000000"><g><path d="M434.57046,203.63582c-46.79079,0 -84.72222,-37.93143 -84.72222,-84.72222c0,-46.79079 37.93143,-84.72222 84.72222,-84.72222c46.79079,0 84.72222,37.93143 84.72222,84.72222c0,46.79079 -37.93143,84.72222 -84.72222,84.72222z" fill="#faddbf" stroke-width="2"/><path d="M519.0619,118.0441c0,46.79079 -37.93143,84.72222 -84.72222,84.72222c-6.06291,0 -18.49289,-1.96005 -20.86562,-2.76903c-1.48329,-0.50573 27.17997,-6.87938 47.45857,-20.18586c10.88131,-7.14014 17.10673,-21.55104 19.99223,-26.29351c1.61848,-0.43891 6.02298,-20.08018 6.02593,-20.14049c1.23891,-25.28993 -24.25635,-87.57384 -16.28763,-90.14485c0.61077,-0.19706 12.57802,6.61116 21.9255,14.95935c7.52051,6.71653 12.79199,15.25975 13.30693,15.62682c4.50904,3.21417 13.16632,29.17106 13.16632,44.22534z" fill="#ef8b89" stroke-width="0"/><path d="M350.37167,118.45541c0,-36.54015 43.64941,-47.76623 83.64345,-27.16584c41.78276,21.52174 85.0704,-6.80492 85.0704,29.73523c0,18.17183 -8.33746,10.16746 -22.22353,-2.47189c-2.87599,-2.61778 -12.91291,10.30314 -16.24015,7.47909c-4.24103,-3.59963 -8.08154,-8.90935 -11.96095,-14.41734c-3.12381,-4.4352 -13.70857,12.51967 -17.11223,8.61668c-5.23782,-6.00622 -5.43775,-13.01701 -12.7176,-13.01701c-2.73739,0 -10.08616,11.74106 -12.80601,12.06843c-2.10902,0.25385 -9.32614,-11.95827 -11.39182,-11.59592c-3.75121,0.65801 -12.2492,10.90762 -15.73972,12.03156c-1.39954,0.45065 -12.51164,-8.39959 -13.84965,-7.92692c-1.91368,0.67603 -8.85258,10.08015 -10.56583,10.85157c-2.72761,1.22814 -10.78789,-6.21968 -12.93385,-5.04791c-8.8559,4.83563 -8.47938,12.76015 -9.04258,14.64925c-0.55205,1.85172 -2.12992,-2.16465 -2.12992,-13.78899z" fill="#ef8b89" stroke-width="0"/></g><path d="M348.83778,110.14452c0,-36.54015 41.44159,-78.68758 87.36842,-78.68758c45.92684,0 85.78948,44.71682 85.78948,81.25697c0,18.17183 -8.55708,10.16746 -22.80892,-2.47189c-2.95174,-2.61778 -13.25304,10.30314 -16.66792,7.47909c-4.35273,-3.59963 -8.29441,-8.90935 -12.276,-14.41734c-3.2061,-4.4352 -14.06966,12.51967 -17.56298,8.61668c-5.37579,-6.00622 -5.58098,-13.01701 -13.05259,-13.01701c-2.80949,0 -10.35184,11.74106 -13.14333,12.06843c-2.16458,0.25385 -9.5718,-11.95827 -11.69189,-11.59592c-3.85002,0.65801 -12.57185,10.90762 -16.15431,12.03156c-1.4364,0.45065 -12.8412,-8.39959 -14.21446,-7.92692c-1.96409,0.67603 -9.08576,10.08015 -10.84414,10.85157c-2.79946,1.22814 -11.07205,-6.21968 -13.27454,-5.04791c-17.99849,9.57557 -11.46679,24.3436 -11.46679,0.86026z" fill="#724e36" stroke-width="2"/><path d="M349.08554,108.98173c0,-36.54015 44.79917,-47.76623 85.84668,-27.16584c42.88335,21.52174 87.31121,-6.80492 87.31121,29.73523c0,18.17183 -8.55708,10.16746 -22.80892,-2.47189c-2.95174,-2.61778 -13.25304,10.30314 -16.66792,7.47909c-4.35274,-3.59963 -8.29442,-8.90935 -12.27601,-14.41734c-3.2061,-4.4352 -14.06966,12.51967 -17.56298,8.61668c-5.37579,-6.00622 -5.58098,-13.01701 -13.05259,-13.01701c-2.80949,0 -10.35184,11.74106 -13.14333,12.06843c-2.16458,0.25385 -9.5718,-11.95827 -11.69189,-11.59592c-3.85002,0.65801 -12.57185,10.90762 -16.15431,12.03156c-1.4364,0.45065 -12.8412,-8.39959 -14.21446,-7.92692c-1.9641,0.67603 -9.08577,10.08015 -10.84415,10.85157c-2.79946,1.22814 -11.07205,-6.21968 -13.27454,-5.04791c-17.99849,9.57557 -11.46679,24.3436 -11.46679,0.86026z" fill="#623728" stroke-width="0"/></g><g data-paper-data="{&quot;index&quot;:null}" stroke="#000000"><path d="M445.73534,90.10543c16.56854,0 30,23.15159 30,51.71053c0,28.55893 -13.69462,43.28947 -30.26316,43.28947c-16.56854,0 -29.73684,-14.73053 -29.73684,-43.28947c0,-28.55894 13.43146,-51.71053 30,-51.71053z" fill="#f0f0f0" stroke-width="2"/><path d="M475.09932,140.98573c0,28.55893 -13.69462,43.28947 -30.26316,43.28947c-16.56854,0 21.9575,-33.80863 17.65491,-62.0416c-6.22027,-40.81653 12.60825,-9.80681 12.60825,18.75213z" fill="#9a99ff" stroke-width="0"/></g><path d="M437.60274,122.11485c5.78406,0 10.47297,12.82644 10.47297,28.64865c0,15.82221 -4.68891,28.64865 -10.47297,28.64865c-5.78406,0 -10.47297,-12.82644 -10.47297,-28.64865c0,-15.82221 4.68891,-28.64865 10.47297,-28.64865z" data-paper-data="{&quot;index&quot;:null}" fill="#000000" stroke="none" stroke-width="0"/><g data-paper-data="{&quot;index&quot;:null}" stroke="#000000"><path d="M420.74465,111.78128c4.24992,-9.74914 10.03298,-21.55405 25.74324,-21.55405c15.71026,0 18.17568,12.27019 22.5,21.41892c4.54481,9.61522 -6.92488,14.25676 -22.63514,14.25676c-15.71026,0 -30.06757,-3.89181 -25.60811,-14.12162z" fill="#a100fe" stroke-width="2"/><path d="M421.66892,111.42702c4.10501,-9.74914 9.69088,0.8269 24.86546,0.8269c15.17458,0 17.55594,-10.11076 21.73281,-0.96203c4.38984,9.61522 -6.68876,14.25676 -21.86334,14.25676c-15.17458,0 -29.04234,-3.89181 -24.73494,-14.12162z" fill="#99008e" stroke-width="0"/></g><g data-paper-data="{&quot;index&quot;:null}" stroke="#000000"><path d="M412.00866,140.33736c0,28.55894 -13.1683,43.28947 -29.73684,43.28947c-16.56854,0 -30.26316,-14.73054 -30.26316,-43.28947c0,-28.55894 13.43146,-51.71053 30,-51.71053c16.56854,0 30,23.15159 30,51.71053z" fill="#f0f0f0" stroke-width="2"/><path d="M365.25293,120.75493c-4.30259,28.23297 34.22345,62.0416 17.65491,62.0416c-16.56854,0 -30.26316,-14.73054 -30.26316,-43.28947c0,-28.55894 18.82852,-59.56866 12.60825,-18.75213z" fill="#9a99ff" stroke-width="0"/></g><path d="M392.46829,150.94921c0,15.82221 -4.68891,28.64865 -10.47297,28.64865c-5.78406,0 -10.47297,-12.82644 -10.47297,-28.64865c0,-15.82221 4.68891,-28.64865 10.47297,-28.64865c5.78406,0 10.47297,12.82644 10.47297,28.64865z" data-paper-data="{&quot;index&quot;:null}" fill="#000000" stroke="none" stroke-width="0"/><g data-paper-data="{&quot;index&quot;:null}" stroke="#000000"><path d="M406.99936,110.30264c4.45946,10.22981 -9.89785,14.12162 -25.60811,14.12162c-15.71026,0 -27.17995,-4.64154 -22.63514,-14.25676c4.32432,-9.14873 6.78974,-21.41892 22.5,-21.41892c15.71026,0 21.49332,11.80491 25.74324,21.55405z" fill="#a100fe" stroke-width="2"/><path d="M406.07509,109.94839c4.3074,10.22981 -9.56036,14.12162 -24.73494,14.12162c-15.17458,0 -26.25318,-4.64154 -21.86334,-14.25676c4.17687,-9.14873 6.55823,0.96203 21.73281,0.96203c15.17458,0 20.76045,-10.57604 24.86546,-0.8269z" fill="#99008e" stroke-width="0"/></g><path d="M346.62915,294.97663c6.17622,-9.89319 16.86235,-1.11662 32.05579,8.36848c12.15623,7.58902 29.1648,5.50152 30.05683,12.56161c0.22287,1.76396 -5.85769,11.44085 -7.09233,13.41852c-6.17622,9.89319 -23.49974,10.224 -38.69318,0.73889c-15.19342,-9.4851 -22.50332,-25.19432 -16.3271,-35.08751z" data-paper-data="{&quot;index&quot;:null}" fill="#000082" stroke="#000000" stroke-width="2"/><path d="M379.44943,304.49424c12.15623,7.58902 26.17277,6.01665 28.40598,10.92841c0.55796,1.22719 -5.43589,10.76522 -6.10371,11.83495c-3.34072,5.35123 -15.30207,1.37037 -30.49549,-8.11473c-15.19343,-9.4851 -24.92077,-20.1338 -21.58005,-25.48503c3.34072,-5.35122 14.57984,1.3513 29.77328,10.83641z" data-paper-data="{&quot;index&quot;:null}" fill="#2e0048" stroke="#000000" stroke-width="0"/><path d="M383.43511,317.19406c6.17622,-9.89319 16.86234,-1.11662 32.05578,8.36848c12.15623,7.58902 29.1648,5.50152 30.05683,12.56161c0.22287,1.76396 -5.85769,11.44085 -7.09233,13.41852c-6.17622,9.89319 -23.49974,10.224 -38.69317,0.7389c-15.19342,-9.4851 -22.50333,-25.19432 -16.3271,-35.08751z" data-paper-data="{&quot;index&quot;:null}" fill="#000082" stroke="#000000" stroke-width="2"/><path d="M416.2554,326.71166c12.15623,7.58902 26.17277,6.01665 28.40597,10.9284c0.55796,1.22719 -5.43589,10.76522 -6.10371,11.83495c-3.34072,5.35123 -15.30207,1.37037 -30.49549,-8.11473c-15.19344,-9.4851 -24.92077,-20.1338 -21.58005,-25.48504c3.34072,-5.35122 14.57985,1.3513 29.77328,10.83642z" data-paper-data="{&quot;index&quot;:null}" fill="#2e0048" stroke="#000000" stroke-width="0"/><path d="M472.97362,171.84264c0.88388,-0.88388 1.76776,0 1.76776,0l0.5751,0.66581c1.01511,2.03198 1.84787,4.44152 4.02197,5.56741c1.27749,0.66156 3.59836,0.54607 3.85848,-1.14005c0.58204,-3.77285 -3.40302,-7.77486 -5.13448,-10.73935c0,0 -0.62983,-1.07972 0.44989,-1.70956c1.07973,-0.62984 1.70956,0.44988 1.70956,0.44988c2.04819,3.51583 6.35306,7.96185 5.43491,12.4451c-0.68472,3.34345 -4.53146,4.35094 -7.39279,2.95132c-2.75993,-1.35002 -3.90482,-4.15143 -5.18362,-6.70671l-0.10679,-0.01608c0,0 -0.88389,-0.88389 0,-1.76777z" data-paper-data="{&quot;index&quot;:null}" fill="#000000" stroke="none" stroke-width="0.5"/><g data-paper-data="{&quot;index&quot;:null}" stroke="none" stroke-width="1"><path d="M316.40493,250.92447c-1.17041,-0.4451 -2.4863,-1.0496 -3.85751,-1.77964c-0.65108,-1.8107 0.09681,-3.50633 0.32524,-5.19093c0.09692,-0.79683 0.28388,-1.55943 0.56087,-2.28778c0.82401,-2.70874 1.61338,-5.32638 2.43739,-8.03512c0.29084,-1.03575 0.87257,-1.7525 1.66895,-2.49171c5.69939,-5.2315 11.34334,-10.58817 17.13276,-15.78544c4.1966,-3.71867 8.2132,-7.506 12.35442,-11.35002c2.54847,-2.36561 5.33238,-4.53738 7.88084,-6.90299c2.95702,-2.62698 6.00406,-5.21972 8.78109,-7.91536c1.4335,-1.3306 2.8116,-1.43164 4.46682,-0.90646c0.99035,0.37662 1.98069,0.75325 2.97104,1.12987c4.66779,2.08779 9.42562,4.20984 14.09342,6.29763c4.12768,1.88219 8.18598,3.94677 12.31366,5.82896c4.03758,1.84812 8.19984,3.63938 12.23741,5.4875c6.48923,2.98884 12.97846,5.97769 19.46762,8.96672c5.62357,2.55534 11.21248,5.20181 16.71136,7.81403c4.18298,2.00772 8.31059,3.89008 12.459,5.98873c3.10267,1.59667 6.30917,2.92037 9.48107,4.335c1.94604,0.84435 3.76748,1.74541 5.67894,2.6807c4.27302,2.04195 8.67079,4.02685 12.94381,6.0688c6.72468,3.18268 13.53946,6.39941 20.26413,9.58209c6.72467,3.18268 13.44941,6.36517 20.26412,9.58208c4.36305,2.07619 8.72617,4.1522 12.98541,6.50137c3.06802,1.68778 3.19264,1.63109 2.61109,5.05716c-0.74777,4.40513 -1.62023,8.86713 -2.7627,13.22623c-0.08307,0.48944 -0.34621,0.9104 -0.30468,1.34315c0.14554,1.51416 -0.74094,2.21931 -1.93202,2.91249c-4.26596,2.54615 -8.44188,5.12653 -12.65239,7.79785c-2.98477,1.88702 -6.11496,3.61445 -9.18976,5.46723c-7.64551,4.38733 -15.34633,8.64912 -22.99177,13.03627c-2.88096,1.61405 -5.7064,3.35308 -8.76736,4.89847c-0.37398,0.17044 -0.65791,0.37512 -1.03189,0.54556c-0.90721,0.48869 -1.73135,0.48793 -2.63166,0.14555c-2.57627,-1.08402 -5.18718,-2.07694 -7.67342,-3.12673c-7.54887,-3.18325 -15.18771,-6.40091 -22.70187,-9.67545c-9.10014,-3.98176 -18.16564,-8.05464 -27.26579,-12.0364c-5.71359,-2.58959 -11.5518,-5.12249 -17.26539,-7.71208c-6.75925,-3.09174 -13.42855,-6.14907 -20.22252,-9.14952c-8.61534,-3.90168 -17.26533,-7.71225 -25.91532,-11.52282c-5.11796,-2.25899 -10.32593,-4.55222 -15.44389,-6.81121c-6.43385,-2.8635 -12.95773,-5.76123 -19.39151,-8.62491c-2.63172,-1.2092 -5.4227,-2.2706 -8.089,-3.38886zM318.03915,245.81436c-0.95571,0.88719 -1.95295,1.34164 -2.67315,2.42248c2.63171,1.20919 5.08337,2.34991 7.56961,3.3997c6.1083,2.63561 12.12664,5.2368 18.26952,7.78148c8.62925,3.59411 17.06454,7.42731 25.58984,11.29476c3.58741,1.67694 7.15409,3.1374 10.77609,4.72341c6.34382,2.82926 12.65299,5.74963 18.9067,8.54483c3.85751,1.77964 7.74967,3.46818 11.64183,5.15672c7.92973,3.53666 15.82481,7.16443 23.71997,10.79203c4.30767,1.95084 8.59454,3.6854 12.93686,5.54513c5.02793,2.22475 10.00047,4.32415 15.02839,6.5489c5.29803,2.32746 10.59603,4.65492 15.9287,6.89128c1.85601,0.81012 3.51819,1.85898 5.60276,2.33907c0.90721,-0.48869 1.90446,-0.94314 2.84625,-1.52276c6.30888,-3.85337 12.78396,-7.33087 19.20366,-10.93372c9.23136,-5.03467 18.3519,-10.31986 27.3616,-15.85557c1.72439,-1.01161 3.39333,-2.14839 5.02769,-3.19424c-0.09698,-0.55792 -0.42246,-0.78599 -0.78259,-0.92294c-3.60822,-1.89321 -7.25101,-3.6955 -10.89388,-5.4976c-3.37271,-1.69957 -3.37271,-1.69957 -6.78691,0.23272c-5.26313,3.00042 -10.45015,6.34264 -15.85876,9.18365c-1.44045,0.80693 -2.67313,1.06756 -4.13444,0.30346c-0.36013,-0.13695 -0.72025,-0.27392 -1.04573,-0.50198c-3.94761,-1.81371 -7.98519,-3.66183 -11.93273,-5.47572c-5.47809,-2.39595 -11.11542,-4.64408 -16.5935,-7.04002c-5.92831,-2.56695 -11.85655,-5.13409 -17.78479,-7.70122c-3.98219,-1.72278 -7.8397,-3.50242 -11.82189,-5.2252c-2.99178,-1.34634 -6.03907,-2.81766 -9.0655,-4.07288c-5.02793,-2.22475 -10.00047,-4.32415 -15.06304,-6.45779c-4.52231,-1.92839 -9.01005,-3.9477 -13.49785,-5.96684c-3.94755,-1.81389 -7.77041,-3.68465 -11.78725,-5.31631c-5.87279,-2.44197 -11.64176,-5.15691 -17.53542,-7.81497c-4.75783,-2.12204 -9.44642,-4.42611 -14.13502,-6.73019c-0.63022,-0.23967 -1.10118,-0.62714 -1.44746,-1.07149c-0.49169,-0.60394 -0.5541,-1.25278 -0.00701,-1.87842c0.38782,-0.47784 0.86567,-0.92144 1.25342,-1.39909c1.41276,-1.54707 3.26177,-2.61538 4.81994,-4.00286c3.40022,-2.97946 6.565,-6.15275 10.1107,-8.97281c0.28394,-0.20468 0.47785,-0.4436 0.40167,-0.78523c-2.4378,-1.44811 -8.5461,-4.08372 -10.18052,-4.39262c-2.41,2.00152 -4.90997,3.96862 -7.3199,5.96996c-4.32128,3.77555 -8.55254,7.58533 -12.90847,11.45199c-3.40029,2.97964 -6.71048,5.99334 -10.16615,8.84764c-4.4459,3.83224 -8.89186,7.66466 -13.57327,11.30325zM476.72915,280.52751c0.36013,0.13695 0.07619,0.34163 -0.07612,1.01311c0.95571,0.46774 2.03608,0.87861 2.99178,1.34634c0.86574,0.43331 1.59984,0.39982 2.41702,-0.1231c2.16759,-1.3641 4.39057,-2.60285 6.41275,-4.12653c1.29496,-0.96634 2.7354,-1.77327 4.17585,-2.5802c0.40863,-0.26155 0.94186,-0.5798 1.48205,-0.37437c1.26044,0.47934 2.68015,0.81087 3.67745,1.71117c-0.4501,1.18356 -0.48474,1.27467 -1.01798,1.59292c-0.97644,0.67073 -2.07757,1.39833 -3.14404,2.03482c-2.04292,1.30723 -4.08589,2.61463 -6.09416,3.83074c-0.28395,0.20468 -0.65792,0.37512 -0.77565,0.95567c0.74106,0.49019 1.51669,0.88946 2.21621,0.9469c2.81159,-1.43164 5.20774,-3.12577 7.60383,-4.81971c1.26038,-0.87541 2.66625,-1.59141 3.98201,-2.34147c0.40863,-0.26155 0.81718,-0.52292 1.26734,-0.35173c1.38512,0.42247 2.77018,0.84511 3.76748,1.74541c-0.04148,0.922 -0.57471,1.24025 -1.01799,1.59291c-1.1357,0.81854 -2.32685,1.5119 -3.55259,2.2962c-1.66901,1.13696 -3.3934,2.14857 -5.15237,3.25111c-0.28394,0.20468 -0.60246,0.50029 -0.68554,0.98973c0.59558,0.33078 1.31583,0.60469 1.96685,1.06064c0.7064,0.5813 1.38505,0.42264 2.16765,-0.00935c1.22573,-0.7843 2.5415,-1.53435 3.82268,-2.19348c3.41412,-1.93211 6.60665,-4.36545 10.22165,-6.0128c0.49858,-0.22713 0.94186,-0.57979 1.1842,-1.21704c-1.03195,-0.80919 -2.20236,-1.25429 -3.33812,-1.7905c-3.49739,-1.64269 -7.02943,-3.19428 -10.52681,-4.83697c-4.99334,-2.31568 -9.89658,-4.59731 -14.85527,-7.0041c-5.76898,-2.71494 -11.53795,-5.42988 -17.30693,-8.14482c-3.58742,-1.67693 -7.0848,-3.31963 -10.70687,-4.90545c-2.99184,-1.34615 -6.07366,-2.72672 -9.03092,-4.16381c-2.72168,-1.24362 -5.40878,-2.57816 -8.13053,-3.8216c-3.26194,-1.44887 -6.43385,-2.8635 -9.66114,-4.40348c-5.3534,-2.45282 -10.58219,-4.96233 -15.93566,-7.41496c-3.22729,-1.53998 -6.57926,-3.02308 -9.8412,-4.47195c-5.0833,-2.3501 -10.13202,-4.79114 -15.21533,-7.14124c-2.86723,-1.40285 -5.82443,-2.8401 -8.72624,-4.15202c-2.63165,-1.20938 -5.15949,-2.69173 -8.0197,-3.57108c-4.78529,3.91174 -9.53599,7.73255 -14.23125,11.67854c-0.60247,0.50029 -1.32961,1.05745 -1.64125,1.87692c1.33669,0.82079 2.68717,1.33437 3.91296,1.90482c2.61775,-1.19291 4.92381,-2.92109 7.1607,-4.46741c1.41964,-1.02321 2.86009,-1.83015 4.39057,-2.60284c0.49859,-0.22713 0.94179,-0.57962 1.57201,-0.33995c1.26045,0.47934 2.68022,0.8107 3.51819,1.85898c-0.13151,0.88776 -0.60936,1.33136 -1.26728,1.70648c-1.19108,0.69319 -2.32686,1.5119 -3.51801,2.20527c-1.63435,1.04585 -3.26864,2.09152 -4.903,3.13737c-0.53324,0.31825 -1.0111,0.76184 -0.94876,1.41087c0.34629,0.44435 0.88647,0.64978 1.40593,0.63875c2.61775,-1.19291 4.86842,-3.04644 7.28531,-4.5241c1.38499,-0.93211 2.73547,-1.77346 4.17592,-2.58039c0.40856,-0.26137 0.94179,-0.57962 1.48198,-0.37419c1.26044,0.47934 2.68015,0.81087 3.64287,1.8021c-0.11077,1.10423 -0.85872,1.44511 -1.55122,1.91116c-2.61081,1.71658 -5.18702,3.34223 -7.88785,5.02457c-0.4432,0.35248 -0.94179,0.57962 -1.23958,1.09169c-0.03465,0.09111 -0.01385,0.3074 0.00695,0.52368c0.50554,0.29654 1.01115,0.5929 1.62057,0.61629c2.65233,-1.28384 4.86842,-3.04645 7.31996,-4.61522c1.385,-0.93211 2.73541,-1.77328 4.17586,-2.58021c0.40863,-0.26155 0.94186,-0.57979 1.48205,-0.37436c1.26045,0.47934 2.68015,0.81087 3.67745,1.71117c0.08314,0.86531 -0.48467,1.27449 -0.92795,1.62715c-1.1357,0.81854 -2.32685,1.5119 -3.55259,2.2962c-1.66901,1.13697 -3.3934,2.14858 -5.15237,3.25112c-0.53323,0.31825 -1.06647,0.63649 -1.07336,1.46756c1.67596,0.74164 3.35197,1.48311 4.97254,2.0994c2.65233,-1.28384 4.92381,-2.92109 7.19528,-4.55834c1.41964,-1.02321 2.80471,-1.9555 4.39057,-2.60284c0.37398,-0.17044 0.90721,-0.48869 1.30199,-0.44284c1.50974,0.36577 2.92945,0.69731 3.87832,1.99593c-0.18695,0.7626 -0.66481,1.20619 -1.19805,1.52444c-0.97644,0.67073 -2.07756,1.39833 -3.14403,2.03482c-1.75904,1.10273 -3.51801,2.20528 -5.31163,3.39893c-0.44328,0.35267 -0.85183,0.61404 -1.05959,1.16035c0.49176,0.60376 1.19121,0.66139 1.76605,0.77571c2.61775,-1.19291 4.83378,-2.95533 7.0706,-4.50147c1.41971,-1.02339 2.86015,-1.83033 4.39063,-2.60302c0.37398,-0.17044 0.81718,-0.52292 1.26734,-0.35173c1.38506,0.42264 2.80476,0.75417 3.69825,1.92745c-0.09692,0.79683 -0.66481,1.20619 -1.10802,1.55867c-0.97644,0.67073 -2.07756,1.39834 -3.14403,2.03483c-1.75904,1.10273 -3.51801,2.20526 -5.3117,3.3991c-0.4432,0.35248 -0.94179,0.57962 -1.12874,1.34221c2.27159,1.07225 4.56392,2.36096 6.97397,3.06911c2.6524,-1.28402 4.92388,-2.92127 7.19535,-4.55852c1.38499,-0.93211 2.86009,-1.83015 4.39057,-2.60284c0.53324,-0.31825 1.12193,-0.51133 1.75215,-0.27166c1.13577,0.53621 2.3754,0.79927 3.31732,1.57422c-0.39471,1.3089 -0.39471,1.3089 -1.05263,1.68402c-1.1357,0.81853 -2.32685,1.5119 -3.55259,2.2962c-1.75904,1.10273 -3.51801,2.20527 -5.31163,3.39892c-0.40862,0.26155 -0.72715,0.55716 -0.63016,1.11508c0.67175,0.67242 1.42666,0.85521 2.27842,0.24136c0.53324,-0.31824 1.06654,-0.63667 1.59978,-0.95492c1.54433,-1.08008 3.054,-2.06906 4.59833,-3.14915c1.385,-0.9321 2.73541,-1.77327 4.14128,-2.48927c0.37397,-0.17043 0.9072,-0.48868 1.30191,-0.44266c1.50981,0.36559 2.92951,0.69712 4.0238,2.15534c-1.48198,1.72912 -3.47647,2.63802 -5.27009,3.83167c-1.79362,1.19365 -3.73273,2.22789 -5.32548,3.70631c0.69256,0.8887 1.46826,1.28778 2.41005,0.70816c0.53324,-0.31825 1.1565,-0.60226 1.59978,-0.95492c1.63429,-1.04567 3.17861,-2.12575 4.84762,-3.26272c1.38499,-0.93211 2.73541,-1.77328 4.14128,-2.48928c0.37398,-0.17044 0.81718,-0.52292 1.26734,-0.35173c1.38506,0.42264 2.80483,0.75399 3.69825,1.92745c-0.06235,0.7059 -0.41552,1.09262 -0.94876,1.41087c-0.85176,0.61385 -1.66894,1.13679 -2.48612,1.65971c-2.04299,1.3074 -4.21057,2.6715 -6.25349,3.97872c-0.28394,0.20468 -0.65792,0.37513 -0.61632,0.80769c1.39201,0.94632 5.15956,2.69155 7.02942,3.19427c2.52772,-1.22714 4.7992,-2.86439 7.0706,-4.50146c1.70365,-1.22807 3.46262,-2.33062 5.47791,-3.02323c1.4405,0.54781 2.98489,0.82247 3.93369,2.12128c-0.10388,0.27315 -0.20776,0.5463 -0.36702,0.69411c-0.22849,0.32985 -0.51242,0.53453 -0.92105,0.79608c-0.97644,0.67073 -2.07757,1.39834 -3.14404,2.03483c-1.75898,1.10255 -3.51801,2.20527 -5.31163,3.39892c-0.44321,0.35248 -0.85183,0.61404 -1.05952,1.16017c0.49169,0.60394 1.06653,0.71826 1.7314,0.86682c2.61768,-1.19272 4.79912,-2.86421 7.07059,-4.50146c1.38506,-0.93228 2.86009,-1.83015 4.39057,-2.60284c0.37397,-0.17044 0.81717,-0.52293 1.26733,-0.35174c1.38513,0.42247 2.80483,0.754 3.69825,1.92746c-0.09692,0.79684 -0.5747,1.24025 -1.10794,1.5585c-1.2258,0.78448 -2.45154,1.56877 -3.67734,2.35325c-1.66894,1.13678 -3.39333,2.14838 -5.06234,3.28535c-0.28387,0.2045 -0.81711,0.52275 -0.63016,1.11508c1.94611,0.84418 3.85758,1.77948 5.89366,2.65807c1.70359,-1.2279 3.37259,-2.36486 4.9515,-3.53588c1.98753,-1.43258 3.85038,-2.80828 6.03878,-3.95609c0.49866,-0.22731 0.97644,-0.67073 1.55128,-0.55641c1.50973,0.36577 2.92944,0.69732 3.87831,1.99594c-0.29084,1.03576 -1.07337,1.46757 -1.76594,1.9338c-2.64538,1.80751 -5.4155,3.67207 -8.06088,5.47958c-0.28394,0.20468 -0.74795,0.34088 -0.65096,0.8988c0.67176,0.67242 1.37128,0.72987 2.24384,0.33229c2.09837,-1.18205 4.0859,-2.61463 6.03878,-3.95609c1.41965,-1.02322 2.86009,-1.83015 4.30054,-2.63708c0.49866,-0.22732 0.94187,-0.5798 1.57209,-0.34013c1.26044,0.47934 2.68014,0.81088 3.64286,1.80211c-0.11077,1.10423 -0.85872,1.4451 -1.55122,1.91115c-2.6108,1.71658 -5.18702,3.34223 -7.88785,5.02457c-0.40856,0.26137 -0.94179,0.57962 -1.14955,1.12593c0.52634,0.51283 1.15656,0.7525 1.98069,0.75325c0.78253,-0.43181 1.56513,-0.86381 2.34766,-1.29562c1.50968,-0.98898 3.08865,-2.16017 4.59833,-3.14915c1.35042,-0.84117 2.79087,-1.64811 4.14128,-2.48928c0.49859,-0.22714 0.99724,-0.45445 1.53743,-0.24902c1.17041,0.4451 2.4655,0.83333 3.46274,1.73381c-0.02067,1.13829 -0.80327,1.57028 -1.55115,1.91098c-2.70083,1.68235 -5.3117,3.39911 -8.04711,5.17238zM374.22336,210.80325c1.05946,-2.51492 0.94858,-5.47512 2.20195,-8.22895c0.45016,0.17119 0.81028,0.30815 1.17041,0.4451c2.90182,1.31191 5.71353,2.58976 8.61534,3.90168c0.18007,0.06848 0.2701,0.10271 0.45016,0.17119c2.49318,1.57347 5.26343,2.4184 7.82585,3.80982c2.59707,1.3003 5.26344,2.41839 7.98519,3.66183c4.90324,2.28162 9.68187,4.61994 14.58511,6.90156c3.22736,1.5398 6.61391,2.93198 9.87585,4.38085c0.18007,0.06848 0.45016,0.17119 0.63022,0.23967c2.18844,1.56186 4.72317,2.21315 7.05015,3.41074c3.10268,1.59667 6.3992,2.9546 9.66114,4.40347c0.2701,0.10271 0.54019,0.20543 0.86574,0.43332c2.54857,1.69882 5.62349,2.55553 8.31059,3.89008c3.13726,1.50574 6.29532,3.22776 9.66114,4.40347c0.2701,0.10272 0.54019,0.20544 0.90032,0.34239c2.2231,1.47075 4.72318,2.21314 7.05022,3.41056c3.28267,1.66533 6.66923,3.0575 10.11123,4.57485c0.18007,0.06848 0.2701,0.10271 0.45016,0.17119c2.74255,1.45972 5.60972,2.86274 8.51153,4.17466c2.00143,0.96971 4.07215,1.75719 6.03907,2.81765c2.65245,1.42566 5.47808,2.39594 8.13053,3.8216c3.28274,1.66515 6.70394,2.96622 10.11129,4.57467c1.73141,0.86682 3.46274,1.73381 5.26337,2.41858c0.45016,0.17119 0.74105,0.49018 1.15663,0.75231c0.9557,0.46774 1.25355,1.31041 1.17736,2.32371c-0.1592,1.50256 -0.44309,3.06198 -0.72697,4.62141c-0.1315,0.88777 -0.38769,1.83241 -0.30455,2.69772c0.65096,0.45614 1.21195,0.87784 1.84217,1.11751c1.94611,0.84418 3.98219,1.72278 5.859,2.74918c2.02229,1.18581 4.2038,2.224 6.26074,3.3187c0.86567,0.43349 1.69675,0.95792 2.79098,1.06139c0.69244,-1.8208 0.77546,-3.66499 1.25325,-5.46333c0.44315,-1.70723 0.61621,-3.51718 1.05935,-5.22441c0.4778,-1.79835 0.56082,-3.64253 0.8239,-5.41824c-0.38093,-0.35324 -0.7064,-0.58131 -1.03188,-0.80937c-2.74255,-1.45972 -5.60972,-2.86274 -8.38685,-4.23153c-2.95719,-1.43727 -5.84516,-3.05658 -8.87165,-4.31162c-4.01678,-1.63184 -7.98512,-3.66201 -11.93266,-5.4759c-3.67744,-1.71117 -7.32031,-3.51328 -11.03234,-5.13352c-2.54169,-1.17496 -5.17341,-2.38416 -7.68045,-3.65023c-2.77713,-1.36879 -5.62356,-2.55535 -8.43527,-3.83321c-0.18006,-0.06848 -0.45016,-0.17119 -0.59564,-0.3306c-1.77293,-1.29956 -3.82286,-1.87076 -5.69974,-2.89698c-3.46273,-1.73381 -7.11938,-3.2287 -10.74145,-4.81452c-0.2701,-0.10272 -0.54019,-0.20543 -0.86574,-0.43332c-2.54162,-1.17514 -4.95862,-2.40697 -7.50031,-3.58193c-3.31732,-1.57421 -6.79398,-3.00045 -10.14595,-4.48356c-0.18007,-0.06848 -0.2701,-0.10271 -0.45016,-0.17119c-2.77713,-1.36879 -5.55426,-2.73757 -8.27601,-3.98101c-3.3519,-1.48328 -6.70388,-2.96638 -10.14588,-4.48373c-0.18007,-0.06848 -0.2701,-0.10271 -0.45016,-0.17119c-2.54864,-1.69864 -5.40885,-2.57798 -8.1306,-3.82142c-3.55277,-1.76804 -7.23021,-3.47922 -10.85228,-5.06504c-3.94755,-1.81389 -7.80506,-3.59354 -11.62799,-5.46412c-2.09153,-1.00377 -4.21763,-1.9166 -6.30916,-2.92037c-2.81171,-1.27786 -5.55427,-2.73758 -8.3106,-3.89008c-0.81029,-0.30815 -1.62057,-0.61629 -2.30624,-0.98113c-3.64279,-1.80228 -7.28566,-3.60438 -11.06699,-5.0424c-0.90031,-0.34239 -1.83521,-0.59384 -3.04027,-0.94783c-0.55391,2.81146 -0.94858,5.47511 -1.55788,8.16122c-0.57472,2.59518 -1.36408,5.21282 -1.75874,7.87647c0.45016,0.17119 0.72024,0.2739 0.99034,0.37662c2.18156,1.038 4.41155,1.67768 6.52388,2.89773c0.83108,0.52443 1.84216,1.11751 3.04027,0.94782zM377.37425,206.58261c-0.95559,2.24176 -0.8378,4.37089 -2.06348,6.50993c0.68561,0.36502 1.2466,0.78674 1.84224,1.11734c2.54162,1.17514 4.99327,2.31586 7.53496,3.49082c6.30917,2.92037 12.5283,5.8065 18.83747,8.72687c3.85751,1.77964 7.71502,3.55929 11.4825,5.3047c2.90182,1.31191 5.71359,2.58958 8.61534,3.90168c4.90331,2.28145 9.71652,4.52883 14.61983,6.81027c2.99184,1.34615 6.07366,2.72672 9.03092,4.16381c6.3091,2.92055 12.52822,5.80668 18.83739,8.72705c5.49888,2.61222 11.03242,5.13334 16.5313,7.74556c6.27452,3.01148 12.63906,6.0572 18.94823,8.97757c3.58741,1.67693 7.26487,3.38811 10.85235,5.06486c1.22579,0.57045 2.45159,1.14089 3.92674,1.5976c0.65091,-2.25354 0.87239,-4.46181 1.274,-6.60179c-0.32548,-0.22806 -0.47096,-0.38747 -0.65102,-0.45595c-4.63314,-2.17891 -9.35639,-4.39187 -13.98954,-6.57078c-4.63321,-2.17872 -9.39104,-4.30077 -14.02425,-6.47949c-5.3534,-2.45281 -10.58219,-4.96232 -15.90101,-7.50607c-2.45165,-1.14072 -4.90325,-2.28162 -7.3549,-3.42234c-4.72325,-2.21297 -9.44643,-4.42612 -14.16968,-6.63908c-2.72175,-1.24344 -5.44343,-2.48705 -8.16518,-3.73049c-5.4435,-2.48688 -10.85234,-5.06487 -16.26113,-7.64303c-2.54169,-1.17497 -5.1734,-2.38416 -7.71509,-3.55912c-4.63314,-2.17891 -9.17632,-4.3234 -13.80947,-6.50231c-4.81328,-2.2472 -9.66114,-4.40347 -14.47442,-6.65067c-2.81171,-1.27786 -5.58884,-2.64664 -8.36604,-4.01525c-1.76599,-0.77588 -3.62201,-1.586 -5.38806,-2.3617zM315.58051,244.14995c-0.13846,0.36409 -0.08308,0.48944 0.08314,0.86531c0.4432,-0.35248 0.81718,-0.52292 1.10112,-0.7276c7.21602,-5.6968 14.01654,-11.65591 20.85163,-17.70595c7.11904,-6.25472 13.9126,-12.73751 21.46795,-18.51364c1.57897,-1.17121 2.70772,-2.51341 3.0193,-4.68763c0.42229,-3.27826 1.36403,-6.56756 2.09106,-9.83422c0.11772,-0.58055 0.11077,-1.10422 -0.00702,-1.87842c-0.40863,0.26155 -0.6925,0.46605 -0.94186,0.5798c-2.38913,2.21762 -4.83372,4.31007 -7.22292,6.52787c-5.60929,5.26556 -11.27411,10.40614 -17.08426,15.38694c-2.28532,1.94464 -4.53599,3.79818 -6.64125,5.8113c-3.9265,3.82139 -8.23401,7.28971 -12.0151,11.27069c-1.21878,1.30798 -2.31296,2.55926 -2.66607,4.30073c-0.67859,2.86833 -1.35713,5.73649 -2.03573,8.60482z" data-paper-data="{&quot;index&quot;:null}" fill="#000000"/><path d="M322.86635,251.81863c-2.417,-1.23184 -4.86866,-2.37255 -7.50038,-3.58175c0.7202,-1.08084 1.75209,-1.6264 2.60392,-2.24044c4.68141,-3.63859 9.12731,-7.47083 13.57327,-11.30325c3.40029,-2.97964 6.76586,-5.868 10.16615,-8.84764c4.32128,-3.77555 8.58712,-7.67626 12.90847,-11.45199c2.44458,-2.09245 4.94455,-4.05955 7.3199,-5.96996c1.63435,0.30908 7.74271,2.94452 10.18045,4.39281c0.07625,0.34146 -0.11766,0.58037 -0.4016,0.78505c-3.5457,2.82006 -6.71048,5.99334 -10.1107,8.97281c-1.55817,1.38749 -3.40718,2.45579 -4.81994,4.00286c-0.38775,0.47766 -0.8656,0.92125 -1.25342,1.39909c-0.54708,0.62564 -0.48475,1.27467 0.00701,1.87843c0.43631,0.47858 0.94192,0.77495 1.44746,1.07149c4.72318,2.21315 9.41177,4.51723 14.13502,6.73019c5.80356,2.62401 11.57253,5.33895 17.53542,7.81497c4.01678,1.63184 7.80506,3.59353 11.78725,5.31631c4.48773,2.01931 8.97547,4.03863 13.49785,5.96684c5.02793,2.22475 10.00047,4.32415 15.06304,6.45779c2.99185,1.34615 6.07366,2.72672 9.0655,4.07287c3.94754,1.81389 7.8397,3.50242 11.82189,5.2252c5.92824,2.56713 11.85648,5.13428 17.78472,7.70141c5.47809,2.39594 11.11549,4.64389 16.59357,7.03983c3.98219,1.72278 7.98512,3.66201 11.93266,5.4759c0.36013,0.13695 0.72025,0.2739 1.0458,0.50179c1.46131,0.7641 2.60396,0.46923 4.13444,-0.30346c5.40861,-2.84101 10.50553,-6.21729 15.85876,-9.18365c3.41412,-1.93211 3.41413,-1.93211 6.7869,-0.23272c3.6428,1.80228 7.25101,3.6955 10.89388,5.4976c0.36012,0.13696 0.6856,0.36502 0.78259,0.92294c-1.63436,1.04585 -3.3033,2.18263 -5.02769,3.19424c-8.97512,5.44478 -18.13024,10.8209 -27.36161,15.85557c-6.50974,3.56861 -12.89479,7.08035 -19.20366,10.93372c-0.94186,0.5798 -1.9391,1.03424 -2.84631,1.52293c-1.99448,-0.44603 -3.74669,-1.52913 -5.6027,-2.33925c-5.33267,-2.23636 -10.63068,-4.56382 -15.9287,-6.89128c-5.02799,-2.22457 -10.00047,-4.32415 -15.02839,-6.5489c-4.34231,-1.85973 -8.5946,-3.68522 -12.93692,-5.54495c-7.92974,-3.53666 -15.82482,-7.16443 -23.71991,-10.79221c-3.85751,-1.77964 -7.74967,-3.46818 -11.64183,-5.15672c-6.34375,-2.82944 -12.65292,-5.74981 -18.9067,-8.54483c-3.62207,-1.58582 -7.15403,-3.13758 -10.7761,-4.7234c-8.5253,-3.86745 -16.96066,-7.70047 -25.58984,-11.29476c-6.14295,-2.5445 -12.16122,-5.14588 -18.26952,-7.78149zM389.17764,265.78163c-3.06785,2.37646 -6.00413,5.2199 -8.96115,7.84688c0.06234,0.64903 0.19397,1.11584 0.64413,1.28703c0.77564,0.39926 1.46131,0.7641 2.23695,1.16336c2.57627,1.08403 5.09714,2.04271 7.63883,3.21767c3.80213,1.6543 7.60426,3.30859 11.40632,4.96307c4.97254,2.0994 9.94508,4.1988 14.82759,6.26396c4.52238,1.92821 9.07935,3.76548 13.60173,5.69369c0.54019,0.20543 1.13576,0.53621 1.77983,0.46849c2.57615,-1.62547 5.13157,-3.4674 7.50692,-5.37781c2.74926,-2.08067 5.40855,-4.19576 7.97775,-6.3449c1.64821,-1.35325 3.53186,-2.51266 4.88917,-4.1849c0.31859,-0.29579 0.7618,-0.64827 0.51933,-1.3656c-0.36702,-0.66081 -1.1773,-0.96896 -1.86297,-1.3338c-3.31732,-1.57421 -6.63465,-3.14843 -9.91739,-4.81358c-4.79937,-2.55478 -9.68187,-4.61994 -14.65441,-6.71934c-6.43378,-2.86367 -13.06153,-5.48826 -19.52996,-8.26082c-0.5402,-0.20543 -1.13577,-0.53621 -1.67596,-0.74164c-1.13583,-0.53603 -2.30624,-0.98113 -3.38662,-1.39199c-0.81028,-0.30814 -1.45435,-0.24042 -2.03602,0.47615c-0.42241,0.56876 -0.99028,0.97812 -1.46814,1.42172c-3.02625,2.80902 -6.30882,5.20811 -9.53593,7.73238zM507.4161,293.86494c-0.62327,0.28401 -1.28118,0.65913 -1.61355,1.26214c0.09699,0.55792 0.33243,0.75174 0.60253,0.85446c1.2258,0.57045 2.57627,1.08402 3.7329,1.83634c1.42667,0.85521 2.74939,0.62883 4.0998,-0.21234c3.89199,-2.3757 7.78397,-4.75141 11.67595,-7.12712c0.40856,-0.26136 0.9418,-0.57961 1.00414,-1.28551c-0.42253,-0.7858 -1.19816,-1.18506 -2.06383,-1.61855c-0.95576,-0.46756 -1.94611,-0.84418 -2.86723,-1.40285c-1.10111,-0.62733 -2.01528,-0.66232 -3.15105,0.1564c-3.83653,2.50088 -7.47226,5.28669 -11.41963,7.53705zM469.40924,286.49744c-0.70641,-0.58131 -1.44746,-1.07149 -2.20236,-1.25429c-0.9557,-0.46773 -1.99448,-0.44603 -2.94329,-0.38991c-2.36156,0.24827 -3.78115,2.62623 -2.83924,4.75611c1.21903,2.75609 6.28153,3.53499 8.31054,1.18041c1.1634,-1.43332 1.08716,-3.1297 -0.32565,-4.29231zM461.81234,293.19579c-0.61637,-0.54707 -1.19816,-1.18507 -2.04303,-1.40228c-1.35048,-0.51358 -2.99874,-0.51508 -4.08601,-0.09487c-2.04987,0.78354 -2.68692,2.72969 -1.51645,4.52954c0.20087,0.28477 0.4363,0.47859 0.58172,0.63818c1.2882,1.2193 2.92262,1.52819 4.62627,1.65505c1.21884,0.04677 2.63855,-0.97663 3.08865,-2.16018c0.4501,-1.18356 0.25613,-2.29939 -0.65114,-3.16545zM493.04637,304.55287c0.18007,0.06848 0.36013,0.13695 0.54019,0.20543c1.44051,0.54781 2.74944,0.62865 3.80207,0.29955c2.26459,-0.80618 2.98472,-3.24177 1.29486,-5.03077c-1.10814,-1.15083 -2.56944,-1.91492 -4.37697,-1.76862c-1.77288,0.05519 -3.24103,1.47691 -3.46946,3.16151c-0.14542,1.19534 0.80345,2.49397 2.20931,3.13289zM484.08452,294.78783c-0.58875,-1.16167 -1.46136,-2.11885 -2.88107,-2.45038c-1.46131,-0.7641 -2.92951,-0.69713 -4.36996,0.1098c-1.56506,0.86363 -2.02901,2.35458 -1.0594,3.86967c1.44752,2.42624 5.54041,3.04497 7.70112,1.15702c0.92099,-0.7959 1.10795,-1.5585 0.6093,-2.68611zM473.67636,312.40119c-0.45009,1.18356 -0.36696,2.04886 0.27022,2.81221c0.94881,1.29881 4.6886,2.30408 6.37834,1.38358c1.77977,-0.88626 2.3268,-2.86665 1.05245,-4.39334c-1.36432,-1.56111 -3.98908,-2.24663 -5.85889,-1.39461c-0.7826,0.43199 -1.56513,0.86381 -1.84212,1.59216zM491.19742,306.97593c-0.56794,-0.94539 -1.43361,-1.37889 -2.06383,-1.61856c-1.53054,-0.58206 -3.57359,-0.6294 -4.75089,-0.24343c-1.30192,0.44266 -2.10518,2.01294 -1.58574,3.35684c1.00432,2.77872 5.33961,4.11495 8.13737,1.63578c0.92106,-0.79609 1.01103,-2.11659 0.26309,-3.13064zM451.8123,298.35489c-1.05958,-0.19458 -1.9599,-0.53696 -2.99874,-0.51508c-2.43774,-0.09337 -3.76731,2.31883 -2.61068,4.42607c0.3117,0.53528 0.74801,1.01387 1.25355,1.31041c1.28125,0.69563 2.61092,0.99292 3.95444,0.98282c0.60942,0.02339 1.23275,-0.26079 1.76599,-0.57904c1.22573,-0.7843 1.65503,-2.18414 0.92087,-3.5054c-0.56787,-0.94557 -1.45435,-1.59535 -2.28543,-2.11978zM468.62056,306.72701c-0.64412,-1.28703 -1.56517,-1.84587 -2.86026,-2.2341c-1.31583,-0.60468 -2.694,-0.50347 -4.04441,0.3377c-1.4751,0.89805 -1.71048,2.05897 -0.95559,3.59669c0.3117,0.53528 0.65797,0.97963 1.21896,1.40134c1.48204,0.98057 3.18569,1.10742 4.88245,0.71042c0.33933,-0.07933 0.74789,-0.3407 1.03183,-0.54538c1.17035,-0.90965 1.37116,-1.97964 0.72703,-3.26666zM468.3919,302.99262c0.54714,0.7291 1.28814,1.21948 2.18845,1.56186c1.40593,0.63874 2.74945,0.62864 4.24528,-0.05294c1.99448,-0.9089 2.39609,-3.04888 0.817,-4.58717c-1.63441,-1.66383 -4.57776,-2.05356 -6.58603,-0.83745c-1.4751,0.89805 -1.82822,2.63952 -0.6647,3.91569zM387.66061,256.76367c0.6856,0.36501 1.35047,0.51357 1.98759,-0.07783c-0.04856,-0.95624 -0.73417,-1.32126 -1.41977,-1.68628c-2.59714,-1.30013 -5.26344,-2.4184 -8.05442,-3.47979c-0.63022,-0.23967 -1.35047,-0.51358 -2.04297,-0.04753c-0.15237,0.67166 0.10394,1.08159 0.66486,1.50349c0.70641,0.58131 1.49595,0.67299 2.27159,1.07225c2.18156,1.038 4.34232,1.85973 6.59311,2.71569zM359.68858,248.21021c-0.63022,-0.23967 -1.29509,-0.38822 -1.98759,0.07783c-0.15237,0.67166 0.10387,1.08177 0.66486,1.50348c0.70641,0.58131 1.49595,0.67299 2.27159,1.07225c2.18156,1.03801 4.34232,1.85973 6.59311,2.71569c0.63022,0.23967 1.29502,0.38841 1.93214,-0.20299c-0.04849,-0.95642 -0.73416,-1.32126 -1.41976,-1.68628c-2.59707,-1.30031 -5.26337,-2.41858 -8.05435,-3.47997zM335.45647,244.7265c-0.26321,0.42114 -0.31164,0.81947 -0.02074,1.13847c0.43631,0.47858 0.90727,0.86606 1.44746,1.07149c2.48623,1.04979 4.93789,2.19051 7.29951,3.29699c0.54019,0.20543 1.13576,0.53621 1.77983,0.46849c0.42935,-0.0451 0.82413,0.00075 0.99724,-0.45445c0.02763,-0.61461 -0.38788,-0.87692 -0.89342,-1.17346c-2.58329,-1.60752 -5.53353,-2.52111 -8.27601,-3.98101c-0.65102,-0.45595 -1.47516,-0.4567 -2.33387,-0.36652zM364.06524,244.56005c-0.92112,-0.55866 -1.74526,-0.55941 -2.60397,-0.46923c-0.33238,0.60301 -0.16616,0.97888 0.12474,1.29788c0.58172,0.63818 1.39201,0.94632 2.16765,1.34558c1.94612,0.84417 4.01685,1.63166 5.89366,2.65806c0.6856,0.36502 1.44051,0.54782 2.19541,0.73062c0.39471,0.04602 0.96955,0.16034 1.26734,-0.35173c0.09685,-0.79665 -0.44334,-1.00209 -0.94888,-1.29863c-2.58322,-1.60771 -5.44343,-2.48706 -8.09595,-3.91254zM375.81808,255.38642c-0.63022,-0.23967 -1.11496,-0.31993 -1.65515,-0.52536c-0.2701,-0.10272 -0.64407,0.06773 -0.74795,0.34088c-0.10388,0.27315 -0.0277,0.61478 0.20782,0.80843c0.72721,0.79759 1.64825,1.35643 2.60402,1.82399c2.21614,0.94707 4.34225,1.85991 6.48923,2.98885c0.41551,0.26231 0.90031,0.34239 1.29502,0.38841c0.18006,0.06848 0.46401,-0.1362 0.62327,-0.28401c0.19391,-0.23891 0.20776,-0.54631 0.00689,-0.83107c-0.25625,-0.41011 -0.67175,-0.67241 -0.9973,-0.9003c-2.6871,-1.33455 -5.28416,-2.63486 -7.82585,-3.80982zM333.66985,249.15351c-0.66481,-0.14873 -1.4197,-0.33152 -2.05682,0.25988c0.08314,0.86531 0.5541,1.25278 1.09429,1.45821c2.90182,1.31192 5.89359,2.65825 8.83005,3.87905c0.36012,0.13696 0.75483,0.18297 1.14961,0.22882c0.30475,0.0116 0.64407,-0.06773 0.78253,-0.43182c0.13853,-0.36427 -0.06233,-0.64903 -0.29778,-0.84286c-0.47096,-0.38748 -0.9765,-0.68402 -1.57214,-1.01462c-1.46131,-0.7641 -3.04722,-1.47151 -4.54311,-2.14467c-1.13583,-0.53604 -2.21622,-0.9469 -3.38663,-1.392zM353.85061,252.45126c-0.81029,-0.30815 -1.4405,-0.54782 -2.23688,0.19139c0.22855,1.0249 1.00425,1.42397 1.77989,1.82323c1.49596,0.67298 2.86716,1.40302 4.3977,1.98508c1.13584,0.53603 2.39628,1.01537 3.56669,1.46047c0.54019,0.20543 0.99034,0.37662 1.54438,0.27466c0.21464,-0.02246 0.49858,-0.22714 0.53323,-0.31825c0.06923,-0.18205 -0.00695,-0.52368 -0.0624,-0.64885c-0.47089,-0.38766 -0.94185,-0.77514 -1.44746,-1.0715c-1.55127,-0.79852 -3.10261,-1.59685 -4.68853,-2.30425c-1.13583,-0.53604 -2.21622,-0.9469 -3.38663,-1.392zM347.04227,236.21056c-0.78948,-0.09187 -1.4197,-0.33153 -2.1815,0.31674c0.7688,1.23015 0.73416,1.32126 1.63447,1.66364c1.13583,0.53603 2.25079,0.85596 3.35197,1.48311c1.46131,0.7641 3.04723,1.4715 4.57777,2.05356c0.45017,0.17119 1.025,0.28551 1.50974,0.36577c0.30474,0.01161 0.64406,-0.06772 0.78259,-0.43199c0.13846,-0.36408 -0.0624,-0.64884 -0.29785,-0.84267c-0.41552,-0.2623 -0.88647,-0.64977 -1.30205,-0.9119c-1.55127,-0.79852 -3.13726,-1.50574 -4.68853,-2.30426c-1.13583,-0.53603 -2.21621,-0.94689 -3.38662,-1.39199zM352.25749,245.80118c-0.38788,-0.87692 -1.07349,-1.24193 -1.79374,-1.51584c-2.45166,-1.14072 -4.99335,-2.31568 -7.44493,-3.45658c-0.45016,-0.17119 -0.99035,-0.37662 -1.56519,-0.49094c-0.48481,-0.08008 -0.91416,-0.03499 -1.03182,0.54538c0.80339,1.13921 0.80339,1.13922 1.75909,1.60695c1.40586,0.63892 2.77713,1.36878 4.12761,1.88236c1.40586,0.63892 2.84635,1.18674 4.28686,1.73456c0.47096,0.38748 1.13584,0.53603 1.66212,-0.30589zM373.52635,269.00014c0.38093,0.35324 0.86573,0.43331 1.36432,0.20618c0.35317,-0.38673 0.52628,-0.84192 0.05539,-1.22958c-0.38093,-0.35324 -0.76186,-0.70647 -1.2674,-1.00301c-2.68711,-1.33455 -5.40886,-2.57799 -8.13061,-3.82143c-0.45016,-0.1712 -0.99034,-0.37662 -1.57896,-0.18373c-0.22857,0.33002 -0.277,0.72835 0.01383,1.04753c0.49176,0.60376 1.14279,1.05971 1.82839,1.42473c2.54169,1.17496 5.1734,2.38416 7.71502,3.5593zM357.25135,261.66453c0.7549,0.18279 1.41971,0.33153 2.25769,0.02489c0.08307,-0.48944 0.0069,-0.83107 -0.22855,-1.0249c-0.52634,-0.51283 -1.17737,-0.96878 -1.89762,-1.24269c-2.39627,-1.01537 -4.82712,-1.93981 -7.22333,-2.95536c-0.45016,-0.1712 -0.93496,-0.25128 -1.32967,-0.2973c-0.18006,-0.06847 -0.46401,0.1362 -0.62327,0.28401c-0.28394,0.20468 -0.20776,0.54632 -0.00689,0.83108c0.45711,0.69487 1.05268,1.02564 1.86296,1.33379c2.3962,1.01555 4.79247,2.03092 7.18868,3.04647zM377.8961,264.82608c0.65102,0.45595 1.35048,0.51358 2.34772,0.05913c-0.33938,-1.27542 -1.29514,-1.74298 -2.16081,-2.17647c-2.48624,-1.04979 -4.9171,-1.97423 -7.4034,-3.02384c-0.45016,-0.1712 -0.84486,-0.21722 -1.32967,-0.2973c-0.21471,0.02264 -0.46401,0.1362 -0.53324,0.31825c-0.06923,0.18205 -0.08308,0.48944 -0.02769,0.61479c0.3325,0.75156 1.05275,1.02547 1.73835,1.39049c2.48624,1.04978 5.07642,1.82624 7.36875,3.11495z" data-paper-data="{&quot;index&quot;:null}" fill="#216aff"/><path d="M480.41347,282.76238c-1.84914,-0.28627 -2.80483,-0.75401 -3.76053,-1.22174c0.15231,-0.67149 0.43625,-0.87616 0.84481,-1.13753c2.70083,-1.68235 5.31163,-3.39893 8.04711,-5.17238c0.6925,-0.46605 1.56513,-0.86381 1.55122,-1.91116c-0.9973,-0.9003 -2.23694,-1.16335 -3.4628,-1.73362c-0.5402,-0.20544 -1.09416,-0.10365 -1.53744,0.24901c-1.44044,0.80694 -2.79086,1.64811 -4.14127,2.48928c-1.50968,0.98898 -3.054,2.06906 -4.59833,3.14915c-0.81718,0.52292 -1.5997,0.95474 -2.34765,1.29562c-0.78948,-0.09186 -1.45436,-0.24043 -1.9807,-0.75325c0.20776,-0.54631 0.61638,-0.80786 1.14962,-1.12611c2.57616,-1.62547 5.18695,-3.34205 7.88778,-5.02439c0.69257,-0.46623 1.4751,-0.89804 1.55122,-1.91116c-1.08733,-0.93454 -2.38243,-1.32276 -3.64287,-1.8021c-0.54019,-0.20543 -1.07342,0.11282 -1.57201,0.33995c-1.53048,0.77269 -3.00557,1.67074 -4.30054,2.63708c-1.95294,1.34164 -3.94048,2.77421 -6.03877,3.95608c-0.90721,0.48868 -1.57207,0.34012 -2.2439,-0.33211c-0.00689,-0.52385 0.36702,-0.69411 0.65096,-0.89879c2.64545,-1.80769 5.41551,-3.67208 8.06096,-5.47977c0.6925,-0.46605 1.47509,-0.89804 1.76586,-1.93361c-0.9488,-1.29881 -2.45853,-1.66459 -3.87831,-1.99594c-0.57477,-0.1145 -1.05262,0.3291 -1.55121,0.55623c-2.15375,1.0567 -4.14128,2.48928 -6.03878,3.95609c-1.57898,1.1712 -3.24791,2.30798 -4.95157,3.53605c-2.03608,-0.8786 -3.94755,-1.8139 -5.89359,-2.65825c-0.15237,-0.68327 0.34622,-0.91039 0.63016,-1.11507c1.66894,-1.13679 3.39333,-2.14839 5.06234,-3.28536c1.22574,-0.7843 2.45153,-1.56877 3.67727,-2.35307c0.53324,-0.31824 1.0111,-0.76184 1.10802,-1.55867c-0.89343,-1.17346 -2.40316,-1.53923 -3.69825,-1.92746c-0.45016,-0.17119 -0.89336,0.18129 -1.26734,0.35173c-1.53048,0.77269 -3.00557,1.67073 -4.39057,2.60284c-2.27147,1.63725 -4.54295,3.27451 -7.07067,4.50165c-0.69945,-0.05763 -1.23964,-0.26306 -1.7314,-0.86682c0.20776,-0.54632 0.65096,-0.8988 1.05952,-1.16017c1.75904,-1.10272 3.51808,-2.20545 5.3117,-3.3991c1.06647,-0.63649 2.04291,-1.30721 3.14403,-2.03482c0.28394,-0.20468 0.60247,-0.50029 0.92106,-0.79608c0.15927,-0.14781 0.17311,-0.4552 0.36702,-0.69412c-1.03891,-1.33287 -2.58328,-1.60753 -3.93376,-2.12111c-2.01522,0.69243 -3.71888,1.92051 -5.47785,3.02305c-2.27147,1.63725 -4.54294,3.2745 -7.07066,4.50164c-1.86987,-0.50273 -5.67199,-2.15703 -7.02942,-3.19428c-0.04154,-0.43274 0.2424,-0.63742 0.61638,-0.80786c2.04291,-1.30722 4.2105,-2.67132 6.25342,-3.97854c0.81718,-0.52292 1.66901,-1.13697 2.48619,-1.65989c0.4432,-0.35248 0.8864,-0.70497 0.94868,-1.41069c-0.92801,-1.08253 -2.40316,-1.53922 -3.69825,-1.92745c-0.45016,-0.17119 -0.89336,0.18129 -1.26734,0.35173c-1.49582,0.68159 -2.84624,1.52276 -4.14127,2.48928c-1.54433,1.08009 -3.21327,2.21687 -4.84763,3.26272c-0.53324,0.31825 -1.06647,0.63649 -1.59971,0.95474c-1.03189,0.54556 -1.7175,0.18054 -2.41012,-0.70798c1.71743,-1.53528 3.5665,-2.60377 5.32547,-3.70631c1.79369,-1.19384 3.7881,-2.10255 5.27009,-3.83167c-1.09428,-1.45821 -2.60401,-1.82399 -4.02372,-2.15552c-0.36013,-0.13695 -0.89336,0.18129 -1.30199,0.44284c-1.49583,0.68159 -2.8809,1.61387 -4.14128,2.48928c-1.54433,1.08008 -3.054,2.06906 -4.59833,3.14915c-0.53324,0.31825 -1.06647,0.63649 -1.59971,0.95474c-0.81718,0.52293 -1.57207,0.34013 -2.27848,-0.24117c-0.18702,-0.59216 0.2216,-0.85371 0.63016,-1.11508c1.75904,-1.10273 3.55266,-2.29638 5.31163,-3.39892c1.2258,-0.78447 2.32686,-1.5119 3.55266,-2.29638c0.69251,-0.46605 0.60247,-0.50029 1.05257,-1.68384c-0.94185,-0.77513 -2.14691,-1.12912 -3.31732,-1.57422c-0.63022,-0.23967 -1.21884,-0.04678 -1.75208,0.27147c-1.53047,0.7727 -3.00557,1.67075 -4.39063,2.60303c-2.27148,1.63726 -4.54288,3.27433 -7.19528,4.55834c-2.41005,-0.70815 -4.61242,-1.96245 -6.97404,-3.06893c0.27699,-0.72836 0.72019,-1.08084 1.12882,-1.34239c1.75897,-1.10254 3.51801,-2.20527 5.31163,-3.39892c1.06647,-0.63649 2.04292,-1.30722 3.14404,-2.03483c0.53324,-0.31824 1.0111,-0.76184 1.10802,-1.55867c-0.89342,-1.17346 -2.40316,-1.53922 -3.69825,-1.92745c-0.45016,-0.17119 -0.89336,0.18129 -1.26734,0.35173c-1.53047,0.77269 -3.00557,1.67073 -4.39057,2.60284c-2.27147,1.63725 -4.54294,3.2745 -7.07066,4.50164c-0.57477,-0.1145 -1.27429,-0.17194 -1.76598,-0.77588c0.20769,-0.54613 0.65096,-0.8988 1.05952,-1.16017c1.75904,-1.10272 3.518,-2.20527 5.31162,-3.39892c1.06647,-0.63649 2.04299,-1.3074 3.14404,-2.03482c0.53323,-0.31825 1.01109,-0.76185 1.19804,-1.52444c-0.9488,-1.2988 -2.4586,-1.6644 -3.87831,-1.99593c-0.36012,-0.13696 -0.89335,0.18129 -1.30191,0.44266c-1.53048,0.77269 -3.00558,1.67074 -4.39064,2.60302c-2.27147,1.63725 -4.54288,3.27433 -7.19528,4.55834c-1.58592,-0.7074 -3.26194,-1.44887 -4.97254,-2.0994c0.00689,-0.83107 0.63016,-1.11508 1.07337,-1.46756c1.669,-1.13697 3.39339,-2.14858 5.15236,-3.25112c1.19116,-0.69337 2.32686,-1.5119 3.55266,-2.29638c0.53324,-0.31824 1.0111,-0.76184 0.92796,-1.62715c-0.9973,-0.9003 -2.29239,-1.28852 -3.67751,-1.71099c-0.54019,-0.20543 -1.07342,0.11282 -1.48198,0.37419c-1.44045,0.80693 -2.79087,1.64811 -4.17593,2.58039c-2.36151,1.60301 -4.66756,3.3312 -7.31996,4.61521c-0.60942,-0.02338 -1.11496,-0.31993 -1.62057,-0.61629c-0.02073,-0.21647 -0.04153,-0.43275 -0.00695,-0.52368c0.2978,-0.51207 0.70641,-0.77362 1.23965,-1.09187c2.57615,-1.62546 5.18695,-3.34205 7.88778,-5.02439c0.69257,-0.46623 1.4751,-0.89804 1.55122,-1.91116c-1.08733,-0.93454 -2.38235,-1.32295 -3.64279,-1.80229c-0.54019,-0.20543 -1.07349,0.113 -1.48205,0.37437c-1.44044,0.80693 -2.79086,1.6481 -4.17592,2.58038c-2.36151,1.60301 -4.66756,3.33119 -7.28531,4.5241c-0.51939,0.01085 -1.05958,-0.19458 -1.40586,-0.63893c-0.02775,-0.73997 0.50548,-1.05821 0.94869,-1.41069c1.63436,-1.04585 3.26872,-2.0917 4.90308,-3.13755c1.19115,-0.69336 2.32686,-1.5119 3.51801,-2.20527c0.56788,-0.40936 1.1357,-0.81853 1.26727,-1.70648c-0.92808,-1.08235 -2.25775,-1.37964 -3.51819,-1.85898c-0.54019,-0.20543 -1.07342,0.11282 -1.57208,0.34013c-1.53048,0.77269 -3.00551,1.67056 -4.39057,2.60284c-2.27147,1.63725 -4.54295,3.2745 -7.1607,4.46741c-1.22579,-0.57045 -2.61091,-0.99292 -3.91289,-1.905c0.34622,-0.9104 1.03871,-1.37645 1.64125,-1.87692c4.69526,-3.94599 9.44589,-7.76662 14.23118,-11.67837c2.86021,0.87934 5.35347,2.45264 8.01977,3.5709c2.90181,1.31191 5.859,2.74917 8.72617,4.1522c5.08338,2.34992 10.13202,4.79113 15.2154,7.14105c3.22729,1.53997 6.57926,3.02308 9.8412,4.47195c5.3534,2.45281 10.58218,4.96232 15.93565,7.41495c3.26187,1.44905 6.43378,2.86368 9.66107,4.40366c2.72176,1.24344 5.40885,2.57798 8.1306,3.82142c2.99185,1.34615 6.07366,2.72671 9.03092,4.1638c3.58742,1.67693 7.11945,3.22852 10.70687,4.90545c5.76897,2.71494 11.53788,5.43006 17.30686,8.145c4.99334,2.31568 9.862,4.68824 14.85527,7.0041c3.49745,1.64251 7.02943,3.19428 10.52681,4.83697c1.13583,0.53603 2.39627,1.01537 3.33812,1.7905c-0.24234,0.63724 -0.68553,0.98973 -1.18419,1.21704c-3.61493,1.64718 -6.86284,3.95516 -10.22159,6.01262c-1.31583,0.75024 -2.50692,1.44342 -3.82275,2.19366c-0.6925,0.46605 -1.37121,0.62489 -2.16765,0.00935c-0.56099,-0.42171 -1.28125,-0.69561 -1.96685,-1.06063c0.08308,-0.48943 0.31164,-0.81947 0.68555,-0.98973c1.75904,-1.10272 3.3934,-2.14857 5.15237,-3.25111c1.19116,-0.69337 2.32692,-1.51208 3.55266,-2.29638c0.53324,-0.31825 1.0111,-0.76185 1.01799,-1.59292c-0.9973,-0.9003 -2.38242,-1.32275 -3.76748,-1.7454c-0.45016,-0.17119 -0.85878,0.09036 -1.26734,0.35173c-1.31583,0.75024 -2.72163,1.46606 -3.98201,2.34147c-2.48619,1.65989 -4.8269,3.47918 -7.60391,4.81989c-0.69945,-0.05762 -1.47516,-0.45671 -2.21614,-0.94708c0.02763,-0.61461 0.4016,-0.78505 0.77558,-0.95549c2.04292,-1.30722 4.0859,-2.61463 6.09423,-3.83092c1.06647,-0.63649 2.04291,-1.30721 3.14403,-2.03482c0.53324,-0.31824 0.4432,-0.35248 1.01792,-1.59273c-1.08734,-0.93453 -2.38236,-1.32294 -3.67745,-1.71117c-0.54019,-0.20543 -1.07342,0.11282 -1.48198,0.37419c-1.44045,0.80693 -2.79087,1.64811 -4.17593,2.58039c-2.11222,1.48945 -4.27981,2.85355 -6.41275,4.12653c-0.81718,0.52292 -1.55128,0.5564 -2.41695,0.12291z" data-paper-data="{&quot;index&quot;:null}" fill="#ffffff"/><path d="M377.20097,202.97355c0.12469,-0.05687 -0.23544,-0.19383 -0.77563,-0.39926c-1.25337,2.75383 -1.23251,5.6798 -2.59672,8.18311c-1.19803,0.16951 -2.0845,-0.48027 -3.04027,-0.94783c-2.11226,-1.22023 -4.34232,-1.85973 -6.52381,-2.89792c-0.27009,-0.10271 -0.54018,-0.20543 -0.99034,-0.37662c0.42923,-2.75458 1.09399,-5.31552 1.75867,-7.87628c0.57472,-2.59518 1.05941,-5.22459 1.55788,-8.16122c1.11502,0.31975 2.01534,0.66214 3.04034,0.94765c3.78132,1.43801 7.42412,3.2403 11.06699,5.0424c0.77564,0.39925 1.58592,0.7074 2.30617,0.98131c2.84637,1.18674 5.58892,2.64646 8.31067,3.8899c2.12611,0.91283 4.25222,1.82567 6.30916,2.92037c3.82286,1.87076 7.77041,3.68464 11.62792,5.46429c3.58749,1.67676 7.26493,3.38793 10.85235,5.06486c2.68711,1.33455 5.54732,2.21391 8.13061,3.82143c0.18006,0.06848 0.27009,0.10271 0.45015,0.17119c3.3519,1.48328 6.79391,3.00062 10.14588,4.48373c2.81178,1.27767 5.58891,2.64646 8.27601,3.98101c0.18006,0.06847 0.2701,0.10271 0.45016,0.17119c3.35197,1.4831 6.79391,3.00062 10.14588,4.48373c2.54168,1.17496 4.95868,2.40679 7.50037,3.58175c0.2701,0.10272 0.54019,0.20544 0.86567,0.4335c3.62207,1.58582 7.18868,3.04648 10.74152,4.81434c1.91146,0.93529 4.01677,1.63184 5.69974,2.89698c0.14542,0.15959 0.45016,0.17119 0.59558,0.33078c2.81178,1.27768 5.65814,2.46442 8.43527,3.83321c2.50704,1.26607 5.13875,2.47527 7.68044,3.65023c3.67744,1.71117 7.32031,3.51328 11.03234,5.13352c3.94754,1.81388 7.86051,3.7187 11.93273,5.47572c3.02642,1.25522 5.94903,2.78341 8.87158,4.31179c2.86717,1.40303 5.60972,2.86275 8.38685,4.23154c0.36012,0.13696 0.65102,0.45595 1.03195,0.80919c-0.26315,1.77589 -0.43621,3.58584 -0.8239,5.41824c-0.44321,1.70742 -0.61627,3.51737 -1.05941,5.2246c-0.47779,1.79834 -0.47078,3.67676 -1.25325,5.46332c-1.09423,-0.10347 -1.92531,-0.6279 -2.79098,-1.06139c-2.14691,-1.12911 -4.20379,-2.22399 -6.26067,-3.31887c-1.87688,-1.02622 -3.82293,-1.87059 -5.85901,-2.74918c-0.63022,-0.23967 -1.15663,-0.75231 -1.84223,-1.11733c-0.04849,-0.95643 0.08303,-1.84419 0.30463,-2.6979c0.28388,-1.55943 0.53312,-3.02775 0.72697,-4.62141c0.16616,-0.97887 -0.13169,-1.82155 -1.17742,-2.32352c-0.45016,-0.17119 -0.74105,-0.49019 -1.15656,-0.75249c-1.76605,-0.7757 -3.49739,-1.6427 -5.26344,-2.4184c-3.31732,-1.57422 -6.82856,-2.90952 -10.11123,-4.57485c-2.65252,-1.42548 -5.47815,-2.39576 -8.1306,-3.82142c-1.96685,-1.06063 -4.00299,-1.93906 -6.03907,-2.81765c-2.90182,-1.31192 -5.67894,-2.6807 -8.51146,-4.17484c-0.18007,-0.06848 -0.2701,-0.10271 -0.45016,-0.17119c-3.35196,-1.4831 -6.82862,-2.90933 -10.11129,-4.57466c-2.32697,-1.19759 -4.82706,-1.93999 -7.05022,-3.41056c-0.23545,-0.19383 -0.50554,-0.29654 -0.90032,-0.34239c-3.36575,-1.17589 -6.46843,-2.77256 -9.66107,-4.40365c-2.7772,-1.36861 -5.72744,-2.28219 -8.31066,-3.8899c-0.23545,-0.19382 -0.54019,-0.20543 -0.86567,-0.43349c-3.26194,-1.44887 -6.59312,-2.7157 -9.66114,-4.40348c-2.32698,-1.19759 -4.82714,-1.93981 -7.05023,-3.41056c-0.14542,-0.15959 -0.45016,-0.17119 -0.63022,-0.23967c-3.26194,-1.44887 -6.61384,-2.93215 -9.87578,-4.38102c-4.90331,-2.28144 -9.68194,-4.61976 -14.58518,-6.90138c-2.63171,-1.2092 -5.38805,-2.36171 -7.98512,-3.66202c-2.59713,-1.30013 -5.42269,-2.27059 -7.82585,-3.80982c-0.18007,-0.06848 -0.2701,-0.10271 -0.45016,-0.17119c-2.90182,-1.31191 -5.7136,-2.58958 -8.61541,-3.9015z" data-paper-data="{&quot;index&quot;:null}" fill="#216aff"/><path d="M377.11835,214.301c-0.56099,-0.42171 -1.12199,-0.84343 -1.80759,-1.20845c1.31571,-2.10481 1.1079,-4.26817 2.0289,-6.419c1.76598,0.77588 3.65665,1.49489 5.38805,2.36171c2.81179,1.27768 5.58892,2.64646 8.36605,4.01525c4.81321,2.24738 9.66114,4.40348 14.47435,6.65086c4.63322,2.17873 9.17634,4.3234 13.80955,6.50212c2.54162,1.17515 5.17333,2.38434 7.71502,3.5593c5.40886,2.57799 10.85229,5.06503 16.26114,7.64302c2.72175,1.24344 5.44349,2.48687 8.16524,3.73031c4.72318,2.21315 9.44643,4.42611 14.16961,6.63926c2.45166,1.14073 4.90332,2.28145 7.3549,3.42235c5.35347,2.45263 10.58226,4.96213 15.90108,7.50588c4.63314,2.17891 9.39097,4.30095 14.02418,6.47967c4.63321,2.17872 9.3564,4.39188 13.98961,6.5706c0.18006,0.06848 0.4155,0.2623 0.65095,0.45613c-0.40155,2.1398 -0.6231,4.34826 -1.274,6.6018c-1.47509,-0.45689 -2.70095,-1.02716 -3.92674,-1.59761c-3.58741,-1.67693 -7.26487,-3.38811 -10.85235,-5.06486c-6.27452,-3.01148 -12.63906,-6.0572 -18.94823,-8.97757c-5.49888,-2.61222 -10.99777,-5.22445 -16.53123,-7.74574c-6.30917,-2.92037 -12.52829,-5.8065 -18.83746,-8.72687c-2.99184,-1.34616 -6.07372,-2.72655 -9.03092,-4.16381c-4.90324,-2.28162 -9.71652,-4.52883 -14.61976,-6.81045c-2.90182,-1.31191 -5.7136,-2.58958 -8.61541,-3.9015c-3.85751,-1.77965 -7.71502,-3.5593 -11.4825,-5.30471c-6.30917,-2.92037 -12.5283,-5.8065 -18.83747,-8.72687c-2.54169,-1.17496 -4.99327,-2.31586 -7.53496,-3.49082z" data-paper-data="{&quot;index&quot;:null}" fill="#d0e9ea"/><path d="M316.69553,244.4697c-0.24936,0.11375 -0.62326,0.28401 -1.03189,0.54556c-0.13157,-0.46699 -0.18702,-0.59216 -0.15237,-0.68327c0.67853,-2.86816 1.35713,-5.73649 2.03566,-8.60464c0.44321,-1.70741 1.44735,-2.99292 2.66613,-4.3009c3.72571,-4.10633 8.08853,-7.44912 12.0151,-11.27069c2.10526,-2.01312 4.39052,-3.95758 6.64119,-5.81112c5.81023,-4.98099 11.47497,-10.12138 17.08433,-15.38712c2.3892,-2.2178 4.86837,-4.40118 7.22292,-6.52787c0.19392,-0.23891 0.53323,-0.31825 0.94186,-0.5798c0.15237,0.68326 0.12468,1.29805 0.00702,1.87842c-0.72703,3.26666 -1.54409,6.49908 -2.09106,9.83422c-0.31157,2.17422 -1.40574,3.4255 -3.0193,4.68763c-7.46532,5.81037 -14.34891,12.25891 -21.46795,18.51363c-6.83516,6.05022 -13.76029,12.06602 -20.85163,17.70595z" data-paper-data="{&quot;index&quot;:null}" fill="#216aff"/><path d="M380.86062,274.91553c-0.41552,-0.26231 -0.58179,-0.638 -0.64413,-1.28703c2.95702,-2.62698 5.85865,-5.37931 8.96115,-7.84688c3.22711,-2.52427 6.54426,-5.01429 9.53593,-7.73238c0.47786,-0.44359 1.08032,-0.94388 1.46814,-1.42172c0.58166,-0.71657 1.26038,-0.87541 2.03602,-0.47615c1.17041,0.4451 2.30624,0.98113 3.38662,1.39199c0.5402,0.20543 1.13577,0.53621 1.67596,0.74164c6.50307,2.68145 13.09618,5.39714 19.52996,8.26082c4.93789,2.19051 9.91043,4.28991 14.65441,6.71934c3.28274,1.66515 6.60007,3.23936 9.91739,4.81358c0.77571,0.39908 1.58599,0.70723 1.86297,1.3338c0.11779,0.7742 -0.29077,1.03557 -0.51933,1.3656c-1.44734,1.63801 -3.24096,2.83166 -4.88917,4.1849c-2.60384,2.24025 -5.31852,4.22999 -7.97775,6.3449c-2.46539,1.87617 -4.93077,3.75234 -7.50692,5.37781c-0.67872,0.15884 -1.27429,-0.17195 -1.77983,-0.46849c-4.52238,-1.92821 -9.07935,-3.76548 -13.60173,-5.69369c-4.97254,-2.0994 -9.94508,-4.1988 -14.82759,-6.26396c-3.80206,-1.65448 -7.60419,-3.30877 -11.40632,-4.96307c-2.57627,-1.08403 -5.06256,-2.13364 -7.63883,-3.21767c-0.81029,-0.30815 -1.46131,-0.7641 -2.23695,-1.16336zM436.44376,272.91884c-2.25079,-0.85597 -4.28686,-1.73456 -6.28836,-2.70409c-1.69676,-0.95793 -3.40736,-1.60846 -5.24264,-2.20212c-0.54019,-0.20543 -1.13576,-0.53621 -1.67595,-0.74164c-2.99184,-1.34615 -6.14294,-2.54451 -9.06556,-4.0727c-3.46273,-1.73381 -7.16789,-2.83019 -10.54059,-4.52976c-0.7757,-0.39908 -1.77989,-0.46831 -2.52082,0.39607c-0.67176,0.68251 -1.45429,1.11433 -2.18144,1.67149c-4.18282,3.41146 -8.24096,6.76604 -12.42378,10.1775c-0.92099,0.7959 -2.11215,1.48927 -2.84619,2.8775c2.9156,1.0047 5.24959,2.72579 8.14438,3.51421c2.0223,1.18581 4.28694,1.73437 6.4685,2.77238c1.60672,0.92369 3.26187,1.44905 5.00712,2.00847c2.57626,1.08403 5.20798,2.29323 7.78425,3.37726c0.18007,0.06848 0.41558,0.26212 0.59564,0.3306c4.79248,2.03093 9.58489,4.06203 14.4674,6.12719c0.54019,0.20543 1.13583,0.53603 1.64137,0.83257c1.37128,0.72986 2.77714,1.36878 4.16226,1.79125c4.84762,-3.26272 16.74505,-12.59812 18.79486,-14.73641c-2.18844,-1.56187 -4.68853,-2.30426 -7.0848,-3.31963c-0.14542,-0.15959 -0.25625,-0.41011 -0.43631,-0.47859c-2.27159,-1.07224 -4.48774,-2.01931 -6.75933,-3.09156z" data-paper-data="{&quot;index&quot;:null}" fill="#010201"/><path d="M506.34972,295.85622c-0.21472,0.02263 -0.45016,-0.17119 -0.54715,-0.72911c0.4224,-0.56876 0.99028,-0.97812 1.55817,-1.38748c3.94736,-2.25035 7.5831,-5.03617 11.41963,-7.53705c1.19116,-0.69337 2.04987,-0.78355 3.15105,-0.1564c0.92112,0.55867 1.91147,0.9353 2.86717,1.40303c0.86573,0.43332 1.64137,0.83258 2.06383,1.61856c-0.09692,0.79683 -0.5955,1.02397 -1.00413,1.28552c-3.89198,2.37571 -7.7839,4.75124 -11.67588,7.12695c-1.35041,0.84117 -2.6732,1.06773 -4.09986,0.21252c-1.19121,-0.66139 -2.50704,-1.26607 -3.73283,-1.83652zM512.88019,292.50407c-1.20493,1.00059 -2.68698,1.37495 -3.78115,2.62623c0.54714,0.72911 1.21201,0.87767 1.91146,0.93529c1.06647,-0.63649 2.09837,-1.18205 3.13019,-1.72743c0.15934,-0.14799 0.22856,-0.33003 0.42247,-0.56895c-0.56099,-0.42172 -1.0666,-0.71808 -1.68297,-1.26514zM514.87468,291.59519c0.95577,0.46756 1.78678,0.99216 2.74255,1.45972c0.83791,-0.30646 1.49582,-0.68159 2.16759,-1.3641c-1.13583,-0.53604 -2.14691,-1.12912 -3.28274,-1.66515c-0.60246,0.50029 -1.31576,0.75006 -1.6274,1.56953zM519.18906,288.65071c2.14698,1.12893 2.14697,1.12894 3.11646,-0.06547c-1.0458,-0.50179 -1.98764,-1.27693 -3.11646,0.06547z" data-paper-data="{&quot;index&quot;:null}" fill="#020202"/><path d="M464.17356,284.81905c1.07342,-0.11282 2.07762,-0.04358 3.03332,0.42415c0.7549,0.1828 1.49596,0.67299 2.11233,1.22005c1.41281,1.16261 1.48905,2.85899 0.32565,4.29231c-2.029,2.35457 -7.09152,1.57568 -8.31054,-1.18041c-0.94191,-2.12989 0.47768,-4.50784 2.83924,-4.75611zM467.80263,288.28326c-0.43631,-0.47859 -0.9973,-0.9003 -1.62752,-1.13997c-0.90031,-0.34239 -1.50973,-0.36577 -2.16765,0.00935c-0.62327,0.28401 -0.77565,0.95567 -0.46395,1.49095c0.49865,1.12761 3.10261,1.59685 3.88521,1.16486c0.62328,-0.28401 0.81023,-1.0466 0.37392,-1.52519z" data-paper-data="{&quot;index&quot;:null}" fill="#030606"/><path d="M455.59329,291.66442c1.1773,-0.38597 2.9156,-0.35023 4.17604,0.12911c0.75483,0.18298 1.33663,0.82098 1.953,1.36804c0.90727,0.86606 1.10124,1.9819 0.65114,3.16545c-0.4501,1.18356 -1.86981,2.20696 -3.08865,2.16018c-1.70365,-0.12686 -3.37272,-0.34464 -4.62627,-1.65505c-0.23545,-0.19383 -0.47089,-0.38766 -0.58172,-0.63818c-1.17047,-1.79984 -0.44338,-3.71176 1.51645,-4.52954zM459.13238,296.44916c0.94875,-0.05594 1.10802,-0.20374 1.3919,-1.76317c-0.38086,-0.35342 -0.85182,-0.74089 -1.35743,-1.03725c-0.83102,-0.52462 -1.74518,-0.5596 -2.61781,-0.16185c-0.7133,0.24977 -0.84481,1.13754 -0.44315,1.70724c0.74801,1.01387 1.773,1.29938 3.02649,1.25504z" data-paper-data="{&quot;index&quot;:null}" fill="#040605"/><path d="M497.47865,305.09208c-1.14265,0.29486 -2.45159,0.21403 -3.8921,-0.33379c-0.18007,-0.06848 -0.2701,-0.10271 -0.45016,-0.17119c-1.49589,-0.67316 -2.44475,-1.97179 -2.2093,-3.13289c0.26308,-1.77571 1.69657,-3.10632 3.46945,-3.16151c1.68291,-0.08961 3.1788,0.58356 4.37697,1.76862c1.59982,1.75476 0.96972,4.22459 -1.29486,5.03077zM497.35386,302.43948c0.15238,-0.67167 -0.63027,-1.59442 -1.6552,-1.88011c-0.45017,-0.1712 -1.09423,-0.10346 -1.68292,0.08961c-0.83792,0.30646 -1.09411,1.2511 -0.3877,1.8324c0.38087,0.35342 0.88647,0.64978 1.33663,0.82097c1.02493,0.28569 2.1122,-0.13453 2.38919,-0.86288z" data-paper-data="{&quot;index&quot;:null}" fill="#040505"/><path d="M476.79889,292.53819c1.56506,-0.86363 3.03327,-0.9306 4.40454,-0.20074c1.41971,0.33153 2.29233,1.2887 2.84642,2.54148c0.5333,1.0365 0.31176,1.89003 -0.6093,2.68611c-2.16064,1.88777 -6.2536,1.26922 -7.70112,-1.15702c-0.87957,-1.48085 -0.50566,-3.00603 1.05947,-3.86984zM481.79219,294.85406c-1.21195,-0.87784 -2.56242,-1.39142 -4.10675,-0.31133c0.10394,1.0816 0.59563,1.68553 1.40591,1.99368c0.90031,0.34238 1.81448,0.37737 2.63166,-0.14555c0.53324,-0.31824 0.57478,-1.24043 0.06917,-1.53679z" data-paper-data="{&quot;index&quot;:null}" fill="#030604"/><path d="M473.67636,312.40119c0.18696,-0.76259 0.96949,-1.19441 1.84212,-1.59216c1.95984,-0.81778 4.58461,-0.13226 5.85889,1.39461c1.27435,1.5267 0.72732,3.50708 -1.05245,4.39334c-1.65517,0.82956 -5.39489,-0.17589 -6.37834,-1.38358c-0.54715,-0.72911 -0.63028,-1.59442 -0.27022,-2.81221zM477.78311,312.71254c-0.84487,-0.21722 -1.55817,0.03255 -2.04987,0.78354c0.13852,0.99066 0.89343,1.17345 1.61368,1.44736c0.72025,0.27391 1.32967,0.2973 2.04297,0.04753c0.24937,-0.11375 0.40863,-0.26155 0.56789,-0.40936c0.19392,-0.23891 0.24235,-0.63724 0.0069,-0.83107c-0.54714,-0.7291 -1.42666,-0.8552 -2.18156,-1.038z" data-paper-data="{&quot;index&quot;:null}" fill="#030506"/><path d="M484.3827,305.11392c1.17731,-0.38597 3.22035,-0.33863 4.75089,0.24343c0.63022,0.23967 1.46124,0.76428 2.06383,1.61856c0.71336,1.10498 0.65797,2.33456 -0.26309,3.13064c-2.79776,2.47917 -7.13305,1.14294 -8.13737,-1.63578c-0.51944,-1.34389 0.28382,-2.91418 1.58574,-3.35684zM486.32205,309.49869c1.29502,0.3884 2.31306,0.15023 3.24797,-0.95324c-1.31596,-1.95926 -2.46556,-2.18808 -4.77857,-0.98357c0.30473,1.36653 0.45021,1.52594 1.53059,1.9368z" data-paper-data="{&quot;index&quot;:null}" fill="#050504"/><path d="M451.8123,298.35489c0.92111,0.55867 1.80759,1.20845 2.25085,2.21071c0.67871,1.1961 0.3048,2.72128 -0.92094,3.50558c-0.53324,0.31824 -1.12193,0.51132 -1.76593,0.57887c-1.43362,-0.02396 -2.76329,-0.32126 -3.9545,-0.98264c-0.50554,-0.29654 -0.94185,-0.77513 -1.25355,-1.31041c-1.15663,-2.10724 0.26303,-4.48539 2.61075,-4.42626c1.07343,-0.11281 1.97374,0.22957 3.03332,0.42415zM450.57971,302.67994c0.69952,0.05744 1.43363,0.02396 1.92526,-0.72685c-0.87957,-1.48086 -1.83527,-1.9486 -3.39351,-1.91586c-0.42936,0.04509 -0.94881,0.05612 -1.06647,0.63649c-0.17311,0.4552 0.04849,0.95642 0.464,1.21872c0.61644,0.54688 1.37128,0.72986 2.07073,0.78748z" data-paper-data="{&quot;index&quot;:null}" fill="#050304"/><path d="M461.66043,304.70544c1.44045,-0.80693 2.78404,-0.81721 4.09987,-0.21252c1.26044,0.47934 2.18155,1.03801 2.80488,2.10875c0.64413,1.28702 0.44332,2.357 -0.72703,3.26665c-0.28394,0.20468 -0.69256,0.46623 -1.03189,0.54556c-1.69669,0.39683 -3.3103,0.30421 -4.88244,-0.71041c-0.47089,-0.38766 -0.90727,-0.86606 -1.2189,-1.40152c-0.78954,-1.44662 -0.51951,-2.69864 0.95552,-3.59651zM465.06104,308.49951c0.6648,0.14874 1.41971,0.33153 1.87676,-0.32835c-0.5541,-1.25278 -0.73417,-1.32126 -1.41977,-1.68628c-0.72025,-0.2739 -1.50981,-0.36558 -2.18846,-0.20693c-0.67873,0.15884 -0.77565,0.95567 -0.33927,1.43408c0.58172,0.63817 1.37121,0.73004 2.07073,0.78748z" data-paper-data="{&quot;index&quot;:null}" fill="#040405"/><path d="M474.73559,304.46727c-1.28111,0.65895 -2.71473,0.635 -4.15524,0.08718c-0.9349,-0.25145 -1.6413,-0.83275 -2.27848,-1.5961c-1.16351,-1.27617 -0.8104,-3.01765 0.6647,-3.91569c2.00827,-1.2161 4.95163,-0.82638 6.58603,0.83745c1.57909,1.5383 1.17747,3.67828 -0.81701,4.58717zM472.27693,300.09323c-0.94882,0.05612 -1.80752,0.1463 -2.49314,1.13621c0.76881,1.23015 0.94888,1.29863 1.84919,1.64101c0.81029,0.30815 1.669,0.21797 2.41695,-0.12291c0.62328,-0.28401 0.77558,-0.95549 0.37392,-1.52519c-0.54714,-0.72911 -1.35743,-1.03726 -2.14691,-1.12912z" data-paper-data="{&quot;index&quot;:null}" fill="#040506"/><path d="M388.28382,255.12493c0.63022,0.23967 1.31582,0.60469 1.36438,1.56093c-0.63712,0.5914 -1.30199,0.44285 -1.93221,0.20318c-2.21615,-0.94707 -4.3769,-1.7688 -6.59311,-2.71569c-0.77564,-0.39925 -1.56512,-0.49112 -2.27153,-1.07242c-0.56099,-0.42171 -0.81724,-0.83182 -0.66493,-1.5033c0.6925,-0.46605 1.41275,-0.19215 2.04297,0.04752c2.70095,1.02715 5.45735,2.17948 8.05442,3.47979z" data-paper-data="{&quot;index&quot;:null}" fill="#0c1212"/><path d="M358.42129,249.91669c-0.61644,-0.54688 -0.96272,-0.99123 -0.72031,-1.62865c0.6925,-0.46605 1.41275,-0.19215 2.04297,0.04752c2.70095,1.02715 5.49193,2.08855 8.05435,3.47997c0.68567,0.36484 1.37127,0.72986 1.41983,1.6861c-0.63711,0.5914 -1.30198,0.44285 -1.9322,0.20318c-2.21614,-0.94707 -4.3769,-1.7688 -6.59311,-2.71569c-0.77563,-0.39925 -1.56511,-0.49112 -2.27152,-1.07242z" data-paper-data="{&quot;index&quot;:null}" fill="#0d1313"/><path d="M335.45646,244.72649c0.76868,-0.12442 1.68285,-0.08943 2.36845,0.27559c2.74255,1.45972 5.69279,2.3733 8.27601,3.98101c0.50561,0.29636 0.92112,0.55867 0.89342,1.17346c-0.17311,0.4552 -0.56781,0.40918 -0.99724,0.45445c-0.644,0.06755 -1.23964,-0.26306 -1.77983,-0.46849c-2.48623,-1.04979 -4.93789,-2.19051 -7.29951,-3.29699c-0.63022,-0.23967 -1.01115,-0.5929 -1.44746,-1.07149c-0.23545,-0.19383 -0.31163,-0.53547 -0.01384,-1.04754z" data-paper-data="{&quot;index&quot;:null}" fill="#090c0d"/><path d="M361.53056,245.26349c-0.23545,-0.19383 -0.40166,-0.5697 -0.06929,-1.17271c0.85871,-0.09018 1.77289,-0.05519 2.54859,0.34389c2.65246,1.42566 5.51266,2.30501 8.09595,3.91253c0.50554,0.29654 1.13575,0.53622 0.9488,1.29881c-0.2978,0.51207 -0.87256,0.39758 -1.26734,0.35173c-0.75483,-0.18297 -1.50974,-0.36577 -2.19534,-0.73079c-1.87688,-1.02622 -3.85757,-1.77948 -5.89365,-2.65807c-0.81028,-0.30814 -1.49588,-0.67316 -2.16771,-1.34539z" data-paper-data="{&quot;index&quot;:null}" fill="#090d0e"/><path d="M374.03826,254.91794c0.69945,0.05762 1.14961,0.22882 1.77983,0.46849c2.50704,1.26607 5.10417,2.5662 7.70124,3.86651c0.45016,0.17119 0.86566,0.4335 0.9973,0.9003c0.2008,0.28494 0.18701,0.59215 -0.0069,0.83107c-0.15934,0.14799 -0.44321,0.35249 -0.62327,0.28401c-0.48481,-0.08008 -0.96961,-0.16017 -1.29509,-0.38823c-2.11233,-1.22004 -4.27308,-2.04177 -6.48922,-2.98884c-0.9557,-0.46774 -1.87683,-1.02641 -2.60403,-1.82399c-0.20087,-0.28476 -0.31163,-0.53546 -0.20782,-0.80844c0.10388,-0.27315 0.47785,-0.4436 0.74795,-0.34088z" data-paper-data="{&quot;index&quot;:null}" fill="#080b0b"/><path d="M331.61303,249.41338c0.67176,-0.68251 1.39201,-0.40861 2.02223,-0.16894c1.17041,0.4451 2.2508,0.85597 3.38656,1.39218c1.49589,0.67316 3.04722,1.4715 4.54318,2.14449c0.50554,0.29654 1.01108,0.59309 1.57207,1.0148c0.23545,0.19383 0.43631,0.47858 0.29785,0.84267c-0.10387,0.27315 -0.47784,0.4436 -0.78259,0.43199c-0.3947,-0.04603 -0.78948,-0.09187 -1.14961,-0.22882c-2.90182,-1.31192 -5.92824,-2.56713 -8.83005,-3.87905c-0.54019,-0.20543 -0.9765,-0.68401 -1.05964,-1.54932z" data-paper-data="{&quot;index&quot;:null}" fill="#07090a"/><path d="M353.17896,254.48832c-0.56099,-0.42171 -1.33669,-0.82079 -1.56524,-1.84569c0.7618,-0.64828 1.39202,-0.40861 2.02224,-0.16894c1.17041,0.4451 2.25079,0.85597 3.38655,1.39218c1.58592,0.70741 3.13725,1.50574 4.68859,2.30408c0.50554,0.29654 0.9765,0.68401 1.44746,1.07149c0.14542,0.15959 0.13157,0.46698 0.06234,0.64903c-0.06923,0.18205 -0.31853,0.29562 -0.53324,0.31825c-0.55404,0.10196 -1.00419,-0.06923 -1.54438,-0.27466c-1.17042,-0.4451 -2.39621,-1.01555 -3.56662,-1.46065c-1.49596,-0.67299 -2.86716,-1.40302 -4.3977,-1.98508z" data-paper-data="{&quot;index&quot;:null}" fill="#07090a"/><path d="M346.37062,238.24763c-0.68567,-0.36483 -0.68567,-0.36483 -1.50986,-1.72033c0.7618,-0.64827 1.42667,-0.49972 2.05689,-0.26005c1.17041,0.4451 2.25079,0.85596 3.38655,1.39217c1.58592,0.7074 3.13726,1.50574 4.6886,2.30408c0.41551,0.2623 0.92111,0.55867 1.30197,0.91209c0.23552,0.19365 0.43631,0.47858 0.29785,0.84267c-0.13846,0.36409 -0.47785,0.44361 -0.78253,0.43182c-0.48481,-0.08009 -1.05965,-0.1944 -1.50981,-0.36559c-1.53054,-0.58205 -3.11645,-1.28946 -4.57776,-2.05356c-1.10111,-0.62733 -2.21614,-0.94708 -3.3519,-1.48329z" data-paper-data="{&quot;index&quot;:null}" fill="#060909"/><path d="M352.25749,245.80118c-0.52629,0.84193 -1.19116,0.69337 -1.73135,0.48794c-1.4405,-0.54781 -2.881,-1.09563 -4.28686,-1.73455c-1.40593,-0.63875 -2.81178,-1.27768 -4.12761,-1.88237c-0.95577,-0.46755 -0.95577,-0.46755 -1.75916,-1.60677c0.11773,-0.58055 0.63711,-0.59141 1.03189,-0.54556c0.48474,0.08026 1.05958,0.19458 1.56512,0.49112c2.45166,1.14072 5.028,2.22457 7.445,3.4564c0.75483,0.18297 1.44051,0.54781 1.86297,1.33379z" data-paper-data="{&quot;index&quot;:null}" fill="#060909"/><path d="M374.91138,268.06784c0.47097,0.38748 0.29785,0.84267 -0.02074,1.13846c-0.49858,0.22713 -0.94874,0.05594 -1.3989,-0.11525c-2.54169,-1.17496 -5.1734,-2.38415 -7.71502,-3.55929c-0.68567,-0.36484 -1.37128,-0.72986 -1.82839,-1.42473c-0.29089,-0.319 -0.24239,-0.7175 -0.0139,-1.04735c0.49858,-0.22713 1.03877,-0.02171 1.57896,0.18372c2.72176,1.24344 5.44351,2.48688 8.13061,3.82143c0.45017,0.1712 0.92112,0.55867 1.2674,1.00302z" data-paper-data="{&quot;index&quot;:null}" fill="#070909"/><path d="M359.50904,261.68941c-0.83798,0.30664 -1.50279,0.15791 -2.31307,-0.15024c-2.39628,-1.01537 -4.79247,-2.03092 -7.18868,-3.04647c-0.72025,-0.27391 -1.40593,-0.63875 -1.86304,-1.33362c-0.11076,-0.25071 -0.18701,-0.59215 0.0069,-0.83107c0.15934,-0.14799 0.40863,-0.26156 0.62327,-0.28401c0.48481,0.08008 0.87958,0.12592 1.32974,0.29711c2.43086,0.92444 4.82705,1.93999 7.22326,2.95554c0.72025,0.27391 1.37128,0.72987 1.89762,1.24269c0.2909,0.319 0.36708,0.66063 0.284,1.15007z" data-paper-data="{&quot;index&quot;:null}" fill="#050606"/><path d="M378.08302,262.70875c0.86566,0.43349 1.73139,0.86681 2.16081,2.17647c-0.87257,0.39758 -1.66212,0.30589 -2.34772,-0.05913c-2.41701,-1.23183 -4.9171,-1.97423 -7.36875,-3.11495c-0.72025,-0.27391 -1.40585,-0.63893 -1.73835,-1.39049c-0.05539,-0.12535 -0.13157,-0.46698 0.02769,-0.61479c0.06923,-0.18205 0.31853,-0.29562 0.53324,-0.31825c0.48481,0.08009 0.87951,0.12611 1.32967,0.2973c2.52089,0.95868 4.91716,1.97405 7.4034,3.02384z" data-paper-data="{&quot;index&quot;:null}" fill="#050606"/><path d="M392.49536,276.83905c-0.24936,0.11375 -0.4432,0.35249 -0.7826,0.432c-2.80476,-0.75418 -5.22878,-2.50951 -8.14437,-3.51421c0.78942,-1.26288 1.89054,-1.99049 2.84618,-2.8775c4.09279,-3.4457 8.24096,-6.76604 12.42378,-10.1775c0.72715,-0.55716 1.63435,-1.04585 2.18144,-1.67149c0.83097,-0.83014 1.74513,-0.79515 2.52083,-0.39607c3.46273,1.73381 7.16789,2.83019 10.54059,4.52976c2.95727,1.43709 5.98369,2.69231 9.06556,4.0727c0.5402,0.20543 1.13577,0.53621 1.67596,0.74164c-0.15927,0.14781 -0.40856,0.26138 -0.53324,0.31825c-2.99867,0.83966 -6.08732,1.64491 -9.12065,2.57569c-7.51392,2.14446 -15.0833,4.16374 -22.67347,5.96674z" data-paper-data="{&quot;index&quot;:null}" fill="#00ff00"/><path d="M443.42476,276.51147c2.39621,1.01554 4.89629,1.75794 7.0848,3.31962c-2.08446,2.22941 -13.98189,11.5648 -18.79493,14.73659c-1.38513,-0.42246 -2.79099,-1.06139 -4.16226,-1.79125c-0.50554,-0.29654 -1.10111,-0.62732 -1.6413,-0.83275c-4.79247,-2.03092 -9.58495,-4.06185 -14.46746,-6.12701c-0.18007,-0.06848 -0.41551,-0.2623 -0.59557,-0.33078c7.08456,-2.09936 14.24538,-3.85728 21.44078,-5.70612c3.76737,-0.96408 7.42396,-2.17886 11.13594,-3.2683z" data-paper-data="{&quot;index&quot;:null}" fill="#00ff00"/><path d="M443.42475,276.51147c-3.71198,1.08944 -7.33393,2.21311 -11.01126,3.21143c-7.10544,1.88326 -14.35622,3.60676 -21.44085,5.7063c-2.57626,-1.08403 -5.20798,-2.29323 -7.78425,-3.37726c1.73134,-0.48793 3.37265,-1.01011 5.06935,-1.40693c5.40867,-1.48626 10.78269,-2.8814 16.19137,-4.36766c3.9267,-1.11207 7.85332,-2.22396 11.68991,-3.37009c2.30624,0.98113 4.4878,2.01913 6.75932,3.09156c0.23551,0.19365 0.38093,0.35324 0.52641,0.51265z" data-paper-data="{&quot;index&quot;:null}" fill="#87ff87"/><path d="M391.71277,277.27107c0.24936,-0.11375 0.53324,-0.31825 0.7826,-0.432c7.59017,-1.803 15.15955,-3.82229 22.67347,-5.96674c2.99867,-0.83966 5.99736,-1.67933 9.12065,-2.57569c0.21471,-0.02264 0.40863,-0.26156 0.53324,-0.31825c1.83529,0.59367 3.54589,1.2442 5.24264,2.20212c-1.08032,0.94388 -2.5831,1.10179 -3.85044,1.45352c-4.74387,1.635 -9.54313,3.14465 -14.30773,4.56318c-4.54989,1.3959 -9.21069,2.54145 -13.81596,3.812c-2.0015,-0.96953 -4.26614,-1.51809 -6.37847,-2.73814z" data-paper-data="{&quot;index&quot;:null}" fill="#86ff86"/><path d="M398.14663,280.13455c4.60534,-1.27073 9.17604,-2.45034 13.81603,-3.81218c4.76461,-1.41853 9.56386,-2.92817 14.30766,-4.56299c1.30199,-0.44285 2.68009,-0.54388 3.85044,-1.45353c2.0015,0.96953 4.03757,1.84812 6.03907,2.81765c-3.92663,1.11189 -7.76329,2.2582 -11.68991,3.37009c-5.40868,1.48625 -10.78276,2.88158 -16.19144,4.36784c-1.73128,0.48776 -3.37258,1.00993 -5.06928,1.40675c-1.80063,-0.68477 -3.45585,-1.20994 -5.06257,-2.13363z" data-paper-data="{&quot;index&quot;:null}" fill="#01ff01"/><path d="M512.88019,292.50407c0.65102,0.45596 1.12198,0.84343 1.68297,1.26514c-0.19391,0.23891 -0.26314,0.42096 -0.42247,0.56895c-1.03182,0.54538 -1.97369,1.12518 -3.13019,1.72743c-0.69945,-0.05762 -1.45435,-0.24042 -1.91146,-0.93529c1.05952,-1.16017 2.54157,-1.53454 3.78115,-2.62623z" data-paper-data="{&quot;index&quot;:null}" fill="#589ca0"/><path d="M514.87467,291.59515c0.34622,-0.9104 1.02493,-1.06924 1.6274,-1.56953c1.0458,0.5018 2.05688,1.09488 3.28274,1.66515c-0.70634,0.77345 -1.36426,1.14857 -2.16759,1.3641c-0.86574,-0.43332 -1.7314,-0.86681 -2.74255,-1.45972z" data-paper-data="{&quot;index&quot;:null}" fill="#5ba3a7"/><path d="M519.18906,288.65071c1.16347,-1.43351 2.07066,-0.56726 3.11646,-0.06547c-0.96949,1.19441 -0.96948,1.19441 -3.11646,0.06547z" data-paper-data="{&quot;index&quot;:null}" fill="#56999d"/><path d="M464.00747,287.15269c0.65792,-0.37512 1.26734,-0.35173 2.16765,-0.00935c0.63022,0.23967 1.19121,0.66138 1.62752,1.13997c0.43631,0.47859 0.12467,1.29806 -0.37392,1.52519c-0.87263,0.39776 -3.35191,-0.12836 -3.88521,-1.16486c-0.27705,-0.6264 -0.15932,-1.20694 0.46395,-1.49095z" data-paper-data="{&quot;index&quot;:null}" fill="#01f4f4"/><path d="M459.16684,293.64875c0.50561,0.29636 0.94192,0.77495 1.35743,1.03725c-0.28388,1.55942 -0.44316,1.70723 -1.3919,1.76317c-1.16346,0.07857 -2.27848,-0.24117 -3.02649,-1.25504c-0.49169,-0.60394 -0.27015,-1.45747 0.44315,-1.70724c0.87263,-0.39775 1.7868,-0.36276 2.61781,0.16185z" data-paper-data="{&quot;index&quot;:null}" fill="#35a76d"/><path d="M494.01574,300.64896c0.62334,-0.28418 1.23276,-0.2608 1.68292,-0.08961c0.99034,0.37663 1.77293,1.29956 1.6552,1.88011c-0.18696,0.7626 -1.36426,1.14857 -2.38919,0.86288c-0.54019,-0.20543 -0.95577,-0.46755 -1.33663,-0.82097c-0.58179,-0.63799 -0.45021,-1.52594 0.3877,-1.8324z" data-paper-data="{&quot;index&quot;:null}" fill="#da6694"/><path d="M479.09133,296.53641c-0.93489,-0.25146 -1.392,-0.94633 -1.40591,-1.99368c1.57891,-1.17102 2.92938,-0.65745 4.10675,0.31133c0.56099,0.42171 0.51945,1.3439 -0.06917,1.53679c-0.90721,0.48869 -1.82138,0.4537 -2.63166,0.14555z" data-paper-data="{&quot;index&quot;:null}" fill="#01f001"/><path d="M477.25689,314.90922c-0.54019,-0.20543 -1.26044,-0.47933 -1.52364,-1.41312c0.45705,-0.65987 1.205,-1.00076 1.95983,-0.81778c0.7549,0.1828 1.63442,0.30889 2.18156,1.038c0.20087,0.28477 0.18702,0.59216 -0.00689,0.83108c-0.15927,0.14781 -0.31853,0.29561 -0.56789,0.40936c-0.62327,0.28401 -1.32272,0.22638 -2.04297,-0.04753z" data-paper-data="{&quot;index&quot;:null}" fill="#008bda"/><path d="M484.79144,307.56189c2.31301,-1.2045 3.46262,-0.97569 4.77857,0.98357c-0.93491,1.10348 -1.98753,1.43258 -3.24797,0.95324c-1.08038,-0.41086 -1.22586,-0.57027 -1.53059,-1.9368z" data-paper-data="{&quot;index&quot;:null}" fill="#ebe502"/><path d="M449.11148,300.0372c1.59282,-0.12366 2.51394,0.43501 3.39351,1.91586c-0.61632,0.80769 -1.26039,0.87541 -1.92526,0.72685c-0.78948,-0.09186 -1.54432,-0.27483 -2.07073,-0.78748c-0.38086,-0.35342 -0.54708,-0.72928 -0.464,-1.21872c0.20769,-0.54613 0.63711,-0.5914 1.06647,-0.63649z" data-paper-data="{&quot;index&quot;:null}" fill="#f30001"/><path d="M465.57341,306.61025c0.66487,0.14856 0.72026,0.27391 1.36439,1.56093c-0.49171,0.75099 -1.24654,0.56802 -1.82138,0.4537c-0.78948,-0.09186 -1.54439,-0.27466 -2.07073,-0.78748c-0.52634,-0.51283 -0.33938,-1.27543 0.33927,-1.43408c0.80333,-0.21553 1.50285,-0.15808 2.18845,0.20694z" data-paper-data="{&quot;index&quot;:null}" fill="#de93ad"/><path d="M471.633,302.87045c-0.93497,-0.25128 -1.08038,-0.41086 -1.84919,-1.64101c0.7202,-1.08083 1.57898,-1.1712 2.49314,-1.13621c0.82413,0.00076 1.59977,0.40001 2.14691,1.12912c0.40166,0.5697 0.284,1.15007 -0.37392,1.52519c-0.83798,0.30664 -1.60667,0.43106 -2.41695,0.12291z" data-paper-data="{&quot;index&quot;:null}" fill="#865492"/></g><g data-paper-data="{&quot;index&quot;:null}" stroke="#000000"><path d="M473.51821,234.35232c2.08838,-1.93859 -11.43752,-9.81064 -17.71341,-17.19548c-5.08897,-5.98819 -5.73625,-12.4827 1.14971,-10.77631c5.50483,5.9302 77.36045,13.15922 52.92805,35.83909c-24.43241,22.67987 -48.70133,36.25817 -54.20616,30.32796c-5.50482,-5.9302 -6.5906,-15.51541 17.84181,-38.19527z" fill="#216aff" stroke-width="2"/><path d="M446.93913,242.53176c10.48701,-9.73477 27.0831,-8.90618 37.0684,1.85071c9.9853,10.75689 9.57859,27.36868 -0.90842,37.10345c-10.48701,9.73477 -27.0831,8.90617 -37.0684,-1.85072c-9.9853,-10.75689 -9.57858,-27.36867 0.90843,-37.10344z" fill="#faddbf" stroke-width="2"/><path d="M482.52667,263.71609c10.48701,-9.73478 11.41912,7.16216 0.93211,16.89693c-10.48701,9.73478 -27.0831,8.90618 -37.0684,-1.85071c-9.9853,-10.75689 25.64927,-5.31145 36.13628,-15.04622z" fill="#ef8b89" stroke-width="0"/></g></g></g></svg>