<svg version="1.1" xmlns="http://www.w3.org/2000/svg" xmlns:xlink="http://www.w3.org/1999/xlink" width="336.07274" height="336.07274" viewBox="0,0,336.07274,336.07274"><g transform="translate(-151.96363,-11.96363)"><g data-paper-data="{&quot;isPaintingLayer&quot;:true}" fill-rule="nonzero" stroke-linejoin="miter" stroke-miterlimit="10" stroke-dasharray="" stroke-dashoffset="0" style="mix-blend-mode: normal"><g data-paper-data="{&quot;index&quot;:null}"><g><g><g data-paper-data="{&quot;origRot&quot;:0}" stroke="#000000" stroke-width="3" stroke-linecap="round"><path d="M272.77973,214.71241c0,0 -4.7653,-30.06679 -1.76975,-30.78396c5.40121,-1.29311 18.22201,-0.74565 18.22201,-0.74565l10.96418,-0.50624l-4.17507,-0.21279c0,0 4.78945,-16.10998 7.56705,-18.75693c1.45927,-1.39064 11.17635,0.80898 12.94499,2.69515c3.9676,4.2313 3.20578,43.17868 -1.25564,44.494c-10.85897,1.50192 -33.83567,4.78102 -33.83567,4.78102c0,0 -8.64213,1.48537 -8.66212,-0.96456z" data-paper-data="{&quot;origPos&quot;:null}" fill="#582700"/><path d="M281.11907,183.90137l1.53894,30.00988" fill="none"/><path d="M286.674,213.99186l-1.25313,-30.02453" data-paper-data="{&quot;origPos&quot;:null}" fill="none"/></g><path d="M281.48598,183.81803l2.80696,-0.1263l1.38171,30.70635l-2.80696,0.1263z" fill="#ffffff" stroke="none" stroke-width="0" stroke-linecap="butt"/><path d="M314.07681,210.77159l-27.04328,3.69618l-0.40982,-30.25652l13.25759,-0.60097l0.0225,-1.99988l-2.99701,-0.28371l6.94072,-16.92302l1.49991,0.01687l7.49953,0.08433l3.71041,3.54194l1.90711,8.27196l-0.01987,24.00128l-2.8707,10.71841z" fill="#66c8ff" stroke="#000000" stroke-width="0.5" stroke-linecap="round"/></g><g fill="#fffc96" stroke="#000000" stroke-width="2" stroke-linecap="round"><path d="M290.30459,183.54701c0,0 3.93338,4.35638 11.20916,8.94272c7.37801,4.65079 14.03001,7.15907 14.03001,7.15907l1.61018,-1.40625c0,0 2.50755,2.65006 0.95956,4.3688c-3.78875,4.20664 -34.98785,-16.47239 -31.5931,-20.72748c2.12179,-2.65951 6.09517,0.35727 6.09517,0.35727z"/><path d="M299.35842,177.39221c0,0 -0.17399,6.58318 1.9202,15.73147c2.09416,9.14829 4.62923,14.86175 4.62923,14.86175l1.21261,-0.99688c0,0 1.91671,3.58698 -0.56809,5.60071c-4.1029,3.3251 -14.02223,-36.94342 -9.07614,-39.30695c2.35624,-1.12595 3.12909,3.31794 3.12909,3.31794z" data-paper-data="{&quot;index&quot;:null}"/></g></g><g><g data-paper-data="{&quot;index&quot;:null}"><path d="M272.91826,180.81473c2.40264,-0.44225 5.63256,-4.98882 6.04329,-2.75746c0.27362,1.48654 -0.85269,23.02076 -2.15378,24.4972c-0.6519,0.73976 -1.81431,1.35447 -2.61632,1.50211c-1.1788,0.21697 -2.2677,-0.22626 -3.13618,-1.08718c-0.90165,-0.89385 -5.12602,-21.58061 -5.33524,-22.71719c-0.41072,-2.23136 4.79559,1.00474 7.19824,0.5625z" fill="#0091d4" stroke="#000000" stroke-width="1.5" stroke-linecap="butt"/><g stroke-linecap="butt"><path d="M271.53769,173.4375c4.35303,-0.80125 8.31075,0.87926 8.8398,3.7535c0.52906,2.87425 -2.5709,5.85383 -6.92394,6.65508c-4.35304,0.80123 -8.31075,-0.87929 -8.8398,-3.75353c-0.52907,-2.87424 2.57088,-5.85382 6.92392,-6.65506z" fill="#0091d4" stroke="#000000" stroke-width="1.5"/><path d="M276.61913,179.22614l3.25342,-2.23641c0,0 -0.36317,1.95887 -0.81543,2.66068c-0.96981,1.45709 -2.53432,2.13897 -2.53432,2.13897z" fill="#00aeff" stroke="none" stroke-width="0"/><path d="M273.29922,180.67731l1.52838,-0.59325c0,0 0.29578,0.98841 0.33815,1.34721c0.04961,0.42012 -0.08475,1.2043 -0.08475,1.2043l-1.89329,0.40166z" fill="#00aeff" stroke="none" stroke-width="0"/></g><g><path d="M272.60093,179.82811c-6.00508,1.10533 -9.98511,-1.81639 -11.09046,-7.82152c-1.10533,-6.00509 3.17443,-11.82589 9.17956,-12.93124c6.0051,-1.10534 11.0405,2.36451 12.14585,8.36964c1.10533,6.00509 -4.22979,11.27777 -10.23492,12.38312z" fill="#00699a" stroke="#000000" stroke-width="1.5" stroke-linecap="butt"/><path d="M282.1143,165.79348c0.54843,2.97939 -0.33367,6.33442 -1.72758,8.92783c-0.99309,1.84768 -2.75402,3.35762 -4.87668,3.74833c-4.36313,0.80308 -6.27237,-0.85426 -7.23946,-6.10827c-0.48294,-2.62379 0.46007,-6.12914 1.93279,-8.62805c1.4763,-2.50499 2.67747,-4.19423 2.67747,-4.19423c0,0 8.26637,1.00038 9.23346,6.25439z" fill="#0091d4" stroke="none" stroke-width="0" stroke-linecap="butt"/><path d="M282.51306,167.57244c0,0 -2.20586,4.66574 -9.10615,6.19181c-6.95682,1.53858 -10.81623,-1.53826 -10.81623,-1.53826" fill="none" stroke="#000000" stroke-width="0.8" stroke-linecap="round"/><path d="M282.13887,172.57401c0,0 -3.64817,3.05009 -7.92701,4.5244c-6.16636,2.12467 -9.02774,0.50779 -9.02774,0.50779" fill="none" stroke="#000000" stroke-width="0.75" stroke-linecap="round"/><path d="M280.70265,163.09631c0,0 -2.50846,4.08343 -9.32946,6.00004c-6.56058,1.84344 -8.96255,0.14151 -8.96255,0.14151" fill="none" stroke="#000000" stroke-width="0.8" stroke-linecap="round"/><path d="M262.21779,167.85522c0,0 3.69533,-3.10781 6.89979,-4.61368c4.22076,-1.98349 8.8186,-2.78061 8.8186,-2.78061" fill="none" stroke="#000000" stroke-width="0.8" stroke-linecap="round"/><path d="M270.15094,179.4666c0,0 -3.04163,-2.88653 -4.46202,-9.16738c-1.32546,-5.86112 1.11396,-9.02222 1.11396,-9.02222" fill="none" stroke="#000000" stroke-width="0.8" stroke-linecap="round"/><path d="M268.95462,160.57263c0,0 0.35312,3.03572 1.24492,6.25307c0.78427,2.82936 2.09072,5.76576 2.47932,7.3636c0.46153,1.89781 0.84001,5.15066 0.84001,5.15066" fill="none" stroke="#000000" stroke-width="0.8" stroke-linecap="round"/><path d="M271.59916,159.53095c0,0 3.96644,4.08222 4.84118,8.18265c1.37293,6.43577 -0.20007,11.00212 -0.20007,11.00212" fill="none" stroke="#000000" stroke-width="0.8" stroke-linecap="round"/><path d="M275.14597,159.37139c0,0 3.03067,2.8459 4.4583,6.80241c2.05582,5.69752 1.12489,9.12601 1.12489,9.12601" fill="none" stroke="#000000" stroke-width="0.8" stroke-linecap="round"/><path d="M280.78061,166.53483c-0.42818,0.07881 -0.84904,-0.25782 -0.93997,-0.75187c-0.09096,-0.49406 0.18245,-0.95846 0.61063,-1.03727c0.4282,-0.07881 0.84904,0.25781 0.93997,0.75186c0.09096,0.49407 -0.18244,0.95847 -0.61062,1.03728z" fill="#00aeff" stroke="none" stroke-width="0" stroke-linecap="butt"/><path d="M279.30114,163.35429c-0.24703,0.04547 -0.48415,-0.11794 -0.52961,-0.36496c-0.04546,-0.24702 0.11794,-0.48414 0.36496,-0.52961c0.24703,-0.04547 0.48415,0.11793 0.52961,0.36495c0.04547,0.24703 -0.11793,0.48414 -0.36495,0.52961z" fill="#00aeff" stroke="none" stroke-width="0" stroke-linecap="butt"/></g></g><path d="M276.45825,182.49146c0.70516,-0.62298 2.8597,-0.60451 2.8597,-0.60451l5.24044,-0.25845c0,0 1.17886,0.62585 1.40169,1.34055c0.6685,2.14408 1.3114,6.3552 2.2273,10.71138c0.15223,0.72409 -0.87025,1.06928 -0.87025,1.06928c0,0 -1.67259,0.27373 -2.74314,0.44892c-1.63034,0.26682 -4.17755,0.68368 -4.17755,0.68368c0,0 -1.26825,0.36984 -1.51854,-0.96183c0,0 -1.00133,-1.72198 -2.41968,-12.42903z" fill="#582700" stroke="#000000" stroke-width="3" stroke-linecap="round"/><path d="M264.12491,185.87832c1.22834,-1.23139 5.13569,-1.05079 5.13569,-1.05079l9.47937,-0.18322c0,0 2.18737,1.36205 2.64873,2.84304c1.38409,4.443 2.8878,13.12494 4.89802,22.1225c0.33413,1.49556 -1.49175,2.13602 -1.49175,2.13602c0,0 -3.01019,0.45079 -4.93687,0.73932c-2.93413,0.43939 -7.51837,1.12592 -7.51837,1.12592c0,0 -2.26948,0.67481 -2.83015,-2.07374c0,0 -1.95353,-3.59907 -5.38468,-25.65905z" fill="#582700" stroke="#000000" stroke-width="3" stroke-linecap="round"/></g></g><path d="M203,297v-234h234v234z" data-paper-data="{&quot;index&quot;:null}" fill="none" stroke="none" stroke-width="0" stroke-linecap="butt"/><g data-paper-data="{&quot;index&quot;:null}" stroke="#000000" stroke-linecap="round"><path d="M340.68782,158.6332c0,0 16.19464,-1.93643 16.31486,4.68711c0.32636,17.97764 -28.02033,12.65459 -28.02033,12.65459z" data-paper-data="{&quot;origPos&quot;:null}" fill="#66c8ff" stroke-width="2"/><path d="M339.96548,160.15686c0,0 11.7668,-0.80964 12.46892,1.12194c0.22143,0.60922 -15.65451,2.84177 -15.65451,2.84177z" data-paper-data="{&quot;origPos&quot;:null}" fill="#0a0a0a" stroke-width="1"/></g><g data-paper-data="{&quot;origRot&quot;:0,&quot;index&quot;:null}" stroke="#000000" stroke-linecap="round"><path d="M319.72854,262.5719c0,0 0.34753,4.46823 -0.74505,6.5609c-0.83639,1.60203 -2.72196,1.97253 -4.5134,2.21082c-4.91727,0.65408 -9.52338,-1.32347 -17.18601,-2.2317c-2.08696,-0.24734 -2.89944,-3.4557 -2.51747,-5.52225c0.35726,-1.93286 1.09671,-5.27084 1.09671,-5.27084l6.73867,-32.41475c0,0 1.00946,-4.1682 2.81687,-4.72423c4.35255,-1.33905 8.63187,0.62219 13.17714,0.90232c1.54033,0.09495 1.10174,4.87557 1.10174,4.87557z" data-paper-data="{&quot;origPos&quot;:null}" fill="#ff0000" stroke-width="3"/><path d="M295.66116,259.38742l23.1517,2.82914c0,0 0.84246,2.60978 0.60186,4.28086c-0.22839,1.5863 -1.80363,4.06578 -1.80363,4.06578c0,0 -8.51068,0.28207 -12.39875,-0.05862c-5.06764,-0.44405 -10.75361,-3.5765 -10.75361,-3.5765z" data-paper-data="{&quot;origPos&quot;:null}" fill="#976e57" stroke-width="2"/><path d="M319.61945,262.88444c0,0 0.34752,4.46823 -0.74506,6.5609c-0.83639,1.60201 -2.72195,1.97253 -4.51339,2.21082c-4.91727,0.65408 -9.52338,-1.32348 -17.18601,-2.23171c-2.08695,-0.24735 -2.89944,-3.4557 -2.51747,-5.52225c0.35726,-1.93285 1.09673,-5.27084 1.09673,-5.27084l6.73867,-32.41475c0,0 1.00945,-4.16819 2.81686,-4.72422c4.35256,-1.33907 8.63189,0.62217 13.17715,0.9023c1.54033,0.09494 1.10174,4.87556 1.10174,4.87556z" data-paper-data="{&quot;origPos&quot;:null}" fill="#4b4b4b" stroke-width="3"/></g><path d="M325.42809,263.29377c0,0 -1.20692,-12.65252 -1.97941,-20.75078c-0.54733,-5.73784 -1.40246,-14.70247 -1.40246,-14.70247c0,0 -0.89464,-4.7166 0.62949,-4.95869c4.49749,-0.71438 8.56921,-3.07662 13.03004,-2.16079c1.85237,0.38029 3.25656,4.43257 3.25656,4.43257l9.81364,31.61991c0,0 1.05589,3.25176 1.59671,5.14148c0.57822,2.02043 0.0769,5.29187 -1.97675,5.73806c-7.54035,1.63827 -11.93576,4.0481 -16.89308,3.86819c-1.80603,-0.06555 -3.71841,-0.25368 -4.70447,-1.76819c-1.28805,-1.97835 -1.37029,-6.45932 -1.37029,-6.45932z" data-paper-data="{&quot;index&quot;:null}" fill="#4b4b4b" stroke="#000000" stroke-width="3" stroke-linecap="round"/><g data-paper-data="{&quot;index&quot;:null}"><path d="M342.11635,208.24166c0,0 1.15748,15.737 -1.04204,16.06338c-6.59858,0.97917 -24.01424,0.49075 -38.85796,0.80132c-1.66749,0.0349 -1.73714,-14.92488 -1.73714,-14.92488l1.13962,-30.65876c0,0 1.03687,-13.55806 2.56542,-13.59004c9.88776,-0.20689 24.66208,-1.44679 31.16754,0.06102c2.1685,0.50259 4.4106,14.86824 4.4106,14.86824z" data-paper-data="{&quot;origPos&quot;:null}" fill="#66c8ff" stroke="#000000" stroke-width="3.5" stroke-linecap="round"/><path d="M319.74974,186.9932l-0.03469,-1.65797c-0.10793,-5.15812 -0.21584,-10.31625 -0.32377,-15.47438c0,0 -0.05204,-2.48696 1.23935,-2.51398c1.29139,-0.02702 1.34342,2.45994 1.34342,2.45994c0.10793,5.15814 0.25053,11.97422 0.35846,17.13235c0,0 0.05204,2.48696 -1.23935,2.51398c-1.29139,0.02702 -1.34342,-2.45994 -1.34342,-2.45994z" fill="#ffffff" stroke="none" stroke-width="0.5" stroke-linecap="butt"/><path d="M309.33701,189.28239c-1.29138,0.02702 -1.35675,-3.0973 -1.35675,-3.0973l-0.04357,-2.08288c-0.13558,-6.48008 -0.27116,-12.96014 -0.40674,-19.4402c0,0 -0.06537,-3.12431 1.22602,-3.15133c1.29138,-0.02702 1.35675,3.0973 1.35675,3.0973c0.13558,6.48007 0.31474,15.043 0.45032,21.52306c0,0 0.06537,3.12431 -1.22602,3.15133z" fill="#ffffff" stroke="none" stroke-width="0.5" stroke-linecap="butt"/></g><g data-paper-data="{&quot;index&quot;:null}" fill="none" stroke="#b9b9b9" stroke-width="3"><path d="M306.4644,170.92057c-1.1283,1.94201 -2.16108,0.84863 -3.40926,-0.34355c-0.97735,-0.93349 -2.48677,-1.87765 -1.11077,-3.97371c0.64899,-0.98857 1.88391,-0.64239 3.13208,0.54977c1.24817,1.19218 2.1869,2.39239 1.38796,3.76749z" stroke-linecap="butt"/><path d="M305.468,170.35055l2.6421,2.46472" stroke-linecap="round"/><path d="M311.66899,173.37026c1.24816,1.19219 2.18688,2.3924 1.38794,3.7675c-1.1283,1.94201 -2.16108,0.84862 -3.40925,-0.34355c-0.97735,-0.93349 -2.48677,-1.87765 -1.11077,-3.97371c0.64899,-0.98857 1.88391,-0.64239 3.13208,0.54977z" stroke-linecap="butt"/><path d="M312.06056,176.56773l2.6421,2.46474" stroke-linecap="round"/><path d="M320.31424,178.46269c0.61402,2.29681 -0.70538,2.63703 -2.21526,3.12754c-1.18227,0.38408 -2.68212,1.28267 -3.25251,-1.35125c-0.26902,-1.24225 0.67872,-2.23904 2.1886,-2.72956c1.50988,-0.49052 2.84441,-0.67309 3.27918,0.95325z" stroke-linecap="butt"/><path d="M319.35907,179.08852l3.15751,-1.07445" stroke-linecap="round"/><path d="M327.42087,173.93729c1.29975,1.83275 0.20623,2.78306 -1.01258,3.96432c-0.95437,0.92496 -2.03256,2.47952 -3.40112,0.31339c-0.64545,-1.02161 -0.10232,-2.40145 1.11648,-3.5827c1.21879,-1.18125 2.37688,-1.99278 3.29722,-0.69502z" stroke-linecap="butt"/><path d="M326.75144,174.97694l2.53313,-2.51537" stroke-linecap="round"/><path d="M333.79502,167.67796c1.29975,1.83275 0.20623,2.78307 -1.01257,3.96432c-0.95437,0.92496 -2.03257,2.47951 -3.40112,0.31339c-0.64545,-1.02161 -0.10233,-2.40145 1.11648,-3.5827c1.21879,-1.18125 2.37688,-1.99276 3.29722,-0.69502z" stroke-linecap="butt"/><path d="M333.12559,168.7176l2.53314,-2.51537" stroke-linecap="round"/></g><path d="M298.86802,162.97021c0,0 -1.66333,-4.26184 -1.71935,-5.34596c-0.16809,-3.25233 0.02372,-17.43979 0.23972,-30.26179c0.0334,-1.98324 1.70254,-5.05458 1.70254,-5.05458c0,0 2.2294,-1.59061 3.49105,-1.57625c13.91972,0.15841 27.18302,-0.78404 32.31796,0.85023c1.71165,0.54475 4.82997,2.33489 4.82997,2.33489c0,0 0.6366,4.40674 0.7517,5.54001c0.03837,0.37775 0.06099,0.5904 0.07679,0.96977c0.47342,11.36709 -0.194,24.50051 -0.64294,29.0836c-0.14965,1.5277 -2.00597,3.88673 -2.00597,3.88673c0,0 -1.43302,2.70345 -5.84577,3.43822c-4.82832,0.80398 -16.53563,0.23416 -28.60653,-0.39064z" data-paper-data="{&quot;index&quot;:null}" fill="#582700" stroke="#000000" stroke-width="2.5" stroke-linecap="round"/><path d="M305.92535,151.42003c-0.51028,-0.00859 -0.87691,-2.80788 -0.81889,-6.25235c0.05804,-3.44445 0.51876,-6.2298 1.02905,-6.22119c0.51028,0.00859 0.87691,2.80787 0.81889,6.25234c-0.05804,3.44446 -0.51876,6.22981 -1.02905,6.2212z" data-paper-data="{&quot;index&quot;:null}" fill="none" stroke="#000000" stroke-width="2.5" stroke-linecap="butt"/><path d="M312.41611,145.55572c-0.0591,3.50825 -0.41728,6.34702 -0.8,6.34057c-0.38272,-0.00646 -0.64505,-2.85567 -0.58595,-6.36394c0.0591,-3.50825 0.41727,-6.34704 0.79999,-6.34059c0.3827,0.00644 0.64506,2.85568 0.58596,6.36395z" data-paper-data="{&quot;index&quot;:null}" fill="none" stroke="#000000" stroke-width="2.5" stroke-linecap="butt"/><path d="M343.9781,124.9005c-0.70778,1.03031 -1.73809,0.32255 -1.73809,0.32255l-0.70559,-0.53447c-0.08892,-0.03202 -0.17781,-0.06355 -0.26667,-0.09459c-0.22609,0.30776 -0.66231,0.66366 -1.39348,0.40859c-0.67391,-0.2351 -0.82878,-0.72073 -0.83764,-1.09416c-2.61764,-0.70025 -5.24329,-1.05879 -8.00129,-1.34969c-7.72729,-0.5489 -15.48123,-0.49715 -23.22648,-0.60487c-2.54009,-0.03532 -8.23972,0.90751 -10.33766,-0.80872c-1.02316,-0.83701 -0.59159,-2.76156 -0.67737,-3.81598c-0.24856,-3.05545 -0.57379,-6.21986 -0.54262,-9.28738c0.06753,-4.00915 -1.38171,-7.61052 -1.83152,-11.54998c-0.2255,-1.97497 -0.86523,-3.96621 0.923,-5.64504c0.5049,-0.47402 1.37524,-0.18109 2.0673,-0.20722c2.52927,-0.0955 4.97269,0.11212 7.46822,0.44514c7.90833,1.05534 15.73363,1.68678 23.581,3.22661c3.16554,0.625 6.36386,0.73926 9.58628,0.8941c1.89389,0.09101 3.63024,-0.42514 4.73235,1.75664c0.65817,1.30292 0.1007,5.29951 0.0255,6.7806c-0.28999,5.71111 0.50952,12.73915 -0.77334,18.46997c0.1166,0.04032 0.23321,0.0814 0.3499,0.12325l1.27568,0.82654c0,0 1.03031,0.70778 0.32255,1.73809z" data-paper-data="{&quot;index&quot;:null}" fill="#000000" stroke="none" stroke-width="0.5" stroke-linecap="butt"/><path d="M308.90787,139.06667c-0.22725,-0.71474 0.48749,-0.942 0.48749,-0.942l0.56762,-0.167c0.94378,-0.48746 1.93139,-0.78295 2.94478,-0.88558c0.07643,-0.02686 0.15319,-0.05344 0.23031,-0.07974c0.02053,-0.00785 0.04125,-0.01578 0.06215,-0.0238l0.03032,-0.01297l-0.02638,-0.0926l0.7556,-0.21527c0.07344,-0.02277 0.15166,-0.03454 0.2327,-0.03341c0.41417,0.00575 0.74526,0.34618 0.7395,0.76035c-0.00427,0.30669 -0.19203,0.56781 -0.45736,0.68036c-0.14283,0.12517 -0.2982,0.17457 -0.2982,0.17457c-0.16506,0.05241 -0.32809,0.10543 -0.48951,0.15953c-0.67856,0.27601 -1.24254,0.69156 -1.81218,0.69701c-0.12656,0.05636 -0.25316,0.11463 -0.38006,0.17506l-0.64965,0.49093c-0.12933,0.09969 -0.29197,0.15805 -0.46794,0.1556c-0.25649,-0.00356 -0.48112,-0.13548 -0.61361,-0.33378c-0.19717,0.03436 -0.67696,0.05454 -0.85558,-0.50725z" data-paper-data="{&quot;index&quot;:null}" fill="#582700" stroke="none" stroke-width="0.5" stroke-linecap="butt"/><path d="M321.50722,153.9609c0.71283,-0.2332 0.94603,0.47962 0.94603,0.47962l0.43613,1.35131c0.17644,4.33575 -4.07381,4.23418 -7.24841,3.03167c0,0 -0.70111,-0.26635 -0.43476,-0.96746c0.26635,-0.70111 0.96746,-0.43476 0.96746,-0.43476c1.73828,0.66242 5.59392,1.54701 5.24362,-1.3414l-0.38969,-1.17296c0,0 -0.2332,-0.71283 0.47962,-0.94603z" data-paper-data="{&quot;index&quot;:null}" fill="#000000" stroke="none" stroke-width="0.5" stroke-linecap="butt"/><g data-paper-data="{&quot;index&quot;:null}"><g stroke="#000000" stroke-width="3" stroke-linecap="round"><path d="M360.11572,195.85235c0,0 4.99478,9.50943 5.52125,14.08691c-14.00127,9.49415 -23.96856,8.94016 -23.96856,8.94016c-1.86715,0.80329 -3.62629,-6.25576 -3.62629,-6.25576c0,0 -3.88582,-13.66781 -6.37295,-22.41588c-1.63315,-5.74435 -4.18475,-14.71918 -4.18475,-14.71918c0,0 -1.36736,-5.76457 -0.32461,-6.11883c6.27336,-2.13131 11.92496,-5.43072 15.38335,-5.36725c1.1528,0.02115 3.8372,5.06641 3.8372,5.06641l13.73536,26.78341z" data-paper-data="{&quot;origPos&quot;:null}" fill="#582700"/><path d="M361.98142,201.29955l-23.97032,9.16537l-1.2016,-3.18275l23.91682,-9.4184z" data-paper-data="{&quot;origPos&quot;:null}" fill="none"/></g><path d="M336.44506,206.9302l-9.31289,-35.67193l0.95114,-1.08675l14.72224,-5.7695l17.07608,33.29262z" fill="#66c8ff" stroke="#000000" stroke-width="1" stroke-linecap="round"/><path d="M337.8188,210.06167l-0.83521,-2.17634l23.80784,-9.1367l0.83522,2.17633z" fill="#ffffff" stroke="none" stroke-width="0" stroke-linecap="butt"/></g><path d="M151.96363,348.03637v-336.07274h336.07274v336.07274z" data-paper-data="{&quot;index&quot;:null}" fill="none" stroke="#000000" stroke-width="0" stroke-linecap="butt"/></g></g></svg>