<svg version="1.1" xmlns="http://www.w3.org/2000/svg" xmlns:xlink="http://www.w3.org/1999/xlink" width="212.00793" height="55.71521" viewBox="0,0,212.00793,55.71521"><g transform="translate(-317.95064,-150.22242)"><g data-paper-data="{&quot;isPaintingLayer&quot;:true}" fill-rule="nonzero" stroke-linejoin="miter" stroke-miterlimit="10" stroke-dasharray="" stroke-dashoffset="0" style="mix-blend-mode: normal"><text transform="translate(320.13239,193.28348) scale(0.8727,0.8727)" font-size="40" xml:space="preserve" fill="#000000" fill-rule="nonzero" stroke="#000000" stroke-width="5" stroke-linecap="butt" stroke-linejoin="miter" stroke-miterlimit="10" stroke-dasharray="" stroke-dashoffset="0" font-family="&quot;Comic Sans MS&quot;, Sans Serif" font-weight="normal" text-anchor="start" style="mix-blend-mode: normal"><tspan x="0" dy="0">480thon</tspan></text><text transform="translate(319.53939,193.0911) scale(0.8727,0.8727)" font-size="40" xml:space="preserve" fill="#ffffff" fill-rule="nonzero" stroke="#000000" stroke-width="0" stroke-linecap="butt" stroke-linejoin="miter" stroke-miterlimit="10" stroke-dasharray="" stroke-dashoffset="0" font-family="&quot;Comic Sans MS&quot;, Sans Serif" font-weight="normal" text-anchor="start" style="mix-blend-mode: normal"><tspan x="0" dy="0">480thon</tspan></text><path d="M479.15079,178.3111c0,-13.685 11.09389,-24.77889 24.77889,-24.77889c13.685,0 24.77889,11.09389 24.77889,24.77889c0,13.685 -11.09388,24.77889 -24.77889,24.77889c-13.685,0 -24.77889,-11.09388 -24.77889,-24.77889z" fill="#ff0000" stroke="#000000" stroke-width="2.5" stroke-linecap="butt"/><path d="M491.75916,170.81484c0,-0.62392 -5.5897,-0.66119 -5.27213,-2.11185c1.06588,-4.86898 10.04907,-15.51378 17.23238,-15.51378c9.3235,0 16.88169,2.2034 16.88169,4.92144c0,2.71804 -7.55819,4.92145 -16.88169,4.92145c-9.3235,0 -11.96025,10.50078 -11.96025,7.78274z" fill="#ff0000" stroke="#000000" stroke-width="2.5" stroke-linecap="butt"/><path d="M478.02491,177.9681c0,-8.08934 3.26139,-14.52324 7.77949,-14.37727c1.67783,0.05421 1.06227,5.85058 4.06631,5.85058c4.85971,0 6.46906,-4.63137 7.12909,-3.75864c0.84665,1.11947 -0.09028,8.34069 -0.09028,14.57437c0,11.09339 8.40376,21.57423 -2.68963,21.57423c-11.09339,0 -16.19498,-12.76989 -16.19498,-23.86327z" fill="#ff0000" stroke="#000000" stroke-width="2.5" stroke-linecap="butt"/><path d="M482.25964,162.11647c0,-5.87855 7.22513,-10.64405 16.13776,-10.64405c8.91264,0 29.07085,5.10886 29.07085,10.9874c0,3.40408 -6.75944,4.14521 -14.18056,5.9967c-5.39452,1.34588 -11.13867,4.30399 -14.89029,4.30399c-8.91263,0 -16.13776,-4.76551 -16.13776,-10.64405z" fill="#ff0000" stroke="#000000" stroke-width="2.5" stroke-linecap="butt"/><path d="M493.59039,171.15819c0,-8.28053 7.62832,-5.60816 15.90885,-5.60816c8.28053,0 18.77015,-9.65396 18.77015,-1.37343c0,8.28053 -34.679,15.07623 -34.679,6.98158z" fill="#ff0000" stroke="#000000" stroke-width="2.5" stroke-linecap="butt"/><path d="M526.50463,177.59134l-20.58023,2.92956" fill="none" stroke="#000000" stroke-width="2.5" stroke-linecap="round"/><path d="M513.9807,179.93499l0.3662,12.08448" fill="none" stroke="#000000" stroke-width="2.5" stroke-linecap="round"/><path d="M519.76661,191.06736l-0.73239,-12.23096" fill="none" stroke="#000000" stroke-width="2.5" stroke-linecap="round"/><path d="M504.02018,194.87581l5.49294,0.73239" fill="none" stroke="#000000" stroke-width="2.5" stroke-linecap="round"/><path d="M462.90649,172.54671c4.04942,-12.49584 17.46201,-19.34302 29.95785,-15.2936c12.49585,4.04942 19.34302,17.46201 15.2936,29.95785c-4.04942,12.49585 -17.46201,19.34302 -29.95785,15.2936c-12.49585,-4.04942 -19.34302,-17.46201 -15.2936,-29.95785z" fill="#001aff" stroke="#000000" stroke-width="2.5" stroke-linecap="butt"/><path d="M509.0327,181.40635l-8.35724,4.03491l-2.80812,-8.67487l-11.44352,2.52392l-4.61706,-8.13722l-10.02923,2.57356l-3.61286,-9.34433" fill="none" stroke="#000000" stroke-width="2.5" stroke-linecap="round"/><path d="M488.46706,182.60911l-5.35486,11.68409" fill="none" stroke="#000000" stroke-width="2.5" stroke-linecap="round"/><path d="M495.06335,184.57244l-5.35705,11.42196" fill="none" stroke="#000000" stroke-width="2.5" stroke-linecap="round"/><path d="M478.83986,181.25131l12.03749,1.0663" fill="none" stroke="#000000" stroke-width="2.5" stroke-linecap="round"/><path d="M501.90387,183.66346l-8.85817,0.08948" fill="none" stroke="#000000" stroke-width="2.5" stroke-linecap="round"/><path d="M478.24489,190.99097c-0.29332,0.165 -2.93396,1.13649 -2.30833,1.88903c0.66913,0.80486 2.87181,-0.85117 2.87181,1.19944c0,1.68987 -4.1353,1.46213 -4.92413,0.22253c-1.16741,-1.83449 0.75764,-3.85516 2.04957,-4.82234c0.31978,-0.23939 1.9448,-1.10184 2.31958,-0.44599c0.33216,0.19604 0.55499,0.55761 0.55499,0.97123c0,0.36674 -0.17518,0.69257 -0.44644,0.89837c-0.0347,0.03359 -0.07338,0.06316 -0.11704,0.08772z" fill="#000000" stroke="none" stroke-width="2.5" stroke-linecap="butt"/></g></g></svg>