<svg version="1.1" xmlns="http://www.w3.org/2000/svg" xmlns:xlink="http://www.w3.org/1999/xlink" width="194.03101" height="329.53376" viewBox="0,0,194.03101,329.53376"><g transform="translate(-221.09448,-29.46035)"><g data-paper-data="{&quot;isPaintingLayer&quot;:true}" fill-rule="nonzero" stroke-linejoin="miter" stroke-miterlimit="10" stroke-dasharray="" stroke-dashoffset="0" style="mix-blend-mode: normal"><g data-paper-data="{&quot;index&quot;:null}" stroke="#000000" stroke-linecap="butt"><path d="M276.48006,227.53731c2.69396,0.92849 3.26356,-14.71104 6.81978,-23.72636c2.88364,-7.31031 8.3069,-10.94157 10.04664,-4.06395c-2.63654,7.64977 24.84713,74.43402 -6.66991,63.57146c-31.51703,-10.86257 -54.9293,-25.86979 -52.29275,-33.51957c2.63655,-7.64977 10.57922,-13.12417 42.09625,-2.2616z" fill="#216aff" stroke-width="2"/><path d="M272.57607,241.51545c-4.78248,13.87605 -19.62599,21.34513 -33.15389,16.68263c-13.52791,-4.66248 -20.61748,-19.69096 -15.835,-33.56701c4.78248,-13.87605 19.62599,-21.34512 33.15389,-16.68262c13.52791,4.66249 20.61748,19.69095 15.835,33.567z" fill="#faddbf" stroke-width="2"/><path d="M254.82573,249.31967c13.52792,4.66248 -0.93624,13.4468 -14.46414,8.7843c-13.52791,-4.66247 -20.61748,-19.69095 -15.835,-33.567c4.78248,-13.87606 16.77123,20.1202 30.29913,24.7827z" fill="#ef8b89" stroke-width="0"/></g><g data-paper-data="{&quot;index&quot;:null}" stroke="#000000" stroke-linecap="butt"><path d="M275.60242,338.84205v-95.29492h29.49199v95.29492z" fill="#73fffc" stroke-width="2"/><path d="M276.58513,337.89564l18.60659,-13.13896c0,0 2.26208,-0.70825 2.52228,-2.78987c1.17702,-9.41615 6.3799,-77.52842 6.3799,-77.52842l1.32626,93.78573z" fill="#59a9e6" stroke-width="0"/></g><g data-paper-data="{&quot;index&quot;:null}" stroke="#000000" stroke-linecap="butt"><path d="M314.9438,336.4195v-95.29492h29.49199v95.29492z" fill="#73fffc" stroke-width="2"/><path d="M315.92651,335.47312l18.60659,-13.13896c0,0 2.26208,-0.70825 2.52228,-2.78987c1.17702,-9.41615 6.3799,-77.52842 6.3799,-77.52842l1.32626,93.78573z" fill="#59a9e6" stroke-width="0"/></g><g data-paper-data="{&quot;index&quot;:null}" stroke="#000000" stroke-linecap="butt"><path d="M311.62011,178.14702c18.77199,0 33.98969,24.87307 33.98969,55.55556c0,8.35076 6.37392,33.61764 4.35457,40.7234c-5.40019,19.00234 -24.68139,14.83216 -38.34426,14.83216c-10.32729,0 -32.7059,2.78608 -38.9397,-9.09579c-5.09742,-9.71589 4.95001,-32.65706 4.95001,-46.45977c0,-30.68249 15.2177,-55.55556 33.98969,-55.55556z" fill="#216aff" stroke-width="2"/><path d="M339.35935,203.11601c2.17098,1.37012 5.51953,20.51569 5.51953,29.96813c0,8.35075 6.37393,33.61764 4.35457,40.7234c-5.40019,19.00233 -24.68138,14.83215 -38.34425,14.83215c-10.32729,0 -32.7059,2.78607 -38.9397,-9.09579c-5.09743,-9.71588 56.94455,-16.46203 56.94455,-30.26474c0,-21.0232 4.52139,-62.9273 10.4653,-46.16315z" fill="#3236f4" stroke-width="0"/></g><g data-paper-data="{&quot;index&quot;:null}" stroke="#000000" stroke-linecap="butt"><g><path d="M411.06014,121.97824c-2.29523,46.73446 -42.04165,82.75958 -88.77611,80.46435c-46.73446,-2.29523 -82.75958,-42.04165 -80.46435,-88.77611c2.29523,-46.73446 42.04165,-82.75958 88.77611,-80.46435c46.73446,2.29523 82.75958,42.04164 80.46435,88.7761z" fill="#faddbf" stroke-width="2"/><path d="M410.87229,121.09846c-2.29523,46.73446 -42.04165,82.75958 -88.77611,80.46435c-6.05561,-0.2974 -18.37449,-2.86482 -20.70468,-3.78922c-1.45669,-0.57787 27.48471,-5.53783 48.39162,-17.83357c11.21845,-6.59779 18.14328,-20.68596 21.25794,-25.28118c1.63806,-0.35899 7.00073,-19.76056 7.00663,-19.82065c2.47796,-25.19871 -19.93139,-88.65826 -11.84615,-90.83529c0.6197,-0.16687 12.23858,7.22019 21.1653,16.01685c7.18199,7.07735 12.02805,15.86886 12.52437,16.26075c4.34595,3.43149 11.71955,29.78179 10.98109,44.81795z" fill="#ef8b89" stroke-width="0"/><path d="M242.36495,113.23451c1.7924,-36.49617 45.93994,-45.5676 84.87532,-23.03018c40.67676,23.5454 85.3018,-2.62377 83.50939,33.87239c-0.89139,18.14996 -8.82616,9.74625 -22.07552,-3.55904c-2.74412,-2.7557 -13.40276,9.65732 -16.58747,6.67346c-4.05935,-3.80333 -7.63478,-9.29505 -11.23934,-14.9867c-2.90249,-4.5831 -14.30619,11.83215 -17.5143,7.7669c-4.93689,-6.25592 -4.79267,-13.26808 -12.06376,-13.62518c-2.7341,-0.13428 -10.64995,11.23217 -13.38259,11.42573c-2.11894,0.15009 -8.72833,-12.40136 -10.8093,-12.14077c-3.77897,0.47321 -12.7695,10.29364 -16.31095,11.245c-1.41996,0.38146 -12.08456,-9.00321 -13.44414,-8.59674c-1.94454,0.58135 -9.33638,9.63377 -11.08541,10.32022c-2.78456,1.09287 -10.46981,-6.74137 -12.67066,-5.67628c-9.08245,4.3954 -9.0951,12.32885 -9.75029,14.18805c-0.64222,1.82241 -2.02117,-2.26653 -1.45096,-13.87687z" fill="#ef8b89" stroke-width="0"/></g><path d="M241.24056,104.85836c1.79241,-36.49616 45.25157,-76.56002 91.12311,-74.30717c45.87155,2.25285 83.49272,48.87122 81.70031,85.36738c-0.89139,18.14996 -9.04552,9.73547 -22.66021,-3.58776c-2.81977,-2.75942 -13.74248,9.64064 -17.01472,6.65248c-4.17091,-3.80881 -7.8474,-9.30549 -11.55401,-15.00216c-2.98468,-4.58713 -14.66685,11.81444 -17.96451,7.74479c-5.07469,-6.26269 -4.93573,-13.27509 -12.39835,-13.6416c-2.80611,-0.13782 -10.91531,11.21914 -13.7195,11.40918c-2.17443,0.14737 -8.97369,-12.41339 -11.109,-12.15548c-3.87766,0.46837 -13.09177,10.27781 -16.72505,11.22466c-1.45677,0.37965 -12.41371,-9.01938 -13.8085,-8.61464c-1.99488,0.57887 -9.56928,9.62233 -11.36339,10.30657c-2.85633,1.08934 -10.75362,-6.75531 -13.01094,-5.69299c-18.44653,8.68117 -12.64711,23.75182 -11.49518,0.29675z" fill="#724e36" stroke-width="2"/><path d="M241.54507,103.70915c1.79241,-36.49616 47.08832,-45.51119 87.07591,-22.9221c41.77602,23.59939 87.53991,-2.51385 85.7475,33.98231c-0.89139,18.14995 -9.04552,9.73547 -22.66021,-3.58776c-2.81977,-2.75943 -13.74248,9.64063 -17.01472,6.65247c-4.17093,-3.80881 -7.84741,-9.30549 -11.55402,-15.00216c-2.98468,-4.58713 -14.66685,11.81444 -17.96451,7.74479c-5.07469,-6.26269 -4.93573,-13.2751 -12.39835,-13.64161c-2.80611,-0.13781 -10.91531,11.21915 -13.7195,11.40919c-2.17443,0.14737 -8.97369,-12.41339 -11.109,-12.15548c-3.87766,0.46837 -13.09177,10.27781 -16.72505,11.22466c-1.45677,0.37965 -12.41371,-9.01938 -13.8085,-8.61464c-1.99489,0.57887 -9.56929,9.62233 -11.3634,10.30657c-2.85633,1.08934 -10.75362,-6.75531 -13.01094,-5.69299c-18.44654,8.68116 -12.64712,23.75181 -11.49519,0.29674z" fill="#623728" stroke-width="0"/></g><g data-paper-data="{&quot;index&quot;:null}" stroke="#000000" stroke-linecap="butt"><path d="M351.80236,95.77482c16.54859,0.81274 28.82823,24.59531 27.42733,53.11987c-1.4009,28.52455 -15.80162,42.5656 -32.35021,41.75286c-16.54859,-0.81273 -28.97846,-16.17148 -27.57756,-44.69604c1.4009,-28.52456 15.95185,-50.98943 32.50044,-50.17669z" fill="#f0f0f0" stroke-width="2"/><path d="M366.96193,128.68619c-4.2106,-41.07251 13.07413,-9.17653 11.67323,19.34803c-1.4009,28.52455 -15.80162,42.5656 -32.35021,41.75286c-16.54859,-0.81274 23.58949,-32.69086 20.67699,-61.10089z" fill="#9a99ff" stroke-width="0"/></g><path d="M330.6817,125.82414c5.77709,0.28372 9.83118,13.32472 9.05506,29.12789c-0.77612,15.80317 -6.08857,28.38416 -11.86566,28.10043c-5.77709,-0.28372 -9.83118,-13.32472 -9.05506,-29.12789c0.77612,-15.80317 6.08857,-28.38416 11.86566,-28.10043z" data-paper-data="{&quot;index&quot;:null}" fill="#000000" stroke="none" stroke-width="0" stroke-linecap="butt"/><g data-paper-data="{&quot;index&quot;:null}" stroke="#000000" stroke-linecap="butt"><path d="M325.77848,116.1987c4.72303,-9.52893 11.07819,-21.03595 26.76954,-20.26532c15.69135,0.77063 17.55192,13.147 21.42226,22.49683c4.06768,9.82659 -7.61588,13.89991 -23.30723,13.12928c-15.69135,-0.77064 -29.84046,-5.36204 -24.88457,-15.36078z" fill="#a100fe" stroke-width="2"/><path d="M326.71902,115.89021c4.57829,-9.53604 9.63865,1.30127 24.79496,2.04563c15.15631,0.74436 18.03077,-9.23743 21.75384,0.10518c3.9129,9.81899 -7.38005,13.9115 -22.53636,13.16714c-15.15631,-0.74436 -28.81647,-5.31174 -24.01245,-15.31794z" fill="#99008e" stroke-width="0"/></g><g data-paper-data="{&quot;index&quot;:null}" stroke="#000000" stroke-linecap="butt"><path d="M315.65226,144.29185c-1.4009,28.52456 -15.27594,42.59142 -31.82453,41.77868c-16.54859,-0.81274 -29.50415,-16.19731 -28.10325,-44.72186c1.4009,-28.52456 15.95186,-50.98943 32.50045,-50.17669c16.54859,0.81274 28.82823,24.59531 27.42733,53.11987z" fill="#f0f0f0" stroke-width="2"/><path d="M256.40047,140.55061c1.4009,-28.52457 21.72787,-58.57336 13.51292,-18.11109c-5.68232,27.98793 31.13892,63.64568 14.59033,62.83294c-16.54859,-0.81274 -29.50415,-16.19731 -28.10325,-44.72186z" fill="#9a99ff" stroke-width="0"/></g><path d="M266.94523,122.08096c5.7771,0.28372 9.83118,13.32472 9.05506,29.12789c-0.77612,15.80316 -6.08857,28.38416 -11.86566,28.10043c-5.77709,-0.28372 -9.83118,-13.32472 -9.05506,-29.12789c0.77613,-15.80316 6.08858,-28.38416 11.86567,-28.10043z" data-paper-data="{&quot;index&quot;:null}" fill="#000000" stroke="none" stroke-width="0" stroke-linecap="butt"/><g data-paper-data="{&quot;index&quot;:null}" stroke="#000000" stroke-linecap="butt"><path d="M312.12228,114.04759c3.95229,10.43625 -10.57864,13.6191 -26.26999,12.84847c-15.69135,-0.77064 -26.91954,-5.96921 -21.90855,-15.34992c4.76788,-8.9256 7.83222,-21.06008 23.52357,-20.28945c15.69135,0.77064 20.88838,12.84501 24.65496,22.79089z" fill="#a100fe" stroke-width="2"/><path d="M311.2165,113.64844c3.80041,10.42878 -10.24156,13.63565 -25.39787,12.89129c-15.15631,-0.74436 -25.99389,-5.92375 -21.13768,-15.31206c4.62061,-8.93283 6.50314,1.28258 21.65945,2.02694c15.15631,0.74436 21.25424,-9.54495 24.87609,0.39382z" fill="#99008e" stroke-width="0"/></g><path d="M241.22327,336.87673c0,-11.6628 13.71248,-9.87692 31.62358,-9.87692c14.33063,0 27.65301,-10.77791 32.14847,-5.26144c1.12318,1.37828 1.08979,12.80695 1.08979,15.13837c0,11.6628 -14.51982,21.11737 -32.43092,21.11737c-17.9111,0 -32.43092,-9.45457 -32.43092,-21.11737z" data-paper-data="{&quot;index&quot;:null}" fill="#000082" stroke="#000000" stroke-width="2" stroke-linecap="butt"/><path d="M274.10389,327.56972c14.33063,0 25.38775,-8.75646 29.88321,-5.7726c1.12318,0.74551 1.0898,12.01046 1.0898,13.27153c0,6.30841 -12.25456,9.26589 -30.16566,9.26589c-17.91111,0 -31.80169,-3.88169 -31.80169,-10.1901c0,-6.30841 13.08324,-6.57472 30.99434,-6.57472z" data-paper-data="{&quot;index&quot;:null}" fill="#2e0048" stroke="#000000" stroke-width="0" stroke-linecap="butt"/><path d="M284.21021,336.2319c0,-11.6628 13.71248,-9.87692 31.62358,-9.87692c14.33063,0 27.65301,-10.77791 32.14847,-5.26144c1.12318,1.37828 1.08979,12.80695 1.08979,15.13837c0,11.6628 -14.51982,21.11737 -32.43092,21.11737c-17.9111,0 -32.43092,-9.45457 -32.43092,-21.11737z" data-paper-data="{&quot;index&quot;:null}" fill="#000082" stroke="#000000" stroke-width="2" stroke-linecap="butt"/><path d="M317.09083,326.92487c14.33063,0 25.38775,-8.75646 29.88321,-5.7726c1.12318,0.74551 1.0898,12.01046 1.0898,13.27153c0,6.30841 -12.25456,9.26589 -30.16566,9.26589c-17.91111,0 -31.80169,-3.88169 -31.80169,-10.1901c0,-6.30841 13.08324,-6.57472 30.99434,-6.57472z" data-paper-data="{&quot;index&quot;:null}" fill="#2e0048" stroke="#000000" stroke-width="0" stroke-linecap="butt"/><g data-paper-data="{&quot;index&quot;:null}"><path d="M308.3901,247.64968c-12.06443,-4.05553 -20.99801,-12.743 -20.74714,-23.89772c0.04654,-2.06777 0.07631,-4.33203 0.8206,-6.54611c4.75944,-14.15828 18.25451,-19.9069 32.55537,-15.09955c14.30082,4.80731 22.09065,21.15792 17.85612,32.04571c-5.4142,13.92106 -16.18413,18.30498 -30.48493,13.49768z" fill="#485e84" stroke="#000000" stroke-width="2" stroke-linecap="butt"/><path d="M331.52917,211.00133c0,0 2.03568,2.19324 3.72271,5.31855c1.81266,3.35807 3.28495,7.78349 3.26031,11.45903c-0.01934,2.88 -1.3253,7.22756 -3.89824,10.6366c-1.65715,2.19564 -3.13022,4.31996 -4.71704,5.7306c-1.61973,1.43993 -14.13821,6.36362 -14.13821,6.36362l-18.57298,-9.69035c0,0 -5.0994,-6.59581 -6.4586,-9.83257c-1.18987,-2.83361 -1.50344,-6.62907 -1.19453,-9.52951c0.2903,-2.72577 1.17052,-4.64756 1.17052,-4.64756c0,0 0.23878,1.0972 1.24127,1.4365c4.41241,1.49346 18.0186,4.97052 36.27153,-1.03816c1.90289,-0.62641 3.3133,-6.20689 3.3133,-6.20689z" fill="#343545" stroke="none" stroke-width="0" stroke-linecap="butt"/><path d="M319.61284,202.01655c0,0 5.0979,11.92115 5.8888,18.39949c0.6248,5.11759 -3.95925,12.88835 -3.95925,12.88835" fill="none" stroke="#000000" stroke-width="1" stroke-linecap="round"/><path d="M297.08471,235.42349c0,0 -4.56115,-8.56438 -5.11978,-12.86718c-0.5534,-4.2621 0.24491,-11.36791 0.24491,-11.36791" fill="none" stroke="#000000" stroke-width="1" stroke-linecap="round"/><path d="M328.89928,206.86175c0,0 4.10864,10.84504 5.53441,19.30349c0.92915,5.51231 -3.89547,13.41859 -3.89547,13.41859" fill="none" stroke="#000000" stroke-width="1" stroke-linecap="round"/><path d="M287.86185,228.11032c0,0 5.18511,-16.45009 24.26286,-15.95603c17.41667,0.45103 27.05554,14.82348 27.05554,14.82348" fill="none" stroke="#000000" stroke-width="1" stroke-linecap="round"/><path d="M291.51532,236.0408c0,0 5.6637,-13.44774 18.28219,-13.09382c15.36795,0.43105 27.57957,13.38245 27.57957,13.38245" fill="none" stroke="#000000" stroke-width="1" stroke-linecap="round"/><path d="M306.07454,205.81423c-1.17233,0.26972 -2.29584,-0.26405 -2.50928,-1.19218c-0.21347,-0.9281 0.90645,-1.20944 2.07883,-1.47912c1.17236,-0.26969 1.95319,-0.42559 2.16663,0.50254c0.21349,0.92807 -0.56378,1.89908 -1.73616,2.16876z" fill="#8fbbbe" stroke="none" stroke-width="0" stroke-linecap="butt"/><path d="M299.27714,208.39367c-0.57012,-0.19164 -0.74289,-0.63835 -0.4554,-1.49355c0.28745,-0.8552 1.15473,-1.33524 1.72488,-1.1436c0.57012,0.19167 0.57082,0.58053 0.28333,1.43573c-0.28748,0.8552 -0.98269,1.39308 -1.55284,1.20144z" fill="#8fbbbe" stroke="none" stroke-width="0" stroke-linecap="butt"/><path d="M312.83103,204.32618c-0.88096,-0.19473 -1.48992,-0.82876 -1.36007,-1.41601c0.12984,-0.5873 0.77566,-0.38934 1.65666,-0.19463c0.88095,0.19474 1.6634,0.3126 1.53355,0.89985c-0.12984,0.58729 -0.94917,0.90551 -1.83017,0.7108z" fill="#8fbbbe" stroke="none" stroke-width="0" stroke-linecap="butt"/><path d="M290.07277,216.40634c0,0 2.04411,-2.11864 5.08737,-4.26672c4.13349,-2.91764 9.86839,-6.1327 12.57902,-6.42759c3.06512,-0.3335 7.11242,-0.72801 11.24577,0.44332c7.29049,2.06604 15.40548,8.29714 15.40548,8.29714" fill="none" stroke="#000000" stroke-width="0.5" stroke-linecap="round"/><path d="M305.13081,231.42595c0,0 -4.43555,-10.01948 -4.83788,-14.55575c-0.47755,-5.38416 2.50344,-15.52771 2.50344,-15.52771" fill="none" stroke="#000000" stroke-width="1" stroke-linecap="round"/><path d="M309.39952,200.49829c0,0 4.45585,9.40862 4.29737,17.34725c-0.09025,4.52136 -2.71192,13.82485 -2.71192,13.82485" fill="none" stroke="#000000" stroke-width="1" stroke-linecap="round"/></g><g data-paper-data="{&quot;index&quot;:null}" stroke="#000000" stroke-linecap="butt"><path d="M332.72101,214.20802c0.47228,-7.8443 4.50063,-12.97946 8.28911,-6.98149c-0.13202,8.09031 46.72264,63.04601 13.39064,62.50208c-33.33202,-0.54393 -60.24593,-7.54335 -60.11391,-15.63366c0.13203,-8.09029 5.9833,-15.75957 39.31531,-15.21563c2.84909,0.04648 -1.4636,-14.99745 -0.88115,-24.6713z" fill="#216aff" stroke-width="2"/><path d="M308.75809,226.38443c14.30694,0.23347 25.71089,12.31929 25.47141,26.99442c-0.23947,14.67514 -12.03168,26.38243 -26.33863,26.14896c-14.30694,-0.23348 -25.71088,-12.3193 -25.4714,-26.99443c0.23946,-14.67513 12.03167,-26.38241 26.33862,-26.14894z" fill="#faddbf" stroke-width="2"/><path d="M319.77801,266.30697c14.30695,0.23347 3.2836,13.07329 -11.02335,12.83982c-14.30695,-0.23347 -25.71089,-12.31929 -25.47141,-26.99442c0.23948,-14.67513 22.1878,13.92113 36.49475,14.1546z" fill="#ef8b89" stroke-width="0"/></g><path d="M386.5556,144.81284c-0.11144,-0.56353 0.0513,-1.06804 0.0513,-1.06804l0.14314,-0.39049c0.33553,-1.7296 0.48317,-3.91167 2.19899,-5.04566c3.01474,-1.99245 9.17923,0.48507 10.53104,3.50845c0.36806,0.82319 -0.14762,4.31226 -0.25632,5.23443c-0.93626,5.10937 -1.2389,11.99701 -5.41442,15.81305c-2.84674,2.60167 -8.53764,2.39222 -10.41521,-1.5475c-1.01319,-2.12598 0.11322,-6.01383 1.36896,-7.82458c0.85056,-1.22649 3.24031,-2.49094 3.27537,-4.22725c0.01899,-0.94052 -1.00399,-2.70948 -1.29843,-3.31908c0,0 -0.24957,-0.52472 -0.18443,-1.13333z" data-paper-data="{&quot;index&quot;:null}" fill="#000000" stroke="none" stroke-width="0.5" stroke-linecap="butt"/></g></g></svg>