<svg version="1.1" xmlns="http://www.w3.org/2000/svg" xmlns:xlink="http://www.w3.org/1999/xlink" width="166.52135" height="322.98804" viewBox="0,0,166.52135,322.98804"><g transform="translate(-245.55447,-22.59199)"><g data-paper-data="{&quot;isPaintingLayer&quot;:true}" fill-rule="nonzero" stroke-linejoin="miter" stroke-miterlimit="10" stroke-dasharray="" stroke-dashoffset="0" style="mix-blend-mode: normal"><g data-paper-data="{&quot;index&quot;:null}" stroke-linecap="butt"><path d="M352.24198,263.40926v-116.86448h50.99742v116.86448z" fill="#fac843" stroke="#000000" stroke-width="2"/><g fill="none" stroke="none" stroke-width="1" font-family="sans-serif" font-weight="normal" font-size="12" text-anchor="start"/><path d="M353.03266,262.08568v-116.86448l13.0831,79.20814l37.91432,37.65634z" fill="#e47816" stroke="#000000" stroke-width="0"/></g><g data-paper-data="{&quot;index&quot;:null}" stroke="#000000" stroke-linecap="butt"><path d="M316.44531,344.13567v-90.27109h61.17899v90.27109z" fill="#00791c" stroke-width="2"/><path d="M317.23265,343.37909v-90.27109l18.42709,49.31565l42.75189,40.95544z" fill="#00393e" stroke-width="0"/></g><path d="M264.46059,253.45329v-113.80147h113.80147v113.80147z" data-paper-data="{&quot;index&quot;:null}" fill="#0000c0" stroke="#000000" stroke-width="2" stroke-linecap="butt"/><g data-paper-data="{&quot;index&quot;:null}" stroke="#000000" stroke-linecap="butt"><path d="M263.83936,344.58003v-90.27109h61.17899v90.27109z" fill="#00791c" stroke-width="2"/><path d="M264.62674,343.82344v-90.27109l18.42709,49.31565l42.75189,40.95544z" fill="#00393e" stroke-width="0"/></g><g data-paper-data="{&quot;index&quot;:null}" stroke-linecap="butt"><path d="M246.55447,261.59675v-116.86448h50.99742v116.86448z" fill="#fac843" stroke="#000000" stroke-width="2"/><g fill="none" stroke="none" stroke-width="1" font-family="sans-serif" font-weight="normal" font-size="12" text-anchor="start"/><path d="M247.34515,260.27318v-116.86448l13.0831,79.20814l37.91432,37.65633z" fill="#e47816" stroke="#000000" stroke-width="0"/></g><g data-paper-data="{&quot;index&quot;:null}" stroke="#000000" stroke-linecap="butt"><path d="M250.68895,89.06274c0,-1.37646 0.88696,-27.38008 0.98912,-28.73546c2.58143,-34.24932 36.46023,-36.73529 78.90464,-36.73529c39.86984,0 74.31045,4.54212 80.31266,35.83276c0.64046,3.33883 -0.4189,26.15173 -0.4189,29.63798c0,12.46114 2.98952,39.84953 -4.38487,49.76492c-14.02387,18.8561 -46.59108,15.70582 -75.50889,15.70582c-30.57536,0 -59.08782,0.98125 -72.51838,-19.6932c-5.95144,-9.1614 -7.37538,-34.67471 -7.37538,-45.77754z" fill="#fac843" stroke-width="2"/><path d="M252.67805,60.33747c1.46665,-19.45883 4.03019,60.72294 51.81693,82.64789c37.44896,17.1819 103.38086,-8.07612 100.416,-4.08965c-14.02387,18.8561 -47.24381,15.81461 -76.16161,15.81461c-19.1252,0 -52.27236,1.45245 -68.67457,-16.9042c-9.81993,-10.99004 -8.71919,-43.40864 -8.71919,-47.56654c0,0 1.22028,-28.54672 1.32244,-29.9021z" fill="#e47816" stroke-width="0"/></g><path d="M371.39823,86.3803c0,15.71752 -2.90507,28.45909 -6.48867,28.45909c-3.5836,0 -6.48867,-12.74157 -6.48867,-28.45908c0,-15.71752 2.90508,-28.45908 6.48867,-28.45908c3.5836,0 6.48867,12.74157 6.48867,28.45909z" data-paper-data="{&quot;index&quot;:null}" fill="#000000" stroke="none" stroke-width="0" stroke-linecap="butt"/><path d="M397.76324,87.40484c0,15.65465 -2.75218,28.34525 -6.14716,28.34525c-3.39499,0 -6.14716,-12.6906 -6.14716,-28.34525c0,-15.65465 2.75218,-28.34525 6.14716,-28.34525c3.39499,0 6.14716,12.6906 6.14716,28.34525z" data-paper-data="{&quot;index&quot;:null}" fill="#000000" stroke="none" stroke-width="0" stroke-linecap="butt"/><path d="M408.125,119.375c0,0 -33.40744,15.99298 -48.48778,16.24156c-15.25107,0.25139 -42.51222,-14.74156 -42.51222,-14.74156" fill="none" stroke="#000000" stroke-width="2.5" stroke-linecap="round"/></g></g></svg>