<svg version="1.1" xmlns="http://www.w3.org/2000/svg" xmlns:xlink="http://www.w3.org/1999/xlink" width="336.07274" height="336.07274" viewBox="0,0,336.07274,336.07274"><g transform="translate(-151.96363,-11.96363)"><g data-paper-data="{&quot;isPaintingLayer&quot;:true}" fill-rule="nonzero" stroke-linejoin="miter" stroke-miterlimit="10" stroke-dasharray="" stroke-dashoffset="0" style="mix-blend-mode: normal"><g data-paper-data="{&quot;index&quot;:null}"><g><g><g data-paper-data="{&quot;origRot&quot;:0}" stroke="#000000" stroke-width="3" stroke-linecap="round"><path d="M271.45501,221.54628c0,0 -5.4098,-29.61227 -2.34609,-30.41992c5.52409,-1.45625 18.69867,-1.33197 18.69867,-1.33197l11.25,-0.85845l-4.29087,-0.07463c0,0 4.64137,-16.10571 7.44811,-18.81682c1.47458,-1.42434 11.49047,0.43676 13.33901,2.24654c4.14687,4.05992 4.03361,42.64451 -0.52504,44.0921c-11.12485,1.84079 -34.66239,5.83591 -34.66239,5.83591c0,0 -8.84875,1.75217 -8.91136,-0.67272z" data-paper-data="{&quot;origPos&quot;:null}" fill="#582700"/><path d="M279.48915,190.77016l2.09577,29.66107" fill="none"/><path d="M283.90764,190.69529l1.80255,29.68488" data-paper-data="{&quot;origPos&quot;:null}" fill="none"/></g><path d="M279.86449,190.6757l2.8802,-0.21651l1.94629,30.35572l-2.8802,0.21651z" fill="#ffffff" stroke="none" stroke-width="0" stroke-linecap="butt"/><path d="M313.79376,216.29905l-27.7062,4.54056l-0.94057,-29.94206l13.60338,-1.02696l-0.01125,-1.98072l-3.08239,-0.18323l6.83643,-16.98073l1.54049,-0.03217l7.70242,-0.16086l3.87092,3.38581l2.10043,8.12749l0.39188,23.76306l-2.76368,10.70527z" fill="#66c8ff" stroke="#000000" stroke-width="0.5" stroke-linecap="round"/></g><g fill="#fffc96" stroke="#000000" stroke-width="2" stroke-linecap="round"><path d="M288.9153,190.12c0,0 4.11387,4.18485 11.66387,8.48849c7.65609,4.3641 14.52985,6.63067 14.52985,6.63067l1.62928,-1.44471c0,0 2.62041,2.54197 1.06038,4.29405c-3.81826,4.28824 -36.21063,-15.16841 -32.79778,-19.49178c2.13311,-2.70217 6.26503,0.15512 6.26503,0.15512z"/><path d="M298.10659,183.73149c0,0 -0.06558,6.52331 2.24201,15.51233c2.30757,8.98903 5.00889,14.56301 5.00889,14.56301l1.22806,-1.02647c0,0 2.02982,3.48882 -0.48714,5.56347c-4.15598,3.42569 -15.03351,-36.11885 -9.99515,-38.62002c2.40019,-1.19153 3.27012,3.18296 3.27012,3.18296z" data-paper-data="{&quot;index&quot;:null}"/></g></g><g><g data-paper-data="{&quot;index&quot;:null}"><path d="M271.01508,187.98145c2.45959,-0.51615 5.69816,-5.12271 6.15825,-2.92694c0.30649,1.46283 -0.48017,22.81943 -1.79083,24.32358c-0.65669,0.75365 -1.83977,1.4001 -2.66079,1.57241c-1.20676,0.25323 -2.33252,-0.15011 -3.23912,-0.97417c-0.94124,-0.85555 -5.63443,-21.1988 -5.86879,-22.31724c-0.46008,-2.1958 4.94165,0.83847 7.40125,0.32234z" fill="#0091d4" stroke="#000000" stroke-width="1.5" stroke-linecap="butt"/><g stroke-linecap="butt"><path d="M269.47065,180.72261c4.45621,-0.93512 8.54909,0.59971 9.14173,3.42811c0.59264,2.8284 -2.5394,5.87934 -6.9956,6.81445c-4.45621,0.93511 -8.54909,-0.59973 -9.14173,-3.42813c-0.59264,-2.82839 2.53938,-5.87932 6.99559,-6.81443z" fill="#0091d4" stroke="#000000" stroke-width="1.5"/><path d="M274.78802,186.2881l3.30239,-2.32016c0,0 -0.33926,1.95119 -0.79162,2.66076c-0.97082,1.47419 -2.56564,2.20025 -2.56564,2.20025z" fill="#00aeff" stroke="none" stroke-width="0"/><path d="M271.40384,187.83297l1.55925,-0.63714c0,0 0.32071,0.96894 0.37038,1.32279c0.05815,0.41431 -0.06634,1.19506 -0.06634,1.19506l-1.93724,0.45936z" fill="#00aeff" stroke="none" stroke-width="0"/></g><g><path d="M270.67225,187.01495c-6.14739,1.29 -10.28452,-1.47298 -11.52271,-7.38232c-1.23818,-5.9093 3.05656,-11.81162 9.204,-13.10164c6.14741,-1.28998 11.37767,1.98126 12.61586,7.8906c1.23817,5.90932 -4.14969,11.30337 -10.29713,12.59339z" fill="#00699a" stroke="#000000" stroke-width="1.5" stroke-linecap="butt"/><path d="M270.61116,166.91877c0,0 8.50559,0.72107 9.58891,5.89129c0.61435,2.93186 -0.23381,6.28223 -1.62062,8.89525c-0.98802,1.86166 -2.77032,3.41396 -4.94328,3.86994c-4.46652,0.93725 -6.45553,-0.64137 -7.53885,-5.81159c-0.541,-2.58194 0.36713,-6.08312 1.83648,-8.60516c1.47292,-2.52816 2.67734,-4.23973 2.67734,-4.23973z" fill="#0091d4" stroke="none" stroke-width="0" stroke-linecap="butt"/><path d="M280.64009,174.55831c0,0 -2.18498,4.69118 -9.2444,6.42689c-7.11725,1.74995 -11.13318,-1.17052 -11.13318,-1.17052" fill="none" stroke="#000000" stroke-width="0.8" stroke-linecap="round"/><path d="M280.34178,179.5223c0,0 -3.69378,3.13862 -8.06222,4.73767c-6.29549,2.30444 -9.26151,0.79688 -9.26151,0.79688" fill="none" stroke="#000000" stroke-width="0.75" stroke-linecap="round"/><path d="M278.70414,170.18568c0,0 -2.50569,4.12454 -9.47699,6.24433c-6.70513,2.03888 -9.20086,0.43215 -9.20086,0.43215" fill="none" stroke="#000000" stroke-width="0.8" stroke-linecap="round"/><path d="M259.80453,175.49959c0,0 3.74119,-3.19728 7.00586,-4.79258c4.30007,-2.10128 9.00771,-3.04028 9.00771,-3.04028" fill="none" stroke="#000000" stroke-width="0.8" stroke-linecap="round"/><path d="M268.1502,186.73694c0,0 -3.1729,-2.75871 -4.73934,-8.93077c-1.46175,-5.75961 0.9889,-8.96873 0.9889,-8.96873" fill="none" stroke="#000000" stroke-width="0.8" stroke-linecap="round"/><path d="M266.59721,168.06995c0,0 0.41475,2.994 1.38578,6.15028c0.85393,2.77567 2.24593,5.64025 2.67241,7.20953c0.50654,1.86387 0.95104,5.07202 0.95104,5.07202" fill="none" stroke="#000000" stroke-width="0.8" stroke-linecap="round"/><path d="M269.29488,166.95247c0,0 4.14312,3.91235 5.11179,7.94348c1.52035,6.32698 -0.01646,10.89914 -0.01646,10.89914" fill="none" stroke="#000000" stroke-width="0.8" stroke-linecap="round"/><path d="M272.93422,166.67894c0,0 3.16096,2.71883 4.6949,6.58944c2.20892,5.57384 1.31188,8.99853 1.31188,8.99853" fill="none" stroke="#000000" stroke-width="0.8" stroke-linecap="round"/><path d="M278.84329,173.58749c-0.43833,0.09196 -0.87628,-0.2276 -0.97813,-0.71377c-0.10188,-0.48618 0.17091,-0.95486 0.60922,-1.04684c0.43835,-0.09197 0.87627,0.22759 0.97812,0.71376c0.10189,0.48618 -0.1709,0.95486 -0.60921,1.04684z" fill="#00aeff" stroke="none" stroke-width="0" stroke-linecap="butt"/><path d="M277.26943,170.48682c-0.25288,0.05306 -0.4992,-0.101 -0.55012,-0.34407c-0.05092,-0.24307 0.11281,-0.48317 0.36567,-0.53624c0.25287,-0.05308 0.49917,0.10098 0.55009,0.34405c0.05095,0.24308 -0.11279,0.48315 -0.36565,0.53622z" fill="#00aeff" stroke="none" stroke-width="0" stroke-linecap="butt"/></g></g><path d="M274.67889,189.52617c0.71342,-0.63977 2.92614,-0.69169 2.92614,-0.69169l5.37677,-0.42662c0,0 1.22128,0.58123 1.46236,1.28155c0.72328,2.10096 1.45578,6.24921 2.47112,10.5322c0.16878,0.7119 -0.87524,1.08698 -0.87524,1.08698c0,0 -1.7128,0.3255 -2.8091,0.53383c-1.66956,0.31726 -4.27803,0.81298 -4.27803,0.81298c0,0 -1.29596,0.40748 -1.57585,-0.90277c0,0 -1.05779,-1.67223 -2.69817,-12.2265z" fill="#582700" stroke="#000000" stroke-width="3" stroke-linecap="round"/><path d="M262.07247,193.28119c1.24017,-1.25915 5.25558,-1.20767 5.25558,-1.20767l9.73085,-0.49028c0,0 2.26952,1.27721 2.76871,2.72844c1.49758,4.35369 3.19082,12.90022 5.4096,21.74273c0.36879,1.4698 -1.49512,2.16337 -1.49512,2.16337c0,0 -3.08332,0.54437 -5.05677,0.89281c-3.00539,0.53062 -7.70097,1.35968 -7.70097,1.35968c0,0 -2.31887,0.74204 -2.94181,-1.96089c0,0 -2.06783,-3.4996 -5.97009,-25.22823z" fill="#582700" stroke="#000000" stroke-width="3" stroke-linecap="round"/></g></g><g data-paper-data="{&quot;index&quot;:null}" stroke="#000000" stroke-linecap="round"><path d="M340.28592,160.84054c0,0 16.74615,-0.99815 16.48094,5.54738c-0.71981,17.76589 -29.52059,10.91204 -29.52059,10.91204z" data-paper-data="{&quot;origPos&quot;:null}" fill="#66c8ff" stroke-width="2"/><path d="M339.45463,162.30397c0,0 12.13248,-0.13556 12.74023,1.81091c0.19166,0.6139 -16.24455,1.92235 -16.24455,1.92235z" data-paper-data="{&quot;origPos&quot;:null}" fill="#0a0a0a" stroke-width="1"/></g><g data-paper-data="{&quot;origRot&quot;:0,&quot;index&quot;:null}" stroke="#000000" stroke-linecap="round"><path d="M319.42939,262.67502c0,0 0.35751,4.41822 -0.76644,6.48747c-0.86041,1.5841 -2.80012,1.95046 -4.643,2.18608c-5.05847,0.64676 -9.79684,-1.30865 -17.6795,-2.20672c-2.14689,-0.24457 -2.9827,-3.41702 -2.58976,-5.46044c0.36752,-1.91123 1.1282,-5.21185 1.1282,-5.21185l6.93217,-32.05196c0,0 1.03845,-4.12155 2.89776,-4.67136c4.47754,-1.32406 8.87973,0.61523 13.55552,0.89222c1.58456,0.09388 1.13338,4.821 1.13338,4.821z" data-paper-data="{&quot;origPos&quot;:null}" fill="#ff0000" stroke-width="3"/><path d="M294.67094,259.52616l23.81649,2.79748c0,0 0.86665,2.58057 0.61914,4.23295c-0.23495,1.56855 -1.85542,4.02028 -1.85542,4.02028c0,0 -8.75506,0.27892 -12.75477,-0.05796c-5.21315,-0.43908 -11.06239,-3.53647 -11.06239,-3.53647z" data-paper-data="{&quot;origPos&quot;:null}" fill="#976e57" stroke-width="2"/><path d="M319.31718,262.98406c0,0 0.3575,4.41822 -0.76645,6.48747c-0.86041,1.58408 -2.80011,1.95046 -4.64299,2.18608c-5.05847,0.64676 -9.79684,-1.30866 -17.6795,-2.20673c-2.14688,-0.24458 -2.9827,-3.41702 -2.58976,-5.46044c0.36752,-1.91122 1.12822,-5.21185 1.12822,-5.21185l6.93217,-32.05196c0,0 1.03843,-4.12154 2.89774,-4.67135c4.47755,-1.32408 8.87976,0.61521 13.55553,0.8922c1.58456,0.09387 1.13338,4.82099 1.13338,4.82099z" data-paper-data="{&quot;origPos&quot;:null}" fill="#4b4b4b" stroke-width="3"/></g><path d="M325.29263,263.38882c0,0 -1.24158,-12.51092 -2.03625,-20.51854c-0.56305,-5.67362 -1.44273,-14.53792 -1.44273,-14.53792c0,0 -0.92032,-4.66381 0.64757,-4.90319c4.62663,-0.70639 8.81527,-3.04219 13.40419,-2.13661c1.90556,0.37603 3.35007,4.38296 3.35007,4.38296l10.09543,31.26602c0,0 1.08621,3.21537 1.64256,5.08394c0.59482,1.99782 0.07911,5.23264 -2.03351,5.67384c-7.75687,1.61994 -12.27849,4.0028 -17.37816,3.8249c-1.85789,-0.06482 -3.82519,-0.25084 -4.83956,-1.7484c-1.32504,-1.95621 -1.40964,-6.38703 -1.40964,-6.38703z" data-paper-data="{&quot;index&quot;:null}" fill="#4b4b4b" stroke="#000000" stroke-width="3" stroke-linecap="round"/><g data-paper-data="{&quot;index&quot;:null}"><path d="M340.07309,207.53491c0,0 1.77586,15.50925 -0.47318,15.91048c-6.74716,1.20374 -24.66934,1.34439 -39.91773,2.1825c-1.71293,0.09417 -2.34153,-14.686 -2.34153,-14.686l0.03007,-30.33655c0,0 0.56115,-13.43465 2.13137,-13.52095c10.15731,-0.5583 25.29974,-2.31228 32.04376,-1.05514c2.248,0.41905 5.08786,14.53436 5.08786,14.53436z" data-paper-data="{&quot;origPos&quot;:null}" fill="#66c8ff" stroke="#000000" stroke-width="3.5" stroke-linecap="round"/><path d="M317.76086,189.72124c-1.3266,0.0729 -1.47268,-2.38274 -1.47268,-2.38274l-0.0974,-1.6371c-0.30301,-5.0932 -0.60599,-10.18639 -0.90899,-15.27958c0,0 -0.14611,-2.45565 1.18049,-2.52857c1.32659,-0.07292 1.47268,2.38274 1.47268,2.38274c0.303,5.09321 0.70339,11.82349 1.00639,16.91668c0,0 0.14611,2.45564 -1.18049,2.52856z" fill="#ffffff" stroke="none" stroke-width="0.5" stroke-linecap="butt"/><path d="M305.66873,189.97325c-1.3266,0.07292 -1.51011,-3.01207 -1.51011,-3.01207l-0.12235,-2.05666c-0.38066,-6.39849 -0.7613,-12.79697 -1.14196,-19.19546c0,0 -0.18353,-3.08499 1.14307,-3.15791c1.3266,-0.07292 1.51011,3.01207 1.51011,3.01207c0.38065,6.39848 0.88364,14.85361 1.2643,21.2521c0,0 0.18353,3.08498 -1.14307,3.1579z" fill="#ffffff" stroke="none" stroke-width="0.5" stroke-linecap="butt"/></g><g data-paper-data="{&quot;index&quot;:null}" fill="none" stroke="#b9b9b9" stroke-width="3"><path d="M304.07688,172.54595c-1.27277,1.85352 -2.2693,0.71587 -3.48128,-0.53145c-0.949,-0.97668 -2.44382,-1.99387 -0.90761,-3.98549c0.72456,-0.9393 1.97256,-0.52789 3.18451,0.71941c1.21196,1.24733 2.10564,2.48511 1.2044,3.79754z" stroke-linecap="butt"/><path d="M305.65591,174.50923l-2.56891,-2.5822" stroke-linecap="round"/><path d="M309.27844,175.25785c1.21196,1.24734 2.10563,2.48512 1.20439,3.79755c-1.27278,1.85352 -2.26932,0.71586 -3.48128,-0.53145c-0.949,-0.97668 -2.44381,-1.99387 -0.9076,-3.98549c0.72455,-0.9393 1.97254,-0.52789 3.1845,0.71941z" stroke-linecap="butt"/><path d="M312.06186,181.0187l-2.56891,-2.58221" stroke-linecap="round"/><path d="M317.85861,180.77276c0.49584,2.30205 -0.8792,2.56349 -2.45869,2.96255c-1.23678,0.31248 -2.82991,1.11495 -3.26116,-1.51742c-0.20339,-1.24154 0.82847,-2.1721 2.40796,-2.57117c1.5795,-0.39907 2.96081,-0.50403 3.31191,1.12601z" stroke-linecap="butt"/><path d="M320.14683,180.45411l-3.30594,0.88258" stroke-linecap="round"/><path d="M325.42297,176.70617c1.22733,1.88259 0.04848,2.75905 -1.27261,3.85644c-1.03447,0.85928 -2.23305,2.33312 -3.51148,0.11754c-0.60295,-1.04496 0.03583,-2.37649 1.35692,-3.47387c1.32107,-1.09738 2.55809,-1.83319 3.42716,-0.50014z" stroke-linecap="butt"/><path d="M327.42367,175.35445l-2.74925,2.34028" stroke-linecap="round"/><path d="M332.33678,170.88652c1.22734,1.8826 0.0485,2.75906 -1.27259,3.85644c-1.03446,0.85928 -2.23305,2.3331 -3.51148,0.11753c-0.60294,-1.04496 0.03583,-2.37649 1.35693,-3.47387c1.32106,-1.09738 2.55809,-1.83316 3.42716,-0.50013z" stroke-linecap="butt"/><path d="M334.33749,169.53479l-2.74925,2.34028" stroke-linecap="round"/></g><path d="M296.16749,165.86153c0,0 -1.9609,-4.11805 -2.08273,-5.18546c-0.36551,-3.2022 -1.00993,-17.22102 -1.54854,-29.89293c-0.08333,-1.96002 1.44866,-5.08292 1.44866,-5.08292c0,0 2.19515,-1.69118 3.49165,-1.74528c14.30423,-0.59682 27.86909,-2.24512 33.23933,-0.90933c1.79008,0.44526 5.0986,2.04406 5.0986,2.04406c0,0 0.9151,4.3167 1.10051,5.42943c0.06181,0.37091 0.09765,0.57965 0.13638,0.95338c1.16033,11.19804 1.25379,24.20189 1.06457,28.75143c-0.06305,1.51653 -1.82951,3.94625 -1.82951,3.94625c0,0 -1.3113,2.74688 -5.7994,3.71118c-4.91076,1.05512 -16.96738,1.12602 -29.40064,1.16231z" data-paper-data="{&quot;index&quot;:null}" fill="#582700" stroke="#000000" stroke-width="2.5" stroke-linecap="round"/><path d="M303.41783,147.87683c0.1447,3.40415 -0.16327,6.17928 -0.68782,6.19839c-0.52455,0.01914 -1.06709,-2.72498 -1.21177,-6.12913c-0.14469,-3.40413 0.16328,-6.17926 0.68783,-6.19837c0.52455,-0.01914 1.06709,2.72498 1.21177,6.12912z" data-paper-data="{&quot;index&quot;:null}" fill="none" stroke="#000000" stroke-width="2.5" stroke-linecap="butt"/><path d="M309.04788,147.93369c0.14737,3.4672 -0.05211,6.28952 -0.44553,6.30387c-0.39341,0.01432 -0.83179,-2.78476 -0.97916,-6.25195c-0.14737,-3.46719 0.0521,-6.28954 0.44552,-6.30389c0.39339,-0.01434 0.8318,2.78477 0.97917,6.25196z" data-paper-data="{&quot;index&quot;:null}" fill="none" stroke="#000000" stroke-width="2.5" stroke-linecap="butt"/><path d="M340.23551,125.83111c-0.66576,1.05561 -1.76581,0.41253 -1.76581,0.41253l-0.75629,-0.48954c-0.09321,-0.02681 -0.18637,-0.05312 -0.27946,-0.07897c-0.21395,0.31612 -0.6408,0.69114 -1.40681,0.47885c-0.70602,-0.19567 -0.89386,-0.6668 -0.9251,-1.03503c-2.72972,-0.54977 -5.44741,-0.76169 -8.29698,-0.89968c-7.96809,-0.1238 -15.92792,0.34689 -23.88829,0.65965c-2.61063,0.10259 -8.40796,1.34194 -10.66422,-0.2391c-1.10037,-0.77106 -0.7713,-2.69469 -0.92194,-3.73116c-0.43647,-3.00344 -0.95813,-6.11031 -1.10805,-9.14082c-0.16841,-3.96223 -1.87028,-7.43973 -2.56586,-11.30514c-0.34872,-1.93786 -1.12376,-3.86936 0.61309,-5.62377c0.49041,-0.49536 1.40156,-0.25322 2.11072,-0.31647c2.59178,-0.23117 5.11336,-0.15839 7.69589,0.03538c8.18404,0.61408 16.25768,0.81411 24.40785,1.90985c3.2879,0.4458 6.57921,0.38555 9.89765,0.36406c1.95033,-0.01262 3.70286,-0.61623 4.96407,1.47839c0.75317,1.25087 0.41773,5.22718 0.42832,6.69367c0.0409,5.65474 1.27879,12.55084 0.30121,18.27877c0.12213,0.03349 0.24433,0.06776 0.36664,0.10276l1.35907,0.74707c0,0 1.10005,0.64309 0.43431,1.69871z" data-paper-data="{&quot;index&quot;:null}" fill="#000000" stroke="none" stroke-width="0.5" stroke-linecap="butt"/><g data-paper-data="{&quot;index&quot;:null}"><g stroke="#000000" stroke-width="3" stroke-linecap="round"><path d="M360.35188,196.01474c0,0 5.32226,9.30793 5.9528,13.82353c-14.21605,9.64802 -24.47848,9.28669 -24.47848,9.28669c-1.90479,0.82906 -3.85144,-6.11684 -3.85144,-6.11684c0,0 -4.26255,-13.43978 -6.99082,-22.04188c-1.79147,-5.6485 -4.59046,-14.47359 -4.59046,-14.47359c0,0 -1.5185,-5.67346 -0.4529,-6.04319c6.41089,-2.22438 12.15954,-5.59195 15.71783,-5.59387c1.18609,-0.00063 4.04523,4.93708 4.04523,4.93708l14.64825,26.22209z" data-paper-data="{&quot;origPos&quot;:null}" fill="#582700"/><path d="M362.3768,201.36515l-24.47592,9.50938l-1.2978,-3.12409l24.41596,-9.75852z" data-paper-data="{&quot;origPos&quot;:null}" fill="none"/></g><path d="M336.22142,207.40929l-10.27252,-35.09225l0.95713,-1.09219l15.03003,-5.97917l18.2109,32.59483z" fill="#66c8ff" stroke="#000000" stroke-width="1" stroke-linecap="round"/><path d="M337.69525,210.47948l-0.90137,-2.13598l24.30935,-9.47799l0.90138,2.13596z" fill="#ffffff" stroke="none" stroke-width="0" stroke-linecap="butt"/></g><path d="M305.06027,141.71636c-0.27578,-0.69343 0.44475,-0.95649 0.44475,-0.95649l0.57301,-0.19562c0.94031,-0.53238 1.93701,-0.8776 2.97163,-1.03377c0.0769,-0.03065 0.15417,-0.06104 0.2318,-0.09118c0.02061,-0.00886 0.04142,-0.01783 0.06241,-0.02687l0.03036,-0.01445l-0.03258,-0.09001l0.76319,-0.25344c0.07408,-0.02645 0.1537,-0.04231 0.23699,-0.04558c0.42567,-0.01673 0.78588,0.30148 0.80452,0.71074c0.01381,0.30305 -0.16353,0.57105 -0.42933,0.69653c-0.13926,0.13133 -0.29588,0.18851 -0.29588,0.18851c-0.16639,0.06067 -0.33067,0.12184 -0.49324,0.184c-0.68047,0.30923 -1.235,0.75008 -1.81967,0.78628c-0.12662,0.0625 -0.25319,0.12689 -0.37993,0.19342l-0.63803,0.51989c-0.12691,0.10545 -0.29047,0.17186 -0.47132,0.17897c-0.26362,0.01037 -0.50213,-0.10773 -0.64996,-0.29636c-0.20046,0.04459 -0.69196,0.09048 -0.90872,-0.45455z" data-paper-data="{&quot;index&quot;:null}" fill="#582700" stroke="none" stroke-width="0.5" stroke-linecap="butt"/><path d="M318.88247,155.74083c0.7182,-0.26883 0.99997,0.42238 0.99997,0.42238l0.52803,1.31067c0.43833,4.2715 -3.93248,4.40118 -7.26395,3.38565c0,0 -0.7358,-0.22503 -0.50386,-0.93171c0.23194,-0.70667 0.96776,-0.48163 0.96776,-0.48163c1.82442,0.56001 5.83643,1.22479 5.30538,-1.60822l-0.46976,-1.13707c0,0 -0.28177,-0.69122 0.43644,-0.96005z" data-paper-data="{&quot;index&quot;:null}" fill="#000000" stroke="none" stroke-width="0.5" stroke-linecap="butt"/><path d="M151.96363,348.03637v-336.07274h336.07274v336.07274z" data-paper-data="{&quot;index&quot;:null}" fill="none" stroke="#000000" stroke-width="0" stroke-linecap="butt"/></g></g></svg>