<svg version="1.1" xmlns="http://www.w3.org/2000/svg" xmlns:xlink="http://www.w3.org/1999/xlink" width="36.30135" height="36.30135" viewBox="0,0,36.30135,36.30135"><g transform="translate(-301.84933,-161.84933)"><g data-paper-data="{&quot;isPaintingLayer&quot;:true}" fill-rule="nonzero" stroke-linejoin="miter" stroke-miterlimit="10" stroke-dasharray="" stroke-dashoffset="0" style="mix-blend-mode: normal"><path d="M315.51053,196.54821c-9.13932,-2.47947 -14.5382,-11.89835 -12.05873,-21.03768c2.47947,-9.13931 11.89835,-14.5382 21.03768,-12.05873c9.13932,2.47947 14.5382,11.89835 12.05873,21.03768c-2.47947,9.13931 -11.89835,14.5382 -21.03768,12.05873z" data-paper-data="{&quot;index&quot;:null}" fill="#001aff" stroke="#000000" stroke-width="2" stroke-linecap="butt"/><path d="M336.59112,177.48869l-5.86325,4.21742l-5.04042,-5.50572l-5.9938,3.09298l-5.91377,-6.03305l-5.11362,4.13038l-3.4552,-5.72905" data-paper-data="{&quot;index&quot;:null}" fill="none" stroke="#000000" stroke-width="2" stroke-linecap="round"/><path d="M323.17598,181.40292l-1.3715,9.16369" data-paper-data="{&quot;index&quot;:null}" fill="none" stroke="#000000" stroke-width="2.5" stroke-linecap="round"/><path d="M316.38868,190.55822l1.26689,-9.00631" data-paper-data="{&quot;index&quot;:null}" fill="none" stroke="#000000" stroke-width="2.5" stroke-linecap="round"/><path d="M327.46731,189.54345c-0.01669,-0.03203 -0.02838,-0.06512 -0.03609,-0.09908c-0.08266,-0.23113 -0.06001,-0.49686 0.0845,-0.71825c0.16299,-0.2497 0.43999,-0.38017 0.71776,-0.36763c0.48469,-0.24826 1.12585,0.91275 1.22456,1.18329c0.3988,1.09297 0.76467,3.0714 -0.66296,3.71884c-0.96468,0.43749 -3.55086,-1.05456 -2.88495,-2.07473c0.80805,-1.23793 1.48523,0.62978 2.20633,0.40756c0.67423,-0.20776 -0.53708,-1.83481 -0.64914,-2.05z" data-paper-data="{&quot;index&quot;:null}" fill="#000000" stroke="none" stroke-width="0.5" stroke-linecap="butt"/></g></g></svg>