<svg version="1.1" xmlns="http://www.w3.org/2000/svg" xmlns:xlink="http://www.w3.org/1999/xlink" width="188.35658" height="318.42999" viewBox="0,0,188.35658,318.42999"><g transform="translate(-246.46042,-27.15004)"><g data-paper-data="{&quot;isPaintingLayer&quot;:true}" fill-rule="nonzero" stroke-linejoin="miter" stroke-miterlimit="10" stroke-dasharray="" stroke-dashoffset="0" style="mix-blend-mode: normal"><g data-paper-data="{&quot;index&quot;:null}" stroke="#000000" stroke-linecap="butt"><path d="M433.817,98.88391c-0.3054,32.20382 -12.43651,58.19748 -27.0956,58.05846c-14.65909,-0.13902 -26.29505,-26.35807 -25.98965,-58.56189c0.3054,-32.20382 12.43651,-58.19748 27.0956,-58.05846c14.65909,0.13902 26.29505,26.35807 25.98965,58.56189z" fill="#01930e" stroke-width="2"/><path d="M390.00675,88.41952c-0.3054,32.20382 31.77968,68.23153 17.1206,68.09252c-14.65908,-0.13902 -26.29505,-26.35807 -25.98965,-58.56189c0.3054,-32.20382 9.17445,-41.73445 8.86905,-9.53062z" fill="#31525b" stroke-width="0"/></g><g data-paper-data="{&quot;index&quot;:null}" stroke="#000000" stroke-linecap="butt"><path d="M316.44531,344.13566v-90.27109h61.17899v90.27109z" fill="#273750" stroke-width="2"/><path d="M317.23265,343.37909v-90.27109l18.42709,49.31565l42.75189,40.95544z" fill="#1f1e2e" stroke-width="0"/></g><path d="M264.46059,253.45329v-113.80147h113.80147v113.80147z" data-paper-data="{&quot;index&quot;:null}" fill="#ff0008" stroke="#000000" stroke-width="2" stroke-linecap="butt"/><g data-paper-data="{&quot;index&quot;:null}" stroke="#000000" stroke-linecap="butt"><path d="M263.83936,344.58003v-90.27109h61.17899v90.27109z" fill="#273750" stroke-width="2"/><path d="M264.62674,343.82343v-90.27109l18.42709,49.31565l42.75189,40.95544z" fill="#1f1e2e" stroke-width="0"/></g><g data-paper-data="{&quot;index&quot;:null}" fill="#000000" stroke="#000000" stroke-linecap="butt"><path d="M291.35367,252.98407v-111.68333h61.17899v111.68333z" stroke-width="2"/><path d="M292.14105,252.04804v-111.68333l18.42709,61.01328l42.75189,50.67005z" stroke-width="0"/></g><g data-paper-data="{&quot;index&quot;:null}" stroke="#000000" stroke-linecap="butt"><path d="M256.41156,95.63218c0.01305,-1.3764 1.14656,-27.37044 1.26157,-28.72479c2.9061,-34.2233 36.80695,-36.38789 79.24945,-35.98539c39.86805,0.37808 74.26404,5.2466 79.96925,36.59275c0.60877,3.34475 -0.66688,26.14658 -0.69994,29.63267c-0.11817,12.46058 2.61149,39.87609 -4.85659,49.7211c-14.20205,18.72226 -46.73792,15.26329 -75.65443,14.98907c-30.57399,-0.28994 -59.09447,0.42088 -72.32837,-20.38c-5.8643,-9.21743 -7.04623,-34.74309 -6.94094,-45.84542z" fill="#ffcaa0" stroke-width="2"/><path d="M254.57819,95.62498c0.01305,-1.3764 1.14656,-27.37044 1.26157,-28.72479c1.65111,-19.44405 6.28896,60.61863 53.86564,82.99576c37.28434,17.53625 103.4528,-7.0954 100.45027,-3.13723c-14.20205,18.72226 -47.39166,15.36589 -76.30815,15.09166c-30.57399,-0.28994 -59.09447,0.42088 -72.32837,-20.38c-5.8643,-9.21743 -7.04623,-34.74309 -6.94094,-45.84542z" fill="#ff6e5b" stroke-width="0"/></g><g data-paper-data="{&quot;index&quot;:null}" stroke="#000000" stroke-linecap="butt"><path d="M345.97527,260.6664l-37.86096,-29.6032l31.41228,-40.17468l37.86096,29.6032z" fill="#ffcaa0" stroke-width="2"/><g><path d="M308.15341,231.30587l-52.20612,-40.81958l31.82171,-40.69832l52.20612,40.81958z" fill="#ff0008" stroke-width="2"/><path d="M308.77882,230.85097l-27.34402,-21.38009c0,0 20.87707,-3.29307 26.15989,-10.04952c5.0089,-6.40612 4.75901,-29.49415 4.75901,-29.49415l27.34403,21.38009c0,0 -10.16954,13.00631 -15.29499,19.5615c-5.18027,6.6253 -15.62391,19.98217 -15.62391,19.98217z" fill="#8d005e" stroke-width="0"/></g><path d="M346.03349,259.70824l-37.86096,-29.6032l33.71996,9.7578l35.55328,-20.32929z" fill="#ff6e5b" stroke-width="0"/></g><g data-paper-data="{&quot;index&quot;:null}" stroke="#000000" stroke-linecap="butt"><path d="M301.76668,95.55762c-0.3054,32.20382 -12.43651,58.19748 -27.0956,58.05846c-14.65909,-0.13902 -26.29505,-26.35807 -25.98965,-58.56189c0.3054,-32.20382 12.43651,-58.19748 27.0956,-58.05846c14.65909,0.13902 26.29505,26.35807 25.98965,58.56189z" fill="#01930e" stroke-width="2"/><path d="M257.95643,85.09324c-0.3054,32.20382 31.77968,68.23153 17.1206,68.09252c-14.65908,-0.13902 -26.29505,-26.35807 -25.98965,-58.56189c0.3054,-32.20382 9.17445,-41.73445 8.86905,-9.53062z" fill="#31525b" stroke-width="0"/></g><g data-paper-data="{&quot;index&quot;:null}" stroke-linecap="butt"><path d="M432.94767,60.01487c-0.16748,17.66017 -41.66171,31.58433 -92.67995,31.10051c-51.01825,-0.48383 -92.24093,-15.19244 -92.07345,-32.8526c0.16748,-17.66017 41.6617,-31.58432 92.67994,-31.1005c51.01825,0.48383 92.24094,15.19243 92.07346,32.8526z" fill="#000000" stroke="none" stroke-width="NaN"/><path d="M432.21433,60.35222c-0.16748,17.66017 -41.66171,31.58433 -92.67995,31.10051c-51.01825,-0.48383 -92.24093,-15.19244 -92.07345,-32.8526c0.16748,-17.66017 42.707,9.2544 93.72525,9.73823c51.01825,0.48383 91.19563,-25.64631 91.02816,-7.98614z" fill="#ff0000" stroke="#000000" stroke-width="2"/><path d="M426.74155,69.49768c-0.04609,4.85992 -36.56754,23.13772 -87.5722,21.22143c-17.84855,-0.67059 -34.67483,-2.46211 -48.379,-5.54606c-25.44192,-5.72537 -41.01142,-14.45594 -38.64517,-18.52342c2.44392,-4.20097 37.49875,17.23463 88.517,17.71846c51.01825,0.48383 86.12546,-19.73033 86.07938,-14.87041z" fill="#900056" stroke="#000000" stroke-width="0"/></g><path d="M379.50346,124.51527c-0.14905,15.71681 -3.17482,28.43026 -6.75825,28.39628c-3.58344,-0.03398 -6.36755,-12.80253 -6.2185,-28.51933c0.14905,-15.71681 3.17483,-28.43025 6.75825,-28.39627c3.58344,0.03398 6.36755,12.80253 6.2185,28.51934z" data-paper-data="{&quot;index&quot;:null}" fill="#000000" stroke="none" stroke-width="0" stroke-linecap="butt"/><path d="M405.96375,118.48735c-0.14845,15.65395 -3.02085,28.31788 -6.41568,28.28568c-3.39484,-0.03219 -6.02654,-12.74832 -5.87809,-28.40227c0.14845,-15.65395 3.02085,-28.31788 6.41568,-28.28568c3.39484,0.03219 6.02654,12.74832 5.87809,28.40227z" data-paper-data="{&quot;index&quot;:null}" fill="#000000" stroke="none" stroke-width="0" stroke-linecap="butt"/><path d="M344.13799,149.60282c-0.49543,-1.71965 -0.95283,-3.44886 -1.50215,-5.15183c-0.47002,-1.1574 -0.8128,-1.9616 -1.22728,-3.15601c-0.94431,-2.72129 -4.07858,-4.40535 -4.58862,-0.29973c-0.46013,3.70382 0.28833,8.09103 1.68268,11.50651c0,0 0.46981,1.15836 -0.68855,1.62816c-1.15836,0.46981 -1.62816,-0.68855 -1.62816,-0.68855c-1.58265,-3.92512 -3.03402,-10.33741 -1.37828,-14.45367c1.61055,-4.00392 6.57797,-3.96871 8.42328,-0.14831c0.71292,1.47598 1.13431,3.2264 1.7544,4.75719c0.58488,1.81044 1.07193,3.64716 1.60138,5.47476l0.04812,0.48479c0,0 -0.01185,1.24994 -1.2618,1.23809c-1.06987,-0.01015 -1.21531,-0.92736 -1.23502,-1.19142z" data-paper-data="{&quot;index&quot;:null}" fill="#000000" stroke="none" stroke-width="0.5" stroke-linecap="butt"/><path d="M375.74856,94.80123l-29.99865,-0.28449" fill="none" stroke="#000000" stroke-width="5" stroke-linecap="round"/><path d="M391.34966,91.67767l23.37518,-4.30234" fill="none" stroke="#000000" stroke-width="5" stroke-linecap="round"/><g data-paper-data="{&quot;index&quot;:null}" stroke="#000000" stroke-linecap="butt"><path d="M292.48217,196.52614l45.16254,-16.43616l17.44059,47.92247l-45.16254,16.43616z" fill="#ffcaa0" stroke-width="2"/><g><path d="M337.41817,179.99465l62.27419,-22.66366l17.66791,48.54709l-62.27419,22.66366z" fill="#ff0008" stroke-width="2"/><path d="M337.47279,180.76606l32.61738,-11.87056c0,0 -8.26378,19.45267 -5.33068,27.51212c2.78102,7.64156 22.49734,19.65765 22.49734,19.65765l-32.61739,11.87056c0,0 -5.64629,-15.51461 -8.49202,-23.33398c-2.87617,-7.903 -8.67464,-23.83578 -8.67464,-23.83578z" fill="#8d005e" stroke-width="0"/></g><path d="M293.26409,197.083l45.16254,-16.43616l-26.13588,23.4343l-1.58607,40.92432z" fill="#ff6e5b" stroke-width="0"/></g></g></g></svg>