<svg version="1.1" xmlns="http://www.w3.org/2000/svg" xmlns:xlink="http://www.w3.org/1999/xlink" width="179.63521" height="328.50407" viewBox="0,0,179.63521,328.50407"><g transform="translate(-231.84343,-15.41689)"><g data-paper-data="{&quot;isPaintingLayer&quot;:true}" fill-rule="nonzero" stroke-linejoin="miter" stroke-miterlimit="10" stroke-dasharray="" stroke-dashoffset="0" style="mix-blend-mode: normal"><g data-paper-data="{&quot;index&quot;:null}" stroke="#000000" stroke-linecap="butt"><path d="M353.56267,212.34808c1.7149,-2.27565 -12.98461,-7.64627 -20.46143,-13.8123c-6.06277,-4.99988 -7.84213,-11.27934 -0.76339,-10.81055c6.46195,4.86966 78.46897,-0.65092 58.40598,25.97229c-20.063,26.62321 -41.56572,44.25795 -48.02767,39.38828c-6.46195,-4.86966 -9.2165,-14.11453 10.8465,-40.73773z" fill="#303145" stroke-width="2"/><path d="M365.65246,220.37718c11.72144,8.83317 14.24251,25.25757 5.63096,36.68492c-8.61155,11.42735 -25.0947,13.53035 -36.81614,4.69718c-11.72144,-8.83317 -14.2425,-25.25756 -5.63095,-36.68491c8.61155,-11.42735 25.09469,-13.53036 36.81613,-4.69719z" fill="#faddbf" stroke-width="2"/><path d="M371.48396,256.13952c-8.61154,11.42736 -25.09469,13.53036 -36.81613,4.69719c-11.72144,-8.83317 24.31541,-9.73949 32.92696,-21.16684c8.61155,-11.42737 12.50072,5.0423 3.88917,16.46965z" fill="#ef8b89" stroke-width="0"/></g><g stroke="#000000" stroke-linecap="butt"><path d="M352.09579,329.26253l-40.29881,-86.35466l26.72515,-12.47173l40.29881,86.35466z" fill="#7485a3" stroke-width="2"/><path d="M351.53929,328.84033l-38.45876,-85.54792c0,0 33.51843,59.52198 38.56698,67.55699c1.11608,1.77629 3.46544,1.4615 3.46544,1.4615l22.41725,4.03785z" fill="#49374f" stroke-width="0"/></g><g data-paper-data="{&quot;index&quot;:null}" stroke="#000000" stroke-linecap="butt"><path d="M283.78056,320.511l25.60695,-91.79001l28.40729,7.92487l-25.60695,91.79001z" fill="#7485a3" stroke-width="2"/><path d="M284.98142,319.8635l21.45285,-7.65589c0,0 2.3692,-0.07435 3.17918,-2.00949c3.66397,-8.75355 26.97811,-72.9626 26.97811,-72.9626l-23.92393,90.69271z" fill="#49374f" stroke-width="0"/></g><g stroke="#000000" stroke-linecap="butt"><path d="M358.55338,219.29158c0,13.80271 10.04743,36.74388 4.95001,46.45977c-6.2338,11.88187 -28.61241,9.09579 -38.9397,9.09579c-13.66287,0 -32.94407,4.17018 -38.34426,-14.83216c-2.01935,-7.10576 4.35457,-32.37264 4.35457,-40.7234c0,-30.68249 15.2177,-55.55556 33.98969,-55.55556c18.77199,0 33.98969,24.87307 33.98969,55.55556z" fill="#585858" stroke-width="2"/><path d="M307.28975,234.86815c0,13.80271 62.04198,20.54886 56.94455,30.26474c-6.2338,11.88186 -28.61241,9.09579 -38.9397,9.09579c-13.66287,0 -32.94406,4.17018 -38.34425,-14.83215c-2.01936,-7.10576 4.35457,-32.37265 4.35457,-40.7234c0,-9.45244 3.34855,-28.59801 5.51953,-29.96813c5.94391,-16.76415 10.4653,25.13995 10.4653,46.16315z" fill="#303145" stroke-width="0"/></g><g stroke="#000000" stroke-linecap="butt"><g><path d="M235.54643,103.87355c0,-46.79079 37.93143,-84.72222 84.72222,-84.72222c46.79079,0 84.72222,37.93143 84.72222,84.72222c0,46.79079 -37.93143,84.72222 -84.72222,84.72222c-46.79079,0 -84.72222,-37.93143 -84.72222,-84.72222z" fill="#faddbf" stroke-width="2"/><path d="M235.7772,103.00404c0,-15.05428 8.65728,-41.01117 13.16632,-44.22534c0.51494,-0.36707 5.78642,-8.91029 13.30693,-15.62682c9.34748,-8.34819 21.31473,-15.15641 21.9255,-14.95935c7.96872,2.57101 -17.52654,64.85492 -16.28763,90.14485c0.00295,0.06031 4.40745,19.70158 6.02593,20.14049c2.8855,4.74247 9.11092,19.15337 19.99223,26.29351c20.2786,13.30648 48.94186,19.68013 47.45857,20.18586c-2.37273,0.80898 -14.80271,2.76903 -20.86562,2.76903c-46.79079,0 -84.72222,-37.93143 -84.72222,-84.72222z" fill="#ef8b89" stroke-width="0"/><path d="M404.46743,103.41535c0,11.62434 -1.57787,15.64071 -2.12992,13.78899c-0.5632,-1.8891 -0.18668,-9.81362 -9.04258,-14.64925c-2.14596,-1.17177 -10.20624,6.27605 -12.93385,5.04791c-1.71325,-0.77142 -8.65215,-10.17554 -10.56583,-10.85157c-1.33801,-0.47267 -12.45011,8.37757 -13.84965,7.92692c-3.49052,-1.12394 -11.98851,-11.37355 -15.73972,-12.03156c-2.06568,-0.36235 -9.2828,11.84977 -11.39182,11.59592c-2.71985,-0.32737 -10.06862,-12.06843 -12.80601,-12.06843c-7.27985,0 -7.47978,7.01079 -12.7176,13.01701c-3.40366,3.90299 -13.98842,-13.05188 -17.11223,-8.61668c-3.87941,5.50799 -7.71992,10.81771 -11.96095,14.41734c-3.32724,2.82405 -13.36416,-10.09687 -16.24015,-7.47909c-13.88607,12.63935 -22.22353,20.64372 -22.22353,2.47189c0,-36.54015 43.28764,-8.21349 85.0704,-29.73523c39.99404,-20.60039 83.64345,-9.37431 83.64345,27.16584z" fill="#ef8b89" stroke-width="0"/></g><path d="M406.0013,95.10446c0,23.48334 6.5317,8.71531 -11.46679,-0.86026c-2.20249,-1.17177 -10.47508,6.27605 -13.27454,5.04791c-1.75838,-0.77142 -8.88005,-10.17554 -10.84414,-10.85157c-1.37326,-0.47267 -12.77806,8.37757 -14.21446,7.92692c-3.58246,-1.12394 -12.30429,-11.37355 -16.15431,-12.03156c-2.12009,-0.36235 -9.52731,11.84977 -11.69189,11.59592c-2.79149,-0.32737 -10.33384,-12.06843 -13.14333,-12.06843c-7.47161,0 -7.6768,7.01079 -13.05259,13.01701c-3.49332,3.90299 -14.35688,-13.05188 -17.56298,-8.61668c-3.98159,5.50799 -7.92327,10.81771 -12.276,14.41734c-3.41488,2.82405 -13.71618,-10.09687 -16.66792,-7.47909c-14.25184,12.63935 -22.80892,20.64372 -22.80892,2.47189c0,-36.54015 39.86264,-81.25697 85.78948,-81.25697c45.92683,0 87.36842,42.14743 87.36842,78.68758z" fill="#724e36" stroke-width="2"/><path d="M405.75357,93.94167c0,23.48334 6.5317,8.71531 -11.46679,-0.86026c-2.20249,-1.17177 -10.47508,6.27605 -13.27454,5.04791c-1.75838,-0.77142 -8.88005,-10.17554 -10.84415,-10.85157c-1.37326,-0.47267 -12.77806,8.37757 -14.21446,7.92692c-3.58246,-1.12394 -12.30429,-11.37355 -16.15431,-12.03156c-2.12009,-0.36235 -9.52731,11.84977 -11.69189,11.59592c-2.79149,-0.32737 -10.33384,-12.06843 -13.14333,-12.06843c-7.47161,0 -7.6768,7.01079 -13.05259,13.01701c-3.49332,3.90299 -14.35688,-13.05188 -17.56298,-8.61668c-3.98159,5.50799 -7.92327,10.81771 -12.27601,14.41734c-3.41488,2.82405 -13.71618,-10.09687 -16.66792,-7.47909c-14.25184,12.63935 -22.80892,20.64372 -22.80892,2.47189c0,-36.54015 44.42786,-8.21349 87.31121,-29.73523c41.04751,-20.60039 85.84668,-9.37431 85.84668,27.16584z" fill="#623728" stroke-width="0"/></g><g stroke="#000000" stroke-linecap="butt"><path d="M339.10377,126.77591c0,28.55894 -13.1683,43.28947 -29.73684,43.28947c-16.56854,0 -30.26316,-14.73054 -30.26316,-43.28947c0,-28.55894 13.43146,-51.71053 30,-51.71053c16.56854,0 30,23.15159 30,51.71053z" fill="#f0f0f0" stroke-width="2"/><path d="M292.34804,107.19351c-4.30259,28.23297 34.22345,62.0416 17.65491,62.0416c-16.56854,0 -30.26316,-14.73054 -30.26316,-43.28947c0,-28.55894 18.82852,-59.56866 12.60825,-18.75213z" fill="#9a99ff" stroke-width="0"/></g><path d="M337.60934,134.00916c0,15.82221 -4.68891,28.64865 -10.47297,28.64865c-5.78406,0 -10.47297,-12.82644 -10.47297,-28.64865c0,-15.82221 4.68891,-28.64865 10.47297,-28.64865c5.78406,0 10.47297,12.82644 10.47297,28.64865z" fill="#000000" stroke="none" stroke-width="0" stroke-linecap="butt"/><g stroke="#000000" stroke-linecap="butt"><path d="M334.09447,96.54124c4.45946,10.22981 9.90215,28.32162 -5.80811,28.32162c-15.71026,0 -46.97995,-18.84154 -42.43514,-28.45676c4.32432,-9.14873 6.78974,-21.41892 22.5,-21.41892c15.71026,0 21.49332,11.80491 25.74324,21.55405z" fill="#a100fe" stroke-width="2"/><path d="M333.1702,96.18698c4.3074,10.22981 10.23964,28.32162 -4.93494,28.32162c-15.17458,0 -46.05318,-18.84154 -41.66334,-28.45676c4.17687,-9.14873 6.55823,0.96203 21.73281,0.96203c15.17458,0 20.76045,-10.57604 24.86546,-0.8269z" fill="#99008e" stroke-width="0"/></g><g data-paper-data="{&quot;index&quot;:null}" stroke="#000000" stroke-linecap="butt"><path d="M372.83045,73.58675c16.56854,0 30,23.15159 30,51.71053c0,28.55893 -13.69462,43.28947 -30.26316,43.28947c-16.56854,0 -29.73684,-14.73053 -29.73684,-43.28947c0,-28.55894 13.43146,-51.71053 30,-51.71053z" fill="#f0f0f0" stroke-width="2"/><path d="M402.19443,124.46701c0,28.55893 -13.69462,43.28947 -30.26316,43.28947c-16.56854,0 21.9575,-33.80863 17.65491,-62.0416c-6.22027,-40.81653 12.60825,-9.80681 12.60825,18.75213z" fill="#9a99ff" stroke-width="0"/></g><path d="M391.15807,101.78907c5.78406,0 10.47297,12.82644 10.47297,28.64865c0,15.82221 -4.68891,28.64865 -10.47297,28.64865c-5.78406,0 -10.47297,-12.82644 -10.47297,-28.64865c0,-15.82221 4.68891,-28.64865 10.47297,-28.64865z" data-paper-data="{&quot;index&quot;:null}" fill="#000000" stroke="none" stroke-width="0" stroke-linecap="butt"/><g data-paper-data="{&quot;index&quot;:null}" stroke="#000000" stroke-linecap="butt"><path d="M347.83976,95.26257c4.24992,-9.74914 10.03298,-21.55405 25.74324,-21.55405c15.71026,0 18.17568,12.27019 22.5,21.41892c4.54481,9.61522 -26.32488,26.25676 -42.03514,26.25676c-15.71026,0 -10.66757,-15.89181 -6.20811,-26.12162z" fill="#a100fe" stroke-width="2"/><path d="M348.76403,94.90833c4.10501,-9.74914 9.69088,0.8269 24.86546,0.8269c15.17458,0 17.55594,-10.11076 21.73281,-0.96203c4.38984,9.61522 -27.68876,26.45676 -42.86334,26.45676c-15.17458,0 -8.04234,-16.09181 -3.73494,-26.32162z" fill="#99008e" stroke-width="0"/></g><path d="M409.14365,300.47145c4.93203,10.56863 -4.22739,25.27642 -20.45813,32.85076c-16.23074,7.57434 -33.38655,5.14698 -38.31858,-5.42165c-0.98592,-2.11269 -5.8492,-12.45504 -5.41424,-14.17899c1.74088,-6.9 18.37121,-2.76707 31.35739,-8.82728c16.23074,-7.57434 27.90154,-14.99148 32.83356,-4.42284z" fill="#000082" stroke="#000000" stroke-width="2" stroke-linecap="butt"/><path d="M406.27889,298.79317c2.66773,5.71658 -8.27817,15.10822 -24.50892,22.68256c-16.23074,7.57434 -28.58629,10.07659 -31.25402,4.36002c-0.53329,-1.14276 -5.32732,-11.33675 -4.62477,-12.4873c2.81188,-4.60499 16.53463,-1.34592 29.52081,-7.40613c16.23074,-7.57434 28.19917,-12.86572 30.8669,-7.14915z" fill="#2e0048" stroke="#000000" stroke-width="0" stroke-linecap="butt"/><path d="M254.22775,312.07179c3.13394,-11.23385 15.86219,-5.82893 33.11453,-1.016c13.80356,3.85082 29.5321,-2.95079 32.37988,3.57077c0.71151,1.6294 -2.39168,12.62876 -3.01816,14.87443c-3.13394,11.23385 -19.66029,16.43902 -36.91263,11.62608c-17.25234,-4.81294 -28.69756,-17.82143 -25.56362,-29.05528z" data-paper-data="{&quot;index&quot;:null}" fill="#000082" stroke="#000000" stroke-width="2" stroke-linecap="butt"/><path d="M288.39995,311.94249c13.80356,3.85082 26.80697,-1.61239 30.33529,2.46971c0.88154,1.0199 -2.17764,11.86156 -2.51651,13.07625c-1.69515,6.07639 -14.2937,5.63214 -31.54604,0.8192c-17.25235,-4.81294 -29.58898,-12.28444 -27.89383,-18.36083c1.69515,-6.07639 14.36875,-2.81727 31.62109,1.99567z" data-paper-data="{&quot;index&quot;:null}" fill="#2e0048" stroke="#000000" stroke-width="0" stroke-linecap="butt"/><g><path d="M293.44572,243.09368c-13.64858,-6.42956 -18.38675,-17.0484 -12.65804,-30.84302c4.48045,-10.78892 21.42031,-17.19712 35.06891,-10.76755c13.64866,6.42956 19.40893,19.91967 13.04348,33.43227c-0.99543,2.11311 -2.54126,3.76785 -3.93899,5.29238c-7.54025,8.22407 -20.00112,8.31004 -31.51534,2.88594z" fill="#485e84" stroke="#000000" stroke-width="2" stroke-linecap="butt"/><path d="M302.11421,200.62736c0,0 -2.84491,5.00375 -1.90518,6.77301c9.01403,16.97118 21.24051,23.87997 25.45874,25.85641c0.95837,0.44905 1.89018,-0.17752 1.89018,-0.17752c0,0 -0.69501,1.99626 -2.37227,4.1644c-1.78474,2.30709 -4.63827,4.82924 -7.45843,6.05064c-3.22143,1.39515 -11.46731,2.62558 -11.46731,2.62558l-20.11189,-5.86264c0,0 -5.62647,-12.21875 -5.79872,-14.37913c-0.16877,-2.11646 0.23856,-4.66926 0.56241,-7.40094c0.50284,-4.24131 2.5697,-8.28296 4.54928,-10.37486c2.52643,-2.66971 6.65226,-4.84444 10.28493,-6.01326c3.38088,-1.0878 6.36821,-1.26156 6.36821,-1.26156z" fill="#343545" stroke="none" stroke-width="0" stroke-linecap="butt"/><path d="M293.88347,223.63658c0,0 2.07058,-8.78128 6.0639,-12.04219c5.05511,-4.12799 16.98611,-9.20278 16.98611,-9.20278" fill="none" stroke="#000000" stroke-width="1" stroke-linecap="round"/><path d="M330.36164,227.97935c0,0 -4.3425,5.68089 -7.69212,8.37381c-3.38157,2.71867 -12.60164,5.7424 -12.60164,5.7424" fill="none" stroke="#000000" stroke-width="1" stroke-linecap="round"/><path d="M283.0445,221.94156c0,0 1.99077,-9.04561 6.47697,-12.38072c6.88393,-5.11759 17.35609,-10.10052 17.35609,-10.10052" fill="none" stroke="#000000" stroke-width="1" stroke-linecap="round"/><path d="M285.53343,206.86169c0,0 16.90504,-3.70065 29.78695,8.02966c14.1105,12.84906 6.46587,28.31031 6.46587,28.31031" fill="none" stroke="#000000" stroke-width="1" stroke-linecap="round"/><path d="M280.36156,214.859c0,0 17.77816,-0.89421 29.16766,9.43239c9.35181,8.4791 4.13081,22.10481 4.13081,22.10481" fill="none" stroke="#000000" stroke-width="1" stroke-linecap="round"/><path d="M324.07539,214.50361c-0.65944,-1.00615 -0.54827,-2.24496 0.24822,-2.76698c0.79649,-0.52209 1.2521,0.13091 1.91153,1.13706c0.65944,1.00615 1.27295,1.98441 0.47645,2.50645c-0.79649,0.52209 -1.97681,0.12962 -2.63619,-0.87652z" fill="#8fbbbe" stroke="none" stroke-width="0" stroke-linecap="butt"/><path d="M327.19564,221.07041c-0.54413,-0.25635 -0.67355,-1.12577 -0.28906,-1.94196c0.38449,-0.8162 0.65416,-1.09636 1.19829,-0.84005c0.54413,0.25635 0.83777,1.20313 0.45325,2.01931c-0.38449,0.8162 -0.81839,1.019 -1.3625,0.76268z" fill="#8fbbbe" stroke="none" stroke-width="0" stroke-linecap="butt"/><path d="M320.22925,208.7529c-0.7706,-0.4693 -1.14165,-1.26611 -0.82882,-1.77983c0.31278,-0.5137 0.95906,-0.05715 1.72965,0.4121c0.7706,0.4693 1.37372,0.77347 1.0609,1.28721c-0.31278,0.5137 -1.19115,0.54977 -1.96173,0.0805z" fill="#8fbbbe" stroke="none" stroke-width="0" stroke-linecap="butt"/><path d="M297.66028,201.13766c0,0 10.1698,1.12018 16.8615,4.67558c3.79385,2.01575 6.44173,5.10202 8.423,7.46438c1.75216,2.08912 3.6656,8.37915 4.62917,13.34602c0.70943,3.65683 0.71816,6.60079 0.71816,6.60079" fill="none" stroke="#000000" stroke-width="0.5" stroke-linecap="round"/><path d="M329.53661,213.54552c0,0 -4.86998,9.3841 -8.94154,12.93931c-3.43037,2.99536 -13.56702,7.15619 -13.56702,7.15619" fill="none" stroke="#000000" stroke-width="1" stroke-linecap="round"/><path d="M302.63388,229.76516c0,0 4.54781,-8.5291 7.61235,-11.85467c5.38074,-5.83906 15.10921,-9.54496 15.10921,-9.54496" fill="none" stroke="#000000" stroke-width="1" stroke-linecap="round"/></g><g stroke="#000000" stroke-linecap="butt"><path d="M281.3209,219.31226c24.43241,22.67986 23.34663,32.26507 17.84181,38.19527c-5.50483,5.93021 -29.77375,-7.64809 -54.20616,-30.32796c-24.4324,-22.67987 47.42322,-29.90889 52.92805,-35.83909c6.88596,-1.70639 6.23868,4.78812 1.14971,10.77631c-6.27589,7.38484 -19.80179,15.25689 -17.71341,17.19548z" fill="#585858" stroke-width="2"/><path d="M307.89997,227.49171c10.48701,9.73477 10.89373,26.34655 0.90843,37.10344c-9.9853,10.75689 -26.58139,11.58549 -37.0684,1.85072c-10.48701,-9.73477 -10.89372,-26.34656 -0.90842,-37.10345c9.9853,-10.75689 26.58139,-11.58548 37.0684,-1.85071z" fill="#faddbf" stroke-width="2"/><path d="M272.31245,248.67604c10.48701,9.73477 46.12158,4.28933 36.13628,15.04622c-9.9853,10.75689 -26.58139,11.58549 -37.0684,1.85071c-10.48701,-9.73477 -9.5549,-26.63171 0.93211,-16.89693z" fill="#ef8b89" stroke-width="0"/></g><path d="M255.2923,137.46654c-1.02967,-0.70872 -0.32093,-1.73839 -0.32093,-1.73839l0.1021,-0.0352c0.79365,-2.74498 1.41092,-5.70769 3.8799,-7.53633c2.55968,-1.89583 6.52541,-1.60344 7.80574,1.56014c1.71681,4.24206 -1.70936,9.39573 -3.08523,13.22498c0,0 -0.42334,1.17612 -1.59948,0.75277c-1.17612,-0.42335 -0.75278,-1.59947 -0.75278,-1.59947c1.16449,-3.22957 4.35678,-7.88855 3.09946,-11.49304c-0.56191,-1.61088 -2.86518,-1.3031 -4.00133,-0.42061c-1.93357,1.50188 -2.31505,4.02257 -2.94439,6.20507l-0.44467,0.75915c0,0 -0.70873,1.02966 -1.73838,0.32093z" fill="#000000" stroke="none" stroke-width="0.5" stroke-linecap="butt"/><path d="M274.74032,172.79543v-92.8c0,0 21.21425,-8.6 31.8,-8.6c11.41789,0 34.4,8.6 34.4,8.6v92.8c0,0 -24.38211,5.8 -35.8,5.8c-10.58575,0 -30.4,-5.8 -30.4,-5.8z" fill-opacity="0.74902" fill="#fffe00" stroke="#000000" stroke-width="2.5" stroke-linecap="butt"/></g></g></svg>