<svg version="1.1" xmlns="http://www.w3.org/2000/svg" xmlns:xlink="http://www.w3.org/1999/xlink" width="198.77013" height="330.09164" viewBox="0,0,198.77013,330.09164"><g transform="translate(-195.82427,-30.37942)"><g data-paper-data="{&quot;isPaintingLayer&quot;:true}" fill-rule="nonzero" stroke-linejoin="miter" stroke-miterlimit="10" stroke-dasharray="" stroke-dashoffset="0" style="mix-blend-mode: normal"><g data-paper-data="{&quot;index&quot;:null}" stroke="#000000" stroke-linecap="butt"><path d="M273.77899,212.35163c1.98496,2.04436 9.55155,-11.65476 16.79372,-18.09477c5.8725,-5.22206 12.35086,-6.01489 10.7994,0.90763c-5.80519,5.63651 -11.42016,77.63623 -34.64252,53.71885c-23.22236,-23.91739 -37.34176,-47.87555 -31.53656,-53.51205c5.80519,-5.6365 15.36362,-6.93705 38.58597,16.98033z" fill="#216aff" stroke-width="2"/><path d="M265.00525,185.96276c9.96761,10.26596 9.5116,26.87645 -1.01854,37.10059c-10.53015,10.22414 -27.14688,10.19025 -37.11449,-0.0757c-9.96763,-10.26594 -9.5116,-26.87645 1.01854,-37.10059c10.53015,-10.22414 27.14687,-10.19025 37.11448,0.0757z" fill="#faddbf" stroke-width="2"/><path d="M244.62476,222.01664c9.96763,10.26595 -6.90416,11.57694 -16.87177,1.31099c-9.96763,-10.26594 -9.5116,-26.87645 1.01854,-37.10059c10.53014,-10.22414 5.88561,25.52365 15.85322,35.7896z" fill="#ef8b89" stroke-width="0"/></g><g data-paper-data="{&quot;index&quot;:null}" stroke="#000000" stroke-linecap="butt"><path d="M276.19163,340.31901v-95.29492h29.49199v95.29492z" fill="#73fffc" stroke-width="2"/><path d="M277.17434,339.3726l18.60659,-13.13896c0,0 2.26208,-0.70825 2.52228,-2.78987c1.17702,-9.41615 6.3799,-77.52842 6.3799,-77.52842l1.32626,93.78573z" fill="#59a9e6" stroke-width="0"/></g><g data-paper-data="{&quot;index&quot;:null}" stroke="#000000" stroke-linecap="butt"><path d="M315.53301,337.89646v-95.29492h29.49199v95.29492z" fill="#73fffc" stroke-width="2"/><path d="M316.51572,336.95008l18.60659,-13.13896c0,0 2.26208,-0.70825 2.52228,-2.78987c1.17702,-9.41615 6.3799,-77.52842 6.3799,-77.52842l1.32626,93.78573z" fill="#59a9e6" stroke-width="0"/></g><g data-paper-data="{&quot;index&quot;:null}" stroke="#000000" stroke-linecap="butt"><path d="M312.20932,179.62398c18.77199,0 33.98969,24.87307 33.98969,55.55556c0,8.35076 6.37392,33.61764 4.35457,40.7234c-5.40019,19.00234 -24.68139,14.83216 -38.34426,14.83216c-10.32729,0 -32.7059,2.78608 -38.9397,-9.09579c-5.09742,-9.71589 4.95001,-32.65706 4.95001,-46.45977c0,-30.68249 15.2177,-55.55556 33.98969,-55.55556z" fill="#216aff" stroke-width="2"/><path d="M339.94856,204.59297c2.17098,1.37012 5.51953,20.51569 5.51953,29.96813c0,8.35075 6.37393,33.61764 4.35457,40.7234c-5.40019,19.00233 -24.68138,14.83215 -38.34425,14.83215c-10.32729,0 -32.7059,2.78607 -38.9397,-9.09579c-5.09743,-9.71588 56.94455,-16.46203 56.94455,-30.26474c0,-21.0232 4.52139,-62.9273 10.4653,-46.16315z" fill="#3236f4" stroke-width="0"/></g><g data-paper-data="{&quot;index&quot;:null}" stroke="#000000" stroke-linecap="butt"><g><path d="M379.9658,113.69978c2.87513,46.70237 -32.65386,86.89289 -79.35623,89.76803c-46.70237,2.87513 -86.89289,-32.65386 -89.76803,-79.35623c-2.87513,-46.70237 32.65386,-86.89289 79.35623,-89.76803c46.70237,-2.87513 86.89289,32.65385 89.76803,79.35622z" fill="#faddbf" stroke-width="2"/><path d="M379.68204,112.84609c2.87513,46.70237 -32.65386,86.89289 -79.35623,89.76803c-6.05145,0.37254 -18.57839,-0.82002 -20.99635,-1.48168c-1.51156,-0.41362 26.7059,-8.53649 46.12854,-23.06388c10.422,-7.79527 15.75016,-22.56147 18.3388,-27.47228c1.58845,-0.53753 4.77775,-20.41233 4.77698,-20.4727c-0.31742,-25.31827 -29.59164,-85.91788 -21.79596,-88.97369c0.59751,-0.23422 12.96049,5.82579 22.80327,13.58383c7.919,6.24173 13.70547,14.44488 14.242,14.77962c4.69803,2.93103 14.93392,28.3069 15.85895,43.33274z" fill="#ef8b89" stroke-width="0"/><path d="M211.33581,123.62208c-2.24528,-36.47111 40.63185,-50.35809 81.81614,-32.25413c43.02625,18.91365 84.49151,-12.01936 86.73678,24.45174c1.11659,18.1375 -7.69694,10.66056 -22.33342,-1.10165c-3.03141,-2.43611 -12.25541,11.07712 -15.74989,8.46286c-4.4542,-3.33223 -8.61372,-8.39593 -12.82425,-13.65513c-3.39043,-4.23487 -12.91337,13.33836 -16.55042,9.65189c-5.59698,-5.67302 -6.22731,-12.65828 -13.49341,-12.21096c-2.73222,0.1682 -9.34565,12.33863 -12.04025,12.83251c-2.08944,0.38297 -10.04332,-11.36262 -12.08283,-10.87402c-3.70369,0.88726 -11.55581,11.63969 -14.97067,12.97598c-1.3692,0.5358 -13.00413,-7.61491 -14.31056,-7.06092c-1.86853,0.79235 -8.21646,10.60507 -9.87907,11.4803c-2.64698,1.39343 -11.14968,-5.54504 -13.21958,-4.24363c-8.54204,5.37066 -7.67929,13.25707 -8.12535,15.17721c-0.43723,1.88214 -2.2589,-2.02969 -2.97318,-13.63206z" fill="#ef8b89" stroke-width="0"/></g><path d="M209.29413,115.42114c-2.24526,-36.4711 36.5282,-81.08534 82.36824,-83.90739c45.84006,-2.82205 88.37508,39.36084 90.62035,75.83194c1.11659,18.13749 -7.91615,10.67405 -22.91771,-1.06569c-3.10701,-2.43146 -12.5949,11.09803 -16.17685,8.48915c-4.56568,-3.32537 -8.82619,-8.38285 -13.1387,-13.63578c-3.47256,-4.22982 -13.27378,13.36054 -17.00032,9.67958c-5.73469,-5.66455 -6.37027,-12.64947 -13.82777,-12.19037c-2.80419,0.17263 -9.61083,12.35497 -12.37693,12.85324c-2.1449,0.38638 -10.28851,-11.34751 -12.38233,-10.85558c-3.80231,0.89335 -11.87786,11.65952 -15.38449,13.00146c-1.40598,0.53806 -13.33305,-7.59467 -14.67467,-7.03851c-1.91883,0.79543 -8.4492,10.61939 -10.15686,11.4974c-2.7187,1.39783 -11.4333,-5.52759 -13.55963,-4.2227c-17.37609,10.66343 -9.94929,25.00221 -11.39226,1.56324z" fill="#724e36" stroke-width="2"/><path d="M209.46999,114.24536c-2.24526,-36.4711 41.77944,-50.42872 84.01522,-32.3895c44.12475,18.84603 86.72808,-12.15705 88.97335,24.31405c1.11659,18.13748 -7.91615,10.67405 -22.91771,-1.06569c-3.10701,-2.43147 -12.5949,11.09802 -16.17685,8.48914c-4.5657,-3.32537 -8.8262,-8.38285 -13.13871,-13.63578c-3.47256,-4.22982 -13.27378,13.36054 -17.00032,9.67958c-5.73468,-5.66455 -6.37027,-12.64948 -13.82777,-12.19038c-2.80419,0.17264 -9.61083,12.35498 -12.37693,12.85325c-2.1449,0.38638 -10.28851,-11.34751 -12.38233,-10.85558c-3.80231,0.89335 -11.87786,11.65952 -15.38449,13.00146c-1.40598,0.53806 -13.33305,-7.59467 -14.67467,-7.03851c-1.91884,0.79543 -8.44921,10.61939 -10.15687,11.4974c-2.7187,1.39783 -11.4333,-5.52759 -13.55963,-4.2227c-17.3761,10.66342 -9.9493,25.0022 -11.39227,1.56323z" fill="#623728" stroke-width="0"/></g><g data-paper-data="{&quot;index&quot;:null}" stroke="#000000" stroke-linecap="butt"><path d="M287.28727,94.63573c16.53722,-1.01807 31.3659,21.26445 33.12075,49.76942c1.75485,28.50496 -11.00875,44.04916 -27.54598,45.06724c-16.53723,1.01809 -30.58579,-12.87547 -32.34064,-41.38044c-1.75485,-28.50498 10.22864,-52.43814 26.76587,-53.45622z" fill="#f0f0f0" stroke-width="2"/><path d="M305.98549,125.67357c-8.71655,-40.35718 11.98184,-10.56301 13.73669,17.94196c1.75485,28.50496 -11.00875,44.04916 -27.54598,45.06724c-16.53723,1.01808 19.83858,-35.09397 13.8093,-63.0092z" fill="#9a99ff" stroke-width="0"/></g><path d="M269.61099,126.8319c5.77312,-0.35542 11.24131,12.15866 12.21354,27.95098c0.97223,15.79232 -2.91969,28.88263 -8.69281,29.23804c-5.77312,0.35542 -11.24131,-12.15866 -12.21354,-27.95098c-0.97223,-15.79232 2.91969,-28.88263 8.69281,-29.23804z" data-paper-data="{&quot;index&quot;:null}" fill="#000000" stroke="none" stroke-width="0" stroke-linecap="butt"/><g data-paper-data="{&quot;index&quot;:null}" stroke="#000000" stroke-linecap="butt"><path d="M263.6757,117.80621c3.64284,-9.99186 8.68959,-22.12981 24.37017,-23.09516c15.68057,-0.96535 18.8953,11.13018 23.77361,19.9959c5.12704,9.3178 -6.03576,14.65533 -21.71634,15.62068c-15.68057,0.96534 -30.24988,-2.03692 -26.42744,-12.52141z" fill="#a100fe" stroke-width="2"/><path d="M264.57646,117.39583c3.4982,-9.98295 9.72338,0.22987 24.86928,-0.70256c15.1459,-0.93243 16.90149,-11.17042 21.63263,-2.29563c4.97237,9.32732 -5.8001,14.64083 -20.946,15.57326c-15.1459,0.93243 -29.2266,-2.0999 -25.55592,-12.57505z" fill="#99008e" stroke-width="0"/></g><g data-paper-data="{&quot;index&quot;:null}" stroke="#000000" stroke-linecap="butt"><path d="M256.7109,146.84511c1.75486,28.50497 -10.48343,44.01682 -27.02066,45.0349c-16.53723,1.01808 -31.11112,-12.84314 -32.86597,-41.3481c-1.75485,-28.50498 10.22865,-52.43814 26.76588,-53.45622c16.53722,-1.01807 31.3659,21.26445 33.12075,49.76942z" fill="#f0f0f0" stroke-width="2"/><path d="M197.40808,149.66413c-1.75485,-28.50499 15.13264,-60.61306 11.43217,-19.49144c-2.55963,28.444 37.97103,59.82145 21.4338,60.83953c-16.53723,1.01808 -31.11112,-12.84314 -32.86597,-41.3481z" fill="#9a99ff" stroke-width="0"/></g><path d="M205.85065,130.14381c5.77313,-0.35542 11.24131,12.15866 12.21354,27.95098c0.97223,15.79231 -2.91969,28.88263 -8.69281,29.23804c-5.77312,0.35542 -11.24131,-12.15866 -12.21354,-27.95098c-0.97222,-15.79231 2.9197,-28.88263 8.69282,-29.23804z" data-paper-data="{&quot;index&quot;:null}" fill="#000000" stroke="none" stroke-width="0" stroke-linecap="butt"/><g data-paper-data="{&quot;index&quot;:null}" stroke="#000000" stroke-linecap="butt"><path d="M249.86554,117.17497c5.07963,9.93646 -9.01141,14.70312 -24.69199,15.66847c-15.68057,0.96534 -27.41378,-2.96265 -23.46839,-12.83897c3.75398,-9.39716 5.46077,-21.79565 21.14135,-22.761c15.68057,-0.96534 22.17808,10.46191 27.01902,19.93149z" fill="#a100fe" stroke-width="2"/><path d="M248.92125,116.87819c4.92785,9.9458 -8.67457,14.68238 -23.82047,15.61481c-15.1459,0.93243 -26.48877,-3.0196 -22.69805,-12.88639c3.60681,-9.3881 6.60495,0.55724 21.75085,-0.37519c15.1459,-0.93243 20.07135,-11.83172 24.76766,-2.35324z" fill="#99008e" stroke-width="0"/></g><path d="M241.81248,338.35369c0,-11.6628 13.71248,-9.87692 31.62358,-9.87692c14.33063,0 27.65301,-10.77791 32.14847,-5.26144c1.12318,1.37828 1.08979,12.80695 1.08979,15.13837c0,11.6628 -14.51982,21.11737 -32.43092,21.11737c-17.9111,0 -32.43092,-9.45457 -32.43092,-21.11737z" data-paper-data="{&quot;index&quot;:null}" fill="#000082" stroke="#000000" stroke-width="2" stroke-linecap="butt"/><path d="M274.6931,329.04668c14.33063,0 25.38775,-8.75646 29.88321,-5.7726c1.12318,0.74551 1.0898,12.01046 1.0898,13.27153c0,6.30841 -12.25456,9.26589 -30.16566,9.26589c-17.91111,0 -31.80169,-3.88169 -31.80169,-10.1901c0,-6.30841 13.08324,-6.57472 30.99434,-6.57472z" data-paper-data="{&quot;index&quot;:null}" fill="#2e0048" stroke="#000000" stroke-width="0" stroke-linecap="butt"/><path d="M284.79942,337.70886c0,-11.6628 13.71248,-9.87692 31.62358,-9.87692c14.33063,0 27.65301,-10.77791 32.14847,-5.26144c1.12318,1.37828 1.08979,12.80695 1.08979,15.13837c0,11.6628 -14.51982,21.11737 -32.43092,21.11737c-17.9111,0 -32.43092,-9.45457 -32.43092,-21.11737z" data-paper-data="{&quot;index&quot;:null}" fill="#000082" stroke="#000000" stroke-width="2" stroke-linecap="butt"/><path d="M317.68004,328.40183c14.33063,0 25.38775,-8.75646 29.88321,-5.7726c1.12318,0.74551 1.0898,12.01046 1.0898,13.27153c0,6.30841 -12.25456,9.26589 -30.16566,9.26589c-17.91111,0 -31.80169,-3.88169 -31.80169,-10.1901c0,-6.30841 13.08324,-6.57472 30.99434,-6.57472z" data-paper-data="{&quot;index&quot;:null}" fill="#2e0048" stroke="#000000" stroke-width="0" stroke-linecap="butt"/><g data-paper-data="{&quot;index&quot;:null}"><path d="M337.55516,261.23387c-12.05184,4.0928 -24.42375,2.60397 -30.98979,-6.417c-1.21713,-1.67226 -2.56676,-3.49056 -3.31787,-5.70234c-4.80309,-14.14353 2.43985,-26.89905 16.7258,-31.75053c14.2859,-4.85148 30.39626,3.42381 33.63309,14.64869c4.13863,14.35205 -1.76534,24.36969 -16.05121,29.22117z" fill="#485e84" stroke="#000000" stroke-width="2" stroke-linecap="butt"/><path d="M333.72463,218.06159c0,0 2.94876,0.50911 6.18561,1.97076c3.47792,1.57051 7.33257,4.19607 9.54225,7.13334c1.73139,2.30154 3.32991,6.55025 3.35187,10.82121c0.01414,2.75077 0.13136,5.33321 -0.2747,7.41719c-0.41447,2.12724 -7.38128,13.63456 -7.38128,13.63456l-20.6442,3.56024c0,0 -8.05485,-2.15129 -11.09865,-3.90038c-2.66466,-1.53125 -5.21597,-4.35873 -6.72952,-6.85215c-1.4224,-2.34326 -1.88816,-4.40509 -1.88816,-4.40509c0,0 0.85531,0.72752 1.85816,0.38927c4.414,-1.48878 17.34079,-6.9766 28.20885,-22.8246c1.13301,-1.65217 -1.13025,-6.94449 -1.13025,-6.94449z" fill="#343545" stroke="none" stroke-width="0" stroke-linecap="butt"/><path d="M318.80092,218.14546c0,0 11.28355,6.38623 15.84158,11.05729c3.60065,3.68991 4.66907,12.64852 4.66907,12.64852" fill="none" stroke="#000000" stroke-width="1" stroke-linecap="round"/><path d="M321.15119,258.37004c0,0 -8.82087,-4.04291 -11.87473,-7.12513c-3.02501,-3.05304 -6.70007,-9.18686 -6.70007,-9.18686" fill="none" stroke="#000000" stroke-width="1" stroke-linecap="round"/><path d="M329.12301,216.36539c0,0 9.84433,6.13065 16.10809,11.99098c4.08204,3.81914 5.04138,13.03141 5.04138,13.03141" fill="none" stroke="#000000" stroke-width="1" stroke-linecap="round"/><path d="M309.38281,258.14932c0,0 -5.85467,-16.22386 9.61318,-27.40197c14.12107,-10.20484 30.50177,-4.62381 30.50177,-4.62381" fill="none" stroke="#000000" stroke-width="1" stroke-linecap="round"/><path d="M317.09752,262.23875c0,0 -3.65319,-14.12704 6.59409,-21.49894c12.48008,-8.97815 30.04441,-6.08737 30.04441,-6.08737" fill="none" stroke="#000000" stroke-width="1" stroke-linecap="round"/><path d="M310.34033,229.37605c-0.76851,0.92547 -1.98552,1.18252 -2.71814,0.57404c-0.73264,-0.60843 -0.01286,-1.51136 0.75571,-2.43684c0.76855,-0.92548 1.29481,-1.52302 2.02743,-0.91454c0.73263,0.6084 0.70358,1.85185 -0.06499,2.77733z" fill="#8fbbbe" stroke="none" stroke-width="0" stroke-linecap="butt"/><path d="M306.50037,235.54962c-0.56951,0.19341 -0.97781,-0.05697 -1.26793,-0.91128c-0.29016,-0.85429 0.10825,-1.76198 0.67779,-1.95541c0.56954,-0.19339 0.80594,0.11536 1.09606,0.96967c0.29013,0.8543 0.06361,1.70362 -0.50593,1.89705z" fill="#8fbbbe" stroke="none" stroke-width="0" stroke-linecap="butt"/><path d="M314.8097,224.09503c-0.81854,0.3795 -1.68725,0.24473 -1.94019,-0.30093c-0.25297,-0.5457 0.38056,-0.78 1.19912,-1.15953c0.81854,-0.37947 1.51212,-0.76033 1.76506,-0.21467c0.25298,0.54569 -0.20544,1.29563 -1.024,1.67516z" fill="#8fbbbe" stroke="none" stroke-width="0" stroke-linecap="butt"/><path d="M304.04201,247.50283c0,0 0.34023,-2.92425 1.457,-6.47791c1.51684,-4.82676 4.12652,-10.86126 6.10282,-12.73975c2.23472,-2.12419 5.21335,-4.89261 9.21009,-6.46825c7.04955,-2.77912 17.28081,-2.7468 17.28081,-2.7468" fill="none" stroke="#000000" stroke-width="0.5" stroke-linecap="round"/><path d="M325.12387,250.31162c0,0 -9.60354,-5.27599 -12.67473,-8.63864c-3.64526,-3.99115 -7.42736,-13.86403 -7.42736,-13.86403" fill="none" stroke="#000000" stroke-width="1" stroke-linecap="round"/><path d="M309.75973,223.13285c0,0 9.2492,4.778 13.93808,11.18591c2.67051,3.64955 6.22879,12.63658 6.22879,12.63658" fill="none" stroke="#000000" stroke-width="1" stroke-linecap="round"/></g><g data-paper-data="{&quot;index&quot;:null}" stroke="#000000" stroke-linecap="butt"><path d="M352.28122,238.96933c2.29343,-1.69106 -10.25982,-11.03637 -15.66406,-19.08105c-4.38217,-6.52323 -4.29389,-13.04931 2.35608,-10.57825c4.80192,6.51245 75.38619,21.78823 48.55492,41.57209c-26.83128,19.78387 -52.47504,30.54249 -57.27696,24.03003c-4.8019,-6.51245 -4.80124,-16.15896 22.03004,-35.94282z" fill="#216aff" stroke-width="2"/><path d="M324.95006,244.10324c11.51666,-8.49172 27.91384,-5.79928 36.62411,6.01377c8.71028,11.81304 6.43525,28.27334 -5.08142,36.76507c-11.51667,8.49174 -27.91385,5.79928 -36.62412,-6.01377c-8.71027,-11.81303 -6.43524,-28.27332 5.08143,-36.76505z" fill="#faddbf" stroke-width="2"/><path d="M356.94843,286.05526c-11.51666,8.49174 -27.91384,5.79928 -36.62411,-6.01377c-8.71027,-11.81305 26.08428,-2.38891 37.60095,-10.88064c11.51667,-8.49174 10.53983,8.40268 -0.97684,16.89441z" fill="#ef8b89" stroke-width="0"/></g><path d="M334.32076,159.97273c-0.17293,-0.54779 -0.06685,-1.06718 -0.06685,-1.06718l0.09918,-0.4039c0.14265,-1.75606 0.04863,-3.9411 1.62886,-5.25748c2.7765,-2.31291 9.1767,-0.53066 10.85384,2.32511c0.45664,0.77755 0.32907,4.30222 0.32278,5.23075c-0.36681,5.18148 0.09233,12.06046 -3.63666,16.3139c-2.54231,2.89988 -8.22157,3.3196 -10.52236,-0.38891c-1.24157,-2.00121 -0.551,-5.98961 0.49729,-7.92785c0.71005,-1.31284 2.9457,-2.83324 2.78897,-4.56282c-0.0849,-0.93688 -1.29681,-2.58217 -1.65671,-3.15556c0,0 -0.30594,-0.49398 -0.30835,-1.10606z" data-paper-data="{&quot;index&quot;:null}" fill="#000000" stroke="none" stroke-width="0.5" stroke-linecap="butt"/></g></g></svg>