<svg version="1.1" xmlns="http://www.w3.org/2000/svg" xmlns:xlink="http://www.w3.org/1999/xlink" width="336.07274" height="336.07274" viewBox="0,0,336.07274,336.07274"><g transform="translate(-151.96363,-11.96363)"><g data-paper-data="{&quot;isPaintingLayer&quot;:true}" fill-rule="nonzero" stroke-linejoin="miter" stroke-miterlimit="10" stroke-dasharray="" stroke-dashoffset="0" style="mix-blend-mode: normal"><path d="M203,297v-234h234v234z" data-paper-data="{&quot;index&quot;:null}" fill="none" stroke="none" stroke-width="0" stroke-linecap="butt"/><path d="M279.22,270.04529c-1.79897,0.96152 -4.27502,-5.73364 -4.27502,-5.73364c0,0 -7.07279,-17.53348 -10.45038,-25.80091c-0.87731,-3.67475 27.27662,-19.72281 32.00462,-18.60566c2.10759,0.498 7.72015,6.48488 7.3051,8.06931c-0.78999,3.01582 -10.59138,12.81392 -10.59138,12.81392l-1.87624,-2.86397l4.14873,7.94522c0,0 5.6841,8.83688 6.96497,13.16652c0.71038,2.40125 -23.23038,11.00918 -23.23038,11.00918z" data-paper-data="{&quot;index&quot;:null}" fill="#4b4b4b" stroke="#000000" stroke-width="3" stroke-linecap="round"/><g data-paper-data="{&quot;index&quot;:null}"><g><g data-paper-data="{&quot;origRot&quot;:0}" stroke="#000000" stroke-width="3" stroke-linecap="round"><path d="M265.9009,209.94676c0,0 9.1558,-29.14822 12.26867,-28.49132c5.61275,1.18445 17.30062,7.25307 17.30062,7.25307l10.43581,4.31231l-3.79052,-2.00731c0,0 11.74134,-12.42453 15.52369,-13.60023c1.98714,-0.61769 10.03878,5.58896 10.8326,8.05667c1.78079,5.53585 -16.53496,40.27758 -21.28287,39.52183c-10.78798,-3.36992 -33.66018,-10.40932 -33.66018,-10.40932c0,0 -8.71675,-2.42076 -7.62785,-4.63567z" data-paper-data="{&quot;origPos&quot;:null}" fill="#582700"/><path d="M287.59274,185.82738l-12.1336,27.69387" fill="none"/><path d="M291.56763,187.75759l-12.4063,27.58277" data-paper-data="{&quot;origPos&quot;:null}" fill="none"/></g><path d="M287.97198,185.9119l2.6702,1.10698l-12.59482,28.25268l-2.6702,-1.10698z" fill="#ffffff" stroke="none" stroke-width="0" stroke-linecap="butt"/><path d="M306.12737,224.35756l-26.84648,-8.43232l13.29624,-27.42493l12.61366,5.22438l0.925,-1.79115l-2.66177,-1.55885l14.11159,-12.22113l1.3887,0.66748l6.94346,3.3374l1.85299,4.80322l-1.96402,8.27848l-10.86851,21.60508l-7.51781,8.40375z" fill="#66c8ff" stroke="#000000" stroke-width="0.5" stroke-linecap="round"/></g><g fill="#fffc96" stroke="#000000" stroke-width="2" stroke-linecap="round"><path d="M296.30406,189.50296c0,0 1.69237,5.6336 6.39237,12.92786c4.76603,7.39675 9.82473,12.5484 9.82473,12.5484l2.13468,-0.56612c0,0 1.13638,3.47695 -1.08167,4.35151c-5.42873,2.14049 -25.12496,-30.0496 -20.04112,-32.40506c3.17752,-1.47221 5.51272,2.97245 5.51272,2.97245z"/><path d="M307.51493,187.89782c0,0 -3.13796,5.85263 -5.32398,15.00163c-2.18603,9.14898 -2.40887,15.39655 -2.40887,15.39655l1.57951,-0.37037c0,0 0.1628,4.06371 -3.06071,4.79651c-5.32269,1.21002 3.64683,-39.36652 9.31978,-39.34394c2.70251,0.01077 1.41308,4.34869 1.41308,4.34869z" data-paper-data="{&quot;index&quot;:null}"/></g></g><g data-paper-data="{&quot;index&quot;:null}" stroke="#000000" stroke-linecap="round"><path d="M326.6742,162.3832c0,0 16.76025,-1.93643 16.88467,4.68711c0.33776,17.97764 -28.99897,12.65459 -28.99897,12.65459z" data-paper-data="{&quot;origPos&quot;:null}" fill="#66c8ff" stroke-width="2"/><path d="M325.92663,163.90686c0,0 12.17777,-0.80964 12.90441,1.12194c0.22916,0.60922 -16.20126,2.84177 -16.20126,2.84177z" data-paper-data="{&quot;origPos&quot;:null}" fill="#0a0a0a" stroke-width="1"/></g><g data-paper-data="{&quot;index&quot;:null}"><path d="M321.67043,211.49535c0,0 0.72897,15.68668 -0.86315,16.07785c-4.77641,1.1735 -17.3618,1.20103 -28.09356,1.95063c-1.20557,0.0842 -1.15355,-14.85829 -1.15355,-14.85829l1.03356,-30.66125c0,0 0.84227,-13.57492 1.94739,-13.65212c7.14866,-0.4993 17.83662,-2.17526 22.52872,-0.8615c1.56404,0.43792 3.08642,14.72256 3.08642,14.72256z" data-paper-data="{&quot;origPos&quot;:null}" fill="#66c8ff" stroke="#000000" stroke-width="3.5" stroke-linecap="round"/><path d="M299.24245,199.14347c-1.33611,0.04209 -1.43451,-3.08136 -1.43451,-3.08136c-0.20408,-6.47827 -0.47377,-15.03883 -0.67785,-21.51711c0,0 -0.0984,-3.12345 1.23772,-3.16554c1.33611,-0.04209 1.4345,3.08136 1.4345,3.08136c0.20408,6.47827 0.40817,12.95653 0.61225,19.43481l0.0656,2.0823c0,0 0.0984,3.12345 -1.23771,3.16554z" fill="#ffffff" stroke="none" stroke-width="0.5" stroke-linecap="butt"/></g><path d="M320.97285,262.73096c0,0 -5.26253,-11.64845 -8.63082,-19.10405c-2.38653,-5.2825 -6.11516,-13.53572 -6.11516,-13.53572c0,0 -2.39916,-4.20389 -0.97812,-4.90832c4.19329,-2.0787 7.43701,-5.59089 12.11934,-6.10893c1.94434,-0.21513 4.63067,3.19884 4.63067,3.19884l19.83702,26.99501c0,0 2.08592,2.76161 3.22652,4.38915c1.21949,1.74011 1.78019,5.0051 -0.0959,6.0683c-6.88839,3.90375 -10.43515,7.56191 -15.36874,8.93385c-1.79739,0.49981 -3.73886,0.91624 -5.19651,-0.21615c-1.90407,-1.4792 -3.42832,-5.71201 -3.42832,-5.71201z" data-paper-data="{&quot;index&quot;:null}" fill="#4b4b4b" stroke="#000000" stroke-width="3" stroke-linecap="round"/><g data-paper-data="{&quot;index&quot;:null}" fill="none" stroke="#b9b9b9" stroke-width="3"><path d="M296.1803,179.20048c-0.90393,1.87961 -1.76905,0.83098 -2.81295,-0.31171c-0.81738,-0.89475 -2.0732,-1.7967 -0.96725,-3.82632c0.52161,-0.95723 1.54344,-0.63046 2.58732,0.51221c1.04386,1.14269 1.83292,2.29491 1.19287,3.62582z" stroke-linecap="butt"/><path d="M297.56087,181.01847l-2.20888,-2.36204" stroke-linecap="round"/><path d="M300.49986,181.53326c1.04386,1.1427 1.83292,2.29492 1.19287,3.62583c-0.90393,1.87962 -1.76907,0.83098 -2.81295,-0.31171c-0.81739,-0.89475 -2.07321,-1.7967 -0.96726,-3.82632c0.52162,-0.95723 1.54345,-0.63046 2.58733,0.51221z" stroke-linecap="butt"/><path d="M300.86443,184.61502l2.20887,2.36205" stroke-linecap="round"/><path d="M307.68847,186.39517c0.53601,2.21178 -0.54641,2.54753 -1.78375,3.02934c-0.96886,0.37728 -2.19257,1.25262 -2.69706,-1.28456c-0.23796,-1.19664 0.52966,-2.16351 1.767,-2.64532c1.23734,-0.48181 2.33426,-0.66559 2.7138,0.90054z" stroke-linecap="butt"/><path d="M309.49677,185.94979l-2.58694,1.05452" stroke-linecap="round"/><path d="M313.48319,181.9894c1.09476,1.76022 0.20646,2.68312 -0.78202,3.82949c-0.77401,0.89764 -1.64177,2.40326 -2.79761,0.32187c-0.54513,-0.98165 -0.11586,-2.31565 0.87262,-3.46201c0.98848,-1.14637 1.93179,-1.93575 2.707,-0.68935z" stroke-linecap="butt"/><path d="M312.9454,182.99602l2.05364,-2.44071" stroke-linecap="round"/><path d="M318.65173,175.91543c1.09478,1.76023 0.20646,2.68314 -0.78201,3.82949c-0.77401,0.89764 -1.64176,2.40325 -2.7976,0.32187c-0.54514,-0.98165 -0.11587,-2.31565 0.87261,-3.46201c0.98848,-1.14636 1.9318,-1.93573 2.70701,-0.68935z" stroke-linecap="butt"/><path d="M320.16756,174.48134l-2.05365,2.44072" stroke-linecap="round"/></g><path d="M282.16071,168.70333c0,0 -1.6612,-4.28075 -1.70391,-5.36548c-0.12816,-3.25415 0.27008,-17.43899 0.67412,-30.25813c0.06249,-1.98279 1.83295,-5.03494 1.83295,-5.03494c0,0 2.32937,-1.56505 3.63471,-1.53625c14.40184,0.31769 28.13992,-0.47294 33.43053,1.22004c1.76354,0.56432 4.96516,2.3901 4.96516,2.3901c0,0 0.5967,4.41389 0.69985,5.54844c0.03439,0.37818 0.0548,0.59108 0.06581,0.97062c0.32986,11.37216 -0.54569,24.49755 -1.07478,29.07536c-0.17636,1.52594 -2.13049,3.86366 -2.13049,3.86366c0,0 -1.52095,2.68697 -6.09759,3.37122c-5.00764,0.74869 -17.1143,0.04492 -29.59642,-0.718z" data-paper-data="{&quot;index&quot;:null}" fill="#582700" stroke="#000000" stroke-width="2.5" stroke-linecap="round"/><path d="M288.75216,151.43976c0.04934,3.50844 -0.23178,6.35748 -0.62788,6.3635c-0.39608,0.00601 -0.75715,-2.83323 -0.80649,-6.34169c-0.04934,-3.50844 0.23177,-6.3575 0.62787,-6.36352c0.39607,-0.00603 0.75717,2.83324 0.80651,6.3417z" data-paper-data="{&quot;index&quot;:null}" fill="none" stroke="#000000" stroke-width="2.5" stroke-linecap="butt"/><path d="M329.37644,131.15101c-0.74691,1.02217 -1.8031,0.30264 -1.8031,0.30264l-0.72262,-0.54253c-0.09157,-0.03304 -0.18311,-0.06559 -0.27462,-0.09764c-0.23829,0.30516 -0.69471,0.65606 -1.44773,0.39263c-0.69404,-0.24281 -0.84747,-0.73019 -0.85137,-1.10371c-2.69887,-0.73019 -5.41083,-1.11876 -8.26071,-1.44122c-7.98845,-0.63732 -16.01292,-0.6743 -24.02616,-0.87065c-2.62797,-0.06439 -8.53921,0.81319 -10.68599,-0.927c-1.04699,-0.8487 -0.5733,-2.76825 -0.64722,-3.82362c-0.21418,-3.05821 -0.50616,-6.22624 -0.43073,-9.29331c0.12632,-4.00825 -1.32264,-7.6261 -1.73264,-11.57059c-0.20555,-1.9775 -0.8395,-3.976 1.03459,-5.63431c0.52914,-0.46822 1.42564,-0.16534 2.14215,-0.18355c2.61863,-0.06655 5.14415,0.16902 7.72182,0.53059c8.16864,1.14581 16.25735,1.86678 24.3561,3.49637c3.26689,0.66121 6.57489,0.81207 9.90726,1.00378c1.9585,0.11268 3.76254,-0.38359 4.87228,1.81074c0.66273,1.31041 0.02959,5.30051 -0.06908,6.78069c-0.38049,5.70762 0.34789,12.7446 -1.06029,18.46056c0.12011,0.04165 0.24019,0.08406 0.36035,0.12725l1.30843,0.84112c0,0 1.05619,0.71955 0.3093,1.74172z" data-paper-data="{&quot;index&quot;:null}" fill="#000000" stroke="none" stroke-width="0.5" stroke-linecap="butt"/><path d="M284.95809,145.40051c-0.25757,-0.70698 0.47461,-0.95742 0.47461,-0.95742l0.58189,-0.18541c0.9609,-0.51797 1.9732,-0.8455 3.01823,-0.9811c0.07821,-0.02934 0.15678,-0.05841 0.23572,-0.08721c0.02099,-0.00851 0.04217,-0.01711 0.06354,-0.02581l0.03096,-0.01395l-0.0302,-0.09169l0.77482,-0.23979c0.07526,-0.02516 0.1558,-0.03947 0.23966,-0.04098c0.42861,-0.00775 0.78181,0.32172 0.78889,0.73587c0.00524,0.30668 -0.18075,0.57379 -0.45167,0.69493c-0.1438,0.12976 -0.30296,0.1842 -0.30296,0.1842c-0.1691,0.05776 -0.33607,0.11607 -0.50134,0.1754c-0.69322,0.29799 -1.26351,0.73171 -1.85259,0.75572c-0.12914,0.06046 -0.25826,0.12282 -0.38762,0.18736l-0.65655,0.51186c-0.13063,0.10385 -0.29703,0.16748 -0.47914,0.17077c-0.26543,0.0048 -0.50193,-0.11974 -0.64523,-0.31362c-0.20286,0.04077 -0.69853,0.07657 -0.90099,-0.47912z" data-paper-data="{&quot;index&quot;:null}" fill="#582700" stroke="none" stroke-width="0.5" stroke-linecap="butt"/><g data-paper-data="{&quot;index&quot;:null}"><g data-paper-data="{&quot;index&quot;:null}"><path d="M281.35362,179.48134c2.43663,0.64663 7.4988,-2.04302 6.87246,0.145c-0.41728,1.45765 -11.20056,20.3599 -13.07923,21.12364c-0.9413,0.38267 -2.3013,0.43071 -3.11467,0.21488c-1.19547,-0.31726 -2.00881,-1.18995 -2.42812,-2.34292c-0.43529,-1.19704 4.98372,-21.66309 5.30276,-22.77759c0.62636,-2.18801 4.0102,2.99034 6.44683,3.63698z" fill="#0091d4" stroke="#000000" stroke-width="1.5" stroke-linecap="butt"/><g stroke-linecap="butt"><path d="M283.40337,172.23758c4.4146,1.17154 7.33931,4.40604 6.53249,7.22444c-0.80682,2.81842 -5.03963,4.15346 -9.45425,2.98192c-4.41461,-1.17155 -7.3393,-4.40606 -6.53248,-7.22446c0.8068,-2.81841 5.03961,-4.15346 9.45422,-2.98191z" fill="#0091d4" stroke="#000000" stroke-width="1.5"/><path d="M285.51706,179.66026l4.03972,-0.59907c0,0 -1.22362,1.60608 -1.96191,2.04139c-1.56154,0.89038 -3.32624,0.82404 -3.32624,0.82404z" fill="#00aeff" stroke="none" stroke-width="0"/><path d="M281.77043,179.52326l1.69101,0.13044c0,0 -0.17148,1.01872 -0.29423,1.36025c-0.14375,0.39991 -0.62332,1.04765 -0.62332,1.04765l-1.94411,-0.46166z" fill="#00aeff" stroke="none" stroke-width="0"/></g><g><path d="M281.50424,178.45488c-6.09002,-1.61618 -8.47439,-5.97811 -6.78872,-11.86658c1.68568,-5.88843 8.3012,-9.26898 14.39129,-7.65281c6.09005,1.61617 9.20911,6.93068 7.52344,12.81915c-1.68567,5.88842 -9.03589,8.31641 -15.12598,6.70024z" fill="#00699a" stroke="#000000" stroke-width="1.5" stroke-linecap="butt"/><path d="M290.9367,160.30588c0,0 7.24324,4.49581 5.76841,9.64774c-0.83632,2.92151 -3.17417,5.55918 -5.64419,7.28841c-1.75977,1.23199 -4.08166,1.82592 -6.23435,1.25464c-4.42484,-1.17428 -5.45302,-3.49707 -3.97819,-8.649c0.73651,-2.5728 3.19902,-5.31935 5.69969,-6.92921c2.50675,-1.61378 4.3886,-2.6126 4.3886,-2.6126z" fill="#0091d4" stroke="none" stroke-width="0" stroke-linecap="butt"/><path d="M296.2721,171.72903c0,0 -4.16271,3.24231 -11.27632,1.61571c-7.17189,-1.63991 -9.37384,-6.08909 -9.37384,-6.08909" fill="none" stroke="#000000" stroke-width="0.8" stroke-linecap="round"/><path d="M293.66274,176.07033c0,0 -4.77505,1.16013 -9.42484,0.62696c-6.70096,-0.76837 -8.6338,-3.46879 -8.6338,-3.46879" fill="none" stroke="#000000" stroke-width="0.75" stroke-linecap="round"/><path d="M296.6102,166.91085c0,0 -4.18117,2.58631 -11.39751,1.3459c-6.94083,-1.19305 -8.40754,-3.77028 -8.40754,-3.77028" fill="none" stroke="#000000" stroke-width="0.8" stroke-linecap="round"/><path d="M277.25065,163.15751c0,0 4.84504,-1.19161 8.50893,-1.1541c4.82591,0.04938 9.46656,1.3311 9.46656,1.3311" fill="none" stroke="#000000" stroke-width="0.8" stroke-linecap="round"/><path d="M279.38689,177.06384c0,0 -1.52669,-3.92215 -0.00966,-10.19592c1.41566,-5.85449 5.11561,-7.64026 5.11561,-7.64026" fill="none" stroke="#000000" stroke-width="0.8" stroke-linecap="round"/><path d="M286.81438,159.52913c0,0 -1.04359,2.88732 -1.66782,6.17244c-0.54894,2.88898 -0.66013,6.10143 -1.02069,7.70932c-0.42827,1.90973 -1.54641,5.00359 -1.54641,5.00359" fill="none" stroke="#000000" stroke-width="0.8" stroke-linecap="round"/><path d="M289.74717,159.74114c0,0 1.84709,5.40109 0.80779,9.47404c-1.63122,6.39263 -5.15986,9.82066 -5.15986,9.82066" fill="none" stroke="#000000" stroke-width="0.8" stroke-linecap="round"/><path d="M293.12119,161.13994c0,0 1.53484,3.8808 1.07529,8.06459c-0.66179,6.02479 -3.0783,8.70738 -3.0783,8.70738" fill="none" stroke="#000000" stroke-width="0.8" stroke-linecap="round"/><path d="M295.12835,170.04121c-0.43425,-0.11524 -0.67385,-0.60141 -0.53517,-1.08586c0.13867,-0.48447 0.60314,-0.78377 1.03737,-0.66853c0.43427,0.11525 0.67386,0.6014 0.53518,1.08585c-0.13866,0.48447 -0.60312,0.78378 -1.03735,0.66854z" fill="#00aeff" stroke="none" stroke-width="0" stroke-linecap="butt"/><path d="M294.86083,165.97468c0.06933,-0.24222 0.32864,-0.38469 0.57916,-0.31821c0.25052,0.06649 0.39741,0.31675 0.32805,0.55897c-0.06934,0.24223 -0.32864,0.38469 -0.57916,0.31821c-0.25052,-0.06648 -0.39741,-0.31675 -0.32805,-0.55897z" fill="#00aeff" stroke="none" stroke-width="0" stroke-linecap="butt"/></g></g><path d="M283.89119,182.53079c0.93808,-0.25434 2.93547,0.69928 2.93547,0.69928l4.99535,2.04627c0,0 0.81452,1.07627 0.69887,1.81678c-0.34692,2.22151 -1.6521,6.29331 -2.76871,10.61447c-0.18561,0.71826 -1.29352,0.58445 -1.29352,0.58445c0,0 -1.68082,-0.48089 -2.75664,-0.7887c-1.63837,-0.46874 -4.1981,-1.2011 -4.1981,-1.2011c0,0 -1.34786,-0.2185 -0.97886,-1.52655c0,0 -0.15374,-1.98615 3.36609,-12.24492z" fill="#582700" stroke="#000000" stroke-width="3" stroke-linecap="round"/><path d="M270.87855,180.21709c1.70017,-0.5747 5.25602,1.2872 5.25602,1.2872l8.90752,3.95748c0,0 1.42058,2.17782 1.18057,3.71213c-0.72,4.60295 -3.2449,13.07518 -5.44094,22.05192c-0.36503,1.4921 -2.35433,1.27479 -2.35433,1.27479c0,0 -3.00607,-0.90316 -4.93013,-1.48122c-2.93011,-0.88035 -7.50811,-2.25574 -7.50811,-2.25574c0,0 -2.41779,-0.37928 -1.69724,-3.09825c0,0 -0.19162,-4.0906 6.58663,-25.4483z" fill="#582700" stroke="#000000" stroke-width="3" stroke-linecap="round"/></g><g data-paper-data="{&quot;index&quot;:null}" stroke="#000000" stroke-width="1.25" stroke-linecap="butt"><path d="M296.84477,162.42089l9.70874,-1.17725c0,0 2.3668,6.06717 -4.14927,6.91108c-6.89878,0.89347 -5.55947,-5.73383 -5.55947,-5.73383z" fill="#000000"/><path d="M303.01512,166.19316c1.59427,-0.65479 3.6611,-0.80377 3.55558,-0.57429c-0.54315,1.18116 -1.73782,2.2213 -4.16646,2.53584c-0.81035,0.10494 -1.50702,0.10613 -2.10557,0.02647c-0.28966,-0.03855 0.98028,-1.27496 2.71642,-1.98801z" fill="#ff8484"/><path d="M306.89371,163.34362c0.00387,0.02836 -8.68197,1.11364 -8.68197,1.11364l-0.19081,-2.179l8.53257,-1.03461c0,0 0.22298,1.23944 0.34023,2.09996z" fill="#ffffff"/></g><g data-paper-data="{&quot;index&quot;:null}"><path d="M315.88694,172.65517c0,0 25.67158,6.09078 33.99154,17.30211c2.50718,3.37849 0.48862,16.31703 0.06744,17.33047c-1.81889,4.37651 -28.89904,9.38413 -28.89904,9.38413c0,0 -12.06195,2.7951 -17.33526,2.1095c-6.65467,-17.74692 -3.20629,-28.37564 -3.20629,-28.37564c-0.36937,-2.23979 8.03154,-2.20703 8.03154,-2.20703l24.26792,-1.08756l-3.66403,0.22898c0,0 -21.63071,1.05611 -20.22382,-1.04623c1.29444,-1.93435 4.51803,-15.8131 6.97001,-13.63872z" fill="#582700" stroke="#000000" stroke-width="2.5" stroke-linecap="round"/><path d="M327.41914,188.11013c0.35245,1.71423 0.4945,3.51803 0.48147,5.21648c0.50745,4.72043 0.98367,9.89464 0.90961,14.66497c-0.02113,1.36084 -0.00388,2.70664 0.01785,4.06821c0.00732,0.45847 -0.1881,1.5512 -0.26118,1.92802c1.40226,-0.66057 3.35917,-0.83771 4.59264,-1.737c0.14506,-0.10575 0.22907,-0.39836 0.27541,-0.77599c-0.19824,-1.24219 -0.22455,-2.54331 -0.29976,-3.15253c-1.33267,-6.81996 -1.17616,-13.72405 -2.13065,-20.56216c-0.6133,-0.10967 -1.90402,0.16218 -2.01943,0.17532c-0.52297,0.05954 -1.0445,0.12064 -1.56595,0.17468zM325.86667,188.24159c-0.59201,0.03567 -1.18566,0.05126 -1.78298,0.03417c0,0 -0.37134,-0.011 -0.59232,-0.26601c-3.3912,0.29853 -6.84283,0.35068 -9.98873,0.25133c-1.41629,0.14452 -3.32491,0.48537 -4.06965,-1.04469c-0.53588,-1.10099 0.17107,-3.28618 0.55578,-4.35024c1.23416,-3.4135 2.55643,-6.82167 3.86602,-10.19245c1.85708,-1.40974 3.42258,0.02574 5.35148,0.85344c4.20273,1.80342 8.44997,3.48291 12.65166,5.29236c3.14991,0.88407 5.71363,2.54656 8.68046,3.75246c4.10901,1.67016 7.33035,3.1007 10.16665,6.55725c1.82046,5.59158 1.5795,14.71801 -2.85817,19.22436c-1.8781,3.4351 -6.29019,4.02468 -9.80134,5.04056c-0.58853,0.17029 -2.61001,1.11524 -3.13635,0.93834c-0.37392,-0.12567 -0.66157,-0.43301 -0.88456,-0.84852c-1.35782,0.98225 -3.50467,1.254 -5.00572,1.93967c-2.67528,-0.08406 -1.81227,-3.45218 -1.8171,-5.67612c-0.01172,-5.39747 -0.25227,-11.01091 -0.8517,-16.34716c0.01284,-1.67325 -0.11975,-3.47115 -0.48339,-5.15877zM334.92132,209.79791c-0.00085,0.02047 -0.00155,0.04131 -0.00214,0.06252c0.19954,1.38067 0.45136,3.06175 0.48803,3.05132c3.45762,-0.98364 9.29636,-2.11211 11.18295,-5.43879c4.09849,-4.16193 4.23435,-12.44479 2.7417,-17.64412c-2.64964,-3.09486 -5.63547,-4.33621 -9.38981,-5.87197c-2.94967,-1.20661 -5.48476,-2.84594 -8.61698,-3.7285c-4.23914,-1.80946 -8.51126,-3.51572 -12.74615,-5.32916c-0.58568,-0.25079 -3.24016,-1.71954 -3.43636,-1.38784c-1.11896,3.55529 -2.95764,6.91277 -3.93108,10.50996c-0.07995,0.29545 -0.61031,2.76878 -0.18141,2.84957c0.69737,0.13136 1.70339,-0.0355 2.41434,-0.10877c6.30074,0.1756 12.77053,-1.92836 18.94131,-1.34436c0.42014,0.63515 0.77,1.35409 0.86134,2.10271l0.23163,0.73585c0,0 0.03685,0.11883 0.03055,0.27431c1.11136,2.75223 0.62215,6.94619 0.54698,9.30955c-0.04422,4.01122 1.03433,7.89402 0.86511,11.95771z" fill="#000000" stroke="none" stroke-width="0.5" stroke-linecap="butt"/><path d="M327.886,193.27866c0.01303,-1.69846 -0.12511,-3.50322 -0.47754,-5.21745c0.52145,-0.05404 1.04893,-0.11601 1.5719,-0.17555c0.1154,-0.01314 1.41383,-0.28511 2.02713,-0.17544c0.95448,6.83811 0.81346,13.83884 2.14614,20.6588c0.07521,0.60921 0.09771,1.91158 0.29595,3.15377c-0.04634,0.37763 -0.13239,0.67078 -0.27745,0.77654c-1.23348,0.89928 -3.20928,1.07756 -4.61155,1.73813c0.07308,-0.37682 0.26858,-1.46954 0.26126,-1.92801c-0.02174,-1.36157 -0.04259,-2.7079 -0.02147,-4.06876c0.07405,-4.77033 -0.40692,-10.04159 -0.91438,-14.76203z" data-paper-data="{&quot;noHover&quot;:false,&quot;origItem&quot;:[&quot;Path&quot;,{&quot;applyMatrix&quot;:true,&quot;segments&quot;:[[[926.17844,407.1979],[3.2606,1.25965],[-0.27949,0.97418]],[[925.31465,410.11917],[0.29084,-0.97519],[-0.06418,0.21521]],[[924.29914,413.90358],[-0.01258,-1.20526],[13.15638,4.16543]],[[964.1057,425.02121],[-12.99513,-4.87922],[1.17537,0.35239]],[[970.21765,426.67451],[-2.3817,-0.804],[0.75941,0.04146]],[[971.83798,426.41666],[-0.25651,0.23985],[2.18115,-2.03947]],[[976.78433,418.26967],[-1.76682,2.44279],[-0.76669,0.00973]],[[972.89889,418.10481],[0.90089,0.17138],[-2.67549,-0.50896]],[[964.88923,416.67374],[2.68829,0.42712],[-9.42353,-1.49721]],[[936.29671,409.90591],[9.13228,2.58714],[-3.35077,-0.55846]]],&quot;closed&quot;:true}]}" fill="#ffffff" stroke="none" stroke-width="0.5" stroke-linecap="butt"/><path d="M334.6544,208.04654c-1.21723,-6.25647 -1.2107,-12.49011 -1.92815,-18.77389c0.06429,-0.00449 0.18228,-0.10487 0.25672,-0.12642c0.74355,-0.21524 0.47075,-0.84614 0.47075,-0.84614l-0.22805,-0.73411c-0.09133,-0.74863 -0.43216,-1.46453 -0.85229,-2.09969c-6.17077,-0.584 -12.58098,1.49181 -18.88173,1.31621c-0.71096,0.07327 -1.81251,0.20176 -2.50988,0.0704c-0.4289,-0.08078 0.10431,-2.56005 0.18426,-2.8555c0.97343,-3.59719 2.82762,-6.97154 3.94658,-10.52683c0.19619,-0.3317 2.85442,1.13471 3.44009,1.38551c4.23487,1.81344 8.5373,3.51296 12.77643,5.32242c3.13222,0.88255 5.69862,2.53524 8.6483,3.74185c3.75434,1.53577 6.75527,2.8026 9.40491,5.89746c1.49266,5.19933 1.34572,13.5256 -2.75276,17.68753c-1.88658,3.32667 -7.75143,4.47107 -11.20906,5.45471c-0.06063,0.01726 -0.73821,-4.688 -0.76612,-4.91349z" data-paper-data="{&quot;noHover&quot;:false,&quot;origItem&quot;:[&quot;Path&quot;,{&quot;applyMatrix&quot;:true,&quot;segments&quot;:[[[926.61254,417.73069],[12.14285,3.5238],[-0.03018,0.12086]],[[926.46822,418.11346],[0.06716,-0.13431],[-0.67082,1.34164]],[924.45576,418.78428],[[923.08279,418.0906],[0,0],[-1.44471,-0.43097]],[[919.22563,415.72869],[1.11205,1.01797],[0.89694,-11.9485]],[[928.15956,380.1298],[-1.74473,12.05571],[0.38029,-1.32836]],[[929.175,375.57071],[0.02742,1.37277],[-0.01686,-0.84429]],[[923.5003,374.93752],[0.60865,-0.05075],[-7.41054,0.61792]],[[901.48814,378.8123],[7.37628,-0.90935],[-0.71866,0.25961]],[[903.08234,385.83106],[-0.2998,-1.20115],[2.16779,8.68513]],[[909.35292,411.92731],[-2.15853,-8.69186],[0.69956,6.26621]],[[913.83986,429.61277],[-1.39861,-6.02998],[1.78014,7.67491]],[[922.29365,449.50563],[-5.21858,-6.1072],[9.74892,4.62723]],[[957.96755,450.34516],[-9.56021,6.37347],[7.18055,-2.44927]],[[972.39433,430.92276],[-3.08539,6.24485],[0.05411,-0.10951]],[[963.14745,427.86406],[0.43501,0.13058],[-11.92317,-4.46591]]],&quot;closed&quot;:true}]}" fill="#66c8ff" stroke="none" stroke-width="0.5" stroke-linecap="butt"/></g><path d="M151.96363,348.03637v-336.07274h336.07274v336.07274z" data-paper-data="{&quot;index&quot;:null}" fill="none" stroke="#000000" stroke-width="0" stroke-linecap="butt"/></g></g></svg>