<svg version="1.1" xmlns="http://www.w3.org/2000/svg" xmlns:xlink="http://www.w3.org/1999/xlink" width="202.22227" height="202.22227" viewBox="0,0,202.22227,202.22227"><g transform="translate(-136.94441,-75.55554)"><g data-paper-data="{&quot;isPaintingLayer&quot;:true}" fill-rule="nonzero" stroke-linejoin="miter" stroke-miterlimit="10" stroke-dasharray="" stroke-dashoffset="0" style="mix-blend-mode: normal"><g data-paper-data="{&quot;index&quot;:null}" stroke="#000000"><path d="M268.09399,190.57993l0.74961,18.14473c0,0 -1.32865,1.1532 -2.37089,1.25864c-1.04225,0.10545 -1.97585,-0.8189 -1.97585,-0.8189l-3.97997,-17.4716" fill="#414b67" stroke-width="2" stroke-linecap="round"/><path d="M261.65136,207.30609l-12.48085,-3.95949l-4.56778,-17.70996l2.53461,-4.4776l5.02716,0.96036l8.49333,8.95755l12.08808,-3.51204l1.89229,13.34117z" fill="#ef8b89" stroke-width="2" stroke-linecap="round"/><path d="M243.67841,185.95855l3.35926,-4.59991l5.64348,-0.30014l9.34015,8.8588l-5.40417,6.44468l-12.06312,1.21447z" data-paper-data="{&quot;index&quot;:null}" fill="#133c8f" stroke-width="2" stroke-linecap="butt"/><g stroke-linecap="butt"><path d="M255.58147,185.90601c-0.6666,-4.29812 2.21777,-8.31359 6.44242,-8.96881c4.22465,-0.65519 8.1898,2.29797 8.85641,6.59609c0.36587,2.35919 -0.33806,4.63319 -1.74623,6.31313c-1.15735,1.38071 -7.39633,2.70273 -8.60364,2.23849c-2.5332,-0.97407 -4.49752,-3.26804 -4.94897,-6.17888z" fill="#414b67" stroke-width="2"/><path d="M265.44986,178.89874c0.28051,-0.37382 1.09237,-0.23833 1.81333,0.30267c0.72095,0.54099 1.07802,1.28261 0.7975,1.65644c-0.28051,0.37382 -1.09237,0.23833 -1.81333,-0.30267c-0.72095,-0.54099 -1.07802,-1.28261 -0.7975,-1.65644z" fill="#7082b2" stroke-width="0"/></g></g><g data-paper-data="{&quot;index&quot;:null}" stroke="#000000"><g data-paper-data="{&quot;index&quot;:null}"><path d="M261.9306,227.21153l-18.27934,2.78562l-6.91467,-2.43265l-1.30601,-31.7082l8.34736,-2.32642l8.38324,2.69124z" data-paper-data="{&quot;index&quot;:null}" fill="#73fffc" stroke-width="2" stroke-linecap="butt"/><path d="M242.75322,228.56716l-3.36903,-23.96361l4.33099,24.46103z" fill="#59a9e6" stroke-width="0" stroke-linecap="round"/></g><g><path d="M237.34104,231.33836l-18.47649,3.05859l-6.70456,-3.86963l9.29277,-31.8861l8.60076,-1.68508l8.22007,3.07489z" data-paper-data="{&quot;index&quot;:null}" fill="#73fffc" stroke-width="2" stroke-linecap="butt"/><path d="M218.04856,232.80709l4.58857,-24.99486l-3.6628,25.65615z" fill="#59a9e6" stroke-width="0" stroke-linecap="round"/></g><path d="M245.41359,178.90509l7.50535,19.48504l-26.31997,2.85523l-4.89492,-2.85786l3.73142,-18.98109z" fill="#1a54c9" stroke-width="2" stroke-linecap="round"/></g><path d="M213.22087,155.73875c1.0869,-11.76347 6.11664,-21.65964 27.53234,-19.54322c31.03217,3.06676 21.50323,30.25781 21.50323,30.25781c0,0 3.29686,1.65591 1.82756,5.27733c-1.79971,4.43581 -14.11776,8.88469 -27.32225,7.66465c-14.08816,-1.30169 -24.62776,-11.8931 -23.54086,-23.65657z" data-paper-data="{&quot;index&quot;:null}" fill="#faddbf" stroke="#000000" stroke-width="2" stroke-linecap="butt"/><g data-paper-data="{&quot;index&quot;:null}" stroke="#000000"><g data-paper-data="{&quot;index&quot;:null}"><path d="M224.00176,213.81233l-14.75275,-0.57053l-7.29386,-7.39847l18.63125,-24.65649l5.46064,0.07965l3.41509,4.31668z" data-paper-data="{&quot;index&quot;:null}" fill="#faddbf" stroke-width="2" stroke-linecap="butt"/><path d="M209.0276,211.45105l10.32814,-20.5955l-9.71673,21.5074z" fill="#ef8b89" stroke-width="0" stroke-linecap="round"/></g><path d="M229.68795,196.06119l-12.10096,-0.74869l-5.64852,-6.23163l8.99181,-9.21217l5.65085,0.08242l3.53404,4.46704z" data-paper-data="{&quot;index&quot;:null}" fill="#1a54c9" stroke-width="2" stroke-linecap="butt"/></g><g data-paper-data="{&quot;index&quot;:null}" stroke="#000000" stroke-linecap="butt"><path d="M262.6924,157.49646c-0.31184,3.37507 -0.36834,4.42041 -0.47895,3.86796c-0.11285,-0.56361 0.57096,-2.69539 -1.87058,-4.33696c-0.59164,-0.39779 -3.1317,1.54841 -3.8907,1.11866c-0.47674,-0.26994 -2.23914,-3.18653 -2.77663,-3.43415c-0.37581,-0.17313 -3.83958,2.0984 -4.23384,1.93001c-0.9833,-0.41997 -3.17569,-3.62388 -4.24719,-3.91556c-0.59003,-0.16062 -3.01311,3.1915 -3.61864,3.06122c-0.78092,-0.16802 -2.59963,-3.77413 -3.39441,-3.84756c-2.11367,-0.19529 -2.3598,1.83489 -4.0417,3.43826c-1.09294,1.0419 -3.71133,-4.16482 -4.7373,-2.96088c-1.27414,1.49515 -2.53165,2.93377 -3.85958,3.86514c-1.04182,0.73069 -3.60936,-3.2901 -4.51462,-2.60719c-4.37082,3.29726 -7.17502,5.63777 -6.68753,0.36166c0.98025,-10.60927 12.95743,-1.46363 25.66622,-6.59147c12.16473,-4.90832 23.54122,-0.56992 22.56097,10.03935z" data-paper-data="{&quot;index&quot;:null}" fill="#ef8b89" stroke-width="0"/><path d="M264.23195,155.20508c-0.62998,6.81828 1.66265,2.70568 -3.30625,-0.55739c-0.60805,-0.39931 -3.20976,1.5412 -3.98962,1.10952c-0.48985,-0.27115 -2.30531,-3.19264 -2.85744,-3.44161c-0.38604,-0.17408 -3.93479,2.0896 -4.33975,1.92022c-1.00999,-0.42245 -3.26737,-3.63235 -4.36756,-3.92668c-0.60584,-0.16209 -3.0841,3.18493 -3.70576,3.05316c-0.80172,-0.16993 -2.67662,-3.78123 -3.49235,-3.8566c-2.16934,-0.20044 -2.417,1.8296 -4.13896,3.42927c-1.11897,1.0395 -3.81831,-4.17471 -4.86817,-2.97297c-1.3038,1.49241 -2.59069,2.92832 -3.95105,3.85669c-1.06726,0.72833 -3.71156,-3.29955 -4.63882,-2.61867c-4.47702,3.28744 -7.17626,5.38192 -6.68877,0.10581c0.98025,-10.60927 13.7538,-22.52321 27.08844,-21.29114c13.33464,1.23207 24.23634,14.58112 23.25609,25.19039z" data-paper-data="{&quot;index&quot;:null}" fill="#724e36" stroke-width="2"/><path d="M264.19124,154.86083c-0.62998,6.81828 1.66265,2.70568 -3.30625,-0.55739c-0.60805,-0.39931 -3.20976,1.5412 -3.98962,1.10952c-0.48984,-0.27114 -2.30531,-3.19264 -2.85744,-3.44161c-0.38603,-0.17407 -3.93479,2.0896 -4.33975,1.92022c-1.01,-0.42245 -3.26737,-3.63235 -4.36756,-3.92668c-0.60584,-0.16209 -3.08411,3.18493 -3.70577,3.05316c-0.80172,-0.16994 -2.67662,-3.78124 -3.49235,-3.85661c-2.16935,-0.20044 -2.417,1.8296 -4.13896,3.42927c-1.11897,1.0395 -3.81831,-4.17471 -4.86817,-2.97297c-1.30381,1.4924 -2.5907,2.92831 -3.95106,3.85668c-1.06726,0.72833 -3.71156,-3.29955 -4.63882,-2.61867c-4.47702,3.28744 -7.17626,5.38192 -6.68877,0.10581c0.98025,-10.60927 13.11977,-1.1929 26.14811,-6.29121c12.4706,-4.88006 25.17667,-0.41881 24.19642,10.19046z" data-paper-data="{&quot;index&quot;:null}" fill="#623728" stroke-width="0"/></g><g data-paper-data="{&quot;index&quot;:null}" fill="#000000" stroke="none" stroke-width="0.5" stroke-linecap="butt"><path d="M251.637,172.42144c-1.85585,-0.77588 -1.13212,-2.94907 -0.60583,-6.80301c0.52629,-3.85393 1.05081,-9.05273 2.7089,-8.59738c1.65809,0.45535 1.54258,4.07036 1.04574,7.7086c-0.49683,3.63824 -1.70804,8.29414 -3.1488,7.6918z"/><path d="M233.2173,166.88466c1.28559,-0.04247 2.03312,1.21967 1.84676,1.23703c0,0 -2.96644,2.69193 0.71825,5.34074c5.45905,3.92434 11.26221,2.33343 11.32037,2.60792c0.10366,0.48914 -0.38548,0.59279 -0.38548,0.59279c-3.68342,0.77251 -8.03192,-1.28203 -10.9906,-3.06383c-5.93611,-3.57489 -1.39328,-5.51797 -1.39328,-5.51797c0,0 -2.40159,-1.1542 -1.116,-1.19667z"/><path d="M241.84008,172.26945c-2.83755,-0.86659 -1.84748,-3.01517 -1.23451,-6.8611c0.61297,-3.84592 1.16,-9.04265 3.68397,-8.50729c2.52397,0.53535 2.51975,4.16064 1.94108,7.79132c-0.57866,3.63068 -2.18764,8.24983 -4.39052,7.57707z"/></g><path d="M136.94444,277.77778v-202.22222h202.22222v202.22222z" data-paper-data="{&quot;index&quot;:null}" fill="none" stroke="#000000" stroke-width="0.00005" stroke-linecap="butt"/></g></g></svg>