<svg version="1.1" xmlns="http://www.w3.org/2000/svg" xmlns:xlink="http://www.w3.org/1999/xlink" width="202.22227" height="202.22228" viewBox="0,0,202.22227,202.22228"><g transform="translate(-136.94442,-75.55554)"><g data-paper-data="{&quot;isPaintingLayer&quot;:true}" fill-rule="nonzero" stroke-linejoin="miter" stroke-miterlimit="10" stroke-dasharray="" stroke-dashoffset="0" style="mix-blend-mode: normal"><path d="M261.81,176.31011l9.85321,15.25474c0,0 -0.5597,1.66791 -1.40428,2.28764c-0.84459,0.61973 -2.11811,0.29697 -2.11811,0.29697l-12.29521,-13.03553" data-paper-data="{&quot;index&quot;:null}" fill="#414b67" stroke="#000000" stroke-width="2" stroke-linecap="round"/><path d="M264.74593,193.99206l-12.76381,2.92138l-12.92267,-12.94265l-0.08805,-5.14445l4.81917,-1.72343l11.86399,3.40882l8.63405,-9.1602l8.40035,10.53574z" data-paper-data="{&quot;index&quot;:null}" fill="#ef8b89" stroke="#000000" stroke-width="2" stroke-linecap="round"/><path d="M238.4263,184.71722l0.56048,-5.66831l4.71063,-3.12232l12.54359,2.89402l-1.38647,8.29558l-9.7784,7.16775z" data-paper-data="{&quot;index&quot;:null}" fill="#133c8f" stroke="#000000" stroke-width="2" stroke-linecap="butt"/><g data-paper-data="{&quot;index&quot;:null}" stroke="#000000"><g data-paper-data="{&quot;index&quot;:null}"><path d="M259.89218,226.79786l-16.68127,2.946l-6.31015,-2.57271l-1.19183,-33.53371l7.6176,-2.46036l7.65034,2.84618z" data-paper-data="{&quot;index&quot;:null}" fill="#73fffc" stroke-width="2" stroke-linecap="butt"/><path d="M242.3914,228.23153l-3.0745,-25.34325l3.95236,25.86931z" fill="#59a9e6" stroke-width="0" stroke-linecap="round"/></g><g><path d="M237.45239,231.16229l-16.86119,3.23468l-6.11841,-4.09242l8.48035,-33.72185l7.84884,-1.7821l7.50143,3.25192z" data-paper-data="{&quot;index&quot;:null}" fill="#73fffc" stroke-width="2" stroke-linecap="butt"/><path d="M219.84655,232.71557l4.18741,-26.43388l-3.34259,27.13324z" fill="#59a9e6" stroke-width="0" stroke-linecap="round"/></g><path d="M244.81918,175.71029l6.8492,20.60685l-24.01895,3.01961l-4.46698,-3.02239l3.4052,-20.07387z" fill="#1a54c9" stroke-width="2" stroke-linecap="round"/></g><g data-paper-data="{&quot;index&quot;:null}" stroke="#000000"><g stroke-width="2"><path d="M196.02303,194.81862l3.19194,-14.32144l12.82297,4.84342l9.984,-8.99977l5.53924,-0.61383l2.36965,5.0769l-6.46892,18.8359l-13.88652,3.23397z" fill="#faddbf" stroke-linecap="round"/><path d="M228.96554,193.76958l-12.99182,-2.34712l-5.31703,-7.45702l10.89487,-8.82036l6.10081,0.8071l3.25444,5.28z" data-paper-data="{&quot;index&quot;:null}" fill="#1a54c9" stroke-linecap="butt"/></g><path d="M197.29416,194.48097l25.89735,4.19996l-22.04139,-1.84698z" fill="#ef8b89" stroke-width="0" stroke-linecap="round"/></g><path d="M207.38389,156.1234c-1.48837,-11.71945 1.27708,-22.47048 22.64247,-25.04568c30.95927,-3.73157 27.54978,24.87838 27.54978,24.87838c0,0 3.57737,0.90204 2.92785,4.75582c-0.79559,4.72042 -11.85669,11.73319 -25.01176,13.40389c-14.03543,1.7825 -26.61995,-6.27298 -28.10832,-17.99243z" data-paper-data="{&quot;index&quot;:null}" fill="#faddbf" stroke="#000000" stroke-width="2" stroke-linecap="butt"/><g data-paper-data="{&quot;index&quot;:null}" stroke="#000000" stroke-linecap="butt"><path d="M256.06049,147.11759c0.42703,3.36244 0.59843,4.39518 0.37072,3.87983c-0.2323,-0.52575 -0.02675,-2.75506 -2.76604,-3.82848c-0.66379,-0.26012 -2.72169,2.19033 -3.55579,1.93528c-0.52391,-0.1602 -2.87653,-2.62551 -3.4549,-2.75076c-0.40439,-0.08757 -3.29354,2.88064 -3.71492,2.80171c-1.05095,-0.19688 -3.88559,-2.84949 -4.99484,-2.90202c-0.61083,-0.02892 -2.24982,3.76867 -2.8692,3.77272c-0.79877,0.00522 -3.35578,-3.12102 -4.14759,-3.02046c-2.10575,0.26742 -1.90604,2.3027 -3.20048,4.23247c-0.84115,1.25401 -4.52574,-3.2615 -5.2664,-1.86381c-0.91981,1.73575 -1.83565,3.41272 -2.93017,4.60974c-0.8587,0.93912 -4.23662,-2.42966 -4.97236,-1.56679c-3.55233,4.16615 -5.78264,7.05878 -6.4502,1.80242c-1.34234,-10.56957 12.33226,-4.23705 23.62767,-11.99732c10.81186,-7.42807 22.85821,-5.65834 24.20054,4.91122z" data-paper-data="{&quot;index&quot;:null}" fill="#ef8b89" stroke-width="0"/><path d="M257.06692,144.54697c0.86269,6.79276 2.20952,2.28104 -3.34847,0.17241c-0.68014,-0.25803 -2.79945,2.20022 -3.65434,1.94781c-0.53697,-0.15853 -2.94244,-2.61714 -3.53541,-2.74053c-0.4146,-0.08627 -3.38841,2.89269 -3.82046,2.81511c-1.07754,-0.19351 -3.97694,-2.83789 -5.11477,-2.88679c-0.62657,-0.02693 -2.32055,3.77764 -2.95599,3.78373c-0.81948,0.00785 -3.43248,-3.11127 -4.24516,-3.00806c-2.16122,0.27447 -1.96303,2.30994 -3.29738,4.24478c-0.8671,1.25731 -4.63233,-3.24796 -5.39679,-1.84725c-0.94937,1.7395 -1.89447,3.42018 -3.0213,4.62131c-0.88404,0.94233 -4.33844,-2.41674 -5.0961,-1.55108c-3.65814,4.17961 -5.8393,6.80929 -6.50686,1.55293c-1.34235,-10.56955 8.54557,-24.96868 21.8303,-26.65584c13.28474,-1.68716 26.82041,8.98195 28.16274,19.55151z" data-paper-data="{&quot;index&quot;:null}" fill="#724e36" stroke-width="2"/><path d="M256.95257,144.21974c0.86269,6.79276 2.20952,2.28104 -3.34847,0.17241c-0.68014,-0.25803 -2.79945,2.20022 -3.65434,1.94781c-0.53696,-0.15853 -2.94244,-2.61714 -3.53541,-2.74053c-0.41459,-0.08628 -3.38841,2.89269 -3.82046,2.81511c-1.07755,-0.19351 -3.97694,-2.83789 -5.11477,-2.88679c-0.62657,-0.02693 -2.32056,3.77764 -2.956,3.78373c-0.81949,0.00784 -3.43249,-3.11128 -4.24517,-3.00807c-2.16123,0.27447 -1.96303,2.30994 -3.29738,4.24478c-0.8671,1.25731 -4.63233,-3.24796 -5.39679,-1.84725c-0.94938,1.7395 -1.89448,3.42018 -3.02131,4.62131c-0.88404,0.94233 -4.33844,-2.41674 -5.0961,-1.55108c-3.65814,4.17961 -5.8393,6.80929 -6.50686,1.55293c-1.34233,-10.56956 12.54942,-4.00792 24.16318,-11.80863c11.11657,-7.46677 24.48753,-5.86527 25.82986,4.70429z" data-paper-data="{&quot;index&quot;:null}" fill="#623728" stroke-width="0"/></g><path d="M248.50251,164.08383c-1.97991,-0.35524 -1.74436,-2.63364 -2.06582,-6.51003c-0.32147,-3.87639 -0.93612,-9.06531 0.78125,-8.98013c1.71737,0.08518 2.38808,3.63929 2.69154,7.29874c0.30347,3.65946 0.1301,8.4672 -1.40696,8.19142z" data-paper-data="{&quot;index&quot;:null}" fill="#000000" stroke="none" stroke-width="0.5" stroke-linecap="butt"/><path d="M238.90549,166.05868c-2.95791,-0.23102 -2.45703,-2.54311 -2.69213,-6.43048c-0.23511,-3.88736 -0.82734,-9.07912 1.75267,-9.1035c2.58001,-0.02436 3.36158,3.51567 3.58352,7.18547c0.22195,3.6698 -0.34771,8.52787 -2.64403,8.34852z" data-paper-data="{&quot;index&quot;:null}" fill="#000000" stroke="none" stroke-width="0.5" stroke-linecap="butt"/><g data-paper-data="{&quot;index&quot;:null}" stroke="none" stroke-width="0.5" stroke-linecap="butt"><path d="M236.9394,169.59733c0,0 -2.74931,5.44113 -5.89261,5.03182c-3.99028,-0.51959 -4.82198,-9.28844 -4.82198,-9.28844c0,0 -1.88481,0.95573 -2.06521,-0.02789c-0.1804,-0.98362 4.25428,-1.35027 4.25428,-1.35027c0,0 -0.95841,1.42083 0.09371,2.1971c6.45929,4.76583 15.86296,0.57978 16.20259,1.52033c0.33966,0.94057 -7.77077,1.91737 -7.77077,1.91737zM227.21495,165.93936c0,0 0.70126,7.03728 3.61635,8.01121c2.91508,0.97394 4.66287,-3.56336 5.06268,-4.42024c-1.15969,-0.0917 -3.6459,-0.40551 -5.19986,-1.04846c-1.55396,-0.64295 -3.47918,-2.54252 -3.47918,-2.54252z" fill="#000000"/><path d="M230.50181,173.8172c-2.91509,-0.97394 -3.3212,-7.91419 -3.3212,-7.91419c0,0 1.94055,1.88965 3.49451,2.5326c1.55394,0.64294 4.10797,0.99223 5.26767,1.08391c-0.39981,0.85689 -2.06669,5.32539 -4.98178,4.35146z" data-paper-data="{&quot;noHover&quot;:false,&quot;origItem&quot;:[&quot;Path&quot;,{&quot;applyMatrix&quot;:true,&quot;segments&quot;:[[489.75881,336.88645],[[483.06683,342.31726],[3.03881,-1.4416],[-3.03881,1.4416]],[[472.78663,344.93799],[2.30712,-0.30058],[0.88535,1.67108]],[[485.72188,358.51254],[-5.72409,2.24054],[5.72409,-2.24054]]],&quot;closed&quot;:true,&quot;fillColor&quot;:[0,0,0,1]}]}" fill="#852368"/></g><g data-paper-data="{&quot;index&quot;:null}" stroke="#000000" stroke-linecap="butt"><path d="M248.6564,178.63191c-2.75542,-3.36539 -2.30759,-8.28911 1.00027,-10.99745c3.30787,-2.70831 8.22314,-2.17566 10.97857,1.18973c1.51241,1.84723 2.05975,4.16392 1.6988,6.32606c-0.29666,1.77703 -5.00188,6.08208 -6.27778,6.29468c-2.67711,0.44608 -5.53379,-0.53384 -7.39986,-2.813z" fill="#414b67" stroke-width="2"/><path d="M255.13188,168.60891c-0.89576,-0.10034 -1.57976,-0.55821 -1.52774,-1.02267c0.05204,-0.46446 0.82035,-0.75967 1.71612,-0.65934c0.89575,0.10033 1.57975,0.5582 1.52773,1.02266c-0.05202,0.46446 -0.82033,0.75968 -1.7161,0.65935z" fill="#7082b2" stroke-width="0"/></g><path d="M136.94445,277.77779v-202.22223h202.22222v202.22222z" data-paper-data="{&quot;index&quot;:null}" fill="none" stroke="#000000" stroke-width="0.00005" stroke-linecap="butt"/></g></g></svg>