<svg version="1.1" xmlns="http://www.w3.org/2000/svg" xmlns:xlink="http://www.w3.org/1999/xlink" width="36.29838" height="36.04442" viewBox="0,0,36.29838,36.04442"><g transform="translate(-301.85081,-161.85081)"><g data-paper-data="{&quot;isPaintingLayer&quot;:true}" fill-rule="nonzero" stroke-linejoin="miter" stroke-miterlimit="10" stroke-dasharray="" stroke-dashoffset="0" style="mix-blend-mode: normal"><path d="M317.07604,196.89524c-9.33098,-1.61486 -15.58613,-10.48821 -13.97127,-19.8192c1.61486,-9.33097 10.48821,-15.58613 19.8192,-13.97127c9.33098,1.61486 15.58613,10.48821 13.97127,19.8192c-1.61486,9.33097 -10.48821,15.58613 -19.8192,13.97127z" data-paper-data="{&quot;index&quot;:null}" fill="#001aff" stroke="#000000" stroke-width="2" stroke-linecap="butt"/><path d="M336.28397,175.94979l-5.44363,4.7467l-5.53271,-5.01079l-5.67865,3.63938l-6.4515,-5.45423l-4.70541,4.59001l-3.97528,-5.38123" data-paper-data="{&quot;index&quot;:null}" fill="none" stroke="#000000" stroke-width="2" stroke-linecap="round"/><path d="M322.51058,181.15436l-0.50946,9.25174" data-paper-data="{&quot;index&quot;:null}" fill="none" stroke="#000000" stroke-width="2.5" stroke-linecap="round"/><path d="M316.60822,190.90368l0.42001,-9.08527" data-paper-data="{&quot;index&quot;:null}" fill="none" stroke="#000000" stroke-width="2.5" stroke-linecap="round"/><path d="M327.54361,188.85841c-0.01961,-0.03033 -0.03434,-0.06218 -0.04519,-0.09527c-0.10389,-0.22239 -0.10617,-0.48908 0.01703,-0.72301c0.13895,-0.26383 0.40255,-0.41961 0.68028,-0.43307c0.45938,-0.29245 1.2062,0.80359 1.32975,1.06372c0.49916,1.05094 1.04825,2.98654 -0.31266,3.76451c-0.91959,0.52569 -3.63385,-0.71824 -3.06615,-1.79615c0.68887,-1.308 1.53756,0.48828 2.23476,0.19967c0.65187,-0.26984 -0.70614,-1.77662 -0.8378,-1.9804z" data-paper-data="{&quot;index&quot;:null}" fill="#000000" stroke="none" stroke-width="0.5" stroke-linecap="butt"/></g></g></svg>