<svg version="1.1" xmlns="http://www.w3.org/2000/svg" xmlns:xlink="http://www.w3.org/1999/xlink" width="186.21763" height="322.83516" viewBox="0,0,186.21763,322.83516"><g transform="translate(-214.60043,-37.20215)"><g data-paper-data="{&quot;isPaintingLayer&quot;:true}" fill-rule="nonzero" stroke-linejoin="miter" stroke-miterlimit="10" stroke-dasharray="" stroke-dashoffset="0" style="mix-blend-mode: normal"><g data-paper-data="{&quot;index&quot;:null}" stroke="#000000" stroke-linecap="butt"><path d="M282.51934,234.72666c20.063,26.6232 17.30845,35.86807 10.8465,40.73773c-6.46195,4.86967 -27.96467,-12.76507 -48.02767,-39.38828c-20.06299,-26.62321 51.94403,-21.10263 58.40598,-25.97229c7.07874,-0.46879 5.29938,5.81067 -0.76339,10.81055c-7.47682,6.16603 -22.17633,11.53665 -20.46143,13.8123z" fill="#216aff" stroke-width="2"/><path d="M307.24567,247.45298c8.61155,11.42735 6.09049,27.85174 -5.63095,36.68491c-11.72144,8.83317 -28.20459,6.73017 -36.81614,-4.69718c-8.61155,-11.42735 -6.09048,-27.85175 5.63096,-36.68492c11.72144,-8.83317 28.20458,-6.73016 36.81613,4.69719z" fill="#faddbf" stroke-width="2"/><path d="M268.48721,262.04848c8.61155,11.42735 44.6484,12.33367 32.92696,21.16684c-11.72144,8.83317 -28.20459,6.73017 -36.81613,-4.69719c-8.61155,-11.42735 -4.72238,-27.89702 3.88917,-16.46965z" fill="#ef8b89" stroke-width="0"/></g><g data-paper-data="{&quot;index&quot;:null}" stroke="#000000" stroke-linecap="butt"><path d="M275.50062,339.88524v-95.29492h29.49199v95.29492z" fill="#73fffc" stroke-width="2"/><path d="M276.48333,338.93883l18.60659,-13.13896c0,0 2.26208,-0.70825 2.52228,-2.78987c1.17702,-9.41615 6.3799,-77.52842 6.3799,-77.52842l1.32626,93.78573z" fill="#59a9e6" stroke-width="0"/></g><g data-paper-data="{&quot;index&quot;:null}" stroke="#000000" stroke-linecap="butt"><path d="M314.842,337.46269v-95.29492h29.49199v95.29492z" fill="#73fffc" stroke-width="2"/><path d="M315.82471,336.51632l18.60659,-13.13896c0,0 2.26208,-0.70825 2.52228,-2.78987c1.17702,-9.41615 6.3799,-77.52842 6.3799,-77.52842l1.32626,93.78573z" fill="#59a9e6" stroke-width="0"/></g><g data-paper-data="{&quot;index&quot;:null}" stroke="#000000" stroke-linecap="butt"><path d="M311.51831,179.19022c18.77199,0 33.98969,24.87307 33.98969,55.55556c0,8.35076 6.37392,33.61764 4.35457,40.7234c-5.40019,19.00234 -24.68139,14.83216 -38.34426,14.83216c-10.32729,0 -32.7059,2.78608 -38.9397,-9.09579c-5.09742,-9.71589 4.95001,-32.65706 4.95001,-46.45977c0,-30.68249 15.2177,-55.55556 33.98969,-55.55556z" fill="#216aff" stroke-width="2"/><path d="M339.25755,204.1592c2.17098,1.37012 5.51953,20.51569 5.51953,29.96813c0,8.35075 6.37393,33.61764 4.35457,40.7234c-5.40019,19.00233 -24.68138,14.83215 -38.34425,14.83215c-10.32729,0 -32.7059,2.78607 -38.9397,-9.09579c-5.09743,-9.71588 56.94455,-16.46203 56.94455,-30.26474c0,-21.0232 4.52139,-62.9273 10.4653,-46.16315z" fill="#3236f4" stroke-width="0"/></g><g data-paper-data="{&quot;index&quot;:null}" stroke="#000000" stroke-linecap="butt"><g><path d="M311.61177,209.92665c-46.49443,5.25789 -88.44797,-28.17095 -93.70585,-74.66539c-5.25789,-46.49443 28.17095,-88.44797 74.66539,-93.70585c46.49443,-5.25789 88.44797,28.17095 93.70585,74.66539c5.25789,46.49443 -28.17095,88.44797 -74.66539,93.70585z" fill="#faddbf" stroke-width="2"/><path d="M385.95014,115.38276c5.25789,46.49443 -28.17095,88.44797 -74.66539,93.70585c-6.02452,0.68128 -18.59602,0.1304 -21.04463,-0.40683c-1.53072,-0.33584 26.23478,-9.89001 44.8897,-25.39092c10.01006,-8.31764 14.5767,-23.33682 16.91101,-28.3735c1.55891,-0.61801 3.72843,-20.62981 3.72458,-20.69007c-1.61076,-25.26897 -33.94339,-84.2935 -26.31404,-87.74367c0.58475,-0.26445 13.24125,5.15589 23.46761,12.40083c8.22761,5.8289 14.4257,13.72565 14.97863,14.03254c4.84166,2.68714 16.36088,27.5068 18.05253,42.46574z" fill="#ef8b89" stroke-width="0"/><path d="M218.37453,134.74718c-4.10602,-36.30872 38.00546,-52.36858 80.06106,-36.39279c43.93653,16.69029 83.76694,-16.32118 87.87295,19.98754c2.04197,18.05673 -7.14214,11.03994 -22.36054,0.04102c-3.15194,-2.27803 -11.67336,11.6889 -15.29687,9.25662c-4.61866,-3.10027 -9.0315,-7.94481 -13.50527,-12.98198c-3.60241,-4.05609 -12.21492,13.9808 -16.0356,10.485c-5.87956,-5.37961 -6.86603,-12.32353 -14.09977,-11.50549c-2.72004,0.30761 -8.70293,12.80009 -11.36877,13.43101c-2.06714,0.48923 -10.61082,-10.83455 -12.6227,-10.24238c-3.65352,1.07537 -10.94594,12.21498 -14.28805,13.72403c-1.34003,0.60506 -13.37626,-6.94046 -14.65268,-6.32043c-1.82559,0.88678 -7.6638,11.01106 -9.27952,11.97012c-2.57232,1.52686 -11.41846,-4.96806 -13.41916,-3.56257c-8.25644,5.80014 -6.99182,13.63216 -7.33918,15.57258c-0.34048,1.90203 -2.35967,-1.91161 -3.6659,-13.46232z" fill="#ef8b89" stroke-width="0"/></g><path d="M215.91645,126.66128c-4.10602,-36.30872 32.337,-82.84599 77.97295,-88.00679c45.63597,-5.16079 90.27096,34.79345 94.37697,71.10217c2.04197,18.05674 -7.36037,11.06463 -22.94222,0.10681c-3.22721,-2.26952 -12.01134,11.72712 -15.72193,9.30469c-4.72965,-3.08771 -9.24302,-7.92087 -13.81832,-12.94657c-3.68418,-4.04684 -12.57372,14.02137 -16.48349,10.53565c-6.01666,-5.3641 -7.00835,-12.30743 -14.43264,-11.46785c-2.79169,0.31571 -8.96692,12.82993 -11.70395,13.46891c-2.12236,0.49547 -10.85493,-10.80695 -12.92088,-10.20866c-3.7517,1.08646 -11.26654,12.25122 -14.70001,13.77061c-1.37666,0.6092 -13.70374,-6.90343 -15.01518,-6.27944c-1.87569,0.89245 -7.89551,11.03726 -9.55607,12.00139c-2.64373,1.53493 -11.70083,-4.93612 -13.7577,-3.52428c-16.80848,11.53742 -8.65866,25.47795 -11.29749,2.14334z" fill="#724e36" stroke-width="2"/><path d="M216.03198,125.47802c-4.10601,-36.30872 39.14794,-52.49779 82.25034,-36.64037c45.03014,16.56663 85.99355,-16.57298 90.09956,19.73574c2.04197,18.05674 -7.36037,11.06463 -22.94222,0.10681c-3.22721,-2.26952 -12.01134,11.72712 -15.72193,9.30469c-4.72966,-3.08771 -9.24303,-7.92087 -13.81833,-12.94657c-3.68418,-4.04684 -12.57372,14.02137 -16.48349,10.53565c-6.01666,-5.3641 -7.00835,-12.30743 -14.43264,-11.46785c-2.79169,0.31571 -8.96692,12.82993 -11.70395,13.46891c-2.12236,0.49547 -10.85493,-10.80695 -12.92088,-10.20866c-3.7517,1.08646 -11.26654,12.25122 -14.70001,13.77061c-1.37666,0.6092 -13.70374,-6.90343 -15.01518,-6.27944c-1.8757,0.89245 -7.89552,11.03726 -9.55608,12.00139c-2.64373,1.53493 -11.70083,-4.93612 -13.7577,-3.52428c-16.80848,11.53742 -8.65866,25.47795 -11.29749,2.14334z" fill="#623728" stroke-width="0"/></g><g data-paper-data="{&quot;index&quot;:null}" stroke="#000000" stroke-linecap="butt"><path d="M285.94922,150.61485c-3.20916,-28.37807 7.53569,-52.89231 23.99929,-54.75412c16.4636,-1.8618 32.41153,19.63386 35.6207,48.01192c3.20917,28.37805 -8.74345,44.55415 -25.20705,46.41596c-16.4636,1.86181 -31.20376,-11.29571 -34.41293,-39.67377z" fill="#f0f0f0" stroke-width="2"/><path d="M344.84393,143.1191c3.20917,28.37805 -8.74345,44.55415 -25.20705,46.41596c-16.4636,1.86181 18.01935,-36.06186 10.57148,-63.63253c-10.76742,-39.85905 11.4264,-11.16149 14.63557,17.21657z" fill="#9a99ff" stroke-width="0"/></g><path d="M297.93157,128.71427c5.74742,-0.64995 11.84794,11.56836 13.62588,27.29036c1.77793,15.722 -1.43998,28.9941 -7.1874,29.64405c-5.74742,0.64995 -11.84794,-11.56836 -13.62588,-27.29036c-1.77793,-15.722 1.43998,-28.9941 7.1874,-29.64405z" data-paper-data="{&quot;index&quot;:null}" fill="#000000" stroke="none" stroke-width="0" stroke-linecap="butt"/><g data-paper-data="{&quot;index&quot;:null}" stroke="#000000" stroke-linecap="butt"><path d="M287.55182,120.20749c3.1275,-10.16496 7.54741,-22.54495 23.15817,-24.31031c15.61076,-1.76535 19.43937,10.15008 24.76434,18.75494c5.59648,9.04362 -5.27899,14.94461 -20.88975,16.70997c-15.61076,1.76536 -30.31446,-0.48848 -27.03277,-11.1546z" fill="#a100fe" stroke-width="2"/><path d="M288.43044,119.75163c2.9835,-10.14867 9.72241,-0.26731 24.80089,-1.97247c15.07847,-1.70516 16.3086,-12.01948 21.48706,-3.39805c5.44249,9.06103 -5.04436,14.91808 -20.12284,16.62324c-15.07848,1.70516 -29.29572,-0.60368 -26.16513,-11.25272z" fill="#99008e" stroke-width="0"/></g><g data-paper-data="{&quot;index&quot;:null}" stroke="#000000" stroke-linecap="butt"><path d="M246.45932,101.55242c16.4636,-1.8618 32.41153,19.63386 35.6207,48.01192c3.20917,28.37806 -8.22047,44.49501 -24.68407,46.35682c-16.46361,1.86181 -31.72676,-11.23657 -34.93593,-39.61462c-3.20916,-28.37807 7.53569,-52.89231 23.99929,-54.75412z" fill="#f0f0f0" stroke-width="2"/><path d="M222.99872,155.41006c-3.20916,-28.37806 12.01555,-61.30713 10.42122,-20.05015c-1.10281,28.53764 40.9783,57.80296 24.5147,59.66477c-16.46361,1.86181 -31.72676,-11.23657 -34.93593,-39.61462z" fill="#9a99ff" stroke-width="0"/></g><path d="M248.1207,163.00593c1.77793,15.722 -1.43998,28.9941 -7.1874,29.64405c-5.74742,0.64995 -11.84794,-11.56836 -13.62588,-27.29036c-1.77793,-15.722 1.43998,-28.9941 7.1874,-29.64405c5.74742,-0.64995 11.84794,11.56836 13.62588,27.29036z" data-paper-data="{&quot;index&quot;:null}" fill="#000000" stroke="none" stroke-width="0" stroke-linecap="butt"/><g data-paper-data="{&quot;index&quot;:null}" stroke="#000000" stroke-linecap="butt"><path d="M273.72743,120.28275c5.58074,9.66391 -8.24831,15.1444 -23.85907,16.90976c-15.61076,1.76537 -27.52937,-1.55793 -24.09381,-11.62295c3.26889,-9.5767 4.33989,-22.04622 19.95065,-23.81158c15.61076,-1.76536 22.68371,9.31494 28.00222,18.52477z" fill="#a100fe" stroke-width="2"/><path d="M272.76922,120.03462c5.42963,9.68099 -7.91296,15.10648 -22.99144,16.81164c-15.07847,1.70517 -26.60848,-1.66207 -23.3269,-11.70968c3.12237,-9.56014 6.62478,0.21899 21.70326,-1.48617c15.07848,-1.70516 19.44054,-12.84191 24.61506,-3.61579z" fill="#99008e" stroke-width="0"/></g><path d="M241.12147,337.91993c0,-11.6628 13.71248,-9.87692 31.62358,-9.87692c14.33063,0 27.65301,-10.77791 32.14847,-5.26144c1.12318,1.37828 1.08979,12.80695 1.08979,15.13837c0,11.6628 -14.51982,21.11737 -32.43092,21.11737c-17.9111,0 -32.43092,-9.45457 -32.43092,-21.11737z" data-paper-data="{&quot;index&quot;:null}" fill="#000082" stroke="#000000" stroke-width="2" stroke-linecap="butt"/><path d="M274.00209,328.61292c14.33063,0 25.38775,-8.75646 29.88321,-5.7726c1.12318,0.74551 1.0898,12.01046 1.0898,13.27153c0,6.30841 -12.25456,9.26589 -30.16566,9.26589c-17.91111,0 -31.80169,-3.88169 -31.80169,-10.1901c0,-6.30841 13.08324,-6.57472 30.99434,-6.57472z" data-paper-data="{&quot;index&quot;:null}" fill="#2e0048" stroke="#000000" stroke-width="0" stroke-linecap="butt"/><path d="M284.10841,337.27509c0,-11.6628 13.71248,-9.87692 31.62358,-9.87692c14.33063,0 27.65301,-10.77791 32.14847,-5.26144c1.12318,1.37828 1.08979,12.80695 1.08979,15.13837c0,11.6628 -14.51982,21.11737 -32.43092,21.11737c-17.9111,0 -32.43092,-9.45457 -32.43092,-21.11737z" data-paper-data="{&quot;index&quot;:null}" fill="#000082" stroke="#000000" stroke-width="2" stroke-linecap="butt"/><path d="M316.98903,327.96807c14.33063,0 25.38775,-8.75646 29.88321,-5.7726c1.12318,0.74551 1.0898,12.01046 1.0898,13.27153c0,6.30841 -12.25456,9.26589 -30.16566,9.26589c-17.91111,0 -31.80169,-3.88169 -31.80169,-10.1901c0,-6.30841 13.08324,-6.57472 30.99434,-6.57472z" data-paper-data="{&quot;index&quot;:null}" fill="#2e0048" stroke="#000000" stroke-width="0" stroke-linecap="butt"/><g data-paper-data="{&quot;index&quot;:null}"><path d="M353.10869,256.2688c-9.98484,7.89311 -22.14079,10.63419 -31.34909,4.33357c-1.70695,-1.16798 -3.58765,-2.42921 -5.0362,-4.26165c-9.26297,-11.71779 -6.71081,-26.16252 5.12497,-35.51878c11.83572,-9.35625 29.78727,-6.95507 36.59687,2.53727c8.70674,12.13681 6.49917,23.55332 -5.33653,32.90956z" fill="#485e84" stroke="#000000" stroke-width="2" stroke-linecap="butt"/><path d="M335.03906,216.87328c0,0 2.94895,-0.50798 6.48841,-0.21493c3.80307,0.31488 8.31448,1.49768 11.38035,3.52516c2.40226,1.58868 5.33154,5.05656 6.78277,9.07346c0.93468,2.58715 1.91011,4.98115 2.22553,7.08077c0.32199,2.14318 -2.38807,15.31932 -2.38807,15.31932l-18.25926,10.26928c0,0 -8.31013,0.67091 -11.76397,0.04236c-3.02363,-0.55029 -6.37463,-2.3599 -8.63591,-4.20233c-2.1251,-1.73147 -3.25456,-3.5182 -3.25456,-3.5182c0,0 1.04959,0.39902 1.88121,-0.2556c3.66037,-2.88123 14.00235,-12.38184 18.93442,-30.95463c0.51418,-1.93623 -3.39099,-6.16478 -3.39099,-6.16478z" fill="#343545" stroke="none" stroke-width="0" stroke-linecap="butt"/><path d="M321.00547,221.95094c0,0 12.77082,2.23797 18.63012,5.11252c4.62859,2.27074 8.63594,10.35402 8.63594,10.35402" fill="none" stroke="#000000" stroke-width="1" stroke-linecap="round"/><path d="M336.69302,259.06483c0,0 -9.6655,-0.85486 -13.57534,-2.73617c-3.87288,-1.86347 -9.39016,-6.41204 -9.39016,-6.41204" fill="none" stroke="#000000" stroke-width="1" stroke-linecap="round"/><path d="M330.13508,216.81633c0,0 11.32913,2.47922 19.19398,5.90302c5.12546,2.23128 9.115,10.5901 9.115,10.5901" fill="none" stroke="#000000" stroke-width="1" stroke-linecap="round"/><path d="M325.53049,262.79862c0,0 -10.9506,-13.32572 -0.12028,-29.03905c9.88733,-14.34518 27.19118,-14.57317 27.19118,-14.57317" fill="none" stroke="#000000" stroke-width="1" stroke-linecap="round"/><path d="M334.16934,264.06782c0,0 -8.17396,-12.0874 -0.98779,-22.46576c8.75199,-12.6397 26.27002,-15.79899 26.27002,-15.79899" fill="none" stroke="#000000" stroke-width="1" stroke-linecap="round"/><path d="M316.79522,235.36666c-0.41413,1.12942 -1.47475,1.77925 -2.36886,1.45131c-0.8941,-0.32789 -0.51833,-1.41976 -0.10415,-2.54921c0.41417,-1.12944 0.70989,-1.86873 1.604,-1.54079c0.89409,0.32787 1.2832,1.50922 0.86902,2.63867z" fill="#8fbbbe" stroke="none" stroke-width="0" stroke-linecap="butt"/><path d="M315.24488,242.46981c-0.47183,0.373 -0.94041,0.27384 -1.49992,-0.43395c-0.55954,-0.70776 -0.48817,-1.69646 -0.01632,-2.06949c0.47186,-0.37299 0.79802,-0.16126 1.35753,0.54653c0.55951,0.70778 0.63055,1.5839 0.1587,1.95693z" fill="#8fbbbe" stroke="none" stroke-width="0" stroke-linecap="butt"/><path d="M319.23756,228.89371c-0.64414,0.63174 -1.50782,0.79573 -1.92891,0.36631c-0.42113,-0.42945 0.09733,-0.86243 0.74148,-1.4942c0.64415,-0.63172 1.17011,-1.22289 1.5912,-0.79347c0.42115,0.42943 0.24039,1.28961 -0.40376,1.92138z" fill="#8fbbbe" stroke="none" stroke-width="0" stroke-linecap="butt"/><path d="M316.93221,254.556c0,0 -0.65887,-2.8693 -0.7969,-6.59175c-0.18749,-5.056 0.25022,-11.61604 1.48317,-14.04798c1.39415,-2.75 3.27345,-6.35618 6.51157,-9.1795c5.71149,-4.97982 15.36259,-8.37628 15.36259,-8.37628" fill="none" stroke="#000000" stroke-width="0.5" stroke-linecap="round"/><path d="M337.73711,250.14126c0,0 -10.81599,-1.75458 -14.83609,-3.89431c-4.77151,-2.53965 -11.64203,-10.57544 -11.64203,-10.57544" fill="none" stroke="#000000" stroke-width="1" stroke-linecap="round"/><path d="M314.15703,229.67854c0,0 10.31531,1.40402 16.87965,5.87128c3.73865,2.54428 10.10157,9.82036 10.10157,9.82036" fill="none" stroke="#000000" stroke-width="1" stroke-linecap="round"/></g><g data-paper-data="{&quot;index&quot;:null}" stroke="#000000" stroke-linecap="butt"><path d="M359.52674,230.35788c1.59454,-2.36154 -13.36378,-6.96239 -21.15039,-12.73226c-6.31398,-4.67865 -8.41668,-10.85734 -1.32316,-10.75639c6.70587,4.52789 78.32956,-4.72062 59.67466,22.90751c-18.65491,27.62813 -39.21387,46.35457 -45.91974,41.82667c-6.70585,-4.5279 -9.93628,-13.61742 8.71863,-41.24554z" fill="#216aff" stroke-width="2"/><path d="M335.49385,244.34973c8.00716,-11.85869 24.35902,-14.81392 36.5229,-6.6007c12.16388,8.21322 15.53357,24.48473 7.52641,36.34342c-8.00716,11.85869 -24.35902,14.81391 -36.5229,6.60069c-12.16387,-8.21323 -15.53355,-24.48473 -7.52639,-36.34342z" fill="#faddbf" stroke-width="2"/><path d="M374.9573,256.91501c8.00716,-11.85869 12.74546,4.38704 4.7383,16.24573c-8.00716,11.8587 -24.35902,14.81392 -36.5229,6.6007c-12.16388,-8.21323 23.77743,-10.98774 31.78459,-22.84643z" fill="#ef8b89" stroke-width="0"/></g><path d="M346.19908,174.01948c0.77896,-0.97761 1.75656,-0.19864 1.75656,-0.19864l0.64628,0.59697c1.23702,1.90505 2.33526,4.20574 4.62211,5.0802c1.34375,0.51381 3.63694,0.13826 3.70594,-1.56641c0.1544,-3.81436 -4.25512,-7.34322 -6.30874,-10.09437c0,0 -0.74717,-1.0021 0.25494,-1.74928c1.00211,-0.74718 1.74928,0.25493 1.74928,0.25493c2.43029,3.26341 7.2075,7.19753 6.79894,11.75556c-0.30469,3.39921 -4.01385,4.83258 -7.01433,3.76335c-2.89415,-1.03134 -4.34658,-3.68636 -5.90442,-6.08175l-0.10792,-0.00398c0,0 -0.97762,-0.77896 -0.19864,-1.75657z" data-paper-data="{&quot;index&quot;:null}" fill="#000000" stroke="none" stroke-width="0.5" stroke-linecap="butt"/></g></g></svg>