<svg version="1.1" xmlns="http://www.w3.org/2000/svg" xmlns:xlink="http://www.w3.org/1999/xlink" width="259.85779" height="293.65273" viewBox="0,0,259.85779,293.65273"><g transform="translate(-207.71477,-50.95972)"><g data-paper-data="{&quot;isPaintingLayer&quot;:true}" fill-rule="nonzero" stroke-linejoin="miter" stroke-miterlimit="10" stroke-dasharray="" stroke-dashoffset="0" style="mix-blend-mode: normal"><g data-paper-data="{&quot;index&quot;:null}" stroke="#000000" stroke-linecap="butt"><path d="M209.11649,204.50813l38.19064,-29.17665l30.95967,40.52451l-38.19064,29.17665z" fill="#ffcaa0" stroke-width="2"/><g><path d="M246.86178,175.04549l52.66071,-40.23141l31.36319,41.05271l-52.66071,40.23141z" fill="#ff0008" stroke-width="2"/><path d="M277.60471,215.63632c0,0 -10.29316,-13.47318 -15.39879,-20.15617c-5.0516,-6.61226 -15.07461,-19.73183 -15.07461,-19.73183l27.58213,-21.07203c0,0 -0.50886,23.08378 4.42787,29.54568c5.2067,6.81528 26.04552,10.34232 26.04552,10.34232l-27.58212,21.07202z" fill="#8d005e" stroke-width="0"/></g><path d="M209.06903,203.54937l35.32301,20.72681l33.82729,-9.37895l-38.19064,29.17665z" fill="#ff6e5b" stroke-width="0"/></g><path d="M281.47256,252.48571v-99.54791h113.80147v99.54791z" data-paper-data="{&quot;index&quot;:null}" fill="#ff0008" stroke="#000000" stroke-width="2" stroke-linecap="butt"/><g data-paper-data="{&quot;index&quot;:null}" fill="#000000" stroke="#000000" stroke-linecap="butt"><path d="M307.20196,252.07526v-97.69506h61.17899v97.69506z" stroke-width="2"/><path d="M306.41459,251.25647l42.75189,-44.32366l18.42709,-53.3714v97.69506z" stroke-width="0"/></g><g data-paper-data="{&quot;index&quot;:null}" stroke="#000000" stroke-linecap="butt"><path d="M282.11032,343.16808v-90.27109h61.17899v90.27109z" fill="#273750" stroke-width="2"/><path d="M281.32299,342.41151l42.75189,-40.95544l18.42709,-49.31565v90.27109z" fill="#1f1e2e" stroke-width="0"/></g><g data-paper-data="{&quot;index&quot;:null}" stroke="#000000" stroke-linecap="butt"><path d="M334.71627,343.61245v-90.27109h61.17899v90.27109z" fill="#273750" stroke-width="2"/><path d="M333.9289,342.85585l42.75189,-40.95544l18.42709,-49.31565v90.27109z" fill="#1f1e2e" stroke-width="0"/></g><g data-paper-data="{&quot;index&quot;:null}" stroke="#000000" stroke-linecap="butt"><path d="M420.78761,258.32915l-21.81723,-42.82301l45.43997,-23.15051l21.81723,42.82301z" fill="#ffcaa0" stroke-width="2"/><g><path d="M398.60882,215.89267l-30.08357,-59.04825l46.03224,-23.45225l30.08357,59.04825z" fill="#ff0008" stroke-width="2"/><path d="M444.07497,192.96731c0,0 -15.10742,7.69685 -22.60103,11.51465c-7.41431,3.7774 -22.12523,11.27224 -22.12523,11.27224l-15.75689,-30.92773c0,0 22.61421,4.66013 29.85992,0.96863c7.64195,-3.89338 14.86634,-23.75552 14.86634,-23.75552l15.75689,30.92772z" fill="#8d005e" stroke-width="0"/></g><path d="M419.836,258.20308l26.75261,-31.0099l-3.12987,-34.96362l21.81723,42.82301z" fill="#ff6e5b" stroke-width="0"/></g><g data-paper-data="{&quot;index&quot;:null}" stroke="#000000" stroke-linecap="butt"><path d="M251.05381,74.26671c14.53609,-1.9001 29.70379,22.44688 33.878,54.38049c4.17421,31.93361 -4.22574,59.36124 -18.76183,61.26133c-14.53609,1.9001 -29.70379,-22.44688 -33.878,-54.38049c-4.17421,-31.93361 4.22574,-59.36124 18.76183,-61.26133z" fill="#01930e" stroke-width="2"/><path d="M274.5267,119.87336c-4.17421,-31.93361 5.77615,-23.53819 9.95036,8.39542c4.17421,31.93361 -4.22575,59.36124 -18.76183,61.26133c-14.53608,1.90009 12.98568,-37.72315 8.81147,-69.65676z" fill="#31525b" stroke-width="0"/></g><g data-paper-data="{&quot;index&quot;:null}" stroke="#000000" stroke-linecap="butt"><path d="M408.02021,110.97503c1.43907,11.00918 3.33399,36.49184 -1.37981,46.34734c-10.63759,22.24083 -39.03672,24.96343 -69.35417,28.92639c-28.67388,3.74812 -60.55805,11.09295 -76.90762,-5.78642c-8.59734,-8.87593 -9.18293,-36.42077 -10.79805,-48.7768c-0.45186,-3.45684 -4.45913,-25.94 -4.25683,-29.33368c1.89591,-31.80466 35.45728,-40.77241 74.99081,-45.94005c42.08638,-5.50133 76.00162,-7.42746 83.00042,26.19837c0.27697,1.3307 4.52685,27.00001 4.70526,28.36486z" fill="#ffcaa0" stroke-width="2"/><path d="M409.83941,110.7475c1.43907,11.00918 3.33399,36.49184 -1.37981,46.34734c-10.63759,22.24083 -39.03672,24.96343 -69.35417,28.92639c-28.67387,3.74812 -61.21937,11.06968 -77.56894,-5.80969c-3.45655,-3.56856 65.19296,12.93078 100.09903,-8.96005c44.54189,-27.93378 39.52226,-107.97343 43.49865,-88.86884c0.27697,1.3307 4.52685,27.00001 4.70526,28.36486z" fill="#ff6e5b" stroke-width="0"/></g><g data-paper-data="{&quot;index&quot;:null}" stroke="#000000" stroke-linecap="butt"><path d="M381.74683,55.09155c14.53609,-1.9001 29.70379,22.44688 33.878,54.38049c4.17421,31.93361 -4.22574,59.36124 -18.76183,61.26133c-14.53609,1.9001 -29.70379,-22.44688 -33.878,-54.38049c-4.17421,-31.93361 4.22574,-59.36124 18.76183,-61.26133z" fill="#01930e" stroke-width="2"/><path d="M405.21973,100.69822c-4.17421,-31.93361 5.77615,-23.53819 9.95036,8.39542c4.17421,31.93361 -4.22575,59.36124 -18.76183,61.26133c-14.53608,1.90009 12.98568,-37.72315 8.81147,-69.65676z" fill="#31525b" stroke-width="0"/></g><path d="M306.37619,149.2514c-2.0372,-15.58493 -0.8081,-28.59556 2.74527,-29.06004c3.55336,-0.46448 8.08541,11.79306 10.1226,27.378c2.03719,15.58492 0.80809,28.59555 -2.74528,29.06003c-3.55337,0.46448 -8.08541,-11.79307 -10.1226,-27.37801z" data-paper-data="{&quot;index&quot;:null}" fill="#000000" stroke="none" stroke-width="0" stroke-linecap="butt"/><path d="M282.70503,119.40079c3.36634,-0.44003 7.74017,11.7868 9.76921,27.3094c2.02904,15.5226 0.94495,28.46287 -2.4214,28.9029c-3.36634,0.44003 -7.74017,-11.7868 -9.76921,-27.3094c-2.02904,-15.5226 -0.94495,-28.46287 2.4214,-28.9029z" data-paper-data="{&quot;index&quot;:null}" fill="#000000" stroke="none" stroke-width="0" stroke-linecap="butt"/><path d="M329.54458,119.25374l-29.74694,3.88838" data-paper-data="{&quot;index&quot;:null}" fill="none" stroke="#000000" stroke-width="5" stroke-linecap="round"/><path d="M290.48687,121.71785l-23.72285,-1.46135" data-paper-data="{&quot;index&quot;:null}" fill="none" stroke="#000000" stroke-width="5" stroke-linecap="round"/><g data-paper-data="{&quot;index&quot;:null}" stroke-linecap="butt"><path d="M228.48279,112.26105c-2.28909,-23.39989 36.86667,-49.53249 87.45684,-58.36881c50.59016,-8.83632 93.45725,2.96977 95.74634,26.36966c2.28909,23.39988 -36.86666,49.53249 -87.45683,58.36881c-50.59016,8.83632 -93.45726,-2.96978 -95.74635,-26.36967z" fill="#000000" stroke="none" stroke-width="NaN"/><path d="M229.25135,112.59076c-2.28908,-23.3999 40.73793,4.80933 91.3281,-4.02699c50.59016,-8.83631 89.586,-51.37204 91.87509,-27.97215c2.28909,23.39988 -36.86666,49.53249 -87.45683,58.36881c-50.59016,8.83632 -93.45726,-2.96978 -95.74635,-26.36967z" fill="#ff0000" stroke="#000000" stroke-width="2"/><path d="M235.78377,123.84347c-0.62993,-6.43945 36.65255,14.73641 87.24272,5.90009c50.59017,-8.83632 82.81418,-42.90184 85.74535,-37.72165c2.83802,5.01559 -11.56914,19.09774 -36.13837,30.77909c-13.2341,6.29211 -29.72303,11.37124 -47.36156,15.12762c-50.40449,10.73435 -88.85819,-7.64571 -89.48813,-14.08515z" fill="#900056" stroke="#000000" stroke-width="0"/></g><path d="M349.35537,175.27791c-1.69692,2.42418 -7.82831,1.06034 -13.69483,-3.04622c-5.86652,-4.10656 -9.24665,-9.40078 -7.54972,-11.82496c1.69692,-2.42418 7.82831,-1.06034 13.69483,3.04622c5.86652,4.10656 9.24665,9.40078 7.54972,11.82496z" data-paper-data="{&quot;index&quot;:null}" fill="#000000" stroke="none" stroke-width="0" stroke-linecap="butt"/></g></g></svg>