<svg version="1.1" xmlns="http://www.w3.org/2000/svg" xmlns:xlink="http://www.w3.org/1999/xlink" width="342.7073" height="56.45838" viewBox="0,0,342.7073,56.45838"><g transform="translate(-314.09768,-146.70323)"><g data-paper-data="{&quot;isPaintingLayer&quot;:true}" fill-rule="nonzero" stroke-linejoin="miter" stroke-miterlimit="10" stroke-dasharray="" stroke-dashoffset="0" style="mix-blend-mode: normal"><text transform="translate(316.27943,191.08926) scale(0.8727,0.8727)" font-size="40" xml:space="preserve" fill="#000000" fill-rule="nonzero" stroke="#000000" stroke-width="5" stroke-linecap="butt" stroke-linejoin="miter" stroke-miterlimit="10" stroke-dasharray="" stroke-dashoffset="0" font-family="&quot;Comic Sans MS&quot;, Sans Serif" font-weight="normal" text-anchor="start" style="mix-blend-mode: normal"><tspan x="0" dy="0">Crossing My Road</tspan></text><text transform="translate(315.68643,190.89688) scale(0.8727,0.8727)" font-size="40" xml:space="preserve" fill="#ffffff" fill-rule="nonzero" stroke="#000000" stroke-width="0" stroke-linecap="butt" stroke-linejoin="miter" stroke-miterlimit="10" stroke-dasharray="" stroke-dashoffset="0" font-family="&quot;Comic Sans MS&quot;, Sans Serif" font-weight="normal" text-anchor="start" style="mix-blend-mode: normal"><tspan x="0" dy="0">Crossing My Road</tspan></text><path d="M609.13874,164.41163c4.04942,-12.49584 17.46201,-19.34302 29.95785,-15.2936c12.49585,4.04942 19.34302,17.46201 15.2936,29.95785c-4.04942,12.49585 -17.46201,19.34302 -29.95785,15.2936c-12.49585,-4.04942 -19.34302,-17.46201 -15.2936,-29.95785z" fill="#001aff" stroke="#000000" stroke-width="2.5" stroke-linecap="butt"/><path d="M655.26495,173.27127l-8.35724,4.03491l-2.80812,-8.67487l-11.44352,2.52392l-4.61706,-8.13722l-10.02923,2.57356l-3.61286,-9.34433" fill="none" stroke="#000000" stroke-width="2.5" stroke-linecap="round"/><path d="M634.69931,174.47403l-5.35486,11.68409" fill="none" stroke="#000000" stroke-width="2.5" stroke-linecap="round"/><path d="M635.93855,187.85932l5.35705,-11.42196" fill="none" stroke="#000000" stroke-width="2.5" stroke-linecap="round"/><path d="M637.1096,174.18253l-12.03749,-1.0663" fill="none" stroke="#000000" stroke-width="2.5" stroke-linecap="round"/><path d="M639.27795,175.61786l8.85817,-0.08948" fill="none" stroke="#000000" stroke-width="2.5" stroke-linecap="round"/><path d="M624.47714,182.85589c-0.29332,0.165 -2.93396,1.13649 -2.30833,1.88903c0.66913,0.80486 2.87181,-0.85117 2.87181,1.19944c0,1.68987 -4.1353,1.46213 -4.92413,0.22253c-1.16741,-1.83449 0.75764,-3.85516 2.04957,-4.82234c0.31978,-0.23939 1.9448,-1.10184 2.31958,-0.44599c0.33216,0.19604 0.55499,0.55761 0.55499,0.97123c0,0.36674 -0.17518,0.69257 -0.44644,0.89837c-0.0347,0.03359 -0.07338,0.06316 -0.11704,0.08772z" fill="#000000" stroke="none" stroke-width="2.5" stroke-linecap="butt"/></g></g></svg>