<svg version="1.1" xmlns="http://www.w3.org/2000/svg" xmlns:xlink="http://www.w3.org/1999/xlink" width="233.41603" height="314.88489" viewBox="0,0,233.41603,314.88489"><g transform="translate(-194.13155,-30.69514)"><g data-paper-data="{&quot;isPaintingLayer&quot;:true}" fill-rule="nonzero" stroke-linecap="butt" stroke-linejoin="miter" stroke-miterlimit="10" stroke-dasharray="" stroke-dashoffset="0" style="mix-blend-mode: normal"><g data-paper-data="{&quot;index&quot;:null}"><path d="M398.00214,202.28411l-97.43316,-64.52972l28.15954,-42.51797l97.43316,64.52972z" fill="#fac843" stroke="#000000" stroke-width="2"/><g fill="none" stroke="none" stroke-width="1" font-family="sans-serif" font-weight="normal" font-size="12" text-anchor="start"/><path d="M397.33523,200.89404l-97.43316,-64.52972l73.2622,32.82907l52.3305,-10.81731z" fill="#e47816" stroke="#000000" stroke-width="0"/></g><g data-paper-data="{&quot;index&quot;:null}" stroke="#000000"><path d="M316.44531,344.13567v-90.27109h61.17899v90.27109z" fill="#00791c" stroke-width="2"/><path d="M317.23265,343.37909v-90.27109l18.42709,49.31565l42.75189,40.95544z" fill="#00393e" stroke-width="0"/></g><path d="M264.15214,269.96169l-15.78328,-112.70165l112.70165,-15.78328l15.78328,112.70165z" data-paper-data="{&quot;index&quot;:null}" fill="#0000c0" stroke="#000000" stroke-width="2"/><g data-paper-data="{&quot;index&quot;:null}" stroke="#000000"><path d="M263.83936,344.58003v-90.27109h61.17899v90.27109z" fill="#00791c" stroke-width="2"/><path d="M264.62674,343.82344v-90.27109l18.42709,49.31565l42.75189,40.95544z" fill="#00393e" stroke-width="0"/></g><g data-paper-data="{&quot;index&quot;:null}"><path d="M311.9478,244.5773l-98.84245,-62.34963l27.20818,-43.13295l98.84245,62.34963z" fill="#fac843" stroke="#000000" stroke-width="2"/><g fill="none" stroke="none" stroke-width="1" font-family="sans-serif" font-weight="normal" font-size="12" text-anchor="start"/><path d="M311.25019,243.2024l-98.84245,-62.34963l73.97332,31.19367l52.07731,-11.977z" fill="#e47816" stroke="#000000" stroke-width="0"/></g><g data-paper-data="{&quot;index&quot;:null}" stroke="#000000"><path d="M202.21909,122.93192c-0.34875,-1.33155 -6.07923,-26.71139 -6.32381,-28.04843c-6.18049,-33.78581 25.96297,-44.77448 67.02242,-55.52855c38.56888,-10.10175 73.03652,-14.434 86.77093,14.31485c1.46552,3.06761 6.22079,25.40453 7.10409,28.77703c3.15726,12.05453 12.98858,37.79179 8.36706,49.25207c-8.78873,21.79403 -41.09145,26.99804 -69.06567,34.3249c-29.57768,7.74683 -56.91116,15.92021 -75.14173,-0.67675c-8.07845,-7.35456 -15.92019,-31.67458 -18.7333,-42.41513z" fill="#fac843" stroke-width="2"/><path d="M196.86522,94.63998c-3.51146,-19.19549 19.28395,57.72042 71.06649,66.82231c40.58034,7.13287 97.9613,-34.00603 96.10323,-29.39843c-8.78873,21.79403 -41.69532,27.26866 -69.66953,34.59551c-18.50114,4.84572 -50.1987,14.64921 -70.7167,1.04734c-12.28403,-8.14338 -19.43305,-39.78305 -20.48653,-43.80527c0,0 -6.05237,-27.92442 -6.29696,-29.26146z" fill="#e47816" stroke-width="0"/></g><path d="M318.72664,88.91977c3.98232,15.20466 4.40035,28.26652 0.93369,29.17449c-3.46667,0.90797 -9.50525,-10.68179 -13.48757,-25.88643c-3.98232,-15.20466 -4.40034,-28.26651 -0.93368,-29.17448c3.46667,-0.90797 9.50525,10.68179 13.48757,25.88644z" data-paper-data="{&quot;index&quot;:null}" fill="#000000" stroke="none" stroke-width="0"/><path d="M344.49094,83.23082c3.96639,15.14384 4.51941,28.11766 1.23521,28.97784c-3.28421,0.86018 -9.16197,-10.71901 -13.12836,-25.86285c-3.96639,-15.14384 -4.51941,-28.11766 -1.23521,-28.97784c3.28421,-0.86018 9.16197,10.71901 13.12836,25.86285z" data-paper-data="{&quot;index&quot;:null}" fill="#000000" stroke="none" stroke-width="0"/><path d="M302.76239,139.528c0,8.99564 -12.80968,16.28804 -28.61123,16.28804c-15.80155,0 -29.4685,-18.86549 -29.4685,-27.86112c0,-8.99564 13.66695,-0.21432 29.4685,-0.21432c15.80155,0 28.61123,2.79176 28.61123,11.7874z" fill="#fac843" stroke="#000000" stroke-width="2"/></g></g></svg>