<svg version="1.1" xmlns="http://www.w3.org/2000/svg" xmlns:xlink="http://www.w3.org/1999/xlink" width="235.69814" height="336.3762" viewBox="0,0,235.69814,336.3762"><g transform="translate(-202.40061,-24.13882)"><g data-paper-data="{&quot;isPaintingLayer&quot;:true}" fill-rule="nonzero" stroke-linejoin="miter" stroke-miterlimit="10" stroke-dasharray="" stroke-dashoffset="0" style="mix-blend-mode: normal"><g><path d="M380.59871,195.43252c-14.66064,3.56209 -25.01454,-1.73006 -29.21387,-16.06448c-3.28438,-11.21108 5.88014,-26.8327 20.54081,-30.3948c14.66071,-3.56213 27.61256,3.32359 31.13919,17.83814c0.55151,2.2698 0.38683,4.52826 0.2557,6.5924c-0.70751,11.13508 -10.35377,19.0237 -22.72179,22.02876z" fill="#216aff" stroke="#000000" stroke-width="2" stroke-linecap="butt"/><path d="M360.69065,156.93319c0,0 0.9262,5.68096 2.76832,6.46837c17.66982,7.55321 31.52424,5.25683 36.04856,4.14762c1.0279,-0.252 1.36,-1.32464 1.36,-1.32464c0,0 0.71202,1.99027 0.76729,4.73087c0.05881,2.91625 -0.57938,6.67078 -2.00808,9.39182c-1.63202,3.10815 -7.27873,9.24193 -7.27873,9.24193l-19.3362,8.06043c0,0 -12.04966,-5.98003 -13.53983,-7.55365c-1.45987,-1.54164 -2.7452,-3.78455 -4.20777,-6.11433c-2.27083,-3.6173 -3.19881,-8.06092 -2.97088,-10.93195c0.29093,-3.66409 2.13763,-7.9468 4.23184,-11.13688c1.94905,-2.96898 4.1655,-4.97939 4.1655,-4.97939z" fill="#3236f4" stroke="none" stroke-width="0" stroke-linecap="butt"/><path d="M368.72627,180.01128c0,0 -3.90017,-8.13554 -2.83841,-13.18061c1.34406,-6.38654 7.44635,-17.82613 7.44635,-17.82613" fill="none" stroke="#000000" stroke-width="1" stroke-linecap="round"/><path d="M399.84886,160.49459c0,0 0.18544,7.14811 -0.73173,11.34698c-0.9259,4.23899 -6.20533,12.38025 -6.20533,12.38025" fill="none" stroke="#000000" stroke-width="1" stroke-linecap="round"/><path d="M359.22466,185.49541c0,0 -4.1282,-8.2912 -2.72933,-13.70344c2.14651,-8.30486 7.17086,-18.75722 7.17086,-18.75722" fill="none" stroke="#000000" stroke-width="1" stroke-linecap="round"/><path d="M351.69656,172.1941c0,0 10.83692,-13.49209 28.22804,-12.44653c19.04976,1.14526 22.80377,17.97969 22.80377,17.97969" fill="none" stroke="#000000" stroke-width="1" stroke-linecap="round"/><path d="M352.69037,181.66602c0,0 13.27821,-11.85544 28.62644,-10.96584c12.6023,0.73047 17.09085,14.61471 17.09085,14.61471" fill="none" stroke="#000000" stroke-width="1" stroke-linecap="round"/><path d="M386.49658,153.95021c-1.1449,-0.3693 -1.83596,-1.40346 -1.54361,-2.30978c0.29231,-0.90637 1.05687,-0.68404 2.20177,-0.31472c1.1449,0.3693 2.23654,0.74575 1.94419,1.65209c-0.29231,0.90637 -1.45749,1.34175 -2.60233,0.9724z" fill="#8fbbbe" stroke="none" stroke-width="0" stroke-linecap="butt"/><path d="M393.04753,157.10358c-0.58449,0.14198 -1.23097,-0.45358 -1.44398,-1.3303c-0.21302,-0.8767 -0.17895,-1.26409 0.4055,-1.40612c0.58449,-0.14198 1.40736,0.41073 1.62035,1.28744c0.21302,0.8767 0.00255,1.30694 -0.5819,1.44895z" fill="#8fbbbe" stroke="none" stroke-width="0" stroke-linecap="butt"/><path d="M379.89281,151.88774c-0.89445,0.11837 -1.68347,-0.269 -1.7624,-0.86527c-0.07897,-0.59622 0.71073,-0.6465 1.60514,-0.7649c0.89445,-0.11837 1.55488,-0.26016 1.63383,0.33613c0.07897,0.59622 -0.58216,1.17563 -1.4766,1.29404z" fill="#8fbbbe" stroke="none" stroke-width="0" stroke-linecap="butt"/><path d="M357.54378,160.12616c0,0 8.61987,-5.51156 16.06079,-6.94422c4.21864,-0.81223 8.21712,-0.07177 11.24231,0.52358c2.67532,0.52645 8.11309,4.2219 11.9809,7.48355c2.84765,2.40139 4.70237,4.68763 4.70237,4.68763" fill="none" stroke="#000000" stroke-width="0.5" stroke-linecap="round"/><path d="M390.14648,149.77635c0,0 2.09933,10.36197 1.16141,15.68527c-0.79019,4.48499 -6.06939,14.08682 -6.06939,14.08682" fill="none" stroke="#000000" stroke-width="1" stroke-linecap="round"/><path d="M379.38499,179.28947c0,0 -1.81345,-9.49418 -1.51531,-14.00661c0.5235,-7.92293 5.77047,-16.91438 5.77047,-16.91438" fill="none" stroke="#000000" stroke-width="1" stroke-linecap="round"/></g><path d="M357.467,317.14534c0,0 4.41738,-54.03633 5.38717,-78.24167c0.83049,-20.72818 -3.89439,-52.71129 -3.89439,-52.71129l24.61683,-5.39541l-2.49764,137.29439z" fill="#000000" stroke="none" stroke-width="0" stroke-linecap="butt"/><path d="M403.16944,189.90685c-0.21978,5.4853 -11.64058,9.48156 -25.50907,8.92591c-13.86849,-0.55565 -24.93297,-5.4528 -24.71319,-10.9381c0.21978,-5.4853 11.64057,-9.48156 25.50906,-8.92591c13.86849,0.55565 24.93297,5.4528 24.7132,10.9381z" fill="#000000" stroke="none" stroke-width="NaN" stroke-linecap="butt"/><g data-paper-data="{&quot;index&quot;:null}" stroke="#000000" stroke-linecap="butt"><path d="M337.05118,220.21819c27.24897,-19.20449 36.40138,-16.15677 41.06265,-9.54292c4.6613,6.61384 -13.64965,27.54373 -40.89863,46.7482c-27.24899,19.20448 -19.43677,-52.59007 -24.09804,-59.20391c-0.243,-7.09009 5.97658,-5.11153 10.78073,1.10746c5.92467,7.6695 10.82416,22.53268 13.15331,20.89115z" fill="#216aff" stroke-width="2"/><path d="M350.55893,195.90993c11.69594,-8.24307 28.03165,-5.19991 36.48685,6.79703c8.45518,11.99695 5.82805,28.40473 -5.86791,36.64778c-11.69594,8.24307 -28.03168,5.19992 -36.48688,-6.79703c-8.45518,-11.99695 -5.82803,-28.40471 5.86792,-36.64777z" fill="#faddbf" stroke-width="2"/><path d="M363.91201,235.11378c11.69594,-8.24307 13.7501,-44.23272 22.20528,-32.23577c8.45518,11.99695 5.82803,28.40472 -5.86791,36.64778c-11.69594,8.24307 -28.03334,3.83108 -16.33738,-4.41199z" fill="#ef8b89" stroke-width="0"/></g><path d="M224.78117,360.17126v-93.89347h213.03043v93.89347z" fill="#000000" stroke="none" stroke-width="NaN" stroke-linecap="butt"/><g stroke="#000000" stroke-linecap="butt"><path d="M348.36611,338.93049l-40.88597,-86.07822l26.63959,-12.65344l40.88597,86.07823z" fill="#73fffc" stroke-width="2"/><path d="M347.80674,338.51208l-39.04047,-85.28403c0,0 33.92301,59.29233 39.02615,67.29278c1.12815,1.76865 3.47533,1.43787 3.47533,1.43787l22.44422,3.8851z" fill="#59a9e6" stroke-width="0"/></g><g fill="none" stroke="#808080" stroke-width="0.5" stroke-linecap="round"><path d="M437.84876,280.63433l-193.59492,1.15407l-17.0225,-13.84882"/><path d="M241.9457,360.26502l2.01962,-78.47663"/></g><g stroke="#000000" stroke-linecap="butt"><path d="M277.789,327.98704l-21.68852,-92.79402l28.71801,-6.71219l21.68852,92.79402z" fill="#73fffc" stroke-width="2"/><path d="M277.33116,327.45949l-20.05359,-91.62628c0,0 20.56826,65.1406 23.85744,74.04176c0.72713,1.96777 3.09104,2.14259 3.09104,2.14259l21.10863,8.5594z" fill="#59a9e6" stroke-width="0"/></g><g stroke="#000000" stroke-linecap="butt"><path d="M325.23381,213.5122c2.70515,13.53502 17.05389,34.06214 13.95951,44.58862c-3.78422,12.87317 -26.27485,14.52704 -36.40187,16.55106c-13.39789,2.67774 -31.48788,10.5459 -40.50755,-7.02954c-3.37283,-6.57218 -2.07448,-32.59826 -3.71112,-40.78707c-6.01335,-30.08745 4.03443,-57.46062 22.44236,-61.13968c18.40794,-3.67906 38.20531,17.72918 44.21867,47.81663z" fill="#216aff" stroke-width="2"/><path d="M278.01717,238.83369c2.70515,13.53502 64.86608,7.99095 61.77168,18.51744c-3.78423,12.87316 -26.27486,14.52704 -36.40188,16.55106c-13.39789,2.67774 -31.48786,10.54591 -40.50753,-7.02954c-3.37284,-6.57218 -2.07448,-32.59828 -3.71112,-40.78707c-1.85256,-9.26913 -2.32122,-28.69967 -0.46087,-30.46871c2.54309,-17.60397 15.18943,22.60134 19.30971,43.21682z" fill="#3236f4" stroke-width="0"/></g><g stroke="#000000" stroke-linecap="butt"><g><path d="M205.7616,106.22659c3.5601,-46.65515 44.2676,-81.59061 90.92276,-78.0305c46.65515,3.56011 81.59061,44.2676 78.03051,90.92276c-3.5601,46.65515 -44.26761,81.59061 -90.92276,78.03051c-46.65515,-3.5601 -81.59061,-44.26761 -78.03051,-90.92276z" fill="#faddbf" stroke-width="2"/><path d="M206.05787,105.37714c1.1454,-15.01064 11.75254,-40.23361 16.49307,-43.09538c0.54137,-0.32683 6.44759,-8.44421 14.45733,-14.56906c9.95557,-7.61277 22.40614,-13.49074 23.00014,-13.24776c7.75001,3.16985 -22.41025,63.33341 -23.09914,88.6443c-0.00165,0.06036 2.89567,19.97981 4.47606,20.5406c2.51629,4.94828 7.62721,19.79106 17.93373,27.73839c19.20738,14.81082 47.30262,23.34685 45.78514,23.73826c-2.42741,0.62612 -14.97048,1.63474 -21.01582,1.17344c-46.65515,-3.5601 -81.59061,-44.2676 -78.03051,-90.92275z" fill="#ef8b89" stroke-width="0"/><path d="M374.22782,118.62214c-0.88444,11.59064 -2.76332,15.47532 -3.17289,13.58696c-0.41784,-1.92647 0.56054,-9.79937 -7.90177,-15.2948c-2.05058,-1.33164 -10.65417,5.48131 -13.28043,4.0492c-1.64959,-0.89953 -7.85286,-10.80435 -9.70955,-11.62403c-1.29817,-0.57311 -13.05142,7.40602 -14.41263,6.85019c-3.39488,-1.38626 -11.0884,-12.25273 -14.77868,-13.19425c-2.03211,-0.51846 -10.15749,11.10914 -12.24108,10.69555c-2.68706,-0.53337 -9.12119,-12.79952 -11.85066,-13.00779c-7.25876,-0.55388 -7.99152,6.42135 -13.67114,12.01166c-3.69075,3.63271 -12.95481,-14.07836 -16.40702,-9.8937c-4.28725,5.19685 -8.52062,10.19897 -13.02323,13.46548c-3.53247,2.56271 -12.5572,-11.08441 -15.62402,-8.69304c-14.8075,11.54617 -23.7298,18.89299 -22.34718,0.77385c2.78017,-36.43423 43.7871,-4.89613 87.08622,-23.17643c41.4455,-17.49771 84.11424,-2.98308 81.33406,33.45114z" fill="#ef8b89" stroke-width="0"/></g><path d="M376.38956,110.45205c-1.78673,23.41527 5.84966,9.18701 -11.36809,-1.73022c-2.10696,-1.33595 -10.92223,5.46085 -13.62013,4.02328c-1.69459,-0.90298 -8.0801,-10.82168 -9.98707,-11.6452c-1.33332,-0.57578 -13.37843,7.38107 -14.77638,6.82244c-3.48656,-1.39326 -11.40326,-12.27676 -15.19205,-13.22579c-2.08636,-0.5226 -10.40129,11.09053 -12.54028,10.67272c-2.75849,-0.5388 -9.38566,-12.81969 -12.18699,-13.03345c-7.44995,-0.56848 -8.18797,6.40636 -14.00516,11.98617c-3.78016,3.62588 -13.3222,-14.10639 -16.85646,-9.92799c-4.38913,5.18908 -8.72337,10.18349 -13.33736,13.44152c-3.61986,2.55604 -12.90821,-11.1112 -16.05056,-8.7256c-15.1722,11.51836 -24.31349,18.84844 -22.93088,0.72931c2.78017,-36.43423 45.92957,-77.98846 91.72328,-74.49411c45.79371,3.49437 83.90836,48.67272 81.12818,85.10695z" fill="#724e36" stroke-width="2"/><path d="M376.23104,109.27378c-1.78673,23.41527 5.84966,9.18701 -11.36809,-1.73023c-2.10696,-1.33595 -10.92223,5.46086 -13.62013,4.02329c-1.69459,-0.90298 -8.0801,-10.82169 -9.98707,-11.6452c-1.33332,-0.57578 -13.37843,7.38106 -14.77638,6.82243c-3.48656,-1.39326 -11.40327,-12.27675 -15.19205,-13.22579c-2.08636,-0.5226 -10.40128,11.09053 -12.54027,10.67272c-2.75849,-0.5388 -9.38565,-12.8197 -12.18699,-13.03346c-7.44995,-0.56848 -8.18797,6.40636 -14.00516,11.98617c-3.78016,3.62588 -13.3222,-14.10639 -16.85646,-9.928c-4.38913,5.18908 -8.72338,10.1835 -13.33737,13.44152c-3.61986,2.55604 -12.90821,-11.1112 -16.05056,-8.72561c-15.1722,11.51836 -24.3135,18.84844 -22.93089,0.72931c2.78017,-36.43423 44.924,-4.80938 89.32054,-23.00592c42.49592,-17.41755 86.31108,-2.81544 83.53092,33.61878z" fill="#623728" stroke-width="0"/></g><g stroke="#000000" stroke-linecap="butt"><path d="M330.95179,133.42559c-2.17292,28.47616 -16.42382,42.16207 -32.94434,40.90144c-16.52051,-1.26063 -29.05465,-16.99043 -26.88174,-45.46658c2.17292,-28.47615 17.32695,-50.53869 33.84746,-49.27807c16.52051,1.26063 28.15154,25.36705 25.97862,53.8432z" fill="#f0f0f0" stroke-width="2"/><path d="M285.82153,110.34253c-6.43824,27.82377 29.40379,64.46566 12.88328,63.20503c-16.52051,-1.26063 -29.05465,-16.99042 -26.88174,-45.46657c2.17292,-28.47615 23.30625,-57.9634 13.99847,-17.73845z" fill="#9a99ff" stroke-width="0"/></g><path d="M326.44222,141.33866c-1.20384,15.77635 -6.85506,28.20885 -12.62236,27.76876c-5.7673,-0.44009 -9.4667,-13.5861 -8.26287,-29.36245c1.20384,-15.77635 6.85506,-28.20884 12.62236,-27.76876c5.7673,0.44008 9.4667,13.5861 8.26287,29.36245z" fill="#000000" stroke="none" stroke-width="0" stroke-linecap="butt"/><g stroke="#000000" stroke-linecap="butt"><path d="M328.24222,103.09684c3.6682,10.53945 9.04825,56.00247 -6.61649,54.80715c-15.66472,-1.19531 -46.73985,-49.37095 -41.47663,-58.61251c5.00788,-8.79319 8.39972,-20.84023 24.06444,-19.6449c15.66472,1.1953 20.53284,13.40601 24.02867,23.45025z" fill="#a100fe" stroke-width="2"/><path d="M327.34758,102.6733c3.51658,10.52787 9.82397,55.44994 -5.30664,54.29537c-15.13059,-1.15457 -46.25499,-48.72224 -41.1463,-57.97558c4.86085,-8.80442 6.46603,1.45822 21.59661,2.61279c15.13059,1.15457 21.50493,-8.96582 24.85629,1.06739z" fill="#99008e" stroke-width="0"/></g><g data-paper-data="{&quot;index&quot;:null}" stroke="#000000" stroke-linecap="butt"><path d="M368.62763,82.95672c16.52051,1.26063 28.15154,25.36705 25.97862,53.8432c-2.17292,28.47614 -16.94862,42.12202 -33.46913,40.8614c-16.52051,-1.26063 -28.52986,-16.95038 -26.35695,-45.42654c2.17292,-28.47615 17.32695,-50.53869 33.84746,-49.27807z" fill="#f0f0f0" stroke-width="2"/><path d="M394.03525,135.92366c-2.17292,28.47614 -16.94863,42.12203 -33.46914,40.86141c-16.52051,-1.26063 24.46621,-32.03999 22.3242,-60.51848c-3.09669,-41.17148 13.31785,-8.81909 11.14494,19.65708z" fill="#9a99ff" stroke-width="0"/></g><path d="M381.8291,116.66118c5.7673,0.44008 9.4667,13.5861 8.26287,29.36245c-1.20384,15.77635 -6.85505,28.20885 -12.62235,27.76876c-5.7673,-0.44009 -9.4667,-13.5861 -8.26287,-29.36245c1.20384,-15.77635 6.85505,-28.20884 12.62235,-27.76876z" data-paper-data="{&quot;index&quot;:null}" fill="#000000" stroke="none" stroke-width="0" stroke-linecap="butt"/><g data-paper-data="{&quot;index&quot;:null}" stroke="#000000" stroke-linecap="butt"><path d="M342.06017,102.66828c4.97937,-9.39753 11.64385,-20.72821 27.30856,-19.53288c15.66472,1.1953 17.18941,13.61753 20.80511,23.06876c3.80007,9.93314 -32.95231,53.75847 -48.61704,52.56315c-15.66472,-1.19531 -4.72151,-46.23814 0.50335,-56.09901z" fill="#a100fe" stroke-width="2"/><path d="M343.00871,102.38539c4.83488,-9.40856 9.59988,1.56183 24.73047,2.71641c15.13059,1.15457 18.27432,-8.74571 21.743,0.69431c3.64553,9.92134 -33.11454,53.56553 -48.24513,52.41096c-15.13059,-1.15457 -3.30161,-45.94923 1.77165,-55.82166z" fill="#99008e" stroke-width="0"/></g><path d="M399.29679,331.10727c0.68797,11.64249 -13.24885,21.9371 -31.12876,22.99365c-17.87991,1.05655 -32.93215,-7.52506 -33.62013,-19.16754c-0.13753,-2.32736 -0.84502,-13.73416 0.1949,-15.17629c4.16223,-5.77204 18.09718,4.20123 32.40285,3.35588c17.87991,-1.05655 31.46317,-3.6482 32.15114,7.99429z" fill="#000082" stroke="#000000" stroke-width="2" stroke-linecap="butt"/><path d="M397.25262,328.49099c0.37212,6.29743 -13.26529,10.99174 -31.14521,12.04829c-17.87991,1.05655 -30.28759,-1.1729 -30.65972,-7.47033c-0.07439,-1.25887 -0.77221,-12.50224 0.30503,-13.31271c4.31162,-3.24384 15.86602,4.84512 30.17169,3.99978c17.87991,-1.05655 30.95607,-1.56246 31.3282,4.73496z" fill="#2e0048" stroke="#000000" stroke-width="0" stroke-linecap="butt"/><path d="M336.63034,313.65231c2.65438,11.35673 -9.33258,23.86779 -26.77363,27.94424c-17.44105,4.07646 -33.73161,-1.82538 -36.38598,-13.1821c-0.53061,-2.27024 -3.16422,-13.39137 -2.38421,-14.98911c3.12197,-6.39483 18.5477,1.06813 32.50225,-2.19343c17.44105,-4.07646 30.3872,-8.93634 33.04158,2.42039z" fill="#000082" stroke="#000000" stroke-width="2" stroke-linecap="butt"/><path d="M334.1717,311.421c1.43576,6.14286 -11.20683,13.08408 -28.64788,17.16054c-17.44105,4.07646 -30.04711,3.98565 -31.48286,-2.1572c-0.28701,-1.22797 -2.88334,-12.18969 -1.95931,-13.17127c3.69837,-3.92869 16.45823,2.08143 30.41277,-1.18012c17.44105,-4.07646 30.24154,-6.7948 31.6773,-0.65194z" fill="#2e0048" stroke="#000000" stroke-width="0" stroke-linecap="butt"/><g stroke="#000000" stroke-linecap="butt"><path d="M247.21157,231.67928c27.25878,19.19055 27.47104,28.83474 22.81314,35.45095c-4.65791,6.61621 -30.53151,-3.57732 -57.79027,-22.7679c-27.25878,-19.19056 42.97345,-36.01091 47.63137,-42.62713c6.59416,-2.61633 6.82558,3.90625 2.58753,10.52402c-5.22647,8.16128 -17.57173,17.77972 -15.24175,19.42004z" fill="#216aff" stroke-width="2"/><path d="M274.64876,236.21248c11.70017,8.23708 14.3357,24.6435 5.88664,36.64474c-8.44905,12.00126 -24.78322,15.05275 -36.4834,6.81568c-11.70017,-8.23708 -14.33568,-24.6435 -5.88663,-36.64476c8.44905,-12.00127 24.78322,-15.05275 36.4834,-6.81567z" fill="#faddbf" stroke-width="2"/><path d="M242.23114,261.98736c11.70017,8.23708 46.27962,-1.948 37.83056,10.05326c-8.44905,12.00126 -24.78322,15.05275 -36.4834,6.81567c-11.70017,-8.23708 -13.04734,-25.106 -1.34717,-16.86892z" fill="#ef8b89" stroke-width="0"/></g><path d="M273.25529,168.45608c0,7.85713 -5.5588,14.22659 -12.41593,14.22659c-6.85713,0 -12.41593,-6.36946 -12.41593,-14.22659c0,-7.85713 4.78281,-3.87998 11.63994,-3.87998c6.85713,0 13.19193,-3.97715 13.19193,3.87998z" fill="#000000" stroke="none" stroke-width="NaN" stroke-linecap="butt"/></g></g></svg>