<svg version="1.1" xmlns="http://www.w3.org/2000/svg" xmlns:xlink="http://www.w3.org/1999/xlink" width="191.0613" height="322.18506" viewBox="0,0,191.0613,322.18506"><g transform="translate(-231.72111,-11.00382)"><g data-paper-data="{&quot;isPaintingLayer&quot;:true}" fill-rule="nonzero" stroke-linejoin="miter" stroke-miterlimit="10" stroke-dasharray="" stroke-dashoffset="0" style="mix-blend-mode: normal"><g data-paper-data="{&quot;index&quot;:null}" stroke="#000000" stroke-linecap="butt"><path d="M373.54821,192.92627c10.63295,-31.59524 19.81731,-34.54526 27.48606,-31.96444c7.66876,2.58081 5.2658,30.28599 -5.36715,61.88124c-10.63296,31.59524 -46.75803,-30.93849 -54.42678,-33.5193c-4.38593,-5.57602 1.80066,-7.65539 9.35134,-5.47751c9.31177,2.68583 22.04768,11.78066 22.95655,9.08003z" fill="#303145" stroke-width="2"/><path d="M370.07991,165.33422c4.56393,-13.56148 19.54039,-20.76022 33.45088,-16.07883c13.91049,4.68138 21.48738,19.47016 16.92345,33.03163c-4.56393,13.56148 -19.5404,20.76021 -33.45089,16.07883c-13.91049,-4.68138 -21.48736,-19.47015 -16.92344,-33.03162z" fill="#faddbf" stroke-width="2"/><path d="M404.01957,189.06914c4.56393,-13.56148 -15.04721,-43.80845 -1.13672,-39.12707c13.91049,4.68138 21.48738,19.47016 16.92344,33.03162c-4.56393,13.56148 -20.35067,19.65693 -15.78672,6.09545z" fill="#ef8b89" stroke-width="0"/></g><g stroke="#000000" stroke-linecap="butt"><path d="M362.78004,321.93759l-40.40296,-86.30599l26.71008,-12.50396l40.40296,86.30599z" fill="#7485a3" stroke-width="2"/><path d="M362.22303,321.51606l-38.56193,-85.50146c0,0 33.59021,59.4815 38.64845,67.51041c1.11823,1.77495 3.4672,1.45731 3.4672,1.45731l22.42211,4.0108z" fill="#49374f" stroke-width="0"/></g><g data-paper-data="{&quot;index&quot;:null}" stroke="#000000" stroke-linecap="butt"><path d="M260.63392,306.26371l52.81739,-79.31863l24.54764,16.34599l-52.81739,79.31863z" fill="#7485a3" stroke-width="2"/><path d="M261.9764,306.02065l22.76947,-0.62346c0,0 2.27539,0.66425 3.64571,-0.92416c6.19862,-7.18516 48.28058,-60.99464 48.28058,-60.99464l-50.87701,78.79755z" fill="#49374f" stroke-width="0"/></g><g stroke="#000000" stroke-linecap="butt"><path d="M358.55338,219.29158c0,13.80271 10.04743,36.74388 4.95001,46.45977c-6.2338,11.88187 -28.61241,9.09579 -38.9397,9.09579c-13.66287,0 -32.94407,4.17018 -38.34426,-14.83216c-2.01935,-7.10576 4.35457,-32.37264 4.35457,-40.7234c0,-30.68249 15.2177,-55.55556 33.98969,-55.55556c18.77199,0 33.98969,24.87307 33.98969,55.55556z" fill="#585858" stroke-width="2"/><path d="M307.28975,234.86815c0,13.80271 62.04198,20.54886 56.94455,30.26474c-6.2338,11.88186 -28.61241,9.09579 -38.9397,9.09579c-13.66287,0 -32.94406,4.17018 -38.34425,-14.83215c-2.01936,-7.10576 4.35457,-32.37265 4.35457,-40.7234c0,-9.45244 3.34855,-28.59801 5.51953,-29.96813c5.94391,-16.76415 10.4653,25.13995 10.4653,46.16315z" fill="#303145" stroke-width="0"/></g><g stroke="#000000" stroke-linecap="butt"><g><path d="M238.63557,99.46048c0,-46.79079 37.93143,-84.72222 84.72222,-84.72222c46.79079,0 84.72222,37.93143 84.72222,84.72222c0,46.79079 -37.93143,84.72222 -84.72222,84.72222c-46.79079,0 -84.72222,-37.93143 -84.72222,-84.72222z" fill="#faddbf" stroke-width="2"/><path d="M238.86634,98.59097c0,-15.05428 8.65728,-41.01117 13.16632,-44.22534c0.51494,-0.36707 5.78642,-8.91029 13.30693,-15.62682c9.34748,-8.34819 21.31473,-15.15641 21.9255,-14.95935c7.96872,2.57101 -17.52654,64.85492 -16.28763,90.14485c0.00295,0.06031 4.40745,19.70158 6.02593,20.14049c2.8855,4.74247 9.11092,19.15337 19.99223,26.29351c20.2786,13.30648 48.94186,19.68013 47.45857,20.18586c-2.37273,0.80898 -14.80271,2.76903 -20.86562,2.76903c-46.79079,0 -84.72222,-37.93143 -84.72222,-84.72222z" fill="#ef8b89" stroke-width="0"/><path d="M407.55657,99.00228c0,11.62434 -1.57787,15.64071 -2.12992,13.78899c-0.5632,-1.8891 -0.18668,-9.81362 -9.04258,-14.64925c-2.14596,-1.17177 -10.20624,6.27605 -12.93385,5.04791c-1.71325,-0.77142 -8.65215,-10.17554 -10.56583,-10.85157c-1.33801,-0.47267 -12.45011,8.37757 -13.84965,7.92692c-3.49052,-1.12394 -11.98851,-11.37355 -15.73972,-12.03156c-2.06568,-0.36235 -9.2828,11.84977 -11.39182,11.59592c-2.71985,-0.32737 -10.06862,-12.06843 -12.80601,-12.06843c-7.27985,0 -7.47978,7.01079 -12.7176,13.01701c-3.40366,3.90299 -13.98842,-13.05188 -17.11223,-8.61668c-3.87941,5.50799 -7.71992,10.81771 -11.96095,14.41734c-3.32724,2.82405 -13.36416,-10.09687 -16.24015,-7.47909c-13.88607,12.63935 -22.22353,20.64372 -22.22353,2.47189c0,-36.54015 43.28764,-8.21349 85.0704,-29.73523c39.99404,-20.60039 83.64345,-9.37431 83.64345,27.16584z" fill="#ef8b89" stroke-width="0"/></g><path d="M409.09044,90.69139c0,23.48334 6.5317,8.71531 -11.46679,-0.86026c-2.20249,-1.17177 -10.47508,6.27605 -13.27454,5.04791c-1.75838,-0.77142 -8.88005,-10.17554 -10.84414,-10.85157c-1.37326,-0.47267 -12.77806,8.37757 -14.21446,7.92692c-3.58246,-1.12394 -12.30429,-11.37355 -16.15431,-12.03156c-2.12009,-0.36235 -9.52731,11.84977 -11.69189,11.59592c-2.79149,-0.32737 -10.33384,-12.06843 -13.14333,-12.06843c-7.47161,0 -7.6768,7.01079 -13.05259,13.01701c-3.49332,3.90299 -14.35688,-13.05188 -17.56298,-8.61668c-3.98159,5.50799 -7.92327,10.81771 -12.276,14.41734c-3.41488,2.82405 -13.71618,-10.09687 -16.66792,-7.47909c-14.25184,12.63935 -22.80892,20.64372 -22.80892,2.47189c0,-36.54015 39.86264,-81.25697 85.78948,-81.25697c45.92683,0 87.36842,42.14743 87.36842,78.68758z" fill="#724e36" stroke-width="2"/><path d="M408.84271,89.5286c0,23.48334 6.5317,8.71531 -11.46679,-0.86026c-2.20249,-1.17177 -10.47508,6.27605 -13.27454,5.04791c-1.75838,-0.77142 -8.88005,-10.17554 -10.84415,-10.85157c-1.37326,-0.47267 -12.77806,8.37757 -14.21446,7.92692c-3.58246,-1.12394 -12.30429,-11.37355 -16.15431,-12.03156c-2.12009,-0.36235 -9.52731,11.84977 -11.69189,11.59592c-2.79149,-0.32737 -10.33384,-12.06843 -13.14333,-12.06843c-7.47161,0 -7.6768,7.01079 -13.05259,13.01701c-3.49332,3.90299 -14.35688,-13.05188 -17.56298,-8.61668c-3.98159,5.50799 -7.92327,10.81771 -12.27601,14.41734c-3.41488,2.82405 -13.71618,-10.09687 -16.66792,-7.47909c-14.25184,12.63935 -22.80892,20.64372 -22.80892,2.47189c0,-36.54015 44.42786,-8.21349 87.31121,-29.73523c41.04751,-20.60039 85.84668,-9.37431 85.84668,27.16584z" fill="#623728" stroke-width="0"/></g><g stroke="#000000" stroke-linecap="butt"><path d="M342.19291,122.36284c0,28.55894 -13.1683,43.28947 -29.73684,43.28947c-16.56854,0 -30.26316,-14.73054 -30.26316,-43.28947c0,-28.55894 13.43146,-51.71053 30,-51.71053c16.56854,0 30,23.15159 30,51.71053z" fill="#f0f0f0" stroke-width="2"/><path d="M295.43718,102.78044c-4.30259,28.23297 34.22345,62.0416 17.65491,62.0416c-16.56854,0 -30.26316,-14.73054 -30.26316,-43.28947c0,-28.55894 18.82852,-59.56866 12.60825,-18.75213z" fill="#9a99ff" stroke-width="0"/></g><path d="M340.69848,129.59609c0,15.82221 -4.68891,28.64865 -10.47297,28.64865c-5.78406,0 -10.47297,-12.82644 -10.47297,-28.64865c0,-15.82221 4.68891,-28.64865 10.47297,-28.64865c5.78406,0 10.47297,12.82644 10.47297,28.64865z" fill="#000000" stroke="none" stroke-width="0" stroke-linecap="butt"/><g stroke="#000000" stroke-linecap="butt"><path d="M337.18361,92.12817c4.45946,10.22981 9.90215,28.32162 -5.80811,28.32162c-15.71026,0 -46.97995,-18.84154 -42.43514,-28.45676c4.32432,-9.14873 6.78974,-21.41892 22.5,-21.41892c15.71026,0 21.49332,11.80491 25.74324,21.55405z" fill="#a100fe" stroke-width="2"/><path d="M336.25934,91.77391c4.3074,10.22981 10.23964,28.32162 -4.93494,28.32162c-15.17458,0 -46.05318,-18.84154 -41.66334,-28.45676c4.17687,-9.14873 6.55823,0.96203 21.73281,0.96203c15.17458,0 20.76045,-10.57604 24.86546,-0.8269z" fill="#99008e" stroke-width="0"/></g><g data-paper-data="{&quot;index&quot;:null}" stroke="#000000" stroke-linecap="butt"><path d="M375.91959,69.17368c16.56854,0 30,23.15159 30,51.71053c0,28.55893 -13.69462,43.28947 -30.26316,43.28947c-16.56854,0 -29.73684,-14.73053 -29.73684,-43.28947c0,-28.55894 13.43146,-51.71053 30,-51.71053z" fill="#f0f0f0" stroke-width="2"/><path d="M405.28357,120.05394c0,28.55893 -13.69462,43.28947 -30.26316,43.28947c-16.56854,0 21.9575,-33.80863 17.65491,-62.0416c-6.22027,-40.81653 12.60825,-9.80681 12.60825,18.75213z" fill="#9a99ff" stroke-width="0"/></g><path d="M394.24721,97.376c5.78406,0 10.47297,12.82644 10.47297,28.64865c0,15.82221 -4.68891,28.64865 -10.47297,28.64865c-5.78406,0 -10.47297,-12.82644 -10.47297,-28.64865c0,-15.82221 4.68891,-28.64865 10.47297,-28.64865z" data-paper-data="{&quot;index&quot;:null}" fill="#000000" stroke="none" stroke-width="0" stroke-linecap="butt"/><g data-paper-data="{&quot;index&quot;:null}" stroke="#000000" stroke-linecap="butt"><path d="M350.9289,90.8495c4.24992,-9.74914 10.03298,-21.55405 25.74324,-21.55405c15.71026,0 18.17568,12.27019 22.5,21.41892c4.54481,9.61522 -26.32488,26.25676 -42.03514,26.25676c-15.71026,0 -10.66757,-15.89181 -6.20811,-26.12162z" fill="#a100fe" stroke-width="2"/><path d="M351.85317,90.49526c4.10501,-9.74914 9.69088,0.8269 24.86546,0.8269c15.17458,0 17.55594,-10.11076 21.73281,-0.96203c4.38984,9.61522 -27.68876,26.45676 -42.86334,26.45676c-15.17458,0 -8.04234,-16.09181 -3.73494,-26.32162z" fill="#99008e" stroke-width="0"/></g><path d="M419.79312,293.0777c4.94478,10.56267 -4.1969,25.2815 -20.41848,32.87541c-16.22159,7.59391 -33.38032,5.18725 -38.3251,-5.37542c-0.98847,-2.1115 -5.86422,-12.44797 -5.43134,-14.17245c1.73256,-6.90209 18.36786,-2.78923 31.34671,-8.8651c16.22159,-7.59391 27.88343,-15.02513 32.8282,-4.46245z" fill="#000082" stroke="#000000" stroke-width="2" stroke-linecap="butt"/><path d="M416.92634,291.40288c2.67463,5.71336 -8.25994,15.1182 -24.48154,22.71211c-16.22159,7.59391 -28.57411,10.11107 -31.24874,4.39772c-0.53467,-1.14212 -5.34099,-11.33031 -4.63983,-12.48171c2.80633,-4.60838 16.53299,-1.36586 29.51186,-7.44174c16.22159,-7.59391 28.18363,-12.89973 30.85825,-7.18638z" fill="#2e0048" stroke="#000000" stroke-width="0" stroke-linecap="butt"/><path d="M235.15683,289.0734c6.46413,-9.70753 16.88787,-0.62088 31.79616,9.30638c11.92809,7.94278 28.99062,6.35575 29.67491,13.43899c0.17097,1.76973 -6.19119,11.26388 -7.48338,13.20443c-6.46413,9.70753 -23.7899,9.52938 -38.69818,-0.39788c-14.90829,-9.92726 -21.75363,-25.84439 -15.28951,-35.55192z" data-paper-data="{&quot;index&quot;:null}" fill="#000082" stroke="#000000" stroke-width="2" stroke-linecap="butt"/><path d="M267.68342,299.55083c11.92809,7.94278 25.98476,6.78278 28.07273,11.75801c0.52168,1.24304 -5.74972,10.60091 -6.44867,11.65057c-3.49645,5.2508 -15.3357,0.92034 -30.244,-9.00692c-14.90829,-9.92726 -24.31867,-20.85707 -20.82223,-26.10787c3.49645,-5.2508 14.53387,1.77895 29.44216,11.70621z" data-paper-data="{&quot;index&quot;:null}" fill="#2e0048" stroke="#000000" stroke-width="0" stroke-linecap="butt"/><g><path d="M308.44724,241.81514c-14.98658,-1.73934 -22.86485,-10.29171 -21.83633,-25.19311c0.80439,-11.65454 14.81469,-23.13213 29.80129,-21.39279c14.98666,1.73932 24.74962,12.68684 23.02766,27.5241c-0.26928,2.32026 -1.20643,4.38169 -2.04476,6.27247c-4.52255,10.19986 -16.30487,14.25668 -28.94785,12.78934z" fill="#485e84" stroke="#000000" stroke-width="2" stroke-linecap="butt"/><path d="M303.11491,198.80238c0,0 -1.09993,5.64988 0.35514,7.02689c13.95726,13.20866 27.74894,15.85588 32.37728,16.38332c1.05155,0.11984 1.73478,-0.77126 1.73478,-0.77126c0,0 -0.02183,2.11367 -0.91976,4.70361c-0.95546,2.75591 -2.85525,6.05662 -5.13839,8.1139c-2.60801,2.34997 -10.03047,6.14675 -10.03047,6.14675l-20.9313,0.85992c0,0 -9.23056,-9.78528 -10.08303,-11.77782c-0.83516,-1.95202 -1.26352,-4.50138 -1.82807,-7.19363c-0.87652,-4.1801 -0.20705,-8.66994 1.00171,-11.28407c1.54271,-3.3362 4.75915,-6.71354 7.82912,-8.9802c2.85718,-2.10955 5.63298,-3.22726 5.63298,-3.22726z" fill="#343545" stroke="none" stroke-width="0" stroke-linecap="butt"/><path d="M302.6548,223.2351c0,0 -0.83907,-8.98299 1.90527,-13.34748c3.47403,-5.525 13.16259,-14.14091 13.16259,-14.14091" fill="none" stroke="#000000" stroke-width="1" stroke-linecap="round"/><path d="M338.61229,215.71347c0,0 -2.30324,6.76941 -4.61871,10.39023c-2.33754,3.65542 -10.11118,9.46258 -10.11118,9.46258" fill="none" stroke="#000000" stroke-width="1" stroke-linecap="round"/><path d="M291.84145,225.08656c0,0 -0.99904,-9.20805 2.18875,-13.8001c4.89157,-7.04633 13.22684,-15.10977 13.22684,-15.10977" fill="none" stroke="#000000" stroke-width="1" stroke-linecap="round"/><path d="M289.38946,210.00064c0,0 14.84108,-8.90042 30.79213,-1.89273c17.47235,7.67603 15.15972,24.7682 15.15972,24.7682" fill="none" stroke="#000000" stroke-width="1" stroke-linecap="round"/><path d="M287.03918,219.23002c0,0 16.5639,-6.51918 30.65271,-0.36573c11.56819,5.05256 10.96696,19.63191 10.96696,19.63191" fill="none" stroke="#000000" stroke-width="1" stroke-linecap="round"/><path d="M328.35541,204.94736c-0.94597,-0.7432 -1.23582,-1.95274 -0.64749,-2.70158c0.58831,-0.74891 1.22844,-0.27538 2.1744,0.46782c0.94597,0.7432 1.83951,1.47461 1.25118,2.22348c-0.58831,0.74891 -1.83216,0.7535 -2.77807,0.01029z" fill="#8fbbbe" stroke="none" stroke-width="0" stroke-linecap="butt"/><path d="M333.4076,210.17558c-0.59748,-0.06936 -0.9975,-0.85206 -0.89349,-1.74827c0.10401,-0.89621 0.27021,-1.24776 0.86768,-1.17844c0.59748,0.06936 1.17782,0.87299 1.07378,1.76919c-0.10401,0.89621 -0.45054,1.22684 -1.04799,1.1575z" fill="#8fbbbe" stroke="none" stroke-width="0" stroke-linecap="butt"/><path d="M322.87563,200.72417c-0.88005,-0.19894 -1.48592,-0.83573 -1.35332,-1.42241c0.13255,-0.58664 0.89071,-0.36013 1.77074,-0.16124c0.88005,0.19894 1.54869,0.2948 1.41612,0.88149c-0.13255,0.58664 -0.95352,0.90105 -1.83354,0.70214z" fill="#8fbbbe" stroke="none" stroke-width="0" stroke-linecap="butt"/><path d="M299.05652,200.70694c0,0 9.99575,-2.18278 17.47205,-0.94799c4.23868,0.70008 7.7328,2.78034 10.36419,4.38718c2.32709,1.42097 6.14722,6.77189 8.645,11.17181c1.83898,3.23942 2.78646,6.02676 2.78646,6.02676" fill="none" stroke="#000000" stroke-width="0.5" stroke-linecap="round"/><path d="M333.22561,202.29707c0,0 -1.62173,10.44739 -4.34634,15.11576c-2.29552,3.93322 -10.57508,11.11048 -10.57508,11.11048" fill="none" stroke="#000000" stroke-width="1" stroke-linecap="round"/><path d="M312.90314,226.25183c0,0 1.58917,-9.53429 3.43263,-13.66375c3.23676,-7.25054 11.27461,-13.86643 11.27461,-13.86643" fill="none" stroke="#000000" stroke-width="1" stroke-linecap="round"/></g><g stroke="#000000" stroke-linecap="butt"><path d="M289.3691,223.14453c30.39118,13.70018 32.42007,23.13092 29.09478,30.50742c-3.32529,7.37652 -30.65789,2.25015 -61.04907,-11.45004c-30.39117,-13.70019 35.40346,-43.47526 38.72876,-50.85177c5.98176,-3.81402 7.44022,2.54762 4.52755,9.84642c-3.592,9.00112 -13.89973,20.77694 -11.30201,21.94798z" fill="#585858" stroke-width="2"/><path d="M317.16876,222.41716c13.04466,5.88046 18.72972,21.49446 12.69791,34.87483c-6.0318,13.38037 -21.49634,19.46025 -34.541,13.57979c-13.04466,-5.88046 -18.72971,-21.49447 -12.69791,-34.87484c6.0318,-13.38037 21.49634,-19.46024 34.54101,-13.57978z" fill="#faddbf" stroke-width="2"/><path d="M290.19918,253.84786c13.04466,5.88046 45.07995,-10.64878 39.04815,2.73159c-6.0318,13.38037 -21.49634,19.46025 -34.54101,13.57978c-13.04466,-5.88046 -17.55182,-22.19184 -4.50715,-16.31137z" fill="#ef8b89" stroke-width="0"/></g><path d="M277.82946,168.38236v-92.8c0,0 21.21425,-8.6 31.8,-8.6c11.41789,0 34.4,8.6 34.4,8.6v92.8c0,0 -24.38211,5.8 -35.8,5.8c-10.58575,0 -30.4,-5.8 -30.4,-5.8z" fill-opacity="0.74902" fill="#fffe00" stroke="#000000" stroke-width="2.5" stroke-linecap="butt"/><path d="M273.37403,142.08544c-2.00433,2.54124 -6.13358,-2.74785 -10.40286,-6.11514c-4.26928,-3.36728 -7.06191,-3.53763 -5.05757,-6.07887c2.00433,-2.54124 7.0901,-1.8716 11.35939,1.49569c4.26928,3.36728 6.10538,8.15708 4.10105,10.69832z" fill="#000000" stroke="none" stroke-width="0" stroke-linecap="butt"/></g></g></svg>