<svg version="1.1" xmlns="http://www.w3.org/2000/svg" xmlns:xlink="http://www.w3.org/1999/xlink" width="213.31759" height="362.90365" viewBox="0,0,213.31759,362.90365"><g transform="translate(-224.78117,2.38863)"><g data-paper-data="{&quot;isPaintingLayer&quot;:true}" fill-rule="nonzero" stroke-linejoin="miter" stroke-miterlimit="10" stroke-dasharray="" stroke-dashoffset="0" style="mix-blend-mode: normal"><g><path d="M409.24375,151.70904c-14.73023,3.2624 -24.97406,-2.23978 -28.88023,-16.65685c-3.05509,-11.27572 6.42606,-26.70722 21.15632,-29.96963c14.7303,-3.26244 27.53905,3.88595 30.76897,18.46939c0.50511,2.28057 0.29441,4.5352 0.12122,6.59624c-0.93442,11.11833 -10.73954,18.80862 -23.16626,21.56086z" fill="#216aff" stroke="#000000" stroke-width="2" stroke-linecap="butt"/><path d="M390.12488,112.81177c0,0 0.81017,5.69867 2.63585,6.52347c17.51213,7.91194 31.41049,5.89855 35.95649,4.88183c1.03283,-0.23099 1.38672,-1.29664 1.38672,-1.29664c0,0 0.67129,2.00437 0.67066,4.74554c-0.00067,2.91684 -0.71528,6.65758 -2.19917,9.34892c-1.69505,3.07423 -7.46566,9.09158 -7.46566,9.09158l-19.49654,7.66447c0,0 -11.92521,-6.22449 -13.38298,-7.82817c-1.42813,-1.57108 -2.66745,-3.83975 -4.08221,-6.19886c-2.1966,-3.66285 -3.03377,-8.12447 -2.74735,-10.99026c0.36559,-3.6574 2.29923,-7.90156 4.45805,-11.04828c2.00919,-2.92861 4.26616,-4.89342 4.26616,-4.89342z" fill="#3236f4" stroke="none" stroke-width="0" stroke-linecap="butt"/><path d="M397.68824,136.04892c0,0 -3.73346,-8.21338 -2.56904,-13.23575c1.474,-6.35781 7.8083,-17.67059 7.8083,-17.67059" fill="none" stroke="#000000" stroke-width="1" stroke-linecap="round"/><path d="M429.20232,117.17091c0,0 0.03965,7.15041 -0.96296,11.3297c-1.01214,4.21923 -6.45648,12.25114 -6.45648,12.25114" fill="none" stroke="#000000" stroke-width="1" stroke-linecap="round"/><path d="M388.07678,141.33815c0,0 -3.95828,-8.37365 -2.44934,-13.75624c2.31541,-8.25936 7.55185,-18.6071 7.55185,-18.6071" fill="none" stroke="#000000" stroke-width="1" stroke-linecap="round"/><path d="M380.82147,127.8861c0,0 11.10978,-13.2683 28.47596,-11.86834c19.02244,1.53347 22.4324,18.44095 22.4324,18.44095" fill="none" stroke="#000000" stroke-width="1" stroke-linecap="round"/><path d="M381.62193,137.37632c0,0 13.5172,-11.58222 28.84409,-10.37984c12.58479,0.98729 16.78928,14.96017 16.78928,14.96017" fill="none" stroke="#000000" stroke-width="1" stroke-linecap="round"/><path d="M415.98627,110.35562c-1.13714,-0.39257 -1.80697,-1.44061 -1.49619,-2.34078c0.31074,-0.90023 1.0706,-0.66235 2.20774,-0.26976c1.13714,0.39257 2.22087,0.7912 1.9101,1.69139c-0.31074,0.90023 -1.48455,1.31175 -2.62162,0.91913z" fill="#8fbbbe" stroke="none" stroke-width="0" stroke-linecap="butt"/><path d="M422.47156,113.64192c-0.58727,0.13003 -1.22147,-0.47858 -1.41656,-1.35946c-0.1951,-0.88087 -0.15314,-1.26748 0.43409,-1.39756c0.58727,-0.13003 1.39869,0.43935 1.59376,1.32022c0.1951,0.88087 -0.0241,1.30673 -0.61133,1.43678z" fill="#8fbbbe" stroke="none" stroke-width="0" stroke-linecap="butt"/><path d="M409.42592,108.15892c-0.89668,0.10011 -1.67764,-0.30327 -1.74439,-0.90103c-0.0668,-0.5977 0.72376,-0.63187 1.62039,-0.73201c0.89668,-0.10011 1.55986,-0.2284 1.62664,0.36937c0.0668,0.5977 -0.60601,1.16352 -1.50267,1.26366z" fill="#8fbbbe" stroke="none" stroke-width="0" stroke-linecap="butt"/><path d="M386.91356,115.9399c0,0 8.73046,-5.33464 16.19905,-6.61528c4.23433,-0.72604 8.21688,0.0958 11.2293,0.75272c2.66404,0.5809 8.02531,4.38646 11.82581,7.7263c2.79809,2.45895 4.60581,4.78254 4.60581,4.78254" fill="none" stroke="#000000" stroke-width="0.5" stroke-linecap="round"/><path d="M419.72052,106.25705c0,0 1.8876,10.40263 0.84133,15.70569c-0.88148,4.46795 -6.35537,13.96012 -6.35537,13.96012" fill="none" stroke="#000000" stroke-width="1" stroke-linecap="round"/><path d="M408.35946,135.54459c0,0 -1.61948,-9.52918 -1.22938,-14.03459c0.68494,-7.91061 6.11417,-16.79319 6.11417,-16.79319" fill="none" stroke="#000000" stroke-width="1" stroke-linecap="round"/></g><path d="M387.86787,272.30782c0,0 5.51832,-53.93502 6.98149,-78.11554c1.25299,-20.70694 -2.81874,-52.77974 -2.81874,-52.77974l24.72173,-4.89233l-5.29671,137.21492z" fill="#000000" stroke="none" stroke-width="0" stroke-linecap="butt"/><path d="M431.92246,146.64476c-0.33158,5.47967 -11.83149,9.24223 -25.68577,8.4039c-13.85428,-0.83833 -24.8166,-5.96009 -24.48502,-11.43976c0.33158,-5.47967 11.83149,-9.24223 25.68577,-8.4039c13.85428,0.83833 24.8166,5.96009 24.48502,11.43976z" fill="#000000" stroke="none" stroke-width="NaN" stroke-linecap="butt"/><g data-paper-data="{&quot;index&quot;:null}" stroke="#000000" stroke-linecap="butt"><path d="M372.63437,187.71344c26.55689,-20.1507 35.81079,-17.42666 40.70173,-10.9808c4.89096,6.44586 -12.67276,28.00662 -39.22966,48.15731c-26.5569,20.15069 -21.27383,-51.87415 -26.16478,-58.32c-0.49213,-7.07716 5.79316,-5.3185 10.81301,0.72773c6.19067,7.45644 11.60972,22.13816 13.87972,20.41576z" fill="#216aff" stroke-width="2"/><path d="M385.27908,162.94525c11.39888,-8.6492 27.83149,-6.1823 36.70327,5.50993c8.87178,11.69224 6.82317,28.18225 -4.57572,36.83144c-11.39888,8.6492 -27.83151,6.18231 -36.7033,-5.50993c-8.87178,-11.69224 -6.82315,-28.18223 4.57574,-36.83143z" fill="#faddbf" stroke-width="2"/><path d="M400.00233,201.65537c11.39888,-8.6492 12.18635,-44.68883 21.05813,-32.99659c8.87178,11.69224 6.82315,28.18224 -4.57573,36.83143c-11.39888,8.6492 -27.8813,4.81437 -16.48241,-3.83483z" fill="#ef8b89" stroke-width="0"/></g><path d="M224.78117,360.17126v-93.89347h213.03043v93.89347z" fill="#000000" stroke="none" stroke-width="NaN" stroke-linecap="butt"/><g stroke="#000000" stroke-linecap="butt"><path d="M336.45518,314.2535l-13.01239,-94.40234l29.21576,-4.02708l13.01239,94.40234z" fill="#73fffc" stroke-width="2"/><path d="M336.0481,313.68583l-11.49248,-93.08837c0,0 14.45478,66.76384 16.90654,75.93107c0.54201,2.02658 2.87961,2.41933 2.87961,2.41933l20.22641,10.47519z" fill="#59a9e6" stroke-width="0"/></g><g fill="none" stroke="#808080" stroke-width="0.5" stroke-linecap="round"><path d="M437.84876,280.63433l-193.59492,1.15407l-17.0225,-13.84882"/><path d="M241.9457,360.26502l2.01962,-78.47663"/></g><g stroke="#000000" stroke-linecap="butt"><path d="M291.20207,317.75677l-10.56773,-94.70715l29.31008,-3.27051l10.56773,94.70715z" fill="#73fffc" stroke-width="2"/><path d="M290.8098,317.17879l-9.08229,-93.35434c0,0 12.7241,67.11519 14.93807,76.34274c0.48943,2.03992 2.8161,2.49295 2.8161,2.49295l19.94887,10.99454z" fill="#59a9e6" stroke-width="0"/></g><g stroke="#000000" stroke-linecap="butt"><path d="M351.3877,189.10098c-0.8879,13.77412 7.66295,37.31411 1.95108,46.68197c-6.98523,11.45625 -29.13826,7.23636 -39.44416,6.57203c-13.63457,-0.87891 -33.1441,2.04231 -37.31071,-17.26806c-1.55807,-7.22094 6.42803,-32.02547 6.96522,-40.35893c1.97375,-30.61894 18.75998,-54.46156 37.49308,-53.25399c18.73311,1.20757 32.31925,27.00805 30.3455,57.62699z" fill="#216aff" stroke-width="2"/><path d="M299.22823,201.34759c-0.8879,13.77412 60.5916,24.49735 54.87973,33.8652c-6.98523,11.45624 -29.13826,7.23636 -39.44416,6.57203c-13.63457,-0.87891 -33.14409,2.04231 -37.3107,-17.26805c-1.55808,-7.22094 6.42803,-32.02548 6.96522,-40.35893c0.60806,-9.43286 5.18128,-28.32337 7.4359,-29.551c7.01001,-16.34707 8.82641,25.76109 7.47403,46.74075z" fill="#3236f4" stroke-width="0"/></g><g stroke="#000000" stroke-linecap="butt"><g><path d="M228.91705,86.28973c-0.12503,-46.79061 37.70489,-84.82328 84.49552,-84.94831c46.79061,-0.12502 84.82328,37.7049 84.94832,84.49552c0.12503,46.79062 -37.70491,84.82328 -84.49552,84.94832c-46.79061,0.12503 -84.82328,-37.70491 -84.94832,-84.49552z" fill="#faddbf" stroke-width="2"/><path d="M229.14551,85.41959c-0.04024,-15.05423 8.54766,-41.03416 13.04811,-44.26037c0.51395,-0.36845 5.76259,-8.92573 13.26512,-15.66233c9.32514,-8.37313 21.27416,-15.21332 21.88545,-15.01787c7.97557,2.5497 -17.35317,64.90152 -16.04669,90.18806c0.00311,0.0603 4.46008,19.68974 6.07972,20.12433c2.89815,4.73475 9.16205,19.12895 20.06243,26.23997c20.31408,13.25225 48.99427,19.54929 47.51233,20.05898c-2.37057,0.81533 -14.79525,2.80857 -20.85814,2.82478c-46.79061,0.12503 -84.82328,-37.7049 -84.94832,-84.49551z" fill="#ef8b89" stroke-width="0"/><path d="M397.83623,85.38013c0.03106,11.6243 -1.53607,15.64488 -2.09307,13.79463c-0.56825,-1.88758 -0.21289,-9.81309 -9.08168,-14.62504c-2.14908,-1.16602 -10.18943,6.30331 -12.92031,5.08245c-1.7153,-0.76684 -8.67932,-10.15238 -10.59478,-10.8233c-1.33927,-0.46909 -12.42767,8.41081 -13.82842,7.9639c-3.4935,-1.1146 -12.01886,-11.34147 -15.77182,-11.98946c-2.06663,-0.35683 -9.2511,11.87454 -11.3608,11.62632c-2.72072,-0.32011 -10.10082,-12.04148 -12.83821,-12.03416c-7.27983,0.01946 -7.46103,7.03074 -12.68278,13.05096c-3.39321,3.91207 -14.02323,-13.01446 -17.13519,-8.57093c-3.86468,5.51833 -7.691,10.83829 -11.92238,14.44924c-3.31968,2.83293 -13.39109,-10.06112 -16.26007,-7.43566c-13.85225,12.67641 -22.16829,20.70304 -22.21684,2.53127c-0.09764,-36.54002 43.26554,-8.32914 84.99062,-29.96246c39.93885,-20.70719 83.6181,-9.59779 83.71573,26.94222z" fill="#ef8b89" stroke-width="0"/></g><path d="M399.34788,77.06516c0.06277,23.48326 6.55497,8.69782 -11.46904,-0.82961c-2.20562,-1.16587 -10.45827,6.30401 -13.261,5.08337c-1.76044,-0.76672 -8.9072,-10.15177 -10.8731,-10.82255c-1.37452,-0.46898 -12.75563,8.41168 -14.19324,7.96488c-3.58545,-1.11437 -12.33464,-11.34063 -16.18639,-11.98835c-2.12103,-0.35669 -9.49562,11.87519 -11.66086,11.62712c-2.79235,-0.31989 -10.36605,-12.04076 -13.17552,-12.03326c-7.47158,0.01997 -7.65805,7.03126 -13.01775,13.05185c-3.48288,3.91231 -14.3917,-13.01347 -17.58594,-8.56972c-3.96687,5.5186 -7.89434,10.83882 -12.23742,14.45009c-3.40733,2.83316 -13.74311,-10.06018 -16.68785,-7.43452c-14.21801,12.6774 -22.75368,20.70459 -22.80223,2.53284c-0.09764,-36.54002 39.64537,-81.36321 85.57204,-81.48593c45.92666,-0.12272 87.48073,41.91381 87.57838,78.45383z" fill="#724e36" stroke-width="2"/><path d="M399.09705,75.90304c0.06277,23.48326 6.55497,8.69782 -11.46904,-0.82962c-2.20562,-1.16587 -10.45827,6.30402 -13.261,5.08337c-1.76044,-0.76672 -8.9072,-10.15178 -10.8731,-10.82255c-1.37452,-0.46898 -12.75563,8.41168 -14.19324,7.96488c-3.58545,-1.11437 -12.33464,-11.34061 -16.18639,-11.98835c-2.12103,-0.35669 -9.49561,11.87519 -11.66086,11.62712c-2.79235,-0.31989 -10.36605,-12.04077 -13.17552,-12.03327c-7.47158,0.01997 -7.65805,7.03126 -13.01776,13.05185c-3.48288,3.91231 -14.3917,-13.01347 -17.58594,-8.56973c-3.96687,5.5186 -7.89434,10.83883 -12.23743,14.45009c-3.40733,2.83316 -13.74313,-10.06017 -16.68785,-7.43452c-14.21801,12.6774 -22.75369,20.70458 -22.80225,2.53284c-0.09764,-36.54002 44.40575,-8.33218 87.23145,-29.96843c40.99233,-20.71 85.82132,-9.60367 85.91897,26.93635z" fill="#623728" stroke-width="0"/></g><g stroke="#000000" stroke-linecap="butt"><path d="M331.35852,66.82496c0.07631,28.55884 -13.05257,43.32451 -29.62106,43.36878c-16.56849,0.04427 -30.30241,-14.64962 -30.37874,-43.20846c-0.07631,-28.55883 13.29323,-51.74622 29.86172,-51.79051c16.56849,-0.04428 30.06176,23.07135 30.13807,51.63018z" fill="#f0f0f0" stroke-width="2"/><path d="M284.55063,47.36759c-4.22713,28.24437 34.38912,61.94992 17.82065,61.99418c-16.56849,0.04427 -30.30241,-14.6496 -30.37874,-43.20844c-0.07631,-28.55883 18.66927,-59.61876 12.55809,-18.78574z" fill="#9a99ff" stroke-width="0"/></g><path d="M327.48611,75.06858c0.04228,15.82216 -4.61234,28.66108 -10.39638,28.67653c-5.78405,0.01545 -10.50721,-12.79841 -10.54949,-28.62057c-0.04228,-15.82215 4.61233,-28.66107 10.39638,-28.67653c5.78405,-0.01546 10.50721,12.79842 10.5495,28.62057z" fill="#000000" stroke="none" stroke-width="0" stroke-linecap="butt"/><g stroke="#000000" stroke-linecap="butt"><path d="M326.26899,36.80378c4.48679,10.21785 13.43032,55.116 -2.2799,55.15799c-15.7102,0.04198 -50.48264,-45.53687 -45.96354,-55.16421c4.29986,-9.16025 6.73248,-21.43698 22.44268,-21.47897c15.7102,-0.04199 21.5248,11.74743 25.80075,21.48518z" fill="#a100fe" stroke-width="2"/><path d="M325.34378,36.45201c4.33472,10.21824 14.16013,54.5041 -1.01442,54.54464c-15.17452,0.04054 -49.9482,-44.92837 -45.58407,-54.55527c4.15241,-9.15986 6.56078,0.94449 21.7353,0.90395c15.17453,-0.04054 20.73209,-10.63147 24.86315,-0.89334z" fill="#99008e" stroke-width="0"/></g><g data-paper-data="{&quot;index&quot;:null}" stroke="#000000" stroke-linecap="butt"><path d="M365.29921,18.82085c16.56849,-0.04428 30.06177,23.07135 30.13808,51.63018c0.07631,28.55882 -13.57889,43.32592 -30.14737,43.37018c-16.56849,0.04427 -29.77609,-14.65102 -29.85241,-43.20986c-0.07631,-28.55883 13.29323,-51.74623 29.86171,-51.79051z" fill="#f0f0f0" stroke-width="2"/><path d="M394.79905,69.62247c0.07631,28.55882 -13.57889,43.32593 -30.14737,43.37019c-16.56849,0.04427 21.86708,-33.8672 17.48906,-62.08856c-6.32932,-40.79975 12.58199,-9.84047 12.65832,18.71837z" fill="#9a99ff" stroke-width="0"/></g><path d="M381.1139,51.38104c5.78405,-0.01546 10.50721,12.79842 10.54949,28.62057c0.04228,15.82216 -4.61233,28.66108 -10.39637,28.67654c-5.78405,0.01545 -10.50721,-12.79842 -10.5495,-28.62057c-0.04228,-15.82215 4.61233,-28.66106 10.39637,-28.67653z" data-paper-data="{&quot;index&quot;:null}" fill="#000000" stroke="none" stroke-width="0" stroke-linecap="butt"/><g data-paper-data="{&quot;index&quot;:null}" stroke="#000000" stroke-linecap="butt"><path d="M340.36653,40.56338c4.22385,-9.76047 9.97535,-21.58078 25.68554,-21.62275c15.7102,-0.04199 18.2084,12.22157 22.55715,21.35872c4.5705,9.60304 -28.61652,56.18651 -44.32673,56.22849c-15.7102,0.04198 -8.34808,-45.72273 -3.91598,-55.96443z" fill="#a100fe" stroke-width="2"/><path d="M341.28984,40.20667c4.07895,-9.76009 9.69305,0.80099 24.86758,0.76045c15.17453,-0.04054 17.52886,-10.15764 21.73016,-1.02009c4.41551,9.60344 -28.79343,56.00693 -43.96795,56.04748c-15.17452,0.04054 -6.90984,-45.54652 -2.62979,-55.78782z" fill="#99008e" stroke-width="0"/></g><path d="M399.4597,303.58509c1.59254,11.55355 -11.50026,22.90223 -29.24361,25.34797c-17.74334,2.44574 -33.41816,-4.93762 -35.0107,-16.49118c-0.31835,-2.30959 -1.912,-13.62663 -0.98754,-15.14538c3.70009,-6.07865 18.36939,2.77916 32.56579,0.82233c17.74333,-2.44573 31.08352,-6.08731 32.67606,5.46625z" fill="#000082" stroke="#000000" stroke-width="2" stroke-linecap="butt"/><path d="M397.218,301.13594c0.8614,6.24932 -12.36903,11.99139 -30.11238,14.43712c-17.74334,2.44574 -30.28695,1.1893 -31.14836,-5.06002c-0.1722,-1.24925 -1.74348,-12.40414 -0.73262,-13.29603c4.04591,-3.56975 16.19514,3.59484 30.39154,1.63801c17.74333,-2.44573 30.7404,-3.96841 31.60179,2.28091z" fill="#2e0048" stroke="#000000" stroke-width="0" stroke-linecap="butt"/><path d="M351.21719,310.87132c1.29334,11.59087 -12.08846,22.59729 -29.88908,24.58354c-17.80063,1.98626 -33.27935,-5.79983 -34.5727,-17.39069c-0.25854,-2.31705 -1.55911,-13.67152 -0.5957,-15.16585c3.85599,-5.98096 18.29141,3.25309 32.53366,1.66388c17.80063,-1.98626 31.23048,-5.28176 32.52383,6.30911z" fill="#000082" stroke="#000000" stroke-width="2" stroke-linecap="butt"/><path d="M349.03955,308.36504c0.69958,6.2695 -12.67488,11.66765 -30.47551,13.6539c-17.80063,1.98626 -30.30758,0.40598 -31.00714,-5.86351c-0.13985,-1.2533 -1.42224,-12.44506 -0.38866,-13.31052c4.13683,-3.46398 16.09681,4.01229 30.33905,2.4231c17.80063,-1.98626 30.8327,-3.17244 31.53228,3.09706z" fill="#2e0048" stroke="#000000" stroke-width="0" stroke-linecap="butt"/><g stroke="#000000" stroke-linecap="butt"><path d="M277.47691,199.86738c27.32575,19.09508 27.57173,28.73847 22.93701,35.37093c-4.63473,6.63247 -30.54383,-3.4705 -57.86956,-22.56561c-27.32574,-19.09509 42.84722,-36.16102 47.48197,-42.79348c6.58497,-2.63938 6.8392,3.88236 2.62433,10.51491c-5.19789,8.17951 -17.50942,17.84107 -15.17373,19.47325z" fill="#216aff" stroke-width="2"/><path d="M304.92981,204.30457c11.72891,8.1961 14.42182,24.5932 6.01479,36.62394c-8.40702,12.03073 -24.73042,15.13934 -36.45934,6.94326c-11.72891,-8.1961 -14.4218,-24.59319 -6.01478,-36.62395c8.40702,-12.03074 24.73042,-15.13934 36.45934,-6.94325z" fill="#faddbf" stroke-width="2"/><path d="M272.60252,230.19269c11.72891,8.1961 46.27253,-2.10988 37.8655,9.92086c-8.40702,12.03073 -24.73042,15.13934 -36.45934,6.94325c-11.72891,-8.1961 -13.13508,-25.06021 -1.40617,-16.86411z" fill="#ef8b89" stroke-width="0"/></g><path d="M283.47493,109.26655c-0.51855,9.30771 -8.14895,16.4514 -17.04298,15.9559c-8.89403,-0.4955 -15.68369,-8.44257 -15.16514,-17.75027c0.51855,-9.30771 7.46041,-4.09248 16.35444,-3.59697c8.89403,0.4955 16.37223,-3.91636 15.85368,5.39135z" fill="#000000" stroke="none" stroke-width="0" stroke-linecap="butt"/></g></g></svg>