<svg version="1.1" xmlns="http://www.w3.org/2000/svg" xmlns:xlink="http://www.w3.org/1999/xlink" width="207.61573" height="345.98425" viewBox="0,0,207.61573,345.98425"><g transform="translate(-228.175,-15.00363)"><g data-paper-data="{&quot;isPaintingLayer&quot;:true}" fill-rule="nonzero" stroke-linejoin="miter" stroke-miterlimit="10" stroke-dasharray="" stroke-dashoffset="0" style="mix-blend-mode: normal"><g data-paper-data="{&quot;index&quot;:null}" stroke="#000000" stroke-linecap="butt"><path d="M376.80793,210.75908c13.73213,-30.37676 23.16499,-32.39574 30.538,-29.06269c7.37301,3.33304 2.21791,30.66025 -11.51423,61.03701c-13.73215,30.37675 -43.43801,-35.44915 -50.81102,-38.7822c-3.80773,-5.98577 2.55545,-7.43754 9.85118,-4.5172c8.99735,3.60146 20.76232,13.92157 21.93609,11.32509z" fill="#303145" stroke-width="2"/><path d="M376.10978,182.95867c5.89418,-13.03847 21.51413,-18.7071 34.88816,-12.66123c13.37402,6.04587 19.43764,21.51679 13.54346,34.55526c-5.89418,13.03847 -21.51415,18.7071 -34.88817,12.66123c-13.37402,-6.04587 -19.43763,-21.51679 -13.54345,-34.55526z" fill="#faddbf" stroke-width="2"/><path d="M407.51208,209.96131c5.89418,-13.03847 -10.60138,-45.09113 2.77264,-39.04526c13.37402,6.04587 19.43764,21.51679 13.54345,34.55526c-5.89418,13.03847 -22.21029,17.52848 -16.31609,4.49z" fill="#ef8b89" stroke-width="0"/></g><g stroke="#000000" stroke-linecap="butt"><path d="M299.77355,331.52132l25.06469,-91.93956l28.45357,7.75705l-25.06469,91.93956z" fill="#7485a3" stroke-width="2"/><path d="M299.6218,330.83947l25.94731,-90.13468c0,0 -12.89537,67.08249 -14.23644,76.47668c-0.29647,2.07676 1.69967,3.35505 1.69967,3.35505l14.49561,17.57028z" fill="#49374f" stroke-width="0"/></g><g data-paper-data="{&quot;index&quot;:null}" stroke="#000000" stroke-linecap="butt"><path d="M253.30223,280.6885l78.86705,-53.48935l16.55395,24.40787l-78.86705,53.48935z" fill="#7485a3" stroke-width="2"/><path d="M254.63705,280.97059l21.31788,8.02406c0,0 1.85587,1.47458 3.72468,0.5215c8.45357,-4.3112 67.74437,-38.23689 67.74437,-38.23689l-76.87359,53.73986z" fill="#49374f" stroke-width="0"/></g><g stroke="#000000" stroke-linecap="butt"><path d="M358.55338,219.29158c0,13.80271 10.04743,36.74388 4.95001,46.45977c-6.2338,11.88187 -28.61241,9.09579 -38.9397,9.09579c-13.66287,0 -32.94407,4.17018 -38.34426,-14.83216c-2.01935,-7.10576 4.35457,-32.37264 4.35457,-40.7234c0,-30.68249 15.2177,-55.55556 33.98969,-55.55556c18.77199,0 33.98969,24.87307 33.98969,55.55556z" fill="#585858" stroke-width="2"/><path d="M307.28975,234.86815c0,13.80271 62.04198,20.54886 56.94455,30.26474c-6.2338,11.88186 -28.61241,9.09579 -38.9397,9.09579c-13.66287,0 -32.94406,4.17018 -38.34425,-14.83215c-2.01936,-7.10576 4.35457,-32.37265 4.35457,-40.7234c0,-9.45244 3.34855,-28.59801 5.51953,-29.96813c5.94391,-16.76415 10.4653,25.13995 10.4653,46.16315z" fill="#303145" stroke-width="0"/></g><g stroke="#000000" stroke-linecap="butt"><g><path d="M264.21725,92.51608c6.08718,-46.39315 48.6309,-79.06759 95.02405,-72.98041c46.39315,6.08718 79.06759,48.6309 72.98041,95.02405c-6.08718,46.39315 -48.6309,79.06759 -95.02405,72.98041c-46.39315,-6.08718 -79.06759,-48.6309 -72.98041,-95.02405z" fill="#faddbf" stroke-width="2"/><path d="M264.55918,91.68398c1.95847,-14.92634 13.919,-39.53639 18.80786,-42.13665c0.55832,-0.29696 6.89642,-8.08179 15.22679,-13.76287c10.35409,-7.0612 23.10534,-12.2547 23.68529,-11.97985c7.56653,3.58584 -25.81481,62.02367 -27.87648,87.25986c-0.00492,0.06018 1.80694,20.10753 3.35457,20.75327c2.24401,5.07755 6.54176,20.17587 16.40171,28.67092c18.37518,15.83151 45.96568,25.87991 44.4292,26.18837c-2.45781,0.49343 -15.03715,0.81976 -21.04853,0.03101c-46.39315,-6.08718 -79.06759,-48.6309 -72.98041,-95.02405z" fill="#ef8b89" stroke-width="0"/><path d="M431.76232,114.03732c-1.51225,11.52555 -3.59922,15.30252 -3.90568,13.39472c-0.31265,-1.94631 1.0916,-9.75451 -7.05996,-15.70114c-1.97528,-1.44099 -10.93598,4.89495 -13.48064,3.3224c-1.59833,-0.98775 -7.25485,-11.21465 -9.06432,-12.1339c-1.26515,-0.64272 -13.43417,6.6867 -14.76319,6.0578c-3.31464,-1.56848 -10.407,-12.83652 -14.04073,-13.97695c-2.00099,-0.628 -10.74549,10.54143 -12.80356,10.01537c-2.65415,-0.67842 -8.41303,-13.27573 -11.12716,-13.63185c-7.21798,-0.94706 -8.32827,5.97814 -14.30295,11.25191c-3.88249,3.42703 -12.17158,-14.76077 -15.84583,-10.76965c-4.563,4.9565 -9.06163,9.72147 -13.73491,12.73877c-3.66636,2.3672 -11.93705,-11.74966 -15.12915,-9.52827c-15.41236,10.72545 -24.72028,17.57714 -22.35625,-0.44026c4.75364,-36.22962 43.98829,-2.51224 88.21581,-18.41541c42.33414,-15.22235 84.15216,1.58684 79.39852,37.81646z" fill="#ef8b89" stroke-width="0"/></g><path d="M434.36435,105.9966c-3.05503,23.28377 5.34239,9.49098 -11.25743,-2.34471c-2.03133,-1.44834 -11.20253,4.85997 -13.81843,3.27808c-1.64308,-0.99362 -7.48081,-11.2443 -9.34026,-12.1701c-1.3001,-0.64731 -13.75934,6.64403 -15.1249,6.01034c-3.4058,-1.58044 -10.7201,-12.8776 -14.4518,-14.03089c-2.05493,-0.63508 -10.98792,10.50962 -13.10108,9.97633c-2.72518,-0.68774 -8.67599,-13.31024 -11.46161,-13.67573c-7.40811,-0.97201 -8.52362,5.95251 -14.6351,11.20833c-3.97139,3.41536 -12.5369,-14.8087 -16.29275,-10.82828c-4.66431,4.9432 -9.26325,9.69501 -14.04728,12.69779c-3.75325,2.3558 -12.28608,-11.79545 -15.55329,-9.58392c-15.77502,10.67786 -25.3007,17.50099 -22.93666,-0.51641c4.75364,-36.22962 50.09489,-75.38055 95.63143,-69.40576c45.53653,5.97479 81.14283,53.15532 76.38919,89.38495z" fill="#724e36" stroke-width="2"/><path d="M434.27,104.81147c-3.05503,23.28377 5.34239,9.49098 -11.25743,-2.34471c-2.03133,-1.44834 -11.20253,4.85997 -13.81843,3.27808c-1.64308,-0.99362 -7.48081,-11.2443 -9.34027,-12.17011c-1.3001,-0.64731 -13.75934,6.64403 -15.1249,6.01034c-3.4058,-1.58044 -10.7201,-12.8776 -14.4518,-14.03089c-2.05493,-0.63508 -10.98792,10.50962 -13.10108,9.97633c-2.72518,-0.68774 -8.67599,-13.31024 -11.46161,-13.67573c-7.40811,-0.97201 -8.52362,5.95251 -14.6351,11.20833c-3.97139,3.41536 -12.5369,-14.8087 -16.29275,-10.82828c-4.66431,4.9432 -9.26325,9.69501 -14.04729,12.69779c-3.75325,2.3558 -12.28608,-11.79545 -15.55329,-9.58392c-15.77502,10.67786 -25.3007,17.50099 -22.93666,-0.51641c4.75364,-36.22962 45.11882,-2.36391 90.43758,-18.1239c43.37866,-15.0853 86.33667,1.87346 81.58303,38.10308z" fill="#623728" stroke-width="0"/></g><g stroke="#000000" stroke-linecap="butt"><path d="M363.91508,128.69596c-3.71534,28.31624 -18.68808,41.20847 -35.11581,39.05301c-16.42774,-2.15546 -28.08963,-18.5424 -24.37429,-46.85863c3.71534,-28.31624 20.04453,-49.52373 36.47226,-47.36827c16.42774,2.15546 26.73318,26.85765 23.01784,55.17389z" fill="#f0f0f0" stroke-width="2"/><path d="M320.10424,103.19735c-7.93895,27.4333 25.86139,65.96661 9.43366,63.81114c-16.42774,-2.15546 -28.08963,-18.5424 -24.37429,-46.85863c3.71534,-28.31624 26.41801,-56.61296 14.94063,-16.95252z" fill="#9a99ff" stroke-width="0"/></g><path d="M361.49235,135.67332c-2.05837,15.68775 -8.37607,27.79519 -14.11097,27.04272c-5.73491,-0.75247 -8.71533,-14.0799 -6.65696,-29.76765c2.05837,-15.68775 8.37607,-27.79519 14.11097,-27.04272c5.73491,0.75247 8.71533,14.0799 6.65696,29.76765z" fill="#000000" stroke="none" stroke-width="0" stroke-linecap="butt"/><g stroke="#000000" stroke-linecap="butt"><path d="M362.88169,98.06655c3.09073,10.72302 6.13354,29.36914 -9.44321,27.32534c-15.57675,-2.0438 -44.12954,-24.79321 -38.37247,-33.73547c5.47776,-8.50841 9.5185,-20.35359 25.09525,-18.30979c15.57675,2.0438 19.77492,14.50073 22.72042,24.71991z" fill="#a100fe" stroke-width="2"/><path d="M362.01136,97.59506c2.93996,10.70324 6.46816,29.41305 -8.57746,27.43893c-15.04562,-1.97412 -43.21064,-24.67264 -37.60723,-33.63506c5.33157,-8.5276 6.37734,1.80704 21.42296,3.78115c15.04562,1.97412 21.9599,-7.78536 24.76172,2.41497z" fill="#99008e" stroke-width="0"/></g><g data-paper-data="{&quot;index&quot;:null}" stroke="#000000" stroke-linecap="butt"><path d="M404.27471,80.34644c16.42774,2.15546 26.73318,26.85765 23.01784,55.17389c-3.71533,28.31623 -19.20992,41.14 -35.63766,38.98454c-16.42774,-2.15546 -27.56778,-18.47392 -23.85244,-46.79016c3.71534,-28.31624 20.04453,-49.52373 36.47226,-47.36827z" fill="#f0f0f0" stroke-width="2"/><path d="M426.76995,134.61437c-3.71533,28.31623 -19.20992,41.14 -35.63766,38.98454c-16.42774,-2.15546 26.16919,-30.66478 25.57609,-59.21756c-0.85744,-41.27888 13.7769,-8.08322 10.06157,20.23302z" fill="#9a99ff" stroke-width="0"/></g><path d="M418.77764,110.69339c5.73491,0.75247 8.71533,14.0799 6.65696,29.76765c-2.05837,15.68775 -8.37607,27.79519 -14.11097,27.04272c-5.73491,-0.75247 -8.71533,-14.0799 -6.65696,-29.76765c2.05837,-15.68775 8.37607,-27.79519 14.11097,-27.04272z" data-paper-data="{&quot;index&quot;:null}" fill="#000000" stroke="none" stroke-width="0" stroke-linecap="butt"/><g data-paper-data="{&quot;index&quot;:null}" stroke="#000000" stroke-linecap="butt"><path d="M376.67652,98.58692c5.4821,-9.1134 12.75176,-20.06565 28.32851,-18.02185c15.57675,2.0438 16.42494,14.53045 19.52232,24.164c3.25531,10.12476 -29.517,22.60892 -45.09375,20.56512c-15.57675,-2.0438 -8.50949,-17.14454 -2.7571,-26.70727z" fill="#a100fe" stroke-width="2"/><path d="M377.63902,98.35593c5.33843,-9.13225 9.50095,2.08059 24.54657,4.05471c15.04562,1.97412 18.72209,-7.74092 21.67327,1.87345c3.10166,10.1046 -30.89531,22.62979 -45.94093,20.65568c-15.04562,-1.97412 -5.88055,-17.00131 -0.27892,-26.58382z" fill="#99008e" stroke-width="0"/></g><path d="M361.91269,346.42476c-3.06757,11.25215 -19.56291,16.55478 -36.84335,11.84376c-17.28045,-4.71102 -28.80225,-17.65173 -25.73468,-28.90388c0.61322,-2.24933 3.58699,-13.28438 5.03315,-14.3187c5.78813,-4.13983 15.80659,9.76267 29.63264,13.53195c17.28045,4.71102 30.97984,6.59471 27.91225,17.84686z" fill="#000082" stroke="#000000" stroke-width="2" stroke-linecap="butt"/><path d="M360.81148,343.29253c-1.65926,6.08629 -16.08171,6.17777 -33.36217,1.46674c-17.28045,-4.71102 -28.32563,-10.78759 -26.66638,-16.87387c0.33169,-1.21667 3.26241,-12.09375 4.54214,-12.51759c5.122,-1.69639 13.48664,9.66002 27.31269,13.4293c17.28045,4.71102 29.83297,8.40914 28.17372,14.49542z" fill="#2e0048" stroke="#000000" stroke-width="0" stroke-linecap="butt"/><path d="M236.20663,255.14776c9.65225,-6.54637 15.87109,5.80464 25.92466,20.62805c8.04383,11.86018 24.44163,16.83623 22.39947,23.65314c-0.51023,1.70319 -9.98746,8.09051 -11.91697,9.39914c-9.65225,6.54637 -25.62697,-0.1635 -35.68053,-14.98692c-10.05356,-14.82341 -10.37888,-32.14704 -0.72663,-38.69341z" data-paper-data="{&quot;index&quot;:null}" fill="#000082" stroke="#000000" stroke-width="2" stroke-linecap="butt"/><path d="M262.36523,277.13602c8.04383,11.86018 21.49716,16.09613 21.55101,21.49147c0.01345,1.34801 -9.32827,7.64344 -10.37194,8.35128c-5.22091,3.54093 -14.54707,-4.94102 -24.60063,-19.76443c-10.05357,-14.82342 -14.63787,-28.49821 -9.41696,-32.03914c5.22091,-3.54093 12.78497,7.13741 22.83853,21.96082z" data-paper-data="{&quot;index&quot;:null}" fill="#2e0048" stroke="#000000" stroke-width="0" stroke-linecap="butt"/><g><path d="M293.44572,243.09368c-13.64858,-6.42956 -18.38675,-17.0484 -12.65804,-30.84302c4.48045,-10.78892 21.42031,-17.19712 35.06891,-10.76755c13.64866,6.42956 19.40893,19.91967 13.04348,33.43227c-0.99543,2.11311 -2.54126,3.76785 -3.93899,5.29238c-7.54025,8.22407 -20.00112,8.31004 -31.51534,2.88594z" fill="#485e84" stroke="#000000" stroke-width="2" stroke-linecap="butt"/><path d="M302.11421,200.62736c0,0 -2.84491,5.00375 -1.90518,6.77301c9.01403,16.97118 21.24051,23.87997 25.45874,25.85641c0.95837,0.44905 1.89018,-0.17752 1.89018,-0.17752c0,0 -0.69501,1.99626 -2.37227,4.1644c-1.78474,2.30709 -4.63827,4.82924 -7.45843,6.05064c-3.22143,1.39515 -11.46731,2.62558 -11.46731,2.62558l-20.11189,-5.86264c0,0 -5.62647,-12.21875 -5.79872,-14.37913c-0.16877,-2.11646 0.23856,-4.66926 0.56241,-7.40094c0.50284,-4.24131 2.5697,-8.28296 4.54928,-10.37486c2.52643,-2.66971 6.65226,-4.84444 10.28493,-6.01326c3.38088,-1.0878 6.36821,-1.26156 6.36821,-1.26156z" fill="#343545" stroke="none" stroke-width="0" stroke-linecap="butt"/><path d="M293.88347,223.63658c0,0 2.07058,-8.78128 6.0639,-12.04219c5.05511,-4.12799 16.98611,-9.20278 16.98611,-9.20278" fill="none" stroke="#000000" stroke-width="1" stroke-linecap="round"/><path d="M330.36164,227.97935c0,0 -4.3425,5.68089 -7.69212,8.37381c-3.38157,2.71867 -12.60164,5.7424 -12.60164,5.7424" fill="none" stroke="#000000" stroke-width="1" stroke-linecap="round"/><path d="M283.0445,221.94156c0,0 1.99077,-9.04561 6.47697,-12.38072c6.88393,-5.11759 17.35609,-10.10052 17.35609,-10.10052" fill="none" stroke="#000000" stroke-width="1" stroke-linecap="round"/><path d="M285.53343,206.86169c0,0 16.90504,-3.70065 29.78695,8.02966c14.1105,12.84906 6.46587,28.31031 6.46587,28.31031" fill="none" stroke="#000000" stroke-width="1" stroke-linecap="round"/><path d="M280.36156,214.859c0,0 17.77816,-0.89421 29.16766,9.43239c9.35181,8.4791 4.13081,22.10481 4.13081,22.10481" fill="none" stroke="#000000" stroke-width="1" stroke-linecap="round"/><path d="M324.07539,214.50361c-0.65944,-1.00615 -0.54827,-2.24496 0.24822,-2.76698c0.79649,-0.52209 1.2521,0.13091 1.91153,1.13706c0.65944,1.00615 1.27295,1.98441 0.47645,2.50645c-0.79649,0.52209 -1.97681,0.12962 -2.63619,-0.87652z" fill="#8fbbbe" stroke="none" stroke-width="0" stroke-linecap="butt"/><path d="M327.19564,221.07041c-0.54413,-0.25635 -0.67355,-1.12577 -0.28906,-1.94196c0.38449,-0.8162 0.65416,-1.09636 1.19829,-0.84005c0.54413,0.25635 0.83777,1.20313 0.45325,2.01931c-0.38449,0.8162 -0.81839,1.019 -1.3625,0.76268z" fill="#8fbbbe" stroke="none" stroke-width="0" stroke-linecap="butt"/><path d="M320.22925,208.7529c-0.7706,-0.4693 -1.14165,-1.26611 -0.82882,-1.77983c0.31278,-0.5137 0.95906,-0.05715 1.72965,0.4121c0.7706,0.4693 1.37372,0.77347 1.0609,1.28721c-0.31278,0.5137 -1.19115,0.54977 -1.96173,0.0805z" fill="#8fbbbe" stroke="none" stroke-width="0" stroke-linecap="butt"/><path d="M297.66028,201.13766c0,0 10.1698,1.12018 16.8615,4.67558c3.79385,2.01575 6.44173,5.10202 8.423,7.46438c1.75216,2.08912 3.6656,8.37915 4.62917,13.34602c0.70943,3.65683 0.71816,6.60079 0.71816,6.60079" fill="none" stroke="#000000" stroke-width="0.5" stroke-linecap="round"/><path d="M329.53661,213.54552c0,0 -4.86998,9.3841 -8.94154,12.93931c-3.43037,2.99536 -13.56702,7.15619 -13.56702,7.15619" fill="none" stroke="#000000" stroke-width="1" stroke-linecap="round"/><path d="M302.63388,229.76516c0,0 4.54781,-8.5291 7.61235,-11.85467c5.38074,-5.83906 15.10921,-9.54496 15.10921,-9.54496" fill="none" stroke="#000000" stroke-width="1" stroke-linecap="round"/></g><g stroke="#000000" stroke-linecap="butt"><path d="M281.3209,219.31226c24.43241,22.67986 23.34663,32.26507 17.84181,38.19527c-5.50483,5.93021 -29.77375,-7.64809 -54.20616,-30.32796c-24.4324,-22.67987 47.42322,-29.90889 52.92805,-35.83909c6.88596,-1.70639 6.23868,4.78812 1.14971,10.77631c-6.27589,7.38484 -19.80179,15.25689 -17.71341,17.19548z" fill="#585858" stroke-width="2"/><path d="M307.89997,227.49171c10.48701,9.73477 10.89373,26.34655 0.90843,37.10344c-9.9853,10.75689 -26.58139,11.58549 -37.0684,1.85072c-10.48701,-9.73477 -10.89372,-26.34656 -0.90842,-37.10345c9.9853,-10.75689 26.58139,-11.58548 37.0684,-1.85071z" fill="#faddbf" stroke-width="2"/><path d="M272.31245,248.67604c10.48701,9.73477 46.12158,4.28933 36.13628,15.04622c-9.9853,10.75689 -26.58139,11.58549 -37.0684,1.85071c-10.48701,-9.73477 -9.5549,-26.63171 0.93211,-16.89693z" fill="#ef8b89" stroke-width="0"/></g><path d="M294.11177,165.95111l12.07269,-92.01136c0,0 22.15277,-5.76708 32.64856,-4.38994c11.32086,1.48539 32.98885,13.00214 32.98885,13.00214l-12.07269,92.01136c0,0 -24.92945,2.57875 -36.2503,1.09336c-10.49579,-1.37714 -29.38711,-9.70556 -29.38711,-9.70556z" fill-opacity="0.74902" fill="#fffe00" stroke="#000000" stroke-width="2.5" stroke-linecap="butt"/><path d="M277.38865,131.57975c-0.15752,-0.22186 -0.29396,-0.4944 -0.39828,-0.82824c-0.74569,-2.3862 1.64051,-3.13189 1.64051,-3.13189c4.26592,-1.33176 8.89591,-3.38685 13.2389,-1.12749c3.21731,1.67375 7.3537,6.72303 4.24213,10.65345c-1.17555,1.48491 -6.54766,2.37649 -8.31786,1.87322c-1.61667,-0.45963 -2.60041,-2.30465 -4.21718,-2.76393c-1.88433,-0.53529 -3.79326,-1.18028 -5.41964,-2.27213z" fill="#000000" stroke="none" stroke-width="0.5" stroke-linecap="butt"/></g></g></svg>