<svg version="1.1" xmlns="http://www.w3.org/2000/svg" xmlns:xlink="http://www.w3.org/1999/xlink" width="336.07274" height="336.07274" viewBox="0,0,336.07274,336.07274"><g transform="translate(-151.96363,-11.96363)"><g data-paper-data="{&quot;isPaintingLayer&quot;:true}" fill-rule="nonzero" stroke-linejoin="miter" stroke-miterlimit="10" stroke-dasharray="" stroke-dashoffset="0" style="mix-blend-mode: normal"><path d="M356.67304,268.97141c0,0 -12.18328,-3.62089 -19.98119,-5.93845c-5.52504,-1.64205 -14.15719,-4.20755 -14.15719,-4.20755c0,0 -4.70829,-0.93745 -4.36177,-2.44128c1.0225,-4.43759 0.35765,-9.09775 2.87791,-12.89064c1.04654,-1.57501 5.32976,-1.35887 5.32976,-1.35887l32.99367,2.74654c0,0 3.41052,0.23919 5.36523,0.44568c2.08991,0.22078 4.93532,1.91115 4.57967,3.9824c-1.30582,7.60498 -0.7181,12.58309 -2.74203,17.112c-0.73736,1.64996 -1.62821,3.3526 -3.40183,3.69948c-2.31681,0.45311 -6.50227,-1.14931 -6.50227,-1.14931z" data-paper-data="{&quot;index&quot;:null}" fill="#4b4b4b" stroke="#000000" stroke-width="3" stroke-linecap="round"/><g data-paper-data="{&quot;index&quot;:null}" stroke="#000000" stroke-linecap="round"><path d="M345.29721,175.87169c0,0 16.48537,-1.91663 16.60775,4.63917c0.33221,17.79378 -28.52336,12.52517 -28.52336,12.52517z" data-paper-data="{&quot;origPos&quot;:null}" fill="#66c8ff" stroke-width="2"/><path d="M344.5619,177.37976c0,0 11.97804,-0.80135 12.69276,1.11047c0.22541,0.60299 -15.93554,2.81271 -15.93554,2.81271z" data-paper-data="{&quot;origPos&quot;:null}" fill="#0a0a0a" stroke-width="1"/></g><g data-paper-data="{&quot;index&quot;:null}"><path d="M346.75139,226.70489c0,0 1.17826,15.57605 -1.06075,15.89909c-6.71703,0.96915 -24.44534,0.48573 -39.55554,0.79312c-1.69743,0.03454 -1.76833,-14.77224 -1.76833,-14.77224l1.16008,-30.3452c0,0 1.05548,-13.4194 2.61147,-13.45105c10.06527,-0.20477 25.10482,-1.43199 31.72707,0.0604c2.20743,0.49745 4.48978,14.71618 4.48978,14.71618z" data-paper-data="{&quot;origPos&quot;:null}" fill="#66c8ff" stroke="#000000" stroke-width="3.5" stroke-linecap="round"/><path d="M325.35078,208.10853c-1.31458,0.02674 -1.36754,-2.43478 -1.36754,-2.43478l-0.03531,-1.64101c-0.10987,-5.10537 -0.21971,-10.21074 -0.32958,-15.31612c0,0 -0.05297,-2.46153 1.2616,-2.48827c1.31458,-0.02674 1.36754,2.43478 1.36754,2.43478c0.10987,5.10539 0.25503,11.85175 0.3649,16.95713c0,0 0.05297,2.46153 -1.2616,2.48827z" fill="#ffffff" stroke="none" stroke-width="0.5" stroke-linecap="butt"/><path d="M313.38358,207.93953c-1.31457,0.02675 -1.38111,-3.06562 -1.38111,-3.06562l-0.04435,-2.06158c-0.13801,-6.41381 -0.27603,-12.82759 -0.41404,-19.24138c0,0 -0.06654,-3.09236 1.24803,-3.1191c1.31457,-0.02675 1.38111,3.06562 1.38111,3.06562c0.13801,6.41379 0.32039,14.88914 0.4584,21.30293c0,0 0.06654,3.09236 -1.24803,3.1191z" fill="#ffffff" stroke="none" stroke-width="0.5" stroke-linecap="butt"/></g><path d="M302.72666,181.89644c0,0 -1.69319,-4.21825 -1.75022,-5.29128c-0.17111,-3.21907 0.02414,-17.26143 0.24402,-29.95229c0.034,-1.96295 1.7331,-5.00288 1.7331,-5.00288c0,0 2.26942,-1.57434 3.55372,-1.56013c14.16961,0.15679 27.67102,-0.77603 32.89814,0.84153c1.74238,0.53918 4.91668,2.31101 4.91668,2.31101c0,0 0.64802,4.36167 0.76519,5.48335c0.03906,0.37388 0.06209,0.58436 0.07817,0.95985c0.48192,11.25084 -0.19748,24.24993 -0.65448,28.78615c-0.15234,1.51208 -2.04198,3.84698 -2.04198,3.84698c0,0 -1.45874,2.6758 -5.95071,3.40306c-4.915,0.79576 -16.83248,0.23177 -29.12008,-0.38664z" data-paper-data="{&quot;index&quot;:null}" fill="#582700" stroke="#000000" stroke-width="2.5" stroke-linecap="round"/><path d="M309.91068,170.4644c-0.51944,-0.0085 -0.89265,-2.77916 -0.83359,-6.1884c0.05908,-3.40922 0.52807,-6.16608 1.04752,-6.15756c0.51944,0.0085 0.89265,2.77915 0.83359,6.18839c-0.05908,3.40923 -0.52807,6.16609 -1.04752,6.15757z" data-paper-data="{&quot;index&quot;:null}" fill="none" stroke="#000000" stroke-width="2.5" stroke-linecap="butt"/><path d="M314.9092,165.74952c-0.1861,-0.14568 0.77643,-1.60835 2.14986,-3.26699c1.37343,-1.65862 2.63768,-2.88511 2.82377,-2.73943c0.1861,0.14567 -0.77643,1.60836 -2.14986,3.267c-1.37343,1.65863 -2.63768,2.8851 -2.82377,2.73942z" data-paper-data="{&quot;index&quot;:null}" fill="none" stroke="#000000" stroke-width="2.5" stroke-linecap="butt"/><path d="M348.64657,144.21608c-0.72048,1.01977 -1.76929,0.31925 -1.76929,0.31925l-0.71826,-0.529c-0.09052,-0.03169 -0.181,-0.0629 -0.27146,-0.09362c-0.23015,0.30461 -0.6742,0.65687 -1.4185,0.40441c-0.68601,-0.2327 -0.84366,-0.71336 -0.85268,-1.08297c-2.66463,-0.69309 -5.33742,-1.04797 -8.14493,-1.33589c-7.86602,-0.54328 -15.75916,-0.49206 -23.64345,-0.59868c-2.58569,-0.03496 -8.38764,0.89823 -10.52324,-0.80045c-1.04153,-0.82845 -0.60221,-2.73331 -0.68953,-3.77695c-0.25302,-3.0242 -0.58409,-6.15624 -0.55236,-9.19239c0.06874,-3.96814 -1.40651,-7.53268 -1.8644,-11.43185c-0.22955,-1.95478 -0.88076,-3.92565 0.93957,-5.58731c0.51396,-0.46917 1.39993,-0.17924 2.10441,-0.2051c2.57468,-0.09452 5.06196,0.11098 7.60229,0.44059c8.0503,1.04455 16.01608,1.66953 24.00433,3.19361c3.22236,0.61861 6.4781,0.7317 9.75837,0.88496c1.92789,0.09008 3.69541,-0.4208 4.81731,1.73867c0.66999,1.28959 0.10251,5.24531 0.02596,6.71125c-0.29519,5.6527 0.51867,12.60886 -0.78722,18.28107c0.11869,0.03991 0.2374,0.08057 0.35618,0.12199l1.29858,0.81809c0,0 1.04881,0.70054 0.32834,1.72031z" data-paper-data="{&quot;index&quot;:null}" fill="#000000" stroke="none" stroke-width="0.5" stroke-linecap="butt"/><g data-paper-data="{&quot;index&quot;:null}" fill="none" stroke="#b9b9b9" stroke-width="3"><path d="M310.45939,189.7655c-1.14855,1.92214 -2.19987,0.83995 -3.47046,-0.34004c-0.99489,-0.92394 -2.53141,-1.85845 -1.13071,-3.93307c0.66064,-0.97846 1.91773,-0.63582 3.18831,0.54415c1.27058,1.17999 2.22616,2.36792 1.41288,3.72896z" stroke-linecap="butt"/><path d="M312.13465,191.64082l-2.68953,-2.43951" stroke-linecap="round"/><path d="M315.75743,192.19013c1.27057,1.18 2.22614,2.36793 1.41286,3.72897c-1.14855,1.92214 -2.19987,0.83994 -3.47045,-0.34004c-0.99489,-0.92394 -2.53141,-1.85845 -1.13071,-3.93307c0.66064,-0.97846 1.91773,-0.63582 3.18831,0.54415z" stroke-linecap="butt"/><path d="M318.84557,197.79443l-2.68953,-2.43953" stroke-linecap="round"/><path d="M324.55788,197.23048c0.62504,2.27332 -0.71804,2.61006 -2.25503,3.09555c-1.20349,0.38015 -2.73027,1.26955 -3.3109,-1.33743c-0.27385,-1.22954 0.6909,-2.21614 2.22789,-2.70164c1.53699,-0.4855 2.89547,-0.66621 3.33805,0.9435z" stroke-linecap="butt"/><path d="M326.79975,196.78645l-3.21419,1.06346" stroke-linecap="round"/><path d="M331.79211,192.75137c1.32308,1.814 0.20993,2.75459 -1.03076,3.92377c-0.97151,0.9155 -2.06905,2.45416 -3.46218,0.31018c-0.65704,-1.01116 -0.10416,-2.37689 1.13652,-3.54606c1.24067,-1.16917 2.41955,-1.9724 3.35641,-0.68791z" stroke-linecap="butt"/><path d="M333.68925,191.29074l-2.57861,2.48964" stroke-linecap="round"/><path d="M338.28068,186.55606c1.32308,1.814 0.20993,2.7546 -1.03075,3.92377c-0.97151,0.9155 -2.06906,2.45415 -3.46218,0.31018c-0.65704,-1.01116 -0.10417,-2.37689 1.13652,-3.54606c1.24067,-1.16917 2.41955,-1.97238 3.35641,-0.68791z" stroke-linecap="butt"/><path d="M340.17784,185.09542l-2.57862,2.48964" stroke-linecap="round"/></g><g data-paper-data="{&quot;origRot&quot;:0,&quot;index&quot;:null}" stroke="#000000" stroke-linecap="round"><path d="M324.64252,256.85756c0,0 2.0214,3.9767 1.78205,6.30166c-0.1832,1.77984 -1.8243,2.81487 -3.42658,3.69378c-4.39803,2.41248 -9.4992,2.29279 -17.08303,4.28149c-2.06549,0.54166 -4.0488,-2.10637 -4.47094,-4.14553c-0.39484,-1.90724 -0.96099,-5.2461 -0.96099,-5.2461l-5.91545,-32.26046c0,0 -0.62562,-4.20102 0.87135,-5.3777c3.60494,-2.83367 8.39118,-2.60855 12.79172,-4.02577c1.49129,-0.48026 2.88832,4.07303 2.88832,4.07303z" data-paper-data="{&quot;origPos&quot;:null}" fill="#ff0000" stroke-width="3"/><path d="M300.69694,262.79898l22.94582,-5.93052c0,0 1.78482,2.08709 2.19069,3.71087c0.38528,1.5414 -0.16352,4.39952 -0.16352,4.39952c0,0 -7.93406,3.39462 -11.73661,4.51408c-4.95619,1.45908 -11.51522,0.67627 -11.51522,0.67627z" data-paper-data="{&quot;origPos&quot;:null}" fill="#976e57" stroke-width="2"/><path d="M324.65788,257.18486c0,0 2.02139,3.9767 1.78204,6.30166c-0.18321,1.77983 -1.82429,2.81487 -3.42657,3.69378c-4.39803,2.41248 -9.49921,2.29278 -17.08304,4.28148c-2.06549,0.54165 -4.0488,-2.10637 -4.47094,-4.14553c-0.39483,-1.90723 -0.96097,-5.24611 -0.96097,-5.24611l-5.91545,-32.26046c0,0 -0.62562,-4.20101 0.87135,-5.37769c3.60494,-2.8337 8.39119,-2.60858 12.79172,-4.0258c1.49129,-0.48027 2.88832,4.07303 2.88832,4.07303z" data-paper-data="{&quot;origPos&quot;:null}" fill="#4b4b4b" stroke-width="3"/></g><g data-paper-data="{&quot;index&quot;:null}"><g><g fill="#582700"><path d="M263.85327,208.05174c3.25307,-7.78943 7,-19.55616 10.56909,-20.5626c2.19488,-0.61895 14.74087,-6.8607 16.08952,-5.81889c0.38951,0.30088 14.70146,3.32744 15.27362,5.39723c0.71325,2.58016 -3.39905,9.67407 -3.39905,9.67407c0,0 -4.46845,-1.32754 -9.17448,-2.72509c-5.29939,-1.57378 -10.90008,-3.23636 -10.76064,-3.19207c9.8205,3.11867 -20.35249,21.42833 -18.59806,17.22735z" stroke="#000000" stroke-width="3" stroke-linecap="round"/><path d="M280.55136,193.22454c-0.02067,-0.15613 -0.18532,-0.37511 -0.4068,-0.63036c-0.40462,-0.26313 -0.71907,-0.63225 -0.91243,-1.05668c-0.44304,-0.58786 -0.69829,-1.18946 -0.13794,-1.61372c0.3482,-1.32399 1.73435,-2.12282 3.09603,-1.78426c0.21345,0.05307 0.41362,0.13094 0.59809,0.22962c2.36884,-0.03663 3.7429,5.74419 2.76743,7.2988c-2.68221,4.27463 -8.37045,7.781 -12.72546,10.53625c-1.03152,0.6526 -3.46126,2.46833 -4.6803,2.55088c-2.75277,0.18639 -1.92168,1.06226 -0.56632,-1.1771c2.13998,-3.53571 6.4943,-7.36755 9.26242,-10.18548c0.38817,-0.39517 3.78348,-3.57715 3.70528,-4.16797z" stroke="none" stroke-width="0.5" stroke-linecap="butt"/></g><path d="M317.58486,205.27623c-3.42874,12.49814 -9.07498,27.77301 -14.26946,27.10498c-5.19448,-0.66804 -15.70458,-6.90783 -15.70458,-6.90783c0,0 -13.80513,-8.15298 -19.30309,-11.18144c-1.74168,-0.95938 -4.16765,-7.08567 -3.6973,-6.98841c9.53473,1.9715 21.08841,-17.69091 21.08841,-17.69091c0,0 13.17772,4.498 22.67352,8.45472c9.49582,3.95672 10.42381,2.79347 9.21248,7.20886z" data-paper-data="{&quot;origPos&quot;:null}" fill="#582700" stroke="#000000" stroke-width="3" stroke-linecap="round"/><path d="M293.77657,228.43734c-2.23717,-0.94604 9.37487,-30.81311 12.11943,-30.98305" fill="none" stroke="#000000" stroke-width="3" stroke-linecap="round"/><path d="M290.73188,226.92706c-2.98896,-0.7185 7.17816,-30.74689 12.00827,-30.33582" fill="none" stroke="#000000" stroke-width="3" stroke-linecap="round"/><path d="M289.62469,181.61615c-0.91757,0.39717 -1.62854,1.11314 -2.56149,1.56383c-3.20764,1.54955 -6.82368,3.62311 -10.37746,4.06953c-2.1018,0.60292 -2.89237,2.22036 -3.82337,4.00615c-1.66925,3.20183 -3.73621,6.38818 -4.66444,9.8825c-1.22737,2.20895 -1.70638,4.87647 -2.59287,7.23736c-0.15418,0.41058 -0.995,1.94355 -0.84614,2.3243c0.88585,2.26589 4.20911,3.5868 5.93165,5.02585c5.22609,2.70961 10.35508,5.60122 15.79912,7.93709c0.73191,0.34685 1.22862,0.70716 1.95269,0.98461c0.13063,0.05005 0.60297,0.40875 0.92041,0.66116c-0.39982,-0.71735 0.24614,-2.60214 0.37143,-3.07852c0.74065,-2.81618 1.64343,-5.55828 2.37606,-8.37045c2.49184,-5.85674 5.09874,-12.11467 8.96833,-17.25163c0.05446,-0.03176 0.10894,-0.06352 0.16339,-0.09525c-1.41505,-0.07103 -3.09385,-0.72826 -4.33122,-1.00061c-3.72194,-0.81918 -7.80104,-1.82032 -11.17136,-3.571c-0.06876,-0.02421 -0.13705,-0.04896 -0.20499,-0.07446c-0.2887,-0.07009 -0.57727,-0.14073 -0.8657,-0.21183l-0.00015,0.00056l-1.21805,-0.30285c-0.33637,-0.08364 -0.5393,-0.41656 -0.45328,-0.7436c0.08602,-0.32704 0.42839,-0.52437 0.76476,-0.44073l1.21805,0.30285l-0.00014,0.00052c0.3765,0.09436 0.75284,0.18935 1.12902,0.28489c0.09507,0.04994 0.19077,0.09926 0.28707,0.14797c0.7613,0.22365 1.51558,0.55507 2.39076,0.85431c2.61786,0.89509 5.5974,1.63981 8.3233,2.06674c1.48691,0.23288 4.10188,0.03309 5.13924,1.33356c0.62823,-2.15105 1.65323,-4.20502 2.49173,-6.28676c0.11375,-0.2824 0.93796,-1.89078 0.75067,-2.15017c-0.8004,-1.10846 -4.87854,-1.8694 -6.22836,-2.20502c-3.26241,-0.81116 -6.38198,-2.077 -9.63866,-2.90094zM290.82233,180.66706c2.94014,0.81542 5.78777,1.92849 8.75255,2.66565c1.60372,0.39875 6.12076,1.26287 6.99842,2.76604c0.48333,0.82782 -0.20908,1.85015 -0.48996,2.57352c-0.86765,2.23446 -1.51056,5.33951 -3.14197,7.21399l0.23262,0.14565c0.22929,0.13631 0.35092,0.40657 0.28086,0.67295c-0.06218,0.23638 -0.25831,0.40501 -0.48927,0.44874l-0.64556,0.13595c-0.13199,0.07439 -0.26399,0.14879 -0.39599,0.22317c-3.71658,4.97106 -6.21463,11.07744 -8.62082,16.73287c-0.80834,3.04622 -1.74326,6.0187 -2.55858,9.07679c-0.16021,0.60092 0.07442,2.84601 -0.24841,3.15195c-0.80519,0.76304 -3.83593,-1.38198 -4.53248,-1.70127c-5.49944,-2.35858 -10.73691,-5.25599 -15.98788,-8.04172c-1.90327,-1.61805 -5.65785,-3.1303 -6.44969,-5.79148c-0.20309,-0.68252 0.49046,-1.75559 0.73325,-2.35512c1.03713,-2.56095 1.42057,-5.46747 2.76766,-7.89188c0.85321,-3.27849 2.74462,-6.44669 4.3937,-9.41411c1.29169,-2.32432 2.20241,-4.40481 5.00274,-5.22478c3.47789,-0.44807 6.92798,-2.46927 10.07691,-3.96713c0.69638,-0.33124 1.26027,-0.7625 1.85902,-1.13953c-0.01229,-0.07826 -0.00849,-0.16848 0.0188,-0.27226c0.15574,-0.59218 0.76477,-0.44075 0.76477,-0.44075l0.42512,0.10571c0.16079,-0.05641 0.32881,-0.10502 0.50597,-0.14405c0,0 0.61438,-0.1294 0.74744,0.46798c0.00024,0.00105 0.00048,0.00212 0.00071,0.00318z" fill="#000000" stroke="none" stroke-width="0.5" stroke-linecap="butt"/><path d="M289.63505,181.57665c3.25668,0.82394 6.39264,2.09789 9.65505,2.90906c1.34982,0.33561 5.43479,1.10354 6.2352,2.212c0.1873,0.25938 -0.63561,1.86954 -0.74938,2.15197c-0.8385,2.08174 -1.85946,4.1432 -2.48769,6.29424c-1.03737,-1.30046 -3.72616,-1.06303 -5.21307,-1.29591c-2.7259,-0.42693 -5.68696,-1.15673 -8.30483,-2.05181c-0.8752,-0.29925 -1.62074,-0.62808 -2.38207,-0.85175c-0.09628,-0.04871 -0.19091,-0.09786 -0.28598,-0.14779c-0.37618,-0.09553 -0.7485,-0.19009 -1.12501,-0.28445l0.00014,-0.00052l-1.21384,-0.3028c-0.33636,-0.08363 -0.67601,0.11351 -0.76203,0.44055c-0.086,0.32705 0.1097,0.57877 0.44607,0.66241l1.22268,0.30278l0.00014,-0.00055c0.28844,0.07111 0.58042,0.142 0.86912,0.2121c0.06793,0.02548 0.13706,0.05035 0.20581,0.07456c3.37031,1.75067 7.48034,2.77285 11.20228,3.59202c1.23737,0.27234 2.91892,0.93575 4.33397,1.00679c-0.05445,0.03175 -0.10889,0.06359 -0.16334,0.09532c-3.8696,5.13696 -6.49325,11.44204 -8.98507,17.29877c-0.73264,2.81217 -1.64759,5.55955 -2.38824,8.37573c-0.12528,0.47637 -0.7732,2.36163 -0.37338,3.07897c-0.31744,-0.25241 -0.79112,-0.61086 -0.92174,-0.66091c-0.72407,-0.27745 -1.22401,-0.63731 -1.95592,-0.98417c-5.44404,-2.33586 -10.60649,-5.23875 -15.83256,-7.94837c-1.72255,-1.43906 -5.05483,-2.77244 -5.94068,-5.03834c-0.14884,-0.38075 0.69054,-1.91725 0.84472,-2.32784c0.8865,-2.36089 1.36329,-5.04431 2.59067,-7.25325c0.92822,-3.49432 3.00718,-6.70662 4.67643,-9.90845c0.931,-1.78579 1.73291,-3.41118 3.83471,-4.0141c3.5538,-0.44643 7.19436,-2.52375 10.402,-4.07329c0.93296,-0.4507 1.64827,-1.16581 2.56584,-1.56299z" data-paper-data="{&quot;noHover&quot;:false,&quot;origItem&quot;:[&quot;Path&quot;,{&quot;applyMatrix&quot;:true,&quot;segments&quot;:[[[230.82308,152.52668],[0,0],[-0.93988,0.74338]],[[228.33766,155.1429],[0.94139,-0.81156],[-3.23664,2.79023]],[[217.57953,163.04819],[3.97209,-1.58115],[-2.24615,1.33801]],[[214.37799,168.94085],[0.53327,-2.39813],[-0.95612,4.29976]],[[211.99064,182.06795],[0.01066,-4.42845],[-0.7472,2.98879]],[[211.1937,191.43817],[0.307,-3.06867],[-0.05339,0.53367]],[[210.92223,194.45142],[-0.2878,-0.40863],[1.71279,2.43186]],[[219.30646,198.67289],[-2.42854,-1.20161],[6.86452,1.67648]],[[239.98146,203.43859],[-7.00284,-1.16771],[0.95146,0.19601]],[[242.53788,204.03192],[-0.9213,-0.11581],[0.16621,0.02089]],[[243.80278,204.54585],[-0.44366,-0.20624],[-0.68022,-0.7346]],[[243.29624,200.77631],[0,0.60336],[0,-3.56681]],[[243.49813,190.12314],[0.00805,3.55968],[1.09986,-7.69905]],[[248.62011,166.96343],[-2.91121,7.25063],[0.05329,-0.05383]],[[248.78,166.80192],[-0.05329,0.05384],[-1.65725,0.33382]],[[243.46938,166.89261],[1.51307,-0.04199],[-4.5512,0.1263]],[[229.47086,165.94945],[4.42793,1.08501],[-0.08683,-0.00846]],[[229.21129,165.92152],[0.08627,0.01022],[-0.35502,0.00201]],[[228.14624,165.92558],[0.35502,-0.00073],[0,0]],[228.14624,165.92629],[[226.64624,165.92629],[0,0],[-0.41422,0]],[[225.89624,165.17629],[0,0.41422],[0,-0.41422]],[[226.64624,164.42629],[-0.41422,0],[0,0]],[228.14624,164.42629],[[228.14624,164.42695],[0,0],[0.46388,0.00087]],[[229.53787,164.4319],[-0.46387,-0.00238],[0.12507,0.03126]],[[229.91467,164.52296],[-0.12612,-0.02945],[0.948,0.04085]],[[232.93787,164.8319],[-1.10259,-0.09705],[3.29808,0.29029]],[[243.18703,164.82862],[-3.28065,0.2982],[1.78951,-0.16266]],[[249.53285,164.89489],[-1.59443,-1.23936],[0.07225,-2.74287]],[[250.50186,156.68464],[-0.33637,2.72263],[0.04564,-0.36937]],[[250.71591,153.90661],[0.29535,0.25299],[-1.26215,-1.08115]],[[242.84624,153.12628],[1.66228,0],[-4.0176,0]],[[230.82306,152.52665],[4.01487,0.01687],[0,0]]],&quot;closed&quot;:true,&quot;fillColor&quot;:[0,0,0,1]}]}" fill="#66c8ff" stroke="none" stroke-width="0.5" stroke-linecap="butt"/><path d="M296.5137,212.86468c-1.1705,4.4327 -2.57412,8.80998 -3.72906,13.23944l-0.23733,0.90235c-0.11468,0.43606 -0.5712,0.69916 -1.01967,0.58765c-0.36529,-0.09082 -0.61257,-0.40215 -0.62976,-0.75016l-0.07964,-1.08292l0.26644,-0.01853c-0.26465,-1.70632 0.28124,-3.06312 0.67379,-5.12868c0.85971,-4.52362 2.85343,-9.21228 4.66549,-13.46332c0.31549,-0.60608 0.65958,-1.19379 1.02085,-1.77073c1.06603,-2.3329 2.32197,-4.60271 3.69837,-6.71702c0.0959,-0.20814 0.189,-0.41761 0.27879,-0.62865l0.04898,-0.03649l-0.02187,-0.01241l0.43032,-0.71631c0.1036,-0.18186 0.27415,-0.31579 0.47207,-0.37905c0.01343,-0.01881 0.02685,-0.0376 0.04029,-0.05638c0,0 0.47955,-0.66841 1.16696,-0.20212c0.68743,0.46629 0.20787,1.13468 0.20787,1.13468c-0.16915,0.23507 -0.33698,0.47294 -0.50332,0.71345l-0.1947,0.74032l-0.01172,-0.00291c0.11272,0.1807 0.1535,0.40363 0.0954,0.62457c-0.02467,0.09377 -0.06513,0.17952 -0.11793,0.2553l-0.6044,0.91262l-0.05641,-0.03532c-0.05948,0.09778 -0.11955,0.1952 -0.18013,0.29226c-0.02031,0.05314 -0.04091,0.10616 -0.06186,0.15906c-1.11901,3.08713 -3.09058,6.25203 -4.67502,9.01623l0.04985,0.02067l-0.25571,0.58319c-0.05192,0.16874 -0.10056,0.33903 -0.14558,0.51098l-0.20765,0.78955c0,0 -0.09009,0.34256 -0.38367,0.5187z" fill="#ffffff" stroke="none" stroke-width="0.5" stroke-linecap="butt"/><g fill="#fffc96" stroke="#000000" stroke-width="2" stroke-linecap="round"><path d="M287.23597,192.83699c0,0 -1.74306,5.01997 -2.15535,12.77349c-0.41808,7.86248 0.56955,14.20774 0.56955,14.20774l1.86973,0.64741c0,0 -1.00822,3.14415 -3.10283,2.6836c-5.12656,-1.12719 -2.53863,-34.82175 2.44834,-34.0262c3.11695,0.49724 2.47701,4.95753 2.47701,4.95753z"/><path d="M296.32994,197.25062c0,0 -5.41073,2.76817 -11.86952,8.45445c-6.45881,5.68625 -9.93558,10.20395 -9.93558,10.20395l1.35774,0.515c0,0 -2.03518,3.09232 -4.79389,2.02423c-4.55516,-1.7636 23.55655,-27.34547 27.71564,-24.49351c1.98134,1.35862 -1.26702,3.92834 -1.26702,3.92834z" data-paper-data="{&quot;index&quot;:null}"/></g></g><g data-paper-data="{&quot;index&quot;:null}"><g data-paper-data="{&quot;index&quot;:null}"><path d="M310.43598,197.7727c2.41788,0.87478 7.80771,-1.43335 6.97216,0.75c-0.55664,1.45456 -13.23539,19.84609 -15.21434,20.46286c-0.99154,0.30904 -2.37828,0.23911 -3.18537,-0.05288c-1.18627,-0.42921 -1.93362,-1.3931 -2.25501,-2.60922c-0.33362,-1.26262 7.03493,-21.72344 7.46051,-22.83556c0.83555,-2.18333 3.80419,3.40999 6.22207,4.28478z" fill="#0091d4" stroke="#000000" stroke-width="1.5" stroke-linecap="butt"/><g stroke-linecap="butt"><path d="M313.17788,190.54231c4.38061,1.58491 7.0593,5.14962 5.98302,7.962c-1.07628,2.81239 -5.49998,3.80746 -9.8806,2.22256c-4.3806,-1.58494 -7.05928,-5.14965 -5.983,-7.96203c1.07626,-2.81239 5.49994,-3.80746 9.88056,-2.22255z" fill="#0091d4" stroke="#000000" stroke-width="1.5"/><path d="M314.6515,198.3202l4.16053,-0.25912c0,0 -1.38971,1.53578 -2.1797,1.91643c-1.66809,0.77409 -3.45576,0.55173 -3.45576,0.55173z" fill="#00aeff" stroke="none" stroke-width="0"/><path d="M310.85576,197.85208l1.70692,0.28148c0,0 -0.26688,1.02706 -0.4227,1.36568c-0.18245,0.39648 -0.72878,1.01708 -0.72878,1.01708l-1.93407,-0.64245z" fill="#00aeff" stroke="none" stroke-width="0"/></g><g><path d="M310.68235,196.73588c-6.04312,-2.1864 -8.07011,-6.85711 -5.82145,-12.73299c2.24865,-5.87584 9.28015,-8.7547 15.32334,-6.5683c6.04314,2.18639 8.7303,7.89584 6.48164,13.77172c-2.24865,5.87583 -9.9403,7.71597 -15.98349,5.52957z" fill="#00699a" stroke="#000000" stroke-width="1.5" stroke-linecap="butt"/><path d="M321.91959,178.99653c0,0 6.95349,5.23304 4.98609,10.37397c-1.11564,2.91529 -3.73167,5.40874 -6.39945,6.96138c-1.90066,1.10618 -4.31468,1.51043 -6.45079,0.7376c-4.39077,-1.58859 -5.22466,-4.05465 -3.25726,-9.19558c0.98251,-2.56731 3.73513,-5.16122 6.42322,-6.58906c2.69463,-1.43131 4.69819,-2.28827 4.69819,-2.28827z" fill="#0091d4" stroke="none" stroke-width="0" stroke-linecap="butt"/><path d="M326.30419,191.14877c0,0 -4.52583,2.95219 -11.6084,0.6655c-7.14059,-2.30542 -8.97424,-7.04938 -8.97424,-7.04938" fill="none" stroke="#000000" stroke-width="0.8" stroke-linecap="round"/><path d="M323.25732,195.36113c0,0 -4.95895,0.76867 -9.63664,-0.18381c-6.74117,-1.37265 -8.46026,-4.3042 -8.46026,-4.3042" fill="none" stroke="#000000" stroke-width="0.75" stroke-linecap="round"/><path d="M327.08585,186.2497c0,0 -4.48494,2.27956 -11.70704,0.37891c-6.94637,-1.82808 -8.20287,-4.5928 -8.20287,-4.5928" fill="none" stroke="#000000" stroke-width="0.8" stroke-linecap="round"/><path d="M307.74957,180.71538c0,0 5.03292,-0.79474 8.75358,-0.43559c4.90069,0.47302 9.50103,2.19042 9.50103,2.19042" fill="none" stroke="#000000" stroke-width="0.8" stroke-linecap="round"/><path d="M308.65669,195.12759c0,0 -1.1952,-4.14574 0.91707,-10.43053c1.97112,-5.86478 5.89418,-7.36757 5.89418,-7.36757" fill="none" stroke="#000000" stroke-width="0.8" stroke-linecap="round"/><path d="M317.8002,177.84111c0,0 -1.3232,2.86213 -2.25633,6.16793c-0.82059,2.90716 -1.22566,6.18354 -1.7383,7.79672c-0.60891,1.91603 -2.02667,4.98293 -2.02667,4.98293" fill="none" stroke="#000000" stroke-width="0.8" stroke-linecap="round"/><path d="M320.7619,178.31477c0,0 1.38644,5.68663 -0.04021,9.76197c-2.23917,6.39638 -6.13738,9.59407 -6.13738,9.59407" fill="none" stroke="#000000" stroke-width="0.8" stroke-linecap="round"/><path d="M324.06413,180.04102c0,0 1.20726,4.10414 0.35984,8.34362c-1.22034,6.10499 -3.92042,8.63751 -3.92042,8.63751" fill="none" stroke="#000000" stroke-width="0.8" stroke-linecap="round"/><path d="M325.2951,189.32211c-0.4309,-0.1559 -0.63025,-0.67421 -0.44524,-1.15762c0.185,-0.48343 0.68429,-0.74893 1.11518,-0.59303c0.43092,0.15591 0.63026,0.67419 0.44525,1.1576c-0.18501,0.48343 -0.68429,0.74894 -1.11518,0.59304z" fill="#00aeff" stroke="none" stroke-width="0" stroke-linecap="butt"/><path d="M325.67547,185.73943c-0.2486,-0.08995 -0.37512,-0.35881 -0.28262,-0.60051c0.09251,-0.24169 0.36902,-0.36473 0.6176,-0.27479c0.24859,0.08994 0.37513,0.3588 0.28263,0.6005c-0.0925,0.24172 -0.36902,0.36474 -0.6176,0.2748z" fill="#00aeff" stroke="none" stroke-width="0" stroke-linecap="butt"/></g></g><path d="M312.73799,201.11424c0.97662,-0.17805 2.92012,0.9723 2.92012,0.9723l4.89136,2.53052c0,0 0.73006,1.17225 0.54519,1.91961c-0.55457,2.24207 -2.25136,6.29296 -3.77912,10.61543c-0.25397,0.71848 -1.3679,0.4846 -1.3679,0.4846c0,0 -1.6647,-0.63906 -2.7302,-1.04812c-1.62266,-0.62293 -4.15786,-1.59618 -4.15786,-1.59618c0,0 -1.35013,-0.34152 -0.85617,-1.64725c0,0 0.02431,-2.04515 4.53454,-12.23097z" fill="#582700" stroke="#000000" stroke-width="3" stroke-linecap="round"/><path d="M299.72198,197.60824c1.78033,-0.43903 5.22532,1.77687 5.22532,1.77687l8.69405,4.82806c0,0 1.24592,2.35212 0.8625,3.90059c-1.15027,4.64544 -4.48682,13.09086 -7.53499,22.08114c-0.50667,1.49434 -2.50889,1.09789 -2.50889,1.09789c0,0 -2.97335,-1.18703 -4.87645,-1.9468c-2.89821,-1.15706 -7.42635,-2.96479 -7.42635,-2.96479c0,0 -2.42303,-0.59967 -1.44346,-3.31788c0,0 0.17711,-4.20118 9.00825,-25.4551z" fill="#582700" stroke="#000000" stroke-width="3" stroke-linecap="round"/></g></g><path d="M317.50676,167.65133c1.37343,1.65863 2.33596,3.12133 2.14987,3.267c-0.18609,0.14569 -1.45034,-1.0808 -2.82377,-2.73943c-1.37343,-1.65863 -2.33595,-3.1213 -2.14986,-3.26699c0.18609,-0.14569 1.45034,1.08079 2.82377,2.73942z" data-paper-data="{&quot;index&quot;:null}" fill="none" stroke="#000000" stroke-width="2.5" stroke-linecap="butt"/><g data-paper-data="{&quot;index&quot;:null}"><g stroke="#000000" stroke-width="3" stroke-linecap="round"><path d="M378.31661,221.74314c-12.27963,11.77336 -22.36094,13.03814 -22.36094,13.03814c-1.72234,1.11967 -4.77684,-5.43158 -4.77684,-5.43158c0,0 -6.39451,-12.59775 -10.48732,-20.66093c-2.6875,-5.29462 -6.88641,-13.5668 -6.88641,-13.5668c0,0 -2.42509,-5.3624 -1.44593,-5.89587c5.89081,-3.20949 10.9451,-7.4432 14.41946,-8.00734c1.15813,-0.18805 4.77014,4.23599 4.77014,4.23599l18.65907,23.57878c0,0 6.74309,8.35025 8.10877,12.70961z" data-paper-data="{&quot;origPos&quot;:null}" fill="#582700"/><path d="M373.07375,213.99689l-22.32144,13.25763l-1.78616,-2.87987l22.22153,-13.49418z" data-paper-data="{&quot;origPos&quot;:null}" fill="none"/></g><path d="M348.53678,224.09808l-15.85933,-33.02915l0.75325,-1.22972l13.68383,-8.27915l23.19641,29.3087z" fill="#66c8ff" stroke="#000000" stroke-width="1" stroke-linecap="round"/><path d="M350.4859,226.89689l-1.23494,-1.96678l22.16402,-13.20032l1.23495,1.96677z" fill="#ffffff" stroke="none" stroke-width="0" stroke-linecap="butt"/></g><path d="M322.19749,176.18645c-0.72069,-1.89856 -0.34337,-3.85325 0.84274,-4.36594c1.18612,-0.51269 2.73189,0.61077 3.45257,2.50932c0.72068,1.89856 0.34337,3.85326 -0.84274,4.36595c-1.18611,0.51268 -2.73189,-0.61079 -3.45257,-2.50934z" data-paper-data="{&quot;index&quot;:null}" fill="#ff8484" stroke="#000000" stroke-width="1.25" stroke-linecap="butt"/><path d="M151.96363,348.03637v-336.07274h336.07274v336.07274z" data-paper-data="{&quot;index&quot;:null}" fill="none" stroke="#000000" stroke-width="0" stroke-linecap="butt"/></g></g></svg>