<svg version="1.1" xmlns="http://www.w3.org/2000/svg" xmlns:xlink="http://www.w3.org/1999/xlink" width="225.96132" height="349.53934" viewBox="0,0,225.96132,349.53934"><g transform="translate(-224.78117,-10.97568)"><g data-paper-data="{&quot;isPaintingLayer&quot;:true}" fill-rule="nonzero" stroke-linejoin="miter" stroke-miterlimit="10" stroke-dasharray="" stroke-dashoffset="0" style="mix-blend-mode: normal"><g data-paper-data="{&quot;index&quot;:null}" stroke="#000000" stroke-linecap="butt"><path d="M374.35276,223.43669c21.07441,-25.82998 30.70938,-25.35814 36.97879,-20.24298c6.26943,5.11515 -5.7324,30.20115 -26.80683,56.03113c-21.07443,25.82998 -32.87437,-45.41783 -39.14378,-50.53299c-2.14236,-6.76304 4.38023,-6.53152 10.68097,-1.83509c7.77031,5.79182 16.4895,18.78777 18.29087,16.57992z" fill="#216aff" stroke-width="2"/><path d="M380.81934,196.38979c9.04566,-11.08689 25.59762,-12.55288 36.96983,-3.27443c11.37221,9.27847 13.25825,25.78786 4.21258,36.87474c-9.04567,11.08689 -25.59763,12.55289 -36.96985,3.27443c-11.37221,-9.27847 -13.25824,-25.78784 -4.21256,-36.87473z" fill="#faddbf" stroke-width="2"/><path d="M404.23157,230.55285c9.04567,-11.08689 1.33721,-46.30131 12.70941,-37.02284c11.37221,9.27847 13.25823,25.78786 4.21256,36.87473c-9.04567,11.08689 -25.96766,11.23501 -16.92198,0.14812z" fill="#ef8b89" stroke-width="0"/></g><path d="M224.78117,360.17125v-93.89347h213.03043v93.89347z" fill="#000000" stroke="none" stroke-width="NaN" stroke-linecap="butt"/><g><path d="M406.12241,197.73484c-14.50629,4.14615 -25.06375,-0.72726 -29.83358,-14.88207c-3.73056,-11.07061 4.80121,-27.0466 19.30752,-31.19276c14.50635,-4.14619 27.72348,2.2155 31.82835,16.57722c0.64193,2.2459 0.56779,4.50914 0.51941,6.57688c-0.26116,11.15447 -9.58389,19.42294 -21.82168,22.92073z" fill="#216aff" stroke="#000000" stroke-width="2" stroke-linecap="butt"/><path d="M384.68905,160.06336c0,0 1.15289,5.63933 3.02506,6.35236c17.95804,6.83976 31.70942,3.99058 36.18571,2.70114c1.017,-0.29295 1.30587,-1.37803 1.30587,-1.37803c0,0 0.79112,1.96016 0.95607,4.69637c0.17551,2.91156 -0.31186,6.68863 -1.63048,9.46468c-1.50627,3.171 -6.90289,9.52591 -6.90289,9.52591l-18.99801,8.82806c0,0 -12.2794,-5.49284 -13.83137,-7.00555c-1.52042,-1.48195 -2.8945,-3.67162 -4.44916,-5.94097c-2.41382,-3.52349 -3.51896,-7.9264 -3.40615,-10.80426c0.14401,-3.6728 1.81778,-8.02601 3.78259,-11.29738c1.82863,-3.04462 3.96281,-5.14216 3.96281,-5.14216z" fill="#3236f4" stroke="none" stroke-width="0" stroke-linecap="butt"/><path d="M393.64212,182.80126c0,0 -4.22273,-7.97288 -3.36379,-13.05641c1.08729,-6.43523 6.72674,-18.10995 6.72674,-18.10995" fill="none" stroke="#000000" stroke-width="1" stroke-linecap="round"/><path d="M423.95843,162.05426c0,0 0.47147,7.13496 -0.27689,11.36718c-0.75545,4.27266 -5.70472,12.61874 -5.70472,12.61874" fill="none" stroke="#000000" stroke-width="1" stroke-linecap="round"/><path d="M384.36768,188.66137c0,0 -4.45683,-8.11928 -3.27575,-13.58318c1.81232,-8.38413 6.41419,-19.02926 6.41419,-19.02926" fill="none" stroke="#000000" stroke-width="1" stroke-linecap="round"/><path d="M376.31311,175.6721c0,0 10.28809,-13.91511 27.70712,-13.56662c19.08033,0.38171 23.50528,17.05236 23.50528,17.05236" fill="none" stroke="#000000" stroke-width="1" stroke-linecap="round"/><path d="M377.68532,185.09664c0,0 12.79295,-12.37751 28.16448,-12.10307c12.62144,0.22537 17.66222,13.91878 17.66222,13.91878" fill="none" stroke="#000000" stroke-width="1" stroke-linecap="round"/><path d="M410.35487,156.04967c-1.15877,-0.32317 -1.89068,-1.32883 -1.63484,-2.24613c0.2558,-0.91735 1.02864,-0.7258 2.18741,-0.40261c1.15877,0.32317 2.2646,0.65561 2.00877,1.57293c-0.2558,0.91735 -1.40261,1.39902 -2.56132,1.0758z" fill="#8fbbbe" stroke="none" stroke-width="0" stroke-linecap="butt"/><path d="M417.02681,158.93826c-0.57834,0.16527 -1.24815,-0.40393 -1.49609,-1.27142c-0.24795,-0.86748 -0.22941,-1.25591 0.34889,-1.42122c0.57834,-0.16527 1.42267,0.35406 1.67059,1.22154c0.24795,0.86748 0.05487,1.3058 -0.52343,1.47108z" fill="#8fbbbe" stroke="none" stroke-width="0" stroke-linecap="butt"/><path d="M403.67381,154.25322c-0.889,0.15409 -1.69289,-0.20139 -1.79563,-0.79402c-0.10278,-0.59258 0.68427,-0.67443 1.57322,-0.82854c0.889,-0.15409 1.54322,-0.3222 1.64598,0.27044c0.10278,0.59258 -0.53463,1.198 -1.42361,1.35211z" fill="#8fbbbe" stroke="none" stroke-width="0" stroke-linecap="butt"/><path d="M381.67253,163.37975c0,0 8.39231,-5.85222 15.76991,-7.58162c4.18274,-0.98047 8.20767,-0.40068 11.25427,0.07309c2.69426,0.41893 8.2756,3.89372 12.27088,6.99791c2.9415,2.28545 4.88627,4.49562 4.88627,4.49562" fill="none" stroke="#000000" stroke-width="0.5" stroke-linecap="round"/><path d="M413.83475,151.73303c0,0 2.51247,10.26963 1.78842,15.6262c-0.61001,4.51304 -5.50057,14.31849 -5.50057,14.31849" fill="none" stroke="#000000" stroke-width="1" stroke-linecap="round"/><path d="M404.2634,181.65331c0,0 -2.19208,-9.41397 -2.07482,-13.93471c0.20589,-7.93754 5.0887,-17.13183 5.0887,-17.13183" fill="none" stroke="#000000" stroke-width="1" stroke-linecap="round"/></g><path d="M392.06973,319.40454c0,0 2.25056,-54.16986 2.25056,-78.3946c0,-20.74482 -6.0015,-52.51313 -6.0015,-52.51313l24.3811,-6.37659l3.00075,137.28432z" fill="#000000" stroke="none" stroke-width="0" stroke-linecap="butt"/><path d="M428.45383,191.31001c0,5.4897 -11.25166,9.93998 -25.13128,9.93998c-13.87962,0 -25.13128,-4.45028 -25.13128,-9.93998c0,-5.4897 11.25166,-9.93998 25.13128,-9.93998c13.87962,0 25.13128,4.45028 25.13128,9.93998z" fill="#000000" stroke="none" stroke-width="NaN" stroke-linecap="butt"/><g stroke="#000000" stroke-linecap="butt"><path d="M311.73544,325.5006l22.83398,-92.51882l28.63284,7.0667l-22.83399,92.51882z" fill="#73fffc" stroke-width="2"/><path d="M311.56724,324.82261l23.75999,-90.7358c0,0 -11.26933,67.37473 -12.38285,76.7986c-0.24616,2.08333 1.78032,3.31297 1.78032,3.31297l14.91627,17.21459z" fill="#59a9e6" stroke-width="0"/></g><path d="M374.21682,338.89696c-2.79457,11.32304 -19.15684,17.02303 -36.54616,12.73129c-17.38932,-4.29174 -29.22071,-16.95004 -26.42614,-28.27308c0.55864,-2.26351 3.26469,-13.36723 4.68541,-14.43623c5.68633,-4.27859 16.03806,9.37757 29.95121,12.81138c17.38932,4.29174 31.13025,5.84359 28.33568,17.16663z" fill="#000082" stroke="#000000" stroke-width="2" stroke-linecap="butt"/><path d="M373.04019,335.79227c-1.51159,6.12464 -15.92761,6.56488 -33.31694,2.27312c-17.38932,-4.29174 -28.57824,-10.09944 -27.06665,-16.22408c0.30217,-1.22433 2.96901,-12.16912 4.2381,-12.62378c5.07948,-1.81975 13.71631,9.33105 27.62946,12.76486c17.38932,4.29174 30.02761,7.68523 28.51602,13.80987z" fill="#2e0048" stroke="#000000" stroke-width="0" stroke-linecap="butt"/><g fill="none" stroke="#808080" stroke-width="0.5" stroke-linecap="round"><path d="M437.84876,280.63432l-193.59492,1.15407l-17.0225,-13.84882"/><path d="M243.96532,281.78839l-2.01962,78.47663"/></g><g stroke="#000000" stroke-linecap="butt"><path d="M297.63636,339.13686l-13.47369,-94.33759l29.19572,-4.16985l13.47369,94.33759z" fill="#73fffc" stroke-width="2"/><path d="M297.22651,338.57122l-11.94737,-93.03108c0,0 14.78097,66.69238 17.27751,75.84752c0.5519,2.02391 2.8914,2.40522 2.8914,2.40522l20.27738,10.37619z" fill="#59a9e6" stroke-width="0"/></g><g stroke="#000000" stroke-linecap="butt"><path d="M355.22917,224.78181c0,13.80271 10.04743,36.74388 4.95001,46.45977c-6.2338,11.88187 -28.61241,9.09579 -38.9397,9.09579c-13.66287,0 -32.94407,4.17018 -38.34426,-14.83216c-2.01935,-7.10576 4.35457,-32.37264 4.35457,-40.7234c0,-30.68249 15.2177,-55.55556 33.98969,-55.55556c18.77199,0 33.98969,24.87307 33.98969,55.55556z" fill="#216aff" stroke-width="2"/><path d="M303.96554,240.35839c0,13.80271 62.04198,20.54886 56.94455,30.26474c-6.2338,11.88186 -28.61241,9.09579 -38.9397,9.09579c-13.66287,0 -32.94406,4.17018 -38.34425,-14.83215c-2.01936,-7.10576 4.35457,-32.37265 4.35457,-40.7234c0,-9.45244 3.34855,-28.59801 5.51953,-29.96813c5.94391,-16.76415 10.4653,25.13995 10.4653,46.16315z" fill="#3236f4" stroke-width="0"/></g><g stroke="#000000" stroke-linecap="butt"><g><path d="M256.42445,90.99063c4.70795,-46.55333 46.26342,-80.47574 92.81676,-75.7678c46.55333,4.70795 80.47574,46.26342 75.7678,92.81676c-4.70795,46.55333 -46.26342,80.47574 -92.81676,75.7678c-46.55333,-4.70795 -80.47574,-46.26342 -75.7678,-92.81676z" fill="#faddbf" stroke-width="2"/><path d="M256.74154,90.14874c1.51471,-14.97789 12.73976,-39.93198 17.54933,-42.67616c0.54925,-0.3134 6.65358,-8.28286 14.81172,-14.20862c10.14002,-7.36531 22.73156,-12.93488 23.3194,-12.67736c7.6696,3.35975 -23.96309,62.76233 -25.27506,88.04858c-0.00314,0.0603 2.40277,20.04506 3.96888,20.6446c2.39367,5.00874 7.13752,19.97288 17.2452,28.17162c18.83683,15.27932 46.71334,24.50463 45.18669,24.85856c-2.44209,0.56615 -15.0062,1.26558 -21.03834,0.65555c-46.55333,-4.70795 -80.47574,-46.26342 -75.7678,-92.81676z" fill="#ef8b89" stroke-width="0"/><path d="M424.53432,107.53106c-1.16961,11.56534 -3.14358,15.40258 -3.50651,13.50471c-0.37028,-1.93617 0.80169,-9.7826 -7.52273,-15.48474c-2.01716,-1.38173 -10.78593,5.21728 -13.37612,3.72093c-1.62693,-0.93988 -7.58441,-10.99445 -9.42035,-11.85961c-1.28366,-0.60491 -13.22985,7.08237 -14.57696,6.49319c-3.35972,-1.46944 -10.7833,-12.52208 -14.44927,-13.55419c-2.01873,-0.56835 -10.42798,10.85563 -12.50075,10.39086c-2.67311,-0.59937 -8.80323,-13.02026 -11.52674,-13.29568c-7.24291,-0.73246 -8.14723,6.22261 -13.96279,11.67136c-3.77909,3.54072 -12.60419,-14.39313 -16.15841,-10.29473c-4.41392,5.08969 -8.76919,9.98606 -13.35087,13.14069c-3.5945,2.47494 -12.28043,-11.3903 -15.40521,-9.07517c-15.08734,11.17802 -24.18787,18.30289 -22.35947,0.22329c3.67656,-36.35472 43.89439,-3.81634 87.63055,-21.02482c41.86383,-16.47177 84.1622,-0.9108 80.48564,35.44392z" fill="#ef8b89" stroke-width="0"/></g><path d="M426.89661,99.41667c-2.36281,23.36417 5.62164,9.32828 -11.32204,-2.00965c-2.07342,-1.38743 -11.05339,5.19023 -13.71507,3.68665c-1.67183,-0.94443 -7.81116,-11.01738 -9.69726,-11.8876c-1.31874,-0.60844 -13.55614,7.04936 -14.93991,6.45648c-3.4512,-1.4787 -11.09748,-12.55384 -14.86175,-13.59589c-2.07286,-0.57382 -10.67125,10.83102 -12.7993,10.36067c-2.74438,-0.60657 -9.06712,-13.04695 -11.86234,-13.32962c-7.43369,-0.75177 -8.34325,6.20279 -14.29608,11.63765c-3.8683,3.5317 -12.97078,-14.43018 -16.60687,-10.34009c-4.51559,5.07942 -8.97151,9.96559 -13.66432,13.109c-3.6817,2.46613 -12.63066,-11.4257 -15.83081,-9.11821c-15.45125,11.14124 -24.77028,18.24398 -22.94189,0.16439c3.67656,-36.35472 47.83618,-76.83376 93.52994,-72.21275c45.69377,4.62102 82.68431,50.72427 79.00775,87.07899z" fill="#724e36" stroke-width="2"/><path d="M426.76714,98.23486c-2.36281,23.36417 5.62164,9.32828 -11.32204,-2.00965c-2.07342,-1.38743 -11.05339,5.19023 -13.71507,3.68665c-1.67183,-0.94443 -7.81116,-11.01738 -9.69727,-11.8876c-1.31874,-0.60844 -13.55614,7.04936 -14.93991,6.45648c-3.4512,-1.4787 -11.09748,-12.55384 -14.86175,-13.59589c-2.07286,-0.57382 -10.67125,10.83102 -12.7993,10.36067c-2.74438,-0.60657 -9.06712,-13.04695 -11.86234,-13.32962c-7.43369,-0.75177 -8.34325,6.20279 -14.29608,11.63765c-3.8683,3.5317 -12.97078,-14.43018 -16.60687,-10.34009c-4.51559,5.07942 -8.97151,9.96559 -13.66433,13.109c-3.6817,2.46613 -12.63066,-11.4257 -15.83081,-9.11821c-15.45125,11.14124 -24.77028,18.24398 -22.94189,0.16439c3.67656,-36.35472 45.02881,-3.70162 89.85999,-20.79935c42.91195,-16.36578 86.35424,-0.68911 82.6777,35.6656z" fill="#623728" stroke-width="0"/></g><g stroke="#000000" stroke-linecap="butt"><path d="M380.99737,126.96642c-2.87351,28.41401 -17.45712,41.74483 -33.94158,40.07776c-16.48447,-1.66708 -28.62744,-17.70077 -25.75394,-46.11477c2.87351,-28.41401 18.56624,-50.09668 35.05071,-48.42961c16.48447,1.66708 27.51832,26.05261 24.64481,54.46662z" fill="#f0f0f0" stroke-width="2"/><path d="M336.44924,102.77899c-7.12147,27.65678 27.80734,65.17021 11.3229,63.50313c-16.48447,-1.66708 -28.62744,-17.70077 -25.75394,-46.11477c2.87351,-28.41401 24.72658,-57.37189 14.43105,-17.38835z" fill="#9a99ff" stroke-width="0"/></g><path d="M376.29431,134.76605c-1.59198,15.74191 -7.54764,28.03148 -13.30235,27.4495c-5.75471,-0.58198 -9.12927,-13.81511 -7.53729,-29.55703c1.59198,-15.74191 7.54764,-28.03148 13.30235,-27.4495c5.75471,0.58198 9.12927,13.81511 7.53729,29.55703z" fill="#000000" stroke="none" stroke-width="0" stroke-linecap="butt"/><g stroke="#000000" stroke-linecap="butt"><path d="M379.0355,96.58014c3.40754,10.62659 7.66639,56.20831 -7.96416,54.62759c-15.63053,-1.58071 -45.50987,-50.50698 -40.02067,-59.61613c5.22289,-8.6672 8.91039,-20.62707 24.54092,-19.04634c15.63053,1.58071 20.19648,13.90759 23.4439,24.03487z" fill="#a100fe" stroke-width="2"/><path d="M378.15156,96.1347c3.25626,10.61128 8.45549,55.67505 -6.6421,54.14823c-15.09757,-1.52682 -45.04113,-49.84654 -39.70612,-58.97127c5.07619,-8.68204 6.42815,1.61701 21.52572,3.14383c15.09757,1.52682 21.71921,-8.43352 24.82247,1.67918z" fill="#99008e" stroke-width="0"/></g><g data-paper-data="{&quot;index&quot;:null}" stroke="#000000" stroke-linecap="butt"><path d="M419.06835,72.83522c16.48447,1.66708 27.51832,26.05261 24.64481,54.46662c-2.87351,28.414 -17.98077,41.69188 -34.46523,40.0248c-16.48447,-1.66708 -28.10379,-17.64781 -25.23028,-46.06182c2.87351,-28.41401 18.56624,-50.09668 35.05071,-48.42961z" fill="#f0f0f0" stroke-width="2"/><path d="M443.16391,126.4118c-2.87351,28.414 -17.98077,41.69188 -34.46523,40.0248c-16.48447,-1.66708 25.24779,-31.42777 23.80774,-59.95038c-2.08187,-41.23526 13.53099,-8.48844 10.65749,19.92557z" fill="#9a99ff" stroke-width="0"/></g><path d="M431.43582,106.85457c5.75471,0.58198 9.12927,13.81511 7.53729,29.55703c-1.59198,15.74191 -7.54764,28.03148 -13.30235,27.4495c-5.75471,-0.58198 -9.12927,-13.81511 -7.53729,-29.55703c1.59198,-15.74191 7.54764,-28.03148 13.30235,-27.4495z" data-paper-data="{&quot;index&quot;:null}" fill="#000000" stroke="none" stroke-width="0" stroke-linecap="butt"/><g data-paper-data="{&quot;index&quot;:null}" stroke="#000000" stroke-linecap="butt"><path d="M392.02353,91.88657c5.20928,-9.27206 12.15076,-20.43519 27.78129,-18.85445c15.63053,1.58071 16.84886,14.0367 20.23071,23.5741c3.5543,10.02371 -34.26617,52.9307 -49.89671,51.34997c-15.63053,-1.58071 -3.58143,-46.3404 1.88469,-56.0696z" fill="#a100fe" stroke-width="2"/><path d="M392.97875,91.62712c5.06511,-9.28664 9.5585,1.79777 24.65607,3.32459c15.09757,1.52682 18.48416,-8.29304 21.71931,1.22954c3.4001,10.00811 -34.42359,52.7338 -49.52116,51.20699c-15.09757,-1.52682 -2.16907,-46.0166 3.14577,-55.7611z" fill="#99008e" stroke-width="0"/></g><path d="M352.99845,329.52741c1.649,11.54564 -11.38818,22.95817 -29.11935,25.49062c-17.73116,2.53244 -33.4419,-4.7742 -35.09089,-16.31984c-0.32964,-2.308 -1.97858,-13.61714 -1.06156,-15.14038c3.67033,-6.09666 18.38275,2.68933 32.56942,0.66313c17.73116,-2.53244 31.05338,-6.23917 32.70238,5.30647z" fill="#000082" stroke="#000000" stroke-width="2" stroke-linecap="butt"/><path d="M350.74479,327.08924c0.89195,6.24504 -12.31026,12.05172 -30.04144,14.58416c-17.73116,2.53244 -30.28078,1.33733 -31.17272,-4.9077c-0.17831,-1.2484 -1.80408,-12.39547 -0.7976,-13.29229c4.02841,-3.58949 16.21253,3.51564 30.39918,1.48944c17.73116,-2.53244 30.72062,-4.11864 31.61257,2.1264z" fill="#2e0048" stroke="#000000" stroke-width="0" stroke-linecap="butt"/><path d="M314.30117,231.29929c28.6273,-17.08206 94.12247,-14.31465 98.26859,-7.36628c2.34856,3.93589 24.91542,21.05384 5.46711,29.86452c-14.88556,6.74361 -93.98309,7.2063 -106.39455,14.61228c-28.6273,17.08205 -15.39128,-53.91301 -19.5374,-60.8614c0.29556,-7.08808 6.34712,-4.64342 10.66565,1.92211c5.32578,8.09682 9.08365,23.28886 11.5306,21.82876z" fill="#216aff" stroke="#000000" stroke-width="2" stroke-linecap="butt"/><path d="M410.0361,207.88495c12.28757,-7.33205 28.34537,-3.05846 35.86609,9.54532c7.52074,12.60378 3.65647,28.76497 -8.63109,36.09704c-12.28757,7.33206 -28.34536,3.05844 -35.86611,-9.54533c-7.52074,-12.60378 -3.65647,-28.76497 8.6311,-36.09704z" fill="#faddbf" stroke="#000000" stroke-width="2" stroke-linecap="butt"/><path d="M420.37675,247.9888c12.28757,-7.33205 17.06597,-43.06218 24.5867,-30.45839c7.52074,12.60378 3.65647,28.76497 -8.6311,36.09704c-12.28757,7.33205 -28.24317,1.69342 -15.9556,-5.63863z" fill="#ef8b89" stroke="#000000" stroke-width="0" stroke-linecap="butt"/><path d="M319.59994,157.18806c0,8.22627 -4.84561,14.89498 -10.82297,14.89498c-5.97736,0 -10.82297,-6.66871 -10.82297,-14.89498c0,-8.22627 4.63129,-3.53622 10.60866,-3.53622c5.97736,0 11.03729,-4.69005 11.03729,3.53622z" fill="#000000" stroke="none" stroke-width="0" stroke-linecap="butt"/></g></g></svg>