<svg version="1.1" xmlns="http://www.w3.org/2000/svg" xmlns:xlink="http://www.w3.org/1999/xlink" width="188.95755" height="335.32307" viewBox="0,0,188.95755,335.32307"><g transform="translate(-221.89702,-7.43762)"><g data-paper-data="{&quot;isPaintingLayer&quot;:true}" fill-rule="nonzero" stroke-linejoin="miter" stroke-miterlimit="10" stroke-dasharray="" stroke-dashoffset="0" style="mix-blend-mode: normal"><g data-paper-data="{&quot;index&quot;:null}" stroke="#000000" stroke-linecap="butt"><path d="M354.84414,203.8359c28.07051,-17.98236 37.07939,-14.53341 41.44403,-7.72017c4.36466,6.81324 -14.85275,26.91404 -42.92327,44.8964c-28.07052,17.98235 -17.09527,-53.39715 -21.45992,-60.21038c0.07036,-7.09389 6.19649,-4.84261 10.7213,1.5825c5.58017,7.92366 9.81849,22.98872 12.21785,21.45166z" fill="#303145" stroke-width="2"/><path d="M369.4122,180.1479c12.04858,-7.71848 28.23396,-3.9569 36.15108,8.40175c7.91713,12.35865 4.56792,28.63439 -7.48065,36.35287c-12.04858,7.71848 -28.23396,3.95689 -36.15109,-8.40176c-7.91713,-12.35865 -4.56791,-28.63437 7.48066,-36.35286z" fill="#faddbf" stroke-width="2"/><path d="M381.0209,219.90321c12.04858,-7.71848 15.69012,-43.58233 23.60723,-31.22368c7.91713,12.35865 4.56792,28.63439 -7.48066,36.35286c-12.04858,7.71848 -28.17517,2.5893 -16.12658,-5.12918z" fill="#ef8b89" stroke-width="0"/></g><g stroke="#000000" stroke-linecap="butt"><path d="M350.01233,323.34396l-41.66527,-85.70371l26.5237,-12.89463l41.66527,85.70371z" fill="#7485a3" stroke-width="2"/><path d="M349.44919,322.93065l-39.81265,-84.92631c0,0 34.45957,58.98211 39.63511,66.93592c1.14415,1.75834 3.48822,1.40627 3.48822,1.40627l22.47856,3.6813z" fill="#49374f" stroke-width="0"/></g><g data-paper-data="{&quot;index&quot;:null}" stroke="#000000" stroke-linecap="butt"><path d="M281.56672,315.67856l24.14585,-92.18514l28.52958,7.47268l-24.14585,92.18514z" fill="#7485a3" stroke-width="2"/><path d="M282.75714,315.01207l21.32855,-7.99565c0,0 2.36772,-0.11197 3.14686,-2.05973c3.52448,-8.81064 25.81586,-73.38188 25.81586,-73.38188l-22.48047,91.06124z" fill="#49374f" stroke-width="0"/></g><g stroke="#000000" stroke-linecap="butt"><path d="M346.8877,211.2369c1.72362,13.69467 14.55718,35.20159 10.71294,45.47797c-4.70125,12.56731 -27.25261,12.59757 -37.49906,13.88719c-13.55592,1.70615 -32.16545,8.25143 -39.89629,-9.92781c-2.89088,-6.79797 0.27794,-32.66302 -0.76486,-40.94841c-3.83148,-30.44232 8.16107,-57.02101 26.78612,-59.36517c18.62505,-2.34416 36.82966,20.43391 40.66115,50.87623z" fill="#585858" stroke-width="2"/><path d="M297.97046,233.0931c1.72362,13.69467 64.12239,12.64051 60.27813,22.91688c-4.70126,12.5673 -27.25261,12.59757 -37.49906,13.88719c-13.55592,1.70615 -32.16544,8.25143 -39.89628,-9.92781c-2.89089,-6.79797 0.27794,-32.66303 -0.76486,-40.94841c-1.18038,-9.37845 -0.24884,-28.79231 1.73405,-30.42281c3.80396,-17.37517 13.52274,23.63631 16.14801,44.49495z" fill="#303145" stroke-width="0"/></g><g stroke="#000000" stroke-linecap="butt"><g><path d="M225.40383,92.7952c1.73885,-46.75847 41.05369,-83.25408 87.81216,-81.51523c46.75847,1.73885 83.25408,41.05369 81.51523,87.81216c-1.73885,46.75847 -41.05369,83.25408 -87.81216,81.51523c-46.75847,-1.73885 -83.25408,-41.05369 -81.51523,-87.81216z" fill="#faddbf" stroke-width="2"/><path d="M225.66675,91.93487c0.55945,-15.04388 10.17537,-40.66112 14.80074,-43.7055c0.52823,-0.34768 6.11355,-8.6891 13.87847,-15.12151c9.65126,-7.99505 21.86325,-14.35384 22.46628,-14.13422c7.86767,2.86537 -19.92459,64.1588 -19.62636,89.4773c0.00071,0.06038 3.67225,19.85176 5.2733,20.35051c2.70727,4.84643 8.39285,19.47872 19.0013,27.0183c19.77009,14.05089 48.1767,21.48532 46.67564,21.93558c-2.40115,0.72025 -14.89539,2.21702 -20.95411,1.9917c-46.75847,-1.73885 -83.25408,-41.05369 -81.51523,-87.81216z" fill="#ef8b89" stroke-width="0"/><path d="M394.22517,98.6148c-0.43199,11.61631 -2.15802,15.57127 -2.64088,13.70031c-0.49261,-1.90872 0.17814,-9.81378 -8.49194,-14.97517c-2.10093,-1.25071 -10.43242,5.89243 -13.11251,4.56377c-1.6834,-0.83456 -8.26803,-10.49004 -10.15526,-11.23672c-1.31952,-0.52207 -12.75284,7.90911 -14.13467,7.40676c-3.44634,-1.25288 -11.55756,-11.81121 -15.28173,-12.60817c-2.05079,-0.43886 -9.71675,11.49662 -11.81488,11.16456c-2.70581,-0.42822 -9.61318,-12.43427 -12.34867,-12.53599c-7.27482,-0.27054 -7.73515,6.72798 -13.19256,12.5354c-3.54635,3.77381 -13.49372,-13.5627 -16.78019,-9.24666c-4.08142,5.36002 -8.1166,10.52335 -12.48847,13.96289c-3.42989,2.69845 -12.97971,-10.58654 -15.95099,-8.07744c-14.34618,12.11458 -22.97535,19.80358 -22.30004,1.64431c1.35791,-36.51491 43.56297,-6.59915 86.11666,-26.55329c40.73197,-19.09989 83.93404,-6.25946 82.57613,30.25545z" fill="#ef8b89" stroke-width="0"/></g><path d="M396.06683,90.36665c-0.87269,23.46712 6.20331,8.95202 -11.4269,-1.2858c-2.15742,-1.25281 -10.70108,5.88244 -13.45296,4.55111c-1.7285,-0.83623 -8.49577,-10.49851 -10.43338,-11.24707c-1.35475,-0.52338 -13.08056,7.89692 -14.49922,7.3932c-3.53822,-1.2563 -11.87312,-11.82295 -15.69603,-12.62358c-2.10516,-0.44089 -9.96109,11.48753 -12.11474,11.15341c-2.7774,-0.43088 -9.87821,-12.44412 -12.68576,-12.54853c-7.46645,-0.27766 -7.93203,6.72066 -13.52731,12.52296c-3.63595,3.77047 -13.86193,-13.5764 -17.23063,-9.26341c-4.18353,5.35622 -8.31981,10.51579 -12.8033,13.95118c-3.51747,2.69519 -13.33148,-10.59962 -16.37847,-8.09334c-14.7117,12.10099 -23.56033,19.78183 -22.88503,1.62255c1.35791,-36.51491 42.85479,-79.71946 88.74991,-78.01271c45.89511,1.70674 85.74178,45.36512 84.38387,81.88003z" fill="#724e36" stroke-width="2"/><path d="M395.86249,89.19546c-0.87269,23.46712 6.20331,8.95202 -11.4269,-1.2858c-2.15742,-1.25281 -10.70108,5.88244 -13.45296,4.55111c-1.7285,-0.83623 -8.49577,-10.49851 -10.43339,-11.24707c-1.35475,-0.52338 -13.08056,7.89692 -14.49922,7.3932c-3.53822,-1.2563 -11.87312,-11.82295 -15.69603,-12.62358c-2.10516,-0.44089 -9.96109,11.48753 -12.11474,11.15341c-2.7774,-0.43088 -9.87821,-12.44412 -12.68576,-12.54853c-7.46645,-0.27766 -7.93203,6.72066 -13.52731,12.52296c-3.63595,3.77047 -13.86193,-13.5764 -17.23063,-9.26341c-4.18353,5.35622 -8.31981,10.51579 -12.80331,13.95118c-3.51747,2.69519 -13.33148,-10.59962 -16.37847,-8.09334c-14.7117,12.10099 -23.56033,19.78183 -22.88503,1.62255c1.35791,-36.51491 44.7024,-6.55678 88.35593,-26.47001c41.78471,-19.06074 86.13575,-6.17758 84.77784,30.33733z" fill="#623728" stroke-width="0"/></g><g stroke="#000000" stroke-linecap="butt"><path d="M328.03853,119.53016c-1.06131,28.53921 -14.76794,42.7702 -31.32503,42.15448c-16.5571,-0.61572 -29.69484,-15.84501 -28.63352,-44.38421c1.06131,-28.53921 15.34386,-51.17567 31.90095,-50.55994c16.5571,0.61572 29.11891,24.25046 28.0576,52.78968z" fill="#f0f0f0" stroke-width="2"/><path d="M282.04282,98.22374c-5.34882,28.05357 31.89421,63.27056 15.33711,62.65484c-16.5571,-0.61572 -29.69484,-15.84501 -28.63352,-44.38421c1.06131,-28.53921 21.02922,-58.8278 13.29641,-18.27063z" fill="#9a99ff" stroke-width="0"/></g><path d="M326.27633,126.70288c-0.58799,15.81128 -5.75032,28.45461 -11.53038,28.23966c-5.78006,-0.21495 -9.98908,-13.20678 -9.40109,-29.01806c0.58799,-15.81128 5.75032,-28.45461 11.53038,-28.23966c5.78006,0.21495 9.98908,13.20678 9.40109,29.01806z" fill="#000000" stroke="none" stroke-width="0" stroke-linecap="butt"/><g stroke="#000000" stroke-linecap="butt"><path d="M324.15628,89.13022c4.07622,10.38847 8.84282,28.67004 -6.85659,28.08621c-15.69941,-0.58383 -46.24731,-20.5744 -41.34831,-30.01409c4.66132,-8.98171 7.58102,-21.1518 23.28043,-20.56798c15.69941,0.58383 21.03978,12.59549 24.92446,22.49584z" fill="#a100fe" stroke-width="2"/><path d="M323.24581,88.74186c3.92426,10.38282 9.18007,28.68258 -5.98403,28.11866c-15.1641,-0.56392 -45.32118,-20.53996 -40.57704,-29.98541c4.51397,-8.98719 6.51795,1.20508 21.68205,1.769c15.1641,0.56392 21.13914,-9.79723 24.87901,0.09773z" fill="#99008e" stroke-width="0"/></g><g data-paper-data="{&quot;index&quot;:null}" stroke="#000000" stroke-linecap="butt"><path d="M363.71854,67.6311c16.5571,0.61572 29.11891,24.25046 28.0576,52.78968c-1.06131,28.5392 -15.29389,42.75065 -31.85099,42.13492c-16.5571,-0.61572 -29.16888,-15.82544 -28.10757,-44.36465c1.06131,-28.53921 15.34386,-51.17567 31.90095,-50.55994z" fill="#f0f0f0" stroke-width="2"/><path d="M391.17141,119.56745c-1.06131,28.5392 -15.29389,42.75065 -31.85099,42.13492c-16.5571,-0.61572 23.19874,-32.96929 19.94832,-61.34265c-4.69914,-41.01949 12.96398,-9.33149 11.90267,19.20773z" fill="#9a99ff" stroke-width="0"/></g><path d="M380.98544,96.49504c5.78006,0.21495 9.98908,13.20678 9.40109,29.01806c-0.58799,15.81128 -5.75032,28.45461 -11.53038,28.23966c-5.78006,-0.21495 -9.98908,-13.20678 -9.40109,-29.01806c0.58799,-15.81128 5.75032,-28.45461 11.53038,-28.23966z" data-paper-data="{&quot;index&quot;:null}" fill="#000000" stroke="none" stroke-width="0" stroke-linecap="butt"/><g data-paper-data="{&quot;index&quot;:null}" stroke="#000000" stroke-linecap="butt"><path d="M337.93959,88.36324c4.60928,-9.58447 10.82705,-21.16631 26.52645,-20.58249c15.69941,0.58383 17.70714,12.93716 21.68848,22.24027c4.18435,9.77747 -27.28246,25.26033 -42.98186,24.6765c-15.69941,-0.58383 -10.06963,-16.27726 -5.23308,-26.33428z" fill="#a100fe" stroke-width="2"/><path d="M338.87639,88.04359c4.46447,-9.58985 9.65346,1.18646 24.81755,1.75038c15.1641,0.56392 17.91955,-9.45136 21.75355,-0.15373c4.02948,9.77171 -28.65283,25.40951 -43.81692,24.84559c-15.1641,-0.56392 -7.43878,-16.37957 -2.75419,-26.44224z" fill="#99008e" stroke-width="0"/></g><path d="M406.87121,308.77838c3.74954,11.04363 -6.95984,24.66432 -23.92006,30.42266c-16.96022,5.75834 -33.7488,1.47375 -37.49834,-9.56988c-0.74954,-2.20764 -4.45543,-13.01885 -3.83498,-14.68505c2.48329,-6.66888 18.56344,-0.74623 32.13327,-5.35346c16.96022,-5.75834 29.37057,-11.8579 33.1201,-0.81426z" fill="#000082" stroke="#000000" stroke-width="2" stroke-linecap="butt"/><path d="M404.20665,306.79757c2.02812,5.97351 -9.87708,14.11488 -26.83731,19.87321c-16.96022,5.75834 -29.51502,6.89765 -31.54314,0.92415c-0.40543,-1.19412 -4.05867,-11.85029 -3.23479,-12.91733c3.2975,-4.27072 16.58277,0.46606 30.15261,-4.14117c16.96022,-5.75834 29.4345,-9.71236 31.46262,-3.73886z" fill="#2e0048" stroke="#000000" stroke-width="0" stroke-linecap="butt"/><path d="M251.61444,303.40799c4.34086,-10.82488 16.40345,-4.06355 33.0277,2.60289c13.30103,5.33382 29.67775,0.28881 31.79702,7.08213c0.52949,1.6973 -3.75521,12.29244 -4.62296,14.45636c-4.34086,10.82488 -21.33645,14.19593 -37.9607,7.52947c-16.62426,-6.66646 -26.58192,-20.84598 -22.24106,-31.67086z" data-paper-data="{&quot;index&quot;:null}" fill="#000082" stroke="#000000" stroke-width="2" stroke-linecap="butt"/><path d="M285.59676,307.00768c13.30103,5.33382 26.82286,1.3219 29.88476,5.76458c0.76501,1.10999 -3.45875,11.55317 -3.92812,12.72364c-2.34797,5.85518 -14.82285,4.03906 -31.44711,-2.6274c-16.62427,-6.66646 -28.07211,-15.4393 -25.72414,-21.29447c2.34797,-5.85518 14.59035,-1.23281 31.2146,5.43365z" data-paper-data="{&quot;index&quot;:null}" fill="#2e0048" stroke="#000000" stroke-width="0" stroke-linecap="butt"/><g><path d="M295.54477,242.11757c-14.97456,-1.84 -22.79518,-10.44511 -21.66656,-25.33926c0.88268,-11.64887 14.96979,-23.03206 29.94437,-21.19206c14.97464,1.83997 24.66382,12.85285 22.8422,27.6782c-0.28486,2.31839 -1.23584,4.37349 -2.08686,6.25859c-4.59099,10.16925 -16.40029,14.1468 -29.03313,12.59454z" fill="#485e84" stroke="#000000" stroke-width="2" stroke-linecap="butt"/><path d="M290.50159,199.06995c0,0 -1.13787,5.64236 0.30791,7.02912c13.86819,13.30215 27.64176,16.04198 32.26646,16.6005c1.05072,0.12691 1.73992,-0.75959 1.73992,-0.75959c0,0 -0.03604,2.11348 -0.95134,4.69732c-0.97395,2.74943 -2.89588,6.03729 -5.19279,8.07919c-2.62373,2.33239 -10.07155,6.07921 -10.07155,6.07921l-20.9366,0.71926c0,0 -9.1646,-9.84708 -10.00366,-11.84531c-0.82202,-1.95759 -1.23324,-4.50977 -1.7797,-7.20576c-0.84841,-4.1859 -0.14879,-8.67114 1.07752,-11.27708c1.56509,-3.32576 4.80416,-6.68141 7.88928,-8.92739c2.87129,-2.0903 5.65454,-3.18934 5.65454,-3.18934z" fill="#343545" stroke="none" stroke-width="0" stroke-linecap="butt"/><path d="M289.87732,223.49902c0,0 -0.77869,-8.98843 1.99491,-13.33437c3.51107,-5.50153 13.25731,-14.05214 13.25731,-14.05214" fill="none" stroke="#000000" stroke-width="1" stroke-linecap="round"/><path d="M325.88454,216.21917c0,0 -2.34867,6.75378 -4.68843,10.35896c-2.36206,3.63962 -10.17454,9.39443 -10.17454,9.39443" fill="none" stroke="#000000" stroke-width="1" stroke-linecap="round"/><path d="M279.05177,225.27778c0,0 -0.93715,-9.21455 2.28144,-13.78508c4.93882,-7.0133 13.32807,-15.02055 13.32807,-15.02055" fill="none" stroke="#000000" stroke-width="1" stroke-linecap="round"/><path d="M276.7012,210.17573c0,0 14.90056,-8.8005 30.80416,-1.68578c17.42038,7.79326 14.99295,24.86951 14.99295,24.86951" fill="none" stroke="#000000" stroke-width="1" stroke-linecap="round"/><path d="M274.28897,219.38911c0,0 16.60734,-6.40773 30.65447,-0.15975c11.53398,5.13018 10.83481,19.70516 10.83481,19.70516" fill="none" stroke="#000000" stroke-width="1" stroke-linecap="round"/><path d="M315.70024,205.38439c-0.94095,-0.74954 -1.22267,-1.961 -0.62932,-2.70587c0.59333,-0.74494 1.23026,-0.26712 2.17121,0.48242c0.94095,0.74954 1.82956,1.48694 1.2362,2.23183c-0.59333,0.74494 -1.83718,0.74117 -2.77808,-0.00837z" fill="#8fbbbe" stroke="none" stroke-width="0" stroke-linecap="butt"/><path d="M320.71717,210.64643c-0.597,-0.07338 -0.99176,-0.85875 -0.88172,-1.75423c0.11003,-0.89549 0.27859,-1.24592 0.87558,-1.17258c0.597,0.07338 1.17193,0.88089 1.06186,1.77637c-0.11003,0.89549 -0.45878,1.22379 -1.05575,1.15043z" fill="#8fbbbe" stroke="none" stroke-width="0" stroke-linecap="butt"/><path d="M310.24894,201.12447c-0.87869,-0.20485 -1.48027,-0.8457 -1.34374,-1.43147c0.13649,-0.58574 0.89312,-0.35414 1.77178,-0.14934c0.87869,0.20485 1.54667,0.3052 1.41016,0.89098c-0.13649,0.58574 -0.95955,0.89462 -1.83821,0.6898z" fill="#8fbbbe" stroke="none" stroke-width="0" stroke-linecap="butt"/><path d="M286.43049,200.94719c0,0 10.0102,-2.11557 17.47803,-0.83057c4.23388,0.72854 7.71394,2.83224 10.33448,4.45673c2.31748,1.43658 6.10159,6.81304 8.56974,11.22964c1.81717,3.25171 2.74589,6.04535 2.74589,6.04535" fill="none" stroke="#000000" stroke-width="0.5" stroke-linecap="round"/><path d="M320.58813,202.76687c0,0 -1.6919,10.43626 -4.4478,15.08621c-2.3219,3.9177 -10.64949,11.03917 -10.64949,11.03917" fill="none" stroke="#000000" stroke-width="1" stroke-linecap="round"/><path d="M300.10515,226.58455c0,0 1.65319,-9.5234 3.52436,-13.64038c3.28541,-7.22863 11.36752,-13.79035 11.36752,-13.79035" fill="none" stroke="#000000" stroke-width="1" stroke-linecap="round"/></g><g stroke="#000000" stroke-linecap="butt"><path d="M276.59252,223.31918c30.29844,13.90408 32.26391,23.34823 28.88913,30.70223c-3.37478,7.35401 -30.67232,2.0441 -60.97076,-11.85999c-30.29843,-13.90409 35.69478,-43.23639 39.06957,-50.59039c6.00725,-3.77374 7.42293,2.59755 4.46129,9.87662c-3.65239,8.97679 -14.03902,20.68307 -11.44923,21.87155z" fill="#585858" stroke-width="2"/><path d="M304.39645,222.77862c13.00485,5.96798 18.58487,21.61982 12.4633,34.95936c-6.12157,13.33954 -21.62661,19.31537 -34.63147,13.34739c-13.00485,-5.96798 -18.58486,-21.61984 -12.46329,-34.95937c6.12157,-13.33954 21.62661,-19.31536 34.63147,-13.34738z" fill="#faddbf" stroke-width="2"/><path d="M277.21628,254.0274c13.00485,5.96798 45.15048,-10.34564 39.02891,2.9939c-6.12157,13.33954 -21.62661,19.31537 -34.63147,13.34738c-13.00485,-5.96798 -17.40231,-22.30927 -4.39745,-16.34129z" fill="#ef8b89" stroke-width="0"/></g><path d="M262.00935,163.12601l3.44865,-92.7359c0,0 21.51919,-7.80569 32.09763,-7.4123c11.41,0.42431 34.05664,9.87244 34.05664,9.87244l-3.44865,92.7359c0,0 -24.58081,4.8899 -35.99081,4.46559c-10.57844,-0.39339 -30.16346,-6.92572 -30.16346,-6.92572z" fill-opacity="0.74902" fill="#fffe00" stroke="#000000" stroke-width="2.5" stroke-linecap="butt"/><path d="M259.88073,128.61269c0,2.39505 -4.56531,4.33662 -10.19691,4.33662c-5.6316,0 -10.19691,-1.94157 -10.19691,-4.33662c0,-2.39505 4.56531,-4.33662 10.19691,-4.33662c5.6316,0 10.19691,1.94157 10.19691,4.33662z" fill="#000000" stroke="none" stroke-width="0" stroke-linecap="butt"/></g></g></svg>