<svg version="1.1" xmlns="http://www.w3.org/2000/svg" xmlns:xlink="http://www.w3.org/1999/xlink" width="236.62947" height="335.02371" viewBox="0,0,236.62947,335.02371"><g transform="translate(-174.22528,-25.96371)"><g data-paper-data="{&quot;isPaintingLayer&quot;:true}" fill-rule="nonzero" stroke-linecap="butt" stroke-linejoin="miter" stroke-miterlimit="10" stroke-dasharray="" stroke-dashoffset="0" style="mix-blend-mode: normal"><g data-paper-data="{&quot;index&quot;:null}" stroke="#000000"><path d="M262.39726,200.79382c2.97921,33.20306 -4.24178,39.59935 -12.30077,40.32245c-8.05901,0.72311 -17.00724,-25.6071 -19.98644,-58.81016c-2.9792,-33.20306 55.25475,9.5087 63.31375,8.7856c6.25889,3.33987 1.43194,7.73284 -6.35683,8.77732c-9.6054,1.28809 -24.92435,-1.91326 -24.66971,0.92479z" fill="#216aff" stroke-width="2"/><path d="M276.67492,224.65799c1.27875,14.2516 -9.53512,26.86809 -24.15349,28.17976c-14.61837,1.31167 -27.50553,-9.17822 -28.78428,-23.42982c-1.27876,-14.2516 9.53514,-26.8681 24.1535,-28.17976c14.61837,-1.31166 27.50552,9.17823 28.78427,23.42982z" fill="#faddbf" stroke-width="2"/><path d="M236.05362,216.58606c1.27875,14.2516 31.40305,34.05066 16.78468,35.36233c-14.61837,1.31167 -27.50553,-9.17822 -28.78427,-23.42983c-1.27876,-14.2516 10.72085,-26.18412 11.99959,-11.9325z" fill="#ef8b89" stroke-width="0"/></g><g data-paper-data="{&quot;index&quot;:null}" stroke="#000000"><path d="M275.84666,340.83535v-95.29492h29.49199v95.29492z" fill="#73fffc" stroke-width="2"/><path d="M276.82937,339.88894l18.60659,-13.13896c0,0 2.26208,-0.70825 2.52228,-2.78987c1.17702,-9.41615 6.3799,-77.52842 6.3799,-77.52842l1.32626,93.78573z" fill="#59a9e6" stroke-width="0"/></g><g data-paper-data="{&quot;index&quot;:null}" stroke="#000000"><path d="M345.55519,333.71541l-45.06015,-83.96847l25.98666,-13.94527l45.06015,83.96847z" fill="#73fffc" stroke-width="2"/><path d="M344.97599,333.325l-43.17791,-83.26579c0,0 36.79133,57.55649 42.28087,65.29691c1.21357,1.71117 3.54168,1.26562 3.54168,1.26562l22.60782,2.77919z" fill="#59a9e6" stroke-width="0"/></g><g data-paper-data="{&quot;index&quot;:null}" stroke="#000000"><path d="M309.92719,172.18996c18.7631,-0.57779 34.73915,23.81512 35.68353,54.48307c0.25703,8.34681 7.40562,33.40554 5.60593,40.57008c-4.81276,19.15955 -24.21318,15.5848 -37.86958,16.00533c-10.3224,0.31786 -32.60465,3.79141 -39.20121,-7.89295c-5.39405,-9.55439 3.94252,-32.79394 3.51768,-46.59012c-0.94437,-30.66796 13.50055,-55.99762 32.26364,-56.57541z" fill="#216aff" stroke-width="2"/><path d="M338.4218,196.29334c2.21212,1.30265 6.14837,20.33608 6.43931,29.78405c0.25703,8.3468 7.40562,33.40554 5.60592,40.57008c-4.81275,19.15954 -24.21316,15.58478 -37.86956,16.00532c-10.3224,0.31786 -32.60466,3.79141 -39.20121,-7.89295c-5.39406,-9.55439 56.41089,-18.20693 55.98605,-32.0031c-0.64707,-21.01323 2.58241,-63.03665 9.03949,-46.46338z" fill="#3236f4" stroke-width="0"/></g><g data-paper-data="{&quot;index&quot;:null}" stroke="#000000"><g><path d="M301.26841,197.03297c-45.63279,10.34538 -91.01206,-18.2607 -101.35744,-63.89348c-10.34538,-45.63278 18.2607,-91.01206 63.89349,-101.35745c45.63279,-10.34538 91.01205,18.2607 101.35744,63.89349c10.34539,45.63279 -18.2607,91.01206 -63.89348,101.35744z" fill="#faddbf" stroke-width="2"/><path d="M364.7446,94.87857c10.34539,45.63279 -18.26071,91.01206 -63.89349,101.35745c-5.91286,1.3405 -18.46858,2.17721 -20.96145,1.91286c-1.5584,-0.16526 24.98629,-12.71858 41.82097,-30.17932c9.03334,-9.36927 11.91845,-24.79996 13.68399,-30.06304c1.48138,-0.78589 1.43421,-20.9149 1.42375,-20.97437c-4.38333,-24.93796 -43.0185,-80.04346 -35.81545,-84.31272c0.55208,-0.32722 13.72845,3.66656 24.69037,9.74143c8.81941,4.88753 15.84931,12.0538 16.43267,12.29794c5.10809,2.13768 19.29016,25.53806 22.61864,40.21977z" fill="#ef8b89" stroke-width="0"/><path d="M200.32015,132.57691c-8.07898,-35.63583 32.00809,-56.23491 75.56706,-44.98698c45.50713,11.75099 81.46047,-25.44547 89.53945,10.19037c4.01777,17.72211 -5.8831,11.75923 -22.22006,2.50288c-3.3836,-1.91711 -10.31533,12.90318 -14.18462,10.88467c-4.93194,-2.57286 -9.85138,-6.90204 -14.85259,-11.41598c-4.02711,-3.63477 -10.60122,15.24077 -14.78359,12.18692c-6.43616,-4.6995 -8.18122,-11.49258 -15.28091,-9.88301c-2.66965,0.60523 -7.24061,13.68052 -9.82076,14.60115c-2.0007,0.71387 -11.73929,-9.60032 -13.67373,-8.79022c-3.51289,1.47111 -9.53439,13.34596 -12.69003,15.21383c-1.26526,0.74894 -14.05913,-5.42541 -15.25952,-4.6686c-1.71685,1.08241 -6.40478,11.78798 -7.90507,12.9191c-2.38856,1.80081 -11.89606,-3.68056 -13.72984,-2.06332c-7.56758,6.67398 -5.44827,14.31913 -5.57986,16.286c-0.12897,1.92795 -2.55581,-1.64015 -5.12593,-12.97681z" fill="#ef8b89" stroke-width="0"/></g><path d="M196.98669,124.81084c-8.07898,-35.63583 23.01825,-85.90286 67.80845,-96.05722c44.79021,-10.15436 93.55315,24.64219 101.63213,60.27803c4.01777,17.72211 -6.09729,11.80779 -22.79096,2.63231c-3.45747,-1.90037 -10.64703,12.97839 -14.60179,10.97925c-5.04088,-2.54816 -10.05899,-6.85498 -15.15985,-11.34633c-4.10737,-3.61657 -10.95337,15.32062 -15.22318,12.28659c-6.57072,-4.66899 -8.3209,-11.46091 -15.6076,-9.80894c-2.73996,0.62117 -7.49971,13.73926 -10.14974,14.67573c-2.05489,0.72616 -11.97887,-9.54601 -13.96637,-8.72388c-3.60925,1.49296 -9.84905,13.4173 -13.09435,15.3055c-1.30122,0.75709 -14.38054,-5.35254 -15.61531,-4.58794c-1.76601,1.09355 -6.63219,11.83953 -8.17649,12.98063c-2.45863,1.8167 -12.1732,-3.61774 -14.0621,-1.988c-15.4359,13.31803 -5.80067,26.27643 -10.99281,3.37427z" fill="#724e36" stroke-width="2"/><path d="M196.97123,123.62205c-8.07898,-35.63583 33.1294,-56.48912 77.71577,-45.47412c46.58048,11.50765 83.64583,-25.94091 91.72481,9.69492c4.01777,17.72211 -6.09729,11.80779 -22.79096,2.63231c-3.45747,-1.90037 -10.64704,12.97838 -14.6018,10.97925c-5.04089,-2.54816 -10.05899,-6.85497 -15.15985,-11.34632c-4.10737,-3.61657 -10.95337,15.32061 -15.22318,12.28658c-6.57072,-4.66899 -8.3209,-11.46091 -15.6076,-9.80895c-2.73996,0.62117 -7.49971,13.73927 -10.14974,14.67573c-2.05489,0.72616 -11.97887,-9.546 -13.96637,-8.72387c-3.60925,1.49296 -9.84906,13.41729 -13.09435,15.30549c-1.30122,0.75709 -14.38054,-5.35254 -15.6153,-4.58794c-1.76602,1.09356 -6.6322,11.83953 -8.17651,12.98064c-2.45863,1.8167 -12.17319,-3.61774 -14.0621,-1.988c-15.4359,13.31803 -5.80067,26.27642 -10.9928,3.37426z" fill="#623728" stroke-width="0"/></g><g data-paper-data="{&quot;index&quot;:null}" stroke="#000000"><path d="M257.68913,86.13634c16.15849,-3.66329 34.37633,15.94566 40.69068,43.79781c6.31435,27.85214 -3.78445,45.24598 -19.94294,48.90927c-16.15849,3.66329 -32.2578,-7.79119 -38.57214,-35.64334c-6.31435,-27.85215 1.66591,-53.40045 17.8244,-57.06373z" fill="#f0f0f0" stroke-width="2"/><path d="M297.57596,129.26506c6.31435,27.85213 -3.78445,45.24598 -19.94294,48.90926c-10.40726,2.35942 -1.6261,-14.0121 3.15428,-33.06759c2.64173,-10.53041 4.06167,-21.88047 0.34638,-31.34205c-15.09081,-38.43108 10.12794,-12.35177 16.44229,15.50038z" fill="#9a99ff" stroke-width="0"/></g><path d="M273.95095,110.6457c5.64092,-1.27885 13.04969,10.19344 16.54796,25.62408c3.49827,15.43063 1.76131,28.97635 -3.8796,30.2552c-5.64092,1.27885 -13.04969,-10.19344 -16.54796,-25.62408c-3.49827,-15.43063 -1.76132,-28.97635 3.8796,-30.2552z" data-paper-data="{&quot;index&quot;:null}" fill="#000000" stroke="none" stroke-width="0"/><g data-paper-data="{&quot;index&quot;:null}" stroke="#000000"><path d="M238.07174,112.63489c1.98922,-10.44751 5.0191,-23.23889 20.34056,-26.71241c15.32146,-3.47352 20.43878,7.9479 26.67886,15.91411c6.55825,8.37241 -16.53402,45.60587 -31.85547,49.07939c-15.32145,3.47352 -17.25124,-27.31845 -15.16395,-38.28107z" fill="#a100fe" stroke-width="2"/><path d="M238.9325,112.25132c1.84789,-10.41548 9.63388,-1.33621 24.43291,-4.69129c14.79903,-3.35508 14.88598,-13.74213 20.98225,-5.74331c6.40711,8.40667 -17.8562,45.86568 -32.65522,49.22076c-14.79903,3.35508 -14.69893,-27.85715 -12.75993,-38.78615z" fill="#99008e" stroke-width="0"/></g><g data-paper-data="{&quot;index&quot;:null}" stroke="#000000"><path d="M235.90335,142.58201c6.31435,27.85215 -3.27115,45.12961 -19.42964,48.79289c-16.15849,3.66329 -32.7711,-7.67484 -39.08544,-35.52697c-6.31435,-27.85215 1.66592,-53.40044 17.82441,-57.06373c16.15849,-3.66329 34.37633,15.94566 40.69068,43.79781z" fill="#f0f0f0" stroke-width="2"/><path d="M185.97512,133.82187c2.04617,28.48554 47.09379,52.93939 30.93529,56.60268c-16.15849,3.66329 -32.7711,-7.67484 -39.08544,-35.52697c-6.31435,-27.85215 5.19199,-62.25738 8.15015,-21.07571z" fill="#9a99ff" stroke-width="0"/></g><path d="M236.16664,146.74542c3.49827,15.43063 1.76132,28.97634 -3.87959,30.25519c-5.64092,1.27885 -13.04969,-10.19344 -16.54796,-25.62408c-3.49827,-15.43063 -1.76131,-28.97635 3.8796,-30.2552c5.64092,-1.27885 13.04968,10.19345 16.54795,25.62408z" data-paper-data="{&quot;index&quot;:null}" fill="#000000" stroke="none" stroke-width="0"/><g data-paper-data="{&quot;index&quot;:null}" stroke="#000000"><path d="M224.37739,114.39817c6.61089,8.99066 19.0618,37.18716 3.74034,40.66069c-15.32146,3.47352 -53.12594,-19.74385 -50.81952,-30.12596c2.19452,-9.87842 1.88601,-22.39004 17.20746,-25.86356c15.32145,-3.47352 23.57144,6.76061 29.8717,15.32882z" fill="#a100fe" stroke-width="2"/><path d="M223.24219,113.57122c6.46259,9.02428 19.40765,37.76429 4.60862,41.11937c-14.79903,3.35508 -52.23882,-20.60049 -50.08353,-30.94834c2.05073,-9.84582 6.60862,-0.51179 21.40765,-3.86687c14.79903,-3.35508 17.90831,-14.90441 24.06725,-6.30416z" fill="#99008e" stroke-width="0"/></g><path d="M241.46751,338.87003c0,-11.6628 13.71248,-9.87692 31.62358,-9.87692c14.33063,0 27.65301,-10.77791 32.14847,-5.26144c1.12318,1.37828 1.08979,12.80695 1.08979,15.13837c0,11.6628 -14.51982,21.11737 -32.43092,21.11737c-17.9111,0 -32.43092,-9.45457 -32.43092,-21.11737z" data-paper-data="{&quot;index&quot;:null}" fill="#000082" stroke="#000000" stroke-width="2"/><path d="M274.34813,329.56302c14.33063,0 25.38775,-8.75646 29.88321,-5.7726c1.12318,0.74551 1.0898,12.01046 1.0898,13.27153c0,6.30841 -12.25456,9.26589 -30.16566,9.26589c-17.91111,0 -31.80169,-3.88169 -31.80169,-10.1901c0,-6.30841 13.08324,-6.57472 30.99434,-6.57472z" data-paper-data="{&quot;index&quot;:null}" fill="#2e0048" stroke="#000000" stroke-width="0"/><path d="M398.53385,305.0725c5.51475,10.2766 -2.80871,25.47311 -18.59095,33.94237c-15.78225,8.46925 -33.04687,7.00411 -38.56162,-3.27249c-1.10241,-2.05432 -6.53587,-12.10882 -6.19791,-13.85438c1.35268,-6.98648 18.18793,-3.78907 30.81528,-10.56531c15.78225,-8.46925 27.02046,-16.52681 32.5352,-6.25021z" data-paper-data="{&quot;index&quot;:null}" fill="#000082" stroke="#000000" stroke-width="2"/><path d="M395.5798,303.55687c2.98293,5.55862 -7.42121,15.5471 -23.20346,24.01635c-15.78225,8.46925 -27.97871,11.65785 -30.96164,6.09924c-0.5963,-1.11118 -5.95234,-11.02144 -5.31516,-12.20943c2.55023,-4.75488 16.43362,-2.26754 29.06095,-9.04377c15.78225,-8.46925 27.43638,-14.421 30.41931,-8.86238z" data-paper-data="{&quot;index&quot;:null}" fill="#2e0048" stroke="#000000" stroke-width="0"/><g data-paper-data="{&quot;index&quot;:null}" stroke="#000000"><path d="M369.71483,203.94998c0.1038,-2.84757 -15.02386,1.16149 -24.68404,0.38448c-7.8332,-0.63004 -12.88628,-4.76092 -6.81327,-8.42793c8.08601,0.2948 63.97348,-45.44445 62.75888,-12.13013c-1.2146,33.31432 -8.75421,60.08193 -16.84023,59.78711c-8.08601,-0.2948 -15.63597,-6.29924 -14.42137,-39.61355z" fill="#216aff" stroke-width="2"/><path d="M356.7225,228.53757c0.52135,-14.29935 12.83421,-25.45776 27.50154,-24.92301c14.66734,0.53475 26.13495,12.56017 25.61362,26.85952c-0.52135,14.29935 -12.8342,25.45776 -27.50155,24.92301c-14.66734,-0.53475 -26.13495,-12.56017 -25.61361,-26.85951z" fill="#faddbf" stroke-width="2"/><path d="M396.85873,218.32327c0.52133,-14.29935 13.13672,-3.01985 12.61538,11.27949c-0.52133,14.29935 -12.8342,25.45777 -27.50154,24.92302c-14.66734,-0.53475 14.36482,-21.90316 14.88616,-36.20251z" fill="#ef8b89" stroke-width="0"/></g><path d="M335.49971,169.79886c0,8.23476 -4.51846,5.0311 -12.34906,5.0311c-7.8306,0 -16.00805,3.20366 -16.00805,-5.0311c0,-8.23476 6.34796,-14.91036 14.17856,-14.91036c7.8306,0 14.17856,6.6756 14.17856,14.91036z" fill="#000000" stroke="none" stroke-width="0"/></g></g></svg>