<svg version="1.1" xmlns="http://www.w3.org/2000/svg" xmlns:xlink="http://www.w3.org/1999/xlink" width="260.61231" height="345.26648" viewBox="0,0,260.61231,345.26648"><g transform="translate(-182.1901,-7.39638)"><g data-paper-data="{&quot;isPaintingLayer&quot;:true}" fill-rule="nonzero" stroke-linejoin="miter" stroke-miterlimit="10" stroke-dasharray="" stroke-dashoffset="0" style="mix-blend-mode: normal"><g stroke="#2a2b40" stroke-linecap="butt"><path d="M358.66836,202.57358l-7.28991,-116.62177l46.93666,-2.93397l7.28991,116.62177z" fill="#000000" stroke-width="2"/><path d="M357.69083,193.43723l-1.6296,-26.06984l47.38369,-2.96191l1.6296,26.06984z" fill="#ffffff" stroke-width="2.5"/></g><path d="M315.17097,351.66286v-94.89051h40.95702v94.89051z" fill="#000000" stroke="#2a2b40" stroke-width="2" stroke-linecap="butt"/><path d="M273.90771,349.39579v-94.89051h40.95702v94.89051z" fill="#000000" stroke="#2a2b40" stroke-width="2" stroke-linecap="butt"/><g stroke-linecap="butt"><path d="M274.56442,265.51586v-123.12083h82.34382v123.12083z" fill="#000000" stroke="#2a2b40" stroke-width="2"/><path d="M335.01821,175.415c0,25.27481 -8.58873,45.76409 -19.18347,45.76409c-10.59474,0 -19.18347,-20.48928 -19.18347,-45.76409c0,-25.27481 7.35902,-33.69135 17.95376,-33.69135c10.59474,0 20.41318,8.41655 20.41318,33.69135z" fill="#ffffff" stroke="#2a2b40" stroke-width="2.5"/><path d="M321.10719,171.57601c0,15.66108 -2.80786,28.35689 -6.27152,28.35689c-3.46366,0 -6.27152,-12.69581 -6.27152,-28.35689c0,-15.66108 2.80786,-28.3569 6.27152,-28.3569c3.46366,0 6.27152,12.69582 6.27152,28.3569z" fill="#000000" stroke="none" stroke-width="0"/></g><g><g><path d="M360.86583,186.12447c-14.77459,-3.0552 -21.86734,-12.26949 -19.52769,-27.02197c1.82982,-11.53806 16.79842,-21.73438 31.57303,-18.67918c14.77467,3.05519 23.53336,14.82162 20.50866,29.44901c-0.47301,2.28744 -1.58842,4.25812 -2.59036,6.06753c-5.40511,9.76092 -17.49948,12.76206 -29.96362,10.18464z" fill="#485e84" stroke="#000000" stroke-width="2" stroke-linecap="butt"/><path d="M359.35042,142.80897c0,0 -1.59426,5.53075 -0.26641,7.03082c12.73706,14.38892 26.24129,18.243 30.80503,19.17685c1.03687,0.21218 1.79607,-0.61515 1.79607,-0.61515c0,0 -0.20829,2.1035 -1.33129,4.60407c-1.19495,2.66085 -3.37865,5.781 -5.83444,7.62875c-2.80522,2.11062 -10.53382,5.23751 -10.53382,5.23751l-20.92551,-0.99074c0,0 -8.33093,-10.56175 -9.00422,-12.62175c-0.65963,-2.0181 -0.86132,-4.59532 -1.18606,-7.3269c-0.50419,-4.24115 0.55892,-8.65438 1.99368,-11.15164c1.83113,-3.18704 5.33309,-6.26732 8.59113,-8.2542c3.03221,-1.84915 5.89583,-2.71752 5.89583,-2.71752z" fill="#343545" stroke="none" stroke-width="0" stroke-linecap="butt"/><path d="M356.73578,167.10573c0,0 -0.043,-9.02199 3.07582,-13.12725c3.94807,-5.19683 14.35925,-12.92406 14.35925,-12.92406" fill="none" stroke="#000000" stroke-width="1" stroke-linecap="round"/><path d="M393.21679,162.78689c0,0 -2.89168,6.53972 -5.51767,9.94206c-2.65104,3.43485 -10.90685,8.53328 -10.90685,8.53328" fill="none" stroke="#000000" stroke-width="1" stroke-linecap="round"/><path d="M345.80123,167.99564c0,0 -0.18248,-9.2603 3.39814,-13.55309c5.49436,-6.58712 14.50875,-13.88347 14.50875,-13.88347" fill="none" stroke="#000000" stroke-width="1" stroke-linecap="round"/><path d="M344.69022,152.75219c0,0 15.56868,-7.55588 30.83903,0.83223c16.72672,9.18812 12.91464,26.00949 12.91464,26.00949" fill="none" stroke="#000000" stroke-width="1" stroke-linecap="round"/><path d="M341.53457,161.73811c0,0 17.07463,-5.03187 30.56538,2.34097c11.07714,6.05381 9.19154,20.5232 9.19154,20.5232" fill="none" stroke="#000000" stroke-width="1" stroke-linecap="round"/><path d="M383.9501,151.15758c-0.87668,-0.82378 -1.05865,-2.05419 -0.40653,-2.74818c0.65211,-0.69407 1.24794,-0.16589 2.12463,0.65789c0.87668,0.82378 1.70218,1.63121 1.05006,2.32522c-0.65211,0.69407 -1.89151,0.58887 -2.76814,-0.23493z" fill="#8fbbbe" stroke="none" stroke-width="0" stroke-linecap="butt"/><path d="M388.52115,156.81128c-0.58903,-0.12183 -0.91841,-0.93678 -0.73571,-1.8203c0.18271,-0.88353 0.37929,-1.21906 0.9683,-1.09727c0.58903,0.12183 1.09618,0.97354 0.91344,1.85706c-0.18271,0.88353 -0.55705,1.18229 -1.14605,1.0605z" fill="#8fbbbe" stroke="none" stroke-width="0" stroke-linecap="butt"/><path d="M378.86441,146.4672c-0.85906,-0.27583 -1.40637,-0.96361 -1.22251,-1.5363c0.18382,-0.57265 0.91902,-0.28011 1.77807,-0.00433c0.85906,0.27583 1.51663,0.43032 1.3328,1.00304c-0.18382,0.57265 -1.02932,0.81338 -1.88835,0.53758z" fill="#8fbbbe" stroke="none" stroke-width="0" stroke-linecap="butt"/><path d="M355.13977,144.3479c0,0 10.14939,-1.29209 17.48754,0.59771c4.16036,1.07145 7.45724,3.45196 9.93655,5.28476c2.1926,1.62081 5.52558,7.28799 7.62529,11.89118c1.54591,3.38908 2.24369,6.24916 2.24369,6.24916" fill="none" stroke="#000000" stroke-width="0.5" stroke-linecap="round"/><path d="M389.03519,148.94742c0,0 -2.53744,10.2635 -5.66343,14.67318c-2.63369,3.71527 -11.51438,10.13382 -11.51438,10.13382" fill="none" stroke="#000000" stroke-width="1" stroke-linecap="round"/><path d="M366.67788,171.01517c0,0 2.42441,-9.35683 4.62513,-13.30749c3.86403,-6.93659 12.4544,-12.81728 12.4544,-12.81728" fill="none" stroke="#000000" stroke-width="1" stroke-linecap="round"/></g><g stroke="#2a2b40" stroke-linecap="butt"><path d="M380.73671,226.33323l-122.09103,-47.1696l16.94835,-43.86811l122.09103,47.1696z" fill="#000000" stroke-width="2"/><path d="M370.89522,223.27514l-27.29245,-10.54437l17.10977,-44.28593l27.29245,10.54438z" fill="#ffffff" stroke-width="2.5"/></g></g><g stroke-linecap="butt"><g stroke="#0c0c0c"><g><path d="M287.95386,88.29905c-1.66302,11.04494 -29.2665,16.0454 -61.65412,11.16884c-32.38761,-4.87656 -41.69071,-28.7471 -40.02768,-39.79204c1.66302,-11.04494 22.64549,4.76031 55.0331,9.63687c32.38761,4.87656 48.31172,7.94139 46.6487,18.98633z" fill="#fac843" stroke-width="2"/><path d="M286.93113,87.5676c-1.66302,11.04494 -29.2665,16.0454 -61.65412,11.16884c-32.38761,-4.87656 -39.64144,-26.24044 -37.97842,-37.28538c1.66302,-11.04494 5.76011,28.21687 38.14771,33.09343c32.38761,4.87656 63.14784,-18.02182 61.48482,-6.97688z" fill="#e47816" stroke-width="0"/></g><g><path d="M285.05608,51.00738c-1.66302,11.04494 -29.2665,16.0454 -61.65412,11.16884c-32.38761,-4.87656 -41.69071,-28.7471 -40.02768,-39.79204c1.66302,-11.04494 22.64549,4.76031 55.0331,9.63687c32.38761,4.87656 48.31172,7.94139 46.6487,18.98633z" fill="#fac843" stroke-width="2"/><path d="M284.03336,50.27592c-1.66302,11.04494 -29.2665,16.0454 -61.65412,11.16884c-32.38761,-4.87656 -39.64145,-26.24045 -37.97843,-37.28539c1.66302,-11.04494 5.76011,28.21687 38.14772,33.09343c32.38761,4.87656 63.14784,-18.02182 61.48482,-6.97688z" fill="#e47816" stroke-width="0"/></g><g><path d="M286.50299,124.80008c-1.66302,11.04494 -29.2665,16.0454 -61.65412,11.16884c-32.38761,-4.87656 -41.69071,-28.7471 -40.02768,-39.79204c1.66302,-11.04494 22.64549,4.76031 55.0331,9.63687c32.38761,4.87656 48.31172,7.94139 46.6487,18.98633z" fill="#fac843" stroke-width="2"/><path d="M285.48026,124.06863c-1.66302,11.04494 -29.2665,16.0454 -61.65412,11.16884c-32.38761,-4.87656 -39.64144,-26.24045 -37.97842,-37.28539c1.66302,-11.04494 5.76011,28.21687 38.14771,33.09343c32.38761,4.87656 63.14784,-18.02182 61.48482,-6.97688z" fill="#e47816" stroke-width="0"/></g></g><g stroke="#0c0c0c"><g data-paper-data="{&quot;index&quot;:null}"><path d="M383.87153,59.16456c32.38761,-4.87656 53.37008,-20.68181 55.0331,-9.63687c1.66302,11.04494 -7.64007,34.91547 -40.02768,39.79204c-32.38761,4.87656 -59.99109,-0.1239 -61.65412,-11.16884c-1.66302,-11.04494 14.26109,-14.10977 46.6487,-18.98633z" fill="#fac843" stroke-width="2"/><path d="M399.73037,84.39631c32.38761,-4.87656 36.4847,-44.13836 38.14772,-33.09342c1.66302,11.04494 -5.5908,32.40883 -37.97843,37.28538c-32.38761,4.87656 -59.99109,-0.1239 -61.65412,-11.16884c-1.66302,-11.04494 29.09721,11.85345 61.48482,6.97688z" fill="#e47816" stroke-width="0"/></g><g data-paper-data="{&quot;index&quot;:null}"><path d="M386.76932,21.87285c32.38761,-4.87656 53.37008,-20.68181 55.0331,-9.63687c1.66302,11.04494 -7.64007,34.91547 -40.02768,39.79204c-32.38761,4.87656 -59.99109,-0.1239 -61.65412,-11.16884c-1.66302,-11.04494 14.26109,-14.10977 46.6487,-18.98633z" fill="#fac843" stroke-width="2"/><path d="M402.62816,47.10463c32.38761,-4.87656 36.48469,-44.13837 38.14771,-33.09343c1.66302,11.04494 -5.5908,32.40883 -37.97842,37.28539c-32.38761,4.87656 -59.99109,-0.1239 -61.65412,-11.16884c-1.66302,-11.04494 29.09721,11.85345 61.48482,6.97688z" fill="#e47816" stroke-width="0"/></g><g data-paper-data="{&quot;index&quot;:null}"><path d="M385.32239,95.66557c32.38761,-4.87656 53.37008,-20.68181 55.0331,-9.63687c1.66302,11.04494 -7.64007,34.91547 -40.02768,39.79204c-32.38761,4.87656 -59.99109,-0.1239 -61.65412,-11.16884c-1.66302,-11.04494 14.26109,-14.10977 46.6487,-18.98633z" fill="#fac843" stroke-width="2"/><path d="M401.18124,120.89729c32.38761,-4.87656 36.48469,-44.13837 38.14771,-33.09343c1.66302,11.04494 -5.5908,32.40883 -37.97842,37.28539c-32.38761,4.87656 -59.99109,-0.1239 -61.65412,-11.16884c-1.66302,-11.04494 29.09721,11.85345 61.48482,6.97688z" fill="#e47816" stroke-width="0"/></g></g><path d="M252.9278,90.07446c0,-31.80358 32.53018,-57.58549 72.6582,-57.58549c40.12802,0 72.6582,25.7819 72.6582,57.58549c0,31.80358 -32.53018,57.58549 -72.6582,57.58549c-40.12802,0 -72.6582,-25.7819 -72.6582,-57.58549z" fill="#fdf7c7" stroke="#000000" stroke-width="2"/><path d="M253.47694,87.14844c0,-3.52561 2.35177,-8.7085 2.62288,-9.88302c3.3547,-14.53329 30.25799,59.95585 65.9376,59.95585c40.12802,0 49.30313,4.60319 4.46071,9.66756c-39.90255,4.24795 -73.02118,-27.93679 -73.02118,-59.74039z" fill="#f2bd9d" stroke="#000000" stroke-width="0"/></g><path d="M304.08717,93.83896c0,-7.78178 6.30839,-14.09017 14.09017,-14.09017c7.78178,0 14.09017,6.30839 14.09017,14.09017c0,7.78178 -4.97911,5.92458 -12.76089,5.92458c-7.78178,0 -15.41945,1.8572 -15.41945,-5.92458z" fill="#1a1507" stroke="#0c0c0c" stroke-width="2" stroke-linecap="butt"/><path d="M320.70438,92.65035c0,-2.74328 2.22387,-4.96715 4.96715,-4.96715c2.74328,0 4.96715,2.22387 4.96715,4.96715c0,2.74328 -2.22387,4.96715 -4.96715,4.96715c-2.74328,0 -4.96715,-2.22387 -4.96715,-4.96715z" fill="#fdf7c7" stroke="#000000" stroke-width="0" stroke-linecap="butt"/><path d="M360.56296,92.41924c0,-7.78178 6.30838,-14.09017 14.09017,-14.09017c7.78178,0 14.09017,6.30839 14.09017,14.09017c0,7.78179 -6.68818,6.87407 -14.46996,6.87407c-7.78178,0 -13.71038,0.90771 -13.71038,-6.87407z" fill="#1a1507" stroke="#0c0c0c" stroke-width="2" stroke-linecap="butt"/><path d="M377.81871,91.23063c0,-2.74328 2.22387,-4.96716 4.96715,-4.96716c2.74328,0 4.96715,2.22387 4.96715,4.96716c0,2.74329 -2.22387,4.96715 -4.96715,4.96715c-2.74328,0 -4.96715,-2.22386 -4.96715,-4.96715z" fill="#fdf7c7" stroke="#000000" stroke-width="0" stroke-linecap="butt"/><path d="M373.5454,114.37328c0,0 0.80439,4.42242 -1.28221,7.41951c-1.77824,2.55416 -6.43645,3.76125 -7.03182,3.69099c-16.00822,-1.88909 -60.99789,-4.2288 -72.35253,-8.38683c-6.8162,-2.49606 -5.51716,-17.57967 -5.51716,-17.57967" fill="none" stroke="#1a1507" stroke-width="2" stroke-linecap="round"/><path d="M326.58794,127.44589c0,4.92241 -4.02964,9.2658 -12.26615,9.2658c-8.23651,0 -18.61984,-10.69707 -18.61984,-15.61948c0,-4.92241 8.44192,-0.61772 16.67843,-0.61772c8.23651,0 14.20755,2.049 14.20755,6.97141z" fill="#fdf7c7" stroke="#1a1507" stroke-width="2" stroke-linecap="butt"/></g></g></svg>