<svg version="1.1" xmlns="http://www.w3.org/2000/svg" xmlns:xlink="http://www.w3.org/1999/xlink" width="260.61231" height="293.94221" viewBox="0,0,260.61231,293.94221"><g transform="translate(-109.52223,-58.72064)"><g data-paper-data="{&quot;isPaintingLayer&quot;:true}" fill-rule="nonzero" stroke-linejoin="miter" stroke-miterlimit="10" stroke-dasharray="" stroke-dashoffset="0" style="mix-blend-mode: normal"><g stroke="#2a2b40" stroke-linecap="butt"><path d="M254.67131,282.66432l-7.28991,-116.62177l46.93666,-2.93397l7.28991,116.62177z" fill="#000000" stroke-width="2"/><path d="M253.69378,273.52797l-1.6296,-26.06984l47.38369,-2.96191l1.6296,26.06984z" fill="#ffffff" stroke-width="2.5"/></g><path d="M235.17097,351.66286v-94.89051h40.95702v94.89051z" fill="#000000" stroke="#2a2b40" stroke-width="2" stroke-linecap="butt"/><path d="M193.90771,349.39579v-94.89051h40.95702v94.89051z" fill="#000000" stroke="#2a2b40" stroke-width="2" stroke-linecap="butt"/><g stroke-linecap="butt"><path d="M195.90872,279.13653v-107.85169h82.34382v107.85169z" fill="#000000" stroke="#2a2b40" stroke-width="2"/><path d="M256.36251,200.20976c0,22.14029 -8.58873,40.08854 -19.18347,40.08854c-10.59474,0 -19.18347,-17.94825 -19.18347,-40.08854c0,-22.14029 7.35902,-29.51303 17.95376,-29.51303c10.59474,0 20.41318,7.37275 20.41318,29.51303z" fill="#ffffff" stroke="#2a2b40" stroke-width="2.5"/><path d="M242.45149,196.84687c0,13.71883 -2.80786,24.84014 -6.27152,24.84014c-3.46366,0 -6.27152,-11.12131 -6.27152,-24.84014c0,-13.71883 2.80786,-24.84014 6.27152,-24.84014c3.46366,0 6.27152,11.12131 6.27152,24.84014z" fill="#000000" stroke="none" stroke-width="0"/></g><g><g><path d="M215.98325,273.39594c-7.59001,-13.03897 -5.4659,-24.47131 7.07885,-32.57926c9.81135,-6.34134 27.39614,-2.00553 34.98617,11.03345c7.59008,13.03901 4.67829,27.41556 -8.23072,34.92999c-2.01872,1.17511 -4.23054,1.66048 -6.24653,2.12266c-10.87543,2.49314 -21.18466,-4.50689 -27.58775,-15.50682z" fill="#485e84" stroke="#000000" stroke-width="2" stroke-linecap="butt"/><path d="M247.21819,243.3475c0,0 -5.18187,2.50583 -5.41205,4.4959c-2.2079,19.08924 3.9392,31.71585 6.29103,35.73688c0.53432,0.91357 1.65713,0.92639 1.65713,0.92639c0,0 -1.70503,1.24937 -4.31641,2.0829c-2.77873,0.88696 -6.55953,1.34451 -9.57477,0.74995c-3.44423,-0.67919 -10.9322,-4.34511 -10.9322,-4.34511l-13.23368,-16.23971c0,0 2.30053,-13.25377 3.38459,-15.1304c1.062,-1.83848 2.84597,-3.70936 4.6627,-5.7749c2.82074,-3.20702 6.81602,-5.36213 9.63307,-5.96134c3.5952,-0.76467 8.2265,-0.2142 11.88093,0.88471c3.40112,1.02275 5.95952,2.57482 5.95952,2.57482z" fill="#343545" stroke="none" stroke-width="0" stroke-linecap="butt"/><path d="M227.38448,257.62312c0,0 6.68782,-6.05568 11.82635,-6.47478c6.50484,-0.53055 19.20863,2.06096 19.20863,2.06096" fill="none" stroke="#000000" stroke-width="1" stroke-linecap="round"/><path d="M254.95681,281.89826c0,0 -6.79925,2.21361 -11.08545,2.53028c-4.32712,0.31975 -13.63484,-2.42235 -13.63484,-2.42235" fill="none" stroke="#000000" stroke-width="1" stroke-linecap="round"/><path d="M219.42136,250.07693c0,0 6.77208,-6.31863 12.35857,-6.51914c8.57226,-0.30766 20.02269,1.53169 20.02269,1.53169" fill="none" stroke="#000000" stroke-width="1" stroke-linecap="round"/><path d="M230.02773,239.07229c0,0 16.01973,6.54547 19.9706,23.5141c4.32766,18.58698 -10.74039,26.98009 -10.74039,26.98009" fill="none" stroke="#000000" stroke-width="1" stroke-linecap="round"/><path d="M221.23114,242.72263c0,0 15.14617,9.35178 18.66469,24.31772c2.889,12.28842 -9.14184,20.54539 -9.14184,20.54539" fill="none" stroke="#000000" stroke-width="1" stroke-linecap="round"/><path d="M257.42733,267.23509c0.02794,-1.20267 0.82244,-2.15965 1.77449,-2.13752c0.95209,0.02206 0.95671,0.81829 0.92876,2.02096c-0.02794,1.20267 -0.07788,2.35631 -1.02995,2.3342c-0.95209,-0.02206 -1.70128,-1.01499 -1.6733,-2.21762z" fill="#8fbbbe" stroke="none" stroke-width="0" stroke-linecap="butt"/><path d="M256.2703,274.41285c-0.30257,-0.51984 0.0842,-1.30917 0.86394,-1.76306c0.77974,-0.45389 1.16076,-0.53156 1.46337,-0.01175c0.30257,0.51984 0.00713,1.46606 -0.77263,1.91992c-0.77974,0.45389 -1.2521,0.37467 -1.55468,-0.14515z" fill="#8fbbbe" stroke="none" stroke-width="0" stroke-linecap="butt"/><path d="M257.52358,260.31739c-0.36822,-0.82369 -0.2216,-1.69036 0.32749,-1.93584c0.54904,-0.2455 0.82213,0.49716 1.19038,1.32081c0.36822,0.82369 0.69225,1.41639 0.14315,1.6619c-0.54904,0.2455 -1.29277,-0.22323 -1.661,-1.04688z" fill="#8fbbbe" stroke="none" stroke-width="0" stroke-linecap="butt"/><path d="M243.2612,241.24033c0,0 7.73831,6.69314 11.23086,13.41787c1.98008,3.81259 2.40911,7.85638 2.7,10.92583c0.25729,2.71446 -1.73638,8.97952 -3.76137,13.61608c-1.49088,3.41364 -3.15423,5.84269 -3.15423,5.84269" fill="none" stroke="#000000" stroke-width="0.5" stroke-linecap="round"/><path d="M262.46785,269.54508c0,0 -9.33495,4.96357 -14.7049,5.58059c-4.5243,0.51988 -15.23199,-1.80601 -15.23199,-1.80601" fill="none" stroke="#000000" stroke-width="1" stroke-linecap="round"/><path d="M231.11206,267.63482c0,0 8.58451,-4.44235 12.99496,-5.44172c7.7439,-1.7547 17.85734,0.71416 17.85734,0.71416" fill="none" stroke="#000000" stroke-width="1" stroke-linecap="round"/></g><g stroke="#2a2b40" stroke-linecap="butt"><path d="M199.31651,315.03504l-46.40006,-122.38556l43.97394,-16.67185l46.40006,122.38557z" fill="#000000" stroke-width="2"/><path d="M195.0223,305.66667l-10.37236,-27.35829l44.39276,-16.83063l10.37235,27.35828z" fill="#ffffff" stroke-width="2.5"/></g></g><g stroke-linecap="butt"><g stroke="#0c0c0c"><g><path d="M215.28599,139.62332c-1.66302,11.04494 -29.2665,16.0454 -61.65412,11.16884c-32.38761,-4.87656 -41.69071,-28.7471 -40.02768,-39.79204c1.66302,-11.04494 22.64549,4.76031 55.0331,9.63687c32.38761,4.87656 48.31172,7.94139 46.6487,18.98633z" fill="#fac843" stroke-width="2"/><path d="M214.26326,138.89187c-1.66302,11.04494 -29.2665,16.0454 -61.65412,11.16884c-32.38761,-4.87656 -39.64144,-26.24044 -37.97842,-37.28538c1.66302,-11.04494 5.76011,28.21687 38.14771,33.09343c32.38761,4.87656 63.14784,-18.02182 61.48482,-6.97688z" fill="#e47816" stroke-width="0"/></g><g><path d="M212.38821,102.33165c-1.66302,11.04494 -29.2665,16.0454 -61.65412,11.16884c-32.38761,-4.87656 -41.69071,-28.7471 -40.02768,-39.79204c1.66302,-11.04494 22.64549,4.76031 55.0331,9.63687c32.38761,4.87656 48.31172,7.94139 46.6487,18.98633z" fill="#fac843" stroke-width="2"/><path d="M211.36549,101.60019c-1.66302,11.04494 -29.2665,16.0454 -61.65412,11.16884c-32.38761,-4.87656 -39.64145,-26.24045 -37.97843,-37.28539c1.66302,-11.04494 5.76011,28.21687 38.14772,33.09343c32.38761,4.87656 63.14784,-18.02182 61.48482,-6.97688z" fill="#e47816" stroke-width="0"/></g><g><path d="M213.83512,176.12435c-1.66302,11.04494 -29.2665,16.0454 -61.65412,11.16884c-32.38761,-4.87656 -41.69071,-28.7471 -40.02768,-39.79204c1.66302,-11.04494 22.64549,4.76031 55.0331,9.63687c32.38761,4.87656 48.31172,7.94139 46.6487,18.98633z" fill="#fac843" stroke-width="2"/><path d="M212.81239,175.3929c-1.66302,11.04494 -29.2665,16.0454 -61.65412,11.16884c-32.38761,-4.87656 -39.64144,-26.24045 -37.97842,-37.28539c1.66302,-11.04494 5.76011,28.21687 38.14771,33.09343c32.38761,4.87656 63.14784,-18.02182 61.48482,-6.97688z" fill="#e47816" stroke-width="0"/></g></g><g stroke="#0c0c0c"><g data-paper-data="{&quot;index&quot;:null}"><path d="M311.20366,110.48883c32.38761,-4.87656 53.37008,-20.68181 55.0331,-9.63687c1.66302,11.04494 -7.64007,34.91547 -40.02768,39.79204c-32.38761,4.87656 -59.99109,-0.1239 -61.65412,-11.16884c-1.66302,-11.04494 14.26109,-14.10977 46.6487,-18.98633z" fill="#fac843" stroke-width="2"/><path d="M327.0625,135.72059c32.38761,-4.87656 36.4847,-44.13836 38.14772,-33.09342c1.66302,11.04494 -5.5908,32.40883 -37.97843,37.28538c-32.38761,4.87656 -59.99109,-0.1239 -61.65412,-11.16884c-1.66302,-11.04494 29.09721,11.85345 61.48482,6.97688z" fill="#e47816" stroke-width="0"/></g><g data-paper-data="{&quot;index&quot;:null}"><path d="M314.10145,73.19712c32.38761,-4.87656 53.37008,-20.68181 55.0331,-9.63687c1.66302,11.04494 -7.64007,34.91547 -40.02768,39.79204c-32.38761,4.87656 -59.99109,-0.1239 -61.65412,-11.16884c-1.66302,-11.04494 14.26109,-14.10977 46.6487,-18.98633z" fill="#fac843" stroke-width="2"/><path d="M329.96029,98.4289c32.38761,-4.87656 36.48469,-44.13837 38.14771,-33.09343c1.66302,11.04494 -5.5908,32.40883 -37.97842,37.28539c-32.38761,4.87656 -59.99109,-0.1239 -61.65412,-11.16884c-1.66302,-11.04494 29.09721,11.85345 61.48482,6.97688z" fill="#e47816" stroke-width="0"/></g><g data-paper-data="{&quot;index&quot;:null}"><path d="M312.65452,146.98984c32.38761,-4.87656 53.37008,-20.68181 55.0331,-9.63687c1.66302,11.04494 -7.64007,34.91547 -40.02768,39.79204c-32.38761,4.87656 -59.99109,-0.1239 -61.65412,-11.16884c-1.66302,-11.04494 14.26109,-14.10977 46.6487,-18.98633z" fill="#fac843" stroke-width="2"/><path d="M328.51337,172.22156c32.38761,-4.87656 36.48469,-44.13837 38.14771,-33.09343c1.66302,11.04494 -5.5908,32.40883 -37.97842,37.28539c-32.38761,4.87656 -59.99109,-0.1239 -61.65412,-11.16884c-1.66302,-11.04494 29.09721,11.85345 61.48482,6.97688z" fill="#e47816" stroke-width="0"/></g></g><path d="M180.25993,141.39873c0,-31.80358 32.53018,-57.58549 72.6582,-57.58549c40.12802,0 72.6582,25.7819 72.6582,57.58549c0,31.80358 -32.53018,57.58549 -72.6582,57.58549c-40.12802,0 -72.6582,-25.7819 -72.6582,-57.58549z" fill="#fdf7c7" stroke="#000000" stroke-width="2"/><path d="M180.80907,138.4727c0,-3.52561 2.35177,-8.7085 2.62288,-9.88302c3.3547,-14.53329 30.25799,59.95585 65.9376,59.95585c40.12802,0 49.30313,4.60319 4.46071,9.66756c-39.90255,4.24795 -73.02118,-27.93679 -73.02118,-59.74039z" fill="#f2bd9d" stroke="#000000" stroke-width="0"/></g><path d="M231.4193,145.16323c0,-7.78178 8.16425,-7.13069 15.94603,-7.13069c7.78178,0 12.23431,-0.65109 12.23431,7.13069c0,7.78178 -6.30839,14.09017 -14.09017,14.09017c-7.78178,0 -14.09017,-6.30839 -14.09017,-14.09017z" fill="#1a1507" stroke="#0c0c0c" stroke-width="2" stroke-linecap="butt"/><path d="M248.03651,143.97462c0,-2.74328 2.22387,-4.96715 4.96715,-4.96715c2.74328,0 4.96715,2.22387 4.96715,4.96715c0,2.74328 -2.22387,4.96715 -4.96715,4.96715c-2.74328,0 -4.96715,-2.22387 -4.96715,-4.96715z" fill="#fdf7c7" stroke="#000000" stroke-width="0" stroke-linecap="butt"/><path d="M287.74043,143.74351c0,-7.78178 6.61769,-6.97603 14.39948,-6.97603c7.78178,0 13.78086,-0.80575 13.78086,6.97603c0,7.78179 -6.30839,14.09017 -14.09017,14.09017c-7.78178,0 -14.09017,-6.30839 -14.09017,-14.09017z" fill="#1a1507" stroke="#0c0c0c" stroke-width="2" stroke-linecap="butt"/><path d="M305.15083,142.55489c0,-2.74328 2.22387,-4.96716 4.96715,-4.96716c2.74328,0 4.96715,2.22387 4.96715,4.96716c0,2.74329 -2.22387,4.96715 -4.96715,4.96715c-2.74328,0 -4.96715,-2.22386 -4.96715,-4.96715z" fill="#fdf7c7" stroke="#000000" stroke-width="0" stroke-linecap="butt"/><path d="M259.5273,185.04157c-4.50738,2.25369 -9.05934,2.28466 -10.16709,0.06916c-1.10775,-2.21549 1.6482,-5.83848 6.15558,-8.09217c4.50738,-2.25369 9.05934,-2.28466 10.16709,-0.06916c1.10775,2.21549 -1.6482,5.83848 -6.15558,8.09217z" fill="none" stroke="#1a1507" stroke-width="2" stroke-linecap="butt"/></g></g></svg>