<svg version="1.1" xmlns="http://www.w3.org/2000/svg" xmlns:xlink="http://www.w3.org/1999/xlink" width="213.31759" height="330.79291" viewBox="0,0,213.31759,330.79291"><g transform="translate(-224.78117,-29.7221)"><g data-paper-data="{&quot;isPaintingLayer&quot;:true}" fill-rule="nonzero" stroke-linejoin="miter" stroke-miterlimit="10" stroke-dasharray="" stroke-dashoffset="0" style="mix-blend-mode: normal"><g><path d="M406.18911,201.54705c-14.73023,3.2624 -24.97406,-2.23978 -28.88023,-16.65685c-3.05509,-11.27572 6.42606,-26.70722 21.15632,-29.96963c14.7303,-3.26244 27.53905,3.88595 30.76897,18.46939c0.50511,2.28057 0.29441,4.5352 0.12122,6.59624c-0.93442,11.11833 -10.73954,18.80862 -23.16626,21.56086z" fill="#216aff" stroke="#000000" stroke-width="2" stroke-linecap="butt"/><path d="M387.07024,162.64978c0,0 0.81017,5.69867 2.63585,6.52347c17.51213,7.91194 31.41049,5.89855 35.95649,4.88183c1.03283,-0.23099 1.38672,-1.29664 1.38672,-1.29664c0,0 0.67129,2.00437 0.67066,4.74554c-0.00067,2.91684 -0.71528,6.65758 -2.19917,9.34892c-1.69505,3.07423 -7.46566,9.09158 -7.46566,9.09158l-19.49654,7.66447c0,0 -11.92521,-6.22449 -13.38298,-7.82817c-1.42813,-1.57108 -2.66745,-3.83975 -4.08221,-6.19886c-2.1966,-3.66285 -3.03377,-8.12447 -2.74735,-10.99026c0.36559,-3.6574 2.29923,-7.90156 4.45805,-11.04828c2.00919,-2.92861 4.26616,-4.89342 4.26616,-4.89342z" fill="#3236f4" stroke="none" stroke-width="0" stroke-linecap="butt"/><path d="M394.6336,185.88693c0,0 -3.73346,-8.21338 -2.56904,-13.23575c1.474,-6.35781 7.8083,-17.67059 7.8083,-17.67059" fill="none" stroke="#000000" stroke-width="1" stroke-linecap="round"/><path d="M426.14768,167.00892c0,0 0.03965,7.15041 -0.96296,11.3297c-1.01214,4.21923 -6.45648,12.25114 -6.45648,12.25114" fill="none" stroke="#000000" stroke-width="1" stroke-linecap="round"/><path d="M385.02214,191.17616c0,0 -3.95828,-8.37365 -2.44934,-13.75624c2.31541,-8.25936 7.55185,-18.6071 7.55185,-18.6071" fill="none" stroke="#000000" stroke-width="1" stroke-linecap="round"/><path d="M377.76683,177.72411c0,0 11.10978,-13.2683 28.47596,-11.86834c19.02244,1.53347 22.4324,18.44095 22.4324,18.44095" fill="none" stroke="#000000" stroke-width="1" stroke-linecap="round"/><path d="M378.56729,187.21433c0,0 13.5172,-11.58222 28.84409,-10.37984c12.58479,0.98729 16.78928,14.96017 16.78928,14.96017" fill="none" stroke="#000000" stroke-width="1" stroke-linecap="round"/><path d="M412.93163,160.19363c-1.13714,-0.39257 -1.80697,-1.44061 -1.49619,-2.34078c0.31074,-0.90023 1.0706,-0.66235 2.20774,-0.26976c1.13714,0.39257 2.22087,0.7912 1.9101,1.69139c-0.31074,0.90023 -1.48455,1.31175 -2.62162,0.91913z" fill="#8fbbbe" stroke="none" stroke-width="0" stroke-linecap="butt"/><path d="M419.41692,163.47993c-0.58727,0.13003 -1.22147,-0.47858 -1.41656,-1.35946c-0.1951,-0.88087 -0.15314,-1.26748 0.43409,-1.39756c0.58727,-0.13003 1.39869,0.43935 1.59376,1.32022c0.1951,0.88087 -0.0241,1.30673 -0.61133,1.43678z" fill="#8fbbbe" stroke="none" stroke-width="0" stroke-linecap="butt"/><path d="M406.37128,157.99693c-0.89668,0.10011 -1.67764,-0.30327 -1.74439,-0.90103c-0.0668,-0.5977 0.72376,-0.63187 1.62039,-0.73201c0.89668,-0.10011 1.55986,-0.2284 1.62664,0.36937c0.0668,0.5977 -0.60601,1.16352 -1.50267,1.26366z" fill="#8fbbbe" stroke="none" stroke-width="0" stroke-linecap="butt"/><path d="M383.85892,165.77791c0,0 8.73046,-5.33464 16.19905,-6.61528c4.23433,-0.72604 8.21688,0.0958 11.2293,0.75272c2.66404,0.5809 8.02531,4.38646 11.82581,7.7263c2.79809,2.45895 4.60581,4.78254 4.60581,4.78254" fill="none" stroke="#000000" stroke-width="0.5" stroke-linecap="round"/><path d="M416.66588,156.09506c0,0 1.8876,10.40263 0.84133,15.70569c-0.88148,4.46795 -6.35537,13.96012 -6.35537,13.96012" fill="none" stroke="#000000" stroke-width="1" stroke-linecap="round"/><path d="M405.30482,185.3826c0,0 -1.61948,-9.52918 -1.22938,-14.03459c0.68494,-7.91061 6.11417,-16.79319 6.11417,-16.79319" fill="none" stroke="#000000" stroke-width="1" stroke-linecap="round"/></g><path d="M384.81323,322.14583c0,0 5.51832,-53.93502 6.98149,-78.11554c1.25299,-20.70694 -2.81874,-52.77974 -2.81874,-52.77974l24.72173,-4.89233l-5.29671,137.21492z" fill="#000000" stroke="none" stroke-width="0" stroke-linecap="butt"/><path d="M428.86782,196.48277c-0.33158,5.47967 -11.83149,9.24223 -25.68577,8.4039c-13.85428,-0.83833 -24.8166,-5.96009 -24.48502,-11.43976c0.33158,-5.47967 11.83149,-9.24223 25.68577,-8.4039c13.85428,0.83833 24.8166,5.96009 24.48502,11.43976z" fill="#000000" stroke="none" stroke-width="NaN" stroke-linecap="butt"/><g data-paper-data="{&quot;index&quot;:null}" stroke="#000000" stroke-linecap="butt"><path d="M372.92507,225.28309c22.59607,-24.50993 32.18494,-23.457 38.13395,-17.9725c5.94903,5.48449 -7.54609,29.79977 -30.14217,54.30969c-22.59609,24.50992 -30.07111,-47.32052 -36.02012,-52.80501c-1.72996,-6.88009 4.76674,-6.25503 10.77231,-1.18661c7.4063,6.25057 15.32461,19.74944 17.25605,17.65442z" fill="#216aff" stroke-width="2"/><path d="M381.01348,198.67615c9.6988,-10.52029 26.30908,-10.98386 37.1001,-1.03547c10.79102,9.94841 11.67646,26.54157 1.97765,37.06186c-9.6988,10.52029 -26.30909,10.98388 -37.10013,1.03547c-10.79102,-9.94841 -11.67644,-26.54156 -1.97763,-37.06185z" fill="#faddbf" stroke-width="2"/><path d="M402.31951,234.19094c9.6988,-10.52029 4.13137,-46.136 14.92239,-36.18759c10.79102,9.94841 11.67644,26.54157 1.97764,37.06185c-9.6988,10.52029 -26.59885,9.64605 -16.90004,-0.87424z" fill="#ef8b89" stroke-width="0"/></g><path d="M224.78117,360.17125v-93.89347h213.03043v93.89347z" fill="#000000" stroke="none" stroke-width="NaN" stroke-linecap="butt"/><g stroke="#000000" stroke-linecap="butt"><path d="M339.10697,339.6478l-14.75435,-94.1458l29.13636,-4.56619l14.75435,94.1458z" fill="#73fffc" stroke-width="2"/><path d="M338.68947,339.08775l-13.21042,-92.86015c0,0 15.68585,66.48538 18.30656,75.60575c0.57936,2.01623 2.92382,2.36571 2.92382,2.36571l20.4165,10.0997z" fill="#59a9e6" stroke-width="0"/></g><g fill="none" stroke="#808080" stroke-width="0.5" stroke-linecap="round"><path d="M437.84876,280.63432l-193.59492,1.15407l-17.0225,-13.84882"/><path d="M243.96532,281.78839l-2.01962,78.47663"/></g><g stroke="#000000" stroke-linecap="butt"><path d="M251.00383,322.49599l37.64011,-87.54624l27.09392,11.64891l-37.64011,87.54624z" fill="#73fffc" stroke-width="2"/><path d="M250.94863,321.79966l38.26242,-85.63591c0,0 -22.12354,64.62894 -24.76147,73.74435c-0.58317,2.01513 1.21523,3.55928 1.21523,3.55928l11.90394,19.41993z" fill="#59a9e6" stroke-width="0"/></g><g stroke="#000000" stroke-linecap="butt"><path d="M357.28266,227.15028c-0.8879,13.77412 7.66295,37.31411 1.95108,46.68197c-6.98523,11.45625 -29.13826,7.23636 -39.44416,6.57203c-13.63457,-0.87891 -33.1441,2.04231 -37.31071,-17.26806c-1.55807,-7.22094 6.42803,-32.02547 6.96522,-40.35893c1.97375,-30.61894 18.75998,-54.46156 37.49308,-53.25399c18.73311,1.20757 32.31925,27.00805 30.3455,57.62699z" fill="#216aff" stroke-width="2"/><path d="M305.12319,239.39689c-0.8879,13.77412 60.5916,24.49735 54.87973,33.8652c-6.98523,11.45624 -29.13826,7.23636 -39.44416,6.57203c-13.63457,-0.87891 -33.14409,2.04231 -37.3107,-17.26805c-1.55808,-7.22094 6.42803,-32.02548 6.96522,-40.35893c0.60806,-9.43286 5.18128,-28.32337 7.4359,-29.551c7.01001,-16.34707 8.82641,25.76109 7.47403,46.74075z" fill="#3236f4" stroke-width="0"/></g><g stroke="#000000" stroke-linecap="butt"><g><path d="M232.67247,114.92514c1.82522,-46.75517 41.20741,-83.17811 87.96259,-81.35288c46.75517,1.82523 83.17811,41.20741 81.35289,87.96259c-1.82522,46.75517 -41.20742,83.17811 -87.96259,81.35289c-46.75517,-1.82522 -83.17811,-41.20742 -81.35289,-87.96259z" fill="#faddbf" stroke-width="2"/><path d="M232.93699,114.06528c0.58723,-15.04282 10.25046,-40.64226 14.88146,-43.67809c0.52886,-0.34671 6.12959,-8.6778 13.90637,-15.09585c9.66602,-7.9772 21.88974,-14.31343 22.49236,-14.09268c7.86237,2.87989 -20.04307,64.12188 -19.79162,89.4409c0.00059,0.06038 3.63557,19.85851 5.2357,20.36023c2.6983,4.85143 8.35684,19.49419 18.95136,27.05334c19.7441,14.08739 48.13692,21.57428 46.63503,22.02177c-2.40249,0.71582 -14.89945,2.1895 -20.95775,1.953c-46.75517,-1.82522 -83.17811,-41.20741 -81.35289,-87.96258z" fill="#ef8b89" stroke-width="0"/><path d="M401.48278,121.05657c-0.45344,11.61549 -2.18678,15.56726 -2.66618,13.69541c-0.48909,-1.90963 0.19628,-9.81343 -8.46425,-14.99084c-2.09861,-1.25458 -10.44329,5.87315 -13.12091,4.53954c-1.68185,-0.83766 -8.24864,-10.5053 -10.13448,-11.25547c-1.31856,-0.52451 -12.76742,7.88554 -14.14833,7.38064c-3.44401,-1.25924 -11.53573,-11.83254 -15.25842,-12.63638c-2.04996,-0.44265 -9.73797,11.47865 -11.83549,11.14272c-2.70501,-0.43322 -9.59018,-12.452 -12.3255,-12.55877c-7.27432,-0.28396 -7.74757,6.71367 -13.21569,12.51102c-3.55331,3.76725 -13.46864,-13.58761 -16.76308,-9.27764c-4.09132,5.35246 -8.13603,10.50833 -12.51424,13.93978c-3.43487,2.69211 -12.96013,-10.61049 -15.93604,-8.10689c-14.36855,12.08805 -23.01189,19.76111 -22.30303,1.60312c1.42536,-36.51234 43.5751,-6.51868 86.16556,-26.39418c40.76718,-19.02462 83.94546,-6.1044 82.52009,30.40793z" fill="#ef8b89" stroke-width="0"/></g><path d="M403.33966,112.81184c-0.91603,23.46547 6.18676,8.96346 -11.4245,-1.3069c-2.15511,-1.25679 -10.71192,5.86265 -13.46134,4.52625c-1.72695,-0.83943 -8.47636,-10.51418 -10.4126,-11.26632c-1.35378,-0.52587 -13.09513,7.87275 -14.51286,7.36642c-3.53589,-1.26283 -11.85126,-11.84486 -15.67268,-12.65255c-2.10433,-0.44477 -9.9823,11.46911 -12.13533,11.13101c-2.77659,-0.436 -9.85521,-12.46234 -12.66255,-12.57193c-7.46592,-0.29145 -7.94444,6.70598 -13.55042,12.49795c-3.64291,3.76375 -13.83682,-13.60197 -17.21349,-9.29522c-4.19342,5.34848 -8.33922,10.50039 -12.82904,13.9275c-3.52245,2.68869 -13.31189,-10.62422 -16.36349,-8.12358c-14.73403,12.0738 -23.59683,19.73826 -22.88798,1.58029c1.42536,-36.51234 43.00199,-79.64016 88.89387,-77.84865c45.89188,1.79152 85.65783,45.52342 84.23247,82.03576z" fill="#724e36" stroke-width="2"/><path d="M403.13749,111.64027c-0.91603,23.46547 6.18676,8.96346 -11.4245,-1.30691c-2.15511,-1.25679 -10.71192,5.86266 -13.46134,4.52626c-1.72695,-0.83943 -8.47636,-10.51419 -10.4126,-11.26632c-1.35378,-0.52587 -13.09513,7.87274 -14.51286,7.36641c-3.53589,-1.26283 -11.85127,-11.84485 -15.67268,-12.65255c-2.10433,-0.44477 -9.98229,11.46911 -12.13532,11.13101c-2.77659,-0.436 -9.85521,-12.46235 -12.66255,-12.57194c-7.46592,-0.29145 -7.94444,6.70598 -13.55042,12.49795c-3.64291,3.76375 -13.83682,-13.60197 -17.21349,-9.29523c-4.19342,5.34848 -8.33922,10.5004 -12.82905,13.9275c-3.52245,2.68869 -13.31189,-10.62422 -16.36349,-8.12359c-14.73403,12.0738 -23.59684,19.73826 -22.88799,1.58029c1.42536,-36.51234 44.71443,-6.4742 88.40467,-26.30675c41.81986,-18.98352 86.14701,-6.01845 84.72166,30.49388z" fill="#623728" stroke-width="0"/></g><g stroke="#000000" stroke-linecap="butt"><path d="M335.25761,141.84964c-1.11403,28.53721 -14.84691,42.74285 -31.40285,42.09654c-16.55593,-0.64631 -29.66551,-15.89984 -28.55149,-44.43704c1.11403,-28.5372 15.43837,-51.14723 31.9943,-50.50093c16.55593,0.64631 29.07407,24.30422 27.96004,52.84142z" fill="#f0f0f0" stroke-width="2"/><path d="M289.30134,120.4583c-5.40063,28.04365 31.77728,63.32936 15.22136,62.68305c-16.55593,-0.64631 -29.66551,-15.89983 -28.55149,-44.43703c1.11403,-28.5372 21.13785,-58.78885 13.33014,-18.24602z" fill="#9a99ff" stroke-width="0"/></g><path d="M331.04498,149.9247c-0.61719,15.81017 -5.80287,28.44394 -11.58253,28.21831c-5.77966,-0.22563 -9.96466,-13.22521 -9.34747,-29.03538c0.61719,-15.81017 5.80287,-28.44393 11.58253,-28.21831c5.77966,0.22562 9.96466,13.22521 9.34747,29.03538z" fill="#000000" stroke="none" stroke-width="0" stroke-linecap="butt"/><g stroke="#000000" stroke-linecap="butt"><path d="M331.42373,111.64242c4.05703,10.39597 11.12152,55.62786 -4.5768,55.01504c-15.6983,-0.61282 -48.54088,-47.60133 -43.62446,-57.03196c4.67791,-8.97308 7.62008,-21.13776 23.31838,-20.52493c15.6983,0.61281 21.01648,12.63433 24.88287,22.54183z" fill="#a100fe" stroke-width="2"/><path d="M330.51398,111.25239c3.90508,10.39003 11.87619,55.04691 -3.28686,54.45497c-15.16303,-0.59194 -48.03227,-46.97107 -43.2707,-56.40773c4.53057,-8.97884 6.51572,1.21711 21.67874,1.80905c15.16303,0.59194 21.15718,-9.75817 24.87878,0.14368z" fill="#99008e" stroke-width="0"/></g><g data-paper-data="{&quot;index&quot;:null}" stroke="#000000" stroke-linecap="butt"><path d="M371.03343,90.01657c16.55593,0.64631 29.07407,24.30422 27.96004,52.84142c-1.11403,28.53719 -15.37283,42.72232 -31.92876,42.07601c-16.55593,-0.64631 -29.13959,-15.8793 -28.02557,-44.41651c1.11403,-28.5372 15.43837,-51.14723 31.9943,-50.50093z" fill="#f0f0f0" stroke-width="2"/><path d="M398.39032,142.00354c-1.11403,28.53719 -15.37284,42.72233 -31.92877,42.07602c-16.55593,-0.64631 23.25961,-32.92639 20.0616,-61.3057c-4.62336,-41.0281 12.98119,-9.30753 11.86717,19.22968z" fill="#9a99ff" stroke-width="0"/></g><path d="M385.47733,123.20759c5.77966,0.22562 9.96466,13.22521 9.34747,29.03538c-0.61719,15.81017 -5.80286,28.44394 -11.58252,28.21831c-5.77966,-0.22563 -9.96466,-13.22521 -9.34747,-29.03538c0.61719,-15.81017 5.80286,-28.44393 11.58252,-28.21831z" data-paper-data="{&quot;index&quot;:null}" fill="#000000" stroke="none" stroke-width="0" stroke-linecap="butt"/><g data-paper-data="{&quot;index&quot;:null}" stroke="#000000" stroke-linecap="butt"><path d="M345.21623,110.70106c4.62698,-9.57595 10.86613,-21.14628 26.56442,-20.53344c15.6983,0.61281 17.68321,12.96985 21.64736,22.2803c4.16629,9.78518 -30.9334,54.945 -46.63171,54.33217c-15.6983,-0.61282 -6.43519,-46.03093 -1.58009,-56.07901z" fill="#a100fe" stroke-width="2"/><path d="M346.15361,110.38314c4.48218,-9.5816 9.65125,1.20429 24.81428,1.79623c15.16303,0.59194 17.93697,-9.41825 21.75379,-0.11354c4.01142,9.77913 -31.10268,54.75821 -46.26571,54.16628c-15.16303,-0.59194 -5.00554,-45.79494 -0.30237,-55.84895z" fill="#99008e" stroke-width="0"/></g><path d="M401.90363,327.81713c1.80573,11.52216 -11.07516,23.1108 -28.77028,25.88395c-17.69512,2.77315 -33.50368,-4.31934 -35.30941,-15.8415c-0.36097,-2.30331 -2.16344,-13.58899 -1.2672,-15.12455c3.58715,-6.14597 18.4176,2.43929 32.57542,0.2205c17.69512,-2.77315 30.96574,-6.66057 32.77147,4.86159z" fill="#000082" stroke="#000000" stroke-width="2" stroke-linecap="butt"/><path d="M399.61706,325.40982c0.97672,6.23234 -12.14536,12.21788 -29.84049,14.99102c-17.69512,2.77315 -30.25981,1.74868 -31.23653,-4.48366c-0.19525,-1.24586 -1.97236,-12.36981 -0.97815,-13.28023c3.97927,-3.6439 16.2588,3.29501 30.41662,1.07622c17.69512,-2.77315 30.66182,-4.5357 31.63854,1.69664z" fill="#2e0048" stroke="#000000" stroke-width="0" stroke-linecap="butt"/><path d="M306.57448,346.18414c-4.60664,10.71447 -21.68023,13.66514 -38.13493,6.59052c-16.4547,-7.07462 -26.05946,-21.49554 -21.45282,-32.21c0.92088,-2.14185 5.40436,-12.65441 6.98061,-13.47698c6.30885,-3.29227 14.29083,11.87141 27.4562,17.5318c16.4547,7.07462 29.75758,10.85019 25.15094,21.56466z" fill="#000082" stroke="#000000" stroke-width="2" stroke-linecap="butt"/><path d="M305.9208,342.92894c-2.49173,5.79546 -16.78604,3.87494 -33.24075,-3.19969c-16.4547,-7.07462 -26.54465,-14.632 -24.05292,-20.42745c0.4981,-1.15853 4.91693,-11.52068 6.24325,-11.76193c5.3085,-0.96559 12.00787,11.44626 25.17323,17.10665c16.4547,7.07462 28.36892,12.48697 25.87719,18.28243z" fill="#2e0048" stroke="#000000" stroke-width="0" stroke-linecap="butt"/><g stroke="#000000" stroke-linecap="butt"><path d="M276.32114,234.13585c23.26958,23.87143 21.70657,33.39049 15.91254,39.03844c-5.79404,5.64796 -29.35477,-9.12511 -52.62433,-32.99656c-23.26957,-23.87144 48.85737,-27.50383 54.65143,-33.15178c6.96257,-1.36045 5.99184,5.09365 0.61023,10.82026c-6.63676,7.06228 -20.53884,14.2492 -18.54985,16.28964z" fill="#216aff" stroke-width="2"/><path d="M302.45868,243.63214c9.9879,10.24623 9.56471,26.8576 -0.94521,37.10252c-10.50991,10.24492 -27.12667,10.24388 -37.11458,-0.00234c-9.9879,-10.24623 -9.56469,-26.85759 0.94522,-37.10253c10.50991,-10.24493 27.12667,-10.24388 37.11458,0.00235z" fill="#faddbf" stroke-width="2"/><path d="M265.85785,263.01324c9.9879,10.24623 45.8499,6.58675 35.33998,16.83168c-10.50991,10.24492 -27.12667,10.24388 -37.11458,-0.00235c-9.9879,-10.24623 -8.21331,-27.07556 1.77459,-16.82933z" fill="#ef8b89" stroke-width="0"/></g><path d="M276.89162,169.62071c0.84874,0.91769 -0.06896,1.76643 -0.06896,1.76643l-0.10734,0.01191c-1.3775,2.50346 -2.63081,5.25808 -5.4413,6.4994c-2.91375,1.28693 -6.71825,0.13017 -7.27202,-3.23746c-0.74257,-4.51566 3.73246,-8.79036 5.91623,-12.22362c0,0 0.67147,-1.05433 1.7258,-0.38286c1.05433,0.67147 0.38287,1.72581 0.38287,1.72581c-1.84578,2.8947 -5.98391,6.73821 -5.54949,10.53089c0.19415,1.69499 2.50874,1.90093 3.81106,1.28969c2.21638,-1.04023 3.14248,-3.41546 4.23607,-5.40628l0.60064,-0.64288c0,0 0.91769,-0.84874 1.76642,0.06895z" fill="#000000" stroke="none" stroke-width="0.5" stroke-linecap="butt"/></g></g></svg>