<svg version="1.1" xmlns="http://www.w3.org/2000/svg" xmlns:xlink="http://www.w3.org/1999/xlink" width="307.10159" height="131.33486" viewBox="0,0,307.10159,131.33486"><g transform="translate(-222.42969,-148.8175)"><g data-paper-data="{&quot;isPaintingLayer&quot;:true}" fill-rule="nonzero" stroke-linecap="butt" stroke-linejoin="miter" stroke-miterlimit="10" stroke-dasharray="" stroke-dashoffset="0" style="mix-blend-mode: normal"><text transform="translate(316.27943,191.08926) scale(0.8727,0.8727)" font-size="40" xml:space="preserve" fill="#000000" fill-rule="nonzero" stroke="#000000" stroke-width="5" stroke-linecap="butt" stroke-linejoin="miter" stroke-miterlimit="10" stroke-dasharray="" stroke-dashoffset="0" font-family="&quot;Comic Sans MS&quot;, Sans Serif" font-weight="normal" text-anchor="start" style="mix-blend-mode: normal"><tspan x="0" dy="0">Marathon</tspan></text><text transform="translate(315.68644,190.89688) scale(0.8727,0.8727)" font-size="40" xml:space="preserve" fill="#ffffff" fill-rule="nonzero" stroke="#000000" stroke-width="0" stroke-linecap="butt" stroke-linejoin="miter" stroke-miterlimit="10" stroke-dasharray="" stroke-dashoffset="0" font-family="&quot;Comic Sans MS&quot;, Sans Serif" font-weight="normal" text-anchor="start" style="mix-blend-mode: normal"><tspan x="0" dy="0">Marathon</tspan></text><path d="M222.4297,280.15236v-125.31096h125.31096v125.31096z" data-paper-data="{&quot;index&quot;:null}" fill="none" stroke="none" stroke-width="0"/><path d="M494.36063,181.8905c-0.25359,0.14265 -2.53654,0.98255 -1.99566,1.63315c0.57849,0.69584 2.48281,-0.73587 2.48281,1.03697c0,1.46097 -3.57515,1.26408 -4.25713,0.19239c-1.00928,-1.586 0.65501,-3.33296 1.77195,-4.16913c0.27646,-0.20696 1.68137,-0.95259 2.00538,-0.38558c0.28717,0.16949 0.47981,0.48208 0.47981,0.83967c0,0.31706 -0.15145,0.59876 -0.38597,0.77668c-0.03,0.02904 -0.06344,0.0546 -0.10119,0.07584z" fill="#000000" stroke="none" stroke-width="2.5"/><path d="M480.91274,176.88665c0,-10.58663 3.6723,-19.83206 22.95688,-19.70919c27.9441,0.17804 21.68291,25.22733 21.68291,25.22733c0,0 3.07845,1.20581 2.06591,4.55848c-1.24023,4.10663 -11.8653,9.09215 -23.74878,9.09215c-12.67873,0 -22.95688,-8.58215 -22.95688,-19.16878z" data-paper-data="{&quot;index&quot;:null}" fill="#0088c2" stroke="#000000" stroke-width="2"/><path d="M514.01565,188.71323c-1.22481,0.1854 -1.06535,-1.80905 -1.2533,-3.98419c-0.12295,-1.42294 -0.15413,-2.74708 -0.15413,-2.74708c0,0 -1.67421,1.38874 -2.25894,0.92268c-0.36905,-0.29414 13.38311,-12.86098 13.38311,-12.86098l-7.59509,9.16066c0,0 -1.18118,9.36656 -2.12165,9.50892z" data-paper-data="{&quot;index&quot;:null}" fill="#000000" stroke="none" stroke-width="0.5"/><path d="M504.30083,189.71923c-2.85637,-0.53934 -1.46406,-4.73656 -1.82923,-6.02065c-0.36517,-1.2841 -0.68271,-2.81231 -0.68271,-2.81231l-20.08968,-9.89824l26.57309,10.59209c0,0 -4.12286,-4.28527 -1.75929,-3.20346c2.36356,1.0818 3.34334,4.89573 3.34334,4.89573l-1.94257,-0.67647c0,0 -1.39547,7.54201 -3.61295,7.12331z" data-paper-data="{&quot;index&quot;:null}" fill="#000000" stroke="none" stroke-width="0.5"/><path d="M480.06691,175.89684c0,-10.93739 3.79399,-20.48915 23.71752,-20.36221c28.86996,0.18393 22.40132,26.06318 22.40132,26.06318c0,0 3.18044,1.24576 2.13436,4.70952c-1.28132,4.24269 -12.25844,9.39339 -24.53565,9.39339c-13.09883,0 -23.71752,-8.86651 -23.71752,-19.8039z" data-paper-data="{&quot;index&quot;:null}" fill="#1a54c9" stroke="#000000" stroke-width="2"/><path d="M525.82471,173.30325c0,3.13806 0.03695,4.10658 -0.11207,3.60669c-0.15204,-0.50997 0.29678,-2.53352 -2.09392,-3.83892c-0.57932,-0.31633 -2.75524,1.69426 -3.49157,1.36271c-0.46251,-0.20825 -2.33571,-2.74694 -2.85231,-2.92945c-0.3612,-0.1276 -3.36098,2.26157 -3.7388,2.13992c-0.94228,-0.30341 -3.23636,-3.07037 -4.24903,-3.248c-0.55764,-0.09781 -2.50595,3.19892 -3.07529,3.1304c-0.73425,-0.08838 -2.71809,-3.25795 -3.45706,-3.25795c-1.96523,0 -2.01921,1.89261 -3.43319,3.51403c-0.91883,1.05363 -3.77625,-3.52344 -4.61955,-2.32612c-1.04728,1.48691 -2.08404,2.92031 -3.22893,3.89205c-0.89821,0.76237 -3.60774,-2.72571 -4.38413,-2.01903c-3.74861,3.41207 -6.13446,5.80866 -6.13446,0.90307c0,-9.86424 11.82084,-2.45304 23.10036,-8.26296c10.79664,-5.56121 21.65423,-2.53066 21.65423,7.33358z" data-paper-data="{&quot;index&quot;:null}" fill="#133c8f" stroke="#000000" stroke-width="0"/><path d="M527.04886,171.05969c0,6.33947 1.76328,2.35276 -3.09553,-0.23223c-0.59458,-0.31633 -2.82782,1.69426 -3.58355,1.36271c-0.47469,-0.20825 -2.39723,-2.74694 -2.92744,-2.92945c-0.37073,-0.1276 -3.44952,2.26157 -3.83728,2.13992c-0.96711,-0.30343 -3.32162,-3.07037 -4.36096,-3.248c-0.57233,-0.09782 -2.57195,3.19892 -3.15629,3.13038c-0.75358,-0.08837 -2.78968,-3.25794 -3.54812,-3.25794c-2.01699,0 -2.0724,1.89261 -3.52362,3.51403c-0.94304,1.05363 -3.87572,-3.52344 -4.74123,-2.32612c-1.07485,1.48691 -2.13893,2.92031 -3.31398,3.89205c-0.92187,0.76237 -3.70276,-2.72571 -4.49961,-2.01903c-3.84737,3.41207 -6.1574,5.5729 -6.1574,0.6673c0,-9.86424 10.76117,-21.93581 23.1594,-21.93581c12.39823,0 23.58564,11.37795 23.58564,21.24219z" data-paper-data="{&quot;index&quot;:null}" fill="#1a54c9" stroke="#000000" stroke-width="2"/><path d="M523.88647,170.51354c-0.59458,-0.31633 -2.82782,1.69426 -3.58355,1.36271c-0.47469,-0.20825 -2.39723,-2.74694 -2.92744,-2.92945c-0.37072,-0.1276 -3.44952,2.26157 -3.83728,2.13992c-0.96711,-0.30343 -3.32162,-3.07037 -4.36096,-3.248c-0.57233,-0.09782 -2.57196,3.19892 -3.1563,3.13038c-0.75358,-0.08838 -2.78968,-3.25795 -3.54812,-3.25795c-2.017,0 -2.0724,1.89261 -3.52362,3.51403c-0.94304,1.05363 -3.87572,-3.52344 -4.74123,-2.32612c-1.07486,1.48691 -2.13895,2.92031 -3.31399,3.89205c-0.92187,0.76237 -3.70276,-2.72571 -4.49961,-2.01903c-3.84737,3.41207 -6.1574,5.5729 -6.1574,0.6673c0,-9.86424 11.99357,-2.21728 23.5702,-8.02721c11.08103,-5.56121 23.17484,-2.53066 23.17484,7.33358c0,6.33947 1.76328,2.35276 -3.09553,-0.23223z" data-paper-data="{&quot;index&quot;:null}" fill="#174bb2" stroke="#000000" stroke-width="0"/><path d="M516.90399,188.0044c-1.77702,-0.55721 -1.29492,-2.62234 -1.13801,-6.22013c0.15691,-3.59779 0.19764,-8.43527 1.76503,-8.15672c1.56739,0.27856 1.76883,3.62109 1.62069,7.01752c-0.14812,3.39643 -0.86815,7.79191 -2.24771,7.35933z" data-paper-data="{&quot;index&quot;:null}" fill="#000000" stroke="none" stroke-width="0.5"/><path d="M507.85922,188.69878c-2.68977,-0.55721 -1.96003,-2.62234 -1.72253,-6.22013c0.2375,-3.59779 0.29915,-8.43527 2.67161,-8.15672c2.37246,0.27856 2.67738,3.62109 2.45316,7.01752c-0.22421,3.39643 -1.31408,7.79191 -3.40223,7.35933z" data-paper-data="{&quot;index&quot;:null}" fill="#000000" stroke="none" stroke-width="0.5"/></g></g></svg>