<svg version="1.1" xmlns="http://www.w3.org/2000/svg" xmlns:xlink="http://www.w3.org/1999/xlink" width="202.22227" height="202.22228" viewBox="0,0,202.22227,202.22228"><g transform="translate(-136.94442,-75.55554)"><g data-paper-data="{&quot;isPaintingLayer&quot;:true}" fill-rule="nonzero" stroke-linejoin="miter" stroke-miterlimit="10" stroke-dasharray="" stroke-dashoffset="0" style="mix-blend-mode: normal"><path d="M267.79902,187.63032l2.19934,18.02653c0,0 -1.23209,1.25584 -2.26255,1.44436c-1.03047,0.18852 -2.03505,-0.65815 -2.03505,-0.65815l-5.36548,-17.09704" data-paper-data="{&quot;index&quot;:null}" fill="#414b67" stroke="#000000" stroke-width="2" stroke-linecap="round"/><path d="M262.71564,204.81844l-12.7577,-2.94794l-5.97048,-17.28759l2.16813,-4.66609l5.0879,0.55495l9.18298,8.24909l11.76823,-4.4682l2.95393,13.14694z" data-paper-data="{&quot;index&quot;:null}" fill="#ef8b89" stroke="#000000" stroke-width="2" stroke-linecap="round"/><path d="M243.09189,184.97776l2.98035,-4.85401l5.60136,-0.75083l10.01916,8.08288l-4.87106,6.85651l-11.92722,2.176z" data-paper-data="{&quot;index&quot;:null}" fill="#133c8f" stroke="#000000" stroke-width="2" stroke-linecap="butt"/><g data-paper-data="{&quot;index&quot;:null}" stroke="#000000"><path d="M260.8922,227.01369l-17.41582,2.86233l-6.58802,-2.49964l-1.24431,-32.58137l7.95303,-2.39048l7.98721,2.76535z" data-paper-data="{&quot;index&quot;:null}" fill="#73fffc" stroke-width="2" stroke-linecap="butt"/><path d="M242.62076,228.40666l-3.20988,-24.62352l4.12639,25.13464z" fill="#59a9e6" stroke-width="0" stroke-linecap="round"/></g><g data-paper-data="{&quot;index&quot;:null}" stroke="#000000"><path d="M237.46426,231.25419l-17.60365,3.14281l-6.38784,-3.97619l8.85377,-32.76418l8.19446,-1.73149l7.83175,3.15957z" data-paper-data="{&quot;index&quot;:null}" fill="#73fffc" stroke-width="2" stroke-linecap="butt"/><path d="M219.08317,232.76335l4.3718,-25.68317l-3.48977,26.36267z" fill="#59a9e6" stroke-width="0" stroke-linecap="round"/></g><path d="M245.15547,177.377l7.15079,20.02162l-25.0766,2.93386l-4.66369,-2.93656l3.55514,-19.50379z" data-paper-data="{&quot;index&quot;:null}" fill="#1a54c9" stroke="#000000" stroke-width="2" stroke-linecap="round"/><path d="M213.91429,153.78303c1.57445,-11.7082 7.01081,-21.38696 28.32015,-18.38305c30.87805,4.35277 20.22818,31.12466 20.22818,31.12466c0,0 3.22525,1.79138 1.60684,5.34866c-1.98236,4.35725 -14.47454,8.29077 -27.61697,6.52345c-14.02194,-1.88559 -24.11262,-12.90554 -22.53817,-24.61373z" data-paper-data="{&quot;index&quot;:null}" fill="#faddbf" stroke="#000000" stroke-width="2" stroke-linecap="butt"/><g data-paper-data="{&quot;index&quot;:null}" stroke="#000000" stroke-linecap="butt"><path d="M263.27016,157.59359c-0.45172,3.35921 -0.55157,4.4013 -0.63915,3.84473c-0.08934,-0.5678 0.6824,-2.66934 -1.68887,-4.41089c-0.57461,-0.42202 -3.1933,1.41703 -3.9338,0.95613c-0.46512,-0.2895 -2.10489,-3.27675 -2.63163,-3.54648c-0.36829,-0.18858 -3.9234,1.93715 -4.31033,1.75253c-0.96502,-0.46044 -3.02247,-3.75263 -4.08093,-4.08855c-0.58285,-0.18499 -3.14304,3.06362 -3.74264,2.90831c-0.77327,-0.2003 -2.44066,-3.87882 -3.23171,-3.9852c-2.10373,-0.2829 -2.43396,1.7353 -4.18099,3.26745c-1.13526,0.99562 -3.53518,-4.31535 -4.61026,-3.15505c-1.33512,1.44095 -2.65129,2.82611 -4.01676,3.70153c-1.07125,0.6868 -3.46961,-3.43714 -4.40245,-2.79241c-4.50397,3.11291 -7.40295,5.33496 -6.69678,0.08364c1.41997,-10.55941 13.00703,-0.92428 25.9178,-5.51995c12.35806,-4.39894 23.54458,0.40815 22.12461,10.96756z" data-paper-data="{&quot;index&quot;:null}" fill="#ef8b89" stroke-width="0"/><path d="M264.90356,155.36813c-0.91258,6.78623 1.54886,2.77239 -3.28025,-0.69421c-0.59095,-0.42422 -3.271,1.40659 -4.03226,0.94289c-0.47817,-0.29125 -2.17074,-3.28561 -2.71205,-3.5573c-0.37848,-0.18995 -4.01817,1.9244 -4.41575,1.73835c-0.99158,-0.46402 -3.11372,-3.7649 -4.20073,-4.10466c-0.59858,-0.18709 -3.21369,3.05412 -3.82935,2.89665c-0.79397,-0.20308 -2.5173,-3.88912 -3.32919,-3.9983c-2.15915,-0.29035 -2.4909,1.72766 -4.2778,3.25444c-1.16118,0.99214 -3.64166,-4.32966 -4.74052,-3.17256c-1.36465,1.43697 -2.71006,2.8182 -4.1078,3.68928c-1.09658,0.68339 -3.57134,-3.45082 -4.52607,-2.80904c-4.60968,3.0987 -7.39357,5.07929 -6.6874,-0.17203c1.41997,-10.55941 14.67725,-21.93264 27.94922,-20.14789c13.27197,1.78474 23.60993,15.57499 22.18996,26.1344z" data-paper-data="{&quot;index&quot;:null}" fill="#724e36" stroke-width="2"/><path d="M264.87716,155.02248c-0.91258,6.78623 1.54886,2.77239 -3.28025,-0.69421c-0.59095,-0.42422 -3.271,1.40659 -4.03226,0.94289c-0.47816,-0.29125 -2.17074,-3.28561 -2.71205,-3.5573c-0.37847,-0.18995 -4.01817,1.9244 -4.41575,1.73835c-0.99159,-0.46402 -3.11372,-3.7649 -4.20073,-4.10466c-0.59858,-0.18709 -3.2137,3.05412 -3.82936,2.89665c-0.79396,-0.20309 -2.51729,-3.88913 -3.32918,-3.99831c-2.15916,-0.29035 -2.4909,1.72766 -4.2778,3.25444c-1.16118,0.99214 -3.64166,-4.32966 -4.74052,-3.17256c-1.36466,1.43697 -2.71007,2.8182 -4.10781,3.68928c-1.09658,0.68339 -3.57134,-3.45082 -4.52607,-2.80904c-4.60968,3.0987 -7.39357,5.07929 -6.6874,-0.17203c1.41998,-10.55942 13.15799,-0.64706 26.38681,-5.19995c12.6625,-4.358 25.17235,0.62705 23.75238,11.18646z" data-paper-data="{&quot;index&quot;:null}" fill="#623728" stroke-width="0"/></g><g data-paper-data="{&quot;index&quot;:null}" stroke="#000000"><g data-paper-data="{&quot;index&quot;:null}"><path d="M221.05649,195.72221l-0.89304,15.30177l-14.56701,-2.40239l-6.31624,-8.24881l20.5528,-23.65253l6.97591,2.61591l3.5232,6.46338z" data-paper-data="{&quot;index&quot;:null}" fill="#faddbf" stroke-width="2" stroke-linecap="butt"/><path d="M205.59963,206.81719l12.81136,-19.14977l-12.31822,20.13069z" fill="#ef8b89" stroke-width="0" stroke-linecap="round"/></g><path d="M225.51825,196.35733l-10.72037,-7.72738l-1.98638,-8.17271l8.40252,-4.83415l8.82258,3.80642l0.97142,5.61251z" data-paper-data="{&quot;index&quot;:null}" fill="#1a54c9" stroke-width="2" stroke-linecap="butt"/></g><g data-paper-data="{&quot;index&quot;:null}" stroke="#000000" stroke-linecap="butt"><path d="M254.95258,183.97277c-1.00844,-4.231 1.54531,-8.46442 5.70397,-9.45564c4.15866,-0.9912 8.34744,1.63514 9.35589,5.86614c0.5535,2.32234 0.03383,4.64539 -1.23538,6.43263c-1.04315,1.4689 -7.15631,3.28601 -8.3969,2.91987c-2.60304,-0.7682 -4.74464,-2.89761 -5.4276,-5.76298z" fill="#414b67" stroke-width="2"/><path d="M264.22851,176.19819c0.24969,-0.39508 1.06979,-0.325 1.83173,0.15657c0.76193,0.48158 1.17719,1.19223 0.9275,1.58731c-0.24969,0.39508 -1.06979,0.325 -1.83173,-0.15657c-0.76193,-0.48158 -1.17719,-1.19223 -0.9275,-1.58731z" fill="#7082b2" stroke-width="0"/></g><path d="M255.21234,170.75174c-0.4671,0.26062 -0.97848,-0.04649 -0.97848,-0.04649l-0.30508,-0.18337c-2.46105,-1.54649 -8.24696,-4.21804 -7.2303,-6.35115c0.95983,-1.65873 1.17211,-1.21898 2.26772,-2.83643c0.23929,-0.35328 2.79293,-2.45311 3.12848,-2.2323c0.52383,0.34473 2.86368,0.51835 3.10888,0.94449c0.34826,0.60527 -0.56024,1.60375 -0.81798,2.1369c-0.41655,0.70449 -1.97614,2.25092 -1.6194,3.07826c0.11256,0.26104 0.79443,0.31115 1.16022,0.49164c1.24354,0.61363 2.93048,1.23533 3.83845,2.04113c1.17726,1.04481 -0.60818,1.92949 -1.30561,2.79696c0,0 -0.27836,0.34536 -0.91256,0.13808c-0.079,-0.0258 -0.1438,-0.05377 -0.19678,-0.08293c-0.03101,0.03535 -0.07571,0.07069 -0.13758,0.1052z" data-paper-data="{&quot;index&quot;:null}" fill="#000000" stroke="none" stroke-width="0.5" stroke-linecap="butt"/><path d="M234.5924,171.03167c-0.06142,-0.03533 -0.10563,-0.07128 -0.13617,-0.10703c-0.05337,0.02845 -0.11854,0.05555 -0.19787,0.0803c-0.63691,0.19882 -0.91064,-0.15021 -0.91064,-0.15021c-0.68582,-0.87668 -2.45933,-1.78504 -1.26826,-2.81409c0.91861,-0.79365 2.61368,-1.39284 3.86528,-1.98986c0.36817,-0.17561 1.05064,-0.21663 1.16668,-0.47616c0.36773,-0.82252 -1.17114,-2.38956 -1.57828,-3.09954c-0.25062,-0.53654 -1.14574,-1.54702 -0.78945,-2.14761c0.25085,-0.42284 2.59279,-0.56529 3.12117,-0.90302c0.33845,-0.21632 2.86392,1.91731 3.09848,2.27374c1.07398,1.6319 1.29209,1.195 2.22976,2.86636c0.98818,2.14646 -4.83278,4.74074 -7.3142,6.25433l-0.30749,0.1793c0,0 -0.51542,0.30027 -0.97901,0.03347z" data-paper-data="{&quot;index&quot;:null}" fill="#000000" stroke="none" stroke-width="0.5" stroke-linecap="butt"/><path d="M245.86482,174.80691c-1.35532,0.08052 -2.5193,-0.95292 -2.59981,-2.30825c-0.08052,-1.35532 0.95292,-2.5193 2.30825,-2.59981c1.35532,-0.08052 2.5193,0.95292 2.59981,2.30825c0.08052,1.35532 -0.95292,2.5193 -2.30825,2.59981z" data-paper-data="{&quot;index&quot;:null}" fill="#852368" stroke="#000000" stroke-width="1" stroke-linecap="butt"/><path d="M136.94445,277.77779v-202.22223h202.22222v202.22222z" data-paper-data="{&quot;index&quot;:null}" fill="none" stroke="#000000" stroke-width="0.00005" stroke-linecap="butt"/></g></g></svg>