<svg version="1.1" xmlns="http://www.w3.org/2000/svg" xmlns:xlink="http://www.w3.org/1999/xlink" width="260.61231" height="349.90802" viewBox="0,0,260.61231,349.90802"><g transform="translate(-96.38816,-2.75484)"><g data-paper-data="{&quot;isPaintingLayer&quot;:true}" fill-rule="nonzero" stroke-linejoin="miter" stroke-miterlimit="10" stroke-dasharray="" stroke-dashoffset="0" style="mix-blend-mode: normal"><g stroke="#2a2b40" stroke-linecap="butt"><path d="M272.47963,187.10176l-7.28991,-116.62177l46.93666,-2.93397l7.28991,116.62177z" fill="#000000" stroke-width="2"/><path d="M271.5021,177.96541l-1.6296,-26.06984l47.38369,-2.96191l1.6296,26.06984z" fill="#ffffff" stroke-width="2.5"/></g><path d="M235.17097,351.66286v-94.89051h40.95702v94.89051z" fill="#000000" stroke="#2a2b40" stroke-width="2" stroke-linecap="butt"/><path d="M193.90771,349.39579v-94.89051h40.95702v94.89051z" fill="#000000" stroke="#2a2b40" stroke-width="2" stroke-linecap="butt"/><g stroke-linecap="butt"><path d="M194.17762,258.94034v-123.12083h82.34382v123.12083z" fill="#000000" stroke="#2a2b40" stroke-width="2"/><path d="M254.63141,168.83948c0,25.27481 -8.58873,45.76409 -19.18347,45.76409c-10.59474,0 -19.18347,-20.48928 -19.18347,-45.76409c0,-25.27481 7.35902,-33.69135 17.95376,-33.69135c10.59474,0 20.41318,8.41655 20.41318,33.69135z" fill="#ffffff" stroke="#2a2b40" stroke-width="2.5"/><path d="M240.72039,165.00049c0,15.66108 -2.80786,28.35689 -6.27152,28.35689c-3.46366,0 -6.27152,-12.69581 -6.27152,-28.35689c0,-15.66108 2.80786,-28.3569 6.27152,-28.3569c3.46366,0 6.27152,12.69582 6.27152,28.3569z" fill="#000000" stroke="none" stroke-width="0"/></g><g><g><path d="M284.6225,177.01832c-15.08003,-0.46433 -23.65407,-8.31901 -23.89079,-23.25398c-0.18518,-11.68079 12.80313,-24.30329 27.88318,-23.83897c15.0801,0.4643 25.73484,10.54598 25.27519,25.47575c-0.07188,2.33473 -0.83113,4.4681 -1.50639,6.42306c-3.6428,10.54612 -15.03936,15.58588 -27.76117,15.19417z" fill="#485e84" stroke="#000000" stroke-width="2" stroke-linecap="butt"/><path d="M275.66785,134.61144c0,0 -0.61765,5.72271 0.94876,6.9716c15.0254,11.97961 28.99168,13.44972 33.64806,13.58342c1.05792,0.03039 1.66325,-0.91536 1.66325,-0.91536c0,0 0.15719,2.10793 -0.51825,4.76458c-0.71871,2.82692 -2.33225,6.27661 -4.43302,8.51979c-2.39969,2.56232 -9.47408,6.97386 -9.47408,6.97386l-20.78335,2.62888c0,0 -10.02584,-8.96869 -11.04394,-10.88191c-0.99742,-1.8743 -1.64007,-4.37824 -2.43052,-7.01304c-1.22727,-4.09089 -0.94031,-8.62128 0.0428,-11.32837c1.25473,-3.45484 4.1737,-7.09235 7.04075,-9.61078c2.66833,-2.34386 5.33954,-3.69256 5.33954,-3.69256z" fill="#343545" stroke="none" stroke-width="0" stroke-linecap="butt"/><path d="M277.27787,158.99539c0,0 -1.59656,-8.8797 0.76842,-13.46086c2.9938,-5.79927 11.91817,-15.20449 11.91817,-15.20449" fill="none" stroke="#000000" stroke-width="1" stroke-linecap="round"/><path d="M312.46948,148.45658c0,0 -1.72186,6.9401 -3.72248,10.74395c-2.01969,3.84019 -9.27378,10.28462 -9.27378,10.28462" fill="none" stroke="#000000" stroke-width="1" stroke-linecap="round"/><path d="M266.66009,161.75567c0,0 -1.77501,-9.09042 1.01257,-13.93586c4.27747,-7.43515 11.90016,-16.17531 11.90016,-16.17531" fill="none" stroke="#000000" stroke-width="1" stroke-linecap="round"/><path d="M262.93972,146.9315c0,0 14.03429,-10.12491 30.52135,-4.49281c18.05948,6.16927 17.20218,23.39586 17.20218,23.39586" fill="none" stroke="#000000" stroke-width="1" stroke-linecap="round"/><path d="M261.37924,156.3267c0,0 15.95253,-7.89807 30.5117,-2.95948c11.95442,4.05506 12.58963,18.63296 12.58963,18.63296" fill="none" stroke="#000000" stroke-width="1" stroke-linecap="round"/><path d="M301.33797,138.59749c-1.00549,-0.66044 -1.3967,-1.84111 -0.87388,-2.63706c0.52279,-0.79603 1.20071,-0.37839 2.2062,0.28205c1.00549,0.66044 1.95774,1.31359 1.43492,2.10957c-0.52279,0.79603 -1.76179,0.90591 -2.76723,0.24545z" fill="#8fbbbe" stroke="none" stroke-width="0" stroke-linecap="butt"/><path d="M306.81464,143.37922c-0.60121,-0.01854 -1.06606,-0.76456 -1.03829,-1.66635c0.02777,-0.9018 0.16361,-1.26617 0.7648,-1.24767c0.60121,0.01854 1.2475,0.77015 1.2197,1.67194c-0.02777,0.9018 -0.34505,1.26058 -0.94623,1.24207z" fill="#8fbbbe" stroke="none" stroke-width="0" stroke-linecap="butt"/><path d="M295.5203,134.85334c-0.89373,-0.12372 -1.55134,-0.70693 -1.46889,-1.30273c0.08242,-0.59575 0.85703,-0.43424 1.75074,-0.31057c0.89373,0.12372 1.56809,0.16262 1.48567,0.75844c-0.08242,0.59575 -0.87381,0.97854 -1.76751,0.85485z" fill="#8fbbbe" stroke="none" stroke-width="0" stroke-linecap="butt"/><path d="M271.78526,136.85273c0,0 9.77507,-3.02119 17.32907,-2.42378c4.28274,0.33873 7.94042,2.1157 10.6984,3.494c2.43903,1.21886 6.69846,6.22715 9.55977,10.39981c2.10663,3.0721 3.28668,5.76922 3.28668,5.76922" fill="none" stroke="#000000" stroke-width="0.5" stroke-linecap="round"/><path d="M305.96629,135.54437c0,0 -0.73143,10.54718 -3.05103,15.42945c-1.95429,4.11343 -9.5965,11.96588 -9.5965,11.96588" fill="none" stroke="#000000" stroke-width="1" stroke-linecap="round"/><path d="M287.74481,161.13367c0,0 0.77628,-9.6346 2.26352,-13.90531c2.61131,-7.49854 10.06019,-14.77116 10.06019,-14.77116" fill="none" stroke="#000000" stroke-width="1" stroke-linecap="round"/></g><g stroke="#2a2b40" stroke-linecap="butt"><path d="M311.12302,213.20283l-128.39161,-25.43197l9.13788,-46.13195l128.39161,25.43197z" fill="#000000" stroke-width="2"/><path d="M300.90185,211.88584l-28.70089,-5.6851l9.22491,-46.57133l28.70089,5.68511z" fill="#ffffff" stroke-width="2.5"/></g></g><g stroke-linecap="butt"><g stroke="#0c0c0c"><g><path d="M202.15192,83.65751c-1.66302,11.04494 -29.2665,16.0454 -61.65412,11.16884c-32.38761,-4.87656 -41.69071,-28.7471 -40.02768,-39.79204c1.66302,-11.04494 22.64549,4.76031 55.0331,9.63687c32.38761,4.87656 48.31172,7.94139 46.6487,18.98633z" fill="#fac843" stroke-width="2"/><path d="M201.12919,82.92606c-1.66302,11.04494 -29.2665,16.0454 -61.65412,11.16884c-32.38761,-4.87656 -39.64144,-26.24044 -37.97842,-37.28538c1.66302,-11.04494 5.76011,28.21687 38.14771,33.09343c32.38761,4.87656 63.14784,-18.02182 61.48482,-6.97688z" fill="#e47816" stroke-width="0"/></g><g><path d="M199.25414,46.36584c-1.66302,11.04494 -29.2665,16.0454 -61.65412,11.16884c-32.38761,-4.87656 -41.69071,-28.7471 -40.02768,-39.79204c1.66302,-11.04494 22.64549,4.76031 55.0331,9.63687c32.38761,4.87656 48.31172,7.94139 46.6487,18.98633z" fill="#fac843" stroke-width="2"/><path d="M198.23142,45.63438c-1.66302,11.04494 -29.2665,16.0454 -61.65412,11.16884c-32.38761,-4.87656 -39.64145,-26.24045 -37.97843,-37.28539c1.66302,-11.04494 5.76011,28.21687 38.14772,33.09343c32.38761,4.87656 63.14784,-18.02182 61.48482,-6.97688z" fill="#e47816" stroke-width="0"/></g><g><path d="M200.70105,120.15854c-1.66302,11.04494 -29.2665,16.0454 -61.65412,11.16884c-32.38761,-4.87656 -41.69071,-28.7471 -40.02768,-39.79204c1.66302,-11.04494 22.64549,4.76031 55.0331,9.63687c32.38761,4.87656 48.31172,7.94139 46.6487,18.98633z" fill="#fac843" stroke-width="2"/><path d="M199.67832,119.42709c-1.66302,11.04494 -29.2665,16.0454 -61.65412,11.16884c-32.38761,-4.87656 -39.64144,-26.24045 -37.97842,-37.28539c1.66302,-11.04494 5.76011,28.21687 38.14771,33.09343c32.38761,4.87656 63.14784,-18.02182 61.48482,-6.97688z" fill="#e47816" stroke-width="0"/></g></g><g stroke="#0c0c0c"><g data-paper-data="{&quot;index&quot;:null}"><path d="M298.06959,54.52302c32.38761,-4.87656 53.37008,-20.68181 55.0331,-9.63687c1.66302,11.04494 -7.64007,34.91547 -40.02768,39.79204c-32.38761,4.87656 -59.99109,-0.1239 -61.65412,-11.16884c-1.66302,-11.04494 14.26109,-14.10977 46.6487,-18.98633z" fill="#fac843" stroke-width="2"/><path d="M313.92843,79.75477c32.38761,-4.87656 36.4847,-44.13836 38.14772,-33.09342c1.66302,11.04494 -5.5908,32.40883 -37.97843,37.28538c-32.38761,4.87656 -59.99109,-0.1239 -61.65412,-11.16884c-1.66302,-11.04494 29.09721,11.85345 61.48482,6.97688z" fill="#e47816" stroke-width="0"/></g><g data-paper-data="{&quot;index&quot;:null}"><path d="M300.96738,17.23131c32.38761,-4.87656 53.37008,-20.68181 55.0331,-9.63687c1.66302,11.04494 -7.64007,34.91547 -40.02768,39.79204c-32.38761,4.87656 -59.99109,-0.1239 -61.65412,-11.16884c-1.66302,-11.04494 14.26109,-14.10977 46.6487,-18.98633z" fill="#fac843" stroke-width="2"/><path d="M316.82622,42.46309c32.38761,-4.87656 36.48469,-44.13837 38.14771,-33.09343c1.66302,11.04494 -5.5908,32.40883 -37.97842,37.28539c-32.38761,4.87656 -59.99109,-0.1239 -61.65412,-11.16884c-1.66302,-11.04494 29.09721,11.85345 61.48482,6.97688z" fill="#e47816" stroke-width="0"/></g><g data-paper-data="{&quot;index&quot;:null}"><path d="M299.52045,91.02403c32.38761,-4.87656 53.37008,-20.68181 55.0331,-9.63687c1.66302,11.04494 -7.64007,34.91547 -40.02768,39.79204c-32.38761,4.87656 -59.99109,-0.1239 -61.65412,-11.16884c-1.66302,-11.04494 14.26109,-14.10977 46.6487,-18.98633z" fill="#fac843" stroke-width="2"/><path d="M315.3793,116.25575c32.38761,-4.87656 36.48469,-44.13837 38.14771,-33.09343c1.66302,11.04494 -5.5908,32.40883 -37.97842,37.28539c-32.38761,4.87656 -59.99109,-0.1239 -61.65412,-11.16884c-1.66302,-11.04494 29.09721,11.85345 61.48482,6.97688z" fill="#e47816" stroke-width="0"/></g></g><path d="M167.12586,85.43292c0,-31.80358 32.53018,-57.58549 72.6582,-57.58549c40.12802,0 72.6582,25.7819 72.6582,57.58549c0,31.80358 -32.53018,57.58549 -72.6582,57.58549c-40.12802,0 -72.6582,-25.7819 -72.6582,-57.58549z" fill="#fdf7c7" stroke="#000000" stroke-width="2"/><path d="M167.675,82.5069c0,-3.52561 2.35177,-8.7085 2.62288,-9.88302c3.3547,-14.53329 30.25799,59.95585 65.9376,59.95585c40.12802,0 49.30313,4.60319 4.46071,9.66756c-39.90255,4.24795 -73.02118,-27.93679 -73.02118,-59.74039z" fill="#f2bd9d" stroke="#000000" stroke-width="0"/></g><path d="M218.28523,89.19742c0,-7.78178 6.30839,-14.09017 14.09017,-14.09017c7.78178,0 14.09017,6.30839 14.09017,14.09017c0,7.78178 -4.97911,5.92458 -12.76089,5.92458c-7.78178,0 -15.41945,1.8572 -15.41945,-5.92458z" fill="#1a1507" stroke="#0c0c0c" stroke-width="2" stroke-linecap="butt"/><path d="M234.90244,88.00881c0,-2.74328 2.22387,-4.96715 4.96715,-4.96715c2.74328,0 4.96715,2.22387 4.96715,4.96715c0,2.74328 -2.22387,4.96715 -4.96715,4.96715c-2.74328,0 -4.96715,-2.22387 -4.96715,-4.96715z" fill="#fdf7c7" stroke="#000000" stroke-width="0" stroke-linecap="butt"/><path d="M274.76102,87.7777c0,-7.78178 6.30838,-14.09017 14.09017,-14.09017c7.78178,0 14.09017,6.30839 14.09017,14.09017c0,7.78179 -6.68818,6.87407 -14.46996,6.87407c-7.78178,0 -13.71038,0.90771 -13.71038,-6.87407z" fill="#1a1507" stroke="#0c0c0c" stroke-width="2" stroke-linecap="butt"/><path d="M292.01677,86.58909c0,-2.74328 2.22387,-4.96716 4.96715,-4.96716c2.74328,0 4.96715,2.22387 4.96715,4.96716c0,2.74329 -2.22387,4.96715 -4.96715,4.96715c-2.74328,0 -4.96715,-2.22386 -4.96715,-4.96715z" fill="#fdf7c7" stroke="#000000" stroke-width="0" stroke-linecap="butt"/><path d="M287.74346,109.73174c0,0 0.80439,4.42242 -1.28221,7.41951c-1.77824,2.55416 -6.43645,3.76125 -7.03182,3.69099c-16.00822,-1.88909 -60.99789,-4.2288 -72.35253,-8.38683c-6.8162,-2.49606 -5.51716,-17.57967 -5.51716,-17.57967" fill="none" stroke="#1a1507" stroke-width="2" stroke-linecap="round"/><path d="M240.786,122.80435c0,4.92241 -4.02964,9.2658 -12.26615,9.2658c-8.23651,0 -18.61984,-10.69707 -18.61984,-15.61948c0,-4.92241 8.44192,-0.61772 16.67843,-0.61772c8.23651,0 14.20755,2.049 14.20755,6.97141z" fill="#fdf7c7" stroke="#1a1507" stroke-width="2" stroke-linecap="butt"/></g></g></svg>