<svg version="1.1" xmlns="http://www.w3.org/2000/svg" xmlns:xlink="http://www.w3.org/1999/xlink" width="336.07274" height="336.07274" viewBox="0,0,336.07274,336.07274"><g transform="translate(-151.96363,-11.96363)"><g data-paper-data="{&quot;isPaintingLayer&quot;:true}" fill-rule="nonzero" stroke-linejoin="miter" stroke-miterlimit="10" stroke-dasharray="" stroke-dashoffset="0" style="mix-blend-mode: normal"><path d="M203,297v-234h234v234z" data-paper-data="{&quot;index&quot;:null}" fill="none" stroke="none" stroke-width="0" stroke-linecap="butt"/><g data-paper-data="{&quot;index&quot;:null}"><g><g data-paper-data="{&quot;origRot&quot;:0}" stroke="#000000" stroke-width="3" stroke-linecap="round"><path d="M278.70848,194.7334c0,0 14.562,-26.86737 17.43394,-25.63482c5.17833,2.2224 15.25287,10.38428 15.25287,10.38428l9.21295,6.20226l-3.2596,-2.68545c0,0 13.76451,-9.97147 17.64246,-10.41039c2.03735,-0.23061 8.57897,7.37976 8.85881,9.95077c0.62775,5.76758 -23.86603,36.39221 -28.29488,34.75381c-9.73789,-5.34422 -30.40446,-16.57142 -30.40446,-16.57142c0,0 -7.92771,-4.02172 -6.44211,-5.98903z" data-paper-data="{&quot;origPos&quot;:null}" fill="#582700"/><path d="M287.22051,200.04599l17.14683,-24.87796" fill="none"/><path d="M290.43198,202.53009l17.38788,-24.71744" data-paper-data="{&quot;origPos&quot;:null}" fill="none"/></g><path d="M304.71636,175.3226l2.35659,1.59049l-17.70144,25.33906l-2.35659,-1.59049z" fill="#ffffff" stroke="none" stroke-width="0" stroke-linecap="butt"/><path d="M314.65637,216.47115l-24.2242,-13.34458l18.21484,-24.39447l11.1332,7.50851l1.24422,-1.58253l-2.25956,-2.03223l16.00968,-9.32414l1.20755,0.91721l6.03771,4.58602l0.8415,5.06244l-3.52229,7.75089l-14.72921,19.1433l-8.90144,6.8246z" fill="#66c8ff" stroke="#000000" stroke-width="0.5" stroke-linecap="round"/></g><g fill="#fffc96" stroke="#000000" stroke-width="2" stroke-linecap="round"><path d="M312.04296,180.41981c0,0 0.52329,5.84679 3.61954,13.89102c3.13976,8.15727 7.00339,14.16717 7.00339,14.16717l2.16946,-0.15214c0,0 0.41155,3.62588 -1.89898,4.06488c-5.65508,1.07444 -18.31141,-34.22787 -12.94654,-35.57838c3.35314,-0.84409 4.7301,3.95768 4.7301,3.95768z"/><path d="M323.16741,180.96294c0,0 -4.17685,5.14916 -8.08443,13.71217c-3.90763,8.563 -5.35163,14.65033 -5.35163,14.65033l1.59571,-0.06497c0,0 -0.64255,4.01763 -3.89458,4.1276c-5.36977,0.1816 11.26108,-37.93317 16.72604,-36.83931c2.60342,0.5211 0.5068,4.53341 0.5068,4.53341z" data-paper-data="{&quot;index&quot;:null}"/></g></g><g data-paper-data="{&quot;index&quot;:null}" stroke="#000000" stroke-linecap="round"><path d="M349.20976,158.98432c0,0 16.58031,-0.65354 16.17093,5.95886c-1.11109,17.9474 -29.43396,10.40594 -29.43396,10.40594z" data-paper-data="{&quot;origPos&quot;:null}" fill="#66c8ff" stroke-width="2"/><path d="M348.35493,160.44629c0,0 11.9991,0.12062 12.55626,2.10155c0.17572,0.62478 -16.10511,1.59865 -16.10511,1.59865z" data-paper-data="{&quot;origPos&quot;:null}" fill="#0a0a0a" stroke-width="1"/></g><g data-paper-data="{&quot;origRot&quot;:0,&quot;index&quot;:null}" stroke="#000000" stroke-linecap="round"><path d="M315.42726,263.2286c0,0 -0.54526,4.44956 -2.05297,6.28718c-1.15419,1.40679 -3.10923,1.40012 -4.94396,1.28228c-5.0361,-0.32345 -9.23646,-3.16632 -16.69951,-5.56037c-2.03261,-0.65201 -2.20269,-3.95743 -1.40911,-5.90886c0.74225,-1.82519 2.14627,-4.9532 2.14627,-4.9532l13.19326,-30.46249c0,0 1.8391,-3.88912 3.7532,-4.07971c4.60947,-0.45902 8.48707,2.30374 12.96558,3.47025c1.5177,0.39533 0.12584,4.99697 0.12584,4.99697z" data-paper-data="{&quot;origPos&quot;:null}" fill="#ff0000" stroke-width="3"/><path d="M292.05297,255.38377l22.53171,7.31672c0,0 0.31948,2.72435 -0.25412,4.31574c-0.5445,1.51065 -2.61094,3.63286 -2.61094,3.63286c0,0 -8.54668,-1.39329 -12.35747,-2.49023c-4.96691,-1.42973 -10.01401,-5.61693 -10.01401,-5.61693z" data-paper-data="{&quot;origPos&quot;:null}" fill="#976e57" stroke-width="2"/><path d="M315.25603,263.51366c0,0 -0.54526,4.44956 -2.05297,6.28718c-1.15419,1.40676 -3.10922,1.40012 -4.94395,1.28228c-5.03611,-0.32345 -9.23646,-3.16633 -16.69951,-5.56038c-2.0326,-0.65202 -2.20269,-3.95743 -1.40911,-5.90886c0.74225,-1.82518 2.14629,-4.9532 2.14629,-4.9532l13.19326,-30.46249c0,0 1.83909,-3.88911 3.75319,-4.0797c4.60948,-0.45903 8.48709,2.30373 12.96559,3.47024c1.51771,0.39532 0.12585,4.99696 0.12585,4.99696z" data-paper-data="{&quot;origPos&quot;:null}" fill="#4b4b4b" stroke-width="3"/></g><path d="M330.32881,263.79377c0,0 -1.22791,-12.65252 -2.01383,-20.75078c-0.55685,-5.73784 -1.42685,-14.70247 -1.42685,-14.70247c0,0 -0.91019,-4.7166 0.64044,-4.95869c4.57571,-0.71438 8.71824,-3.07662 13.25664,-2.16079c1.88458,0.38029 3.31319,4.43257 3.31319,4.43257l9.9843,31.61991c0,0 1.07426,3.25176 1.62448,5.14148c0.58827,2.02043 0.07823,5.29187 -2.01113,5.73806c-7.67147,1.63827 -12.14332,4.0481 -17.18685,3.86819c-1.83744,-0.06555 -3.78307,-0.25368 -4.78628,-1.76819c-1.31045,-1.97835 -1.39412,-6.45932 -1.39412,-6.45932z" data-paper-data="{&quot;index&quot;:null}" fill="#4b4b4b" stroke="#000000" stroke-width="3" stroke-linecap="round"/><g data-paper-data="{&quot;index&quot;:null}"><path d="M346.53885,210.29553c0,0 -0.08841,15.77927 -2.3454,15.93121c-6.77097,0.45586 -24.39515,-1.40418 -39.47491,-2.26492c-1.69401,-0.09668 -0.56464,-15.01538 -0.56464,-15.01538l3.61514,-30.47346c0,0 2.1392,-13.4341 3.69205,-13.34546c10.04499,0.57335 25.1289,0.50218 31.60594,2.51822c2.15903,0.672 3.28067,15.16971 3.28067,15.16971z" data-paper-data="{&quot;origPos&quot;:null}" fill="#66c8ff" stroke="#000000" stroke-width="3.5" stroke-linecap="round"/><path d="M326.72379,189.90792c-1.31193,-0.07488 -1.1652,-2.5582 -1.1652,-2.5582l0.09781,-1.65554c0.3043,-5.15057 0.60861,-10.30115 0.91291,-15.45173c0,0 0.14672,-2.48332 1.45864,-2.40844c1.31193,0.07488 1.1652,2.5582 1.1652,2.5582c-0.30431,5.15059 -0.70643,11.9567 -1.01073,17.10728c0,0 -0.14672,2.48332 -1.45864,2.40844z" fill="#ffffff" stroke="none" stroke-width="0.5" stroke-linecap="butt"/><path d="M314.81413,188.81081c-1.31191,-0.07488 -1.12759,-3.19463 -1.12759,-3.19463l0.12289,-2.07983c0.38229,-6.4706 0.76459,-12.94117 1.14688,-19.41175c0,0 0.18433,-3.11973 1.49625,-3.04485c1.31191,0.07488 1.12759,3.19463 1.12759,3.19463c-0.38229,6.47058 -0.88747,15.02098 -1.26976,21.49156c0,0 -0.18433,3.11973 -1.49625,3.04485z" fill="#ffffff" stroke="none" stroke-width="0.5" stroke-linecap="butt"/></g><path d="M308.538,165.11935c0,0 -2.18979,-4.03699 -2.37593,-5.10703c-0.55845,-3.21007 -2.05992,-17.32187 -3.37379,-30.0805c-0.20323,-1.97344 1.11619,-5.21956 1.11619,-5.21956c0,0 2.06241,-1.84144 3.33883,-1.97536c14.0827,-1.47753 27.37065,-3.9712 32.75401,-2.95133c1.79445,0.33995 5.15895,1.75146 5.15895,1.75146c0,0 1.16976,4.30147 1.42146,5.41338c0.08391,0.37063 0.13217,0.57915 0.19347,0.95404c1.83658,11.23282 2.73157,24.35373 2.82562,28.95783c0.03135,1.53471 -1.5623,4.09543 -1.5623,4.09543c0,0 -1.12481,2.85305 -5.49543,4.101c-4.78222,1.36549 -16.67878,2.17461 -28.94926,2.97184z" data-paper-data="{&quot;index&quot;:null}" fill="#582700" stroke="#000000" stroke-width="2.5" stroke-linecap="round"/><path d="M314.28825,152.82024c-0.51659,0.0514 -1.2215,-2.68545 -1.57446,-6.1129c-0.35294,-3.42742 -0.22027,-6.24761 0.29633,-6.29899c0.51659,-0.0514 1.2215,2.68544 1.57446,6.11289c0.35294,3.42743 0.22027,6.24762 -0.29633,6.299z" data-paper-data="{&quot;index&quot;:null}" fill="#000000" stroke="#000000" stroke-width="2.5" stroke-linecap="butt"/><path d="M320.14547,146.23419c0.35948,3.49092 0.3368,6.35211 -0.05065,6.39065c-0.38746,0.03853 -0.99296,-2.76015 -1.35245,-6.25108c-0.35949,-3.49091 -0.33682,-6.35212 0.05063,-6.39066c0.38743,-0.03855 0.99297,2.76016 1.35246,6.25109z" data-paper-data="{&quot;index&quot;:null}" fill="#000000" stroke="#000000" stroke-width="2.5" stroke-linecap="butt"/><path d="M349.56601,122.01505c-0.592,1.1063 -1.71754,0.52445 -1.71754,0.52445l-0.77676,-0.4479c-0.09366,-0.02136 -0.18724,-0.04223 -0.28073,-0.06262c-0.19166,0.33218 -0.58986,0.73685 -1.35908,0.56942c-0.70898,-0.15433 -0.92347,-0.61841 -0.97705,-0.98821c-2.7284,-0.38796 -5.42407,-0.43564 -8.24537,-0.40061c-7.87285,0.36245 -15.70084,1.32453 -23.53912,2.12722c-2.5706,0.26325 -8.21655,1.86896 -10.54128,0.41101c-1.13376,-0.71105 -0.92768,-2.67296 -1.14035,-3.71001c-0.61623,-3.00511 -1.32294,-6.10942 -1.65799,-9.15937c-0.41083,-3.98933 -2.3054,-7.39556 -3.23059,-11.25493c-0.46383,-1.93482 -1.34811,-3.83715 0.25802,-5.71438c0.45348,-0.53004 1.36783,-0.34136 2.06393,-0.44859c2.54403,-0.3919 5.03754,-0.47269 7.59869,-0.43507c8.11628,0.11922 16.09801,-0.17278 24.21059,0.43474c3.27297,0.24889 6.51805,-0.01328 9.79232,-0.23798c1.92436,-0.13205 3.617,-0.84856 4.99122,1.18868c0.82067,1.21661 0.73498,5.25101 0.83598,6.73068c0.38943,5.70565 2.037,12.59114 1.42564,18.43297c0.12261,0.02634 0.24534,0.05344 0.36824,0.0813l1.38765,0.67099c0,0 1.12554,0.58188 0.53357,1.68818z" data-paper-data="{&quot;index&quot;:null}" fill="#000000" stroke="none" stroke-width="0.5" stroke-linecap="butt"/><g data-paper-data="{&quot;index&quot;:null}" fill="none" stroke="#b9b9b9" stroke-width="3"><path d="M309.94339,169.66838c-0.91638,-1.00765 -2.37153,-2.06788 -0.80782,-4.04892c0.73751,-0.93432 1.96223,-0.49185 3.13252,0.79501c1.17029,1.28688 2.0261,2.55736 1.10549,3.86519c-1.30012,1.84701 -2.25989,0.6756 -3.43019,-0.61128z" stroke-linecap="butt"/><path d="M312.40872,169.63285l2.48196,2.66536" stroke-linecap="round"/><path d="M318.45568,173.13207c1.17028,1.28689 2.02608,2.55737 1.10547,3.8652c-1.30012,1.84701 -2.25989,0.67559 -3.43018,-0.61128c-0.91638,-1.00765 -2.37153,-2.06788 -0.80782,-4.04892c0.73751,-0.93432 1.96223,-0.49185 3.13252,0.79501z" stroke-linecap="butt"/><path d="M321.07829,179.01584l-2.48196,-2.66538" stroke-linecap="round"/><path d="M326.8154,178.89028c0.43852,2.33807 -0.92694,2.5732 -2.49764,2.94314c-1.2299,0.28967 -2.82316,1.0672 -3.19038,-1.60349c-0.1732,-1.25959 0.86798,-2.17855 2.43868,-2.5485c1.5707,-0.36995 2.93885,-0.44673 3.24935,1.20883z" stroke-linecap="butt"/><path d="M325.79643,179.43885l3.28861,-0.82215" stroke-linecap="round"/><path d="M334.38611,174.9393c1.17122,1.92952 -0.01408,2.79065 -1.34498,3.87214c-1.04214,0.84683 -2.26036,2.31154 -3.47463,0.04425c-0.57268,-1.06932 0.08886,-2.40204 1.41975,-3.48352c1.33087,-1.08148 2.57053,-1.79917 3.39986,-0.43289z" stroke-linecap="butt"/><path d="M336.39469,173.6151l-2.77093,2.30782" stroke-linecap="round"/><path d="M341.35302,169.20202c1.17122,1.92952 -0.01408,2.79066 -1.34497,3.87214c-1.04214,0.84683 -2.26037,2.31153 -3.47463,0.04425c-0.57268,-1.06932 0.08885,-2.40204 1.41975,-3.48352c1.33087,-1.08148 2.57052,-1.79915 3.39986,-0.43289z" stroke-linecap="butt"/><path d="M340.59067,170.18564l2.77094,-2.30781" stroke-linecap="round"/></g><path d="M315.82554,140.20209c-0.31501,-0.68311 0.37997,-0.99274 0.37997,-0.99274l0.55354,-0.23251c0.89531,-0.59493 1.85783,-1.00437 2.86944,-1.22531c0.07401,-0.03565 0.14838,-0.07106 0.22316,-0.10624c0.01979,-0.0102 0.03979,-0.02051 0.05994,-0.03093l0.02909,-0.01644l-0.03771,-0.08886l0.7377,-0.30252c0.07148,-0.03124 0.14911,-0.05211 0.23112,-0.06051c0.41914,-0.04294 0.79433,0.25625 0.838,0.66823c0.03233,0.30507 -0.12618,0.58644 -0.3808,0.72937c-0.12935,0.14107 -0.28042,0.20838 -0.28042,0.20838c-0.16052,0.07144 -0.31889,0.14324 -0.47552,0.21592c-0.6526,0.35379 -1.17276,0.8327 -1.74765,0.90502c-0.12114,0.07084 -0.24209,0.14357 -0.36308,0.21849l-0.59772,0.56383c-0.11876,0.11419 -0.27611,0.19125 -0.45419,0.20948c-0.25957,0.02659 -0.50229,-0.07803 -0.65984,-0.2594c-0.1951,0.05728 -0.67745,0.13367 -0.92504,-0.40325z" data-paper-data="{&quot;index&quot;:null}" fill="#582700" stroke="none" stroke-width="0.5" stroke-linecap="butt"/><g data-paper-data="{&quot;index&quot;:null}"><g data-paper-data="{&quot;index&quot;:null}"><path d="M299.60066,169.47763c2.22198,1.09472 7.6317,-0.58774 6.59735,1.44058c-0.68909,1.35125 -14.80435,17.85894 -16.76588,18.25333c-0.9828,0.19761 -2.30347,-0.01219 -3.04519,-0.3776c-1.09017,-0.53711 -1.70261,-1.54694 -1.88004,-2.75732c-0.18418,-1.25665 9.06697,-20.31194 9.59383,-21.3451c1.03435,-2.0283 3.27796,3.69138 5.49995,4.78611z" fill="#0091d4" stroke="#000000" stroke-width="1.5" stroke-linecap="butt"/><g stroke-linecap="butt"><path d="M303.00199,162.75808c4.02571,1.98338 6.20909,5.70923 4.87673,8.32192c-1.33237,2.6127 -5.67596,3.12286 -9.70169,1.13948c-4.02572,-1.98341 -6.20908,-5.70926 -4.87672,-8.32195c1.33236,-2.61269 5.67595,-3.12286 9.70167,-1.13947z" fill="#0091d4" stroke="#000000" stroke-width="1.5"/><path d="M303.57948,170.43969l4.01264,0.17543c0,0 -1.49569,1.34454 -2.29313,1.63215c-1.68068,0.57854 -3.36902,0.18008 -3.36902,0.18008z" fill="#00aeff" stroke="none" stroke-width="0"/><path d="M299.99422,169.5975l1.60467,0.44743c0,0 -0.36573,0.96706 -0.55128,1.27894c-0.21724,0.36519 -0.80705,0.91008 -0.80705,0.91008l-1.78353,-0.8202z" fill="#00aeff" stroke="none" stroke-width="0"/></g><g><path d="M299.94779,168.49901c-5.55353,-2.73611 -6.99415,-7.46601 -4.21046,-12.92468c2.78369,-5.45862 9.82695,-7.52545 15.38055,-4.78934c5.55356,2.73611 7.5151,8.53937 4.73141,13.99804c-2.78369,5.45861 -10.34786,6.45211 -15.90146,3.716z" fill="#00699a" stroke="#000000" stroke-width="1.5" stroke-linecap="butt"/><path d="M312.61247,152.47513c0,0 6.09882,5.77916 3.6633,10.55505c-1.38108,2.70828 -4.15399,4.85441 -6.8756,6.08432c-1.93901,0.87625 -4.29446,1.02031 -6.2575,0.05316c-4.03504,-1.988 -4.56932,-4.4611 -2.1338,-9.23699c1.21628,-2.38502 4.1308,-4.61442 6.85847,-5.72142c2.7343,-1.10969 4.74515,-1.73411 4.74515,-1.73411z" fill="#0091d4" stroke="none" stroke-width="0" stroke-linecap="butt"/><path d="M315.50904,164.69024c0,0 -4.65124,2.39458 -11.18959,-0.54512c-6.59191,-2.96378 -7.83951,-7.74482 -7.83951,-7.74482" fill="none" stroke="#000000" stroke-width="0.8" stroke-linecap="round"/><path d="M312.13921,168.4565c0,0 -4.83197,0.23611 -9.21003,-1.1654c-6.30936,-2.01975 -7.64156,-5.03425 -7.64156,-5.03425" fill="none" stroke="#000000" stroke-width="0.75" stroke-linecap="round"/><path d="M316.78297,160.02701c0,0 -4.54,1.74754 -11.25336,-0.83271c-6.45706,-2.48172 -7.36409,-5.28729 -7.36409,-5.28729" fill="none" stroke="#000000" stroke-width="0.8" stroke-linecap="round"/><path d="M298.85649,152.68735c0,0 4.90564,-0.25377 8.43069,0.4752c4.64304,0.96013 8.86501,3.09431 8.86501,3.09431" fill="none" stroke="#000000" stroke-width="0.8" stroke-linecap="round"/><path d="M298.18008,166.73431c0,0 -0.70023,-4.13641 1.99668,-10.00495c2.5167,-5.47636 6.43524,-6.52938 6.43524,-6.52938" fill="none" stroke="#000000" stroke-width="0.8" stroke-linecap="round"/><path d="M308.79092,150.93432c0,0 -1.5742,2.63555 -2.82235,5.74064c-1.09762,2.73065 -1.83687,5.86135 -2.50084,7.37072c-0.78863,1.79271 -2.47535,4.61684 -2.47535,4.61684" fill="none" stroke="#000000" stroke-width="0.8" stroke-linecap="round"/><path d="M311.57679,151.69639c0,0 0.71819,5.64791 -1.08515,9.44749c-2.83042,5.96359 -6.90688,8.66017 -6.90688,8.66017" fill="none" stroke="#000000" stroke-width="0.8" stroke-linecap="round"/><path d="M314.55451,153.70611c0,0 0.71625,4.09738 -0.54994,8.11524c-1.82338,5.78585 -4.68097,7.96119 -4.68097,7.96119" fill="none" stroke="#000000" stroke-width="0.8" stroke-linecap="round"/><path d="M314.73843,162.81825c-0.39598,-0.19508 -0.53135,-0.71733 -0.30233,-1.16642c0.229,-0.44911 0.73568,-0.655 1.13166,-0.45991c0.396,0.1951 0.53136,0.71733 0.30234,1.16642c-0.22901,0.44912 -0.73569,0.65502 -1.13167,0.45993z" fill="#00aeff" stroke="none" stroke-width="0" stroke-linecap="butt"/><path d="M315.48684,159.38848c-0.22846,-0.11256 -0.32082,-0.38585 -0.20631,-0.61038c0.11451,-0.22455 0.39254,-0.31533 0.62099,-0.20279c0.22847,0.11256 0.32083,0.38584 0.20632,0.61037c-0.11451,0.22456 -0.39254,0.31533 -0.62099,0.20279z" fill="#00aeff" stroke="none" stroke-width="0" stroke-linecap="butt"/></g></g><path d="M301.44719,172.94879c0.95446,-0.07231 2.69256,1.24061 2.69256,1.24061l4.41352,2.95127c0,0 0.57356,1.20979 0.31636,1.91445c-0.77154,2.11396 -2.83099,5.8622 -4.75769,9.8907c-0.32027,0.66962 -1.3621,0.32903 -1.3621,0.32903c0,0 -1.5259,-0.78932 -2.50255,-1.29455c-1.48736,-0.76938 -3.81116,-1.97147 -3.81116,-1.97147c0,0 -1.2565,-0.469 -0.6434,-1.6826c0,0 0.24253,-1.97764 5.65443,-11.37747z" fill="#582700" stroke="#000000" stroke-width="3" stroke-linecap="round"/><path d="M289.35668,168.22054c1.75223,-0.24264 4.81418,2.2558 4.81418,2.2558l7.8093,5.56541c0,0 0.94113,2.40501 0.40788,3.86496c-1.59976,4.37989 -5.70092,12.21493 -9.58429,20.60705c-0.6455,1.39492 -2.52067,0.80592 -2.52067,0.80592c0,0 -2.72054,-1.45397 -4.46182,-2.38458c-2.65179,-1.41724 -6.79492,-3.63148 -6.79492,-3.63148c0,0 -2.25642,-0.82887 -1.02677,-3.36029c0,0 0.62005,-4.04945 11.35708,-23.72277z" fill="#582700" stroke="#000000" stroke-width="3" stroke-linecap="round"/></g><g data-paper-data="{&quot;index&quot;:null}"><g data-paper-data="{&quot;index&quot;:null}" stroke="#000000"><path d="M299.77721,198.42947c-1.04567,-3.25825 6.59632,-29.69466 10.50919,-31.54937c3.69844,-1.75308 15.61945,-0.45443 18.642,-0.03649c5.05853,0.69945 16.46306,0.95423 18.8672,4.35502c0.80138,1.13359 0.39855,11.83077 -2.73341,18.47029c-3.13198,6.63952 -10.08003,17.22319 -15.04983,19.22868c-4.84583,1.95546 -28.72229,-5.75402 -30.23516,-10.46808z" data-paper-data="{&quot;origRot&quot;:0,&quot;origPos&quot;:null}" fill="#582700" stroke-width="3" stroke-linecap="butt"/><path d="M313.29502,170.7543l18.45443,5.2139" data-paper-data="{&quot;origPos&quot;:null}" fill="none" stroke-width="2" stroke-linecap="round"/><path d="M328.46231,204.68714l5.24867,-24.78716" data-paper-data="{&quot;origPos&quot;:null}" fill="none" stroke-width="2" stroke-linecap="round"/><path d="M311.63172,167.16067c0,0 25.22024,4.53375 26.41327,7.40732c1.36278,3.28241 -5.82791,31.98575 -5.82791,31.98575" data-paper-data="{&quot;origPos&quot;:null}" fill="none" stroke-width="1.5" stroke-linecap="round"/><path d="M315.19464,166.07745c0,0 24.01955,4.3179 25.1558,7.05468c1.29791,3.12612 -5.55045,30.46298 -5.55045,30.46298" data-paper-data="{&quot;origPos&quot;:null}" fill="none" stroke-width="1.5" stroke-linecap="round"/></g><path d="M329.24443,167.35236l18.27485,2.99701l-0.5893,14.57112l-11.60166,19.16056l0.91596,-5.94753l3.16292,-13.94114l1.02727,-10.95449l-11.29317,-4.60381z" fill="#66c8ff" stroke="#000000" stroke-width="0.5" stroke-linecap="round"/><path d="M334.06049,205.83463l-1.2902,-0.5131l6.15208,-31.90381l1.2902,0.5131z" fill="#ffffff" stroke="none" stroke-width="0" stroke-linecap="butt"/><path d="M339.81782,172.73373l-0.48474,1.32994l-25.59219,-7.09787l0.48474,-1.32994z" fill="#ffffff" stroke="none" stroke-width="0" stroke-linecap="butt"/><path d="M336.32194,203.5638c0.99067,1.14099 -0.17016,2.11472 -0.17016,2.11472l-0.48077,0.39988c-0.36815,0.34755 -0.73632,0.6951 -1.10447,1.04265c0,0 -1.10065,1.03905 -2.15777,-0.04278c-1.05712,-1.08184 0.04352,-2.12089 0.04352,-2.12089c0.36815,-0.34755 0.73632,-0.6951 1.10447,-1.04265l0.61367,-0.51817c0,0 1.16084,-0.97374 2.1515,0.16725z" fill="#000000" stroke="none" stroke-width="0.5" stroke-linecap="butt"/><path d="M338.45145,172.80284c0.0028,-0.00832 0.00582,-0.01674 0.00905,-0.02525c0.17788,-0.46844 0.65446,-0.2936 0.65446,-0.2936l0.59078,0.26539c0.5648,0.61386 0.65347,0.9631 0.43958,1.38814l0.09279,0.02797l-0.15885,0.50907c-0.04781,0.16538 -0.17912,0.29352 -0.34324,0.34189c-0.04965,0.12561 -0.15941,0.25319 -0.39708,0.28605c-0.50373,0.06965 -0.57459,-0.42548 -0.57459,-0.42548c-0.04841,-0.52574 -0.23996,-0.63259 -0.63997,-0.96226l-0.4234,-0.25091c-0.1651,-0.09326 -0.2699,-0.27423 -0.25389,-0.47321c0.01944,-0.24155 0.21044,-0.42938 0.44618,-0.45708l0.53646,-0.07417l0.02056,0.14364c0.00039,-0.00007 0.00076,-0.00014 0.00116,-0.0002z" fill="#ffffff" stroke="none" stroke-width="0.5" stroke-linecap="butt"/><path d="M312.94456,167.68943c0,0 -0.26266,0.42818 -0.6983,0.17002c-0.43563,-0.25817 -0.17298,-0.68636 -0.17298,-0.68636c0.20067,-0.29826 0.46293,-0.55277 0.76451,-0.77164c-0.00353,-0.00388 -0.00704,-0.00784 -0.01055,-0.01188c-0.33022,-0.38033 0.05672,-0.70491 0.05672,-0.70491l0.23051,-0.15962c0.58692,-0.23216 2.14912,-0.71984 2.67684,-0.29821c0.0446,-0.01068 0.08882,-0.02114 0.13262,-0.03142l0.07829,0.0428l0.00345,-0.04292l0.50711,0.03942v0v0c0.28006,0.02178 0.48915,0.26259 0.467,0.53787c-0.02216,0.27528 -0.26715,0.48079 -0.54722,0.45902l-0.44488,-0.03459c-0.91778,0.23286 -2.61062,0.64274 -3.04313,1.49242z" fill="#000000" stroke="none" stroke-width="0.5" stroke-linecap="butt"/></g><g data-paper-data="{&quot;index&quot;:null}" stroke="#000000" stroke-width="1.25" stroke-linecap="butt"><g data-paper-data="{&quot;index&quot;:null}" fill="#000000"><path d="M335.3755,160.59635c-12.64342,1.08034 -8.85358,-4.58546 -8.85358,-4.58546l16.87098,-1.38278c0,0 5.43184,4.69401 -8.01739,5.96824z"/></g><g data-paper-data="{&quot;index&quot;:null}" fill="#ffffff"><path d="M335.37554,160.59636c-2.58623,0.22099 -4.48487,0.1597 -5.869,-0.07761c-0.02481,-0.00425 0.81724,-1.17738 0.73733,-2.22895c-0.09756,-1.28391 -1.11698,-2.49241 -1.11305,-2.49273c2.84834,-0.23346 14.26208,-1.16896 14.26208,-1.16896c0,0 5.43184,4.69401 -8.01739,5.96824z"/></g></g><path d="M151.96363,348.03637v-336.07274h336.07274v336.07274z" data-paper-data="{&quot;index&quot;:null}" fill="none" stroke="#000000" stroke-width="0" stroke-linecap="butt"/></g></g></svg>