<svg version="1.1" xmlns="http://www.w3.org/2000/svg" xmlns:xlink="http://www.w3.org/1999/xlink" width="260.61231" height="323.90303" viewBox="0,0,260.61231,323.90303"><g transform="translate(-103.81503,-28.75983)"><g data-paper-data="{&quot;isPaintingLayer&quot;:true}" fill-rule="nonzero" stroke-linejoin="miter" stroke-miterlimit="10" stroke-dasharray="" stroke-dashoffset="0" style="mix-blend-mode: normal"><g stroke="#2a2b40" stroke-linecap="butt"><path d="M269.33233,270.78821l-7.28991,-116.62177l46.93666,-2.93397l7.28991,116.62177z" fill="#000000" stroke-width="2"/><path d="M268.3548,261.65186l-1.6296,-26.06984l47.38369,-2.96191l1.6296,26.06984z" fill="#ffffff" stroke-width="2.5"/></g><path d="M235.17098,351.66286v-94.89051h40.95702v94.89051z" fill="#000000" stroke="#2a2b40" stroke-width="2" stroke-linecap="butt"/><path d="M193.90772,349.39579v-94.89051h40.95702v94.89051z" fill="#000000" stroke="#2a2b40" stroke-width="2" stroke-linecap="butt"/><g stroke-linecap="butt"><path d="M194.17763,258.94034v-107.85169h82.34382v107.85169z" fill="#000000" stroke="#2a2b40" stroke-width="2"/><path d="M254.63142,180.01357c0,22.14029 -8.58873,40.08854 -19.18347,40.08854c-10.59474,0 -19.18347,-17.94825 -19.18347,-40.08854c0,-22.14029 7.35902,-29.51303 17.95376,-29.51303c10.59474,0 20.41318,7.37275 20.41318,29.51303z" fill="#ffffff" stroke="#2a2b40" stroke-width="2.5"/><path d="M240.7204,176.65068c0,13.71883 -2.80786,24.84014 -6.27152,24.84014c-3.46366,0 -6.27152,-11.12131 -6.27152,-24.84014c0,-13.71883 2.80786,-24.84014 6.27152,-24.84014c3.46366,0 6.27152,11.12131 6.27152,24.84014z" fill="#000000" stroke="none" stroke-width="0"/></g><g><g><path d="M224.61899,230.74639c-5.88879,-13.89048 -2.34287,-24.96461 11.1225,-31.42941c10.53137,-5.05622 27.43072,1.45807 33.31952,15.34856c5.88884,13.89053 1.191,27.78635 -12.56104,33.6165c-2.15055,0.91173 -4.40588,1.11489 -6.46401,1.31969c-11.10272,1.10471 -20.44907,-7.13705 -25.41697,-18.85532z" fill="#485e84" stroke="#000000" stroke-width="2" stroke-linecap="butt"/><path d="M259.38703,204.8676c0,0 -5.45602,1.8338 -5.93481,3.77908c-4.59262,18.65962 -0.08338,31.95944 1.74372,36.24446c0.4151,0.97355 1.52737,1.12757 1.52737,1.12757c0,0 -1.84871,1.02486 -4.54422,1.52314c-2.86825,0.53022 -6.67658,0.50834 -9.59302,-0.46095c-3.33137,-1.10723 -10.29848,-5.68632 -10.29848,-5.68632l-11.08479,-17.776c0,0 3.95017,-12.8589 5.26176,-14.58418c1.28492,-1.69022 3.29015,-3.32172 5.35237,-5.14221c3.2019,-2.82655 7.43663,-4.46174 10.3067,-4.70167c3.66285,-0.30615 8.18806,0.82277 11.67514,2.37283c3.24538,1.44263 5.58813,3.30432 5.58813,3.30432z" fill="#343545" stroke="none" stroke-width="0" stroke-linecap="butt"/><path d="M237.91449,216.53375c0,0 7.39672,-5.16591 12.54715,-4.93503c6.51989,0.29226 18.79656,4.46187 18.79656,4.46187" fill="none" stroke="#000000" stroke-width="1" stroke-linecap="round"/><path d="M262.21273,244.08575c0,0 -7.02376,1.34036 -11.31574,1.11511c-4.33296,-0.22735 -13.2216,-4.11896 -13.2216,-4.11896" fill="none" stroke="#000000" stroke-width="1" stroke-linecap="round"/><path d="M230.96433,208.04544c0,0 7.51342,-5.41617 13.08072,-4.91206c8.54283,0.77357 19.67076,4.03926 19.67076,4.03926" fill="none" stroke="#000000" stroke-width="1" stroke-linecap="round"/><path d="M242.87126,198.46305c0,0 15.06866,8.50944 16.8527,25.84036c1.95418,18.98383 -14.0503,25.41397 -14.0503,25.41397" fill="none" stroke="#000000" stroke-width="1" stroke-linecap="round"/><path d="M233.68522,200.97736c0,0 13.84889,11.1835 15.45605,26.47324c1.3196,12.55429 -11.6547,19.23159 -11.6547,19.23159" fill="none" stroke="#000000" stroke-width="1" stroke-linecap="round"/><path d="M266.50889,229.85005c0.17906,-1.1896 1.08768,-2.03897 2.02938,-1.89721c0.94175,0.14171 0.84613,0.93218 0.66705,2.12177c-0.17906,1.1896 -0.37379,2.32778 -1.31551,2.18603c-0.94175,-0.14171 -1.56003,-1.22102 -1.38092,-2.41057z" fill="#8fbbbe" stroke="none" stroke-width="0" stroke-linecap="butt"/><path d="M264.45778,236.82513c-0.23475,-0.55379 0.24828,-1.28818 1.07894,-1.64033c0.83066,-0.35215 1.21844,-0.38126 1.45321,0.1725c0.23475,0.55379 -0.17743,1.4553 -1.0081,1.80742c-0.83066,0.35215 -1.2893,0.21413 -1.52405,-0.33963z" fill="#8fbbbe" stroke="none" stroke-width="0" stroke-linecap="butt"/><path d="M267.47494,222.99946c-0.26163,-0.86348 -0.00712,-1.70481 0.5685,-1.87924c0.57557,-0.17446 0.75303,0.59667 1.01469,1.46011c0.26163,0.86348 0.5085,1.49224 -0.06714,1.66671c-0.57557,0.17446 -1.2544,-0.38414 -1.51604,-1.24759z" fill="#8fbbbe" stroke="none" stroke-width="0" stroke-linecap="butt"/><path d="M255.72668,202.27921c0,0 6.83449,7.61376 9.453,14.72454c1.48455,4.03146 1.40126,8.09709 1.30357,11.17876c-0.08635,2.72525 -2.85261,8.68962 -5.44499,13.03448c-1.90862,3.19888 -3.86443,5.3993 -3.86443,5.3993" fill="none" stroke="#000000" stroke-width="0.5" stroke-linecap="round"/><path d="M271.21863,232.776c0,0 -9.88537,3.74934 -15.29028,3.68569c-4.55376,-0.05362 -14.88361,-3.70851 -14.88361,-3.70851" fill="none" stroke="#000000" stroke-width="1" stroke-linecap="round"/><path d="M240.35252,226.93497c0,0 9.0753,-3.32672 13.57646,-3.76311c7.90315,-0.76622 17.6255,2.95573 17.6255,2.95573" fill="none" stroke="#000000" stroke-width="1" stroke-linecap="round"/></g><g stroke="#2a2b40" stroke-linecap="butt"><path d="M202.84468,269.95704l-30.62959,-127.25179l45.72242,-11.00541l30.62959,127.25179z" fill="#000000" stroke-width="2"/><path d="M199.76357,260.12274l-6.847,-28.44609l46.15788,-11.11023l6.847,28.44609z" fill="#ffffff" stroke-width="2.5"/></g></g><g stroke-linecap="butt"><g stroke="#0c0c0c"><g><path d="M209.57878,109.6625c-1.66302,11.04494 -29.2665,16.0454 -61.65412,11.16884c-32.38761,-4.87656 -41.69071,-28.7471 -40.02768,-39.79204c1.66302,-11.04494 22.64549,4.76031 55.0331,9.63687c32.38761,4.87656 48.31172,7.94139 46.6487,18.98633z" fill="#fac843" stroke-width="2"/><path d="M208.55605,108.93105c-1.66302,11.04494 -29.2665,16.0454 -61.65412,11.16884c-32.38761,-4.87656 -39.64144,-26.24044 -37.97842,-37.28538c1.66302,-11.04494 5.76011,28.21687 38.14771,33.09343c32.38761,4.87656 63.14784,-18.02182 61.48482,-6.97688z" fill="#e47816" stroke-width="0"/></g><g><path d="M206.681,72.37083c-1.66302,11.04494 -29.2665,16.0454 -61.65412,11.16884c-32.38761,-4.87656 -41.69071,-28.7471 -40.02768,-39.79204c1.66302,-11.04494 22.64549,4.76031 55.0331,9.63687c32.38761,4.87656 48.31172,7.94139 46.6487,18.98633z" fill="#fac843" stroke-width="2"/><path d="M205.65828,71.63937c-1.66302,11.04494 -29.2665,16.0454 -61.65412,11.16884c-32.38761,-4.87656 -39.64145,-26.24045 -37.97843,-37.28539c1.66302,-11.04494 5.76011,28.21687 38.14772,33.09343c32.38761,4.87656 63.14784,-18.02182 61.48482,-6.97688z" fill="#e47816" stroke-width="0"/></g><g><path d="M208.12791,146.16353c-1.66302,11.04494 -29.2665,16.0454 -61.65412,11.16884c-32.38761,-4.87656 -41.69071,-28.7471 -40.02768,-39.79204c1.66302,-11.04494 22.64549,4.76031 55.0331,9.63687c32.38761,4.87656 48.31172,7.94139 46.6487,18.98633z" fill="#fac843" stroke-width="2"/><path d="M207.10518,145.43208c-1.66302,11.04494 -29.2665,16.0454 -61.65412,11.16884c-32.38761,-4.87656 -39.64144,-26.24045 -37.97842,-37.28539c1.66302,-11.04494 5.76011,28.21687 38.14771,33.09343c32.38761,4.87656 63.14784,-18.02182 61.48482,-6.97688z" fill="#e47816" stroke-width="0"/></g></g><g stroke="#0c0c0c"><g data-paper-data="{&quot;index&quot;:null}"><path d="M305.49645,80.52801c32.38761,-4.87656 53.37008,-20.68181 55.0331,-9.63687c1.66302,11.04494 -7.64007,34.91547 -40.02768,39.79204c-32.38761,4.87656 -59.99109,-0.1239 -61.65412,-11.16884c-1.66302,-11.04494 14.26109,-14.10977 46.6487,-18.98633z" fill="#fac843" stroke-width="2"/><path d="M321.35529,105.75977c32.38761,-4.87656 36.4847,-44.13836 38.14772,-33.09342c1.66302,11.04494 -5.5908,32.40883 -37.97843,37.28538c-32.38761,4.87656 -59.99109,-0.1239 -61.65412,-11.16884c-1.66302,-11.04494 29.09721,11.85345 61.48482,6.97688z" fill="#e47816" stroke-width="0"/></g><g data-paper-data="{&quot;index&quot;:null}"><path d="M308.39424,43.2363c32.38761,-4.87656 53.37008,-20.68181 55.0331,-9.63687c1.66302,11.04494 -7.64007,34.91547 -40.02768,39.79204c-32.38761,4.87656 -59.99109,-0.1239 -61.65412,-11.16884c-1.66302,-11.04494 14.26109,-14.10977 46.6487,-18.98633z" fill="#fac843" stroke-width="2"/><path d="M324.25308,68.46808c32.38761,-4.87656 36.48469,-44.13837 38.14771,-33.09343c1.66302,11.04494 -5.5908,32.40883 -37.97842,37.28539c-32.38761,4.87656 -59.99109,-0.1239 -61.65412,-11.16884c-1.66302,-11.04494 29.09721,11.85345 61.48482,6.97688z" fill="#e47816" stroke-width="0"/></g><g data-paper-data="{&quot;index&quot;:null}"><path d="M306.94731,117.02902c32.38761,-4.87656 53.37008,-20.68181 55.0331,-9.63687c1.66302,11.04494 -7.64007,34.91547 -40.02768,39.79204c-32.38761,4.87656 -59.99109,-0.1239 -61.65412,-11.16884c-1.66302,-11.04494 14.26109,-14.10977 46.6487,-18.98633z" fill="#fac843" stroke-width="2"/><path d="M322.80616,142.26074c32.38761,-4.87656 36.48469,-44.13837 38.14771,-33.09343c1.66302,11.04494 -5.5908,32.40883 -37.97842,37.28539c-32.38761,4.87656 -59.99109,-0.1239 -61.65412,-11.16884c-1.66302,-11.04494 29.09721,11.85345 61.48482,6.97688z" fill="#e47816" stroke-width="0"/></g></g><path d="M174.55272,111.43791c0,-31.80358 32.53018,-57.58549 72.6582,-57.58549c40.12802,0 72.6582,25.7819 72.6582,57.58549c0,31.80358 -32.53018,57.58549 -72.6582,57.58549c-40.12802,0 -72.6582,-25.7819 -72.6582,-57.58549z" fill="#fdf7c7" stroke="#000000" stroke-width="2"/><path d="M175.10186,108.51189c0,-3.52561 2.35177,-8.7085 2.62288,-9.88302c3.3547,-14.53329 30.25799,59.95585 65.9376,59.95585c40.12802,0 49.30313,4.60319 4.46071,9.66756c-39.90255,4.24795 -73.02118,-27.93679 -73.02118,-59.74039z" fill="#f2bd9d" stroke="#000000" stroke-width="0"/></g><path d="M225.71209,115.20241c0,-7.78178 6.30839,-14.09017 14.09017,-14.09017c7.78178,0 14.09017,6.30839 14.09017,14.09017c0,7.78178 -6.30839,14.09017 -14.09017,14.09017c-7.78178,0 -14.09017,-6.30839 -14.09017,-14.09017z" fill="#1a1507" stroke="#0c0c0c" stroke-width="2" stroke-linecap="butt"/><path d="M242.3293,114.0138c0,-2.74328 2.22387,-4.96715 4.96715,-4.96715c2.74328,0 4.96715,2.22387 4.96715,4.96715c0,2.74328 -2.22387,4.96715 -4.96715,4.96715c-2.74328,0 -4.96715,-2.22387 -4.96715,-4.96715z" fill="#fdf7c7" stroke="#000000" stroke-width="0" stroke-linecap="butt"/><path d="M282.18788,113.78269c0,-7.78178 6.30838,-14.09017 14.09017,-14.09017c7.78178,0 14.09017,6.30839 14.09017,14.09017c0,7.78179 -6.30839,14.09017 -14.09017,14.09017c-7.78178,0 -14.09017,-6.30839 -14.09017,-14.09017z" fill="#1a1507" stroke="#0c0c0c" stroke-width="2" stroke-linecap="butt"/><path d="M299.44363,112.59408c0,-2.74328 2.22387,-4.96716 4.96715,-4.96716c2.74328,0 4.96715,2.22387 4.96715,4.96716c0,2.74329 -2.22387,4.96715 -4.96715,4.96715c-2.74328,0 -4.96715,-2.22386 -4.96715,-4.96715z" fill="#fdf7c7" stroke="#000000" stroke-width="0" stroke-linecap="butt"/><path d="M295.17032,135.73673c0,0 0.80439,4.42242 -1.28221,7.41951c-1.77824,2.55416 -6.43645,3.76125 -7.03182,3.69099c-16.00822,-1.88909 -60.99789,-4.2288 -72.35253,-8.38683c-6.8162,-2.49606 -5.51716,-17.57967 -5.51716,-17.57967" fill="none" stroke="#1a1507" stroke-width="2" stroke-linecap="round"/></g></g></svg>