<svg version="1.1" xmlns="http://www.w3.org/2000/svg" xmlns:xlink="http://www.w3.org/1999/xlink" width="203.19219" height="329.53376" viewBox="0,0,203.19219,329.53376"><g transform="translate(-216.3492,-29.12813)"><g data-paper-data="{&quot;isPaintingLayer&quot;:true}" fill-rule="nonzero" stroke-linejoin="miter" stroke-miterlimit="10" stroke-dasharray="" stroke-dashoffset="0" style="mix-blend-mode: normal"><g data-paper-data="{&quot;index&quot;:null}" stroke="#000000" stroke-linecap="butt"><path d="M272.34621,225.08491c2.49516,1.37611 5.7346,-13.93484 10.78215,-22.20799c4.09293,-6.7085 10.05792,-9.35739 10.59418,-2.28344c-3.90761,7.08527 11.73334,77.58951 -17.45792,61.49016c-29.19126,-16.09936 -49.68771,-34.89421 -45.78009,-41.97948c3.90761,-7.08526 12.67044,-11.11862 41.86169,4.98074z" fill="#216aff" stroke-width="2"/><path d="M256.25338,202.40515c12.52962,6.91026 16.94086,22.93079 9.85277,35.78287c-7.08809,12.85208 -22.9914,17.66889 -35.52102,10.75863c-12.52963,-6.91025 -16.94086,-22.9308 -9.85277,-35.78288c7.08809,-12.85208 22.99139,-17.66888 35.52101,-10.75862z" fill="#faddbf" stroke-width="2"/><path d="M231.52678,249.0148c-12.52963,-6.91024 -16.94086,-22.93079 -9.85277,-35.78287c7.08809,-12.85208 13.07792,22.69504 25.60754,29.6053c12.52964,6.91025 -3.22515,13.08783 -15.75477,6.17757z" fill="#ef8b89" stroke-width="0"/></g><g data-paper-data="{&quot;index&quot;:null}" stroke="#000000" stroke-linecap="butt"><path d="M275.60526,338.50983v-95.29492h29.49199v95.29492z" fill="#73fffc" stroke-width="2"/><path d="M276.58797,337.56342l18.60659,-13.13896c0,0 2.26208,-0.70825 2.52228,-2.78987c1.17702,-9.41615 6.3799,-77.52842 6.3799,-77.52842l1.32626,93.78573z" fill="#59a9e6" stroke-width="0"/></g><g data-paper-data="{&quot;index&quot;:null}" stroke="#000000" stroke-linecap="butt"><path d="M314.94664,336.08728v-95.29492h29.49199v95.29492z" fill="#73fffc" stroke-width="2"/><path d="M315.92935,335.1409l18.60659,-13.13896c0,0 2.26208,-0.70825 2.52228,-2.78987c1.17702,-9.41615 6.3799,-77.52842 6.3799,-77.52842l1.32626,93.78573z" fill="#59a9e6" stroke-width="0"/></g><g data-paper-data="{&quot;index&quot;:null}" stroke="#000000" stroke-linecap="butt"><path d="M311.62295,177.8148c18.77199,0 33.98969,24.87307 33.98969,55.55556c0,8.35076 6.37392,33.61764 4.35457,40.7234c-5.40019,19.00234 -24.68139,14.83216 -38.34426,14.83216c-10.32729,0 -32.7059,2.78608 -38.9397,-9.09579c-5.09742,-9.71589 4.95001,-32.65706 4.95001,-46.45977c0,-30.68249 15.2177,-55.55556 33.98969,-55.55556z" fill="#216aff" stroke-width="2"/><path d="M339.36219,202.78379c2.17098,1.37012 5.51953,20.51569 5.51953,29.96813c0,8.35075 6.37393,33.61764 4.35457,40.7234c-5.40019,19.00233 -24.68138,14.83215 -38.34425,14.83215c-10.32729,0 -32.7059,2.78607 -38.9397,-9.09579c-5.09743,-9.71588 56.94455,-16.46203 56.94455,-30.26474c0,-21.0232 4.52139,-62.9273 10.4653,-46.16315z" fill="#3236f4" stroke-width="0"/></g><g data-paper-data="{&quot;index&quot;:null}" stroke="#000000" stroke-linecap="butt"><g><path d="M415.47604,121.64602c-2.29523,46.73446 -42.04165,82.75958 -88.77611,80.46435c-46.73446,-2.29523 -82.75958,-42.04165 -80.46435,-88.77611c2.29523,-46.73446 42.04165,-82.75958 88.77611,-80.46435c46.73446,2.29523 82.75958,42.04164 80.46435,88.7761z" fill="#faddbf" stroke-width="2"/><path d="M415.28819,120.76624c-2.29523,46.73446 -42.04165,82.75958 -88.77611,80.46435c-6.05561,-0.2974 -18.37449,-2.86482 -20.70468,-3.78922c-1.45669,-0.57787 27.48471,-5.53783 48.39162,-17.83357c11.21845,-6.59779 18.14328,-20.68596 21.25794,-25.28118c1.63806,-0.35899 7.00073,-19.76056 7.00663,-19.82065c2.47796,-25.19871 -19.93139,-88.65826 -11.84615,-90.83529c0.6197,-0.16687 12.23858,7.22019 21.1653,16.01685c7.18199,7.07735 12.02805,15.86886 12.52437,16.26075c4.34595,3.43149 11.71955,29.78179 10.98109,44.81795z" fill="#ef8b89" stroke-width="0"/><path d="M246.78085,112.90229c1.7924,-36.49617 45.93994,-45.5676 84.87532,-23.03018c40.67676,23.5454 85.3018,-2.62377 83.50939,33.87239c-0.89139,18.14996 -8.82616,9.74625 -22.07552,-3.55904c-2.74412,-2.7557 -13.40276,9.65732 -16.58747,6.67346c-4.05935,-3.80333 -7.63478,-9.29505 -11.23934,-14.9867c-2.90249,-4.5831 -14.30619,11.83215 -17.5143,7.7669c-4.93689,-6.25592 -4.79267,-13.26808 -12.06376,-13.62518c-2.7341,-0.13428 -10.64995,11.23217 -13.38259,11.42573c-2.11894,0.15009 -8.72833,-12.40136 -10.8093,-12.14077c-3.77897,0.47321 -12.7695,10.29364 -16.31095,11.245c-1.41996,0.38146 -12.08456,-9.00321 -13.44414,-8.59674c-1.94454,0.58135 -9.33638,9.63377 -11.08541,10.32022c-2.78456,1.09287 -10.46981,-6.74137 -12.67066,-5.67628c-9.08245,4.3954 -9.0951,12.32885 -9.75029,14.18805c-0.64222,1.82241 -2.02117,-2.26653 -1.45096,-13.87687z" fill="#ef8b89" stroke-width="0"/></g><path d="M245.65646,104.52614c1.79241,-36.49616 45.25157,-76.56002 91.12311,-74.30717c45.87155,2.25285 83.49272,48.87122 81.70031,85.36738c-0.89139,18.14996 -9.04552,9.73547 -22.66021,-3.58776c-2.81977,-2.75942 -13.74248,9.64064 -17.01472,6.65248c-4.17091,-3.80881 -7.8474,-9.30549 -11.55401,-15.00216c-2.98468,-4.58713 -14.66685,11.81444 -17.96451,7.74479c-5.07469,-6.26269 -4.93573,-13.27509 -12.39835,-13.6416c-2.80611,-0.13782 -10.91531,11.21914 -13.7195,11.40918c-2.17443,0.14737 -8.97369,-12.41339 -11.109,-12.15548c-3.87766,0.46837 -13.09177,10.27781 -16.72505,11.22466c-1.45677,0.37965 -12.41371,-9.01938 -13.8085,-8.61464c-1.99488,0.57887 -9.56928,9.62233 -11.36339,10.30657c-2.85633,1.08934 -10.75362,-6.75531 -13.01094,-5.69299c-18.44653,8.68117 -12.64711,23.75182 -11.49518,0.29675z" fill="#724e36" stroke-width="2"/><path d="M245.96097,103.37693c1.79241,-36.49616 47.08832,-45.51119 87.07591,-22.9221c41.77602,23.59939 87.53991,-2.51385 85.7475,33.98231c-0.89139,18.14995 -9.04552,9.73547 -22.66021,-3.58776c-2.81977,-2.75943 -13.74248,9.64063 -17.01472,6.65247c-4.17093,-3.80881 -7.84741,-9.30549 -11.55402,-15.00216c-2.98468,-4.58713 -14.66685,11.81444 -17.96451,7.74479c-5.07469,-6.26269 -4.93573,-13.2751 -12.39835,-13.64161c-2.80611,-0.13781 -10.91531,11.21915 -13.7195,11.40919c-2.17443,0.14737 -8.97369,-12.41339 -11.109,-12.15548c-3.87766,0.46837 -13.09177,10.27781 -16.72505,11.22466c-1.45677,0.37965 -12.41371,-9.01938 -13.8085,-8.61464c-1.99489,0.57887 -9.56929,9.62233 -11.3634,10.30657c-2.85633,1.08934 -10.75362,-6.75531 -13.01094,-5.69299c-18.44654,8.68116 -12.64712,23.75181 -11.49519,0.29674z" fill="#623728" stroke-width="0"/></g><g data-paper-data="{&quot;index&quot;:null}" stroke="#000000" stroke-linecap="butt"><path d="M356.21826,95.4426c16.54859,0.81274 28.82823,24.59531 27.42733,53.11987c-1.4009,28.52455 -15.80162,42.5656 -32.35021,41.75286c-16.54859,-0.81273 -28.97846,-16.17148 -27.57756,-44.69604c1.4009,-28.52456 15.95185,-50.98943 32.50044,-50.17669z" fill="#f0f0f0" stroke-width="2"/><path d="M371.37783,128.35397c-4.2106,-41.07251 13.07413,-9.17653 11.67323,19.34803c-1.4009,28.52455 -15.80162,42.5656 -32.35021,41.75286c-16.54859,-0.81274 23.58949,-32.69086 20.67699,-61.10089z" fill="#9a99ff" stroke-width="0"/></g><path d="M335.0976,125.49192c5.77709,0.28372 9.83118,13.32472 9.05506,29.12789c-0.77612,15.80317 -6.08857,28.38416 -11.86566,28.10043c-5.77709,-0.28372 -9.83118,-13.32472 -9.05506,-29.12789c0.77612,-15.80317 6.08857,-28.38416 11.86566,-28.10043z" data-paper-data="{&quot;index&quot;:null}" fill="#000000" stroke="none" stroke-width="0" stroke-linecap="butt"/><g data-paper-data="{&quot;index&quot;:null}" stroke="#000000" stroke-linecap="butt"><path d="M330.19438,115.86648c4.72303,-9.52893 11.07819,-21.03595 26.76954,-20.26532c15.69135,0.77063 17.55192,13.147 21.42226,22.49683c4.06768,9.82659 -7.61588,13.89991 -23.30723,13.12928c-15.69135,-0.77064 -29.84046,-5.36204 -24.88457,-15.36078z" fill="#a100fe" stroke-width="2"/><path d="M331.13492,115.55799c4.57829,-9.53604 9.63865,1.30127 24.79496,2.04563c15.15631,0.74436 18.03077,-9.23743 21.75384,0.10518c3.9129,9.81899 -7.38005,13.9115 -22.53636,13.16714c-15.15631,-0.74436 -28.81647,-5.31174 -24.01245,-15.31794z" fill="#99008e" stroke-width="0"/></g><g data-paper-data="{&quot;index&quot;:null}" stroke="#000000" stroke-linecap="butt"><path d="M320.06816,143.95963c-1.4009,28.52456 -15.27594,42.59142 -31.82453,41.77868c-16.54859,-0.81274 -29.50415,-16.19731 -28.10325,-44.72186c1.4009,-28.52456 15.95186,-50.98943 32.50045,-50.17669c16.54859,0.81274 28.82823,24.59531 27.42733,53.11987z" fill="#f0f0f0" stroke-width="2"/><path d="M260.81637,140.21839c1.4009,-28.52457 21.72787,-58.57336 13.51292,-18.11109c-5.68232,27.98793 31.13892,63.64568 14.59033,62.83294c-16.54859,-0.81274 -29.50415,-16.19731 -28.10325,-44.72186z" fill="#9a99ff" stroke-width="0"/></g><path d="M271.36113,121.74874c5.7771,0.28372 9.83118,13.32472 9.05506,29.12789c-0.77612,15.80316 -6.08857,28.38416 -11.86566,28.10043c-5.77709,-0.28372 -9.83118,-13.32472 -9.05506,-29.12789c0.77613,-15.80316 6.08858,-28.38416 11.86567,-28.10043z" data-paper-data="{&quot;index&quot;:null}" fill="#000000" stroke="none" stroke-width="0" stroke-linecap="butt"/><g data-paper-data="{&quot;index&quot;:null}" stroke="#000000" stroke-linecap="butt"><path d="M316.53818,113.71537c3.95229,10.43625 -10.57864,13.6191 -26.26999,12.84847c-15.69135,-0.77064 -26.91954,-5.96921 -21.90855,-15.34992c4.76788,-8.9256 7.83222,-21.06008 23.52357,-20.28945c15.69135,0.77064 20.88838,12.84501 24.65496,22.79089z" fill="#a100fe" stroke-width="2"/><path d="M315.6324,113.31622c3.80041,10.42878 -10.24156,13.63565 -25.39787,12.89129c-15.15631,-0.74436 -25.99389,-5.92375 -21.13768,-15.31206c4.62061,-8.93283 6.50314,1.28258 21.65945,2.02694c15.15631,0.74436 21.25424,-9.54495 24.87609,0.39382z" fill="#99008e" stroke-width="0"/></g><path d="M241.22611,336.54451c0,-11.6628 13.71248,-9.87692 31.62358,-9.87692c14.33063,0 27.65301,-10.77791 32.14847,-5.26144c1.12318,1.37828 1.08979,12.80695 1.08979,15.13837c0,11.6628 -14.51982,21.11737 -32.43092,21.11737c-17.9111,0 -32.43092,-9.45457 -32.43092,-21.11737z" data-paper-data="{&quot;index&quot;:null}" fill="#000082" stroke="#000000" stroke-width="2" stroke-linecap="butt"/><path d="M274.10673,327.2375c14.33063,0 25.38775,-8.75646 29.88321,-5.7726c1.12318,0.74551 1.0898,12.01046 1.0898,13.27153c0,6.30841 -12.25456,9.26589 -30.16566,9.26589c-17.91111,0 -31.80169,-3.88169 -31.80169,-10.1901c0,-6.30841 13.08324,-6.57472 30.99434,-6.57472z" data-paper-data="{&quot;index&quot;:null}" fill="#2e0048" stroke="#000000" stroke-width="0" stroke-linecap="butt"/><path d="M284.21305,335.89968c0,-11.6628 13.71248,-9.87692 31.62358,-9.87692c14.33063,0 27.65301,-10.77791 32.14847,-5.26144c1.12318,1.37828 1.08979,12.80695 1.08979,15.13837c0,11.6628 -14.51982,21.11737 -32.43092,21.11737c-17.9111,0 -32.43092,-9.45457 -32.43092,-21.11737z" data-paper-data="{&quot;index&quot;:null}" fill="#000082" stroke="#000000" stroke-width="2" stroke-linecap="butt"/><path d="M317.09367,326.59265c14.33063,0 25.38775,-8.75646 29.88321,-5.7726c1.12318,0.74551 1.0898,12.01046 1.0898,13.27153c0,6.30841 -12.25456,9.26589 -30.16566,9.26589c-17.91111,0 -31.80169,-3.88169 -31.80169,-10.1901c0,-6.30841 13.08324,-6.57472 30.99434,-6.57472z" data-paper-data="{&quot;index&quot;:null}" fill="#2e0048" stroke="#000000" stroke-width="0" stroke-linecap="butt"/><g data-paper-data="{&quot;index&quot;:null}"><path d="M316.75932,252.24576c-12.63608,-1.52559 -23.14531,-8.22163 -25.16097,-19.19559c-0.37362,-2.03427 -0.80348,-4.25755 -0.52349,-6.57654c1.79041,-14.82915 13.83989,-23.19417 28.81837,-21.38575c14.97843,1.80839 25.92116,16.24032 23.98176,27.76047c-2.47966,14.72959 -12.13724,21.20579 -27.11565,19.39741z" fill="#485e84" stroke="#000000" stroke-width="2" stroke-linecap="butt"/><path d="M331.98846,211.66753c0,0 2.43804,1.73502 4.72361,4.45344c2.45578,2.92088 4.79463,6.95594 5.51562,10.56016c0.56491,2.82412 0.16741,7.34616 -1.66101,11.20601c-1.17763,2.48599 -2.18947,4.86483 -3.45737,6.56786c-1.29419,1.73839 -12.55459,9.09763 -12.55459,9.09763l-20.15179,-5.72397c0,0 -6.33064,-5.42509 -8.31778,-8.3191c-1.7396,-2.53356 -2.81609,-6.18664 -3.10158,-9.08948c-0.2683,-2.72802 0.20405,-4.78835 0.20405,-4.78835c0,0 0.45625,1.02601 1.50671,1.15504c4.62355,0.56795 18.6521,1.21453 35.30793,-8.36968c1.73639,-0.99916 1.98622,-6.74969 1.98622,-6.74969z" fill="#343545" stroke="none" stroke-width="0" stroke-linecap="butt"/><path d="M318.49815,205.28504c0,0 7.40874,10.64016 9.49653,16.82365c1.64928,4.88467 -1.26428,13.42337 -1.26428,13.42337" fill="none" stroke="#000000" stroke-width="1" stroke-linecap="round"/><path d="M303.21014,242.56529c0,0 -6.20264,-7.4619 -7.62195,-11.56211c-1.40593,-4.06142 -2.06471,-11.18152 -2.06471,-11.18152" fill="none" stroke="#000000" stroke-width="1" stroke-linecap="round"/><path d="M328.57401,208.14706c0,0 6.22186,9.78694 9.33275,17.78072c2.02733,5.20949 -1.09433,13.92967 -1.09433,13.92967" fill="none" stroke="#000000" stroke-width="1" stroke-linecap="round"/><path d="M292.69624,237.27365c0,0 1.74263,-17.15966 20.52441,-20.54336c17.14646,-3.08909 29.49882,9.03091 29.49882,9.03091" fill="none" stroke="#000000" stroke-width="1" stroke-linecap="round"/><path d="M297.88154,244.29882c0,0 2.81993,-14.31667 15.24816,-16.52816c15.13623,-2.69333 29.71984,7.51357 29.71984,7.51357" fill="none" stroke="#000000" stroke-width="1" stroke-linecap="round"/><path d="M306.01083,211.74838c-1.09331,0.50177 -2.3017,0.20685 -2.69886,-0.65874c-0.39719,-0.86555 0.64244,-1.36808 1.73581,-1.86983c1.09335,-0.50175 1.82636,-0.81271 2.22352,0.05288c0.3972,0.86552 -0.16708,1.97394 -1.26045,2.47569z" fill="#8fbbbe" stroke="none" stroke-width="0" stroke-linecap="butt"/><path d="M299.87749,215.65226c-0.59713,-0.07209 -0.85687,-0.4745 -0.74872,-1.37022c0.10811,-0.89572 0.86007,-1.54161 1.45723,-1.46953c0.59714,0.07211 0.67665,0.45276 0.5685,1.34848c-0.10814,0.89572 -0.67988,1.56337 -1.27704,1.49129z" fill="#8fbbbe" stroke="none" stroke-width="0" stroke-linecap="butt"/><path d="M312.32536,208.92153c-0.90215,-0.01209 -1.62699,-0.50951 -1.61889,-1.11089c0.00809,-0.60143 0.68063,-0.5385 1.58281,-0.52643c0.90214,0.01211 1.69223,-0.0311 1.68413,0.57028c-0.00808,0.60142 -0.74589,1.07913 -1.64807,1.06706z" fill="#8fbbbe" stroke="none" stroke-width="0" stroke-linecap="butt"/><path d="M292.48859,225.36447c0,0 1.57217,-2.48903 4.11677,-5.20945c3.45619,-3.69501 8.42024,-8.00591 11.01481,-8.84418c2.93387,-0.94794 6.81716,-2.15474 11.10214,-1.84566c7.55794,0.5452 16.76762,5.00182 16.76762,5.00182" fill="none" stroke="#000000" stroke-width="0.5" stroke-linecap="round"/><path d="M310.27879,237.01963c0,0 -6.37463,-8.91225 -7.68821,-13.27277c-1.55913,-5.17555 -0.69637,-15.7128 -0.69637,-15.7128" fill="none" stroke="#000000" stroke-width="1" stroke-linecap="round"/><path d="M308.18911,205.86878c0,0 6.27068,8.30996 7.72483,16.11588c0.8282,4.44577 0.147,14.08756 0.147,14.08756" fill="none" stroke="#000000" stroke-width="1" stroke-linecap="round"/></g><g data-paper-data="{&quot;index&quot;:null}" stroke="#000000" stroke-linecap="butt"><path d="M339.66992,238.54644c2.79936,-0.53206 -4.47353,-14.38934 -5.86429,-23.9804c-1.12774,-7.77716 1.77595,-13.62234 6.70169,-8.51692c1.51082,7.94908 58.53338,52.26517 25.78321,58.4897c-32.75018,6.22453 -60.5242,4.82652 -62.03501,-3.12257c-1.5108,-7.94907 2.66423,-16.64529 35.41441,-22.86981z" fill="#216aff" stroke-width="2"/><path d="M312.80871,231.34745c14.0572,-2.67172 27.67443,6.8513 30.41491,21.27027c2.74049,14.41897 -6.43353,28.27373 -20.49074,30.94545c-14.05721,2.67172 -27.67443,-6.85131 -30.41491,-21.27028c-2.74049,-14.41896 6.43353,-28.27371 20.49074,-30.94543z" fill="#faddbf" stroke-width="2"/><path d="M331.69303,268.20706c14.05721,-2.67173 5.86567,12.13618 -8.19154,14.8079c-14.05721,2.67173 -27.67443,-6.8513 -30.41491,-21.27027c-2.74048,-14.41897 24.54923,9.13409 38.60644,6.46237z" fill="#ef8b89" stroke-width="0"/></g><path d="M390.9715,144.48062c-0.11144,-0.56353 0.0513,-1.06804 0.0513,-1.06804l0.14314,-0.39049c0.33553,-1.7296 0.48317,-3.91167 2.19899,-5.04566c3.01474,-1.99245 9.17923,0.48507 10.53104,3.50845c0.36806,0.82319 -0.14762,4.31226 -0.25632,5.23443c-0.93626,5.10937 -1.2389,11.99701 -5.41442,15.81305c-2.84674,2.60167 -8.53764,2.39222 -10.41521,-1.5475c-1.01319,-2.12598 0.11322,-6.01383 1.36896,-7.82458c0.85056,-1.22649 3.24031,-2.49094 3.27537,-4.22725c0.01899,-0.94052 -1.00399,-2.70948 -1.29843,-3.31908c0,0 -0.24957,-0.52472 -0.18443,-1.13333z" data-paper-data="{&quot;index&quot;:null}" fill="#000000" stroke="none" stroke-width="0.5" stroke-linecap="butt"/></g></g></svg>