<svg version="1.1" xmlns="http://www.w3.org/2000/svg" xmlns:xlink="http://www.w3.org/1999/xlink" width="194.2705" height="325.54367" viewBox="0,0,194.2705,325.54367"><g transform="translate(-254.40334,-19.13926)"><g data-paper-data="{&quot;isPaintingLayer&quot;:true}" fill-rule="nonzero" stroke-linejoin="miter" stroke-miterlimit="10" stroke-dasharray="" stroke-dashoffset="0" style="mix-blend-mode: normal"><g data-paper-data="{&quot;index&quot;:null}" stroke="#000000" stroke-linecap="butt"><path d="M279.10665,247.32369l-6.43558,-47.62757l50.53814,-6.82887l6.43558,47.62757z" fill="#ffcaa0" stroke-width="2"/><g><path d="M272.20205,199.94141l-8.87395,-65.6732l51.19685,-6.91788l8.87396,65.6732z" fill="#ff0008" stroke-width="2"/><path d="M322.69047,193.33368c0,0 -16.80242,2.27038 -25.13677,3.39655c-8.24616,1.11425 -24.60758,3.32505 -24.60758,3.32505l-4.64792,-34.39769c0,0 19.80261,11.87337 27.86125,10.78446c8.49934,-1.14846 21.88312,-17.50606 21.88312,-17.50606l4.64791,34.39768z" fill="#8d005e" stroke-width="0"/></g><path d="M278.25018,246.89013l35.49918,-20.42361l8.60338,-34.03282l6.43559,47.62757z" fill="#ff6e5b" stroke-width="0"/></g><g data-paper-data="{&quot;index&quot;:null}" stroke="#000000" stroke-linecap="butt"><path d="M416.29351,34.61406c14.64755,0.59806 25.45664,27.16867 24.1428,59.34713c-1.31385,32.17847 -14.2531,57.77945 -28.90065,57.18138c-14.64755,-0.59807 -25.45665,-27.16868 -24.14281,-59.34714c1.31385,-32.17846 14.25311,-57.77944 28.90066,-57.18138z" fill="#01930e" stroke-width="2"/><path d="M387.81209,91.37802c1.31384,-32.17846 10.47702,-41.42664 9.16318,-9.24818c-1.31383,32.17845 29.62716,69.19337 14.97962,68.59531c-14.64754,-0.59806 -25.45664,-27.16868 -24.1428,-59.34714z" fill="#31525b" stroke-width="0"/></g><g data-paper-data="{&quot;index&quot;:null}" stroke="#000000" stroke-linecap="butt"><path d="M282.20055,343.23856v-90.27109h61.17899v90.27109z" fill="#273750" stroke-width="2"/><path d="M281.41322,342.48199l42.75189,-40.95544l18.42709,-49.31565v90.27109z" fill="#1f1e2e" stroke-width="0"/></g><path d="M281.56279,252.55619v-113.80147h113.80147v113.80147z" data-paper-data="{&quot;index&quot;:null}" fill="#ff0008" stroke="#000000" stroke-width="2" stroke-linecap="butt"/><g data-paper-data="{&quot;index&quot;:null}" fill="#000000" stroke="#000000" stroke-linecap="butt"><path d="M307.29219,252.08697v-111.68333h61.17899v111.68333z" stroke-width="2"/><path d="M306.50482,251.15094l42.75189,-50.67005l18.42709,-61.01328v111.68333z" stroke-width="0"/></g><g data-paper-data="{&quot;index&quot;:null}" stroke="#000000" stroke-linecap="butt"><path d="M334.8065,343.68293v-90.27109h61.17899v90.27109z" fill="#273750" stroke-width="2"/><path d="M334.01913,342.92633l42.75189,-40.95544l18.42709,-49.31565v90.27109z" fill="#1f1e2e" stroke-width="0"/></g><g data-paper-data="{&quot;index&quot;:null}" stroke="#000000" stroke-linecap="butt"><path d="M399.97604,256.45827l-17.73218,-44.66958l47.39939,-18.81582l17.73218,44.66959z" fill="#ffcaa0" stroke-width="2"/><g><path d="M381.84786,212.13985l-24.45074,-61.59447l48.01719,-19.06106l24.45075,61.59447z" fill="#ff0008" stroke-width="2"/><path d="M429.25233,193.55064c0,0 -15.75888,6.25569 -23.57561,9.35865c-7.73402,3.07012 -23.07929,9.16163 -23.07929,9.16163l-12.80658,-32.26137c0,0 22.08162,6.74699 29.63977,3.74668c7.97147,-3.16439 17.01514,-22.26696 17.01514,-22.26696l12.80657,32.26136z" fill="#8d005e" stroke-width="0"/></g><path d="M399.04031,256.24409l29.52564,-28.38226l0.14157,-35.10314l17.73218,44.66958z" fill="#ff6e5b" stroke-width="0"/></g><g data-paper-data="{&quot;index&quot;:null}" stroke="#000000" stroke-linecap="butt"><path d="M263.21973,85.1549c0.05615,-1.37532 2.00322,-27.32111 2.16059,-28.67119c3.97651,-34.1155 37.92852,-35.21729 80.3376,-33.48573c39.83665,1.62653 74.06329,7.56991 78.78397,39.07936c0.50371,3.36219 -1.48544,26.11287 -1.62767,29.59622c-0.50837,12.45077 1.36133,39.93831 -6.41143,49.5446c-14.78145,18.26828 -47.19303,13.79202 -76.08676,12.61229c-30.5499,-1.24735 -59.07865,-1.43012 -71.6546,-22.63526c-5.57273,-9.39657 -5.95465,-34.94673 -5.5017,-46.04032z" fill="#ffcaa0" stroke-width="2"/><path d="M261.38749,85.09027c0.05615,-1.37532 2.00321,-27.32111 2.16058,-28.67119c2.25927,-19.38279 4.38736,60.78586 51.23986,84.64206c36.71683,18.69537 103.62428,-3.85188 100.49925,0.01032c-14.78145,18.26829 -47.84965,13.87409 -76.74338,12.69436c-30.54991,-1.24734 -59.07866,-1.43011 -71.65461,-22.63525c-5.57273,-9.39657 -5.95465,-34.94673 -5.5017,-46.04032z" fill="#ff6e5b" stroke-width="0"/></g><g data-paper-data="{&quot;index&quot;:null}" stroke="#000000" stroke-linecap="butt"><path d="M284.41214,27.15371c14.64755,0.59806 25.45664,27.16867 24.1428,59.34713c-1.31385,32.17845 -14.25311,57.77944 -28.90066,57.18137c-14.64755,-0.59806 -25.45664,-27.16867 -24.1428,-59.34713c1.31385,-32.17846 14.25311,-57.77945 28.90066,-57.18138z" fill="#01930e" stroke-width="2"/><path d="M255.93073,83.91768c1.31384,-32.17846 10.47703,-41.42664 9.16319,-9.24818c-1.31384,32.17845 29.62714,69.19337 14.97961,68.59531c-14.64753,-0.59806 -25.45664,-27.16868 -24.1428,-59.34714z" fill="#31525b" stroke-width="0"/></g><g data-paper-data="{&quot;index&quot;:null}" stroke-linecap="butt"><path d="M440.78474,55.08399c-0.72049,17.64625 -42.63046,30.26404 -93.60852,28.1826c-50.97806,-2.08142 -91.71986,-18.07387 -90.99937,-35.72012c0.72049,-17.64626 42.63045,-30.26403 93.60851,-28.1826c50.97806,2.08143 91.71987,18.07387 90.99938,35.72013z" fill="#000000" stroke="none" stroke-width="NaN"/><path d="M348.80757,60.5295c50.97806,2.08144 91.95411,-22.77756 91.23362,-5.1313c-0.72049,17.64625 -42.63046,30.26404 -93.60852,28.1826c-50.97806,-2.08143 -91.71986,-18.07388 -90.99937,-35.72013c0.72049,-17.64625 42.39622,10.58741 93.37428,12.66884z" fill="#ff0000" stroke="#000000" stroke-width="2"/><path d="M347.7818,76.53497c50.97806,2.08143 86.70115,-17.0233 86.50287,-12.1672c-0.19828,4.85609 -37.27426,21.98112 -88.19388,18.46835c-17.81879,-1.22925 -34.5807,-3.54689 -48.18157,-7.05852c-25.25012,-6.51938 -40.53856,-15.73329 -38.04608,-19.72467c2.57428,-4.12237 36.94059,18.40059 87.91865,20.48203z" fill="#900056" stroke="#000000" stroke-width="0"/></g><path d="M356.45368,112.47972c-0.64121,15.70444 -4.06367,28.31689 -7.64429,28.17069c-3.58061,-0.14619 -5.96345,-12.99567 -5.32224,-28.7001c0.64121,-15.70443 4.06367,-28.31687 7.64428,-28.17067c3.58061,0.14618 5.96346,12.99566 5.32225,28.7001z" data-paper-data="{&quot;index&quot;:null}" fill="#000000" stroke="none" stroke-width="0" stroke-linecap="butt"/><path d="M383.5583,85.96231c3.39216,0.1385 5.62432,12.93081 4.98567,28.57243c-0.63865,15.64161 -3.90627,28.20937 -7.29842,28.07087c-3.39216,-0.1385 -5.62432,-12.93081 -4.98567,-28.57243c0.63865,-15.64162 3.90627,-28.20938 7.29842,-28.07088z" data-paper-data="{&quot;index&quot;:null}" fill="#000000" stroke="none" stroke-width="0" stroke-linecap="butt"/><path d="M372.09585,87.63607l-29.97502,-1.22388" data-paper-data="{&quot;index&quot;:null}" fill="none" stroke="#000000" stroke-width="5" stroke-linecap="round"/><path d="M380.22143,87.20089l23.49846,-3.56814" data-paper-data="{&quot;index&quot;:null}" fill="none" stroke="#000000" stroke-width="5" stroke-linecap="round"/><path d="M335.40929,128.88938c0.4772,6.36166 -4.2931,11.90565 -10.65476,12.38284c-6.36166,0.4772 -11.90565,-4.2931 -12.38284,-10.65476c-0.47719,-6.36166 4.71579,-4.26509 11.07745,-4.74228c6.36166,-0.4772 11.48295,-3.34746 11.96014,3.0142z" data-paper-data="{&quot;index&quot;:null}" fill="#000000" stroke="none" stroke-width="0" stroke-linecap="butt"/></g></g></svg>