<svg version="1.1" xmlns="http://www.w3.org/2000/svg" xmlns:xlink="http://www.w3.org/1999/xlink" width="202.22227" height="202.22228" viewBox="0,0,202.22227,202.22228"><g transform="translate(-136.94442,-75.55554)"><g data-paper-data="{&quot;isPaintingLayer&quot;:true}" fill-rule="nonzero" stroke-linejoin="miter" stroke-miterlimit="10" stroke-dasharray="" stroke-dashoffset="0" style="mix-blend-mode: normal"><path d="M266.47118,180.46484l5.01751,17.4533c0,0 -1.01839,1.43459 -2.00617,1.78342c-0.98778,0.34883 -2.11343,-0.32863 -2.11343,-0.32863l-7.9972,-16.03564" data-paper-data="{&quot;index&quot;:null}" fill="#414b67" stroke="#000000" stroke-width="2" stroke-linecap="round"/><path d="M264.16497,198.23994l-13.0631,-0.89699l-8.62471,-16.12829l1.40434,-4.94985l5.1117,-0.25521l10.37006,6.69598l10.9153,-6.26995l4.99232,12.51576z" data-paper-data="{&quot;index&quot;:null}" fill="#ef8b89" stroke="#000000" stroke-width="2" stroke-linecap="round"/><path d="M241.65512,181.74591l2.17671,-5.26363l5.41259,-1.62566l11.16953,6.39986l-3.72758,7.5395l-11.43416,4.0316z" data-paper-data="{&quot;index&quot;:null}" fill="#133c8f" stroke="#000000" stroke-width="2" stroke-linecap="butt"/><g data-paper-data="{&quot;index&quot;:null}" stroke="#000000"><g data-paper-data="{&quot;index&quot;:null}"><path d="M260.55886,226.92739l-17.17097,2.8958l-6.4954,-2.52887l-1.22682,-32.96231l7.84122,-2.41843l7.42103,3.47498z" data-paper-data="{&quot;index&quot;:null}" fill="#73fffc" stroke-width="2" stroke-linecap="butt"/><path d="M242.5443,228.33664l-3.16475,-24.91141l4.06838,25.42851z" fill="#59a9e6" stroke-width="0" stroke-linecap="round"/></g><g><path d="M237.46029,231.21745l-17.35616,3.17956l-6.29803,-4.02268l8.47398,-33.14725l8.33457,-1.75173l6.85641,3.19651z" data-paper-data="{&quot;index&quot;:null}" fill="#73fffc" stroke-width="2" stroke-linecap="butt"/><path d="M219.33762,232.74427l4.31034,-25.98345l-3.44071,26.6709z" fill="#59a9e6" stroke-width="0" stroke-linecap="round"/></g><path d="M244.41218,176.45503l8.44739,20.51103l-25.49,2.96816l-5.8747,-2.46026l2.22858,-20.75309z" fill="#1a54c9" stroke-width="2" stroke-linecap="round"/></g><path d="M207.57779,154.04075c0.21603,-11.81161 4.50191,-22.0519 26.0154,-21.5213c31.17386,0.76885 23.67705,28.58883 23.67705,28.58883c0,0 3.41003,1.40815 2.21193,5.12811c-1.46753,4.55651 -13.42377,9.90209 -26.68228,9.6596c-14.14579,-0.25872 -25.4381,-10.04364 -25.22208,-21.85525z" data-paper-data="{&quot;index&quot;:null}" fill="#faddbf" stroke="#000000" stroke-width="2" stroke-linecap="butt"/><g data-paper-data="{&quot;index&quot;:null}" stroke="#000000" stroke-linecap="butt"><path d="M257.04413,152.14369c-0.06197,3.38888 -0.04119,4.43553 -0.19226,3.89275c-0.15413,-0.55374 0.37055,-2.73015 -2.18546,-4.18712c-0.61938,-0.35305 -3.00892,1.77527 -3.79756,1.40268c-0.49536,-0.23403 -2.46815,-3.01264 -3.02244,-3.21993c-0.38756,-0.14493 -3.67429,2.37596 -4.0799,2.23712c-1.01161,-0.34628 -3.4344,-3.3797 -4.5245,-3.59153c-0.60028,-0.11665 -2.76943,3.40512 -3.38292,3.31986c-0.79118,-0.10995 -2.871,-3.57205 -3.66903,-3.58664c-2.12231,-0.03883 -2.21798,2.00399 -3.777,3.72708c-1.01308,1.1197 -4.00849,-3.87965 -4.94284,-2.60329c-1.16035,1.58508 -2.30829,3.11257 -3.56389,4.13937c-0.98506,0.80555 -3.84226,-3.01483 -4.69467,-2.267c-4.11564,3.61075 -6.73951,6.15177 -6.64262,0.85408c0.19483,-10.65268 12.81413,-2.41564 25.10995,-8.46716c11.76945,-5.79246 23.43502,-2.30525 23.24019,8.34743z" data-paper-data="{&quot;index&quot;:null}" fill="#ef8b89" stroke-width="0"/><path d="M258.41049,149.7449c-0.12521,6.84619 1.85775,2.57564 -3.33836,-0.31193c-0.63586,-0.35336 -3.0873,1.77382 -3.89689,1.40085c-0.50852,-0.23427 -2.53458,-3.01385 -3.10357,-3.22141c-0.39783,-0.14511 -3.7699,2.37422 -4.18625,2.23518c-1.03841,-0.34677 -3.52647,-3.38137 -4.64537,-3.59373c-0.61614,-0.11694 -2.8407,3.40381 -3.47039,3.31826c-0.81206,-0.11032 -2.94831,-3.57344 -3.76737,-3.58842c-2.17821,-0.03983 -2.27543,2.00296 -3.87467,3.72531c-1.03923,1.11923 -4.11592,-3.88161 -5.07425,-2.60569c-1.19014,1.58454 -2.36758,3.11148 -3.65574,4.13769c-1.01061,0.80509 -3.94489,-3.01671 -4.81938,-2.26928c-4.22228,3.60881 -6.75963,5.89672 -6.66274,0.59903c0.19482,-10.65268 12.05455,-23.47658 25.44375,-23.2317c13.38919,0.24488 25.24608,12.75321 25.05125,23.40589z" data-paper-data="{&quot;index&quot;:null}" fill="#724e36" stroke-width="2"/><path d="M258.34448,149.4046c-0.12521,6.84619 1.85775,2.57564 -3.33836,-0.31193c-0.63586,-0.35336 -3.0873,1.77382 -3.89689,1.40085c-0.50851,-0.23427 -2.53458,-3.01385 -3.10357,-3.22141c-0.39782,-0.14511 -3.7699,2.37422 -4.18625,2.23518c-1.03842,-0.34677 -3.52647,-3.38137 -4.64537,-3.59373c-0.61614,-0.11694 -2.84071,3.40381 -3.4704,3.31826c-0.81206,-0.11033 -2.94831,-3.57345 -3.76737,-3.58843c-2.17822,-0.03983 -2.27543,2.00296 -3.87467,3.72531c-1.03923,1.11923 -4.11592,-3.88161 -5.07425,-2.60569c-1.19015,1.58453 -2.36759,3.11147 -3.65575,4.13768c-1.01061,0.80509 -3.94489,-3.01671 -4.81938,-2.26928c-4.22228,3.60881 -6.75963,5.89672 -6.66274,0.59903c0.19482,-10.65267 12.99599,-2.15762 25.61267,-8.20327c12.07656,-5.78684 25.07716,-2.27521 24.88233,8.37747z" data-paper-data="{&quot;index&quot;:null}" fill="#623728" stroke-width="0"/></g><path d="M245.67696,161.81872c0.46098,-3.86229 0.89744,-9.06922 2.563,-8.642c1.66555,0.42722 1.61125,4.04366 1.17606,7.68979c-0.43519,3.64612 -1.56742,8.32186 -3.01817,7.74399c-1.86872,-0.74436 -1.18188,-2.92949 -0.72089,-6.79178z" data-paper-data="{&quot;index&quot;:null}" fill="#000000" stroke="none" stroke-width="0.5" stroke-linecap="butt"/><path d="M237.86377,168.76865c-2.85181,-0.81844 -1.89825,-2.98347 -1.35046,-6.83922c0.54778,-3.85575 1.00678,-9.06099 3.53945,-8.56843c2.53267,0.49256 2.58981,4.1174 2.07267,7.75735c-0.51713,3.63996 -2.0477,8.28568 -4.26165,7.6503z" data-paper-data="{&quot;index&quot;:null}" fill="#000000" stroke="none" stroke-width="0.5" stroke-linecap="butt"/><g data-paper-data="{&quot;index&quot;:null}" stroke="#000000" stroke-linecap="butt"><path d="M253.20843,178.88115c-1.66372,-4.01874 0.1897,-8.60223 4.13974,-10.23752c3.95004,-1.63528 8.5009,0.29688 10.16463,4.31562c0.91317,2.20584 0.76674,4.5818 -0.20441,6.547c-0.79817,1.61516 -6.54783,4.37453 -7.83066,4.20883c-2.69166,-0.34765 -5.14257,-2.11227 -6.26931,-4.8339z" fill="#414b67" stroke-width="2"/><path d="M261.14072,169.73974c0.18419,-0.42953 1.00506,-0.48979 1.83348,-0.13455c0.82841,0.35524 1.35067,0.99143 1.16646,1.42098c-0.18419,0.42953 -1.00506,0.48979 -1.83348,0.13455c-0.82841,-0.35524 -1.35067,-0.99143 -1.16646,-1.42098z" fill="#7082b2" stroke-width="0"/></g><path d="M222.92399,162.32285c1.28306,-0.09108 2.0778,1.14187 1.89224,1.16627c0,0 -2.86247,2.80223 0.91979,5.30974c5.60362,3.71499 11.34242,1.90567 11.41093,2.17776c0.12209,0.48487 -0.36278,0.60695 -0.36278,0.60695c-3.65155,0.91131 -11.4686,1.50371 -14.49257,-0.16488c-6.06711,-3.34774 1.79288,-7.94225 1.79288,-7.94225c0,0 -2.44355,-1.06251 -1.16048,-1.15359z" data-paper-data="{&quot;index&quot;:null}" fill="#000000" stroke="none" stroke-width="0.5" stroke-linecap="butt"/><path d="M222.27559,170.41796c-3.98083,-2.44358 1.37532,-5.5053 1.24961,-5.49466c0,0 -1.65433,2.11927 0.81421,3.92576c3.65727,2.67641 7.49206,2.53194 7.52971,2.7173c0.06708,0.3303 -7.60942,0.06953 -9.59354,-1.14839z" data-paper-data="{&quot;index&quot;:null}" fill="#ffffff" stroke="none" stroke-width="0.5" stroke-linecap="butt"/><g data-paper-data="{&quot;index&quot;:null}" stroke="#000000"><g data-paper-data="{&quot;index&quot;:null}"><g data-paper-data="{&quot;index&quot;:null}"><path d="M220.49045,186.35113l-0.24011,-6.76487l5.23315,-3.90585l32.0391,1.56607l-4.0912,14.71062l-17.86277,8.30842z" data-paper-data="{&quot;index&quot;:null}" fill="#faddbf" stroke-width="2" stroke-linecap="butt"/><path d="M252.42584,190.86246l-21.08514,-9.14861l21.36006,7.75286z" fill="#ef8b89" stroke-width="0" stroke-linecap="round"/></g><g data-paper-data="{&quot;index&quot;:null}" fill="#ef8b89" stroke-width="0" stroke-linecap="butt"><path d="M235.72606,184.54285l20.05699,-5.98679l-3.10766,12.41762l-17.34046,8.56511z" data-paper-data="{&quot;index&quot;:null}"/></g></g><path d="M237.37445,175.14849l-8.30486,5.47156l-5.36874,9.15058l-3.49067,-3.38704l-0.43546,-6.28269l4.63086,-4.34099z" data-paper-data="{&quot;index&quot;:null}" fill="#1a54c9" stroke-width="2" stroke-linecap="butt"/></g><path d="M136.94445,277.77779v-202.22223h202.22222v202.22222z" data-paper-data="{&quot;index&quot;:null}" fill="none" stroke="#000000" stroke-width="0.00005" stroke-linecap="butt"/></g></g></svg>