<svg version="1.1" xmlns="http://www.w3.org/2000/svg" xmlns:xlink="http://www.w3.org/1999/xlink" width="336.07274" height="336.07274" viewBox="0,0,336.07274,336.07274"><g transform="translate(-151.96363,-11.96363)"><g data-paper-data="{&quot;isPaintingLayer&quot;:true}" fill-rule="nonzero" stroke-linejoin="miter" stroke-miterlimit="10" stroke-dasharray="" stroke-dashoffset="0" style="mix-blend-mode: normal"><path d="M203,297v-234h234v234z" data-paper-data="{&quot;index&quot;:null}" fill="none" stroke="none" stroke-width="0" stroke-linecap="butt"/><path d="M271.18283,268.33608c-1.89804,0.75642 -3.56284,-6.16843 -3.56284,-6.16843c0,0 -4.94351,-18.20002 -7.31676,-26.78645c-0.43593,-3.74759 29.38668,-16.57921 33.94439,-14.94692c2.03169,0.72764 6.89132,7.29545 6.29239,8.82362c-1.14,2.90874 -12.01998,11.55945 -12.01998,11.55945l-1.5226,-3.05251l3.17622,8.35155c0,0 4.59379,9.40703 5.35263,13.8498c0.42086,2.464 -24.34342,8.36988 -24.34342,8.36988z" data-paper-data="{&quot;index&quot;:null}" fill="#4b4b4b" stroke="#000000" stroke-width="3" stroke-linecap="round"/><g data-paper-data="{&quot;index&quot;:null}"><g><g data-paper-data="{&quot;origRot&quot;:0}" stroke="#000000" stroke-width="3" stroke-linecap="round"><path d="M263.99285,208.36899c0,0 10.72363,-28.6402 13.79103,-27.82433c5.53075,1.4711 16.85067,8.13192 16.85067,8.13192l10.16783,4.84252l-3.66905,-2.19932c0,0 12.38568,-11.80552 16.22084,-12.78549c2.01489,-0.51487 9.70212,6.09711 10.35842,8.60237c1.47226,5.62007 -18.68957,39.3762 -23.3816,38.37766c-10.57052,-3.91944 -32.98745,-12.12403 -32.98745,-12.12403c0,0 -8.55758,-2.86516 -7.35074,-5.02128z" data-paper-data="{&quot;origPos&quot;:null}" fill="#582700"/><path d="M286.93891,185.39474l-13.61273,27.03484" fill="none"/><path d="M290.79597,187.52652l-13.87851,26.90989" data-paper-data="{&quot;origPos&quot;:null}" fill="none"/></g><path d="M287.31235,185.49861l2.60144,1.24264l-14.10312,27.56925l-2.60144,-1.24264z" fill="#ffffff" stroke="none" stroke-width="0" stroke-linecap="butt"/><path d="M303.30745,224.82643l-26.30281,-9.79976l14.75709,-26.70657l12.28908,5.86522l1.02024,-1.74133l-2.5683,-1.69349l14.73756,-11.48069l1.34791,0.73792l6.73953,3.68956l1.58437,4.89211l-2.41125,8.16687l-12.01814,21.01894l-7.95492,8.00682z" fill="#66c8ff" stroke="#000000" stroke-width="0.5" stroke-linecap="round"/></g><g fill="#fffc96" stroke="#000000" stroke-width="2" stroke-linecap="round"><path d="M295.42241,189.51279c0,0 1.37876,5.71318 5.66506,13.23926c4.34652,7.63184 9.10771,13.03652 9.10771,13.03652l2.15914,-0.45578c0,0 0.94254,3.53077 -1.31661,4.29031c-5.52934,1.85897 -23.40306,-31.30051 -18.20578,-33.39189c3.24841,-1.30715 5.33314,3.25163 5.33314,3.25163z"/><path d="M306.68688,188.48536c0,0 -3.4488,5.68391 -6.12903,14.70876c-2.68024,9.02484 -3.24444,15.25284 -3.24444,15.25284l1.59496,-0.28879c0,0 -0.06016,4.06678 -3.31395,4.63312c-5.37268,0.93516 5.79093,-39.12806 11.44531,-38.81424c2.69367,0.14952 1.17068,4.41559 1.17068,4.41559z" data-paper-data="{&quot;index&quot;:null}"/></g></g><g data-paper-data="{&quot;index&quot;:null}" stroke="#000000" stroke-linecap="round"><path d="M325.62533,162.3832c0,0 16.73442,-1.93643 16.85865,4.68711c0.33724,17.97764 -28.95428,12.65459 -28.95428,12.65459z" data-paper-data="{&quot;origPos&quot;:null}" fill="#66c8ff" stroke-width="2"/><path d="M324.87891,163.90686c0,0 12.159,-0.80964 12.88452,1.12194c0.22881,0.60922 -16.17629,2.84177 -16.17629,2.84177z" data-paper-data="{&quot;origPos&quot;:null}" fill="#0a0a0a" stroke-width="1"/></g><g data-paper-data="{&quot;index&quot;:null}"><path d="M320.60403,211.51941c0,0 0.71633,15.68726 -0.87363,16.0771c-4.76992,1.16953 -17.33595,1.18661 -28.05173,1.9273c-1.20379,0.0832 -1.14087,-14.85922 -1.14087,-14.85922l1.05449,-30.66033c0,0 0.85095,-13.5742 1.95442,-13.65048c7.13802,-0.49337 17.81075,-2.16045 22.49467,-0.8428c1.56131,0.43921 3.07086,14.72509 3.07086,14.72509z" data-paper-data="{&quot;origPos&quot;:null}" fill="#66c8ff" stroke="#000000" stroke-width="3.5" stroke-linecap="round"/><path d="M298.21967,199.14893c-1.33409,0.04099 -1.43004,-3.08254 -1.43004,-3.08254c-0.19902,-6.47842 -0.462,-15.0392 -0.66101,-21.51763c0,0 -0.09595,-3.12353 1.23814,-3.16451c1.33409,-0.04099 1.43003,3.08254 1.43003,3.08254c0.19901,6.47842 0.39803,12.95685 0.59704,19.43528l0.06397,2.08235c0,0 0.09595,3.12353 -1.23813,3.16451z" fill="#ffffff" stroke="none" stroke-width="0.5" stroke-linecap="butt"/></g><path d="M322.35012,264.49318c0,0 -6.89525,-10.8174 -11.30858,-17.74108c-3.12696,-4.90562 -8.01243,-12.57002 -8.01243,-12.57002c0,0 -2.98267,-3.83602 -1.68032,-4.72658c3.84305,-2.62796 6.5391,-6.54609 11.09243,-7.69537c1.89078,-0.47725 5.04251,2.53767 5.04251,2.53767l23.53321,24.03052c0,0 2.46339,2.45065 3.82747,3.90699c1.45843,1.55706 2.48727,4.71339 0.78722,6.021c-6.242,4.80116 -9.21638,8.905 -13.89398,10.93384c-1.70413,0.73913 -3.5628,1.41529 -5.16833,0.49227c-2.09724,-1.20571 -4.21924,-5.18927 -4.21924,-5.18927z" data-paper-data="{&quot;index&quot;:null}" fill="#4b4b4b" stroke="#000000" stroke-width="3" stroke-linecap="round"/><g data-paper-data="{&quot;index&quot;:null}" fill="none" stroke="#b9b9b9" stroke-width="3"><path d="M295.17688,179.20345c-0.90392,1.87885 -1.76695,0.8295 -2.80839,-0.31405c-0.81546,-0.89543 -2.06869,-1.79842 -0.96295,-3.82712c0.52151,-0.95681 1.54154,-0.62918 2.58296,0.51435c1.04141,1.14355 1.82841,2.29642 1.18837,3.6268z" stroke-linecap="butt"/><path d="M294.35024,178.65868l2.20374,2.36387" stroke-linecap="round"/><path d="M299.48808,181.53981c1.04141,1.14356 1.82841,2.29643 1.18837,3.62681c-0.90392,1.87886 -1.76697,0.8295 -2.80839,-0.31405c-0.81547,-0.89543 -2.0687,-1.79842 -0.96296,-3.82712c0.52152,-0.95681 1.54155,-0.62918 2.58297,0.51435z" stroke-linecap="butt"/><path d="M302.05356,186.98572l-2.20373,-2.36388" stroke-linecap="round"/><path d="M306.66204,186.40767c0.53356,2.21222 -0.54743,2.54707 -1.78322,3.02785c-0.96765,0.37647 -2.19012,1.2508 -2.69197,-1.2868c-0.23671,-1.19684 0.53043,-2.16307 1.76622,-2.64385c1.23578,-0.48078 2.33115,-0.66365 2.70896,0.90279z" stroke-linecap="butt"/><path d="M305.88416,187.01615l2.58373,-1.05237" stroke-linecap="round"/><path d="M312.45107,182.00669c1.09179,1.76113 0.20417,2.68329 -0.78363,3.82884c-0.77348,0.897 -1.64101,2.40189 -2.79354,0.31955c-0.54357,-0.9821 -0.11398,-2.31574 0.87382,-3.46128c0.98779,-1.14554 1.93024,-1.93414 2.70334,-0.6871z" stroke-linecap="butt"/><path d="M311.91336,183.01287l2.05227,-2.439" stroke-linecap="round"/><path d="M317.61611,175.93703c1.0918,1.76114 0.20417,2.68331 -0.78362,3.82884c-0.77348,0.897 -1.641,2.40188 -2.79353,0.31955c-0.54358,-0.9821 -0.11399,-2.31574 0.87381,-3.46128c0.98779,-1.14554 1.93025,-1.93412 2.70335,-0.6871z" stroke-linecap="butt"/><path d="M319.13067,174.5042l-2.05228,2.43901" stroke-linecap="round"/></g><path d="M280.07523,167.98793c0,0 -1.51289,-4.33149 -1.51883,-5.41707c-0.01784,-3.25668 0.85919,-17.42217 1.69583,-30.22241c0.12939,-1.97986 1.99927,-4.97433 1.99927,-4.97433c0,0 2.3773,-1.49032 3.67887,-1.42006c14.36022,0.77504 28.09559,0.42119 33.31761,2.28144c1.74068,0.62008 4.87369,2.5467 4.87369,2.5467c0,0 0.44617,4.43076 0.51074,5.56805c0.02154,0.37909 0.03472,0.59253 0.03286,0.97225c-0.05538,11.37726 -1.37288,24.46864 -2.05563,29.02747c-0.22758,1.51962 -2.25657,3.79416 -2.25657,3.79416c0,0 -1.60854,2.63738 -6.19852,3.17592c-5.02223,0.58927 -17.07914,-0.49876 -29.50871,-1.65783z" data-paper-data="{&quot;index&quot;:null}" fill="#582700" stroke="#000000" stroke-width="2.5" stroke-linecap="round"/><path d="M287.23631,150.94192c-0.06941,3.50834 -0.44626,6.3471 -0.84171,6.34054c-0.39544,-0.00657 -0.65974,-2.85594 -0.59033,-6.36431c0.06941,-3.50834 0.44625,-6.34712 0.8417,-6.34056c0.39542,0.00655 0.65975,2.85595 0.59034,6.36432z" data-paper-data="{&quot;index&quot;:null}" fill="none" stroke="#000000" stroke-width="2.5" stroke-linecap="butt"/><path d="M328.45955,131.95323c-0.77987,0.99797 -1.80947,0.24523 -1.80947,0.24523l-0.70273,-0.56522c-0.09024,-0.03594 -0.18048,-0.07137 -0.27072,-0.10632c-0.2481,0.29746 -0.71541,0.63369 -1.4579,0.34646c-0.68435,-0.26474 -0.82097,-0.75676 -0.81224,-1.13023c-2.66839,-0.81558 -5.36141,-1.29012 -8.19426,-1.70295c-7.94977,-0.89079 -15.9558,-1.18266 -23.94522,-1.63347c-2.62017,-0.14783 -8.5484,0.54155 -10.63174,-1.26601c-1.01603,-0.88156 -0.47846,-2.78515 -0.51653,-3.84237c-0.11032,-3.06357 -0.29455,-6.23938 -0.11557,-9.3026c0.26158,-4.00235 -1.06194,-7.66452 -1.33768,-11.62017c-0.13822,-1.98309 -0.70324,-4.00078 1.2229,-5.59878c0.54385,-0.45119 1.42817,-0.11998 2.14377,-0.11542c2.61525,0.01667 5.1274,0.33236 7.68732,0.77564c8.11238,1.40476 16.15936,2.38234 24.18566,4.26842c3.23752,0.76467 6.53333,1.02054 9.85207,1.31802c1.95049,0.17484 3.76745,-0.26388 4.80061,1.96466c0.617,1.33085 -0.1497,5.29894 -0.29821,6.77529c-0.57268,5.69283 -0.08381,12.74962 -1.68225,18.41815c0.11844,0.04545 0.23683,0.09165 0.35527,0.13864l1.27718,0.88228c0,0 1.0296,0.75276 0.24974,1.75073z" data-paper-data="{&quot;index&quot;:null}" fill="#000000" stroke="none" stroke-width="0.5" stroke-linecap="butt"/><path d="M283.6546,144.78498c-0.23311,-0.71483 0.50597,-0.94189 0.50597,-0.94189l0.58692,-0.16684c0.97636,-0.48721 1.99756,-0.78242 3.04494,-0.88476c0.07905,-0.02684 0.15842,-0.0534 0.23817,-0.07968c0.02124,-0.00784 0.04267,-0.01576 0.06428,-0.02378l0.03136,-0.01296l-0.02704,-0.09261l0.78126,-0.21506c0.07594,-0.02274 0.1568,-0.03449 0.24053,-0.03334c0.42795,0.00587 0.76925,0.34641 0.76231,0.76059c-0.00515,0.3067 -0.19977,0.56777 -0.47421,0.68025c-0.14789,0.12513 -0.30855,0.17449 -0.30855,0.17449c-0.17069,0.05237 -0.33926,0.10535 -0.50619,0.1594c-0.70181,0.27582 -1.28556,0.69122 -1.87418,0.69651c-0.13091,0.05632 -0.26186,0.11455 -0.39313,0.17495l-0.67245,0.49076c-0.13386,0.09966 -0.30206,0.15797 -0.48388,0.15547c-0.26503,-0.00363 -0.49683,-0.13562 -0.63325,-0.33396c-0.20381,0.03431 -0.69963,0.05435 -0.88286,-0.50751z" data-paper-data="{&quot;index&quot;:null}" fill="#582700" stroke="none" stroke-width="0.5" stroke-linecap="butt"/><g data-paper-data="{&quot;index&quot;:null}" stroke="#000000" stroke-width="1.25" stroke-linecap="butt"><path d="M300.76374,168.64879c-7.38059,0.95735 -5.94774,-6.14374 -5.94774,-6.14374l10.3868,-1.26141c0,0 2.5321,6.50092 -4.43905,7.40516z" fill="#000000"/><path d="M301.41729,166.547c1.70562,-0.7016 3.91679,-0.86124 3.8039,-0.61535c-0.58108,1.2656 -1.85918,2.3801 -4.45744,2.71713c-0.86694,0.11244 -1.61226,0.11371 -2.25262,0.02836c-0.30989,-0.0413 1.04874,-1.3661 2.90613,-2.13013z" fill="#ff8484"/><path d="M305.56676,163.49375c0.00415,0.03038 -9.28831,1.19325 -9.28831,1.19325l-0.20413,-2.33478l9.12848,-1.10857c0,0 0.23855,1.32805 0.36399,2.25009z" fill="#ffffff"/></g><g data-paper-data="{&quot;index&quot;:null}"><g data-paper-data="{&quot;index&quot;:null}"><path d="M281.06628,178.73659c2.39379,0.7709 7.58774,-1.65535 6.84353,0.49767c-0.4958,1.43433 -12.28101,19.75833 -14.19575,20.42462c-0.95938,0.33384 -2.31785,0.31199 -3.11692,0.05468c-1.17444,-0.37821 -1.93753,-1.29153 -2.29243,-2.46453c-0.36843,-1.21783 6.15451,-21.37902 6.53359,-22.47569c0.74424,-2.153 3.83423,3.19236 6.22801,3.96326z" fill="#0091d4" stroke="#000000" stroke-width="1.5" stroke-linecap="butt"/><g stroke-linecap="butt"><path d="M283.50634,171.60752c4.33698,1.39668 7.07566,4.77714 6.11701,7.55045c-0.95865,2.77332 -5.25162,3.88929 -9.58861,2.49262c-4.33698,-1.3967 -7.07564,-4.77716 -6.11699,-7.55047c0.95863,-2.77331 5.2516,-3.88929 9.58858,-2.49261z" fill="#0091d4" stroke="#000000" stroke-width="1.5"/><path d="M285.20719,179.12905l4.06017,-0.39087c0,0 -1.30781,1.54116 -2.06767,1.938c-1.60551,0.80905 -3.36119,0.65219 -3.36119,0.65219z" fill="#00aeff" stroke="none" stroke-width="0"/><path d="M281.47952,178.79988l1.6787,0.21709c0,0 -0.22672,1.00859 -0.3678,1.34338c-0.16521,0.39201 -0.67878,1.01428 -0.67878,1.01428l-1.91289,-0.56088z" fill="#00aeff" stroke="none" stroke-width="0"/></g><g><path d="M281.27265,177.7192c-5.98294,-1.92676 -8.12121,-6.40544 -6.11831,-12.1997c2.00291,-5.79421 8.7833,-8.8307 14.7663,-6.90394c5.98295,1.92675 8.80152,7.3945 6.79862,13.18876c-2.00291,5.79421 -9.4636,7.84165 -15.4466,5.91489z" fill="#00699a" stroke="#000000" stroke-width="1.5" stroke-linecap="butt"/><path d="M291.66988,160.07814c0,0 6.97498,4.86185 5.22259,9.93136c-0.99369,2.87477 -3.46882,5.38897 -6.02596,6.98913c-1.82184,1.14004 -4.16915,1.61399 -6.28399,0.93292c-4.34703,-1.39993 -5.2449,-3.77249 -3.49251,-8.842c0.87512,-2.53165 3.48048,-5.14819 6.06164,-6.62756c2.58744,-1.48298 4.51822,-2.38388 4.51822,-2.38388z" fill="#0091d4" stroke="none" stroke-width="0" stroke-linecap="butt"/><path d="M296.36359,171.76037c0,0 -4.32748,3.02436 -11.33032,1.03463c-7.06019,-2.00601 -9.01183,-6.56246 -9.01183,-6.56246" fill="none" stroke="#000000" stroke-width="0.8" stroke-linecap="round"/><path d="M293.52453,175.96203c0,0 -4.82397,0.91344 -9.43037,0.14223c-6.63844,-1.11142 -8.41752,-3.90756 -8.41752,-3.90756" fill="none" stroke="#000000" stroke-width="0.75" stroke-linecap="round"/><path d="M296.96447,166.9658c0,0 -4.31,2.36827 -11.43638,0.75896c-6.8543,-1.54787 -8.17544,-4.19705 -8.17544,-4.19705" fill="none" stroke="#000000" stroke-width="0.8" stroke-linecap="round"/><path d="M277.86956,162.22335c0,0 4.89547,-0.94129 8.54611,-0.71571c4.80846,0.29709 9.36476,1.81542 9.36476,1.81542" fill="none" stroke="#000000" stroke-width="0.8" stroke-linecap="round"/><path d="M279.2379,176.22129c0,0 -1.30728,-3.99545 0.54858,-10.18316c1.73186,-5.7742 5.51827,-7.36767 5.51827,-7.36767" fill="none" stroke="#000000" stroke-width="0.8" stroke-linecap="round"/><path d="M287.60269,159.09071c0,0 -1.19848,2.82998 -2.00065,6.07878c-0.70542,2.85704 -0.99215,6.0596 -1.43964,7.64689c-0.53151,1.88526 -1.81562,4.91769 -1.81562,4.91769" fill="none" stroke="#000000" stroke-width="0.8" stroke-linecap="round"/><path d="M290.51493,159.45304c0,0 1.54576,5.4889 0.28664,9.50319c-1.97623,6.30056 -5.68176,9.54296 -5.68176,9.54296" fill="none" stroke="#000000" stroke-width="0.8" stroke-linecap="round"/><path d="M293.80205,161.02327c0,0 1.31769,3.95454 0.63049,8.1093c-0.98962,5.98297 -3.54561,8.538 -3.54561,8.538" fill="none" stroke="#000000" stroke-width="0.8" stroke-linecap="round"/><path d="M295.31575,170.01598c-0.42658,-0.13738 -0.63885,-0.63523 -0.47407,-1.11192c0.16478,-0.47672 0.6442,-0.75178 1.07081,-0.61439c0.42661,0.1374 0.63886,0.63523 0.47408,1.11192c-0.16477,0.47674 -0.64418,0.75181 -1.07079,0.61442z" fill="#00aeff" stroke="none" stroke-width="0" stroke-linecap="butt"/><path d="M295.27168,165.94103c0.08239,-0.23834 0.3487,-0.36732 0.59482,-0.28806c0.24612,0.07927 0.37885,0.33674 0.29645,0.57509c-0.0824,0.23835 -0.3487,0.36732 -0.59482,0.28806c-0.24612,-0.07926 -0.37885,-0.33674 -0.29645,-0.57509z" fill="#00aeff" stroke="none" stroke-width="0" stroke-linecap="butt"/></g></g><path d="M283.42914,181.91237c0.94914,-0.20585 2.88822,0.84909 2.88822,0.84909l4.86806,2.30009c0,0 0.75311,1.11668 0.59727,1.85029c-0.4675,2.20081 -1.9916,6.2003 -3.34138,10.45851c-0.22436,0.70779 -1.32157,0.51727 -1.32157,0.51727c0,0 -1.64936,-0.56656 -2.70504,-0.92921c-1.60769,-0.55225 -4.11951,-1.41509 -4.11951,-1.41509c0,0 -1.33178,-0.28741 -0.8923,-1.57481c0,0 -0.04452,-1.99146 4.0262,-12.05616z" fill="#582700" stroke="#000000" stroke-width="3" stroke-linecap="round"/><path d="M270.58293,178.93357c1.72646,-0.48664 5.1695,1.5554 5.1695,1.5554l8.66363,4.40967c0,0 1.29699,2.24792 0.97372,3.76791c-0.9698,4.55999 -3.95082,12.89156 -6.63162,21.74387c-0.4456,1.47141 -2.41692,1.15225 -2.41692,1.15225c0,0 -2.94746,-1.05632 -4.83398,-1.73242c-2.87296,-1.02966 -7.36167,-2.63831 -7.36167,-2.63831c0,0 -2.38964,-0.50293 -1.52242,-3.18136c0,0 0.03292,-4.09513 7.95975,-25.07701z" fill="#582700" stroke="#000000" stroke-width="3" stroke-linecap="round"/></g><g data-paper-data="{&quot;index&quot;:null}"><path d="M314.48722,172.56214c0,0 26.22835,2.85214 35.95556,12.93724c2.93125,3.03911 2.65089,16.12102 2.36844,17.17836c-1.21978,4.5661 -27.36888,12.89524 -27.36888,12.89524c0,0 -11.57226,4.26988 -16.88483,4.24485c-8.94629,-16.77329 -6.94338,-27.74211 -6.94338,-27.74211c-0.66321,-2.17534 7.65954,-3.18615 7.65954,-3.18615l23.88512,-4.09235l-3.59764,0.68211c0,0 -21.27798,3.73364 -20.16412,1.47402c1.02483,-2.07906 2.37352,-16.24304 5.09019,-14.3912z" fill="#582700" stroke="#000000" stroke-width="2.5" stroke-linecap="round"/><path d="M327.95871,186.45676c0.57665,1.65624 0.95687,3.42744 1.16954,5.11342c1.12939,4.61826 2.28812,9.69042 2.84834,14.43038c0.15982,1.35217 0.35563,2.68467 0.55798,4.03225c0.06813,0.45376 0.01975,1.5617 -0.00256,1.94447c1.30075,-0.82924 3.21492,-1.24794 4.31683,-2.29295c0.1296,-0.12289 0.17392,-0.42351 0.16965,-0.80376c-0.36126,-1.20727 -0.56012,-2.49433 -0.7155,-3.08916c-2.22534,-6.5979 -2.9873,-13.46416 -4.84059,-20.12702c-0.62184,-0.03259 -1.86377,0.3973 -1.97631,0.42466c-0.50993,0.12399 -1.01822,0.24935 -1.52737,0.3677zM326.43897,186.7799c-0.58145,0.10889 -1.16721,0.19808 -1.76093,0.25531c0,0 -0.36916,0.03521 -0.62183,-0.19024c-3.31825,0.71721 -6.72905,1.19758 -9.85724,1.48974c-1.38319,0.31921 -3.2278,0.89426 -4.16843,-0.53062c-0.67684,-1.02531 -0.26705,-3.28017 -0.02743,-4.38318c0.76869,-3.53846 1.62533,-7.08257 2.47438,-10.58803c1.65162,-1.62867 3.39239,-0.39952 5.41226,0.18177c4.40097,1.26653 8.82955,2.40463 13.23028,3.67727c3.23638,0.48555 5.99572,1.81587 9.09356,2.64332c4.29046,1.14601 7.67014,2.16463 10.93765,5.24028c2.5452,5.31912 3.51869,14.39979 -0.2769,19.41987c-1.40344,3.63985 -5.69389,4.77247 -9.03563,6.21597c-0.56012,0.24197 -2.43625,1.43013 -2.98092,1.32006c-0.38694,-0.07819 -0.71259,-0.34726 -0.98857,-0.73163c-1.21404,1.14273 -3.30372,1.67884 -4.69895,2.54524c-2.66017,0.24888 -2.25295,-3.19849 -2.5531,-5.40338c-0.72844,-5.35125 -1.71215,-10.88826 -3.0144,-16.10581c-0.20952,-1.66096 -0.57958,-3.42749 -1.16378,-5.05595zM338.26759,207.03295c0.00188,0.02041 0.00395,0.04116 0.00618,0.06227c0.38095,1.34443 0.85355,2.9803 0.88848,2.9654c3.29301,-1.40488 8.92454,-3.2491 10.35077,-6.78248c3.50547,-4.6364 2.53996,-12.86743 0.37144,-17.83827c-3.03464,-2.74014 -6.15601,-3.60038 -10.07744,-4.65716c-3.08095,-0.83028 -5.80885,-2.14119 -9.02752,-2.62744c-4.43782,-1.268 -8.89458,-2.42956 -13.32872,-3.70203c-0.61322,-0.17597 -3.43669,-1.30288 -3.58692,-0.94957c-0.63579,3.66477 -2.0105,7.22274 -2.49664,10.91099c-0.03992,0.30293 -0.23661,2.82162 0.19882,2.84847c0.70796,0.04367 1.68194,-0.24675 2.37618,-0.4077c6.26218,-0.60834 12.38899,-3.49832 18.57672,-3.68551c0.50037,0.5777 0.94227,1.24723 1.13214,1.9783l0.32708,0.70098c0,0 0.05228,0.11327 0.06668,0.26824c1.46596,2.59139 1.53856,6.81132 1.77801,9.16441c0.48894,3.98345 2.07258,7.7001 2.44472,11.7511z" fill="#000000" stroke="none" stroke-width="0.5" stroke-linecap="butt"/><path d="M329.10742,191.52442c-0.21267,-1.68599 -0.58913,-3.45863 -1.16577,-5.11487c0.50915,-0.11835 1.02321,-0.24532 1.53314,-0.36931c0.11253,-0.02736 1.36208,-0.45833 1.98392,-0.42573c1.85328,6.66286 2.64341,13.62304 4.86876,20.22093c0.15538,0.59482 0.35062,1.88359 0.71189,3.09086c0.00427,0.38026 -0.04201,0.68166 -0.17159,0.80456c-1.10193,1.04501 -3.03464,1.46718 -4.33541,2.29642c0.02231,-0.38277 0.07077,-1.4907 0.00263,-1.94446c-0.20236,-1.34758 -0.40181,-2.68015 -0.56164,-4.03235c-0.56022,-4.73996 -1.73655,-9.90777 -2.86594,-14.52604z" data-paper-data="{&quot;noHover&quot;:false,&quot;origItem&quot;:[&quot;Path&quot;,{&quot;applyMatrix&quot;:true,&quot;segments&quot;:[[[926.17844,407.1979],[3.2606,1.25965],[-0.27949,0.97418]],[[925.31465,410.11917],[0.29084,-0.97519],[-0.06418,0.21521]],[[924.29914,413.90358],[-0.01258,-1.20526],[13.15638,4.16543]],[[964.1057,425.02121],[-12.99513,-4.87922],[1.17537,0.35239]],[[970.21765,426.67451],[-2.3817,-0.804],[0.75941,0.04146]],[[971.83798,426.41666],[-0.25651,0.23985],[2.18115,-2.03947]],[[976.78433,418.26967],[-1.76682,2.44279],[-0.76669,0.00973]],[[972.89889,418.10481],[0.90089,0.17138],[-2.67549,-0.50896]],[[964.88923,416.67374],[2.68829,0.42712],[-9.42353,-1.49721]],[[936.29671,409.90591],[9.13228,2.58714],[-3.35077,-0.55846]]],&quot;closed&quot;:true}]}" fill="#ffffff" stroke="none" stroke-width="0.5" stroke-linecap="butt"/><path d="M337.77068,205.32926c-2.0362,-6.05342 -2.85763,-12.23617 -4.40258,-18.37873c0.06306,-0.01243 0.16656,-0.12663 0.23741,-0.15725c0.70766,-0.30579 0.35375,-0.89758 0.35375,-0.89758l-0.3233,-0.6997c-0.18987,-0.73108 -0.62243,-1.39871 -1.12279,-1.97643c-6.18771,0.18718 -12.25928,3.04185 -18.52146,3.65019c-0.69425,0.16096 -1.76791,0.42518 -2.47588,0.38152c-0.43542,-0.02685 -0.23672,-2.55177 -0.19679,-2.8547c0.48613,-3.68824 1.87395,-7.26487 2.50974,-10.92964c0.15022,-0.35331 2.97709,0.77081 3.59032,0.9468c4.43413,1.27248 8.92,2.42359 13.35781,3.69159c3.21866,0.48624 5.97935,1.80651 9.06031,2.63679c3.92143,1.05678 7.06113,1.94042 10.09578,4.68056c2.16852,4.97083 3.12884,13.24629 -0.37664,17.88269c-1.42623,3.53337 -7.08149,5.39663 -10.37452,6.80151c-0.05774,0.02465 -1.35357,-4.55744 -1.41116,-4.77759z" data-paper-data="{&quot;noHover&quot;:false,&quot;origItem&quot;:[&quot;Path&quot;,{&quot;applyMatrix&quot;:true,&quot;segments&quot;:[[[926.61254,417.73069],[12.14285,3.5238],[-0.03018,0.12086]],[[926.46822,418.11346],[0.06716,-0.13431],[-0.67082,1.34164]],[924.45576,418.78428],[[923.08279,418.0906],[0,0],[-1.44471,-0.43097]],[[919.22563,415.72869],[1.11205,1.01797],[0.89694,-11.9485]],[[928.15956,380.1298],[-1.74473,12.05571],[0.38029,-1.32836]],[[929.175,375.57071],[0.02742,1.37277],[-0.01686,-0.84429]],[[923.5003,374.93752],[0.60865,-0.05075],[-7.41054,0.61792]],[[901.48814,378.8123],[7.37628,-0.90935],[-0.71866,0.25961]],[[903.08234,385.83106],[-0.2998,-1.20115],[2.16779,8.68513]],[[909.35292,411.92731],[-2.15853,-8.69186],[0.69956,6.26621]],[[913.83986,429.61277],[-1.39861,-6.02998],[1.78014,7.67491]],[[922.29365,449.50563],[-5.21858,-6.1072],[9.74892,4.62723]],[[957.96755,450.34516],[-9.56021,6.37347],[7.18055,-2.44927]],[[972.39433,430.92276],[-3.08539,6.24485],[0.05411,-0.10951]],[[963.14745,427.86406],[0.43501,0.13058],[-11.92317,-4.46591]]],&quot;closed&quot;:true}]}" fill="#66c8ff" stroke="none" stroke-width="0.5" stroke-linecap="butt"/></g><path d="M151.96363,348.03637v-336.07274h336.07274v336.07274z" data-paper-data="{&quot;index&quot;:null}" fill="none" stroke="#000000" stroke-width="0" stroke-linecap="butt"/></g></g></svg>