<svg version="1.1" xmlns="http://www.w3.org/2000/svg" xmlns:xlink="http://www.w3.org/1999/xlink" width="202.22227" height="202.22228" viewBox="0,0,202.22227,202.22228"><g transform="translate(-136.94442,-75.55554)"><g data-paper-data="{&quot;isPaintingLayer&quot;:true}" fill-rule="nonzero" stroke-linejoin="miter" stroke-miterlimit="10" stroke-dasharray="" stroke-dashoffset="0" style="mix-blend-mode: normal"><path d="M265.25432,184.66074l1.35622,18.10949c0,0 -1.28931,1.197 -2.32744,1.33726c-1.03814,0.14026 -2.00214,-0.75234 -2.00214,-0.75234l-4.56226,-17.32867" data-paper-data="{&quot;index&quot;:null}" fill="#414b67" stroke="#000000" stroke-width="2" stroke-linecap="round"/><path d="M259.37485,201.59308l-12.60633,-3.53973l-5.15771,-17.54722l2.38339,-4.55989l5.05647,0.79163l8.78826,8.66839l11.96381,-3.91448l2.33757,13.27039z" data-paper-data="{&quot;index&quot;:null}" fill="#ef8b89" stroke="#000000" stroke-width="2" stroke-linecap="round"/><path d="M240.6978,180.85874l3.20349,-4.70972l5.63028,-0.48877l9.63128,8.54137l-5.18553,6.62187l-12.01572,1.61737z" data-paper-data="{&quot;index&quot;:null}" fill="#133c8f" stroke="#000000" stroke-width="2" stroke-linecap="butt"/><g data-paper-data="{&quot;index&quot;:null}" stroke="#000000"><g data-paper-data="{&quot;index&quot;:null}"><path d="M261.23997,226.90828l-17.17097,2.8958l-6.4954,-2.52887l-1.22682,-32.96231l7.84122,-2.41843l7.63525,2.79768z" data-paper-data="{&quot;index&quot;:null}" fill="#73fffc" stroke-width="2" stroke-linecap="butt"/><path d="M243.2254,228.31752l-3.16475,-24.91141l4.06838,25.42851z" fill="#59a9e6" stroke-width="0" stroke-linecap="round"/></g><g><path d="M238.14141,231.19833l-17.35616,3.17956l-6.29803,-4.02268l10.67711,-32.61603l6.13144,-2.28295l9.50278,2.35277z" data-paper-data="{&quot;index&quot;:null}" fill="#73fffc" stroke-width="2" stroke-linecap="butt"/><path d="M220.37287,232.90222l4.31034,-25.98345l-3.44071,26.6709z" fill="#59a9e6" stroke-width="0" stroke-linecap="round"/></g><path d="M246.35977,176.52456l7.20652,19.92238l-25.5156,3.46816l-4.59812,-2.97089l5.80711,-19.73182z" fill="#1a54c9" stroke-width="2" stroke-linecap="round"/></g><g data-paper-data="{&quot;index&quot;:null}" stroke="#000000"><path d="M225.35851,210.34531l-14.74428,-0.75852l-7.19897,-7.49083l18.944,-24.41702l5.45918,0.14924l3.35979,4.35986z" data-paper-data="{&quot;index&quot;:null}" fill="#faddbf" stroke-width="2" stroke-linecap="butt"/><path d="M210.41565,207.79336l10.5898,-20.46219l-9.99007,21.38181z" fill="#ef8b89" stroke-width="0" stroke-linecap="round"/></g><path d="M210.59605,155.47633c-0.34316,-11.8086 3.45334,-22.24023 24.96783,-22.72828c31.17531,-0.70721 25.00339,27.43637 25.00339,27.43637c0,0 3.47285,1.24521 2.45213,5.01769c-1.25027,4.62085 -12.94015,10.52623 -26.19529,10.91143c-14.14219,0.41097 -25.88489,-8.82863 -26.22805,-20.63722z" data-paper-data="{&quot;index&quot;:null}" fill="#faddbf" stroke="#000000" stroke-width="2" stroke-linecap="butt"/><g data-paper-data="{&quot;index&quot;:null}" stroke="#000000" stroke-linecap="butt"><path d="M252.59245,180.40804c-0.81002,-4.27342 1.9384,-8.38314 6.13876,-9.17932c4.20037,-0.79617 8.26211,2.02267 9.07213,6.29609c0.44459,2.34562 -0.18288,4.64191 -1.53405,6.36801c-1.11052,1.41866 -7.30179,2.94868 -8.52394,2.52508c-2.56438,-0.88877 -4.60434,-3.11574 -5.15292,-6.00985z" fill="#414b67" stroke-width="2"/><path d="M263.07335,174.70339c-0.73864,-0.51659 -1.12031,-1.24583 -0.85246,-1.62884c0.26785,-0.38301 1.08379,-0.27476 1.82244,0.24183c0.73864,0.51658 1.12031,1.24582 0.85246,1.62883c-0.26786,0.38299 -1.08379,0.27475 -1.82244,-0.24184z" fill="#7082b2" stroke-width="0"/></g><path d="M230.48788,192.00919l-12.07157,-1.12742l-5.45052,-6.40553l9.27599,-8.92595l5.6455,0.25941l3.39236,4.57556z" data-paper-data="{&quot;index&quot;:null}" fill="#1a54c9" stroke="#000000" stroke-width="2" stroke-linecap="butt"/><g data-paper-data="{&quot;index&quot;:null}" stroke="#000000" stroke-linecap="butt"><path d="M259.54781,152.98934c0,3.38945 0.03992,4.43555 -0.12105,3.89562c-0.16422,-0.55083 0.32056,-2.73648 -2.26166,-4.14646c-0.62573,-0.34167 -2.97596,1.82998 -3.77128,1.47188c-0.49955,-0.22493 -2.52282,-2.967 -3.08081,-3.16412c-0.39014,-0.13782 -3.63023,2.44275 -4.03831,2.31135c-1.01777,-0.32772 -3.49563,-3.31633 -4.58942,-3.50819c-0.60231,-0.10565 -2.7067,3.45519 -3.32165,3.38117c-0.79306,-0.09546 -2.93583,-3.51894 -3.734,-3.51894c-2.12267,0 -2.18097,2.04422 -3.70822,3.79553c-0.99244,1.13804 -4.07877,-3.8057 -4.98962,-2.51247c-1.13117,1.60603 -2.25099,3.15425 -3.4876,4.20384c-0.97017,0.82344 -3.89675,-2.94407 -4.73534,-2.18077c-4.04892,3.68541 -6.62589,6.27399 -6.62589,0.97541c0,-10.65446 12.76781,-2.64956 24.95092,-8.92491c11.66155,-6.00671 23.38894,-2.73339 23.38894,7.92107z" data-paper-data="{&quot;index&quot;:null}" fill="#ef8b89" stroke-width="0"/><path d="M260.87005,150.56603c0,6.84732 1.90453,2.54123 -3.34351,-0.25084c-0.64221,-0.34167 -3.05435,1.82998 -3.87062,1.47188c-0.51272,-0.22493 -2.58927,-2.967 -3.16196,-3.16412c-0.40042,-0.13782 -3.72585,2.44275 -4.14468,2.31135c-1.04458,-0.32773 -3.58771,-3.31633 -4.71031,-3.50819c-0.61818,-0.10566 -2.77799,3.45518 -3.40914,3.38116c-0.81395,-0.09545 -3.01316,-3.51893 -3.83236,-3.51893c-2.17858,0 -2.23842,2.04422 -3.8059,3.79553c-1.01859,1.13804 -4.18621,-3.8057 -5.12105,-2.51247c-1.16096,1.60603 -2.31028,3.15425 -3.57946,4.20384c-0.99572,0.82344 -3.99939,-2.94407 -4.86007,-2.18077c-4.15558,3.68541 -6.65067,6.01934 -6.65067,0.72076c0,-10.65446 11.62324,-23.69308 25.01468,-23.69308c13.39144,0 25.47507,12.28943 25.47507,22.94389z" data-paper-data="{&quot;index&quot;:null}" fill="#724e36" stroke-width="2"/><path d="M257.45432,149.97615c-0.64221,-0.34167 -3.05435,1.82998 -3.87062,1.47188c-0.51271,-0.22493 -2.58927,-2.967 -3.16196,-3.16412c-0.40041,-0.13782 -3.72585,2.44275 -4.14468,2.31135c-1.04459,-0.32773 -3.58771,-3.31633 -4.71031,-3.50819c-0.61818,-0.10566 -2.778,3.45518 -3.40915,3.38116c-0.81395,-0.09546 -3.01316,-3.51894 -3.83236,-3.51894c-2.17859,0 -2.23842,2.04422 -3.8059,3.79553c-1.01859,1.13804 -4.18621,-3.8057 -5.12105,-2.51247c-1.16097,1.60603 -2.31029,3.15425 -3.57947,4.20384c-0.99572,0.82344 -3.99939,-2.94407 -4.86007,-2.18077c-4.15558,3.68541 -6.65067,6.01934 -6.65067,0.72076c0,-10.65446 12.95437,-2.39491 25.45839,-8.67026c11.96872,-6.00671 25.03136,-2.73339 25.03136,7.92107c0,6.84732 1.90453,2.54123 -3.34351,-0.25084z" data-paper-data="{&quot;index&quot;:null}" fill="#623728" stroke-width="0"/></g><g data-paper-data="{&quot;index&quot;:null}" stroke="none" stroke-width="0.5" stroke-linecap="butt"><path d="M226.81853,174.7644c-3.67979,-1.62831 -1.99424,-10.27373 -1.99424,-10.27373c0,0 -2.0783,0.38284 -1.97277,-0.61159c0.10553,-0.99443 4.4625,-0.09024 4.4625,-0.09024c0,0 -1.32153,1.09126 -0.53231,2.1337c4.84528,6.39991 15.04943,5.04819 15.10881,6.04642c0.0594,0.99824 -7.99565,-0.36169 -7.99565,-0.36169c0,0 -4.17762,4.43982 -7.07634,3.15713zM225.60438,165.34518c0,0 -1.3203,6.9478 1.19966,8.70737c2.51995,1.75957 5.48108,-2.09705 6.10718,-2.80563c-1.08625,-0.41635 -3.38182,-1.42138 -4.69009,-2.47806c-1.30827,-1.05669 -2.61676,-3.42369 -2.61676,-3.42369z" fill="#000000"/><path d="M226.52578,173.83134c-2.51996,-1.75958 -0.94406,-8.53073 -0.94406,-8.53073c0,0 1.326,2.36184 2.63427,3.41852c1.30827,1.05668 3.65884,2.11493 4.7451,2.53127c-0.6261,0.70859 -3.49016,4.52214 -6.01012,2.76257z" data-paper-data="{&quot;noHover&quot;:false,&quot;origItem&quot;:[&quot;Path&quot;,{&quot;applyMatrix&quot;:true,&quot;segments&quot;:[[489.75881,336.88645],[[483.06683,342.31726],[3.03881,-1.4416],[-3.03881,1.4416]],[[472.78663,344.93799],[2.30712,-0.30058],[0.88535,1.67108]],[[485.72188,358.51254],[-5.72409,2.24054],[5.72409,-2.24054]]],&quot;closed&quot;:true,&quot;fillColor&quot;:[0,0,0,1]}]}" fill="#852368"/></g><path d="M249.8459,169.15785c-1.91937,-0.60185 -1.39865,-2.83241 -1.22917,-6.71842c0.16948,-3.88601 0.21347,-9.11102 1.90642,-8.81015c1.69295,0.30087 1.91053,3.91117 1.75053,7.57969c-0.15999,3.66852 -0.9377,8.41611 -2.42777,7.94888z" data-paper-data="{&quot;index&quot;:null}" fill="#000000" stroke="none" stroke-width="0.5" stroke-linecap="butt"/><path d="M240.87642,169.30784c-2.90524,-0.60185 -2.11705,-2.83241 -1.86052,-6.71842c0.25653,-3.88601 0.32312,-9.11102 2.88564,-8.81015c2.56252,0.30087 2.89186,3.91117 2.64968,7.57969c-0.24217,3.66852 -1.41935,8.41611 -3.67478,7.94888z" data-paper-data="{&quot;index&quot;:null}" fill="#000000" stroke="none" stroke-width="0.5" stroke-linecap="butt"/><path d="M136.94445,277.77779v-202.22223h202.22222v202.22222z" data-paper-data="{&quot;index&quot;:null}" fill="none" stroke="#000000" stroke-width="0.00005" stroke-linecap="butt"/></g></g></svg>