<svg version="1.1" xmlns="http://www.w3.org/2000/svg" xmlns:xlink="http://www.w3.org/1999/xlink" width="278.361" height="57.63209" viewBox="0,0,278.361,57.63209"><g transform="translate(-314.09767,-150.50871)"><g data-paper-data="{&quot;isPaintingLayer&quot;:true}" fill-rule="nonzero" stroke="#000000" stroke-linejoin="miter" stroke-miterlimit="10" stroke-dasharray="" stroke-dashoffset="0" style="mix-blend-mode: normal"><text transform="translate(316.27942,191.08926) scale(0.8727,0.8727)" font-size="40" xml:space="preserve" fill="#000000" fill-rule="nonzero" stroke="#000000" stroke-width="5" stroke-linecap="butt" stroke-linejoin="miter" stroke-miterlimit="10" stroke-dasharray="" stroke-dashoffset="0" font-family="&quot;Comic Sans MS&quot;, Sans Serif" font-weight="normal" text-anchor="start" style="mix-blend-mode: normal"><tspan x="0" dy="0">Gerjuanamo</tspan></text><text transform="translate(315.68642,190.89688) scale(0.8727,0.8727)" font-size="40" xml:space="preserve" fill="#ffffff" fill-rule="nonzero" stroke="#000000" stroke-width="0" stroke-linecap="butt" stroke-linejoin="miter" stroke-miterlimit="10" stroke-dasharray="" stroke-dashoffset="0" font-family="&quot;Comic Sans MS&quot;, Sans Serif" font-weight="normal" text-anchor="start" style="mix-blend-mode: normal"><tspan x="0" dy="0">Gerjuanamo</tspan></text><path d="M583.42889,165.59632c2.32693,5.05378 -3.68325,12.78651 -13.42412,17.27154c-9.74087,4.48503 -19.52376,4.02398 -21.8507,-1.02979c-2.32693,-5.05378 5.49998,-9.14477 15.24085,-13.6298c9.74087,-4.48503 17.70703,-7.66573 20.03396,-2.61195z" fill="#fff7ad" stroke-width="2.5" stroke-linecap="butt"/><path d="M586.99984,173.09627c2.32693,5.05378 -3.68325,12.78651 -13.42413,17.27155c-9.74087,4.48503 -19.52376,4.02398 -21.85069,-1.02979c-2.32693,-5.05378 5.49998,-9.14477 15.24085,-13.62981c9.74087,-4.48503 17.70703,-7.66573 20.03397,-2.61195z" fill="#fff7ad" stroke-width="2.5" stroke-linecap="butt"/><path d="M590.70827,180.74284c2.32693,5.05378 -3.68325,12.78651 -13.42413,17.27154c-9.74087,4.48503 -19.52376,4.02398 -21.85069,-1.02979c-2.32693,-5.05378 5.49998,-9.14477 15.24085,-13.62981c9.74087,-4.48503 17.70703,-7.66573 20.03397,-2.61195z" fill="#fff7ad" stroke-width="2.5" stroke-linecap="butt"/><path d="M554.1236,178.6636c-1.39354,5.3864 -10.93949,7.57554 -21.32148,4.88957c-10.38199,-2.68597 -17.66857,-9.22991 -16.27504,-14.61632c1.39354,-5.3864 10.04371,-3.6056 20.4257,-0.91964c10.38199,2.68597 18.56435,5.25998 17.17081,10.64637z" fill="#fff7ad" stroke-width="2.5" stroke-linecap="butt"/><path d="M552.14673,186.73162c-1.39354,5.3864 -10.93949,7.57554 -21.32148,4.88957c-10.38199,-2.68597 -17.66857,-9.22991 -16.27504,-14.61632c1.39354,-5.3864 10.04372,-3.6056 20.42571,-0.91964c10.38199,2.68597 18.56435,5.25998 17.17081,10.64638z" fill="#fff7ad" stroke-width="2.5" stroke-linecap="butt"/><path d="M550.19956,194.93863c-1.39354,5.3864 -10.93949,7.57554 -21.32148,4.88957c-10.38199,-2.68597 -17.66857,-9.22991 -16.27504,-14.61632c1.39354,-5.3864 10.04372,-3.6056 20.42571,-0.91964c10.38199,2.68597 18.56435,5.25998 17.17081,10.64638z" fill="#fff7ad" stroke-width="2.5" stroke-linecap="butt"/><path d="M531.6871,185.1567c0,-12.00341 8.93733,-14.66596 20.94074,-14.66596c12.00341,0 22.52746,2.66255 22.52746,14.66596c0,12.00341 -9.73069,21.7341 -21.7341,21.7341c-12.00341,0 -21.7341,-9.73069 -21.7341,-21.7341z" fill="#fff7ad" stroke-width="2.5" stroke-linecap="butt"/><path d="M551.19538,188.0252c0,-3.29451 2.67073,-5.96525 5.96525,-5.96525c3.29451,0 5.96525,2.67073 5.96525,5.96525c0,3.29451 -2.2021,3.05975 -5.49662,3.05975c-3.29451,0 -6.43388,0.23476 -6.43388,-3.05975z" fill="#000000" stroke-width="1" stroke-linecap="butt"/><path d="M559.54562,188.00138c0,-1.03725 0.84086,-1.87811 1.87811,-1.87811c1.03726,0 1.87811,0.84086 1.87811,1.87811c0,1.03725 -0.84086,1.87811 -1.87811,1.87811c-1.03726,0 -1.87811,-0.84086 -1.87811,-1.87811z" fill="#fff7ad" stroke-width="0.5" stroke-linecap="butt"/><path d="M571.15233,190.6923c-3.29451,0 -6.34015,0.32849 -6.34015,-2.96603c0,-3.29451 2.67073,-5.96525 5.96525,-5.96525c3.29451,0 5.96525,2.67073 5.96525,5.96525c0,3.29451 -2.29583,2.96603 -5.59035,2.96603z" data-paper-data="{&quot;index&quot;:null}" fill="#000000" stroke-width="1" stroke-linecap="butt"/><path d="M575.18846,189.52057c-1.00746,0 -1.82416,-0.81671 -1.82416,-1.82416c0,-1.00746 0.8167,-1.82416 1.82416,-1.82416c1.00746,0 1.82416,0.81671 1.82416,1.82416c0,1.00746 -0.8167,1.82416 -1.82416,1.82416z" data-paper-data="{&quot;index&quot;:null}" fill="#fff7ad" stroke-width="0.5" stroke-linecap="butt"/><path d="M558.28334,195.20187c0,0 -6.86133,1.16567 -7.99901,0.90084c-1.87856,-0.43728 -8.1316,-4.65566 -8.1316,-4.65566" fill="none" stroke-width="1" stroke-linecap="round"/></g></g></svg>