<svg version="1.1" xmlns="http://www.w3.org/2000/svg" xmlns:xlink="http://www.w3.org/1999/xlink" width="283.874" height="327.36304" viewBox="0,0,283.874,327.36304"><g transform="translate(-187.88368,-18.21699)"><g data-paper-data="{&quot;isPaintingLayer&quot;:true}" fill-rule="nonzero" stroke-linecap="butt" stroke-linejoin="miter" stroke-miterlimit="10" stroke-dasharray="" stroke-dashoffset="0" style="mix-blend-mode: normal"><g data-paper-data="{&quot;index&quot;:null}"><path d="M470.37751,114.17325l-98.66777,62.62569l-27.32865,-43.05672l98.66777,-62.62569z" fill="#fac843" stroke="#000000" stroke-width="2"/><g fill="none" stroke="none" stroke-width="1" font-family="sans-serif" font-weight="normal" font-size="12" text-anchor="start"/><path d="M469.68373,115.5501l-52.11059,-11.83137l-73.88583,31.40034l98.66778,-62.62569z" fill="#e47816" stroke="#000000" stroke-width="0"/></g><path d="M263.09927,240.11617v-113.80147h113.80147v113.80147z" data-paper-data="{&quot;index&quot;:null}" fill="#0000c0" stroke="#000000" stroke-width="2"/><g data-paper-data="{&quot;index&quot;:null}" stroke="#000000"><path d="M316.44532,344.06538v-104.55057h61.17899v104.55058z" fill="#00791c" stroke-width="2"/><path d="M317.23266,343.18912v-104.55057l18.42709,57.11662l42.75189,47.43396z" fill="#00393e" stroke-width="0"/></g><g data-paper-data="{&quot;index&quot;:null}" stroke="#000000"><path d="M263.83937,344.58003v-104.55057h61.17899v104.55058z" fill="#00791c" stroke-width="2"/><path d="M264.62675,343.70376v-104.55057l18.42709,57.11662l42.75189,47.43395z" fill="#00393e" stroke-width="0"/></g><g data-paper-data="{&quot;index&quot;:null}"><path d="M229.89007,57.51163l70.70387,93.04982l-40.60516,30.85381l-70.70386,-93.04982z" fill="#fac843" stroke="#000000" stroke-width="2"/><g fill="none" stroke="none" stroke-width="1" font-family="sans-serif" font-weight="normal" font-size="12" text-anchor="start"/><path d="M231.3204,58.08712l-7.40578,52.92116l37.50448,70.98247l-70.70387,-93.04982z" fill="#e47816" stroke="#000000" stroke-width="0"/></g><g data-paper-data="{&quot;index&quot;:null}" stroke="#000000"><path d="M246.31396,84.68774c0,-1.37646 0.88696,-27.38008 0.98912,-28.73546c2.58143,-34.24932 36.46023,-36.73529 78.90464,-36.73529c39.86984,0 74.31045,4.54212 80.31266,35.83276c0.64046,3.33883 -0.4189,26.15173 -0.4189,29.63798c0,12.46114 2.98952,39.84953 -4.38487,49.76492c-14.02387,18.8561 -46.59108,15.70582 -75.50889,15.70582c-30.57536,0 -59.08782,0.98125 -72.51838,-19.6932c-5.95144,-9.1614 -7.37538,-34.67471 -7.37538,-45.77754z" fill="#fac843" stroke-width="2"/><path d="M248.30306,55.96247c1.46665,-19.45883 4.03019,60.72294 51.81693,82.64789c37.44896,17.1819 103.38086,-8.07612 100.416,-4.08965c-14.02387,18.8561 -47.24381,15.81461 -76.16161,15.81461c-19.1252,0 -52.27236,1.45245 -68.67457,-16.9042c-9.81993,-10.99004 -8.71919,-43.40864 -8.71919,-47.56654c0,0 1.22028,-28.54672 1.32244,-29.9021z" fill="#e47816" stroke-width="0"/></g><text transform="translate(330.67886,46.22962) rotate(90.72338) scale(1.84509,1.84509)" font-size="40" xml:space="preserve" fill="#000000" fill-rule="nonzero" stroke="none" stroke-width="1" stroke-linecap="butt" stroke-linejoin="miter" stroke-miterlimit="10" stroke-dasharray="" stroke-dashoffset="0" font-family="Sans Serif" font-weight="normal" text-anchor="start" style="mix-blend-mode: normal"><tspan x="0" dy="0">:D</tspan></text></g></g></svg>