<svg version="1.1" xmlns="http://www.w3.org/2000/svg" xmlns:xlink="http://www.w3.org/1999/xlink" width="202.22227" height="202.22228" viewBox="0,0,202.22227,202.22228"><g transform="translate(-136.94442,-75.55554)"><g data-paper-data="{&quot;isPaintingLayer&quot;:true}" fill-rule="nonzero" stroke-linejoin="miter" stroke-miterlimit="10" stroke-dasharray="" stroke-dashoffset="0" style="mix-blend-mode: normal"><path d="M269.38094,186.62806l3.9617,17.56639c0,0 -1.12651,1.35363 -2.15161,1.63608c-1.02511,0.28245 -2.12365,-0.45813 -2.12365,-0.45813l-7.07766,-16.35324" data-paper-data="{&quot;index&quot;:null}" fill="#414b67" stroke="#000000" stroke-width="2" stroke-linecap="round"/><path d="M265.88885,204.05045l-13.19977,-1.71061l-7.70851,-16.48439l1.74592,-4.80356l5.20445,0.07024l10.09092,7.27213l11.48422,-5.50829l4.25599,12.68482z" data-paper-data="{&quot;index&quot;:null}" fill="#ef8b89" stroke="#000000" stroke-width="2" stroke-linecap="round"/><path d="M244.11189,186.32869l2.55014,-5.06497l5.59861,-1.26527l10.92148,7.02989l-4.27157,7.21647l-11.86581,3.26329z" data-paper-data="{&quot;index&quot;:null}" fill="#133c8f" stroke="#000000" stroke-width="2" stroke-linecap="butt"/><g data-paper-data="{&quot;index&quot;:null}" stroke="#000000"><path d="M262.30077,227.12764l-18.45847,2.81816l-6.98243,-2.46106l-1.3188,-32.07852l8.42916,-2.35359l8.4654,2.72267z" data-paper-data="{&quot;index&quot;:null}" fill="#73fffc" stroke-width="2" stroke-linecap="butt"/><path d="M242.93548,228.49909l-3.40205,-24.24348l4.37343,24.74672z" fill="#59a9e6" stroke-width="0" stroke-linecap="round"/></g><g data-paper-data="{&quot;index&quot;:null}" stroke="#000000"><path d="M237.47026,231.30267l-18.65755,3.09431l-6.77026,-3.91483l9.38384,-32.25849l8.68504,-1.70476l8.30062,3.11081z" data-paper-data="{&quot;index&quot;:null}" fill="#73fffc" stroke-width="2" stroke-linecap="butt"/><path d="M217.98872,232.78856l4.63353,-25.28678l-3.6987,25.95579z" fill="#59a9e6" stroke-width="0" stroke-linecap="round"/></g><path d="M245.62192,178.25702l7.5789,19.71261l-26.57789,2.88858l-4.9429,-2.89123l3.76799,-19.20277z" data-paper-data="{&quot;index&quot;:null}" fill="#1a54c9" stroke="#000000" stroke-width="2" stroke-linecap="round"/><path d="M214.18604,156.37911c1.52189,-11.6054 6.9849,-21.22644 28.67583,-18.39203c31.43099,4.10715 20.78179,30.69045 20.78179,30.69045c0,0 3.29205,1.75281 1.67028,5.28637c-1.98648,4.3282 -14.66382,8.30604 -28.04101,6.64243c-14.27242,-1.77494 -24.60876,-12.62185 -23.08687,-24.22724z" data-paper-data="{&quot;index&quot;:null}" fill="#faddbf" stroke="#000000" stroke-width="2" stroke-linecap="butt"/><g data-paper-data="{&quot;index&quot;:null}" stroke="#000000" stroke-linecap="butt"><path d="M264.40442,159.82749c-0.43665,3.32971 -0.53114,4.36239 -0.62397,3.81178c-0.0947,-0.56172 0.6759,-2.64803 -1.74736,-4.35712c-0.58721,-0.41415 -3.23785,1.42438 -3.99402,0.97282c-0.47497,-0.28364 -2.16276,-3.23121 -2.70025,-3.49486c-0.37581,-0.18434 -3.9768,1.94428 -4.37154,1.764c-0.9845,-0.44963 -3.09911,-3.69643 -4.17779,-4.02213c-0.59398,-0.17935 -3.17558,3.05473 -3.7864,2.90487c-0.78773,-0.19326 -2.50829,-3.82524 -3.31347,-3.92537c-2.14131,-0.2663 -2.46348,1.73458 -4.22975,3.26343c-1.14777,0.99348 -3.62433,-4.25033 -4.70978,-3.09416c-1.348,1.43581 -2.67711,2.81626 -4.0598,3.69222c-1.08477,0.68722 -3.5517,-3.38104 -4.49599,-2.7364c-4.55925,3.11251 -7.49233,5.33218 -6.80974,0.12697c1.37258,-10.4667 13.22129,-1.00109 26.31983,-5.63744c12.53779,-4.43787 23.9465,0.24901 22.57393,10.71571z" data-paper-data="{&quot;index&quot;:null}" fill="#ef8b89" stroke-width="0"/><path d="M266.05045,157.61275c-0.88211,6.72665 1.59389,2.73538 -3.34056,-0.66588c-0.60384,-0.41621 -3.31693,1.41456 -4.09423,0.96036c-0.48825,-0.28529 -2.22978,-3.23955 -2.78211,-3.50504c-0.38617,-0.18562 -4.07326,1.93228 -4.47884,1.75065c-1.01153,-0.453 -3.19199,-3.70798 -4.29973,-4.03729c-0.61001,-0.18134 -3.24751,3.04578 -3.87467,2.89389c-0.80882,-0.19588 -2.58631,-3.83493 -3.4127,-3.9377c-2.19772,-0.27331 -2.52143,1.72738 -4.32829,3.25118c-1.17415,0.99019 -3.73271,-4.26381 -4.84236,-3.11065c-1.37805,1.43208 -2.73692,2.80883 -4.15246,3.6807c-1.11055,0.68402 -3.65525,-3.39392 -4.62182,-2.75205c-4.66686,3.09913 -7.48453,5.07892 -6.80194,-0.12629c1.37257,-10.4667 14.77761,-21.81737 28.28667,-20.13736c13.50905,1.68001 24.11562,15.26881 22.74305,25.73551z" data-paper-data="{&quot;index&quot;:null}" fill="#724e36" stroke-width="2"/><path d="M266.02128,157.27063c-0.88211,6.72665 1.59389,2.73538 -3.34056,-0.66588c-0.60384,-0.41621 -3.31693,1.41456 -4.09423,0.96036c-0.48824,-0.28529 -2.22978,-3.23955 -2.78211,-3.50504c-0.38616,-0.18562 -4.07326,1.93228 -4.47884,1.75065c-1.01154,-0.453 -3.19199,-3.70798 -4.29973,-4.03729c-0.61001,-0.18134 -3.24752,3.04578 -3.87468,2.89389c-0.80881,-0.19589 -2.5863,-3.83494 -3.41269,-3.93771c-2.19773,-0.27331 -2.52143,1.72738 -4.32829,3.25118c-1.17415,0.99019 -3.73271,-4.26381 -4.84236,-3.11065c-1.37806,1.43208 -2.73693,2.80883 -4.15247,3.6807c-1.11055,0.68402 -3.65525,-3.39392 -4.62182,-2.75205c-4.66686,3.09913 -7.48453,5.07892 -6.80194,-0.12629c1.37257,-10.4667 13.37667,-0.72754 26.79894,-5.32362c12.84767,-4.39934 25.60335,0.45506 24.23078,10.92176z" data-paper-data="{&quot;index&quot;:null}" fill="#623728" stroke-width="0"/></g><g data-paper-data="{&quot;index&quot;:null}" stroke="#000000"><g data-paper-data="{&quot;index&quot;:null}"><path d="M220.41465,195.72877l-2.60336,14.96678l-14.45858,-3.94153l-5.46824,-8.80392l23.40518,-21.05973l6.76112,3.33016l2.84323,6.74402z" data-paper-data="{&quot;index&quot;:null}" fill="#faddbf" stroke-width="2" stroke-linecap="butt"/><path d="M203.55649,204.97809l15.07906,-17.46494l-14.68957,18.48396z" fill="#ef8b89" stroke-width="0" stroke-linecap="round"/></g><path d="M224.85439,196.83693l-9.97826,-8.76727l-1.09971,-8.2604l9.03123,-3.84947l8.49557,4.70198l0.35824,5.63022z" data-paper-data="{&quot;index&quot;:null}" fill="#1a54c9" stroke-width="2" stroke-linecap="butt"/></g><g data-paper-data="{&quot;index&quot;:null}" stroke="#000000" stroke-linecap="butt"><path d="M256.02304,184.22613c-1.42819,-4.07686 0.74978,-8.49 4.86465,-9.85705c4.11487,-1.36703 8.60842,0.82969 10.03662,4.90655c0.7839,2.23774 0.48137,4.57677 -0.63157,6.45779c-0.91471,1.54598 -6.92885,3.91048 -8.22007,3.66578c-2.70928,-0.51339 -5.08242,-2.41206 -6.04965,-5.17304z" fill="#414b67" stroke-width="2"/><path d="M264.66578,175.69166c0.21477,-0.41291 1.05179,-0.42069 1.86954,-0.01732c0.81774,0.40338 1.30655,1.06509 1.09179,1.47801c-0.21477,0.41291 -1.05179,0.42069 -1.86954,0.01732c-0.81774,-0.40338 -1.30655,-1.06509 -1.09179,-1.47801z" fill="#7082b2" stroke-width="0"/></g><path d="M256.29907,172.91153c-0.47326,0.26118 -0.99539,-0.03959 -0.99539,-0.03959l-0.31149,-0.17959c-2.51324,-1.51531 -8.41532,-4.1229 -7.39586,-6.24209c0.96487,-1.64902 1.18372,-1.21492 2.28696,-2.82396c0.24095,-0.35144 2.82367,-2.4478 3.1664,-2.23134c0.53505,0.33795 2.91574,0.49446 3.16798,0.91487c0.35826,0.59713 -0.55887,1.59195 -0.81738,2.12164c-0.41885,0.70043 -1.99441,2.24219 -1.62602,3.05918c0.11624,0.25778 0.81001,0.30291 1.18322,0.47924c1.26878,0.5995 2.98853,1.20407 3.91734,1.9961c1.20429,1.02695 -0.60543,1.91485 -1.30881,2.77853c0,0 -0.28074,0.34385 -0.9271,0.14276c-0.08051,-0.02503 -0.14661,-0.0523 -0.20068,-0.08083c-0.0313,0.03521 -0.07651,0.07051 -0.1392,0.10509z" data-paper-data="{&quot;index&quot;:null}" fill="#000000" stroke="none" stroke-width="0.5" stroke-linecap="butt"/><path d="M235.33146,173.32469c-0.06269,-0.03459 -0.1079,-0.06989 -0.1392,-0.1051c-0.05408,0.02853 -0.12018,0.05579 -0.20068,0.08083c-0.64636,0.20109 -0.9271,-0.14276 -0.9271,-0.14276c-0.70338,-0.86369 -2.5131,-1.75158 -1.30881,-2.77853c0.92881,-0.79203 2.64856,-1.3966 3.91734,-1.9961c0.37322,-0.17633 1.06698,-0.22145 1.18323,-0.47924c0.36839,-0.817 -1.20717,-2.35875 -1.62602,-3.05918c-0.2585,-0.5297 -1.17563,-1.52452 -0.81737,-2.12165c0.25224,-0.42041 2.63292,-0.57691 3.16797,-0.91486c0.34273,-0.21645 2.92545,1.8799 3.1664,2.23134c1.10323,1.60905 1.32208,1.17494 2.28696,2.82396c1.01946,2.11919 -4.88262,4.72677 -7.39586,6.24208l-0.31149,0.17959c0,0 -0.52213,0.30077 -0.99539,0.0396z" data-paper-data="{&quot;index&quot;:null}" fill="#000000" stroke="none" stroke-width="0.5" stroke-linecap="butt"/><path d="M246.82052,176.98915c-1.37775,0.08867 -2.56846,-0.92711 -2.65951,-2.2688c-0.09106,-1.3417 0.95202,-2.50123 2.32978,-2.5899c1.37775,-0.08867 2.56846,0.92711 2.65951,2.2688c0.09106,1.3417 -0.95202,2.50123 -2.32978,2.5899z" data-paper-data="{&quot;index&quot;:null}" fill="#852368" stroke="#000000" stroke-width="1" stroke-linecap="butt"/><path d="M136.94445,277.77779v-202.22223h202.22222v202.22222z" data-paper-data="{&quot;index&quot;:null}" fill="none" stroke="#000000" stroke-width="0.00005" stroke-linecap="butt"/></g></g></svg>