<svg version="1.1" xmlns="http://www.w3.org/2000/svg" xmlns:xlink="http://www.w3.org/1999/xlink" width="242.31536" height="334.98321" viewBox="0,0,242.31536,334.98321"><g transform="translate(-223.49473,-9.50995)"><g data-paper-data="{&quot;isPaintingLayer&quot;:true}" fill-rule="nonzero" stroke-linejoin="miter" stroke-miterlimit="10" stroke-dasharray="" stroke-dashoffset="0" style="mix-blend-mode: normal"><g data-paper-data="{&quot;index&quot;:null}" stroke="#000000" stroke-linecap="butt"><path d="M224.7775,245.36068l16.51761,-45.13281l47.89092,17.52701l-16.51761,45.13281z" fill="#ffcaa0" stroke-width="2"/><g><path d="M240.76583,200.22614l22.77597,-62.23321l48.51513,17.75546l-22.77597,62.23321z" fill="#ff0008" stroke-width="2"/><path d="M288.50964,217.9256c0,0 -15.92229,-5.82721 -23.82009,-8.71763c-7.81422,-2.85983 -23.31862,-8.5341 -23.31862,-8.5341l11.92938,-32.59592c0,0 11.9805,19.73796 19.61703,22.53276c8.05414,2.94764 27.52169,-5.28104 27.52169,-5.28104l-11.92938,32.59591z" fill="#8d005e" stroke-width="0"/></g><path d="M224.22205,244.57776l40.92712,-1.51224l23.48141,-26.09356l-16.51761,45.13281z" fill="#ff6e5b" stroke-width="0"/></g><g data-paper-data="{&quot;index&quot;:null}" stroke="#000000" stroke-linecap="butt"><path d="M265.10952,22.03418c14.65975,0 26.54382,26.10753 26.54382,58.3128c0,32.20527 -11.88407,58.3128 -26.54382,58.3128c-14.65975,0 -26.54382,-26.10753 -26.54382,-58.3128c0,-32.20527 11.88407,-58.3128 26.54382,-58.3128z" fill="#01930e" stroke-width="2"/><path d="M291.25148,79.91281c0,32.20527 -11.88408,58.3128 -26.54382,58.3128c-14.65974,0 17.76555,-35.72183 17.76555,-67.9271c0,-32.20527 8.77827,-22.59097 8.77827,9.6143z" fill="#31525b" stroke-width="0"/></g><g data-paper-data="{&quot;index&quot;:null}" stroke="#000000" stroke-linecap="butt"><path d="M282.00412,343.04879v-90.27109h61.17899v90.27109z" fill="#273750" stroke-width="2"/><path d="M281.21679,342.29222l42.75189,-40.95544l18.42709,-49.31565v90.27109z" fill="#1f1e2e" stroke-width="0"/></g><path d="M281.36636,252.36642v-113.80147h113.80147v113.80147z" data-paper-data="{&quot;index&quot;:null}" fill="#ff0008" stroke="#000000" stroke-width="2" stroke-linecap="butt"/><g data-paper-data="{&quot;index&quot;:null}" stroke="#000000" stroke-linecap="butt"><path d="M334.61007,343.49316v-90.27109h61.17899v90.27109z" fill="#273750" stroke-width="2"/><path d="M333.8227,342.73656l42.75189,-40.95544l18.42709,-49.31565v90.27109z" fill="#1f1e2e" stroke-width="0"/></g><g data-paper-data="{&quot;index&quot;:null}" stroke="#000000" stroke-linecap="butt"><path d="M419.15093,256.26048l-22.05273,-42.70222l45.31179,-23.40039l22.05273,42.70222z" fill="#ffcaa0" stroke-width="2"/><g><path d="M396.73878,213.94678l-30.4083,-58.88168l45.90238,-23.70539l30.4083,58.88168z" fill="#ff0008" stroke-width="2"/><path d="M442.07798,190.77138c0,0 -15.06481,7.77993 -22.53728,11.63894c-7.39339,3.81817 -22.06281,11.39391 -22.06281,11.39391l-15.92697,-30.84049c0,0 22.63953,4.53553 29.8648,0.80418c7.62039,-3.9354 14.73529,-23.83703 14.73529,-23.83703l15.92697,30.84048z" fill="#8d005e" stroke-width="0"/></g><path d="M418.19863,256.13965l26.58143,-31.15676l-3.32237,-34.94585l22.05273,42.70222z" fill="#ff6e5b" stroke-width="0"/></g><g data-paper-data="{&quot;index&quot;:null}" fill="#000000" stroke="#000000" stroke-linecap="butt"><path d="M307.09576,251.8972v-111.68333h61.17899v111.68333z" stroke-width="2"/><path d="M306.30839,250.96117l42.75189,-50.67005l18.42709,-61.01328v111.68333z" stroke-width="0"/></g><g data-paper-data="{&quot;index&quot;:null}" stroke="#000000" stroke-linecap="butt"><path d="M415.994,78.77771c0,11.10283 -1.42394,36.61614 -7.37538,45.77754c-13.43056,20.67445 -41.94302,19.6932 -72.51838,19.6932c-28.91781,0 -61.48502,3.15028 -75.50889,-15.70582c-7.37439,-9.91539 -4.38487,-37.30378 -4.38487,-49.76492c0,-3.48625 -1.05936,-26.29915 -0.4189,-29.63798c6.00221,-31.29064 40.44282,-35.83276 80.31266,-35.83276c42.44441,0 76.32321,2.48597 78.90464,36.73529c0.10216,1.35538 0.98912,27.359 0.98912,28.73546z" fill="#ffcaa0" stroke-width="2"/><path d="M417.82735,78.78789c0,11.10283 -1.42394,36.61614 -7.37538,45.77754c-13.43056,20.67445 -41.94302,19.6932 -72.51838,19.6932c-28.9178,0 -62.13774,3.04149 -76.16161,-15.81461c-2.96486,-3.98647 62.96704,21.27155 100.416,4.08965c47.78674,-21.92495 53.18361,-101.94005 54.65026,-82.48122c0.10216,1.35538 0.98912,27.359 0.98912,28.73546z" fill="#ff6e5b" stroke-width="0"/></g><g data-paper-data="{&quot;index&quot;:null}" stroke="#000000" stroke-linecap="butt"><path d="M397.18545,19.96026c14.65975,0 26.54382,26.10753 26.54382,58.3128c0,32.20527 -11.88407,58.3128 -26.54382,58.3128c-14.65975,0 -26.54382,-26.10753 -26.54382,-58.3128c0,-32.20527 11.88407,-58.3128 26.54382,-58.3128z" fill="#01930e" stroke-width="2"/><path d="M423.32741,77.8389c0,32.20527 -11.88408,58.3128 -26.54382,58.3128c-14.65974,0 17.76555,-35.72183 17.76555,-67.9271c0,-32.20527 8.77827,-22.59097 8.77827,9.6143z" fill="#31525b" stroke-width="0"/></g><g data-paper-data="{&quot;index&quot;:null}" stroke-linecap="butt"><path d="M239.80358,35.62454c0,-14.42269 41.36032,-26.11459 92.38086,-26.11459c51.02054,0 92.38085,11.69189 92.38085,26.11458c0,14.42268 -41.36031,26.11459 -92.38085,26.11459c-51.02054,0 -92.38086,-11.6919 -92.38086,-26.11459z" fill="#000000" stroke="none" stroke-width="NaN"/><path d="M331.48202,43.13216c51.02054,0 93.81338,-21.64916 93.81338,-7.22647c0,14.42268 -41.36031,26.11459 -92.38085,26.11459c-51.02054,0 -92.38086,-11.6919 -92.38086,-26.11459c0,-14.42269 39.92779,7.22647 90.94833,7.22647z" fill="#ff0000" stroke="#000000" stroke-width="2"/><path d="M331.85399,56.22619c51.02054,0 86.27707,-17.23298 88.68104,-13.78351c2.32757,3.33985 -13.32402,10.34871 -38.81909,14.82706c-13.7328,2.41224 -30.57531,3.74491 -48.42942,4.15429c-51.02054,1.16987 -87.36702,-14.03872 -87.36702,-18.00772c0,-3.969 34.91395,12.80988 85.93449,12.80988z" fill="#900056" stroke="#000000" stroke-width="0"/></g><path d="M309.71035,91.23101c0,-15.71752 2.90507,-28.45909 6.48867,-28.45909c3.58359,0 6.48867,12.74156 6.48867,28.45908c0,15.71751 -2.90507,28.45908 -6.48867,28.45908c-3.5836,0 -6.48867,-12.74157 -6.48867,-28.45909z" data-paper-data="{&quot;index&quot;:null}" fill="#000000" stroke="none" stroke-width="0" stroke-linecap="butt"/><path d="M289.57199,59.63593c3.39498,0 6.14716,12.6906 6.14716,28.34525c0,15.65465 -2.75217,28.34525 -6.14716,28.34525c-3.39498,0 -6.14716,-12.6906 -6.14716,-28.34525c0,-15.65465 2.75217,-28.34525 6.14716,-28.34525z" data-paper-data="{&quot;index&quot;:null}" fill="#000000" stroke="none" stroke-width="0" stroke-linecap="butt"/><path d="M306.57139,64.48931h30" data-paper-data="{&quot;index&quot;:null}" fill="none" stroke="#000000" stroke-width="5" stroke-linecap="round"/><path d="M296.98787,62.94207l-23.33333,-4.52381" data-paper-data="{&quot;index&quot;:null}" fill="none" stroke="#000000" stroke-width="5" stroke-linecap="round"/><path d="M341.7036,125.38027c-7.39772,0 -13.8234,3.00425 -13.8234,-4.39348c0,-7.39773 5.99704,-13.39477 13.39477,-13.39477c7.39773,0 13.39477,5.99704 13.39477,13.39477c0,7.39772 -5.56841,4.39348 -12.96614,4.39348z" data-paper-data="{&quot;index&quot;:null}" fill="#000000" stroke="none" stroke-width="0" stroke-linecap="butt"/></g></g></svg>