<svg version="1.1" xmlns="http://www.w3.org/2000/svg" xmlns:xlink="http://www.w3.org/1999/xlink" width="336.07274" height="336.07274" viewBox="0,0,336.07274,336.07274"><g transform="translate(-151.96363,-11.96363)"><g data-paper-data="{&quot;isPaintingLayer&quot;:true}" fill-rule="nonzero" stroke-linejoin="miter" stroke-miterlimit="10" stroke-dasharray="" stroke-dashoffset="0" style="mix-blend-mode: normal"><path d="M203,297v-234h234v234z" data-paper-data="{&quot;index&quot;:null}" fill="none" stroke="none" stroke-width="0" stroke-linecap="butt"/><g data-paper-data="{&quot;index&quot;:null}"><g><g data-paper-data="{&quot;origRot&quot;:0}" stroke="#000000" stroke-width="3" stroke-linecap="round"><path d="M279.28899,199.23651c0,0 10.82393,-28.45281 13.77927,-27.58471c5.32871,1.56529 16.17807,8.41831 16.17807,8.41831l9.76299,5.01534l-3.5159,-2.26162c0,0 12.16917,-11.59232 15.89548,-12.50668c1.95768,-0.48038 9.29273,6.26181 9.88864,8.77788c1.33679,5.64434 -18.69972,39.05118 -23.22423,37.97272c-10.16706,-4.09928 -31.73004,-12.68525 -31.73004,-12.68525c0,0 -8.23576,-3.0108 -7.03431,-5.14598z" data-paper-data="{&quot;origPos&quot;:null}" fill="#582700"/><path d="M288.25672,203.45579l13.59441,-26.79838" fill="none"/><path d="M291.70038,205.52361l13.84963,-26.66891" data-paper-data="{&quot;origPos&quot;:null}" fill="none"/></g><path d="M302.21088,176.76765l2.49779,1.28685l-14.07728,27.32433l-2.49779,-1.28685z" fill="#ffffff" stroke="none" stroke-width="0" stroke-linecap="butt"/><path d="M317.07362,216.36254l-25.29812,-10.24722l14.69659,-26.45062l11.79958,6.07409l1.01443,-1.72365l-2.45867,-1.73707l14.4398,-11.22739l1.29275,0.76081l6.46369,3.80404l1.45664,4.9184l-2.46079,8.12446l-11.95746,20.8106l-7.82249,7.86982z" fill="#66c8ff" stroke="#000000" stroke-width="0.5" stroke-linecap="round"/></g><g fill="#fffc96" stroke="#000000" stroke-width="2" stroke-linecap="round"><path d="M309.99561,180.91967c0,0 1.24488,5.73583 5.27481,13.33394c4.08654,7.70487 8.60915,13.19 8.60915,13.19l2.09637,-0.41886c0,0 0.85689,3.54633 -1.341,4.26719c-5.37938,1.7643 -22.15633,-31.69523 -17.09463,-33.69758c3.16366,-1.25151 5.10967,3.34216 5.10967,3.34216z"/><path d="M320.91149,180.08465c0,0 -3.42595,5.62418 -6.16041,14.6019c-2.73449,8.97772 -3.37773,15.19514 -3.37773,15.19514l1.54784,-0.26152c0,0 -0.12178,4.06515 -3.27907,4.57586c-5.21334,0.84332 6.21479,-39.02326 11.68121,-38.61298c2.60412,0.19546 1.06379,4.4349 1.06379,4.4349z" data-paper-data="{&quot;index&quot;:null}"/></g></g><g data-paper-data="{&quot;index&quot;:null}" stroke="#000000" stroke-linecap="round"><path d="M347.63313,158.65626c0,0 16.28778,-0.85114 15.96562,5.76565c-0.87435,17.95933 -28.80252,10.75605 -28.80252,10.75605z" data-paper-data="{&quot;origPos&quot;:null}" fill="#66c8ff" stroke-width="2"/><path d="M346.81071,160.1283c0,0 11.7946,-0.02242 12.36622,1.95172c0.18027,0.62264 -15.80928,1.79052 -15.80928,1.79052z" data-paper-data="{&quot;origPos&quot;:null}" fill="#0a0a0a" stroke-width="1"/></g><g data-paper-data="{&quot;origRot&quot;:0,&quot;index&quot;:null}" stroke="#000000" stroke-linecap="round"><path d="M314.78124,263.2286c0,0 -0.53594,4.44956 -2.01788,6.28718c-1.13446,1.40679 -3.05608,1.40012 -4.85945,1.28228c-4.95002,-0.32345 -9.07859,-3.16632 -16.41407,-5.56037c-1.99786,-0.65201 -2.16504,-3.95743 -1.38502,-5.90886c0.72956,-1.82519 2.10958,-4.9532 2.10958,-4.9532l12.96775,-30.46249c0,0 1.80767,-3.88912 3.68905,-4.07971c4.53068,-0.45902 8.342,2.30374 12.74396,3.47025c1.49176,0.39533 0.12369,4.99697 0.12369,4.99697z" data-paper-data="{&quot;origPos&quot;:null}" fill="#ff0000" stroke-width="3"/><path d="M291.80648,255.38377l22.14658,7.31672c0,0 0.31402,2.72435 -0.24978,4.31574c-0.53519,1.51065 -2.56631,3.63286 -2.56631,3.63286c0,0 -8.40059,-1.39329 -12.14624,-2.49023c-4.88201,-1.42973 -9.84284,-5.61693 -9.84284,-5.61693z" data-paper-data="{&quot;origPos&quot;:null}" fill="#976e57" stroke-width="2"/><path d="M314.61293,263.51366c0,0 -0.53594,4.44956 -2.01788,6.28718c-1.13446,1.40676 -3.05607,1.40012 -4.85944,1.28228c-4.95003,-0.32345 -9.07859,-3.16633 -16.41407,-5.56038c-1.99785,-0.65202 -2.16504,-3.95743 -1.38502,-5.90886c0.72956,-1.82518 2.1096,-4.9532 2.1096,-4.9532l12.96775,-30.46249c0,0 1.80766,-3.88911 3.68904,-4.0797c4.53069,-0.45903 8.34202,2.30373 12.74397,3.47024c1.49177,0.39532 0.1237,4.99696 0.1237,4.99696z" data-paper-data="{&quot;origPos&quot;:null}" fill="#4b4b4b" stroke-width="3"/></g><path d="M329.42809,263.79377c0,0 -1.20692,-12.65252 -1.97941,-20.75078c-0.54733,-5.73784 -1.40246,-14.70247 -1.40246,-14.70247c0,0 -0.89464,-4.7166 0.62949,-4.95869c4.49749,-0.71438 8.56921,-3.07662 13.03004,-2.16079c1.85237,0.38029 3.25656,4.43257 3.25656,4.43257l9.81364,31.61991c0,0 1.05589,3.25176 1.59671,5.14148c0.57822,2.02043 0.0769,5.29187 -1.97675,5.73806c-7.54035,1.63827 -11.93576,4.0481 -16.89308,3.86819c-1.80603,-0.06555 -3.71841,-0.25368 -4.70447,-1.76819c-1.28805,-1.97835 -1.37029,-6.45932 -1.37029,-6.45932z" data-paper-data="{&quot;index&quot;:null}" fill="#4b4b4b" stroke="#000000" stroke-width="3" stroke-linecap="round"/><g data-paper-data="{&quot;index&quot;:null}"><path d="M345.63038,209.99551c0,0 0.10447,15.77917 -2.11193,15.958c-6.64923,0.53655 -23.99344,-1.11326 -38.82479,-1.79418c-1.66611,-0.07647 -0.73706,-15.00754 -0.73706,-15.00754l3.18351,-30.51431c0,0 1.93955,-13.45861 3.46682,-13.38849c9.87952,0.45356 24.70365,0.20259 31.09396,2.14127c2.13011,0.64622 3.40833,15.12949 3.40833,15.12949z" data-paper-data="{&quot;origPos&quot;:null}" fill="#66c8ff" stroke="#000000" stroke-width="3.5" stroke-linecap="round"/><path d="M325.90817,189.84563c-1.29031,-0.05923 -1.17622,-2.54412 -1.17622,-2.54412l0.07605,-1.65658c0.23662,-5.15382 0.47324,-10.30765 0.70985,-15.46148c0,0 0.11408,-2.48489 1.40439,-2.42565c1.29031,0.05923 1.17622,2.54412 1.17622,2.54412c-0.23661,5.15384 -0.54929,11.96424 -0.7859,17.11807c0,0 -0.11408,2.48489 -1.40439,2.42565z" fill="#ffffff" stroke="none" stroke-width="0.5" stroke-linecap="butt"/><path d="M314.18964,188.89056c-1.2903,-0.05923 -1.14698,-3.18095 -1.14698,-3.18095l0.09556,-2.08114c0.29726,-6.47468 0.59451,-12.94933 0.89177,-19.42399c0,0 0.14332,-3.1217 1.43363,-3.06246c1.2903,0.05923 1.14698,3.18095 1.14698,3.18095c-0.29726,6.47467 -0.69006,15.03046 -0.98732,21.50512c0,0 -0.14332,3.1217 -1.43363,3.06246z" fill="#ffffff" stroke="none" stroke-width="0.5" stroke-linecap="butt"/></g><path d="M307.12576,164.7534c0,0 -2.048,-4.09091 -2.20343,-5.1653c-0.4663,-3.2231 -1.57931,-17.36814 -2.54272,-30.15572c-0.14903,-1.97792 1.23075,-5.18967 1.23075,-5.18967c0,0 2.07378,-1.78879 3.3314,-1.89045c13.87536,-1.12167 26.9959,-3.27918 32.25931,-2.1238c1.75447,0.38512 5.02413,1.88107 5.02413,1.88107c0,0 1.03895,4.32957 1.25772,5.44747c0.07292,0.37262 0.115,0.58228 0.1656,0.9586c1.5162,11.27547 2.05873,24.41464 2.03293,29.01959c-0.0086,1.535 -1.64024,4.05466 -1.64024,4.05466c0,0 -1.17847,2.82372 -5.50501,3.96097c-4.73399,1.24436 -16.44411,1.753 -28.52135,2.24031z" data-paper-data="{&quot;index&quot;:null}" fill="#582700" stroke="#000000" stroke-width="2.5" stroke-linecap="round"/><path d="M313.54453,146.31401c0.2588,3.43521 0.05603,6.25113 -0.45289,6.28945c-0.50891,0.03834 -1.13128,-2.71539 -1.3901,-6.15062c-0.2588,-3.43519 -0.05604,-6.25111 0.45288,-6.28943c0.50891,-0.03834 1.13128,2.71538 1.3901,6.15061z" data-paper-data="{&quot;index&quot;:null}" fill="#000000" stroke="#000000" stroke-width="2.5" stroke-linecap="butt"/><path d="M319.01592,146.16739c0.2636,3.49884 0.16786,6.35851 -0.21384,6.38726c-0.3817,0.02874 -0.90479,-2.7843 -1.1684,-6.28315c-0.26361,-3.49883 -0.16788,-6.35852 0.21382,-6.38727c0.38168,-0.02876 0.9048,2.78431 1.16841,6.28316z" data-paper-data="{&quot;index&quot;:null}" fill="#000000" stroke="#000000" stroke-width="2.5" stroke-linecap="butt"/><path d="M348.54587,122.69869c-0.61009,1.091 -1.70109,0.48094 -1.70109,0.48094l-0.75173,-0.46735c-0.09148,-0.02371 -0.1829,-0.04694 -0.27423,-0.06968c-0.19684,0.32723 -0.59851,0.72172 -1.35003,0.53493c-0.69267,-0.17217 -0.89151,-0.64151 -0.93466,-1.01254c-2.67092,-0.45668 -5.31841,-0.57237 -8.09148,-0.60855c-7.74504,0.16365 -15.46139,0.92787 -23.18376,1.53249c-2.53259,0.19829 -8.12144,1.661 -10.36824,0.14486c-1.09576,-0.73943 -0.8429,-2.6955 -1.02524,-3.73757c-0.52835,-3.01967 -1.14306,-6.14079 -1.39396,-9.19819c-0.30126,-3.99839 -2.07536,-7.45131 -2.88536,-11.33275c-0.40607,-1.94588 -1.22611,-3.8699 0.40024,-5.70598c0.45919,-0.51842 1.35277,-0.30673 2.0395,-0.39636c2.50978,-0.32757 4.96194,-0.34541 7.47752,-0.24317c7.97186,0.324 15.82207,0.23352 23.77775,1.04556c3.20958,0.3314 6.40487,0.15121 9.62788,0.00921c1.89423,-0.08345 3.57579,-0.75701 4.87377,1.31424c0.77514,1.23692 0.58736,5.26783 0.64861,6.74956c0.23616,5.7136 1.67826,12.6384 0.92756,18.46287c0.11981,0.02942 0.2397,0.05961 0.35975,0.09056l1.34625,0.70579c0,0 1.09099,0.61009 0.48093,1.70109z" data-paper-data="{&quot;index&quot;:null}" fill="#000000" stroke="none" stroke-width="0.5" stroke-linecap="butt"/><g data-paper-data="{&quot;index&quot;:null}" fill="none" stroke="#b9b9b9" stroke-width="3"><path d="M312.54907,170.37795c-1.25541,1.86238 -2.21291,0.70249 -3.37873,-0.57034c-0.91287,-0.99665 -2.3559,-2.03946 -0.84306,-4.03899c0.71353,-0.94304 1.92259,-0.5152 3.0884,0.75761c1.16581,1.27284 2.02233,2.53302 1.13339,3.85173z" stroke-linecap="butt"/><path d="M314.06461,172.37827l-2.47169,-2.63558" stroke-linecap="round"/><path d="M317.57854,173.16956c1.1658,1.27285 2.02231,2.53303 1.13337,3.85174c-1.25541,1.86238 -2.21291,0.70248 -3.37872,-0.57034c-0.91287,-0.99665 -2.3559,-2.03946 -0.84306,-4.03899c0.71353,-0.94304 1.92259,-0.5152 3.0884,0.75761z" stroke-linecap="butt"/><path d="M320.22749,179.02165l-2.47169,-2.6356" stroke-linecap="round"/><path d="M325.86458,178.8277c0.45935,2.33267 -0.87982,2.58406 -2.41907,2.9727c-1.20528,0.30431 -2.76177,1.10078 -3.15507,-1.56534c-0.1855,-1.25743 0.82667,-2.18873 2.36592,-2.57738c1.53925,-0.38864 2.88299,-0.48173 3.20824,1.17001z" stroke-linecap="butt"/><path d="M328.09196,178.52709l-3.22219,0.86129" stroke-linecap="round"/><path d="M333.25743,174.78677c1.17452,1.91542 0.02001,2.79061 -1.27493,3.88789c-1.01398,0.85919 -2.19353,2.33832 -3.41445,0.08567c-0.57582,-1.06242 0.0582,-2.40292 1.35313,-3.50019c1.29491,-1.09727 2.50459,-1.82968 3.33625,-0.47339z" stroke-linecap="butt"/><path d="M335.21548,173.43872l-2.69538,2.34068" stroke-linecap="round"/><path d="M340.03517,168.96686c1.17452,1.91542 0.02001,2.79062 -1.27492,3.88789c-1.01398,0.85919 -2.19354,2.33831 -3.41445,0.08567c-0.57582,-1.06242 0.05819,-2.40292 1.35313,-3.50019c1.29491,-1.09727 2.50458,-1.82966 3.33625,-0.47339z" stroke-linecap="butt"/><path d="M339.29783,169.9595l2.69539,-2.34067" stroke-linecap="round"/></g><path d="M314.92608,140.02827c-0.29198,-0.69083 0.39884,-0.98282 0.39884,-0.98282l0.54987,-0.21847c0.89498,-0.57214 1.85126,-0.95716 2.85092,-1.1525c0.07364,-0.03377 0.14762,-0.06729 0.222,-0.10057c0.01972,-0.00969 0.03963,-0.01949 0.0597,-0.0294l0.02901,-0.0157l-0.03478,-0.08978l0.73262,-0.28381c0.07104,-0.02942 0.14785,-0.04832 0.22865,-0.05465c0.41295,-0.03236 0.77392,0.2762 0.80625,0.68915c0.02393,0.30578 -0.13904,0.58306 -0.39289,0.71952c-0.13072,0.13775 -0.28089,0.20123 -0.28089,0.20123c-0.15955,0.06737 -0.31701,0.13515 -0.47278,0.20385c-0.65032,0.33721 -1.17372,0.80283 -1.74045,0.86062c-0.12085,0.06776 -0.24156,0.13742 -0.36236,0.20926l-0.60178,0.54856c-0.11963,0.11115 -0.27621,0.18422 -0.45166,0.19795c-0.25573,0.02003 -0.49153,-0.09069 -0.64168,-0.27597c-0.19317,0.05234 -0.66908,0.11653 -0.89858,-0.42646z" data-paper-data="{&quot;index&quot;:null}" fill="#582700" stroke="none" stroke-width="0.5" stroke-linecap="butt"/><g data-paper-data="{&quot;index&quot;:null}"><g data-paper-data="{&quot;index&quot;:null}"><path d="M296.48807,171.6008c2.30423,0.81163 7.36796,-1.52557 6.61419,0.61441c-0.50216,1.42565 -12.19211,19.54571 -14.05528,20.17921c-0.93351,0.31741 -2.24768,0.27237 -3.01686,0.00146c-1.13052,-0.39823 -1.85459,-1.32442 -2.17969,-2.5033c-0.33749,-1.22396 6.28929,-21.27073 6.67322,-22.36076c0.75377,-2.13998 3.6602,3.25731 5.96445,4.06895z" fill="#0091d4" stroke="#000000" stroke-width="1.5" stroke-linecap="butt"/><g stroke-linecap="butt"><path d="M298.96051,164.51442c4.17475,1.4705 6.77194,4.89718 5.80099,7.65371c-0.97095,2.75654 -5.14236,3.79907 -9.31712,2.32858c-4.17476,-1.47052 -6.77193,-4.89721 -5.80098,-7.65374c0.97094,-2.75653 5.14235,-3.79907 9.3171,-2.32857z" fill="#0091d4" stroke="#000000" stroke-width="1.5"/><path d="M300.48877,172.06383l3.93484,-0.32151c0,0 -1.28954,1.5186 -2.031,1.90241c-1.56617,0.78151 -3.26256,0.59472 -3.26256,0.59472z" fill="#00aeff" stroke="none" stroke-width="0"/><path d="M296.88691,171.67109l1.62096,0.24571c0,0 -0.23514,1.00457 -0.37688,1.33689c-0.16595,0.38912 -0.67262,1.00253 -0.67262,1.00253l-1.8422,-0.59344z" fill="#00aeff" stroke="none" stroke-width="0"/></g><g><path d="M296.70362,170.58703c-5.75913,-2.02859 -7.75819,-6.54309 -5.72961,-12.30228c2.02857,-5.75914 8.6369,-8.67941 14.39609,-6.65083c5.75916,2.02859 8.40104,7.54361 6.37246,13.3028c-2.02857,5.75913 -9.27971,7.67891 -15.0389,5.65033z" fill="#00699a" stroke="#000000" stroke-width="1.5" stroke-linecap="butt"/><path d="M307.03986,153.1261c0,0 6.67318,4.98018 4.89833,10.019c-1.00644,2.85737 -3.4407,5.32894 -5.94006,6.88521c-1.78067,1.10877 -4.0594,1.54258 -6.09512,0.82552c-4.18442,-1.47393 -5.01613,-3.86145 -3.24128,-8.90027c0.88635,-2.51633 3.44823,-5.088 5.96895,-6.52308c2.52684,-1.43858 4.4092,-2.30638 4.4092,-2.30638z" fill="#0091d4" stroke="none" stroke-width="0" stroke-linecap="butt"/><path d="M311.39912,164.88668c0,0 -4.23464,2.95002 -10.97966,0.84108c-6.80028,-2.12621 -8.61754,-6.71529 -8.61754,-6.71529" fill="none" stroke="#000000" stroke-width="0.8" stroke-linecap="round"/><path d="M308.58635,169.03925c0,0 -4.68207,0.83098 -9.12729,-0.01875c-6.40614,-1.22456 -8.08394,-4.05065 -8.08394,-4.05065" fill="none" stroke="#000000" stroke-width="0.75" stroke-linecap="round"/><path d="M312.05545,160.10308c0,0 -4.20747,2.29436 -11.07798,0.56364c-6.60821,-1.66463 -7.84518,-4.33595 -7.84518,-4.33595" fill="none" stroke="#000000" stroke-width="0.8" stroke-linecap="round"/><path d="M293.65284,155.03543c0,0 4.75167,-0.85759 8.28061,-0.56972c4.64815,0.37913 9.03321,1.97499 9.03321,1.97499" fill="none" stroke="#000000" stroke-width="0.8" stroke-linecap="round"/><path d="M294.75816,169.05463c0,0 -1.20251,-4.01715 0.68994,-10.17225c1.766,-5.74377 5.45474,-7.27237 5.45474,-7.27237" fill="none" stroke="#000000" stroke-width="0.8" stroke-linecap="round"/><path d="M303.1198,152.06944c0,0 -1.20388,2.80907 -2.03084,6.0437c-0.72722,2.84457 -1.05471,6.04176 -1.51252,7.62116c-0.54376,1.87589 -1.83368,4.88595 -1.83368,4.88595" fill="none" stroke="#000000" stroke-width="0.8" stroke-linecap="round"/><path d="M305.9321,152.48143c0,0 1.40996,5.51445 0.12888,9.50663c-2.0107,6.26588 -5.64692,9.44452 -5.64692,9.44452" fill="none" stroke="#000000" stroke-width="0.8" stroke-linecap="round"/><path d="M309.08824,154.10748c0,0 1.21325,3.97646 0.48338,8.11885c-1.05105,5.96518 -3.56422,8.47618 -3.56422,8.47618" fill="none" stroke="#000000" stroke-width="0.8" stroke-linecap="round"/><path d="M310.41248,163.1247c-0.41062,-0.14464 -0.60825,-0.64602 -0.44135,-1.11984c0.16688,-0.47384 0.63508,-0.74068 1.04572,-0.59603c0.41065,0.14465 0.60826,0.64602 0.44136,1.11984c-0.16689,0.47385 -0.63509,0.7407 -1.04573,0.59605z" fill="#00aeff" stroke="none" stroke-width="0" stroke-linecap="butt"/><path d="M310.71133,159.62968c-0.23692,-0.08346 -0.36132,-0.34318 -0.27787,-0.58007c0.08346,-0.23692 0.34316,-0.36132 0.58007,-0.27788c0.23693,0.08346 0.36133,0.34317 0.27788,0.58006c-0.08346,0.23693 -0.34316,0.36132 -0.58007,0.27788z" fill="#00aeff" stroke="none" stroke-width="0" stroke-linecap="butt"/></g></g><path d="M298.72478,174.81638c0.92163,-0.18961 2.78144,0.89825 2.78144,0.89825l4.67451,2.38283c0,0 0.7113,1.12937 0.54903,1.86021c-0.48674,2.19249 -2.024,6.16536 -3.3966,10.39988c-0.22817,0.70386 -1.28687,0.49463 -1.28687,0.49463c0,0 -1.58709,-0.59462 -2.60293,-0.97523c-1.54702,-0.5796 -3.96403,-1.48518 -3.96403,-1.48518c0,0 -1.28417,-0.31011 -0.8388,-1.58981c0,0 -0.01197,-1.99192 4.08423,-11.98561z" fill="#582700" stroke="#000000" stroke-width="3" stroke-linecap="round"/><path d="M286.34102,171.61874c1.67814,-0.45711 4.97782,1.64339 4.97782,1.64339l8.31425,4.55689c0,0 1.2199,2.26972 0.88334,3.78396c-1.00964,4.54275 -4.02433,12.82218 -6.75665,21.62738c-0.45416,1.46358 -2.35668,1.11083 -2.35668,1.11083c0,0 -2.83553,-1.10648 -4.65041,-1.81467c-2.76388,-1.07852 -7.08212,-2.76355 -7.08212,-2.76355c0,0 -2.30441,-0.54365 -1.42342,-3.20686c0,0 0.09583,-4.09393 8.09386,-24.93734z" fill="#582700" stroke="#000000" stroke-width="3" stroke-linecap="round"/></g><g data-paper-data="{&quot;index&quot;:null}"><g data-paper-data="{&quot;index&quot;:null}" stroke="#000000"><path d="M297.8963,197.8607c-1.02124,-3.26031 6.54318,-29.68159 10.39288,-31.52857c3.63873,-1.74578 15.35334,-0.4236 18.32339,0.0003c4.97063,0.70943 16.17969,0.98671 18.53591,4.39224c0.78541,1.13517 0.36801,11.83153 -2.72375,18.46486c-3.09176,6.63333 -9.94228,17.20325 -14.83115,19.19894c-4.76692,1.94589 -28.21974,-5.81068 -29.69728,-10.52772z" data-paper-data="{&quot;origRot&quot;:0,&quot;origPos&quot;:null}" fill="#582700" stroke-width="3" stroke-linecap="butt"/><path d="M311.23858,170.21226l18.12849,5.25031" data-paper-data="{&quot;origPos&quot;:null}" fill="none" stroke-width="2" stroke-linecap="round"/><path d="M326.07846,204.17496l5.2087,-24.77675" data-paper-data="{&quot;origPos&quot;:null}" fill="none" stroke-width="2" stroke-linecap="round"/><path d="M309.61093,166.61534c0,0 24.78001,4.58351 25.94687,7.45943c1.33289,3.2851 -5.7925,31.97419 -5.7925,31.97419" data-paper-data="{&quot;origPos&quot;:null}" fill="none" stroke-width="1.5" stroke-linecap="round"/><path d="M313.11511,165.53917c0,0 23.60027,4.3653 24.7116,7.10431c1.26944,3.12866 -5.51672,30.45196 -5.51672,30.45196" data-paper-data="{&quot;origPos&quot;:null}" fill="none" stroke-width="1.5" stroke-linecap="round"/></g><path d="M326.92217,166.84179l17.95643,3.03307l-0.60848,14.56992l-11.44179,19.13763l0.91224,-5.94571l3.13683,-13.93487l1.0317,-10.95244l-11.09088,-4.62609z" fill="#66c8ff" stroke="#000000" stroke-width="0.5" stroke-linecap="round"/><path d="M331.57865,205.3335l-1.26711,-0.51564l6.11096,-31.89161l1.26711,0.51564z" fill="#ffffff" stroke="none" stroke-width="0" stroke-linecap="butt"/><path d="M337.304,172.24401l-0.47912,1.32898l-25.14044,-7.14835l0.47912,-1.32898z" fill="#ffffff" stroke="none" stroke-width="0" stroke-linecap="butt"/><path d="M333.806,203.06712c0.97144,1.14294 -0.1715,2.11438 -0.1715,2.11438l-0.47335,0.39893c-0.36254,0.34682 -0.72511,0.69365 -1.08767,1.04047c0,0 -1.08393,1.03689 -2.1208,-0.04703c-1.03689,-1.08393 0.04703,-2.1208 0.04703,-2.1208c0.36254,-0.34682 0.72511,-0.69365 1.08767,-1.04047l0.60422,-0.51696c0,0 1.14294,-0.97144 2.11438,0.1715z" fill="#000000" stroke="none" stroke-width="0.5" stroke-linecap="butt"/><path d="M335.96083,172.31041c0.00277,-0.00832 0.00575,-0.01673 0.00894,-0.02523c0.17578,-0.4681 0.64386,-0.29231 0.64386,-0.29231l0.58015,0.26656c0.55392,0.61498 0.64036,0.96439 0.42928,1.38901l0.09114,0.02815l-0.15715,0.50876c-0.04732,0.16529 -0.17665,0.29318 -0.33806,0.34122c-0.04905,0.1255 -0.15719,0.25287 -0.39086,0.28526c-0.49527,0.06865 -0.56392,-0.42662 -0.56392,-0.42662c-0.04653,-0.52583 -0.23459,-0.63306 -0.6271,-0.96352l-0.41565,-0.25174c-0.16209,-0.09359 -0.26474,-0.27475 -0.2486,-0.47371c0.01958,-0.24151 0.2077,-0.42896 0.43947,-0.4562l0.52744,-0.07311l0.01993,0.14368c0.00039,-0.00006 0.00076,-0.00013 0.00115,-0.00019z" fill="#ffffff" stroke="none" stroke-width="0.5" stroke-linecap="butt"/><path d="M310.90027,167.14671c0,0 -0.25903,0.42766 -0.6867,0.16864c-0.42766,-0.25903 -0.16864,-0.6867 -0.16864,-0.6867c0.19784,-0.29786 0.45612,-0.55186 0.75299,-0.77013c-0.00346,-0.00388 -0.0069,-0.00785 -0.01035,-0.0119c-0.32382,-0.38098 0.05717,-0.7048 0.05717,-0.7048l0.2269,-0.15916c0.57735,-0.23101 2.11382,-0.7156 2.63168,-0.29293c0.04385,-0.01059 0.08735,-0.02097 0.13041,-0.03116l0.07686,0.04295l0.00348,-0.04292l0.49836,0.04042v0v0c0.27523,0.02233 0.48026,0.26356 0.45794,0.53879c-0.02233,0.27523 -0.26356,0.48026 -0.53879,0.45794l-0.43722,-0.03546c-0.90256,0.23105 -2.56728,0.63759 -2.9941,1.48641z" fill="#000000" stroke="none" stroke-width="0.5" stroke-linecap="butt"/></g><g data-paper-data="{&quot;index&quot;:null}" stroke="#000000" stroke-width="1.25" stroke-linecap="butt"><g data-paper-data="{&quot;index&quot;:null}" fill="#000000"><path d="M331.8555,159.24793c-11.62074,1.97701 -8.54991,-3.64672 -8.54991,-3.64672l15.5109,-2.58268c0,0 5.39074,4.00864 -6.96098,6.2294z"/></g><g data-paper-data="{&quot;index&quot;:null}" fill="#ffffff"><path d="M331.85554,159.24793c-2.37704,0.40441 -4.13938,0.49078 -5.439,0.37232c-0.02329,-0.00212 0.66563,-1.17089 0.51046,-2.15521c-0.18945,-1.20179 -1.22644,-2.2626 -1.22283,-2.2632c2.61871,-0.43604 13.11232,-2.18331 13.11232,-2.18331c0,0 5.39074,4.00864 -6.96098,6.2294z"/></g></g><path d="M151.96363,348.03637v-336.07274h336.07274v336.07274z" data-paper-data="{&quot;index&quot;:null}" fill="none" stroke="#000000" stroke-width="0" stroke-linecap="butt"/></g></g></svg>