<svg version="1.1" xmlns="http://www.w3.org/2000/svg" xmlns:xlink="http://www.w3.org/1999/xlink" width="260.61231" height="290.80194" viewBox="0,0,260.61231,290.80194"><g transform="translate(-193.01143,-61.86092)"><g data-paper-data="{&quot;isPaintingLayer&quot;:true}" fill-rule="nonzero" stroke-linejoin="miter" stroke-miterlimit="10" stroke-dasharray="" stroke-dashoffset="0" style="mix-blend-mode: normal"><g stroke="#2a2b40" stroke-linecap="butt"><path d="M341.30076,294.52754l-7.28991,-116.62177l46.93666,-2.93397l7.28991,116.62177z" fill="#000000" stroke-width="2"/><path d="M340.32323,285.3912l-1.6296,-26.06984l47.38369,-2.96191l1.6296,26.06984z" fill="#ffffff" stroke-width="2.5"/></g><path d="M315.70799,351.66286v-84.32643h44.60702v84.32643z" fill="#000000" stroke="#2a2b40" stroke-width="2" stroke-linecap="butt"/><path d="M270.76744,349.64818v-84.32643h44.60702v84.32643z" fill="#000000" stroke="#2a2b40" stroke-width="2" stroke-linecap="butt"/><g stroke-linecap="butt"><path d="M275.90872,279.13653v-107.85169h82.34382v107.85169z" fill="#000000" stroke="#2a2b40" stroke-width="2"/><path d="M336.36251,200.20976c0,22.14029 -8.58873,40.08854 -19.18347,40.08854c-10.59474,0 -19.18347,-17.94825 -19.18347,-40.08854c0,-22.14029 7.35902,-29.51303 17.95376,-29.51303c10.59474,0 20.41318,7.37275 20.41318,29.51303z" fill="#ffffff" stroke="#2a2b40" stroke-width="2.5"/><path d="M322.45149,196.84687c0,13.71883 -2.80786,24.84014 -6.27152,24.84014c-3.46366,0 -6.27152,-11.12131 -6.27152,-24.84014c0,-13.71883 2.80786,-24.84014 6.27152,-24.84014c3.46366,0 6.27152,11.12131 6.27152,24.84014z" fill="#000000" stroke="none" stroke-width="0"/></g><g><g><path d="M290.09751,275.15975c-4.99789,-14.23531 -0.75823,-25.06285 13.08928,-30.6625c10.83025,-4.37958 27.28345,3.19117 32.28137,17.42649c4.99795,14.23536 -0.5699,27.80602 -14.66335,32.75416c-2.20394,0.7738 -4.46759,0.83381 -6.53456,0.90796c-11.15037,0.39983 -19.9564,-8.41689 -24.17272,-20.42608z" fill="#485e84" stroke="#000000" stroke-width="2" stroke-linecap="butt"/><path d="M326.43367,251.5332c0,0 -5.56114,1.48483 -6.16208,3.39591c-5.76433,18.33157 -2.10583,31.89009 -0.55357,36.28216c0.35266,0.99787 1.45295,1.22197 1.45295,1.22197c0,0 -1.90986,0.90582 -4.63151,1.2325c-2.89606,0.34763 -6.69537,0.08478 -9.54463,-1.06714c-3.25462,-1.31584 -9.91797,-6.32668 -9.91797,-6.32668l-9.93758,-18.44188c0,0 4.75605,-12.58312 6.17421,-14.22194c1.38931,-1.60551 3.49377,-3.10683 5.66707,-4.79317c3.37437,-2.61825 7.70409,-3.98215 10.58358,-4.03997c3.67488,-0.07373 8.11957,1.33931 11.50157,3.10695c3.14757,1.64513 5.36779,3.65135 5.36779,3.65135z" fill="#343545" stroke="none" stroke-width="0" stroke-linecap="butt"/><path d="M304.26586,261.81703c0,0 7.70884,-4.68743 12.83431,-4.13106c6.48833,0.7043 18.4765,5.64251 18.4765,5.64251" fill="none" stroke="#000000" stroke-width="1" stroke-linecap="round"/><path d="M326.77169,290.85155c0,0 -7.09452,0.89317 -11.36363,0.39675c-4.30989,-0.5011 -12.93443,-4.94747 -12.93443,-4.94747" fill="none" stroke="#000000" stroke-width="1" stroke-linecap="round"/><path d="M297.86682,252.90588c0,0 7.84112,-4.92981 13.36537,-4.07436c8.47675,1.31266 19.37569,5.27607 19.37569,5.27607" fill="none" stroke="#000000" stroke-width="1" stroke-linecap="round"/><path d="M310.35632,244.09625c0,0 14.49992,9.44602 15.18357,26.85512c0.74883,19.06944 -15.63051,24.47383 -15.63051,24.47383" fill="none" stroke="#000000" stroke-width="1" stroke-linecap="round"/><path d="M301.02958,246.02417c0,0 13.11335,12.03754 13.74965,27.39835c0.52243,12.61264 -12.84844,18.45546 -12.84844,18.45546" fill="none" stroke="#000000" stroke-width="1" stroke-linecap="round"/><path d="M331.96018,276.91629c0.25399,-1.17588 1.21455,-1.96606 2.14538,-1.76498c0.93089,0.20101 0.78544,0.98387 0.53144,2.15973c-0.25399,1.17588 -0.52036,2.29946 -1.45122,2.0984c-0.93089,-0.20101 -1.47963,-1.3173 -1.2256,-2.49314z" fill="#8fbbbe" stroke="none" stroke-width="0" stroke-linecap="butt"/><path d="M329.47173,283.74758c-0.19923,-0.56753 0.32932,-1.26987 1.18059,-1.56875c0.85128,-0.29888 1.24011,-0.30338 1.43939,0.26412c0.19923,0.56753 -0.26917,1.44116 -1.12047,1.74c-0.85128,0.29888 -1.30026,0.1321 -1.49949,-0.43541z" fill="#8fbbbe" stroke="none" stroke-width="0" stroke-linecap="butt"/><path d="M333.35783,270.14056c-0.20646,-0.87831 0.10079,-1.70184 0.68629,-1.83949c0.58545,-0.13768 0.71376,0.64313 0.92026,1.5214c0.20646,0.87831 0.41304,1.52143 -0.17248,1.65911c-0.58545,0.13768 -1.22757,-0.46276 -1.43406,-1.34103z" fill="#8fbbbe" stroke="none" stroke-width="0" stroke-linecap="butt"/><path d="M322.94446,248.71835c0,0 6.33894,8.03103 8.50218,15.29327c1.22643,4.11734 0.88602,8.16955 0.5935,11.23884c-0.25866,2.71433 -3.39682,8.49167 -6.25898,12.66375c-2.10724,3.07168 -4.19839,5.1439 -4.19839,5.1439" fill="none" stroke="#000000" stroke-width="0.5" stroke-linecap="round"/><path d="M336.47531,280.13443c0,0 -10.10285,3.11623 -15.49289,2.71062c-4.54124,-0.3417 -14.61908,-4.64302 -14.61908,-4.64302" fill="none" stroke="#000000" stroke-width="1" stroke-linecap="round"/><path d="M306.04073,272.35168c0,0 9.26765,-2.7457 13.7874,-2.89636c7.93581,-0.26452 17.4031,4.06527 17.4031,4.06527" fill="none" stroke="#000000" stroke-width="1" stroke-linecap="round"/></g><g stroke="#2a2b40" stroke-linecap="butt"><path d="M265.88534,312.91377l-22.51482,-128.93516l46.32726,-8.08972l22.51481,128.93516z" fill="#000000" stroke-width="2"/><path d="M263.43279,302.90419l-5.03301,-28.82239l46.76849,-8.16677l5.033,28.82239z" fill="#ffffff" stroke-width="2.5"/></g></g><g stroke-linecap="butt"><g stroke="#0c0c0c"><g><path d="M298.77518,142.76359c-1.66302,11.04494 -29.2665,16.0454 -61.65412,11.16884c-32.38761,-4.87656 -41.69071,-28.7471 -40.02768,-39.79204c1.66302,-11.04494 22.64549,4.76031 55.0331,9.63687c32.38761,4.87656 48.31172,7.94139 46.6487,18.98633z" fill="#fac843" stroke-width="2"/><path d="M297.75245,142.03214c-1.66302,11.04494 -29.2665,16.0454 -61.65412,11.16884c-32.38761,-4.87656 -39.64144,-26.24044 -37.97842,-37.28538c1.66302,-11.04494 5.76011,28.21687 38.14771,33.09343c32.38761,4.87656 63.14784,-18.02182 61.48482,-6.97688z" fill="#e47816" stroke-width="0"/></g><g><path d="M295.8774,105.47192c-1.66302,11.04494 -29.2665,16.0454 -61.65412,11.16884c-32.38761,-4.87656 -41.69071,-28.7471 -40.02768,-39.79204c1.66302,-11.04494 22.64549,4.76031 55.0331,9.63687c32.38761,4.87656 48.31172,7.94139 46.6487,18.98633z" fill="#fac843" stroke-width="2"/><path d="M294.85468,104.74046c-1.66302,11.04494 -29.2665,16.0454 -61.65412,11.16884c-32.38761,-4.87656 -39.64145,-26.24045 -37.97843,-37.28539c1.66302,-11.04494 5.76011,28.21687 38.14772,33.09343c32.38761,4.87656 63.14784,-18.02182 61.48482,-6.97688z" fill="#e47816" stroke-width="0"/></g><g><path d="M297.32431,179.26462c-1.66302,11.04494 -29.2665,16.0454 -61.65412,11.16884c-32.38761,-4.87656 -41.69071,-28.7471 -40.02768,-39.79204c1.66302,-11.04494 22.64549,4.76031 55.0331,9.63687c32.38761,4.87656 48.31172,7.94139 46.6487,18.98633z" fill="#fac843" stroke-width="2"/><path d="M296.30158,178.53317c-1.66302,11.04494 -29.2665,16.0454 -61.65412,11.16884c-32.38761,-4.87656 -39.64144,-26.24045 -37.97842,-37.28539c1.66302,-11.04494 5.76011,28.21687 38.14771,33.09343c32.38761,4.87656 63.14784,-18.02182 61.48482,-6.97688z" fill="#e47816" stroke-width="0"/></g></g><g stroke="#0c0c0c"><g data-paper-data="{&quot;index&quot;:null}"><path d="M394.69285,113.6291c32.38761,-4.87656 53.37008,-20.68181 55.0331,-9.63687c1.66302,11.04494 -7.64007,34.91547 -40.02768,39.79204c-32.38761,4.87656 -59.99109,-0.1239 -61.65412,-11.16884c-1.66302,-11.04494 14.26109,-14.10977 46.6487,-18.98633z" fill="#fac843" stroke-width="2"/><path d="M410.55169,138.86086c32.38761,-4.87656 36.4847,-44.13836 38.14772,-33.09342c1.66302,11.04494 -5.5908,32.40883 -37.97843,37.28538c-32.38761,4.87656 -59.99109,-0.1239 -61.65412,-11.16884c-1.66302,-11.04494 29.09721,11.85345 61.48482,6.97688z" fill="#e47816" stroke-width="0"/></g><g data-paper-data="{&quot;index&quot;:null}"><path d="M397.59064,76.33739c32.38761,-4.87656 53.37008,-20.68181 55.0331,-9.63687c1.66302,11.04494 -7.64007,34.91547 -40.02768,39.79204c-32.38761,4.87656 -59.99109,-0.1239 -61.65412,-11.16884c-1.66302,-11.04494 14.26109,-14.10977 46.6487,-18.98633z" fill="#fac843" stroke-width="2"/><path d="M413.44948,101.56917c32.38761,-4.87656 36.48469,-44.13837 38.14771,-33.09343c1.66302,11.04494 -5.5908,32.40883 -37.97842,37.28539c-32.38761,4.87656 -59.99109,-0.1239 -61.65412,-11.16884c-1.66302,-11.04494 29.09721,11.85345 61.48482,6.97688z" fill="#e47816" stroke-width="0"/></g><g data-paper-data="{&quot;index&quot;:null}"><path d="M396.14371,150.13011c32.38761,-4.87656 53.37008,-20.68181 55.0331,-9.63687c1.66302,11.04494 -7.64007,34.91547 -40.02768,39.79204c-32.38761,4.87656 -59.99109,-0.1239 -61.65412,-11.16884c-1.66302,-11.04494 14.26109,-14.10977 46.6487,-18.98633z" fill="#fac843" stroke-width="2"/><path d="M412.00256,175.36183c32.38761,-4.87656 36.48469,-44.13837 38.14771,-33.09343c1.66302,11.04494 -5.5908,32.40883 -37.97842,37.28539c-32.38761,4.87656 -59.99109,-0.1239 -61.65412,-11.16884c-1.66302,-11.04494 29.09721,11.85345 61.48482,6.97688z" fill="#e47816" stroke-width="0"/></g></g><path d="M263.74912,144.539c0,-31.80358 32.53018,-57.58549 72.6582,-57.58549c40.12802,0 72.6582,25.7819 72.6582,57.58549c0,31.80358 -32.53018,57.58549 -72.6582,57.58549c-40.12802,0 -72.6582,-25.7819 -72.6582,-57.58549z" fill="#fdf7c7" stroke="#000000" stroke-width="2"/><path d="M264.29826,141.61297c0,-3.52561 2.35177,-8.7085 2.62288,-9.88302c3.3547,-14.53329 30.25799,59.95585 65.9376,59.95585c40.12802,0 49.30313,4.60319 4.46071,9.66756c-39.90255,4.24795 -73.02118,-27.93679 -73.02118,-59.74039z" fill="#f2bd9d" stroke="#000000" stroke-width="0"/></g><path d="M314.5217,148.3035c0,-7.78178 8.16425,-7.13069 15.94603,-7.13069c7.78178,0 12.23431,-0.65109 12.23431,7.13069c0,7.78178 -6.30839,14.09017 -14.09017,14.09017c-7.78178,0 -14.09017,-6.30839 -14.09017,-14.09017z" fill="#1a1507" stroke="#0c0c0c" stroke-width="2" stroke-linecap="butt"/><path d="M331.5257,147.11489c0,-2.74328 2.22387,-4.96715 4.96715,-4.96715c2.74328,0 4.96715,2.22387 4.96715,4.96715c0,2.74328 -2.22387,4.96715 -4.96715,4.96715c-2.74328,0 -4.96715,-2.22387 -4.96715,-4.96715z" fill="#fdf7c7" stroke="#000000" stroke-width="0" stroke-linecap="butt"/><path d="M370.84283,146.88378c0,-7.78178 6.61769,-6.97603 14.39948,-6.97603c7.78178,0 13.78086,-0.80575 13.78086,6.97603c0,7.78179 -6.30839,14.09017 -14.09017,14.09017c-7.78178,0 -14.09017,-6.30839 -14.09017,-14.09017z" fill="#1a1507" stroke="#0c0c0c" stroke-width="2" stroke-linecap="butt"/><path d="M388.25323,145.69516c0,-2.74328 2.22387,-4.96716 4.96715,-4.96716c2.74328,0 4.96715,2.22387 4.96715,4.96716c0,2.74329 -2.22387,4.96715 -4.96715,4.96715c-2.74328,0 -4.96715,-2.22386 -4.96715,-4.96715z" fill="#fdf7c7" stroke="#000000" stroke-width="0" stroke-linecap="butt"/><path d="M343.01649,188.18184c-4.50738,2.25369 -9.05934,2.28466 -10.16709,0.06916c-1.10775,-2.21549 1.6482,-5.83848 6.15558,-8.09217c4.50738,-2.25369 9.05934,-2.28466 10.16709,-0.06916c1.10775,2.21549 -1.6482,5.83848 -6.15558,8.09217z" fill="none" stroke="#1a1507" stroke-width="2" stroke-linecap="butt"/></g></g></svg>