<svg version="1.1" xmlns="http://www.w3.org/2000/svg" xmlns:xlink="http://www.w3.org/1999/xlink" width="336.07274" height="336.07274" viewBox="0,0,336.07274,336.07274"><g transform="translate(-151.96363,-11.96363)"><g data-paper-data="{&quot;isPaintingLayer&quot;:true}" fill-rule="nonzero" stroke-linejoin="miter" stroke-miterlimit="10" stroke-dasharray="" stroke-dashoffset="0" style="mix-blend-mode: normal"><g data-paper-data="{&quot;index&quot;:null}" stroke="#000000" stroke-linecap="round"><path d="M340.22473,159.79309c0,0 16.78812,-0.97838 16.52224,5.4375c-0.72161,17.41399 -29.59455,10.6959 -29.59455,10.6959z" data-paper-data="{&quot;origPos&quot;:null}" fill="#66c8ff" stroke-width="2"/><path d="M339.39137,161.22753c0,0 12.16287,-0.13287 12.77215,1.77504c0.19214,0.60174 -16.28526,1.88427 -16.28526,1.88427z" data-paper-data="{&quot;origPos&quot;:null}" fill="#0a0a0a" stroke-width="1"/></g><g data-paper-data="{&quot;index&quot;:null}"><g><g><g data-paper-data="{&quot;origRot&quot;:0}" stroke="#000000" stroke-width="3" stroke-linecap="round"><path d="M277.03116,227.76257c0,0 -10.95877,-27.62157 -8.11195,-29.11799c5.13303,-2.69817 18.06248,-5.62561 18.06248,-5.62561l10.85634,-3.44029l-4.21756,0.92014c0,0 1.46857,-16.77785 3.69989,-20.07079c1.17228,-1.73001 11.33942,-2.23304 13.49612,-0.89617c4.83814,2.99903 12.10135,40.64705 7.91239,43.1134c-10.54598,4.36916 -32.83962,13.7112 -32.83962,13.7112c0,0 -8.33327,3.75607 -8.85805,1.40617z" data-paper-data="{&quot;origPos&quot;:null}" fill="#582700"/><path d="M279.01949,195.8953l7.72171,28.43601" fill="none"/><path d="M283.33348,194.79988l7.43903,28.52707" data-paper-data="{&quot;origPos&quot;:null}" fill="none"/></g><path d="M279.36913,195.71635l2.78003,-0.87758l7.70804,29.14791l-2.78003,0.87758z" fill="#ffffff" stroke="none" stroke-width="0" stroke-linecap="butt"/><path d="M317.50295,212.84917l-26.27295,10.83849l-6.64379,-28.97728l13.12947,-4.14917l-0.38957,-1.9287l-3.0545,0.53461l3.45162,-18.139l1.5029,-0.38785l7.51447,-1.93919l4.43899,2.40558l3.61087,7.43864l4.9254,23.07944l-0.66132,11.07766z" fill="#66c8ff" stroke="#000000" stroke-width="0.5" stroke-linecap="round"/></g><g fill="#fffc96" stroke="#000000" stroke-width="2" stroke-linecap="round"><path d="M288.12903,193.08018c0,0 4.82971,3.12848 13.04812,5.57765c8.33386,2.48359 15.50052,3.10301 15.50052,3.10301l1.31991,-1.78569c0,0 3.05274,1.87219 1.8594,3.94154c-2.92077,5.06479 -38.37052,-6.41078 -35.8536,-11.41599c1.57313,-3.12836 6.16681,-1.29849 6.16681,-1.29849z"/><path d="M295.91176,184.72416c0,0 1.18247,6.37575 5.16092,14.60648c3.97841,8.23076 7.68987,13.04056 7.68987,13.04056l1.00682,-1.28503c0,0 2.65517,2.93206 0.58608,5.53737c-3.41646,4.30192 -21.62959,-31.73885 -17.17207,-35.34348c2.1235,-1.71719 3.81172,2.34684 3.81172,2.34684z" data-paper-data="{&quot;index&quot;:null}"/></g></g><g><g data-paper-data="{&quot;index&quot;:null}"><path d="M270.18539,195.13712c2.31076,-1.07241 4.60283,-6.31344 5.47318,-4.27892c0.5798,1.35539 3.89081,22.36112 2.89435,24.13103c-0.49927,0.8868 -1.53465,1.79089 -2.30598,2.14888c-1.1337,0.52615 -2.3136,0.3934 -3.35917,-0.20032c-1.08552,-0.61642 -9.57088,-19.36605 -10.0142,-20.40235c-0.87034,-2.03455 5.00104,-0.32595 7.3118,-1.39836z" fill="#0091d4" stroke="#000000" stroke-width="1.5" stroke-linecap="butt"/><g stroke-linecap="butt"><path d="M267.28527,188.41678c4.18652,-1.94295 8.48921,-1.39352 9.6103,1.22717c1.12109,2.6207 -1.36396,6.32027 -5.55049,8.26321c-4.18653,1.94293 -8.48922,1.39348 -9.61031,-1.22721c-1.12113,-2.62068 1.36389,-6.32024 5.55044,-8.26318z" fill="#0091d4" stroke="#000000" stroke-width="1.5"/><path d="M273.55771,192.61292l2.79158,-3.02643c0,0 0.04057,1.98101 -0.26695,2.77754c-0.66926,1.66208 -2.09278,2.73906 -2.09278,2.73906z" fill="#00aeff" stroke="none" stroke-width="0"/><path d="M270.5379,194.90235l1.40565,-0.98205c0,0 0.49933,0.87056 0.61562,1.20408c0.13615,0.39052 0.16341,1.1806 0.16341,1.1806l-1.80992,0.89618z" fill="#00aeff" stroke="none" stroke-width="0"/></g><g><path d="M269.66483,194.27408c-5.77537,2.68031 -10.35611,0.94362 -12.69841,-4.53175c-2.34228,-5.47535 0.73678,-12.22419 6.51221,-14.90454c5.77542,-2.6803 11.52411,-0.70098 13.86641,4.77439c2.34226,5.47534 -1.90474,11.98155 -7.68017,14.6619z" fill="#00699a" stroke="#000000" stroke-width="1.5" stroke-linecap="butt"/><path d="M265.7643,174.69345c0,0 8.46981,-1.26513 10.51913,3.5254c1.16213,2.71655 0.97158,6.17959 0.11248,9.04832c-0.61207,2.04383 -2.06132,3.96982 -4.10278,4.91725c-4.19626,1.94741 -6.44637,0.86843 -8.49569,-3.9221c-1.0234,-2.39233 -0.80293,-6.01629 0.15443,-8.81541c0.95969,-2.80591 1.81241,-4.75347 1.81241,-4.75347z" fill="#0091d4" stroke="none" stroke-width="0" stroke-linecap="butt"/><path d="M277.04861,179.82167c0,0 -1.24383,5.07972 -7.82745,8.40568c-6.63756,3.35322 -11.12966,1.43492 -11.12966,1.43492" fill="none" stroke="#000000" stroke-width="0.8" stroke-linecap="round"/><path d="M277.70504,184.73082c0,0 -3.01855,3.91504 -6.99223,6.48505c-5.72659,3.70373 -8.92019,2.92013 -8.92019,2.92013" fill="none" stroke="#000000" stroke-width="0.75" stroke-linecap="round"/><path d="M274.31649,176.00614c0,0 -1.66629,4.60143 -8.09018,8.28149c-6.17862,3.53957 -8.93049,2.55044 -8.93049,2.55044" fill="none" stroke="#000000" stroke-width="0.8" stroke-linecap="round"/><path d="M256.81818,185.56078c0,0 3.05379,-3.98322 5.94693,-6.29415c3.81072,-3.04388 8.24282,-5.04879 8.24282,-5.04879" fill="none" stroke="#000000" stroke-width="0.8" stroke-linecap="round"/><path d="M267.14116,194.58657c0,0 -3.6354,-1.95566 -6.34945,-7.61124c-2.53266,-5.27764 -0.74535,-8.97377 -0.74535,-8.97377" fill="none" stroke="#000000" stroke-width="0.8" stroke-linecap="round"/><path d="M262.05229,176.74472c0,0 0.97848,2.82331 2.53291,5.67614c1.36698,2.5088 3.27802,4.97982 3.99572,6.41125c0.85243,1.70014 1.90099,4.72539 1.90099,4.72539" fill="none" stroke="#000000" stroke-width="0.8" stroke-linecap="round"/><path d="M264.48135,175.0309c0,0 4.80627,2.856 6.52558,6.56239c2.6985,5.81731 2.06688,10.63099 2.06688,10.63099" fill="none" stroke="#000000" stroke-width="0.8" stroke-linecap="round"/><path d="M267.99413,173.92201c0,0 3.61606,1.91954 5.85842,5.33863c3.2291,4.92363 3.00487,8.47044 3.00487,8.47044" fill="none" stroke="#000000" stroke-width="0.8" stroke-linecap="round"/><path d="M275.10293,179.29085c-0.4118,0.1911 -0.90188,-0.01913 -1.09457,-0.46961c-0.19273,-0.45048 -0.01509,-0.97059 0.39671,-1.1617c0.4118,-0.19112 0.90188,0.01912 1.09457,0.4696c0.19272,0.45048 0.01508,0.97059 -0.39672,1.1617z" fill="#00aeff" stroke="none" stroke-width="0" stroke-linecap="butt"/><path d="M272.9686,176.63175c-0.23758,0.11026 -0.5083,0.01703 -0.60465,-0.20819c-0.09634,-0.22523 0.01817,-0.49721 0.25573,-0.60748c0.23755,-0.11026 0.50827,-0.01704 0.60462,0.20818c0.09636,0.22521 -0.01815,0.49718 -0.25571,0.60745z" fill="#00aeff" stroke="none" stroke-width="0" stroke-linecap="butt"/></g></g><path d="M274.06969,195.79544c0.57657,-0.7889 2.73422,-1.35154 2.73422,-1.35154l5.1855,-1.66016c0,0 1.30744,0.28411 1.67745,0.91117c1.11006,1.88116 2.6204,5.75641 4.43356,9.69758c0.30137,0.65509 -0.64965,1.2624 -0.64965,1.2624c0,0 -1.61564,0.71374 -2.64975,1.17055c-1.57486,0.69572 -4.03535,1.78265 -4.03535,1.78265c0,0 -1.19164,0.6972 -1.71622,-0.5156c0,0 -1.35582,-1.38571 -4.9798,-11.29705z" fill="#582700" stroke="#000000" stroke-width="3" stroke-linecap="round"/><path d="M262.43818,202.37388c0.97423,-1.51471 4.91751,-2.39368 4.91751,-2.39368l9.43855,-2.72977c0,0 2.46731,0.7202 3.23366,2.01969c2.29909,3.89852 5.59115,11.83997 9.45459,19.94843c0.64218,1.34776 -1.05115,2.45536 -1.05115,2.45536c0,0 -2.91634,1.24428 -4.78293,2.04068c-2.84266,1.21284 -7.28396,3.10777 -7.28396,3.10777c0,0 -2.12971,1.26012 -3.25652,-1.23122c0,0 -2.69446,-2.93377 -10.66978,-23.21724z" fill="#582700" stroke="#000000" stroke-width="3" stroke-linecap="round"/></g></g><g data-paper-data="{&quot;origRot&quot;:0,&quot;index&quot;:null}" stroke="#000000" stroke-linecap="round"><path d="M319.86069,263.02233c0,0 0.37389,4.24982 -0.80154,6.24019c-0.89981,1.52373 -2.92835,1.87611 -4.85563,2.10276c-5.29013,0.62211 -10.2455,-1.25877 -18.48915,-2.12261c-2.24521,-0.23526 -3.11929,-3.28678 -2.70836,-5.25232c0.38435,-1.83838 1.17987,-5.01319 1.17987,-5.01319l7.24963,-30.83025c0,0 1.086,-3.96445 3.03046,-4.4933c4.68258,-1.27359 9.28638,0.59177 14.1763,0.85821c1.65712,0.09031 1.18528,4.63724 1.18528,4.63724z" data-paper-data="{&quot;origPos&quot;:null}" fill="#ff0000" stroke-width="3"/><path d="M293.9684,259.99353l24.90718,2.69084c0,0 0.90633,2.4822 0.64749,4.0716c-0.24571,1.50875 -1.94039,3.86703 -1.94039,3.86703c0,0 -9.156,0.26827 -13.33889,-0.05576c-5.45189,-0.42234 -11.569,-3.40167 -11.569,-3.40167z" data-paper-data="{&quot;origPos&quot;:null}" fill="#976e57" stroke-width="2"/><path d="M319.74333,263.31959c0,0 0.37388,4.24982 -0.80155,6.24019c-0.89981,1.52371 -2.92834,1.87611 -4.85562,2.10276c-5.29013,0.62211 -10.2455,-1.25878 -18.48915,-2.12262c-2.2452,-0.23527 -3.11929,-3.28678 -2.70836,-5.25232c0.38435,-1.83837 1.17989,-5.01319 1.17989,-5.01319l7.24963,-30.83025c0,0 1.08599,-3.96444 3.03045,-4.49329c4.68259,-1.27361 9.2864,0.59175 14.17631,0.85819c1.65712,0.0903 1.18528,4.63723 1.18528,4.63723z" data-paper-data="{&quot;origPos&quot;:null}" fill="#4b4b4b" stroke-width="3"/></g><path d="M325.99242,263.70893c0,0 -1.29844,-12.03404 -2.1295,-19.73644c-0.58884,-5.45737 -1.50881,-13.98379 -1.50881,-13.98379c0,0 -0.96247,-4.48604 0.67722,-4.7163c4.83852,-0.67947 9.21897,-2.92623 14.01805,-2.05517c1.99282,0.36169 3.50348,4.21589 3.50348,4.21589l10.55776,30.07426c0,0 1.13596,3.09281 1.71778,4.89016c0.62206,1.92166 0.08273,5.03319 -2.12664,5.45757c-8.11209,1.55818 -12.84079,3.85021 -18.174,3.6791c-1.94297,-0.06234 -4.00036,-0.24128 -5.06119,-1.68176c-1.38572,-1.88164 -1.47419,-6.14357 -1.47419,-6.14357z" data-paper-data="{&quot;index&quot;:null}" fill="#4b4b4b" stroke="#000000" stroke-width="3" stroke-linecap="round"/><g data-paper-data="{&quot;index&quot;:null}"><path d="M341.79663,209.98397c0,0 1.85719,14.9181 -0.49484,15.30403c-7.05616,1.15786 -25.7991,1.29314 -41.7458,2.09931c-1.79139,0.09057 -2.44877,-14.12623 -2.44877,-14.12623l0.03144,-29.18022c0,0 0.58686,-12.92257 2.22898,-13.00558c10.62248,-0.53702 26.45837,-2.22414 33.51123,-1.01492c2.35095,0.40308 5.32086,13.98036 5.32086,13.98036z" data-paper-data="{&quot;origPos&quot;:null}" fill="#66c8ff" stroke="#000000" stroke-width="3.5" stroke-linecap="round"/><path d="M318.46259,192.8493c-1.38736,0.07012 -1.54012,-2.29191 -1.54012,-2.29191l-0.10186,-1.5747c-0.31689,-4.89906 -0.63374,-9.79811 -0.95062,-14.69717c0,0 -0.1528,-2.36204 1.23455,-2.43218c1.38735,-0.07014 1.54012,2.29191 1.54012,2.29191c0.31687,4.89905 0.7356,11.3728 1.05248,16.27186c0,0 0.1528,2.36203 -1.23455,2.43217z" fill="#ffffff" stroke="none" stroke-width="0.5" stroke-linecap="butt"/><path d="M305.81669,193.09167c-1.38736,0.07015 -1.57927,-2.89726 -1.57927,-2.89726l-0.12795,-1.97826c-0.39809,-6.1546 -0.79617,-12.30919 -1.19426,-18.46379c0,0 -0.19194,-2.9674 1.19541,-3.03754c1.38736,-0.07015 1.57927,2.89726 1.57927,2.89726c0.39809,6.1546 0.92411,14.28745 1.3222,20.44205c0,0 0.19194,2.96739 -1.19541,3.03753z" fill="#ffffff" stroke="none" stroke-width="0.5" stroke-linecap="butt"/></g><g data-paper-data="{&quot;index&quot;:null}" fill="none" stroke="#b9b9b9" stroke-width="3"><path d="M302.67686,174.5117c-1.27597,1.81679 -2.27499,0.70169 -3.49001,-0.52093c-0.95138,-0.95733 -2.44995,-1.95438 -0.90989,-3.90655c0.72637,-0.92069 1.9775,-0.51744 3.19249,0.70516c1.215,1.22262 2.11091,2.43589 1.20742,3.72232z" stroke-linecap="butt"/><path d="M304.25983,176.43609l-2.57534,-2.53106" stroke-linecap="round"/><path d="M307.89145,177.16989c1.215,1.22263 2.1109,2.4359 1.20741,3.72233c-1.27598,1.81679 -2.27501,0.70168 -3.49001,-0.52093c-0.95138,-0.95733 -2.44994,-1.95438 -0.90988,-3.90655c0.72636,-0.92069 1.97748,-0.51744 3.19248,0.70516z" stroke-linecap="butt"/><path d="M310.68184,182.81661l-2.57534,-2.53106" stroke-linecap="round"/><path d="M316.49311,182.57555c0.49708,2.25645 -0.8814,2.51271 -2.46485,2.90387c-1.23988,0.30628 -2.837,1.09286 -3.26933,-1.48737c-0.20389,-1.21695 0.83055,-2.12907 2.414,-2.52024c1.58345,-0.39116 2.96822,-0.49404 3.3202,1.10371z" stroke-linecap="butt"/><path d="M315.47284,183.12831l3.31422,-0.8651" stroke-linecap="round"/><path d="M324.07642,178.58951c1.2304,1.8453 0.0486,2.7044 -1.2758,3.78005c-1.03705,0.84226 -2.23863,2.28691 -3.52027,0.11521c-0.60446,-1.02426 0.03592,-2.32942 1.36032,-3.40506c1.32439,-1.07564 2.5645,-1.79688 3.43575,-0.49023z" stroke-linecap="butt"/><path d="M326.08214,177.26456l-2.75614,2.29393" stroke-linecap="round"/><path d="M331.00755,172.88513c1.23041,1.84531 0.04862,2.70441 -1.27578,3.78005c-1.03704,0.84226 -2.23863,2.28689 -3.52027,0.1152c-0.60445,-1.02426 0.03592,-2.32942 1.36033,-3.40506c1.32438,-1.07564 2.5645,-1.79685 3.43575,-0.49022z" stroke-linecap="butt"/><path d="M333.01329,171.56017l-2.75614,2.29393" stroke-linecap="round"/></g><path d="M295.78093,170.95741c0,0 -2.21771,-3.90726 -2.4059,-4.94392c-0.56455,-3.10997 -2.07985,-16.7841 -3.40564,-29.14714c-0.20507,-1.91225 1.13385,-5.06197 1.13385,-5.06197c0,0 2.09138,-1.79014 3.38525,-1.92324c14.27528,-1.46836 27.74546,-3.91959 33.20169,-2.94493c1.81874,0.32487 5.22841,1.68433 5.22841,1.68433c0,0 1.18367,4.16625 1.43828,5.24332c0.08489,0.35901 0.1337,0.56101 0.19566,0.92421c1.85633,10.8828 2.75735,23.59809 2.85052,28.0604c0.03106,1.48745 -1.58551,3.97355 -1.58551,3.97355c0,0 -1.14147,2.76826 -5.57224,3.9891c-4.84803,1.33583 -16.90706,2.15072 -29.34511,2.95503z" data-paper-data="{&quot;index&quot;:null}" fill="#582700" stroke="#000000" stroke-width="2.5" stroke-linecap="round"/><path d="M301.91859,152.91548c0.35616,3.32117 0.22035,6.05499 -0.30331,6.10613c-0.52365,0.05114 -1.23689,-2.59976 -1.59304,-5.92093c-0.35615,-3.32117 -0.22034,-6.05499 0.30332,-6.10613c0.52365,-0.05114 1.23689,2.59975 1.59304,5.92092z" data-paper-data="{&quot;index&quot;:null}" fill="none" stroke="#000000" stroke-width="2.5" stroke-linecap="butt"/><path d="M307.55538,152.62293c0.36274,3.3827 0.3384,6.15597 -0.05434,6.19434c-0.39274,0.03835 -1.00518,-2.67276 -1.36793,-6.05544c-0.36274,-3.38269 -0.33841,-6.15599 0.05433,-6.19436c0.39272,-0.03837 1.00519,2.67277 1.36794,6.05545z" data-paper-data="{&quot;index&quot;:null}" fill="none" stroke="#000000" stroke-width="2.5" stroke-linecap="butt"/><path d="M337.38812,129.07251c-0.60057,1.07383 -1.74118,0.51275 -1.74118,0.51275l-0.78712,-0.43214c-0.09493,-0.02048 -0.18977,-0.04045 -0.28452,-0.05998c-0.19442,0.32248 -0.59825,0.71574 -1.37786,0.55543c-0.71855,-0.14777 -0.93577,-0.59703 -0.98989,-0.95532c-2.76539,-0.36901 -5.49778,-0.40829 -8.35754,-0.36707c-7.98028,0.3716 -15.9154,1.32425 -23.86085,2.12245c-2.60574,0.26178 -8.3294,1.83267 -10.68511,0.42552c-1.14888,-0.68626 -0.93908,-2.58841 -1.15416,-3.59303c-0.62323,-2.91113 -1.33811,-5.91819 -1.67629,-8.87353c-0.41456,-3.86565 -2.33332,-7.1623 -3.26932,-10.90064c-0.46925,-1.87415 -1.36468,-3.71573 0.26422,-5.53938c0.45991,-0.51492 1.38661,-0.3344 2.09225,-0.44012c2.5789,-0.3864 5.10643,-0.47113 7.70245,-0.44126c8.22681,0.09467 16.31744,-0.2089 24.54027,0.35904c3.31746,0.2328 6.60688,-0.02964 9.92587,-0.25587c1.95065,-0.13294 3.66669,-0.83179 5.05868,1.13929c0.83129,1.17709 0.74255,5.08769 0.84422,6.52163c0.39207,5.52926 2.05887,12.19885 1.43643,17.86267c0.12428,0.02521 0.24867,0.05119 0.37323,0.07786l1.40623,0.64679c0,0 1.14062,0.56108 0.54005,1.63491z" data-paper-data="{&quot;index&quot;:null}" fill="#000000" stroke="none" stroke-width="0.5" stroke-linecap="butt"/><g data-paper-data="{&quot;index&quot;:null}"><g stroke="#000000" stroke-width="3" stroke-linecap="round"><path d="M364.58058,192.44887c0,0 6.66317,8.24565 7.96038,12.52969c-12.66288,11.41657 -22.89417,12.55883 -22.89417,12.55883c-1.76567,1.08039 -4.72971,-5.36729 -4.72971,-5.36729c0,0 -6.22703,-12.40363 -10.21265,-20.34255c-2.61709,-5.21302 -6.70603,-13.35774 -6.70603,-13.35774c0,0 -2.35011,-5.27691 -1.34832,-5.79015c6.02688,-3.08779 11.22691,-7.18705 14.75547,-7.70638c1.17619,-0.1731 4.74636,4.19588 4.74636,4.19588l18.42867,23.27972z" data-paper-data="{&quot;origPos&quot;:null}" fill="#582700"/><path d="M367.38482,197.33911l-22.85849,12.77424l-1.7519,-2.83861l22.76196,-13.00696z" data-paper-data="{&quot;origPos&quot;:null}" fill="none"/></g><path d="M342.34515,206.99965l-15.40896,-32.51148l0.78671,-1.19754l14.01602,-7.97973l22.91007,28.93698z" fill="#66c8ff" stroke="#000000" stroke-width="1" stroke-linecap="round"/><path d="M344.26362,209.76043l-1.21173,-1.93876l22.69797,-12.71961l1.21174,1.93873z" fill="#ffffff" stroke="none" stroke-width="0" stroke-linecap="butt"/></g><path d="M303.17946,146.7874c-0.319,-0.6613 0.38561,-0.9632 0.38561,-0.9632l0.56119,-0.22678c0.90778,-0.57895 1.88361,-0.97828 2.90911,-1.19504c0.07504,-0.03473 0.15045,-0.06925 0.22626,-0.10353c0.02008,-0.00994 0.04034,-0.02 0.06078,-0.03014l0.02949,-0.01603l-0.03819,-0.08604l0.74789,-0.29512c0.07247,-0.03047 0.15115,-0.0509 0.23429,-0.05925c0.42487,-0.0427 0.80504,0.24632 0.84911,0.64552c0.03264,0.29561 -0.12816,0.56875 -0.38632,0.70794c-0.13118,0.13709 -0.28435,0.20271 -0.28435,0.20271c-0.16272,0.06965 -0.32329,0.13964 -0.48209,0.2105c-0.66166,0.34458 -1.18914,0.81012 -1.77189,0.8817c-0.12281,0.06897 -0.24544,0.1398 -0.36813,0.21271l-0.60611,0.54804c-0.12044,0.11099 -0.27998,0.18606 -0.46049,0.20421c-0.26312,0.02644 -0.50909,-0.07436 -0.66872,-0.24973c-0.19781,0.05603 -0.68675,0.1313 -0.93747,-0.38847z" data-paper-data="{&quot;index&quot;:null}" fill="#582700" stroke="none" stroke-width="0.5" stroke-linecap="butt"/><path d="M317.88036,159.65216c0.7019,-0.3074 1.02675,0.35137 1.02675,0.35137l0.60971,1.24951c0.70383,4.15152 -3.6614,4.54867 -7.05783,3.76121c0,0 -0.75019,-0.17466 -0.562,-0.88031c0.18819,-0.70564 0.93839,-0.53099 0.93839,-0.53099c1.86023,0.43502 5.91579,0.83726 5.20853,-1.90131l-0.54064,-1.08328c0,0 -0.32485,-0.65875 0.37707,-0.96615z" data-paper-data="{&quot;index&quot;:null}" fill="#000000" stroke="none" stroke-width="0.5" stroke-linecap="butt"/><path d="M151.96363,348.03637v-336.07274h336.07274v336.07274z" data-paper-data="{&quot;index&quot;:null}" fill="none" stroke="#000000" stroke-width="0" stroke-linecap="butt"/></g></g></svg>