<svg version="1.1" xmlns="http://www.w3.org/2000/svg" xmlns:xlink="http://www.w3.org/1999/xlink" width="200.58095" height="291.41845" viewBox="0,0,200.58095,291.41845"><g transform="translate(-255.70495,-52.92133)"><g data-paper-data="{&quot;isPaintingLayer&quot;:true}" fill-rule="nonzero" stroke-linejoin="miter" stroke-miterlimit="10" stroke-dasharray="" stroke-dashoffset="0" style="mix-blend-mode: normal"><g data-paper-data="{&quot;index&quot;:null}" stroke="#000000" stroke-linecap="butt"><path d="M353.56267,212.34808c1.7149,-2.27565 -12.98461,-7.64627 -20.46143,-13.8123c-6.06277,-4.99988 -7.84213,-11.27934 -0.76339,-10.81055c6.46195,4.86966 78.46897,-0.65092 58.40598,25.97229c-20.063,26.62321 -41.56572,44.25795 -48.02767,39.38828c-6.46195,-4.86966 -9.2165,-14.11453 10.8465,-40.73773z" fill="#303145" stroke-width="2"/><path d="M365.65246,220.37718c11.72144,8.83317 14.24251,25.25757 5.63096,36.68492c-8.61155,11.42735 -25.0947,13.53035 -36.81614,4.69718c-11.72144,-8.83317 -14.2425,-25.25756 -5.63095,-36.68491c8.61155,-11.42735 25.09469,-13.53036 36.81613,-4.69719z" fill="#faddbf" stroke-width="2"/><path d="M371.48396,256.13952c-8.61154,11.42736 -25.09469,13.53036 -36.81613,4.69719c-11.72144,-8.83317 24.31541,-9.73949 32.92696,-21.16684c8.61155,-11.42737 12.50072,5.0423 3.88917,16.46965z" fill="#ef8b89" stroke-width="0"/></g><g stroke="#000000" stroke-linecap="butt"><path d="M338.43857,326.12116l-22.32331,-92.64336l28.67138,-6.90865l22.32331,92.64336z" fill="#7485a3" stroke-width="2"/><path d="M337.97713,325.59673l-20.68041,-91.48685c0,0 21.01375,64.99826 24.3638,73.87668c0.7406,1.96274 3.10564,2.12139 3.10564,2.12139l21.16673,8.41468z" fill="#49374f" stroke-width="0"/></g><g data-paper-data="{&quot;index&quot;:null}" stroke="#000000" stroke-linecap="butt"><path d="M305.46149,322.51621l-4.59504,-95.18407l29.45769,-1.42208l4.59504,95.18407z" fill="#7485a3" stroke-width="2"/><path d="M306.39742,321.52355l17.95139,-14.02087c0,0 2.2253,-0.8165 2.38482,-2.90824c0.72161,-9.46195 2.63411,-77.74587 2.63411,-77.74587l5.84699,93.61268z" fill="#49374f" stroke-width="0"/></g><g stroke="#000000" stroke-linecap="butt"><path d="M358.55338,219.29158c0,13.80271 10.04743,36.74388 4.95001,46.45977c-6.2338,11.88187 -28.61241,9.09579 -38.9397,9.09579c-13.66287,0 -32.94407,4.17018 -38.34426,-14.83216c-2.01935,-7.10576 4.35457,-32.37264 4.35457,-40.7234c0,-30.68249 15.2177,-55.55556 33.98969,-55.55556c18.77199,0 33.98969,24.87307 33.98969,55.55556z" fill="#585858" stroke-width="2"/><path d="M307.28975,234.86815c0,13.80271 62.04198,20.54886 56.94455,30.26474c-6.2338,11.88186 -28.61241,9.09579 -38.9397,9.09579c-13.66287,0 -32.94406,4.17018 -38.34425,-14.83215c-2.01936,-7.10576 4.35457,-32.37265 4.35457,-40.7234c0,-9.45244 3.34855,-28.59801 5.51953,-29.96813c5.94391,-16.76415 10.4653,25.13995 10.4653,46.16315z" fill="#303145" stroke-width="0"/></g><g stroke="#000000" stroke-linecap="butt"><g><path d="M285.05756,127.20717c7.85564,-46.12664 51.61693,-77.15141 97.74357,-69.29577c46.12664,7.85564 77.15141,51.61693 69.29577,97.74357c-7.85564,46.12664 -51.61693,77.15141 -97.74357,69.29577c-46.12664,-7.85564 -77.15141,-51.61693 -69.29577,-97.74357z" fill="#faddbf" stroke-width="2"/><path d="M285.43103,126.38875c2.52744,-14.8406 15.41971,-38.9756 20.40437,-41.38713c0.56926,-0.27541 7.20022,-7.81234 15.74162,-13.17093c10.61637,-6.66036 23.55678,-11.36278 24.12579,-11.06597c7.42397,3.87237 -28.16617,60.99186 -31.19074,86.13082c-0.00722,0.05995 1.03722,20.1619 2.55904,20.8663c2.04834,5.1596 5.76597,20.41113 15.29408,29.27677c17.75676,16.52215 44.94311,27.61757 43.39596,27.8671c-2.47487,0.39914 -15.05749,0.24452 -21.03434,-0.77338c-46.12664,-7.85564 -77.15141,-51.61693 -69.29577,-97.74357z" fill="#ef8b89" stroke-width="0"/><path d="M451.65781,155.1154c-1.9516,11.45934 -4.18137,15.1538 -4.4147,13.23568c-0.23805,-1.95684 1.46357,-9.70567 -6.45479,-15.95946c-1.91877,-1.51542 -11.11505,4.47346 -13.59775,2.80481c-1.55942,-1.04811 -6.82098,-11.48371 -8.594,-12.47143c-1.23966,-0.6906 -13.67989,6.16843 -14.98391,5.48921c-3.25228,-1.69401 -9.90885,-13.22485 -13.49635,-14.5033c-1.97553,-0.70401 -11.14048,10.1231 -13.17695,9.51877c-2.62628,-0.77936 -7.89955,-13.58754 -10.59809,-14.04711c-7.17652,-1.2222 -8.55064,5.65551 -14.72249,10.6971c-4.01062,3.27615 -11.5986,-15.21512 -15.4227,-11.36732c-4.74907,4.7785 -9.42651,9.36808 -14.21168,12.20459c-3.75414,2.22536 -11.47932,-12.19725 -14.75398,-10.09947c-15.81097,10.12863 -25.37394,16.61962 -22.32309,-1.29428c6.13468,-36.0215 44.05217,-0.8294 88.85512,-15.03081c42.88494,-13.59344 84.03005,4.80154 77.89537,40.82304z" fill="#ef8b89" stroke-width="0"/></g><path d="M454.56521,147.17999c-3.94259,23.15002 4.97579,9.6882 -11.1596,-2.77319c-1.9745,-1.52491 -11.38007,4.42832 -13.93361,2.74761c-1.60391,-1.05568 -7.04565,-11.52197 -8.86836,-12.51815c-1.27441,-0.69652 -14.00319,6.11337 -15.34354,5.42796c-3.34291,-1.70944 -10.22015,-13.27786 -13.90505,-14.57291c-2.02916,-0.71315 -11.38152,10.08205 -13.47276,9.46839c-2.69691,-0.79138 -8.16101,-13.63206 -10.93062,-14.10375c-7.36556,-1.2544 -8.74487,5.62243 -15.05273,10.64086c-4.099,3.2611 -11.96183,-15.27698 -15.86705,-11.443c-4.8498,4.76135 -9.62698,9.33394 -14.52226,12.1517c-3.84054,2.21065 -11.82634,-12.25635 -15.17568,-10.17129c-16.17155,10.06722 -25.95102,16.52134 -22.90017,-1.39256c6.13468,-36.0215 52.93895,-73.41112 98.21391,-65.70052c45.27494,7.71059 79.05223,56.21736 72.91756,92.23885z" fill="#724e36" stroke-width="2"/><path d="M454.51622,145.99212c-3.94259,23.15002 4.97579,9.6882 -11.1596,-2.77319c-1.9745,-1.52491 -11.38007,4.42832 -13.93361,2.74761c-1.60391,-1.05568 -7.04565,-11.52197 -8.86837,-12.51815c-1.27441,-0.69652 -14.00319,6.11337 -15.34354,5.42796c-3.34291,-1.70944 -10.22015,-13.27786 -13.90505,-14.57291c-2.02916,-0.71315 -11.38152,10.08205 -13.47276,9.46839c-2.69691,-0.79138 -8.16101,-13.63206 -10.93062,-14.10375c-7.36556,-1.2544 -8.74487,5.62243 -15.05273,10.64086c-4.099,3.2611 -11.96183,-15.27698 -15.86705,-11.443c-4.8498,4.76135 -9.62698,9.33394 -14.52227,12.1517c-3.84054,2.21065 -11.82634,-12.25635 -15.17568,-10.17129c-16.17155,10.06722 -25.95102,16.52134 -22.90017,-1.39256c6.13468,-36.0215 45.1762,-0.63797 91.06412,-14.6546c43.92345,-13.41657 86.20201,5.17144 80.06733,41.19293z" fill="#623728" stroke-width="0"/></g><g stroke="#000000" stroke-linecap="butt"><path d="M383.29995,167.17056c-4.79472,28.15357 -20.2492,40.46421 -36.58257,37.68254c-16.33337,-2.78167 -27.36051,-19.6023 -22.56579,-47.75586c4.79472,-28.15357 21.92243,-48.72156 38.25579,-45.93989c16.33337,2.78167 25.68729,27.85964 20.89257,56.01321z" fill="#f0f0f0" stroke-width="2"/><path d="M340.49554,140.01635c-8.98151,27.10987 23.3216,66.90671 6.98823,64.12504c-16.33337,-2.78167 -27.36051,-19.6023 -22.56579,-47.75586c4.79472,-28.15357 28.56217,-55.56204 15.57756,-16.36918z" fill="#9a99ff" stroke-width="0"/></g><path d="M380.61235,174.05024c-2.65637,15.59763 -9.43214,27.4548 -15.1341,26.48372c-5.70196,-0.97108 -8.1709,-14.40267 -5.51453,-30.0003c2.65637,-15.59763 9.43214,-27.4548 15.1341,-26.48372c5.70196,0.97108 8.1709,14.40267 5.51453,30.0003z" fill="#000000" stroke="none" stroke-width="0" stroke-linecap="butt"/><g stroke="#000000" stroke-linecap="butt"><path d="M383.43781,136.52404c2.67869,10.8333 5.00672,29.58208 -10.48055,26.94451c-15.48727,-2.63757 -43.14983,-26.4615 -37.05525,-35.17722c5.79891,-8.29287 10.28936,-19.97498 25.77663,-17.3374c15.48727,2.63757 19.20633,15.24584 21.75916,25.57011z" fill="#a100fe" stroke-width="2"/><path d="M382.58614,136.01963c2.52879,10.80777 5.33942,29.63874 -9.61977,27.0911c-14.95919,-2.54764 -42.23622,-26.30591 -36.2944,-35.04765c5.65355,-8.31762 6.30363,2.04943 21.26282,4.59707c14.95919,2.54764 22.24137,-6.94048 24.65135,3.35947z" fill="#99008e" stroke-width="0"/></g><g data-paper-data="{&quot;index&quot;:null}" stroke="#000000" stroke-linecap="butt"><path d="M425.47777,120.3987c16.33337,2.78167 25.68729,27.85964 20.89257,56.01321c-4.79472,28.15356 -20.76805,40.37585 -37.10142,37.59418c-16.33337,-2.78167 -26.84166,-19.51392 -22.04694,-47.6675c4.79472,-28.15357 21.92243,-48.72156 38.25579,-45.93989z" fill="#f0f0f0" stroke-width="2"/><path d="M445.88274,175.48664c-4.79472,28.15356 -20.76805,40.37585 -37.10142,37.59418c-16.33337,-2.78167 27.32192,-29.64233 27.8204,-58.19692c0.72065,-41.28149 14.07574,-7.55083 9.28102,20.60274z" fill="#9a99ff" stroke-width="0"/></g><path d="M438.8104,151.27771c5.70196,0.97108 8.1709,14.40267 5.51453,30.0003c-2.65637,15.59763 -9.43214,27.4548 -15.1341,26.48372c-5.70196,-0.97108 -8.1709,-14.40267 -5.51453,-30.0003c2.65637,-15.59763 9.43214,-27.4548 15.1341,-26.48372z" data-paper-data="{&quot;index&quot;:null}" fill="#000000" stroke="none" stroke-width="0" stroke-linecap="butt"/><g data-paper-data="{&quot;index&quot;:null}" stroke="#000000" stroke-linecap="butt"><path d="M397.20268,137.57119c5.82637,-8.89725 13.50925,-19.56369 28.99652,-16.92611c15.48727,2.63757 15.85767,15.14752 18.58464,24.89239c2.86601,10.24176 -30.35944,21.46442 -45.8467,18.82685c-15.48727,-2.63757 -7.8481,-17.45721 -1.73447,-26.79312z" fill="#a100fe" stroke-width="2"/><path d="M398.1733,137.37716c5.68351,-8.92158 9.4145,2.44215 24.37369,4.98979c14.95919,2.54764 19.00423,-7.0198 21.58585,2.70032c2.71324,10.21575 -31.73754,21.4326 -46.69673,18.88496c-14.95919,-2.54764 -5.22655,-17.21362 0.73718,-26.57506z" fill="#99008e" stroke-width="0"/></g><path d="M400.07212,309.24841c2.73207,11.33828 -9.16895,23.93112 -26.58168,28.12689c-17.41273,4.19576 -33.74331,-1.5944 -36.47538,-12.93268c-0.54614,-2.26654 -3.25584,-13.36939 -2.48677,-14.97243c3.07812,-6.41606 18.55458,0.94112 32.48646,-2.41589c17.41273,-4.19576 30.32531,-9.14417 33.05737,2.19412z" fill="#000082" stroke="#000000" stroke-width="2" stroke-linecap="butt"/><path d="M397.59827,307.03401c1.47777,6.13288 -11.117,13.1605 -28.52974,17.35626c-17.41273,4.19576 -30.01911,4.19127 -31.49688,-1.94161c-0.29541,-1.22598 -2.96674,-12.16966 -2.04944,-13.15754c3.67139,-3.95392 16.47209,1.96871 30.40397,-1.38831c17.41273,-4.19576 30.19431,-7.00168 31.67209,-0.8688z" fill="#2e0048" stroke="#000000" stroke-width="0" stroke-linecap="butt"/><path d="M274.75461,323.81077c-0.56237,-11.64924 13.22027,-10.52663 31.11054,-11.3903c14.31396,-0.69101 27.10114,-12.09878 31.85737,-6.8055c1.18833,1.32252 1.70607,12.73951 1.81849,15.06821c0.56237,11.64924 -13.48467,21.79294 -31.37494,22.6566c-17.89027,0.86366 -32.84909,-7.87978 -33.41146,-19.52901z" data-paper-data="{&quot;index&quot;:null}" fill="#000082" stroke="#000000" stroke-width="2" stroke-linecap="butt"/><path d="M307.14819,312.92907c14.31396,-0.69101 24.93599,-9.97045 29.5701,-7.20683c1.15782,0.69048 1.66767,11.94394 1.72847,13.20354c0.30419,6.30107 -11.79351,9.84602 -29.68378,10.70968c-17.89028,0.86366 -31.95187,-2.34372 -32.25606,-8.6448c-0.30419,-6.30107 12.75099,-7.19793 30.64126,-8.06159z" data-paper-data="{&quot;index&quot;:null}" fill="#2e0048" stroke="#000000" stroke-width="0" stroke-linecap="butt"/><g><path d="M316.42861,247.86829c-15.08599,0.18971 -23.9924,-7.28598 -24.87622,-22.19666c-0.69128,-11.66179 11.73774,-24.83538 26.82375,-25.02509c15.08606,-0.18974 26.16774,9.42067 26.35561,24.35633c0.02938,2.33565 -0.6367,4.49992 -1.22658,6.48232c-3.18228,10.6941 -14.3497,16.22306 -27.07654,16.38311z" fill="#485e84" stroke="#000000" stroke-width="2" stroke-linecap="butt"/><path d="M305.64436,205.88935c0,0 -0.36904,5.74411 1.25003,6.92393c15.5305,11.31712 29.54737,12.18052 34.20518,12.11228c1.05824,-0.0155 1.62202,-0.98659 1.62202,-0.98659c0,0 0.2484,2.09914 -0.31125,4.78257c-0.59551,2.8554 -2.05801,6.37179 -4.05958,8.70392c-2.28638,2.66393 -9.16291,7.37794 -9.16291,7.37794l-20.64988,3.52721c0,0 -10.40515,-8.52572 -11.50521,-10.39301c-1.07772,-1.82932 -1.82829,-4.30305 -2.7322,-6.90111c-1.40342,-4.03385 -1.31309,-8.57243 -0.44823,-11.31957c1.10381,-3.50597 3.86238,-7.26658 6.61757,-9.90691c2.56423,-2.45731 5.17447,-3.92052 5.17447,-3.92052z" fill="#343545" stroke="none" stroke-width="0" stroke-linecap="butt"/><path d="M308.30972,230.18061c0,0 -1.97993,-8.80216 0.18428,-13.48152c2.73964,-5.92358 11.24797,-15.70676 11.24797,-15.70676" fill="none" stroke="#000000" stroke-width="1" stroke-linecap="round"/><path d="M343.0115,218.12643c0,0 -1.41945,7.00821 -3.25333,10.89519c-1.85134,3.92412 -8.8193,10.67691 -8.8193,10.67691" fill="none" stroke="#000000" stroke-width="1" stroke-linecap="round"/><path d="M297.82156,233.39849c0,0 -2.16734,-9.00494 0.40761,-13.96665c3.95119,-7.61356 11.1879,-16.67589 11.1879,-16.67589" fill="none" stroke="#000000" stroke-width="1" stroke-linecap="round"/><path d="M293.46217,218.7495c0,0 13.58226,-10.72368 30.29794,-5.81144c18.3099,5.38073 18.20004,22.62829 18.20004,22.62829" fill="none" stroke="#000000" stroke-width="1" stroke-linecap="round"/><path d="M292.31038,228.20352c0,0 15.59521,-8.58207 30.35476,-4.27914c12.11893,3.53312 13.3854,18.06979 13.3854,18.06979" fill="none" stroke="#000000" stroke-width="1" stroke-linecap="round"/><path d="M331.46313,208.75906c-1.03317,-0.61624 -1.47519,-1.77884 -0.98736,-2.59671c0.4878,-0.81794 1.18318,-0.43008 2.21635,0.18617c1.03317,0.61624 2.01284,1.2275 1.52501,2.0454c-0.4878,0.81794 -1.72087,0.98142 -2.75399,0.36516z" fill="#8fbbbe" stroke="none" stroke-width="0" stroke-linecap="butt"/><path d="M337.1419,213.29892c-0.60144,0.00754 -1.09819,-0.71763 -1.10954,-1.61978c-0.01135,-0.90216 0.10857,-1.27206 0.71,-1.27964c0.60144,-0.00754 1.27971,0.71535 1.29102,1.6175c0.01135,0.90216 -0.2901,1.27435 -0.89151,1.28191z" fill="#8fbbbe" stroke="none" stroke-width="0" stroke-linecap="butt"/><path d="M325.48866,205.27061c-0.89826,-0.08486 -1.58052,-0.63903 -1.52397,-1.23784c0.05651,-0.59877 0.8374,-0.47098 1.73563,-0.38616c0.89826,0.08486 1.57367,0.09451 1.51714,0.69334c-0.05651,0.59877 -0.83058,1.01549 -1.7288,0.93065z" fill="#8fbbbe" stroke="none" stroke-width="0" stroke-linecap="butt"/><path d="M301.86257,208.29683c0,0 9.63494,-3.44202 17.20773,-3.17258c4.29339,0.15278 8.02466,1.76955 10.83979,3.02702c2.48957,1.112 6.96207,5.93097 10.00154,9.9757c2.2378,2.97791 3.53364,5.62135 3.53364,5.62135" fill="none" stroke="#000000" stroke-width="0.5" stroke-linecap="round"/><path d="M335.95479,205.50823c0,0 -0.27361,10.56897 -2.37941,15.5472c-1.77417,4.19427 -9.06885,12.37057 -9.06885,12.37057" fill="none" stroke="#000000" stroke-width="1" stroke-linecap="round"/><path d="M318.85951,231.86321c0,0 0.35797,-9.65919 1.65871,-13.99034c2.28385,-7.60467 9.41052,-15.1933 9.41052,-15.1933" fill="none" stroke="#000000" stroke-width="1" stroke-linecap="round"/></g><g stroke="#000000" stroke-linecap="butt"><path d="M295.12134,231.78826c31.89253,9.70489 35.10973,18.79911 32.75418,26.54002c-2.35556,7.74092 -30.11913,6.14878 -62.01167,-3.55612c-31.89253,-9.70491 29.55858,-47.64235 31.91415,-55.38327c5.44543,-4.54704 7.70474,1.57613 5.7485,9.18724c-2.41251,9.38629 -11.13119,22.38259 -8.40515,23.21213z" fill="#585858" stroke-width="2"/><path d="M322.60023,227.51496c13.68908,4.16559 21.3225,18.92525 17.04971,32.96662c-4.27279,14.04137 -18.83377,22.04729 -32.52286,17.8817c-13.68908,-4.16559 -21.3225,-18.92526 -17.0497,-32.96663c4.27279,-14.04137 18.83378,-22.04728 32.52286,-17.88169z" fill="#faddbf" stroke-width="2"/><path d="M299.8675,262.1339c13.68908,4.16559 43.34992,-16.32125 39.07712,-2.27987c-4.27279,14.04137 -18.83377,22.04729 -32.52286,17.88169c-13.68908,-4.16559 -20.24336,-19.76741 -6.55427,-15.60181z" fill="#ef8b89" stroke-width="0"/></g><path d="M312.12392,201.73098l15.58007,-91.48279c0,0 22.35698,-4.9163 32.79247,-3.13907c11.25582,1.91693 32.46788,14.2533 32.46788,14.2533l-15.58007,91.48279c0,0 -25.00978,1.62419 -36.26561,-0.29274c-10.4355,-1.77723 -28.99475,-10.82149 -28.99475,-10.82149z" fill-opacity="0.74902" fill="#fffe00" stroke="#000000" stroke-width="2.5" stroke-linecap="butt"/><path d="M307.73777,170.67961c0,6.58062 -1.9758,11.91527 -4.41306,11.91527c-2.43727,0 -4.41306,-5.33465 -4.41306,-11.91527c0,-6.58062 1.9758,-11.91527 4.41306,-11.91527c2.43727,0 4.41306,5.33465 4.41306,11.91527z" fill="#000000" stroke="none" stroke-width="0" stroke-linecap="butt"/></g></g></svg>