<svg version="1.1" xmlns="http://www.w3.org/2000/svg" xmlns:xlink="http://www.w3.org/1999/xlink" width="188.21197" height="357.01205" viewBox="0,0,188.21197,357.01205"><g transform="translate(-220.60715,-3.97582)"><g data-paper-data="{&quot;isPaintingLayer&quot;:true}" fill-rule="nonzero" stroke-linejoin="miter" stroke-miterlimit="10" stroke-dasharray="" stroke-dashoffset="0" style="mix-blend-mode: normal"><g data-paper-data="{&quot;index&quot;:null}" stroke="#000000" stroke-linecap="butt"><path d="M358.43424,199.62018c12.6325,-30.85026 21.98679,-33.20665 29.47473,-30.14051c7.48794,3.06614 3.31743,30.56083 -9.31509,61.4111c-12.63253,30.85025 -44.6829,-33.86653 -52.17084,-36.93267c-4.02021,-5.84518 2.28674,-7.5245 9.68262,-4.86802c9.12087,3.27606 21.24883,13.16707 22.3286,10.53011z" fill="#303145" stroke-width="2"/><path d="M356.73828,171.86277c5.42219,-13.24171 20.82853,-19.46756 34.41102,-13.90583c13.58249,5.56174 20.19773,20.80495 14.77553,34.04665c-5.42219,13.24171 -20.82854,19.46756 -34.41103,13.90582c-13.58249,-5.56174 -20.19772,-20.80495 -14.77552,-34.04666z" fill="#faddbf" stroke-width="2"/><path d="M389.08993,197.72041c5.42219,-13.24171 -12.21367,-44.68138 1.36882,-39.11963c13.58249,5.56174 20.19773,20.80495 14.77552,34.04666c-5.42219,13.24171 -21.56656,18.3147 -16.14434,5.07298z" fill="#ef8b89" stroke-width="0"/></g><g stroke="#000000" stroke-linecap="butt"><path d="M299.77355,331.52132l25.06469,-91.93956l28.45357,7.75705l-25.06469,91.93956z" fill="#7485a3" stroke-width="2"/><path d="M299.6218,330.83947l25.94731,-90.13468c0,0 -12.89537,67.08249 -14.23644,76.47668c-0.29647,2.07676 1.69967,3.35505 1.69967,3.35505l14.49561,17.57028z" fill="#49374f" stroke-width="0"/></g><g data-paper-data="{&quot;index&quot;:null}" stroke="#000000" stroke-linecap="butt"><path d="M248.21599,283.81798l67.79078,-66.97412l20.72723,20.97997l-67.79078,66.97412z" fill="#7485a3" stroke-width="2"/><path d="M249.57986,283.85193l22.42366,4.00215c0,0 2.09365,1.11143 3.75733,-0.16645c7.52567,-5.78045 59.63592,-49.94914 59.63592,-49.94914l-65.78506,66.85692z" fill="#49374f" stroke-width="0"/></g><g stroke="#000000" stroke-linecap="butt"><path d="M340.50652,204.25766c2.51696,13.57128 16.57931,34.29563 13.33908,44.77814c-3.96259,12.8194 -26.47403,14.16083 -36.62816,16.04404c-13.43379,2.49146 -31.63126,10.1077 -40.40603,-7.5913c-3.28125,-6.61839 -1.62168,-32.62392 -3.14446,-40.83467c-5.59503,-30.16804 4.83185,-57.39906 23.28909,-60.82218c18.45724,-3.42312 37.95546,18.25792 43.55049,48.42596z" fill="#585858" stroke-width="2"/><path d="M292.94285,228.92112c2.51696,13.57128 64.74887,8.8908 61.50863,19.37331c-3.96259,12.81939 -26.47403,14.16083 -36.62816,16.04404c-13.43379,2.49146 -31.63125,10.1077 -40.40602,-7.59129c-3.28126,-6.61838 -1.62168,-32.62393 -3.14446,-40.83467c-1.72368,-9.29395 -1.92252,-28.72913 -0.03778,-30.47216c2.78726,-17.56696 14.87417,22.81006 18.7078,43.48077z" fill="#303145" stroke-width="0"/></g><g stroke="#000000" stroke-linecap="butt"><g><path d="M224.63426,96.81022c-2.4748,-46.7253 33.39733,-86.60985 80.12263,-89.08465c46.7253,-2.4748 86.60985,33.39733 89.08465,80.12263c2.4748,46.7253 -33.39733,86.60985 -80.12263,89.08465c-46.7253,2.4748 -86.60985,-33.39733 -89.08465,-80.12263z" fill="#faddbf" stroke-width="2"/><path d="M224.81872,95.92972c-0.79622,-15.03321 6.47606,-41.41166 10.80878,-44.85982c0.49481,-0.39379 5.30705,-9.20386 12.46179,-16.30876c8.89286,-8.8309 20.48326,-16.26255 21.10361,-16.09806c8.09355,2.14594 -14.0718,65.69113 -11.49702,90.88014c0.00614,0.06007 5.4433,19.44089 7.08274,19.79359c3.13229,4.58321 10.1112,18.64468 21.35492,25.19931c20.954,12.2153 49.91425,17.06402 48.45978,17.64749c-2.32662,0.93334 -14.63554,3.54808 -20.68996,3.86874c-46.7253,2.4748 -86.60985,-33.39733 -89.08465,-80.12263z" fill="#ef8b89" stroke-width="0"/><path d="M393.29459,87.41834c0.61482,11.60807 -0.74842,15.70227 -1.39763,13.88234c-0.66232,-1.85666 -0.70546,-9.79001 -9.80473,-14.15048c-2.20493,-1.05663 -9.86001,6.80708 -12.64876,5.72492c-1.75165,-0.67973 -9.17823,-9.70368 -11.12499,-10.27755c-1.36114,-0.40124 -11.98958,9.02434 -13.411,8.64834c-3.54508,-0.93775 -12.57328,-10.72355 -16.35405,-11.18224c-2.08196,-0.25258 -8.64307,12.32415 -10.76256,12.18221c-2.73336,-0.18305 -10.69283,-11.519 -13.4264,-11.37422c-7.26966,0.38504 -7.0985,7.39659 -12.01132,13.67143c-3.19247,4.07755 -14.65917,-12.29376 -17.54402,-7.69955c-3.58266,5.70547 -7.13696,11.21088 -11.18167,15.02978c-3.17322,2.99608 -13.87949,-9.3759 -16.61299,-6.60967c-13.19813,13.3561 -21.10056,21.79024 -22.06169,3.64384c-1.93263,-36.489 42.79263,-10.4915 83.37861,-34.19303c38.8485,-22.68686 83.03056,-13.78513 84.96319,22.70387z" fill="#ef8b89" stroke-width="0"/></g><path d="M394.38675,79.03795c1.24205,23.45047 6.98352,8.35765 -11.49624,-0.25257c-2.26138,-1.05364 -10.12847,6.82129 -12.98897,5.74294c-1.79672,-0.67734 -9.40581,-9.69162 -11.4029,-10.26283c-1.39634,-0.39938 -12.31708,9.04168 -13.7753,8.66763c-3.63689,-0.93288 -12.88862,-10.70685 -16.76806,-11.16031c-2.13628,-0.24971 -8.88723,12.33708 -11.06221,12.19808c-2.8049,-0.17927 -10.95768,-11.50498 -13.76324,-11.35638c-7.46115,0.39518 -7.29525,7.40701 -12.34585,13.68915c-3.282,4.08229 -15.0271,-12.27427 -17.99414,-7.6757c-3.6847,5.71087 -7.34002,11.22163 -11.49628,15.04645c-3.26073,3.00072 -14.23101,-9.35728 -17.04016,-6.58705c-13.56339,13.37544 -21.68514,21.8212 -22.64625,3.67481c-1.93263,-36.489 35.50912,-83.25159 81.37167,-85.68069c45.86255,-2.42909 89.47534,37.46747 91.40797,73.95648z" fill="#724e36" stroke-width="2"/><path d="M394.07787,77.88989c1.24205,23.45047 6.98352,8.35765 -11.49624,-0.25257c-2.26138,-1.05364 -10.12847,6.82129 -12.98897,5.74294c-1.79672,-0.67734 -9.40581,-9.69162 -11.40292,-10.26283c-1.39634,-0.39938 -12.31708,9.04168 -13.7753,8.66763c-3.63689,-0.93288 -12.88862,-10.70685 -16.76806,-11.16031c-2.13628,-0.24971 -8.88723,12.33708 -11.06221,12.19808c-2.8049,-0.17927 -10.95768,-11.50498 -13.76324,-11.35638c-7.46115,0.39518 -7.29525,7.40701 -12.34585,13.68915c-3.282,4.08229 -15.0271,-12.27427 -17.99414,-7.6757c-3.6847,5.71087 -7.34002,11.22163 -11.49629,15.04645c-3.26073,3.00072 -14.23101,-9.35728 -17.04016,-6.58705c-13.56339,13.37544 -21.68514,21.8212 -22.64625,3.67481c-1.93263,-36.489 43.93126,-10.55181 85.61629,-34.31155c39.90049,-22.74258 85.23071,-13.90167 87.16334,22.58733z" fill="#623728" stroke-width="0"/></g><g stroke="#000000" stroke-linecap="butt"><path d="M329.25797,114.20332c1.51049,28.51897 -10.86027,43.92536 -27.40561,44.80168c-16.54535,0.87632 -30.99991,-13.10929 -32.51041,-41.62824c-1.51049,-28.51897 10.67767,-52.34855 27.22301,-53.22487c16.54535,-0.87632 31.18251,21.53247 32.69301,50.05144z" fill="#f0f0f0" stroke-width="2"/><path d="M281.53196,97.12126c-2.80331,28.42102 37.45696,60.14467 20.91162,61.02098c-16.54535,0.87632 -30.99991,-13.10929 -32.51041,-41.62824c-1.51049,-28.51897 15.65154,-60.48114 11.59879,-19.39274z" fill="#9a99ff" stroke-width="0"/></g><path d="M328.1482,121.50549c0.83684,15.80007 -3.1671,28.85655 -8.94306,29.16247c-5.77597,0.30592 -11.13671,-12.25456 -11.97355,-28.05463c-0.83684,-15.80007 3.1671,-28.85655 8.94306,-29.16247c5.77597,-0.30592 11.13671,12.25456 11.97355,28.05463z" fill="#000000" stroke="none" stroke-width="0" stroke-linecap="butt"/><g stroke="#000000" stroke-linecap="butt"><path d="M322.65656,84.27591c4.99428,9.97963 11.38624,27.75825 -4.30203,28.58918c-15.68827,0.83093 -47.91074,-16.33037 -43.88084,-26.17251c3.83438,-9.36464 5.64737,-21.74805 21.33564,-22.57898c15.68827,-0.83093 22.0876,10.65159 26.84721,20.16231z" fill="#a100fe" stroke-width="2"/><path d="M321.71484,83.97103c4.84243,9.98767 11.72326,27.7404 -3.43008,28.54299c-15.15334,0.80259 -46.98526,-16.37939 -43.11012,-26.21333c3.68715,-9.35685 6.59993,0.61382 21.75327,-0.18878c15.15334,-0.80259 20.17202,-11.65927 24.78692,-2.14089z" fill="#99008e" stroke-width="0"/></g><g data-paper-data="{&quot;index&quot;:null}" stroke="#000000" stroke-linecap="butt"><path d="M360.12424,59.30478c16.54535,-0.87632 31.18251,21.53247 32.69301,50.05144c1.5105,28.51896 -11.38584,43.95319 -27.9312,44.82951c-16.54535,0.87632 -30.47432,-13.13711 -31.98482,-41.65608c-1.51049,-28.51897 10.67767,-52.34855 27.22301,-53.22487z" fill="#f0f0f0" stroke-width="2"/><path d="M392.13821,108.56075c1.5105,28.51896 -11.38584,43.95319 -27.9312,44.82951c-16.54535,0.87632 20.13861,-34.92265 14.34878,-62.88854c-8.37038,-40.43041 12.07191,-10.45994 13.58241,18.05902z" fill="#9a99ff" stroke-width="0"/></g><path d="M379.91785,86.49827c5.77597,-0.30592 11.13671,12.25456 11.97355,28.05463c0.83684,15.80007 -3.1671,28.85655 -8.94306,29.16247c-5.77597,0.30592 -11.13671,-12.25456 -11.97355,-28.05463c-0.83684,-15.80007 3.1671,-28.85655 8.94306,-29.16247z" data-paper-data="{&quot;index&quot;:null}" fill="#000000" stroke="none" stroke-width="0" stroke-linecap="butt"/><g data-paper-data="{&quot;index&quot;:null}" stroke="#000000" stroke-linecap="butt"><path d="M336.31498,82.27203c3.72833,-9.96027 8.87893,-22.05453 24.5672,-22.88546c15.68827,-0.83093 18.79921,11.29169 23.60136,20.1989c5.04701,9.36139 -24.8993,27.61234 -40.58757,28.44327c-15.68827,0.83093 -11.49316,-15.30535 -7.58101,-25.75671z" fill="#a100fe" stroke-width="2"/><path d="M337.21922,81.8694c3.58363,-9.95261 9.72105,0.31318 24.87439,-0.48941c15.15334,-0.80259 16.9966,-11.02515 21.65151,-2.11014c4.89226,9.36958 -26.25069,27.8842 -41.40403,28.6868c-15.15334,0.80259 -8.88219,-15.64392 -5.12187,-26.08723z" fill="#99008e" stroke-width="0"/></g><path d="M361.91269,346.42476c-3.06757,11.25215 -19.56291,16.55478 -36.84335,11.84376c-17.28045,-4.71102 -28.80225,-17.65173 -25.73468,-28.90388c0.61322,-2.24933 3.58699,-13.28438 5.03315,-14.3187c5.78813,-4.13983 15.80659,9.76267 29.63264,13.53195c17.28045,4.71102 30.97984,6.59471 27.91225,17.84686z" fill="#000082" stroke="#000000" stroke-width="2" stroke-linecap="butt"/><path d="M360.81148,343.29253c-1.65926,6.08629 -16.08171,6.17777 -33.36217,1.46674c-17.28045,-4.71102 -28.32563,-10.78759 -26.66638,-16.87387c0.33169,-1.21667 3.26241,-12.09375 4.54214,-12.51759c5.122,-1.69639 13.48664,9.66002 27.31269,13.4293c17.28045,4.71102 29.83297,8.40914 28.17372,14.49542z" fill="#2e0048" stroke="#000000" stroke-width="0" stroke-linecap="butt"/><path d="M236.20663,255.14776c9.65225,-6.54637 15.87109,5.80464 25.92466,20.62805c8.04383,11.86018 24.44163,16.83623 22.39947,23.65314c-0.51023,1.70319 -9.98746,8.09051 -11.91697,9.39914c-9.65225,6.54637 -25.62697,-0.1635 -35.68053,-14.98692c-10.05356,-14.82341 -10.37888,-32.14704 -0.72663,-38.69341z" data-paper-data="{&quot;index&quot;:null}" fill="#000082" stroke="#000000" stroke-width="2" stroke-linecap="butt"/><path d="M262.36523,277.13602c8.04383,11.86018 21.49716,16.09613 21.55101,21.49147c0.01345,1.34801 -9.32827,7.64344 -10.37194,8.35128c-5.22091,3.54093 -14.54707,-4.94102 -24.60063,-19.76443c-10.05357,-14.82342 -14.63787,-28.49821 -9.41696,-32.03914c5.22091,-3.54093 12.78497,7.13741 22.83853,21.96082z" data-paper-data="{&quot;index&quot;:null}" fill="#2e0048" stroke="#000000" stroke-width="0" stroke-linecap="butt"/><g><path d="M298.30653,235.45763c-15.02015,1.42053 -24.50707,-5.30318 -26.60509,-20.09196c-1.64091,-11.56645 9.67128,-25.71064 24.69146,-27.13117c15.02022,-1.42057 26.84942,7.25318 28.25584,22.12366c0.21994,2.32546 -0.26725,4.53688 -0.69335,6.56081c-2.2987,10.91818 -12.97754,17.34027 -25.64884,18.53868z" fill="#485e84" stroke="#000000" stroke-width="2" stroke-linecap="butt"/><path d="M284.13158,194.49909c0,0 0.10108,5.75507 1.81106,6.79878c16.40248,10.01162 30.44305,9.72795 35.07974,9.27972c1.05345,-0.10183 1.53607,-1.1157 1.53607,-1.1157c0,0 0.41893,2.07186 0.08018,4.79203c-0.36044,2.89448 -1.53102,6.51852 -3.33555,9.00625c-2.0613,2.84167 -8.53008,8.10128 -8.53008,8.10128l-20.29305,5.20106c0,0 -11.06637,-7.64791 -12.31519,-9.41917c-1.22344,-1.73525 -2.17344,-4.13945 -3.28641,-6.65506c-1.72802,-3.90583 -2.00847,-8.43663 -1.37074,-11.24521c0.81393,-3.58437 3.25632,-7.55761 5.7868,-10.41403c2.35509,-2.65842 4.83718,-4.32983 4.83718,-4.32983z" fill="#343545" stroke="none" stroke-width="0" stroke-linecap="butt"/><path d="M288.77091,218.49171c0,0 -2.69183,-8.61117 -0.91682,-13.45157c2.24696,-6.12745 9.92831,-16.5725 9.92831,-16.5725" fill="none" stroke="#000000" stroke-width="1" stroke-linecap="round"/><path d="M322.37291,203.64509c0,0 -0.84263,7.10069 -2.3531,11.1244c-1.52485,4.06214 -7.91832,11.36119 -7.91832,11.36119" fill="none" stroke="#000000" stroke-width="1" stroke-linecap="round"/><path d="M278.58042,222.55499c0,0 -2.89517,-8.79797 -0.73383,-13.95331c3.31652,-7.91069 9.78933,-17.5335 9.78933,-17.5335" fill="none" stroke="#000000" stroke-width="1" stroke-linecap="round"/><path d="M273.0398,208.31074c0,0 12.66157,-11.7966 29.72245,-8.26524c18.68802,3.86815 19.98643,21.06712 19.98643,21.06712" fill="none" stroke="#000000" stroke-width="1" stroke-linecap="round"/><path d="M272.66357,217.82724c0,0 14.84263,-9.82645 29.90415,-6.74269c12.3669,2.53207 14.81575,16.91685 14.81575,16.91685" fill="none" stroke="#000000" stroke-width="1" stroke-linecap="round"/><path d="M310.09843,195.25165c-1.08003,-0.52985 -1.61547,-1.65248 -1.19603,-2.50745c0.41941,-0.85503 1.14413,-0.52523 2.22415,0.00462c1.08003,0.52985 2.10632,1.05909 1.68688,1.91408c-0.41941,0.85503 -1.63502,1.11861 -2.71499,0.58874z" fill="#8fbbbe" stroke="none" stroke-width="0" stroke-linecap="butt"/><path d="M316.12883,199.31282c-0.59882,0.05661 -1.15311,-0.62559 -1.23805,-1.52381c-0.08495,-0.89822 0.00437,-1.27669 0.60317,-1.33333c0.59882,-0.05661 1.33384,0.6085 1.41875,1.50672c0.08495,0.89822 -0.1851,1.29378 -0.78389,1.35041z" fill="#8fbbbe" stroke="none" stroke-width="0" stroke-linecap="butt"/><path d="M303.85915,192.26255c-0.90219,-0.01126 -1.62741,-0.50789 -1.61993,-1.10931c0.00745,-0.60138 0.79616,-0.53777 1.69831,-0.52655c0.90219,0.01126 1.57613,-0.03426 1.56867,0.56718c-0.00745,0.60138 -0.74492,1.0799 -1.64707,1.06867z" fill="#8fbbbe" stroke="none" stroke-width="0" stroke-linecap="butt"/><path d="M280.55892,197.20723c0,0 9.32182,-4.21703 16.89133,-4.56664c4.29154,-0.1982 8.14233,1.1086 11.05071,2.13208c2.57203,0.90507 7.42297,5.34287 10.78248,9.12599c2.47342,2.7853 3.98072,5.31414 3.98072,5.31414" fill="none" stroke="#000000" stroke-width="0.5" stroke-linecap="round"/><path d="M314.30974,191.64503c0,0 0.59004,10.55603 -1.10237,15.68954c-1.42588,4.3251 -8.02878,13.06957 -8.02878,13.06957" fill="none" stroke="#000000" stroke-width="1" stroke-linecap="round"/><path d="M299.42284,219.30753c0,0 -0.4317,-9.65618 0.51116,-14.07906c1.65547,-7.76572 8.1389,-15.91078 8.1389,-15.91078" fill="none" stroke="#000000" stroke-width="1" stroke-linecap="round"/></g><g stroke="#000000" stroke-linecap="butt"><path d="M275.75777,221.17055c32.57831,7.06915 36.52712,15.8704 34.81131,23.77776c-1.71581,7.90737 -29.5167,8.58686 -62.095,1.5177c-32.5783,-7.06916 25.57094,-49.8962 27.28675,-57.80356c5.05608,-4.97637 7.80768,0.94194 6.47926,8.68734c-1.63826,9.55189 -9.26697,23.21652 -6.48231,23.82077z" fill="#585858" stroke-width="2"/><path d="M302.79614,214.66845c13.98344,3.03426 22.79619,17.12155 19.68385,31.46485c-3.11235,14.3433 -16.97122,23.51109 -30.95466,20.47684c-13.98344,-3.03426 -22.79619,-17.12156 -19.68384,-31.46486c3.11235,-14.3433 16.97122,-23.51108 30.95466,-20.47683z" fill="#faddbf" stroke-width="2"/><path d="M282.96518,251.02749c13.98344,3.03426 41.87296,-19.80539 38.76061,-5.46209c-3.11235,14.3433 -16.97122,23.51109 -30.95466,20.47683c-13.98344,-3.03426 -21.7894,-18.04899 -7.80596,-15.01473z" fill="#ef8b89" stroke-width="0"/></g><path d="M267.41862,163.56264l-4.90824,-92.67011c0,0 20.7297,-9.71 31.30063,-10.26989c11.40191,-0.6039 34.80671,6.76853 34.80671,6.76853l4.90824,92.67011c0,0 -24.04122,7.08146 -35.44312,7.68537c-10.57093,0.55989 -30.66422,-4.18401 -30.66422,-4.18401z" fill-opacity="0.74902" fill="#fffe00" stroke="#000000" stroke-width="2.5" stroke-linecap="butt"/><path d="M244.70818,132.81708c-0.19534,-0.18942 -0.37919,-0.43251 -0.54263,-0.74173c-1.16832,-2.21021 1.0419,-3.37853 1.0419,-3.37853c3.95154,-2.08733 8.12915,-4.95226 12.81133,-3.52273c3.46858,1.059 8.45636,5.26934 6.11369,9.70126c-0.88506,1.67438 -6.00452,3.53063 -7.83681,3.3586c-1.67338,-0.15712 -2.97707,-1.79182 -4.65048,-1.94857c-1.95035,-0.1827 -3.94489,-0.46878 -5.7431,-1.24575z" fill="#000000" stroke="none" stroke-width="0.5" stroke-linecap="butt"/></g></g></svg>