<svg version="1.1" xmlns="http://www.w3.org/2000/svg" xmlns:xlink="http://www.w3.org/1999/xlink" width="336.07274" height="336.07274" viewBox="0,0,336.07274,336.07274"><g transform="translate(-151.96363,-11.96363)"><g data-paper-data="{&quot;isPaintingLayer&quot;:true}" fill-rule="nonzero" stroke-linejoin="miter" stroke-miterlimit="10" stroke-dasharray="" stroke-dashoffset="0" style="mix-blend-mode: normal"><path d="M203,297v-234h234v234z" data-paper-data="{&quot;index&quot;:null}" fill="none" stroke="none" stroke-width="0" stroke-linecap="butt"/><g data-paper-data="{&quot;index&quot;:null}"><g><g data-paper-data="{&quot;origRot&quot;:0}" stroke="#000000" stroke-width="3" stroke-linecap="round"><path d="M277.47545,187.09878c0,0 13.46088,-27.17211 15.95299,-25.82604c4.49346,2.42707 13.14001,11.08921 13.14001,11.08921l7.9385,6.62619l-2.79646,-2.84849c0,0 12.33955,-9.84951 15.757,-10.19104c1.79543,-0.17945 7.35227,7.81716 7.53406,10.46438c0.40779,5.93855 -21.87107,36.68853 -25.72072,34.88204c-8.42099,-5.7601 -26.29559,-17.86687 -26.29559,-17.86687c0,0 -6.86381,-4.35154 -5.50981,-6.32938z" data-paper-data="{&quot;origPos&quot;:null}" fill="#582700"/><path d="M300.50233,167.73478l-15.68193,25.05713" fill="none"/><path d="M287.57957,195.43235l15.88968,-24.88556" data-paper-data="{&quot;origPos&quot;:null}" fill="none"/></g><path d="M300.80506,167.90326l2.0305,1.69903l-16.18061,25.51491l-2.0305,-1.69903z" fill="#ffffff" stroke="none" stroke-width="0" stroke-linecap="butt"/><path d="M308.51186,210.42514l-20.947,-14.38048l16.60807,-24.53076l9.59279,8.02116l1.13238,-1.58962l-1.93426,-2.14978l14.29566,-9.12183l1.0379,0.97554l5.18952,4.8777l0.61313,5.22068l-3.28713,7.8579l-13.41538,19.23802l-7.98929,6.75572z" fill="#66c8ff" stroke="#000000" stroke-width="0.5" stroke-linecap="round"/></g><g fill="#fffc96" stroke="#000000" stroke-width="2" stroke-linecap="round"><path d="M307.11406,173.34197c0,0 0.31405,6.01694 2.83356,14.36207c2.55492,8.46238 5.79918,14.74068 5.79918,14.74068l1.90953,-0.09518c0,0 0.27122,3.73384 -1.76937,4.11954c-4.99438,0.94399 -15.23292,-35.65263 -10.48661,-36.88818c2.96653,-0.77223 4.05651,4.1959 4.05651,4.1959z"/><path d="M316.87256,174.21235c0,0 -3.79731,5.1686 -7.44313,13.84936c-3.64583,8.68075 -5.0659,14.8893 -5.0659,14.8893l1.40335,-0.02182c0,0 -0.66449,4.10637 -3.52392,4.12782c-4.7215,0.03544 10.83683,-38.62489 15.6102,-37.34828c2.27396,0.60814 0.33229,4.66816 0.33229,4.66816z" data-paper-data="{&quot;index&quot;:null}"/></g></g><g data-paper-data="{&quot;index&quot;:null}" stroke="#000000" stroke-linecap="round"><path d="M345.38078,155.05474c0,0 14.57967,0.30274 13.87691,7.05806c-1.9074,18.33529 -26.36285,8.94169 -26.36285,8.94169z" data-paper-data="{&quot;origPos&quot;:null}" fill="#66c8ff" stroke-width="2"/><path d="M344.55485,156.50344c0,0 10.52041,0.82768 10.90627,2.89131c0.12168,0.65086 -14.21192,0.69409 -14.21192,0.69409z" data-paper-data="{&quot;origPos&quot;:null}" fill="#0a0a0a" stroke-width="1"/></g><g data-paper-data="{&quot;origRot&quot;:0,&quot;index&quot;:null}" stroke="#000000" stroke-linecap="round"><path d="M322.31404,261.48655c0,0 0.31112,4.58874 -0.66552,6.73799c-0.74764,1.64534 -2.4334,2.02605 -4.03503,2.27095c-4.39626,0.67224 -8.51456,-1.3582 -15.36547,-2.29012c-1.86588,-0.2538 -2.59258,-3.54863 -2.25126,-5.67098c0.31923,-1.98506 0.98004,-5.41318 0.98004,-5.41318l6.02179,-33.29005c0,0 0.90212,-4.28075 2.518,-4.85198c3.8913,-1.37564 7.71743,0.63807 11.78119,0.92528c1.37716,0.09735 0.98547,5.00701 0.98547,5.00701z" data-paper-data="{&quot;origPos&quot;:null}" fill="#ff0000" stroke-width="3"/><path d="M300.79615,258.21867l20.69919,2.90304c0,0 0.75344,2.6801 0.53848,4.3963c-0.20405,1.62913 -1.61217,4.17567 -1.61217,4.17567c0,0 -7.60901,0.29057 -11.08519,-0.0589c-4.53079,-0.4555 -9.61466,-3.67187 -9.61466,-3.67187z" data-paper-data="{&quot;origPos&quot;:null}" fill="#976e57" stroke-width="2"/><path d="M322.21653,261.80752c0,0 0.31112,4.58875 -0.66552,6.738c-0.74764,1.64531 -2.4334,2.02604 -4.03503,2.27094c-4.39626,0.67225 -8.51456,-1.3582 -15.36547,-2.29012c-1.86587,-0.2538 -2.59258,-3.54863 -2.25126,-5.67098c0.31924,-1.98503 0.98006,-5.41317 0.98006,-5.41317l6.02178,-33.29005c0,0 0.90212,-4.28075 2.518,-4.85198c3.89132,-1.37566 7.71746,0.63805 11.78121,0.92526c1.37716,0.09734 0.98547,5.007 0.98547,5.007z" data-paper-data="{&quot;origPos&quot;:null}" fill="#4b4b4b" stroke-width="3"/></g><path d="M326.51423,262.57152c0,0 -1.07905,-12.9939 -1.7697,-21.31066c-0.48935,-5.89265 -1.25388,-15.09916 -1.25388,-15.09916c0,0 -0.79986,-4.84386 0.5628,-5.09248c4.02101,-0.73365 7.66135,-3.15963 11.64959,-2.21909c1.65612,0.39055 2.91155,4.55217 2.91155,4.55217l8.77395,32.47305c0,0 0.94403,3.33949 1.42755,5.2802c0.51696,2.07494 0.06875,5.43465 -1.76733,5.89288c-6.7415,1.68247 -10.67124,4.15732 -15.10337,3.97256c-1.61469,-0.06732 -3.32447,-0.26053 -4.20606,-1.8159c-1.15159,-2.03173 -1.22512,-6.6336 -1.22512,-6.6336z" data-paper-data="{&quot;index&quot;:null}" fill="#4b4b4b" stroke="#000000" stroke-width="3" stroke-linecap="round"/><g data-paper-data="{&quot;index&quot;:null}"><path d="M340.37115,207.50458c0,0 -0.89755,16.17243 -2.88547,16.19579c-5.9638,0.07009 -21.32864,-2.87093 -34.51321,-4.63817c-1.48111,-0.19852 0.28494,-15.42758 0.28494,-15.42758l4.75511,-31.03066c0,0 2.57481,-13.64773 3.93251,-13.46575c8.78256,1.17719 22.01921,1.98922 27.59668,4.43618c1.85917,0.81565 2.08978,15.74515 2.08978,15.74515z" data-paper-data="{&quot;origPos&quot;:null}" fill="#66c8ff" stroke="#000000" stroke-width="3.5" stroke-linecap="round"/><path d="M324.04709,185.4397c-1.14704,-0.15375 -0.88927,-2.69115 -0.88927,-2.69115l0.17184,-1.6916c0.53461,-5.26275 1.06924,-10.5255 1.60386,-15.78825c0,0 0.25775,-2.5374 1.4048,-2.38365c1.14704,0.15375 0.88927,2.69115 0.88927,2.69115c-0.53462,5.26277 -1.24108,12.21711 -1.7757,17.47986c0,0 -0.25775,2.5374 -1.4048,2.38365z" fill="#ffffff" stroke="none" stroke-width="0.5" stroke-linecap="butt"/><path d="M313.65587,183.61612c-1.14705,-0.15375 -0.82322,-3.34144 -0.82322,-3.34144l0.21589,-2.12512c0.67164,-6.61151 1.34328,-13.22301 2.01491,-19.83451c0,0 0.32382,-3.18769 1.47087,-3.03394c1.14705,0.15375 0.82322,3.34144 0.82322,3.34144c-0.67163,6.6115 -1.55915,15.34811 -2.23078,21.95961c0,0 -0.32382,3.18769 -1.47087,3.03394z" fill="#ffffff" stroke="none" stroke-width="0.5" stroke-linecap="butt"/></g><path d="M306.6767,154.48315c0,0 -0.8185,-4.60332 -0.70327,-5.71029c0.34565,-3.32088 2.66853,-17.6461 4.80542,-30.58516c0.33052,-2.00135 2.26743,-4.81867 2.26743,-4.81867c0,0 2.20574,-1.22102 3.31517,-0.98648c12.24024,2.58774 24.06925,3.94686 28.3454,6.49632c1.42538,0.84981 3.90108,3.20535 3.90108,3.20535c0,0 -0.10812,4.57094 -0.17876,5.73795c-0.02355,0.389 -0.0359,0.60815 -0.07957,0.99486c-1.30858,11.58681 -3.89049,24.76233 -4.98182,29.32243c-0.36378,1.52004 -2.35747,3.58382 -2.35747,3.58382c0,0 -1.67301,2.48618 -5.67252,2.46029c-4.37616,-0.02831 -14.60464,-2.64661 -25.14513,-5.38396z" data-paper-data="{&quot;index&quot;:null}" fill="#582700" stroke="#000000" stroke-width="2.5" stroke-linecap="round"/><path d="M352.20156,123.82072c-0.78002,0.91932 -1.58035,0.02334 -1.58035,0.02334l-0.54054,-0.66396c-0.07348,-0.04792 -0.14701,-0.09534 -0.22059,-0.14224c-0.24593,0.27205 -0.68431,0.55617 -1.28979,0.17052c-0.55807,-0.35546 -0.6208,-0.87396 -0.57191,-1.25344c-2.20003,-1.16518 -4.45898,-1.98593 -6.84482,-2.7613c-6.72498,-1.90306 -13.56462,-3.20288 -20.3724,-4.66257c-2.23265,-0.47871 -7.39757,-0.51844 -8.98546,-2.62124c-0.77441,-1.02553 -0.10199,-2.89805 -0.01749,-3.98015c0.24486,-3.13566 0.43872,-6.39497 0.93188,-9.49407c0.66816,-4.04576 -0.06198,-7.94331 0.13977,-12.00875c0.10114,-2.03813 -0.1602,-4.16495 1.67023,-5.5522c0.51683,-0.39169 1.23918,0.05654 1.85291,0.15079c2.24297,0.34441 4.36428,0.98063 6.51247,1.75286c6.8076,2.44717 13.6064,4.45087 20.28673,7.37776c2.69418,1.18456 5.49479,1.85795 8.31047,2.5766c1.65483,0.42237 3.26305,0.20279 3.90286,2.60309c0.38209,1.43342 -0.71582,5.38101 -1.00693,6.86687c-1.12254,5.72945 -1.48507,12.98174 -3.4854,18.55799c0.09662,0.06113 0.19312,0.12305 0.28958,0.18575l0.99848,1.05898c0,0 0.80033,0.89599 0.02032,1.81531z" data-paper-data="{&quot;index&quot;:null}" fill="#000000" stroke="none" stroke-width="0.5" stroke-linecap="butt"/><g data-paper-data="{&quot;index&quot;:null}" fill="none" stroke="#b9b9b9" stroke-width="3"><path d="M313.35509,164.53266c-1.23657,1.81735 -2.01768,0.56007 -2.9775,-0.82797c-0.75156,-1.08686 -1.97305,-2.25923 -0.49828,-4.19854c0.69557,-0.91464 1.74701,-0.38915 2.70682,0.99886c0.95981,1.38803 1.64457,2.7408 0.76897,4.02763z" stroke-linecap="butt"/><path d="M312.54225,163.81289l2.0389,2.87827" stroke-linecap="round"/><path d="M317.66533,167.75525c0.95981,1.38804 1.64456,2.74081 0.76896,4.02764c-1.23656,1.81736 -2.01768,0.56006 -2.97749,-0.82796c-0.75156,-1.08686 -1.97305,-2.25923 -0.49828,-4.19854c0.69557,-0.91464 1.74701,-0.38915 2.70682,0.99886z" stroke-linecap="butt"/><path d="M319.66038,173.94141l-2.0389,-2.87829" stroke-linecap="round"/><path d="M324.69999,174.1493c0.2632,2.42284 -0.94691,2.58379 -2.3441,2.87091c-1.09403,0.22482 -2.53218,0.92849 -2.71555,-1.83116c-0.08648,-1.30157 0.87468,-2.18264 2.27187,-2.46977c1.39718,-0.28712 2.60143,-0.28556 2.7878,1.43z" stroke-linecap="butt"/><path d="M326.70536,174.00198l-2.92779,0.64996" stroke-linecap="round"/><path d="M331.547,170.54273c0.92723,2.04694 -0.15738,2.86028 -1.38116,3.89098c-0.95827,0.80708 -2.10312,2.23728 -3.05056,-0.15848c-0.44683,-1.12992 0.20278,-2.45747 1.42656,-3.48816c1.22378,-1.0307 2.34861,-1.69377 3.00517,-0.24434z" stroke-linecap="butt"/><path d="M330.82711,171.50648l2.55083,-2.2035" stroke-linecap="round"/><path d="M337.95714,165.06938c0.92722,2.04696 -0.15737,2.8603 -1.38115,3.89099c-0.95827,0.80708 -2.10313,2.23727 -3.05056,-0.15848c-0.44683,-1.12992 0.20278,-2.45747 1.42656,-3.48816c1.22378,-1.0307 2.3486,-1.69375 3.00517,-0.24434z" stroke-linecap="butt"/><path d="M339.78808,163.82961l-2.55084,2.2035" stroke-linecap="round"/></g><g data-paper-data="{&quot;index&quot;:null}"><g stroke="#000000" stroke-width="3" stroke-linecap="round"><path d="M358.15965,199.75975c0,0 3.26189,10.37536 3.16891,15.10613c-13.56045,7.69389 -22.32049,5.73146 -22.32049,5.73146c-1.75182,0.55517 -2.44739,-6.87321 -2.44739,-6.87321c0,0 -1.77165,-14.45024 -2.90562,-23.69911c-0.7446,-6.07319 -1.90796,-15.56181 -1.90796,-15.56181c0,0 -0.50674,-6.05646 0.46008,-6.27052c5.81652,-1.28788 11.22508,-3.85137 14.28031,-3.30144c1.01842,0.1833 2.7795,5.69281 2.7795,5.69281l8.89268,29.17566z" data-paper-data="{&quot;origPos&quot;:null}" fill="#582700"/><path d="M359.14655,205.56326l-22.34958,5.96033l-0.67536,-3.40659l22.3331,-6.22526z" data-paper-data="{&quot;origPos&quot;:null}" fill="none"/></g><path d="M335.84184,207.70779l-3.88986,-37.59771l0.97517,-0.97212l13.74393,-3.80345l11.05618,36.26663z" fill="#66c8ff" stroke="#000000" stroke-width="1" stroke-linecap="round"/><path d="M336.67592,211.08637l-0.47381,-2.33131l22.20216,-5.95397l0.47383,2.3313z" fill="#ffffff" stroke="none" stroke-width="0" stroke-linecap="butt"/></g><g data-paper-data="{&quot;index&quot;:null}"><g data-paper-data="{&quot;index&quot;:null}"><path d="M296.49954,159.99923c1.9246,1.1863 6.71858,-0.38876 5.75945,1.66438c-0.63899,1.36779 -13.44942,17.9174 -15.18232,18.26712c-0.86825,0.17523 -2.02315,-0.07729 -2.66559,-0.47326c-0.94427,-0.58205 -1.45712,-1.63594 -1.58283,-2.88349c-0.13049,-1.29523 8.47061,-20.59693 8.95915,-21.64275c0.95912,-2.05313 2.78753,3.88168 4.71214,5.06799z" fill="#0091d4" stroke="#000000" stroke-width="1.5" stroke-linecap="butt"/><g stroke-linecap="butt"><path d="M299.65472,153.19668c3.48694,2.1493 5.31211,6.03559 4.07664,8.68027c-1.23547,2.64469 -5.06373,3.04627 -8.55067,0.89696c-3.48694,-2.14931 -5.31209,-6.0356 -4.07662,-8.68028c1.23546,-2.64469 5.06372,-3.04629 8.55065,-0.89697z" fill="#0091d4" stroke="#000000" stroke-width="1.5"/><path d="M299.9707,161.09874l3.52046,0.29292c0,0 -1.34736,1.33823 -2.05502,1.61106c-1.49076,0.54667 -2.96393,0.09014 -2.96393,0.09014z" fill="#00aeff" stroke="none" stroke-width="0"/><path d="M296.84224,160.13333l1.39846,0.50444c0,0 -0.34537,0.98249 -0.51612,1.29745c-0.19994,0.36879 -0.73162,0.91158 -0.73162,0.91158l-1.54627,-0.89216z" fill="#00aeff" stroke="none" stroke-width="0"/></g><g><path d="M296.82886,159.00434c-4.81029,-2.96501 -5.95797,-7.86116 -3.37673,-13.38665c2.58124,-5.52546 8.81976,-7.44919 13.63007,-4.48418c4.81028,2.965 6.38884,8.97769 3.8076,14.50318c-2.58124,5.52547 -9.25063,6.33268 -14.06094,3.36767z" fill="#00699a" stroke="#000000" stroke-width="1.5" stroke-linecap="butt"/><path d="M308.353,142.91064c0,0 5.21349,6.10427 2.9551,10.93864c-1.28065,2.74143 -3.76992,4.86664 -6.1913,6.05272c-1.72512,0.84503 -3.7978,0.92669 -5.49813,-0.12138c-3.495,-2.15429 -3.90275,-4.70816 -1.64436,-9.54253c1.12782,-2.41422 3.74356,-4.62093 6.1672,-5.68066c2.42955,-1.06232 4.21149,-1.6468 4.21149,-1.6468z" fill="#0091d4" stroke="none" stroke-width="0" stroke-linecap="butt"/><path d="M310.59322,155.53189c0,0 -4.14545,2.32745 -9.81574,-0.87425c-5.71675,-3.22793 -6.69361,-8.17113 -6.69361,-8.17113" fill="none" stroke="#000000" stroke-width="0.8" stroke-linecap="round"/><path d="M307.53923,159.3035c0,0 -4.25044,0.10651 -8.06137,-1.45535c-5.49206,-2.25085 -6.58723,-5.38294 -6.58723,-5.38294" fill="none" stroke="#000000" stroke-width="0.75" stroke-linecap="round"/><path d="M311.8284,150.78053c0,0 -4.0316,1.66632 -9.86459,-1.17128c-5.61029,-2.72926 -6.33719,-5.63491 -6.33719,-5.63491" fill="none" stroke="#000000" stroke-width="0.8" stroke-linecap="round"/><path d="M296.26398,142.74167c0,0 4.31559,-0.12257 7.39396,0.72489c4.05469,1.11623 7.71026,3.42585 7.71026,3.42585" fill="none" stroke="#000000" stroke-width="0.8" stroke-linecap="round"/><path d="M295.31995,157.14304c0,0 -0.5121,-4.26606 2.00312,-10.21477c2.34715,-5.55116 5.81554,-6.522 5.81554,-6.522" fill="none" stroke="#000000" stroke-width="0.8" stroke-linecap="round"/><path d="M305.03436,141.2214c0,0 -1.44847,2.66135 -2.62222,5.81388c-1.03221,2.77237 -1.75954,5.96551 -2.38038,7.49633c-0.73739,1.81819 -2.2894,4.66996 -2.2894,4.66996" fill="none" stroke="#000000" stroke-width="0.8" stroke-linecap="round"/><path d="M307.4626,142.08206c0,0 0.49023,5.81824 -1.18852,9.66812c-2.63486,6.04252 -6.28292,8.69617 -6.28292,8.69617" fill="none" stroke="#000000" stroke-width="0.8" stroke-linecap="round"/><path d="M310.02828,144.22894c0,0 0.52713,4.22644 -0.6852,8.3155c-1.7458,5.88839 -4.31019,8.0412 -4.31019,8.0412" fill="none" stroke="#000000" stroke-width="0.8" stroke-linecap="round"/><path d="M309.72637,152.38255c0.21234,-0.45462 0.66256,-0.65173 1.00555,-0.44032c0.34298,0.21142 0.44889,0.75134 0.23652,1.20592c-0.21235,0.45462 -0.66256,0.65174 -1.00555,0.44033c-0.34298,-0.21142 -0.44889,-0.75135 -0.23652,-1.20593z" fill="#00aeff" stroke="none" stroke-width="0" stroke-linecap="butt"/><path d="M310.70574,150.08856c-0.19789,-0.12197 -0.27222,-0.40511 -0.16603,-0.6324c0.10618,-0.22728 0.35268,-0.31267 0.55055,-0.19071c0.19788,0.12196 0.27222,0.4051 0.16603,0.63239c-0.10618,0.22729 -0.35267,0.31267 -0.55054,0.19071z" fill="#00aeff" stroke="none" stroke-width="0" stroke-linecap="butt"/></g></g><path d="M300.36946,164.96383l3.80349,3.15383c0,0 0.47369,1.25808 0.23022,1.97424c-0.73039,2.14849 -2.63283,5.93844 -4.42564,10.01986c-0.29801,0.67842 -1.20471,0.29948 -1.20471,0.29948c0,0 -1.32074,-0.85321 -2.16608,-1.39933c-1.28738,-0.83166 -3.29875,-2.13105 -3.29875,-2.13105c0,0 -1.09207,-0.51679 -0.52328,-1.74542c0,0 0.2623,-2.02339 5.25039,-11.52091c0.84025,-0.04739 2.33436,1.3493 2.33436,1.3493z" fill="#582700" stroke="#000000" stroke-width="3" stroke-linecap="round"/><path d="M287.53216,158.4207c1.54527,-0.19983 4.17277,2.45113 4.17277,2.45113l6.72135,5.93295c0,0 0.76682,2.4954 0.26204,3.97917c-1.51436,4.45133 -5.31209,12.37933 -8.93238,20.88534c-0.60177,1.41384 -2.23431,0.75645 -2.23431,0.75645c0,0 -2.3536,-1.56911 -3.86002,-2.57343c-2.29413,-1.52948 -5.87844,-3.91908 -5.87844,-3.91908c0,0 -1.96147,-0.91437 -0.81827,-3.47851c0,0 0.64553,-4.13967 10.56725,-24.03404z" fill="#582700" stroke="#000000" stroke-width="3" stroke-linecap="round"/></g><path d="M326.54057,143.77598c0,0 -5.15456,-5.26731 -4.84557,-7.10114c0.28513,-1.69213 6.63369,-3.51099 6.63369,-3.51099" data-paper-data="{&quot;index&quot;:null}" fill="none" stroke="#000000" stroke-width="2.5" stroke-linecap="round"/><path d="M313.88,127.8698c0,0 4.05436,5.89906 3.37898,7.43814c-0.73193,1.66795 -7.61458,2.21406 -7.61458,2.21406" data-paper-data="{&quot;index&quot;:null}" fill="none" stroke="#000000" stroke-width="2.5" stroke-linecap="round"/><g data-paper-data="{&quot;index&quot;:null}" stroke="#000000" stroke-width="1.25" stroke-linecap="butt"><path d="M323.88134,156.4496c-6.33603,-1.51717 -3.11146,-8.35608 -3.11146,-8.35608l8.89202,2.22371c0,0 0.20399,7.56536 -5.78056,6.13236z" fill="#000000"/><path d="M325.02414,154.50327c1.60277,-0.14492 3.46432,0.44082 3.30072,0.65615c-0.84213,1.10834 -2.21298,1.82427 -4.44352,1.29017c-0.74424,-0.17822 -1.35657,-0.42985 -1.85772,-0.73521c-0.24252,-0.14777 1.2551,-1.0533 3.0005,-1.21111z" fill="#ff8484"/><path d="M329.31176,152.76187c-0.00536,0.03275 -7.97045,-1.92124 -7.97045,-1.92124l0.50579,-2.47773l7.81479,1.95433c0,0 -0.18717,1.45093 -0.35012,2.44463z" fill="#ffffff"/></g><path d="M151.96363,348.03637v-336.07274h336.07274v336.07274z" data-paper-data="{&quot;index&quot;:null}" fill="none" stroke="#000000" stroke-width="0" stroke-linecap="butt"/></g></g></svg>