<svg version="1.1" xmlns="http://www.w3.org/2000/svg" xmlns:xlink="http://www.w3.org/1999/xlink" width="213.31759" height="320.22288" viewBox="0,0,213.31759,320.22288"><g transform="translate(-224.78117,-40.29214)"><g data-paper-data="{&quot;isPaintingLayer&quot;:true}" fill-rule="nonzero" stroke-linejoin="miter" stroke-miterlimit="10" stroke-dasharray="" stroke-dashoffset="0" style="mix-blend-mode: normal"><g><path d="M405.26118,197.65881c-9.82643,11.44833 -21.32275,13.1932 -33.09819,4.00358c-9.2097,-7.18727 -10.88418,-25.22112 -1.05774,-36.66947c9.82646,-11.4484 24.36244,-13.41533 35.69671,-3.68685c1.77247,1.52135 2.95674,3.45144 4.05486,5.20415c5.92373,9.45515 2.69412,21.49054 -5.59563,31.14858z" fill="#216aff" stroke="#000000" stroke-width="2" stroke-linecap="butt"/><path d="M366.62717,178.01338c0,0 4.06745,4.07272 6.02287,3.6371c18.75675,-4.17824 28.66713,-14.12825 31.69381,-17.6693c0.68765,-0.80451 0.33134,-1.86936 0.33134,-1.86936c0,0 1.73967,1.20067 3.38395,3.39395c1.74964,2.33383 3.42248,5.75514 3.85026,8.79853c0.4886,3.4764 -0.51724,11.75267 -0.51724,11.75267l-10.99806,17.8298c0,0 -13.2748,2.17591 -15.40324,1.76767c-2.08517,-0.39993 -4.43785,-1.4712 -6.98514,-2.50957c-3.95503,-1.61222 -7.30184,-4.67911 -8.79224,-7.14356c-1.90206,-3.14522 -2.90176,-7.70071 -3.06285,-11.51337c-0.14991,-3.5484 0.4767,-6.47445 0.4767,-6.47445z" fill="#3236f4" stroke="none" stroke-width="0" stroke-linecap="butt"/><path d="M386.62053,192.06453c0,0 -7.91491,-4.33041 -9.99693,-9.0469c-2.63566,-5.97057 -4.35623,-18.82133 -4.35623,-18.82133" fill="none" stroke="#000000" stroke-width="1" stroke-linecap="round"/><path d="M400.50406,158.0533c0,0 4.32213,5.69641 6.02771,9.64138c1.72194,3.98262 2.18587,13.67474 2.18587,13.67474" fill="none" stroke="#000000" stroke-width="1" stroke-linecap="round"/><path d="M382.10519,202.06292c0,0 -8.19094,-4.32372 -10.21348,-9.5351c-3.1035,-7.99665 -5.12332,-19.41665 -5.12332,-19.41665" fill="none" stroke="#000000" stroke-width="1" stroke-linecap="round"/><path d="M368.22953,195.65485c0,0 0.92636,-17.28053 15.65903,-26.58067c16.13775,-10.18713 29.01052,1.29252 29.01052,1.29252" fill="none" stroke="#000000" stroke-width="1" stroke-linecap="round"/><path d="M374.56422,202.76656c0,0 3.86395,-17.37619 16.84666,-25.61078c10.66002,-6.76133 22.40757,1.89395 22.40757,1.89395" fill="none" stroke="#000000" stroke-width="1" stroke-linecap="round"/><path d="M385.84212,160.5311c-1.14524,0.36825 -2.30994,-0.06824 -2.60144,-0.97484c-0.29157,-0.90661 0.45904,-1.17225 1.60429,-1.54049c1.14524,-0.36825 2.25139,-0.69963 2.54292,0.20698c0.29157,0.90661 -0.40054,1.94013 -1.54576,2.30833z" fill="#8fbbbe" stroke="none" stroke-width="0" stroke-linecap="butt"/><path d="M393.00209,159.26877c-0.39177,0.4564 -1.26432,0.35005 -1.94893,-0.23758c-0.68462,-0.58761 -0.88301,-0.92208 -0.49129,-1.37848c0.39177,-0.4564 1.38255,-0.48777 2.06714,0.09986c0.68462,0.58761 0.76479,1.05983 0.37305,1.51621z" fill="#8fbbbe" stroke="none" stroke-width="0" stroke-linecap="butt"/><path d="M379.27586,162.71013c-0.65726,0.61812 -1.52405,0.764 -1.93612,0.32587c-0.41208,-0.43807 0.19986,-0.93976 0.85707,-1.55786c0.65726,-0.61812 1.11082,-1.11867 1.52292,-0.68053c0.41208,0.43807 0.21334,1.29442 -0.44389,1.91255z" fill="#8fbbbe" stroke="none" stroke-width="0" stroke-linecap="butt"/><path d="M365.93512,182.44269c0,0 3.78333,-9.50609 8.98966,-15.01189c2.95174,-3.12151 6.63086,-4.85368 9.43491,-6.13567c2.47974,-1.13377 9.05209,-1.30627 14.09639,-0.91483c3.71384,0.2882 6.55421,1.06237 6.55421,1.06237" fill="none" stroke="#000000" stroke-width="0.5" stroke-linecap="round"/><path d="M386.37022,155.01167c0,0 7.75186,7.18934 10.09681,12.05947c1.9757,4.1032 3.29219,14.98122 3.29219,14.98122" fill="none" stroke="#000000" stroke-width="1" stroke-linecap="round"/><path d="M394.85474,185.25811c0,0 -7.01327,-6.65147 -9.40454,-10.48978c-4.1986,-6.73934 -5.18504,-17.10292 -5.18504,-17.10292" fill="none" stroke="#000000" stroke-width="1" stroke-linecap="round"/></g><path d="M398.44188,319.47714c0,0 -1.93442,-54.18207 -3.80295,-78.33464c-1.60011,-20.68302 -10.03411,-51.89377 -10.03411,-51.89377l23.81662,-8.23818l13.58095,136.64387z" fill="#000000" stroke="none" stroke-width="0" stroke-linecap="butt"/><path d="M419.87024,187.09982c1.90418,5.14887 -7.10529,13.22565 -20.12319,18.03999c-13.01791,4.81434 -25.11465,4.54315 -27.01884,-0.60572c-1.90418,-5.14887 7.10529,-13.22565 20.12319,-18.03999c13.01791,-4.81434 25.11465,-4.54315 27.01884,0.60572z" fill="#000000" stroke="none" stroke-width="NaN" stroke-linecap="butt"/><g data-paper-data="{&quot;index&quot;:null}" stroke="#000000" stroke-linecap="butt"><path d="M374.73369,223.65953c25.35577,-21.64263 34.75085,-19.45455 40.00392,-13.30022c5.25308,6.15432 -11.04339,28.68821 -36.39918,50.33084c-25.35579,21.64263 -24.21791,-50.56675 -29.47097,-56.72108c-0.89777,-7.03722 5.47815,-5.64243 10.83695,0.10552c6.60868,7.0886 12.86198,21.43486 15.02931,19.58493z" fill="#216aff" stroke-width="2"/><path d="M385.93507,198.20603c10.88333,-9.28958 27.4305,-7.77049 36.95914,3.39292c9.52864,11.16343 8.43044,27.74387 -2.4529,37.03344c-10.88334,9.28957 -27.43051,7.7705 -36.95916,-3.39293c-9.52864,-11.16343 -8.43043,-27.74385 2.45292,-37.03343z" fill="#faddbf" stroke-width="2"/><path d="M402.85719,236.00668c10.88334,-9.28957 9.59971,-45.31495 19.12834,-34.15152c9.52864,11.16343 8.43042,27.74387 -2.45292,37.03343c-10.88334,9.28957 -27.55878,6.40768 -16.67543,-2.88189z" fill="#ef8b89" stroke-width="0"/></g><path d="M224.78117,360.17125v-93.89347h213.03043v93.89347z" fill="#000000" stroke="none" stroke-width="NaN" stroke-linecap="butt"/><g stroke="#000000" stroke-linecap="butt"><path d="M327.66209,322.05964l-4.4503,-95.19095l29.45981,-1.37728l4.4503,95.19095z" fill="#73fffc" stroke-width="2"/><path d="M327.30784,321.45759l-3.05501,-93.74534c0,0 8.37807,67.79498 9.99354,77.14589c0.35713,2.0672 2.64982,2.66904 2.64982,2.66904l19.19988,12.2557z" fill="#59a9e6" stroke-width="0"/></g><g fill="none" stroke="#808080" stroke-width="0.5" stroke-linecap="round"><path d="M437.84876,280.63432l-193.59492,1.15407l-17.0225,-13.84882"/><path d="M241.9457,360.26502l2.01962,-78.47663"/></g><g stroke="#000000" stroke-linecap="butt"><path d="M257.55296,328.74547l25.82446,-91.72905l28.38842,7.99219l-25.82446,91.72905z" fill="#73fffc" stroke-width="2"/><path d="M257.40685,328.06241l26.69211,-89.91692c0,0 -13.4499,66.97351 -14.86866,76.35629c-0.31365,2.07424 1.67186,3.369 1.67186,3.369l14.34975,17.68961z" fill="#59a9e6" stroke-width="0"/></g><g stroke="#000000" stroke-linecap="butt"><path d="M354.20692,245.08519c-0.93912,13.77072 7.52413,37.34236 1.77746,46.6889c-7.02778,11.43019 -29.16498,7.12794 -39.46834,6.42528c-13.63122,-0.92962 -33.15146,1.91903 -37.24623,-17.4067c-1.5312,-7.22669 6.54709,-32.00133 7.11526,-40.33274c2.08761,-30.61138 18.96239,-54.39142 37.69087,-53.11419c18.72849,1.27723 32.21858,27.12806 30.13096,57.73945z" fill="#216aff" stroke-width="2"/><path d="M302.00226,257.13774c-0.93912,13.77072 60.50008,24.72253 54.7534,34.06907c-7.02778,11.43018 -29.16497,7.12795 -39.46834,6.42529c-13.63122,-0.92962 -33.15145,1.91903 -37.24623,-17.40669c-1.53121,-7.22669 6.54708,-32.00134 7.11526,-40.33274c0.64314,-9.43053 5.28658,-28.30391 7.54575,-29.52313c7.07075,-16.32088 8.73055,25.79374 7.30015,46.76822z" fill="#3236f4" stroke-width="0"/></g><g stroke="#000000" stroke-linecap="butt"><g><path d="M243.56893,133.39793c-2.6288,-46.71688 33.11165,-86.71948 79.82853,-89.34828c46.71688,-2.6288 86.71948,33.11164 89.34828,79.82853c2.6288,46.71688 -33.11164,86.71948 -79.82852,89.34828c-46.71688,2.6288 -86.71949,-33.11164 -89.34829,-79.82852z" fill="#faddbf" stroke-width="2"/><path d="M243.75048,132.51682c-0.84579,-15.03051 6.3395,-41.43278 10.66086,-44.89521c0.4935,-0.39542 5.27668,-9.22132 12.40796,-16.34975c8.8637,-8.86016 20.42955,-16.32998 21.05043,-16.16754c8.10059,2.11924 -13.85516,65.73716 -11.19738,90.91754c0.00633,0.06006 5.50736,19.42284 7.14795,19.77014c3.14738,4.57287 10.17259,18.61124 21.43788,25.12876c20.99415,12.14617 49.97023,16.89939 48.5177,17.48766c-2.32353,0.94102 -14.62375,3.59631 -20.67709,3.93694c-46.71688,2.6288 -86.71948,-33.11165 -89.34828,-79.82853z" fill="#ef8b89" stroke-width="0"/><path d="M412.19738,123.45011c0.65308,11.60598 -0.69665,15.70466 -1.35186,13.88687c-0.66845,-1.85447 -0.73773,-9.78763 -9.85132,-14.11808c-2.20839,-1.04935 -9.83752,6.83955 -12.62982,5.76659c-1.75388,-0.67395 -9.21016,-9.67337 -11.1588,-10.24083c-1.36246,-0.39676 -11.95977,9.06381 -13.38243,8.6925c-3.54815,-0.92605 -12.60856,-10.68205 -16.39082,-11.12827c-2.08276,-0.24572 -8.6024,12.35258 -10.72235,12.21762c-2.73395,-0.17404 -10.73075,-11.48369 -13.46382,-11.32989c-7.26835,0.40901 -7.07409,7.41994 -11.96618,13.71096c-3.17901,4.08805 -14.6996,-12.24538 -17.5693,-7.64167c-3.56383,5.71724 -7.09996,11.23435 -11.13205,15.06656c-3.16332,3.00652 -13.91032,-9.3301 -16.63469,-6.55488c-13.15404,13.39953 -21.02863,21.85968 -22.04955,3.71656c-2.0529,-36.48244 42.75783,-10.63251 83.26544,-34.46771c38.7735,-22.81481 82.98467,-14.05877 85.03757,22.42367z" fill="#ef8b89" stroke-width="0"/></g><path d="M413.26189,115.06616c1.31935,23.44625 7.01102,8.33458 -11.49701,-0.21467c-2.26485,-1.04618 -10.10592,6.85465 -12.96996,5.78572c-1.79894,-0.67141 -9.43771,-9.66056 -11.43669,-10.22518c-1.39765,-0.39477 -12.28721,9.08223 -13.74665,8.713c-3.63995,-0.9209 -12.92385,-10.66429 -16.80475,-11.10497c-2.13709,-0.24266 -8.84651,12.36631 -11.02194,12.23447c-2.80547,-0.17002 -10.99556,-11.46879 -13.8006,-11.31094c-7.45981,0.41977 -7.27079,7.431 -12.30064,13.72978c-3.26853,4.09309 -15.06748,-12.22465 -18.01934,-7.61635c-3.66586,5.72298 -7.303,11.24576 -11.44661,15.08426c-3.25083,3.01145 -14.26178,-9.31031 -17.06179,-6.53084c-13.51922,13.42009 -21.61309,21.89256 -22.63402,3.74944c-2.0529,-36.48244 35.23449,-83.3682 81.08879,-85.94846c45.85429,-2.58026 89.59836,37.1723 91.65126,73.65474z" fill="#724e36" stroke-width="2"/><path d="M412.94923,113.91913c1.31935,23.44625 7.01103,8.33458 -11.49701,-0.21467c-2.26485,-1.04618 -10.10593,6.85465 -12.96996,5.78572c-1.79894,-0.67141 -9.4377,-9.66056 -11.43669,-10.22518c-1.39765,-0.39477 -12.28722,9.08223 -13.74666,8.713c-3.63995,-0.9209 -12.92384,-10.66429 -16.80474,-11.10497c-2.13709,-0.24266 -8.84652,12.36631 -11.02194,12.23447c-2.80547,-0.17002 -10.99555,-11.46879 -13.80059,-11.31094c-7.45981,0.41977 -7.2708,7.431 -12.30065,13.72978c-3.26853,4.09309 -15.06748,-12.22466 -18.01934,-7.61635c-3.66586,5.72298 -7.303,11.24576 -11.44662,15.08426c-3.25083,3.01145 -14.26178,-9.31031 -17.06178,-6.53084c-13.51922,13.42009 -21.61309,21.89256 -22.63402,3.74945c-2.0529,-36.48244 43.89622,-10.69657 85.50272,-34.59359c39.82531,-22.87399 85.18442,-14.18255 87.23733,22.29988z" fill="#623728" stroke-width="0"/></g><g stroke="#000000" stroke-linecap="butt"><path d="M347.99073,130.27014c1.6045,28.51384 -10.7154,43.96092 -27.25778,44.89178c-16.54238,0.93086 -31.04295,-13.00703 -32.64746,-41.52085c-1.6045,-28.51383 10.50504,-52.38346 27.04741,-53.31432c16.54238,-0.93085 31.25333,21.42957 32.85783,49.94339z" fill="#f0f0f0" stroke-width="2"/><path d="M300.20867,113.34552c-2.70961,28.4301 37.65502,60.02085 21.11266,60.95171c-16.54238,0.93086 -31.04295,-13.00702 -32.64746,-41.52085c-1.6045,-28.51383 15.45209,-60.53239 11.5348,-19.43086z" fill="#9a99ff" stroke-width="0"/></g><path d="M344.56502,138.70918c0.88892,15.79721 -3.07196,28.86683 -8.84688,29.19179c-5.77492,0.32496 -11.17705,-12.21778 -12.06597,-28.01501c-0.88892,-15.79721 3.07196,-28.86683 8.84688,-29.19179c5.77492,-0.32496 11.17705,12.21778 12.06597,28.01501z" fill="#000000" stroke="none" stroke-width="0" stroke-linecap="butt"/><g stroke="#000000" stroke-linecap="butt"><path d="M341.30194,100.56434c5.02715,9.9631 16.36055,54.31832 0.67509,55.20096c-15.68544,0.88264 -52.84716,-42.7701 -48.84973,-52.62548c3.80349,-9.37723 5.57566,-21.76656 21.2611,-22.64919c15.68544,-0.88264 22.1226,10.57873 26.91354,20.0737z" fill="#a100fe" stroke-width="2"/><path d="M340.35923,100.26258c4.87534,9.97164 17.05656,53.66824 1.90593,54.52078c-15.1506,0.85254 -52.28092,-42.19106 -48.43822,-52.03772c3.65628,-9.36894 6.60192,0.59205 21.75252,-0.26049c15.1506,-0.85254 20.13347,-11.7257 24.77972,-2.22259z" fill="#99008e" stroke-width="0"/></g><g data-paper-data="{&quot;index&quot;:null}" stroke="#000000" stroke-linecap="butt"><path d="M378.4172,86.1341c16.54238,-0.93085 31.25333,21.42957 32.85782,49.94339c1.6045,28.51382 -11.24089,43.99049 -27.78327,44.92134c-16.54238,0.93086 -30.51746,-13.03659 -32.12197,-41.55042c-1.6045,-28.51383 10.50504,-52.38345 27.04741,-53.31432z" fill="#f0f0f0" stroke-width="2"/><path d="M410.59336,135.28426c1.6045,28.51382 -11.24088,43.99049 -27.78326,44.92135c-16.54238,0.93086 20.02338,-34.98885 14.14139,-62.9355c-8.5036,-40.4026 12.03736,-10.49968 13.64187,18.01416z" fill="#9a99ff" stroke-width="0"/></g><path d="M395.95165,117.80131c5.77492,-0.32496 11.17705,12.21779 12.06598,28.01501c0.88892,15.79721 -3.07196,28.86683 -8.84689,29.19179c-5.77492,0.32496 -11.17705,-12.21779 -12.06597,-28.01501c-0.88892,-15.79721 3.07196,-28.86683 8.84688,-29.19179z" data-paper-data="{&quot;index&quot;:null}" fill="#000000" stroke="none" stroke-width="0" stroke-linecap="butt"/><g data-paper-data="{&quot;index&quot;:null}" stroke="#000000" stroke-linecap="butt"><path d="M354.68377,109.17972c3.69548,-9.97252 8.80618,-22.08369 24.49162,-22.96631c15.68544,-0.88264 18.83634,11.22966 23.66782,20.12099c5.07784,9.34469 -25.56876,57.63738 -41.25421,58.52002c-15.68544,0.88264 -10.78294,-45.21047 -6.90526,-55.67468z" fill="#a100fe" stroke-width="2"/><path d="M355.58668,108.7741c3.5508,-9.96438 9.72204,0.28114 24.87264,-0.5714c15.1506,-0.85254 16.96016,-11.08113 21.64443,-2.18151c4.92311,9.3534 -25.75503,57.46752 -40.90563,58.32008c-15.1506,0.85254 -9.33731,-45.11149 -5.61145,-55.56715z" fill="#99008e" stroke-width="0"/></g><path d="M391.37177,317.11368c0.54465,11.65007 -13.51779,21.77241 -31.40935,22.60886c-17.89156,0.83646 -32.83706,-7.92972 -33.38172,-19.5798c-0.10888,-2.32888 -0.67596,-13.74352 0.38163,-15.17274c4.23294,-5.72039 18.04411,4.4236 32.3591,3.75436c17.89156,-0.83646 31.50568,-3.26076 32.05033,8.38931z" fill="#000082" stroke="#000000" stroke-width="2" stroke-linecap="butt"/><path d="M389.35995,314.47244c0.2946,6.30153 -13.39954,10.82768 -31.29111,11.66413c-17.89156,0.83646 -30.27087,-1.54551 -30.56547,-7.84704c-0.05889,-1.25969 -0.61831,-12.5108 0.46883,-13.30795c4.35121,-3.19054 15.80519,5.03999 30.12019,4.37074c17.89156,-0.83646 30.97296,-1.18142 31.26756,5.1201z" fill="#2e0048" stroke="#000000" stroke-width="0" stroke-linecap="butt"/><path d="M315.75189,344.93532c-3.16056,11.22639 -19.6992,16.39237 -36.94008,11.53855c-17.24088,-4.85382 -28.65524,-17.88941 -25.49467,-29.11579c0.63181,-2.24418 3.69678,-13.25425 5.15143,-14.27658c5.82218,-4.0918 15.72528,9.89311 29.51967,13.77664c17.24088,4.85382 30.92421,6.85078 27.76365,18.07717z" fill="#000082" stroke="#000000" stroke-width="2" stroke-linecap="butt"/><path d="M314.67663,341.79407c-1.70955,6.07236 -16.13227,6.04452 -33.37316,1.19069c-17.24088,-4.85382 -28.23542,-11.02156 -26.52587,-17.09391c0.34174,-1.21388 3.36236,-12.06635 4.64554,-12.47959c5.13585,-1.65395 13.40627,9.77127 27.20065,13.6548c17.24088,4.85382 29.76239,8.65566 28.05284,14.72802z" fill="#2e0048" stroke="#000000" stroke-width="0" stroke-linecap="butt"/><g stroke="#000000" stroke-linecap="butt"><path d="M304.70203,245.85179c33.27282,-2.05858 39.46668,5.3368 39.96633,13.41272c0.49965,8.07593 -26.06826,16.29157 -59.34109,18.35013c-33.27283,2.05857 11.03525,-54.97023 10.53561,-63.04618c3.51191,-6.16399 7.76953,-1.21724 8.5979,6.59747c1.0216,9.63736 -2.60276,24.86181 0.24127,24.68585z" fill="#216aff" stroke-width="2"/><path d="M328.95243,232.24046c14.28154,-0.88359 26.59375,10.27555 27.50006,24.92462c0.90633,14.64907 -9.93642,27.24079 -24.21796,28.1244c-14.28154,0.88359 -26.59373,-10.27556 -27.50006,-24.92463c-0.90634,-14.64908 9.93642,-27.24079 24.21797,-28.1244z" fill="#faddbf" stroke-width="2"/><path d="M319.75871,272.62267c14.28154,-0.88359 34.90726,-30.44802 35.81359,-15.79893c0.90633,14.64907 -9.93642,27.24079 -24.21797,28.1244c-14.28154,0.88359 -25.87717,-11.44186 -11.59562,-12.32546z" fill="#ef8b89" stroke-width="0"/></g><path d="M291.11682,173.04821c0,6.35713 -2.48987,11.5106 -5.5613,11.5106c-3.07142,0 -5.56131,-5.15347 -5.56131,-11.5106c0,-6.35713 2.48988,-11.5106 5.56131,-11.5106c3.07142,0 5.5613,5.15347 5.5613,11.5106z" fill="#000000" stroke="none" stroke-width="0" stroke-linecap="butt"/></g></g></svg>