<svg version="1.1" xmlns="http://www.w3.org/2000/svg" xmlns:xlink="http://www.w3.org/1999/xlink" width="260.61231" height="319.70623" viewBox="0,0,260.61231,319.70623"><g transform="translate(-137.16915,-32.95663)"><g data-paper-data="{&quot;isPaintingLayer&quot;:true}" fill-rule="nonzero" stroke-linejoin="miter" stroke-miterlimit="10" stroke-dasharray="" stroke-dashoffset="0" style="mix-blend-mode: normal"><g stroke="#2a2b40" stroke-linecap="butt"><path d="M370.82288,209.06771l-115.91329,14.76109l-5.94089,-46.65152l115.91329,-14.76109z" fill="#000000" stroke-width="2"/><path d="M361.76813,210.62971l-25.91146,3.29972l-5.99747,-47.09583l25.91146,-3.29972z" fill="#ffffff" stroke-width="2.5"/></g><path d="M235.17097,351.66287v-94.89051h40.95702v94.89051z" fill="#000000" stroke="#2a2b40" stroke-width="2" stroke-linecap="butt"/><path d="M193.90771,349.3958v-94.89051h40.95702v94.89051z" fill="#000000" stroke="#2a2b40" stroke-width="2" stroke-linecap="butt"/><g stroke-linecap="butt"><path d="M192.16727,263.20261l11.63493,-107.22226l81.86327,8.88316l-11.63493,107.22227z" fill="#000000" stroke="#2a2b40" stroke-width="2"/><path d="M260.78279,191.25813c-2.38848,22.01109 -12.86332,38.92804 -23.39623,37.78509c-10.53291,-1.14295 -17.13528,-19.91299 -14.7468,-41.92408c2.38847,-22.01109 10.49991,-28.54691 21.03282,-27.40395c10.53291,1.14295 19.49868,9.53187 17.11021,31.54295z" fill="#ffffff" stroke="#2a2b40" stroke-width="2.5"/><path d="M247.31574,186.41416c-1.47997,13.63877 -5.47119,24.39227 -8.91465,24.01861c-3.44345,-0.37366 -5.03517,-11.73297 -3.55519,-25.37174c1.47997,-13.63877 5.4712,-24.39227 8.91465,-24.01861c3.44345,0.37366 5.03517,11.73297 3.55519,25.37174z" fill="#000000" stroke="none" stroke-width="0"/></g><g><g><path d="M217.9672,239.63413c-5.68293,-13.97597 -1.97378,-24.9965 11.58563,-31.26166c10.60493,-4.90007 27.40619,1.86319 33.08912,15.83916c5.68297,13.97601 0.78035,27.80091 -13.05633,33.42724c-2.16379,0.87986 -4.42186,1.04969 -6.4828,1.22406c-11.11783,0.94055 -20.34139,-7.43839 -25.13562,-19.22878z" fill="#485e84" stroke="#000000" stroke-width="2" stroke-linecap="butt"/><path d="M253.1138,214.27184c0,0 -5.48252,1.75298 -5.98999,3.69099c-4.86781,18.58973 -0.55556,31.95472 1.20805,36.26626c0.40068,0.97958 1.51054,1.15001 1.51054,1.15001c0,0 -1.86365,0.99744 -4.56623,1.45583c-2.87577,0.48778 -6.68337,0.40964 -9.58516,-0.60263c-3.31465,-1.15633 -10.21334,-5.83785 -10.21334,-5.83785l-10.82095,-17.93783c0,0 4.13971,-12.79912 5.47666,-14.50485c1.30975,-1.67105 3.33886,-3.27275 5.42776,-5.06258c3.24331,-2.77894 7.50174,-4.35139 10.37503,-4.54889c3.66698,-0.252 8.17501,0.94365 11.63881,2.54506c3.2237,1.49042 5.53869,3.38652 5.53869,3.38652z" fill="#343545" stroke="none" stroke-width="0" stroke-linecap="butt"/><path d="M231.47124,225.61948c0,0 7.47224,-5.05607 12.61869,-4.74911c6.51486,0.38856 18.72859,4.7391 18.72859,4.7391" fill="none" stroke="#000000" stroke-width="1" stroke-linecap="round"/><path d="M255.35975,253.52746c0,0 -7.0428,1.23644 -11.33098,0.9478c-4.32913,-0.29134 -13.1593,-4.31385 -13.1593,-4.31385" fill="none" stroke="#000000" stroke-width="1" stroke-linecap="round"/><path d="M224.64724,217.02941c0,0 7.59261,-5.30457 13.15187,-4.71826c8.53047,0.89969 19.60893,4.32944 19.60893,4.32944" fill="none" stroke="#000000" stroke-width="1" stroke-linecap="round"/><path d="M236.69444,207.62397c0,0 14.94129,8.73114 16.46909,26.08654c1.6735,19.01063 -14.42424,25.20362 -14.42424,25.20362" fill="none" stroke="#000000" stroke-width="1" stroke-linecap="round"/><path d="M227.47227,210.0023c0,0 13.68215,11.38689 15.06324,26.69871c1.13397,12.57242 -11.93756,19.05731 -11.93756,19.05731" fill="none" stroke="#000000" stroke-width="1" stroke-linecap="round"/><path d="M259.86577,239.35678c0.19662,-1.18682 1.11769,-2.02267 2.05719,-1.86702c0.93955,0.1556 0.83226,0.94457 0.63563,2.13139c-0.19662,1.18682 -0.40814,2.32201 -1.34767,2.16636c-0.93955,-0.1556 -1.54181,-1.24393 -1.34515,-2.4307z" fill="#8fbbbe" stroke="none" stroke-width="0" stroke-linecap="butt"/><path d="M257.71184,246.30079c-0.22654,-0.5572 0.26728,-1.28436 1.10305,-1.6242c0.83578,-0.33984 1.22393,-0.36321 1.45051,0.19395c0.22654,0.5572 -0.19891,1.45252 -1.03469,1.79233c-0.83578,0.33984 -1.29232,0.19505 -1.51887,-0.36212z" fill="#8fbbbe" stroke="none" stroke-width="0" stroke-linecap="butt"/><path d="M260.93292,232.5212c-0.24885,-0.86726 0.01806,-1.70472 0.5962,-1.87063c0.57809,-0.16593 0.74413,0.60773 0.99301,1.47494c0.24885,0.86726 0.48639,1.4996 -0.09175,1.66554c-0.57809,0.16593 -1.24858,-0.40263 -1.49745,-1.26985z" fill="#8fbbbe" stroke="none" stroke-width="0" stroke-linecap="butt"/><path d="M249.49208,211.62965c0,0 6.72126,7.71391 9.23442,14.8626c1.42482,4.05296 1.28149,8.11691 1.13828,11.19679c-0.1266,2.72368 -2.98068,8.64652 -5.63697,12.95261c-1.95567,3.17034 -3.94377,5.34161 -3.94377,5.34161" fill="none" stroke="#000000" stroke-width="0.5" stroke-linecap="round"/><path d="M264.53177,242.352c0,0 -9.93968,3.60288 -15.34306,3.45938c-4.55247,-0.12088 -14.8272,-3.92801 -14.8272,-3.92801" fill="none" stroke="#000000" stroke-width="1" stroke-linecap="round"/><path d="M233.75533,236.05557c0,0 9.12347,-3.19228 13.63057,-3.56212c7.91361,-0.64937 17.57991,3.21582 17.57991,3.21582" fill="none" stroke="#000000" stroke-width="1" stroke-linecap="round"/></g><g stroke="#2a2b40" stroke-linecap="butt"><path d="M195.61595,278.5188l-28.74619,-127.69045l45.88002,-10.32868l28.74619,127.69044z" fill="#000000" stroke-width="2"/><path d="M192.68048,268.64005l-6.42598,-28.54414l46.31699,-10.42707l6.42598,28.54415z" fill="#ffffff" stroke-width="2.5"/></g></g><g stroke-linecap="butt"><g stroke="#0c0c0c"><g><path d="M242.9329,113.85931c-1.66302,11.04494 -29.2665,16.0454 -61.65412,11.16884c-32.38761,-4.87656 -41.69071,-28.7471 -40.02768,-39.79204c1.66302,-11.04494 22.64549,4.76031 55.0331,9.63687c32.38761,4.87656 48.31172,7.94139 46.6487,18.98633z" fill="#fac843" stroke-width="2"/><path d="M241.91017,113.12786c-1.66302,11.04494 -29.2665,16.0454 -61.65412,11.16884c-32.38761,-4.87656 -39.64144,-26.24044 -37.97842,-37.28538c1.66302,-11.04494 5.76011,28.21687 38.14771,33.09343c32.38761,4.87656 63.14784,-18.02182 61.48482,-6.97688z" fill="#e47816" stroke-width="0"/></g><g><path d="M240.03512,76.56764c-1.66302,11.04494 -29.2665,16.0454 -61.65412,11.16884c-32.38761,-4.87656 -41.69071,-28.7471 -40.02768,-39.79204c1.66302,-11.04494 22.64549,4.76031 55.0331,9.63687c32.38761,4.87656 48.31172,7.94139 46.6487,18.98633z" fill="#fac843" stroke-width="2"/><path d="M239.0124,75.83618c-1.66302,11.04494 -29.2665,16.0454 -61.65412,11.16884c-32.38761,-4.87656 -39.64145,-26.24045 -37.97843,-37.28539c1.66302,-11.04494 5.76011,28.21687 38.14772,33.09343c32.38761,4.87656 63.14784,-18.02182 61.48482,-6.97688z" fill="#e47816" stroke-width="0"/></g><g><path d="M241.48203,150.36034c-1.66302,11.04494 -29.2665,16.0454 -61.65412,11.16884c-32.38761,-4.87656 -41.69071,-28.7471 -40.02768,-39.79204c1.66302,-11.04494 22.64549,4.76031 55.0331,9.63687c32.38761,4.87656 48.31172,7.94139 46.6487,18.98633z" fill="#fac843" stroke-width="2"/><path d="M240.4593,149.62889c-1.66302,11.04494 -29.2665,16.0454 -61.65412,11.16884c-32.38761,-4.87656 -39.64144,-26.24045 -37.97842,-37.28539c1.66302,-11.04494 5.76011,28.21687 38.14771,33.09343c32.38761,4.87656 63.14784,-18.02182 61.48482,-6.97688z" fill="#e47816" stroke-width="0"/></g></g><g stroke="#0c0c0c"><g data-paper-data="{&quot;index&quot;:null}"><path d="M338.85057,84.72482c32.38761,-4.87656 53.37008,-20.68181 55.0331,-9.63687c1.66302,11.04494 -7.64007,34.91547 -40.02768,39.79204c-32.38761,4.87656 -59.99109,-0.1239 -61.65412,-11.16884c-1.66302,-11.04494 14.26109,-14.10977 46.6487,-18.98633z" fill="#fac843" stroke-width="2"/><path d="M354.70941,109.95658c32.38761,-4.87656 36.4847,-44.13836 38.14772,-33.09342c1.66302,11.04494 -5.5908,32.40883 -37.97843,37.28538c-32.38761,4.87656 -59.99109,-0.1239 -61.65412,-11.16884c-1.66302,-11.04494 29.09721,11.85345 61.48482,6.97688z" fill="#e47816" stroke-width="0"/></g><g data-paper-data="{&quot;index&quot;:null}"><path d="M341.74836,47.43311c32.38761,-4.87656 53.37008,-20.68181 55.0331,-9.63687c1.66302,11.04494 -7.64007,34.91547 -40.02768,39.79204c-32.38761,4.87656 -59.99109,-0.1239 -61.65412,-11.16884c-1.66302,-11.04494 14.26109,-14.10977 46.6487,-18.98633z" fill="#fac843" stroke-width="2"/><path d="M357.6072,72.66489c32.38761,-4.87656 36.48469,-44.13837 38.14771,-33.09343c1.66302,11.04494 -5.5908,32.40883 -37.97842,37.28539c-32.38761,4.87656 -59.99109,-0.1239 -61.65412,-11.16884c-1.66302,-11.04494 29.09721,11.85345 61.48482,6.97688z" fill="#e47816" stroke-width="0"/></g><g data-paper-data="{&quot;index&quot;:null}"><path d="M340.30143,121.22583c32.38761,-4.87656 53.37008,-20.68181 55.0331,-9.63687c1.66302,11.04494 -7.64007,34.91547 -40.02768,39.79204c-32.38761,4.87656 -59.99109,-0.1239 -61.65412,-11.16884c-1.66302,-11.04494 14.26109,-14.10977 46.6487,-18.98633z" fill="#fac843" stroke-width="2"/><path d="M356.16028,146.45755c32.38761,-4.87656 36.48469,-44.13837 38.14771,-33.09343c1.66302,11.04494 -5.5908,32.40883 -37.97842,37.28539c-32.38761,4.87656 -59.99109,-0.1239 -61.65412,-11.16884c-1.66302,-11.04494 29.09721,11.85345 61.48482,6.97688z" fill="#e47816" stroke-width="0"/></g></g><path d="M207.90684,115.63472c0,-31.80358 32.53018,-57.58549 72.6582,-57.58549c40.12802,0 72.6582,25.7819 72.6582,57.58549c0,31.80358 -32.53018,57.58549 -72.6582,57.58549c-40.12802,0 -72.6582,-25.7819 -72.6582,-57.58549z" fill="#fdf7c7" stroke="#000000" stroke-width="2"/><path d="M208.45598,112.7087c0,-3.52561 2.35177,-8.7085 2.62288,-9.88302c3.3547,-14.53329 30.25799,59.95585 65.9376,59.95585c40.12802,0 49.30313,4.60319 4.46071,9.66756c-39.90255,4.24795 -73.02118,-27.93679 -73.02118,-59.74039z" fill="#f2bd9d" stroke="#000000" stroke-width="0"/></g><path d="M279.95493,122.05778c0,-7.78178 6.30839,-14.09017 14.09017,-14.09017c7.78178,0 14.09017,6.30839 14.09017,14.09017c0,7.78178 -6.30839,14.09017 -14.09017,14.09017c-7.78178,0 -14.09017,-6.30839 -14.09017,-14.09017z" fill="#1a1507" stroke="#0c0c0c" stroke-width="2" stroke-linecap="butt"/><path d="M296.57214,121.24426c0,-2.74328 2.22387,-4.96715 4.96715,-4.96715c2.74328,0 4.96715,2.22387 4.96715,4.96715c0,2.74328 -2.22387,4.96715 -4.96715,4.96715c-2.74328,0 -4.96715,-2.22387 -4.96715,-4.96715z" fill="#fdf7c7" stroke="#000000" stroke-width="0" stroke-linecap="butt"/><path d="M322.3783,111.90278c0,-7.78178 6.30838,-14.09017 14.09017,-14.09017c7.78178,0 14.09017,6.30839 14.09017,14.09017c0,7.78179 -6.30839,14.09017 -14.09017,14.09017c-7.78178,0 -14.09017,-6.30839 -14.09017,-14.09017z" fill="#1a1507" stroke="#0c0c0c" stroke-width="2" stroke-linecap="butt"/><path d="M339.63405,110.71417c0,-2.74328 2.22387,-4.96716 4.96715,-4.96716c2.74328,0 4.96715,2.22387 4.96715,4.96716c0,2.74329 -2.22387,4.96715 -4.96715,4.96715c-2.74328,0 -4.96715,-2.22386 -4.96715,-4.96715z" fill="#fdf7c7" stroke="#000000" stroke-width="0" stroke-linecap="butt"/><path d="M345.42531,142.2076c0,0 0.80439,4.42242 -1.28221,7.41951c-1.77824,2.55416 -6.43645,3.76125 -7.03182,3.69099c-16.00822,-1.88909 -60.99789,-4.2288 -72.35253,-8.38683c-6.8162,-2.49606 -5.51716,-17.57967 -5.51716,-17.57967" fill="none" stroke="#1a1507" stroke-width="2" stroke-linecap="round"/><path d="M278.70188,153.27065c3.41384,5.22359 3.58364,11.15584 0.37925,13.25004c-3.20439,2.09421 -8.56952,-0.44266 -11.98336,-5.66625c-1.81793,-2.78165 -5.56439,-13.55006 -5.52281,-16.04704c0.02496,-1.49862 8.32433,1.32571 13.462,4.45114c2.37716,1.44612 2.58502,2.35973 3.66492,4.0121z" fill="#fdf7c7" stroke="#1a1507" stroke-width="2" stroke-linecap="butt"/></g></g></svg>