<svg version="1.1" xmlns="http://www.w3.org/2000/svg" xmlns:xlink="http://www.w3.org/1999/xlink" width="175.99499" height="329.93344" viewBox="0,0,175.99499,329.93344"><g transform="translate(-229.35605,-29.4848)"><g data-paper-data="{&quot;isPaintingLayer&quot;:true}" fill-rule="nonzero" stroke-linejoin="miter" stroke-miterlimit="10" stroke-dasharray="" stroke-dashoffset="0" style="mix-blend-mode: normal"><g data-paper-data="{&quot;index&quot;:null}" stroke="#000000" stroke-linecap="butt"><path d="M288.09783,221.58399c13.07592,30.66494 8.18009,38.97674 0.73714,42.15051c-7.44296,3.17378 -24.0768,-19.11224 -37.15272,-49.77719c-13.07591,-30.66496 55.49339,-7.99917 62.93635,-11.17293c6.98391,1.24634 3.74743,6.91405 -3.33935,10.31016c-8.73966,4.1882 -24.29911,5.86832 -23.18143,8.48945z" fill="#216aff" stroke-width="2"/><path d="M294.75735,274.13637c-13.5009,5.75696 -28.99541,-0.24615 -34.60792,-13.40833c-5.61253,-13.16216 0.78228,-28.49915 14.28319,-34.25611c13.5009,-5.75695 28.99539,0.24616 34.60791,13.40833c5.61252,13.16217 -0.78227,28.49915 -14.28318,34.25611z" fill="#faddbf" stroke-width="2"/><path d="M260.1765,259.78433c-5.61252,-13.16217 2.12117,-28.21428 7.73368,-15.05209c5.61253,13.16217 40.37515,22.70346 26.87424,28.46042c-13.5009,5.75695 -28.99541,-0.24615 -34.60791,-13.40833z" fill="#ef8b89" stroke-width="0"/></g><g data-paper-data="{&quot;index&quot;:null}" stroke="#000000" stroke-linecap="butt"><path d="M276.11637,339.26618v-95.29492h29.49199v95.29492z" fill="#73fffc" stroke-width="2"/><path d="M277.09908,338.31977l18.60659,-13.13896c0,0 2.26208,-0.70825 2.52228,-2.78987c1.17702,-9.41615 6.3799,-77.52842 6.3799,-77.52842l1.32626,93.78573z" fill="#59a9e6" stroke-width="0"/></g><g data-paper-data="{&quot;index&quot;:null}" stroke="#000000" stroke-linecap="butt"><path d="M315.45775,336.84363v-95.29492h29.49199v95.29492z" fill="#73fffc" stroke-width="2"/><path d="M316.44046,335.89725l18.60659,-13.13896c0,0 2.26208,-0.70825 2.52228,-2.78987c1.17702,-9.41615 6.3799,-77.52842 6.3799,-77.52842l1.32626,93.78573z" fill="#59a9e6" stroke-width="0"/></g><g data-paper-data="{&quot;index&quot;:null}" stroke="#000000" stroke-linecap="butt"><path d="M312.13406,178.57115c18.77199,0 33.98969,24.87307 33.98969,55.55556c0,8.35076 6.37392,33.61764 4.35457,40.7234c-5.40019,19.00234 -24.68139,14.83216 -38.34426,14.83216c-10.32729,0 -32.7059,2.78608 -38.9397,-9.09579c-5.09742,-9.71589 4.95001,-32.65706 4.95001,-46.45977c0,-30.68249 15.2177,-55.55556 33.98969,-55.55556z" fill="#216aff" stroke-width="2"/><path d="M339.8733,203.54014c2.17098,1.37012 5.51953,20.51569 5.51953,29.96813c0,8.35075 6.37393,33.61764 4.35457,40.7234c-5.40019,19.00233 -24.68138,14.83215 -38.34425,14.83215c-10.32729,0 -32.7059,2.78607 -38.9397,-9.09579c-5.09743,-9.71588 56.94455,-16.46203 56.94455,-30.26474c0,-21.0232 4.52139,-62.9273 10.4653,-46.16315z" fill="#3236f4" stroke-width="0"/></g><g data-paper-data="{&quot;index&quot;:null}" stroke="#000000" stroke-linecap="butt"><g><path d="M401.80994,115.75512c1.21467,46.77502 -35.71929,85.67835 -82.49431,86.89302c-46.77502,1.21467 -85.67835,-35.71929 -86.89302,-82.49431c-1.21467,-46.77502 35.71929,-85.67835 82.49431,-86.89302c46.77502,-1.21467 85.67835,35.71928 86.89302,82.4943z" fill="#faddbf" stroke-width="2"/><path d="M401.55667,114.89191c1.21467,46.77502 -35.71929,85.67835 -82.49431,86.89302c-6.06087,0.15739 -18.53755,-1.47932 -20.93048,-2.22644c-1.49592,-0.46704 26.99223,-7.58264 46.91856,-21.41106c10.69228,-7.42021 16.5415,-21.98786 19.30292,-26.80364c1.60654,-0.48078 5.49968,-20.22977 5.50106,-20.29013c0.58197,-25.31356 -26.52156,-86.91464 -18.62227,-89.69165c0.60545,-0.21285 12.74541,6.28241 22.30645,14.38513c7.69233,6.51904 13.18381,14.92253 13.70811,15.27611c4.59096,3.09604 13.91916,28.81943 14.30996,43.86864z" fill="#ef8b89" stroke-width="0"/><path d="M232.93394,119.68218c-0.94858,-36.52784 42.3947,-48.88326 82.91004,-29.32804c42.32738,20.42982 84.86509,-9.01102 85.81365,27.51681c0.47172,18.16571 -8.0707,10.38048 -22.28021,-1.89414c-2.94298,-2.54223 -12.64109,10.63488 -16.04052,7.89816c-4.33304,-3.48831 -8.3101,-8.69655 -12.33119,-14.10197c-3.23789,-4.35262 -13.37894,12.87132 -16.88277,9.058c-5.39197,-5.86822 -5.77382,-12.87146 -13.05122,-12.68248c-2.73648,0.07106 -9.77797,11.99893 -12.48841,12.3968c-2.10173,0.30851 -9.63344,-11.71215 -11.68902,-11.29629c-3.73286,0.75517 -11.9619,11.22194 -15.42207,12.43611c-1.38736,0.48684 -12.72548,-8.07196 -14.05076,-7.56471c-1.89548,0.72549 -8.58791,10.30657 -10.28056,11.1222c-2.6948,1.29854 -10.94572,-5.93753 -13.06053,-4.71045c-8.72739,5.0639 -8.14528,12.97598 -8.65925,14.87906c-0.50379,1.86543 -2.18539,-2.10863 -2.48715,-13.72905z" fill="#ef8b89" stroke-width="0"/></g><path d="M231.18479,111.41391c-0.94856,-36.52783 39.38493,-79.73687 85.29628,-80.92911c45.91136,-1.19224 86.92141,42.47469 87.86997,79.00252c0.47173,18.16571 -8.29025,10.38617 -22.8654,-1.87895c-3.01869,-2.54027 -12.9811,10.64372 -16.46814,7.90927c-4.4447,-3.48542 -8.5229,-8.69102 -12.64613,-14.0938c-3.32015,-4.35048 -13.73991,12.88069 -17.33337,9.0697c-5.52989,-5.86464 -5.917,-12.86773 -13.3861,-12.67377c-2.80855,0.07293 -10.04356,12.00584 -12.82561,12.40556c-2.15726,0.30996 -9.879,-11.70575 -11.98897,-11.28849c-3.83163,0.75774 -12.28445,11.23032 -15.83653,12.44687c-1.42421,0.48779 -13.05492,-8.06341 -14.41544,-7.55525c-1.94588,0.72678 -8.82102,10.31261 -10.55879,11.12942c-2.76663,1.3004 -11.22977,-5.93016 -13.4011,-4.70161c-17.74384,10.03958 -10.83097,24.63308 -11.44059,1.15765z" fill="#724e36" stroke-width="2"/><path d="M231.40229,110.2451c-0.94856,-36.52783 43.54408,-48.9131 85.11254,-29.38523c43.42759,20.40125 87.10514,-9.06919 88.0537,27.45864c0.47173,18.1657 -8.29025,10.38617 -22.8654,-1.87895c-3.01869,-2.54028 -12.9811,10.64371 -16.46814,7.90926c-4.44472,-3.48542 -8.52291,-8.69102 -12.64614,-14.0938c-3.32015,-4.35048 -13.73991,12.88069 -17.33337,9.0697c-5.52989,-5.86464 -5.917,-12.86774 -13.3861,-12.67378c-2.80855,0.07294 -10.04356,12.00585 -12.82561,12.40557c-2.15726,0.30996 -9.879,-11.70575 -11.98897,-11.28849c-3.83163,0.75774 -12.28445,11.23032 -15.83653,12.44687c-1.42421,0.48779 -13.05492,-8.06341 -14.41544,-7.55525c-1.94589,0.72678 -8.82103,10.31261 -10.5588,11.12942c-2.76663,1.3004 -11.22977,-5.93016 -13.4011,-4.70161c-17.74385,10.03957 -10.83098,24.63307 -11.4406,1.15764z" fill="#623728" stroke-width="0"/></g><g data-paper-data="{&quot;index&quot;:null}" stroke="#000000" stroke-linecap="butt"><path d="M338.04346,109.76363c16.56296,-0.4301 30.5909,22.365 31.33228,50.91432c0.74138,28.5493 -12.56624,43.63039 -29.12919,44.0605c-16.56295,0.43012 -30.10921,-13.95361 -30.85059,-42.50293c-0.74138,-28.54931 12.08455,-52.04178 28.6475,-52.47189z" fill="#f0f0f0" stroke-width="2"/><path d="M355.62757,141.44596c-7.27774,-40.64129 12.34943,-10.13081 13.09081,18.41851c0.74138,28.5493 -12.56624,43.63039 -29.12919,44.0605c-16.56295,0.43011 21.07245,-34.36726 16.03839,-62.47901z" fill="#9a99ff" stroke-width="0"/></g><path d="M320.86567,140.98554c5.78211,-0.15016 10.8024,12.55024 11.21315,28.36712c0.41074,15.81689 -3.94363,28.76072 -9.72573,28.91087c-5.78211,0.15016 -10.8024,-12.55024 -11.21315,-28.36712c-0.41074,-15.81689 3.94363,-28.76072 9.72573,-28.91087z" data-paper-data="{&quot;index&quot;:null}" fill="#000000" stroke="none" stroke-width="0" stroke-linecap="butt"/><g data-paper-data="{&quot;index&quot;:null}" stroke="#000000" stroke-linecap="butt"><path d="M313.62388,132.08092c3.99541,-9.85618 9.47006,-21.80723 25.17503,-22.21507c15.70496,-0.40784 18.48809,11.79423 23.04845,20.82761c4.79289,9.49401 -6.55244,14.43172 -22.25741,14.83956c-15.70497,0.40783 -30.15846,-3.10997 -25.96607,-13.45209z" fill="#a100fe" stroke-width="2"/><path d="M314.53865,131.7028c3.85054,-9.85242 9.70908,0.57504 24.87854,0.18112c15.16946,-0.39393 17.28755,-10.56311 21.70051,-1.52589c4.63797,9.49803 -6.31641,14.4256 -21.48587,14.81952c-15.16946,0.39392 -29.13358,-3.13657 -25.09319,-13.47475z" fill="#99008e" stroke-width="0"/></g><g data-paper-data="{&quot;index&quot;:null}" stroke="#000000" stroke-linecap="butt"><path d="M307.03863,154.29061c0.74138,28.54931 -12.0401,43.61673 -28.60305,44.04684c-16.56295,0.4301 -30.63536,-13.93996 -31.37674,-42.48927c-0.74138,-28.54931 12.08456,-52.04178 28.64751,-52.47189c16.56296,-0.4301 30.5909,22.365 31.33228,50.91432z" fill="#f0f0f0" stroke-width="2"/><path d="M247.6731,155.00169c-0.74138,-28.54932 17.27579,-60.03737 12.1172,-19.07312c-3.56822,28.33515 35.82249,61.13227 19.25954,61.56238c-16.56295,0.4301 -30.63536,-13.93996 -31.37674,-42.48927z" fill="#9a99ff" stroke-width="0"/></g><path d="M257.45593,131.87963c5.78212,-0.15016 10.8024,12.55024 11.21315,28.36712c0.41074,15.81688 -3.94363,28.76072 -9.72573,28.91087c-5.78211,0.15016 -10.8024,-12.55024 -11.21315,-28.36712c-0.41073,-15.81688 3.94364,-28.76072 9.72574,-28.91087z" data-paper-data="{&quot;index&quot;:null}" fill="#000000" stroke="none" stroke-width="0" stroke-linecap="butt"/><g data-paper-data="{&quot;index&quot;:null}" stroke="#000000" stroke-linecap="butt"><path d="M301.25133,124.39607c4.72352,10.1106 -9.52792,14.3738 -25.23289,14.78164c-15.70497,0.40783 -27.29128,-3.9344 -22.99761,-13.66436c4.08535,-9.25791 6.23141,-21.58796 21.93638,-21.9958c15.70497,-0.40782 21.79253,11.24298 26.2941,20.87851z" fill="#a100fe" stroke-width="2"/><path d="M300.31817,124.06594c4.57151,10.11454 -9.19055,14.36504 -24.36001,14.75896c-15.16947,0.39393 -26.36482,-3.95845 -22.22607,-13.68439c3.93796,-9.25408 6.58099,0.79146 21.75045,0.39754c15.16947,-0.39392 20.4789,-11.11141 24.83562,-1.47212z" fill="#99008e" stroke-width="0"/></g><path d="M241.73722,337.30086c0,-11.6628 13.71248,-9.87692 31.62358,-9.87692c14.33063,0 27.65301,-10.77791 32.14847,-5.26144c1.12318,1.37828 1.08979,12.80695 1.08979,15.13837c0,11.6628 -14.51982,21.11737 -32.43092,21.11737c-17.9111,0 -32.43092,-9.45457 -32.43092,-21.11737z" data-paper-data="{&quot;index&quot;:null}" fill="#000082" stroke="#000000" stroke-width="2" stroke-linecap="butt"/><path d="M274.61784,327.99385c14.33063,0 25.38775,-8.75646 29.88321,-5.7726c1.12318,0.74551 1.0898,12.01046 1.0898,13.27153c0,6.30841 -12.25456,9.26589 -30.16566,9.26589c-17.91111,0 -31.80169,-3.88169 -31.80169,-10.1901c0,-6.30841 13.08324,-6.57472 30.99434,-6.57472z" data-paper-data="{&quot;index&quot;:null}" fill="#2e0048" stroke="#000000" stroke-width="0" stroke-linecap="butt"/><path d="M284.72416,336.65603c0,-11.6628 13.71248,-9.87692 31.62358,-9.87692c14.33063,0 27.65301,-10.77791 32.14847,-5.26144c1.12318,1.37828 1.08979,12.80695 1.08979,15.13837c0,11.6628 -14.51982,21.11737 -32.43092,21.11737c-17.9111,0 -32.43092,-9.45457 -32.43092,-21.11737z" data-paper-data="{&quot;index&quot;:null}" fill="#000082" stroke="#000000" stroke-width="2" stroke-linecap="butt"/><path d="M317.60478,327.349c14.33063,0 25.38775,-8.75646 29.88321,-5.7726c1.12318,0.74551 1.0898,12.01046 1.0898,13.27153c0,6.30841 -12.25456,9.26589 -30.16566,9.26589c-17.91111,0 -31.80169,-3.88169 -31.80169,-10.1901c0,-6.30841 13.08324,-6.57472 30.99434,-6.57472z" data-paper-data="{&quot;index&quot;:null}" fill="#2e0048" stroke="#000000" stroke-width="0" stroke-linecap="butt"/><g data-paper-data="{&quot;index&quot;:null}"><path d="M312.2917,249.29318c-12.41754,-2.79333 -22.19716,-10.51601 -23.09478,-21.63738c-0.16637,-2.06159 -0.36961,-4.31691 0.14304,-6.59579c3.27817,-14.57267 16.1105,-21.67865 30.82992,-18.36749c14.71938,3.31113 24.14941,18.77394 21.05703,30.03948c-3.95385,14.40404 -14.21583,19.8723 -28.93519,16.56118z" fill="#485e84" stroke="#000000" stroke-width="2" stroke-linecap="butt"/><path d="M331.53915,210.4595c0,0 2.25045,1.97226 4.24994,4.90751c2.14839,3.15386 4.06798,7.4044 4.42147,11.06299c0.27695,2.86672 -0.57499,7.32553 -2.7837,10.9811c-1.42256,2.35441 -2.66936,4.61896 -4.10269,6.18531c-1.46306,1.59887 -13.40881,7.78386 -13.40881,7.78386l-19.47106,-7.72892c0,0 -5.75068,-6.03641 -7.43554,-9.11623c-1.47496,-2.69622 -2.1772,-6.43931 -2.16821,-9.35614c0.00845,-2.74116 0.68636,-4.74329 0.68636,-4.74329c0,0 0.35035,1.06682 1.38242,1.30123c4.54261,1.03176 18.43423,3.09113 35.97245,-4.76283c1.82838,-0.81878 2.65741,-6.51472 2.65741,-6.51472z" fill="#343545" stroke="none" stroke-width="0" stroke-linecap="butt"/><path d="M318.76202,202.74785c0,0 6.29685,11.33368 7.74979,17.69633c1.14778,5.0262 -2.61282,13.22718 -2.61282,13.22718" fill="none" stroke="#000000" stroke-width="1" stroke-linecap="round"/><path d="M299.7889,238.29446c0,0 -5.41773,-8.0499 -6.4159,-12.27244c-0.98877,-4.1826 -0.92546,-11.33283 -0.92546,-11.33283" fill="none" stroke="#000000" stroke-width="1" stroke-linecap="round"/><path d="M328.49752,206.61234c0,0 5.20215,10.36501 7.49023,18.63198c1.49111,5.38752 -2.49485,13.74805 -2.49485,13.74805" fill="none" stroke="#000000" stroke-width="1" stroke-linecap="round"/><path d="M289.86287,231.96853c0,0 3.46588,-16.8961 22.49329,-18.36662c17.3707,-1.34249 28.43653,11.96249 28.43653,11.96249" fill="none" stroke="#000000" stroke-width="1" stroke-linecap="round"/><path d="M294.31254,239.48125c0,0 4.2507,-13.95889 16.83868,-14.90454c15.33079,-1.15167 28.80959,10.47521 28.80959,10.47521" fill="none" stroke="#000000" stroke-width="1" stroke-linecap="round"/><path d="M305.68606,207.91766c-1.13838,0.38884 -2.31082,-0.02655 -2.61858,-0.92781c-0.30779,-0.90122 0.77726,-1.29624 1.91569,-1.68506c1.13841,-0.38882 1.89906,-0.6242 2.20682,0.27706c0.3078,0.90119 -0.36549,1.94699 -1.50392,2.33581z" fill="#8fbbbe" stroke="none" stroke-width="0" stroke-linecap="butt"/><path d="M299.18996,211.18249c-0.5868,-0.132 -0.80459,-0.55857 -0.60658,-1.4388c0.19798,-0.88024 1.0113,-1.44692 1.59813,-1.31493c0.58681,0.13202 0.62749,0.51875 0.42948,1.39898c-0.198,0.88022 -0.83422,1.48675 -1.42105,1.35476z" fill="#8fbbbe" stroke="none" stroke-width="0" stroke-linecap="butt"/><path d="M312.25368,205.74266c-0.89632,-0.10309 -1.56724,-0.67114 -1.49848,-1.26863c0.06875,-0.59754 0.73151,-0.46705 1.62786,-0.36397c0.89631,0.10311 1.68672,0.13988 1.61796,0.73737c-0.06874,0.59753 -0.85101,0.99833 -1.74736,0.89525z" fill="#8fbbbe" stroke="none" stroke-width="0" stroke-linecap="butt"/><path d="M290.85843,220.09922c0,0 1.81539,-2.31762 4.6216,-4.76728c3.81152,-3.32725 9.18537,-7.11505 11.85131,-7.68713c3.01457,-0.64694 6.99985,-1.45558 11.23174,-0.71554c7.4643,1.30534 16.17707,6.66885 16.17707,6.66885" fill="none" stroke="#000000" stroke-width="0.5" stroke-linecap="round"/><path d="M307.38125,233.49066c0,0 -5.44244,-9.51021 -6.30914,-13.98105c-1.02873,-5.3065 0.89329,-15.70284 0.89329,-15.70284" fill="none" stroke="#000000" stroke-width="1" stroke-linecap="round"/><path d="M308.44672,202.28798c0,0 5.39981,8.90049 6.05858,16.81333c0.3752,4.50666 -1.2758,14.03044 -1.2758,14.03044" fill="none" stroke="#000000" stroke-width="1" stroke-linecap="round"/></g><g data-paper-data="{&quot;index&quot;:null}" stroke="#000000" stroke-linecap="butt"><path d="M336.46812,237.97651c2.83877,-0.24676 -2.99817,-14.76741 -3.41367,-24.44987c-0.33692,-7.85128 3.14197,-13.37349 7.52719,-7.79693c0.70069,8.06098 52.95857,57.90677 19.74736,60.79359c-33.21122,2.88682 -60.70226,-1.30766 -61.40294,-9.36865c-0.70067,-8.06097 4.33086,-16.29133 37.54208,-19.17814z" fill="#216aff" stroke-width="2"/><path d="M310.47082,228.10282c14.25509,-1.23909 26.84148,9.60986 28.11246,24.23181c1.27099,14.62195 -9.25472,27.47989 -23.50982,28.71898c-14.2551,1.23909 -26.84148,-9.60987 -28.11246,-24.23182c-1.271,-14.62194 9.25471,-27.47987 23.50981,-28.71896z" fill="#faddbf" stroke-width="2"/><path d="M325.53794,266.68041c14.2551,-1.2391 4.61064,12.66629 -9.64446,13.90538c-14.2551,1.2391 -26.84148,-9.60986 -28.11246,-24.23181c-1.27098,-14.62195 23.50181,11.56552 37.75691,10.32643z" fill="#ef8b89" stroke-width="0"/></g><path d="M376.30258,160.53083c2.78343,0 5.03985,5.29996 5.03985,11.83779c0,6.53783 -2.25642,11.83779 -5.03985,11.83779c-2.78343,0 -5.03985,-5.29996 -5.03985,-11.83779c0,-6.53783 2.25642,-11.83779 5.03985,-11.83779z" data-paper-data="{&quot;index&quot;:null}" fill="#000000" stroke="none" stroke-width="0" stroke-linecap="butt"/></g></g></svg>