<svg version="1.1" xmlns="http://www.w3.org/2000/svg" xmlns:xlink="http://www.w3.org/1999/xlink" width="204.11772" height="327.20256" viewBox="0,0,204.11772,327.20256"><g transform="translate(-259.26898,-17.65184)"><g data-paper-data="{&quot;isPaintingLayer&quot;:true}" fill-rule="nonzero" stroke-linejoin="miter" stroke-miterlimit="10" stroke-dasharray="" stroke-dashoffset="0" style="mix-blend-mode: normal"><g data-paper-data="{&quot;index&quot;:null}" stroke="#000000" stroke-linecap="butt"><path d="M298.74219,247.65315l-14.11846,-45.93986l48.7473,-14.98126l14.11846,45.93986z" fill="#ffcaa0" stroke-width="2"/><g><path d="M284.20101,202.0318l-19.46781,-63.34604l49.38266,-15.17653l19.46782,63.34604z" fill="#ff0008" stroke-width="2"/><path d="M332.93533,187.27682c0,0 -16.20702,4.98081 -24.24604,7.45141c-7.95395,2.44445 -23.7356,7.29454 -23.7356,7.29454l-10.19667,-33.17879c0,0 21.47417,8.4841 29.24725,6.09524c8.19816,-2.5195 18.7344,-20.84119 18.7344,-20.84119l10.19666,33.17878z" fill="#8d005e" stroke-width="0"/></g><path d="M297.82648,247.36511l31.69217,-25.94074l2.93666,-34.98038l14.11847,45.93986z" fill="#ff6e5b" stroke-width="0"/></g><g data-paper-data="{&quot;index&quot;:null}" stroke="#000000" stroke-linecap="butt"><path d="M425.17177,39.58513c14.56178,1.69203 23.35308,28.99674 19.63594,60.98677c-3.71714,31.99004 -18.53512,56.55143 -33.0969,54.85939c-14.56178,-1.69204 -23.35309,-28.99675 -19.63595,-60.98678c3.71714,-31.99004 18.53513,-56.55142 33.09691,-54.85939z" fill="#01930e" stroke-width="2"/><path d="M392.52415,94.05963c3.71714,-31.99004 13.54642,-40.52689 9.82928,-8.53686c-3.71713,31.99003 24.36843,71.21566 9.80666,69.52363c-14.56177,-1.69203 -23.35308,-28.99675 -19.63594,-60.98678z" fill="#31525b" stroke-width="0"/></g><g data-paper-data="{&quot;index&quot;:null}" stroke="#000000" stroke-linecap="butt"><path d="M282.05709,343.41003v-90.27109h61.17899v90.27109z" fill="#273750" stroke-width="2"/><path d="M281.26976,342.65346l42.75189,-40.95544l18.42709,-49.31565v90.27109z" fill="#1f1e2e" stroke-width="0"/></g><path d="M281.41933,252.72766v-113.80147h113.80147v113.80147z" data-paper-data="{&quot;index&quot;:null}" fill="#ff0008" stroke="#000000" stroke-width="2" stroke-linecap="butt"/><g data-paper-data="{&quot;index&quot;:null}" fill="#000000" stroke="#000000" stroke-linecap="butt"><path d="M307.14873,252.25844v-111.68333h61.17899v111.68333z" stroke-width="2"/><path d="M306.36136,251.32241l42.75189,-50.67005l18.42709,-61.01328v111.68333z" stroke-width="0"/></g><g data-paper-data="{&quot;index&quot;:null}" stroke="#000000" stroke-linecap="butt"><path d="M334.66304,343.8544v-90.27109h61.17899v90.27109z" fill="#273750" stroke-width="2"/><path d="M333.87567,343.0978l42.75189,-40.95544l18.42709,-49.31565v90.27109z" fill="#1f1e2e" stroke-width="0"/></g><g data-paper-data="{&quot;index&quot;:null}" stroke="#000000" stroke-linecap="butt"><path d="M417.79892,253.70977l-23.93605,-41.67574l44.22259,-25.39881l23.93605,41.67575z" fill="#ffcaa0" stroke-width="2"/><g><path d="M393.52113,212.43819l-33.00519,-57.46629l44.79899,-25.72985l33.0052,57.46629z" fill="#ff0008" stroke-width="2"/><path d="M437.78115,187.26294c0,0 -14.70269,8.44434 -21.99553,12.63291c-7.21567,4.14425 -21.53247,12.36696 -21.53247,12.36696l-17.28715,-30.09915c0,0 22.81936,3.52088 29.87095,-0.52913c7.43721,-4.27149 13.65706,-24.47074 13.65706,-24.47074l17.28714,30.09914z" fill="#8d005e" stroke-width="0"/></g><path d="M416.84217,253.63156l25.16481,-32.31174l-4.87826,-34.76281l23.93605,41.67574z" fill="#ff6e5b" stroke-width="0"/></g><g data-paper-data="{&quot;index&quot;:null}" stroke="#000000" stroke-linecap="butt"><path d="M268.74632,78.53432c0.15887,-1.36726 4.04125,-27.09472 4.29917,-28.42925c6.51724,-33.72248 40.45655,-32.28154 82.6173,-27.38259c39.60338,4.60179 73.28956,13.0887 75.64008,44.86299c0.25081,3.39044 -3.43454,25.9286 -3.83693,29.39155c-1.43827,12.37786 -1.62991,39.92825 -10.09945,48.92622c-16.10652,17.11144 -48.09247,10.2233 -76.81701,6.8856c-30.37101,-3.52902 -58.80617,-5.84525 -69.76072,-27.93168c-4.85425,-9.78709 -3.32392,-35.29424 -2.04243,-46.32287z" fill="#ffcaa0" stroke-width="2"/><path d="M266.92405,78.33282c0.15887,-1.36726 4.04124,-27.09472 4.29916,-28.42925c3.70279,-19.1595 -0.17177,60.94374 44.76501,88.23772c35.21554,21.38945 103.6221,3.91011 100.21693,7.52773c-16.10652,17.11144 -48.75339,10.25602 -77.47793,6.91832c-30.37102,-3.52901 -58.80618,-5.84524 -69.76073,-27.93167c-4.85425,-9.78709 -3.32392,-35.29424 -2.04243,-46.32287z" fill="#ff6e5b" stroke-width="0"/></g><g data-paper-data="{&quot;index&quot;:null}" stroke="#000000" stroke-linecap="butt"><path d="M294.21791,22.28083c14.56178,1.69203 23.35308,28.99674 19.63594,60.98677c-3.71714,31.99003 -18.53513,56.55142 -33.09691,54.85938c-14.56178,-1.69203 -23.35308,-28.99673 -19.63594,-60.98677c3.71714,-31.99004 18.53513,-56.55143 33.09691,-54.85939z" fill="#01930e" stroke-width="2"/><path d="M261.57029,76.75534c3.71714,-31.99004 13.54643,-40.52689 9.82929,-8.53686c-3.71714,31.99003 24.36841,71.21566 9.80665,69.52363c-14.56176,-1.69203 -23.35308,-28.99675 -19.63594,-60.98678z" fill="#31525b" stroke-width="0"/></g><g data-paper-data="{&quot;index&quot;:null}" stroke-linecap="butt"><path d="M448.06322,61.82968c-2.03843,17.54292 -44.77481,26.99045 -95.45436,21.10164c-50.67956,-5.8888 -90.11097,-24.88397 -88.07254,-42.42689c2.03843,-17.54293 44.7748,-26.99044 95.45435,-21.10164c50.67956,5.88881 90.11098,24.88397 88.07255,42.4269z" fill="#000000" stroke="none" stroke-width="NaN"/><path d="M447.29825,62.0874c-2.03843,17.54292 -44.77481,26.99045 -95.45436,21.10164c-50.67956,-5.88881 -90.11097,-24.88398 -88.07254,-42.4269c2.03843,-17.54292 41.4855,13.72903 92.16505,19.61783c50.67955,5.88881 93.40028,-15.8355 91.36185,1.70743z" fill="#ff0000" stroke="#000000" stroke-width="2"/><path d="M440.88692,70.60123c-0.56096,4.82766 -38.81404,19.13139 -89.32825,11.81963c-17.67692,-2.55867 -34.21851,-6.12362 -47.5186,-10.64277c-24.69173,-8.38985 -39.24813,-18.72153 -36.46407,-22.51529c2.87543,-3.91826 35.46072,21.11224 86.14027,27.00105c50.67955,5.8888 87.73161,-10.49028 87.17065,-5.66262z" fill="#900056" stroke="#000000" stroke-width="0"/></g><path d="M359.67516,112.75658c-1.81412,15.61248 -6.17042,27.93359 -9.73007,27.51997c-3.55965,-0.41362 -4.97466,-13.40534 -3.16054,-29.01781c1.81412,-15.61247 6.17042,-27.93357 9.73006,-27.51995c3.55965,0.41361 4.97467,13.40533 3.16055,29.01781z" data-paper-data="{&quot;index&quot;:null}" fill="#000000" stroke="none" stroke-width="0" stroke-linecap="butt"/><path d="M388.68737,88.3409c3.3723,0.39185 4.64133,13.31529 2.83446,28.86532c-1.80687,15.55002 -6.00541,27.83815 -9.3777,27.4463c-3.3723,-0.39185 -4.64133,-13.31529 -2.83446,-28.86532c1.80687,-15.55003 6.00541,-27.83816 9.3777,-27.44631z" data-paper-data="{&quot;index&quot;:null}" fill="#000000" stroke="none" stroke-width="0" stroke-linecap="butt"/><path d="M347.33234,85.68996l29.7995,3.46261" data-paper-data="{&quot;index&quot;:null}" fill="none" stroke="#000000" stroke-width="5" stroke-linecap="round"/><path d="M408.96674,87.52597l-23.69953,1.80044" data-paper-data="{&quot;index&quot;:null}" fill="none" stroke="#000000" stroke-width="5" stroke-linecap="round"/><path d="M337.46227,127.54612c0,6.37953 -5.17163,11.55116 -11.55116,11.55116c-6.37953,0 -11.55116,-5.17163 -11.55116,-11.55116c0,-6.37953 5.02161,-3.90039 11.40114,-3.90039c6.37953,0 11.70117,-2.47914 11.70117,3.90039z" data-paper-data="{&quot;index&quot;:null}" fill="#000000" stroke="none" stroke-width="0" stroke-linecap="butt"/></g></g></svg>