<svg version="1.1" xmlns="http://www.w3.org/2000/svg" xmlns:xlink="http://www.w3.org/1999/xlink" width="178.58018" height="326.59075" viewBox="0,0,178.58018,326.59075"><g transform="translate(-220.4979,-32.97151)"><g data-paper-data="{&quot;isPaintingLayer&quot;:true}" fill-rule="nonzero" stroke-linejoin="miter" stroke-miterlimit="10" stroke-dasharray="" stroke-dashoffset="0" style="mix-blend-mode: normal"><g data-paper-data="{&quot;index&quot;:null}" stroke="#000000" stroke-linecap="butt"><path d="M282.40139,230.78941c20.063,26.6232 17.30845,35.86807 10.8465,40.73773c-6.46195,4.86967 -27.96467,-12.76507 -48.02767,-39.38828c-20.06299,-26.62321 51.94403,-21.10263 58.40598,-25.97229c7.07874,-0.46879 5.29938,5.81067 -0.76339,10.81055c-7.47682,6.16603 -22.17633,11.53665 -20.46143,13.8123z" fill="#216aff" stroke-width="2"/><path d="M307.12772,243.51573c8.61155,11.42735 6.09049,27.85174 -5.63095,36.68491c-11.72144,8.83317 -28.20459,6.73017 -36.81614,-4.69718c-8.61155,-11.42735 -6.09048,-27.85175 5.63096,-36.68492c11.72144,-8.83317 28.20458,-6.73016 36.81613,4.69719z" fill="#faddbf" stroke-width="2"/><path d="M268.36926,258.11123c8.61155,11.42735 44.6484,12.33367 32.92696,21.16684c-11.72144,8.83317 -28.20459,6.73017 -36.81613,-4.69719c-8.61155,-11.42735 -4.72238,-27.89702 3.88917,-16.46965z" fill="#ef8b89" stroke-width="0"/></g><g data-paper-data="{&quot;index&quot;:null}" stroke="#000000" stroke-linecap="butt"><path d="M275.38267,339.41019v-95.29492h29.49199v95.29492z" fill="#73fffc" stroke-width="2"/><path d="M276.36538,338.46378l18.60659,-13.13896c0,0 2.26208,-0.70825 2.52228,-2.78987c1.17702,-9.41615 6.3799,-77.52842 6.3799,-77.52842l1.32626,93.78573z" fill="#59a9e6" stroke-width="0"/></g><g data-paper-data="{&quot;index&quot;:null}" stroke="#000000" stroke-linecap="butt"><path d="M314.72405,336.98764v-95.29492h29.49199v95.29492z" fill="#73fffc" stroke-width="2"/><path d="M315.70676,336.04127l18.60659,-13.13896c0,0 2.26208,-0.70825 2.52228,-2.78987c1.17702,-9.41615 6.3799,-77.52842 6.3799,-77.52842l1.32626,93.78573z" fill="#59a9e6" stroke-width="0"/></g><g data-paper-data="{&quot;index&quot;:null}" stroke="#000000" stroke-linecap="butt"><path d="M311.40036,178.71517c18.77199,0 33.98969,24.87307 33.98969,55.55556c0,8.35076 6.37392,33.61764 4.35457,40.7234c-5.40019,19.00234 -24.68139,14.83216 -38.34426,14.83216c-10.32729,0 -32.7059,2.78608 -38.9397,-9.09579c-5.09742,-9.71589 4.95001,-32.65706 4.95001,-46.45977c0,-30.68249 15.2177,-55.55556 33.98969,-55.55556z" fill="#216aff" stroke-width="2"/><path d="M339.1396,203.68415c2.17098,1.37012 5.51953,20.51569 5.51953,29.96813c0,8.35075 6.37393,33.61764 4.35457,40.7234c-5.40019,19.00233 -24.68138,14.83215 -38.34425,14.83215c-10.32729,0 -32.7059,2.78607 -38.9397,-9.09579c-5.09743,-9.71588 56.94455,-16.46203 56.94455,-30.26474c0,-21.0232 4.52139,-62.9273 10.4653,-46.16315z" fill="#3236f4" stroke-width="0"/></g><g data-paper-data="{&quot;index&quot;:null}" stroke="#000000" stroke-linecap="butt"><g><path d="M313.78967,206.02053c-46.67813,3.24494 -87.14878,-31.96463 -90.39371,-78.64277c-3.24494,-46.67813 31.96463,-87.14878 78.64277,-90.39371c46.67813,-3.24494 87.14878,31.96463 90.39371,78.64277c3.24494,46.67813 -31.96463,87.14878 -78.64277,90.39371z" fill="#faddbf" stroke-width="2"/><path d="M392.14191,114.77543c3.24494,46.67813 -31.96463,87.14878 -78.64277,90.39371c-6.04832,0.42046 -18.5843,-0.67286 -21.00742,-1.31534c-1.51479,-0.40164 26.63744,-8.74774 45.94442,-23.4285c10.35995,-7.87756 15.57099,-22.6855 18.12065,-27.61666c1.58414,-0.5501 4.61592,-20.44953 4.61468,-20.5099c-0.51792,-25.31496 -30.27118,-85.68082 -22.49994,-88.79827c0.59563,-0.23895 13.00622,5.72296 22.91014,13.4028c7.96819,6.17881 13.81945,14.33588 14.35861,14.66636c4.72109,2.89373 15.15763,28.18774 16.20164,43.20578z" fill="#ef8b89" stroke-width="0"/><path d="M223.88636,126.88438c-2.53406,-36.45217 40.23174,-50.6783 81.55812,-32.90109c43.1747,18.57229 84.39367,-12.68816 86.92772,23.76402c1.26021,18.12808 -7.61228,10.72118 -22.34145,-0.92474c-3.05061,-2.41203 -12.1673,11.17384 -15.68238,8.58733c-4.48045,-3.29685 -8.67994,-8.32745 -12.93199,-13.55314c-3.42387,-4.20789 -12.80733,13.44021 -16.47347,9.78266c-5.64174,-5.62852 -6.32739,-12.60857 -13.58971,-12.10371c-2.73079,0.18984 -9.24763,12.41227 -11.93823,12.92747c-2.08634,0.3995 -10.13299,-11.28271 -12.16857,-10.77798c-3.69655,0.91657 -11.46327,11.73084 -14.86744,13.09414c-1.36492,0.54663 -13.06403,-7.51168 -14.36604,-6.94736c-1.86219,0.80711 -8.13221,10.6698 -9.78784,11.55818c-2.63587,1.41434 -11.19325,-5.45657 -13.25278,-4.1388c-8.49923,5.43814 -7.57405,13.31747 -8.00489,15.24108c-0.42231,1.88555 -2.27491,-2.01173 -3.08106,-13.60808z" fill="#ef8b89" stroke-width="0"/></g><path d="M221.77979,118.69989c-2.53406,-36.45218 35.88484,-81.3721 81.7011,-84.55712c45.81627,-3.18502 88.68404,38.65967 91.21809,75.11185c1.26021,18.12808 -7.83137,10.73642 -22.92543,-0.88414c-3.12618,-2.40678 -12.50661,11.19743 -16.10912,8.617c-4.59188,-3.2891 -8.8923,-8.31268 -13.24628,-13.53129c-3.50596,-4.20218 -13.16755,13.46525 -16.92313,9.81392c-5.77938,-5.61895 -6.47027,-12.59863 -13.92389,-12.08048c-2.80272,0.19484 -9.51267,12.43069 -12.27474,12.95086c-2.14177,0.40335 -10.37806,-11.26568 -12.46792,-10.75717c-3.79512,0.92342 -11.78514,11.75321 -15.28103,13.12289c-1.40169,0.54917 -13.3928,-7.48884 -14.72997,-6.92207c-1.91248,0.81061 -8.36483,10.68597 -10.06548,11.57748c-2.70755,1.41932 -11.47672,-5.43686 -13.59265,-4.11517c-17.29109,10.80071 -9.75095,25.08021 -11.37952,1.65341z" fill="#724e36" stroke-width="2"/><path d="M221.94631,117.52272c-2.53405,-36.45218 41.37873,-50.75805 83.75605,-33.05389c44.27263,18.49597 86.62908,-12.84356 89.16313,23.60862c1.26021,18.12808 -7.83137,10.73642 -22.92543,-0.88414c-3.12618,-2.40678 -12.50661,11.19743 -16.10912,8.617c-4.59189,-3.2891 -8.89231,-8.31268 -13.24629,-13.53129c-3.50596,-4.20218 -13.16755,13.46525 -16.92313,9.81392c-5.77938,-5.61895 -6.47027,-12.59863 -13.92389,-12.08048c-2.80272,0.19484 -9.51267,12.43069 -12.27474,12.95086c-2.14177,0.40335 -10.37806,-11.26568 -12.46792,-10.75717c-3.79512,0.92342 -11.78514,11.75321 -15.28103,13.12289c-1.40169,0.54917 -13.3928,-7.48884 -14.72997,-6.92207c-1.91249,0.81061 -8.36484,10.68597 -10.06549,11.57748c-2.70755,1.41932 -11.47672,-5.43686 -13.59265,-4.11517c-17.29109,10.80071 -9.75095,25.08021 -11.37952,1.65341z" fill="#623728" stroke-width="0"/></g><g data-paper-data="{&quot;index&quot;:null}" stroke="#000000" stroke-linecap="butt"><path d="M290.71268,145.65572c-1.98055,-28.49019 9.81301,-52.5175 26.34166,-53.66653c16.52865,-1.14902 31.53333,21.01536 33.51389,49.50554c1.98056,28.49017 -10.65953,44.13496 -27.18818,45.28399c-16.52865,1.14903 -30.6868,-12.63282 -32.66736,-41.123z" fill="#f0f0f0" stroke-width="2"/><path d="M349.87617,140.71057c1.98056,28.49017 -10.65953,44.13496 -27.18818,45.28399c-16.52865,1.14903 19.56001,-35.24998 13.30983,-63.11659c-9.03591,-40.28689 11.89779,-10.65758 13.87835,17.8326z" fill="#9a99ff" stroke-width="0"/></g><path d="M303.6297,124.2931c5.77013,-0.40112 11.33726,12.06926 12.43453,27.85338c1.09726,15.78411 -2.69085,28.90485 -8.46098,29.30597c-5.77013,0.40112 -11.33726,-12.06926 -12.43453,-27.85338c-1.09726,-15.78411 2.69085,-28.90485 8.46098,-29.30597z" data-paper-data="{&quot;index&quot;:null}" fill="#000000" stroke="none" stroke-width="0" stroke-linecap="butt"/><g data-paper-data="{&quot;index&quot;:null}" stroke="#000000" stroke-linecap="butt"><path d="M293.62704,115.34595c3.56359,-10.0204 8.51405,-22.19795 24.18649,-23.28745c15.67244,-1.0895 18.98286,10.98017 23.93123,19.80698c5.20068,9.27689 -5.9195,14.70268 -21.59194,15.79218c-15.67244,1.08951 -30.26508,-1.79726 -26.52579,-12.3117z" fill="#a100fe" stroke-width="2"/><path d="M294.52452,114.92847c3.41903,-10.01035 9.72489,0.15284 24.86294,-0.89951c15.13805,-1.05235 16.81249,-11.30392 21.61377,-2.46688c5.04608,9.28763 -5.68395,14.6863 -20.822,15.73865c-15.13805,1.05235 -29.24231,-1.86836 -25.65472,-12.37226z" fill="#99008e" stroke-width="0"/></g><g data-paper-data="{&quot;index&quot;:null}" stroke="#000000" stroke-linecap="butt"><path d="M286.89245,144.4391c1.98056,28.49018 -10.13448,44.09846 -26.66313,45.24749c-16.52865,1.14903 -31.21186,-12.59633 -33.19242,-41.0865c-1.98055,-28.49019 9.81301,-52.5175 26.34166,-53.66653c16.52865,-1.14902 31.53333,21.01536 33.51389,49.50554z" fill="#f0f0f0" stroke-width="2"/><path d="M238.89125,128.14635c-2.33428,28.46338 38.44363,59.51883 21.91498,60.66786c-16.52865,1.14903 -31.21186,-12.59633 -33.19242,-41.0865c-1.98055,-28.49018 14.65212,-60.73099 11.27744,-19.58136z" fill="#9a99ff" stroke-width="0"/></g><path d="M252.3843,156.40148c1.09726,15.78411 -2.69085,28.90485 -8.46098,29.30597c-5.77013,0.40112 -11.33726,-12.06926 -12.43453,-27.85338c-1.09726,-15.78411 2.69085,-28.90485 8.46098,-29.30597c5.77013,-0.40112 11.33726,12.06926 12.43453,27.85338z" data-paper-data="{&quot;index&quot;:null}" fill="#000000" stroke="none" stroke-width="0" stroke-linecap="butt"/><g data-paper-data="{&quot;index&quot;:null}" stroke="#000000" stroke-linecap="butt"><path d="M279.8123,114.82409c5.15816,9.89592 -8.89468,14.77404 -24.56712,15.86354c-15.67244,1.08951 -27.4364,-2.74544 -23.56935,-12.65269c3.67945,-9.42659 5.28799,-21.83822 20.96043,-22.92772c15.67244,-1.0895 22.26024,10.28593 27.17603,19.71687z" fill="#a100fe" stroke-width="2"/><path d="M278.8657,114.53482c5.00646,9.90646 -8.55801,14.75063 -23.69606,15.80298c-15.13805,1.05235 -26.51187,-2.80971 -22.79941,-12.70622c3.53235,-9.41637 6.60915,0.5049 21.7472,-0.54745c15.13805,-1.05235 19.97702,-11.99031 24.74825,-2.54932z" fill="#99008e" stroke-width="0"/></g><path d="M241.00352,337.44488c0,-11.6628 13.71248,-9.87692 31.62358,-9.87692c14.33063,0 27.65301,-10.77791 32.14847,-5.26144c1.12318,1.37828 1.08979,12.80695 1.08979,15.13837c0,11.6628 -14.51982,21.11737 -32.43092,21.11737c-17.9111,0 -32.43092,-9.45457 -32.43092,-21.11737z" data-paper-data="{&quot;index&quot;:null}" fill="#000082" stroke="#000000" stroke-width="2" stroke-linecap="butt"/><path d="M273.88414,328.13787c14.33063,0 25.38775,-8.75646 29.88321,-5.7726c1.12318,0.74551 1.0898,12.01046 1.0898,13.27153c0,6.30841 -12.25456,9.26589 -30.16566,9.26589c-17.91111,0 -31.80169,-3.88169 -31.80169,-10.1901c0,-6.30841 13.08324,-6.57472 30.99434,-6.57472z" data-paper-data="{&quot;index&quot;:null}" fill="#2e0048" stroke="#000000" stroke-width="0" stroke-linecap="butt"/><path d="M283.99046,336.80004c0,-11.6628 13.71248,-9.87692 31.62358,-9.87692c14.33063,0 27.65301,-10.77791 32.14847,-5.26144c1.12318,1.37828 1.08979,12.80695 1.08979,15.13837c0,11.6628 -14.51982,21.11737 -32.43092,21.11737c-17.9111,0 -32.43092,-9.45457 -32.43092,-21.11737z" data-paper-data="{&quot;index&quot;:null}" fill="#000082" stroke="#000000" stroke-width="2" stroke-linecap="butt"/><path d="M316.87108,327.49302c14.33063,0 25.38775,-8.75646 29.88321,-5.7726c1.12318,0.74551 1.0898,12.01046 1.0898,13.27153c0,6.30841 -12.25456,9.26589 -30.16566,9.26589c-17.91111,0 -31.80169,-3.88169 -31.80169,-10.1901c0,-6.30841 13.08324,-6.57472 30.99434,-6.57472z" data-paper-data="{&quot;index&quot;:null}" fill="#2e0048" stroke="#000000" stroke-width="0" stroke-linecap="butt"/><g data-paper-data="{&quot;index&quot;:null}"><path d="M347.50007,257.1167c-10.85889,6.63948 -23.25574,7.90387 -31.64251,0.54501c-1.55465,-1.36415 -3.27064,-2.8417 -4.48912,-4.83454c-7.79177,-12.74353 -3.52675,-26.77825 9.3451,-34.64849c12.87179,-7.87025 30.40614,-3.33481 36.02896,6.90527c7.18933,13.09287 3.62936,24.16249 -9.24241,32.03273z" fill="#485e84" stroke="#000000" stroke-width="2" stroke-linecap="butt"/><path d="M334.28241,215.83943c0,0 2.98858,-0.15087 6.4674,0.56429c3.73791,0.76843 8.07505,2.48342 10.87581,4.86374c2.19454,1.86515 4.68706,5.65912 5.64639,9.821c0.61786,2.68052 1.29933,5.17417 1.36082,7.29646c0.06279,2.16632 -4.20695,14.92267 -4.20695,14.92267l-19.35845,8.0068c0,0 -8.33064,-0.32994 -11.68425,-1.36791c-2.93588,-0.90871 -6.04583,-3.1069 -8.06999,-5.20708c-1.90226,-1.97369 -2.80943,-3.88291 -2.80943,-3.88291c0,0 0.9942,0.52194 1.89829,-0.02828c3.9793,-2.42176 15.38542,-10.61436 22.50797,-28.46213c0.74254,-1.86065 -2.62767,-6.52677 -2.62767,-6.52677z" fill="#343545" stroke="none" stroke-width="0" stroke-linecap="butt"/><path d="M319.74141,219.19851c0,0 12.41052,3.75248 17.88306,7.30857c4.32306,2.80914 7.33271,11.31444 7.33271,11.31444" fill="none" stroke="#000000" stroke-width="1" stroke-linecap="round"/><path d="M330.86762,257.92509c0,0 -9.49336,-2.00715 -13.14954,-4.34351c-3.62163,-2.31422 -8.55397,-7.49127 -8.55397,-7.49127" fill="none" stroke="#000000" stroke-width="1" stroke-linecap="round"/><path d="M329.42061,215.19514c0,0 10.95033,3.81919 18.34812,8.16095c4.82108,2.82951 7.78002,11.60623 7.78002,11.60623" fill="none" stroke="#000000" stroke-width="1" stroke-linecap="round"/><path d="M319.33804,260.29409c0,0 -9.27452,-14.54214 3.36104,-28.84414c11.53539,-13.05674 28.74183,-11.20914 28.74183,-11.20914" fill="none" stroke="#000000" stroke-width="1" stroke-linecap="round"/><path d="M327.76249,262.58954c0,0 -6.66631,-12.97995 1.71195,-22.42221c10.20382,-11.49962 27.97423,-12.53653 27.97423,-12.53653" fill="none" stroke="#000000" stroke-width="1" stroke-linecap="round"/><path d="M313.95357,232.01291c-0.54651,1.07165 -1.67737,1.58967 -2.52573,1.15693c-0.84836,-0.43268 -0.34444,-1.47165 0.20213,-2.54331c0.54656,-1.07166 0.92875,-1.77018 1.77711,-1.33744c0.84835,0.43267 1.09307,1.65215 0.5465,2.72381z" fill="#8fbbbe" stroke="none" stroke-width="0" stroke-linecap="butt"/><path d="M311.56307,238.87904c-0.51314,0.31375 -0.96646,0.15915 -1.4371,-0.6106c-0.47067,-0.76973 -0.28132,-1.74274 0.23184,-2.05653c0.51316,-0.31374 0.8116,-0.06445 1.28224,0.7053c0.47064,0.76974 0.43617,1.64806 -0.07699,1.96185z" fill="#8fbbbe" stroke="none" stroke-width="0" stroke-linecap="butt"/><path d="M317.15413,225.87935c-0.71521,0.54998 -1.59232,0.60927 -1.95891,0.13248c-0.36663,-0.47683 0.19999,-0.84454 0.91522,-1.39456c0.71522,-0.54996 1.30824,-1.07383 1.67483,-0.59704c0.36664,0.47681 0.08409,1.30912 -0.63114,1.85914z" fill="#8fbbbe" stroke="none" stroke-width="0" stroke-linecap="butt"/><path d="M311.78965,251.08033c0,0 -0.31023,-2.92758 -0.00111,-6.63974c0.41985,-5.04202 1.64065,-11.50232 3.15619,-13.76895c1.7137,-2.56308 4.01168,-5.91803 7.56484,-8.33289c6.26717,-4.25937 16.25578,-6.47462 16.25578,-6.47462" fill="none" stroke="#000000" stroke-width="0.5" stroke-linecap="round"/><path d="M332.9737,249.19097c0,0 -10.52773,-3.03827 -14.26239,-5.6444c-4.43273,-3.09322 -10.2906,-11.89455 -10.2906,-11.89455" fill="none" stroke="#000000" stroke-width="1" stroke-linecap="round"/><path d="M312.01614,226.04961c0,0 10.07268,2.63023 16.05428,7.85205c3.40676,2.97402 8.85174,10.96028 8.85174,10.96028" fill="none" stroke="#000000" stroke-width="1" stroke-linecap="round"/></g><g data-paper-data="{&quot;index&quot;:null}" stroke="#000000" stroke-linecap="butt"><path d="M356.97738,232.16179c1.86609,-2.15341 -12.43297,-8.51392 -19.47191,-15.17545c-5.7077,-5.40168 -7.05471,-11.78785 -0.02442,-10.83744c6.11484,5.29898 78.33071,4.70154 56.49893,29.89464c-21.83179,25.1931 -44.48699,41.32048 -50.60183,36.02149c-6.11483,-5.29898 -8.23256,-14.71016 13.59923,-39.90325z" fill="#216aff" stroke-width="2"/><path d="M331.44077,243.17233c9.37076,-10.81352 25.95895,-11.78761 37.05075,-2.1757c11.09181,9.61191 12.487,26.17 3.11624,36.98351c-9.37076,10.81352 -25.95895,11.7876 -37.05075,2.17569c-11.09181,-9.6119 -12.48699,-26.16999 -3.11623,-36.9835z" fill="#faddbf" stroke-width="2"/><path d="M369.11374,260.3769c9.37075,-10.81353 12.12778,5.88301 2.75702,16.69652c-9.37076,10.81353 -25.95895,11.78761 -37.05075,2.1757c-11.09181,-9.61191 24.92295,-8.05871 34.29371,-18.87222z" fill="#ef8b89" stroke-width="0"/></g><path d="M349.89551,171.64065c0.82045,-0.94305 1.7635,-0.12259 1.7635,-0.12259l0.61989,0.62432c1.15359,1.95669 2.15144,4.30267 4.39839,5.27508c1.3203,0.57137 3.62757,0.29521 3.77013,-1.40489c0.31899,-3.80413 -3.93401,-7.52014 -5.86689,-10.35742c0,0 -0.70319,-1.03344 0.33025,-1.73664c1.03345,-0.7032 1.73664,0.33024 1.73664,0.33024c2.28708,3.36533 6.88992,7.5021 6.28489,12.03823c-0.45121,3.38288 -4.21882,4.65472 -7.17032,3.4569c-2.84691,-1.15537 -4.18332,-3.87064 -5.63625,-6.33108l-0.10765,-0.00864c0,0 -0.94306,-0.82046 -0.12259,-1.76351z" data-paper-data="{&quot;index&quot;:null}" fill="#000000" stroke="none" stroke-width="0.5" stroke-linecap="butt"/></g></g></svg>