<svg version="1.1" xmlns="http://www.w3.org/2000/svg" xmlns:xlink="http://www.w3.org/1999/xlink" width="200.54547" height="305.03926" viewBox="0,0,200.54547,305.03926"><g transform="translate(-242.94256,-38.35822)"><g data-paper-data="{&quot;isPaintingLayer&quot;:true}" fill-rule="nonzero" stroke-linejoin="miter" stroke-miterlimit="10" stroke-dasharray="" stroke-dashoffset="0" style="mix-blend-mode: normal"><g data-paper-data="{&quot;index&quot;:null}" stroke="#000000" stroke-linecap="butt"><path d="M353.56267,212.34808c1.7149,-2.27565 -12.98461,-7.64627 -20.46143,-13.8123c-6.06277,-4.99988 -7.84213,-11.27934 -0.76339,-10.81055c6.46195,4.86966 78.46897,-0.65092 58.40598,25.97229c-20.063,26.62321 -41.56572,44.25795 -48.02767,39.38828c-6.46195,-4.86966 -9.2165,-14.11453 10.8465,-40.73773z" fill="#303145" stroke-width="2"/><path d="M365.65246,220.37718c11.72144,8.83317 14.24251,25.25757 5.63096,36.68492c-8.61155,11.42735 -25.0947,13.53035 -36.81614,4.69718c-11.72144,-8.83317 -14.2425,-25.25756 -5.63095,-36.68491c8.61155,-11.42735 25.09469,-13.53036 36.81613,-4.69719z" fill="#faddbf" stroke-width="2"/><path d="M371.48396,256.13952c-8.61154,11.42736 -25.09469,13.53036 -36.81613,4.69719c-11.72144,-8.83317 24.31541,-9.73949 32.92696,-21.16684c8.61155,-11.42737 12.50072,5.0423 3.88917,16.46965z" fill="#ef8b89" stroke-width="0"/></g><g stroke="#000000" stroke-linecap="butt"><path d="M358.89854,330.28776l-52.63568,-79.43933l24.58498,-16.28976l52.63568,79.43933z" fill="#7485a3" stroke-width="2"/><path d="M358.28567,329.95257l-50.69649,-78.91381c0,0 41.95868,53.90567 48.14082,61.10499c1.36669,1.59154 3.64359,0.93251 3.64359,0.93251l22.76798,0.67558z" fill="#49374f" stroke-width="0"/></g><g data-paper-data="{&quot;index&quot;:null}" stroke="#000000" stroke-linecap="butt"><path d="M274.56834,319.85545l26.96491,-91.4003l28.28669,8.34513l-26.96491,91.4003z" fill="#7485a3" stroke-width="2"/><path d="M275.77867,319.22582l21.56398,-7.33701c0,0 2.37004,-0.03922 3.20862,-1.96213c3.79333,-8.69827 28.0568,-72.55463 28.0568,-72.55463l-25.2658,90.32807z" fill="#49374f" stroke-width="0"/></g><g stroke="#000000" stroke-linecap="butt"><path d="M358.55338,219.29158c0,13.80271 10.04743,36.74388 4.95001,46.45977c-6.2338,11.88187 -28.61241,9.09579 -38.9397,9.09579c-13.66287,0 -32.94407,4.17018 -38.34426,-14.83216c-2.01935,-7.10576 4.35457,-32.37264 4.35457,-40.7234c0,-30.68249 15.2177,-55.55556 33.98969,-55.55556c18.77199,0 33.98969,24.87307 33.98969,55.55556z" fill="#585858" stroke-width="2"/><path d="M307.28975,234.86815c0,13.80271 62.04198,20.54886 56.94455,30.26474c-6.2338,11.88186 -28.61241,9.09579 -38.9397,9.09579c-13.66287,0 -32.94406,4.17018 -38.34425,-14.83215c-2.01936,-7.10576 4.35457,-32.37265 4.35457,-40.7234c0,-9.45244 3.34855,-28.59801 5.51953,-29.96813c5.94391,-16.76415 10.4653,25.13995 10.4653,46.16315z" fill="#303145" stroke-width="0"/></g><g stroke="#000000" stroke-linecap="butt"><g><path d="M272.25968,112.64407c7.85564,-46.12664 51.61693,-77.15141 97.74357,-69.29577c46.12664,7.85564 77.15141,51.61693 69.29577,97.74357c-7.85564,46.12664 -51.61693,77.15141 -97.74357,69.29577c-46.12664,-7.85564 -77.15141,-51.61693 -69.29577,-97.74357z" fill="#faddbf" stroke-width="2"/><path d="M272.63315,111.82565c2.52744,-14.8406 15.41971,-38.9756 20.40437,-41.38713c0.56926,-0.27541 7.20022,-7.81234 15.74162,-13.17093c10.61637,-6.66036 23.55678,-11.36278 24.12579,-11.06597c7.42397,3.87237 -28.16617,60.99186 -31.19074,86.13082c-0.00722,0.05995 1.03722,20.1619 2.55904,20.8663c2.04834,5.1596 5.76597,20.41113 15.29408,29.27677c17.75676,16.52215 44.94311,27.61757 43.39596,27.8671c-2.47487,0.39914 -15.05749,0.24452 -21.03434,-0.77338c-46.12664,-7.85564 -77.15141,-51.61693 -69.29577,-97.74357z" fill="#ef8b89" stroke-width="0"/><path d="M438.85993,140.5523c-1.9516,11.45934 -4.18137,15.1538 -4.4147,13.23568c-0.23805,-1.95684 1.46357,-9.70567 -6.45479,-15.95946c-1.91877,-1.51542 -11.11505,4.47346 -13.59775,2.80481c-1.55942,-1.04811 -6.82098,-11.48371 -8.594,-12.47143c-1.23966,-0.6906 -13.67989,6.16843 -14.98391,5.48921c-3.25228,-1.69401 -9.90885,-13.22485 -13.49635,-14.5033c-1.97553,-0.70401 -11.14048,10.1231 -13.17695,9.51877c-2.62628,-0.77936 -7.89955,-13.58754 -10.59809,-14.04711c-7.17652,-1.2222 -8.55064,5.65551 -14.72249,10.6971c-4.01062,3.27615 -11.5986,-15.21512 -15.4227,-11.36732c-4.74907,4.7785 -9.42651,9.36808 -14.21168,12.20459c-3.75414,2.22536 -11.47932,-12.19725 -14.75398,-10.09947c-15.81097,10.12863 -25.37394,16.61962 -22.32309,-1.29428c6.13468,-36.0215 44.05217,-0.8294 88.85512,-15.03081c42.88494,-13.59344 84.03005,4.80154 77.89537,40.82304z" fill="#ef8b89" stroke-width="0"/></g><path d="M441.76733,132.61689c-3.94259,23.15002 4.97579,9.6882 -11.1596,-2.77319c-1.9745,-1.52491 -11.38007,4.42832 -13.93361,2.74761c-1.60391,-1.05568 -7.04565,-11.52197 -8.86836,-12.51815c-1.27441,-0.69652 -14.00319,6.11337 -15.34354,5.42796c-3.34291,-1.70944 -10.22015,-13.27786 -13.90505,-14.57291c-2.02916,-0.71315 -11.38152,10.08205 -13.47276,9.46839c-2.69691,-0.79138 -8.16101,-13.63206 -10.93062,-14.10375c-7.36556,-1.2544 -8.74487,5.62243 -15.05273,10.64086c-4.099,3.2611 -11.96183,-15.27698 -15.86705,-11.443c-4.8498,4.76135 -9.62698,9.33394 -14.52226,12.1517c-3.84054,2.21065 -11.82634,-12.25635 -15.17568,-10.17129c-16.17155,10.06722 -25.95102,16.52134 -22.90017,-1.39256c6.13468,-36.0215 52.93895,-73.41112 98.21391,-65.70052c45.27494,7.71059 79.05223,56.21736 72.91756,92.23885z" fill="#724e36" stroke-width="2"/><path d="M441.71834,131.42902c-3.94259,23.15002 4.97579,9.6882 -11.1596,-2.77319c-1.9745,-1.52491 -11.38007,4.42832 -13.93361,2.74761c-1.60391,-1.05568 -7.04565,-11.52197 -8.86837,-12.51815c-1.27441,-0.69652 -14.00319,6.11337 -15.34354,5.42796c-3.34291,-1.70944 -10.22015,-13.27786 -13.90505,-14.57291c-2.02916,-0.71315 -11.38152,10.08205 -13.47276,9.46839c-2.69691,-0.79138 -8.16101,-13.63206 -10.93062,-14.10375c-7.36556,-1.2544 -8.74487,5.62243 -15.05273,10.64086c-4.099,3.2611 -11.96183,-15.27698 -15.86705,-11.443c-4.8498,4.76135 -9.62698,9.33394 -14.52227,12.1517c-3.84054,2.21065 -11.82634,-12.25635 -15.17568,-10.17129c-16.17155,10.06722 -25.95102,16.52134 -22.90017,-1.39256c6.13468,-36.0215 45.1762,-0.63797 91.06412,-14.6546c43.92345,-13.41657 86.20201,5.17144 80.06733,41.19293z" fill="#623728" stroke-width="0"/></g><g stroke="#000000" stroke-linecap="butt"><path d="M370.50207,152.60746c-4.79472,28.15357 -20.2492,40.46421 -36.58257,37.68254c-16.33337,-2.78167 -27.36051,-19.6023 -22.56579,-47.75586c4.79472,-28.15357 21.92243,-48.72156 38.25579,-45.93989c16.33337,2.78167 25.68729,27.85964 20.89257,56.01321z" fill="#f0f0f0" stroke-width="2"/><path d="M327.69766,125.45325c-8.98151,27.10987 23.3216,66.90671 6.98823,64.12504c-16.33337,-2.78167 -27.36051,-19.6023 -22.56579,-47.75586c4.79472,-28.15357 28.56217,-55.56204 15.57756,-16.36918z" fill="#9a99ff" stroke-width="0"/></g><path d="M367.81447,159.48714c-2.65637,15.59763 -9.43214,27.4548 -15.1341,26.48372c-5.70196,-0.97108 -8.1709,-14.40267 -5.51453,-30.0003c2.65637,-15.59763 9.43214,-27.4548 15.1341,-26.48372c5.70196,0.97108 8.1709,14.40267 5.51453,30.0003z" fill="#000000" stroke="none" stroke-width="0" stroke-linecap="butt"/><g stroke="#000000" stroke-linecap="butt"><path d="M370.63993,121.96094c2.67869,10.8333 5.00672,29.58208 -10.48055,26.94451c-15.48727,-2.63757 -43.14983,-26.4615 -37.05525,-35.17722c5.79891,-8.29287 10.28936,-19.97498 25.77663,-17.3374c15.48727,2.63757 19.20633,15.24584 21.75916,25.57011z" fill="#a100fe" stroke-width="2"/><path d="M369.78826,121.45653c2.52879,10.80777 5.33942,29.63874 -9.61977,27.0911c-14.95919,-2.54764 -42.23622,-26.30591 -36.2944,-35.04765c5.65355,-8.31762 6.30363,2.04943 21.26282,4.59707c14.95919,2.54764 22.24137,-6.94048 24.65135,3.35947z" fill="#99008e" stroke-width="0"/></g><g data-paper-data="{&quot;index&quot;:null}" stroke="#000000" stroke-linecap="butt"><path d="M412.67989,105.8356c16.33337,2.78167 25.68729,27.85964 20.89257,56.01321c-4.79472,28.15356 -20.76805,40.37585 -37.10142,37.59418c-16.33337,-2.78167 -26.84166,-19.51392 -22.04694,-47.6675c4.79472,-28.15357 21.92243,-48.72156 38.25579,-45.93989z" fill="#f0f0f0" stroke-width="2"/><path d="M433.08486,160.92354c-4.79472,28.15356 -20.76805,40.37585 -37.10142,37.59418c-16.33337,-2.78167 27.32192,-29.64233 27.8204,-58.19692c0.72065,-41.28149 14.07574,-7.55083 9.28102,20.60274z" fill="#9a99ff" stroke-width="0"/></g><path d="M426.01252,136.71461c5.70196,0.97108 8.1709,14.40267 5.51453,30.0003c-2.65637,15.59763 -9.43214,27.4548 -15.1341,26.48372c-5.70196,-0.97108 -8.1709,-14.40267 -5.51453,-30.0003c2.65637,-15.59763 9.43214,-27.4548 15.1341,-26.48372z" data-paper-data="{&quot;index&quot;:null}" fill="#000000" stroke="none" stroke-width="0" stroke-linecap="butt"/><g data-paper-data="{&quot;index&quot;:null}" stroke="#000000" stroke-linecap="butt"><path d="M384.4048,123.00809c5.82637,-8.89725 13.50925,-19.56369 28.99652,-16.92611c15.48727,2.63757 15.85767,15.14752 18.58464,24.89239c2.86601,10.24176 -30.35944,21.46442 -45.8467,18.82685c-15.48727,-2.63757 -7.8481,-17.45721 -1.73447,-26.79312z" fill="#a100fe" stroke-width="2"/><path d="M385.37542,122.81406c5.68351,-8.92158 9.4145,2.44215 24.37369,4.98979c14.95919,2.54764 19.00423,-7.0198 21.58585,2.70032c2.71324,10.21575 -31.73754,21.4326 -46.69673,18.88496c-14.95919,-2.54764 -5.22655,-17.21362 0.73718,-26.57506z" fill="#99008e" stroke-width="0"/></g><path d="M411.05698,293.37055c6.44189,9.72229 -0.43987,25.62371 -15.37084,35.51683c-14.93098,9.8931 -32.2571,10.03157 -38.69899,0.30929c-1.28774,-1.9435 -7.62816,-11.45217 -7.45313,-13.22152c0.7005,-7.08166 17.75936,-5.45558 29.7056,-13.37102c14.93098,-9.8931 25.37549,-18.95587 31.81737,-9.23357z" fill="#000082" stroke="#000000" stroke-width="2" stroke-linecap="butt"/><path d="M407.97538,292.13474c3.48441,5.25879 -5.95096,16.16702 -20.88194,26.06013c-14.93098,9.8931 -26.78011,14.19645 -30.26453,8.93766c-0.69654,-1.05125 -6.94651,-10.42344 -6.42198,-11.6653c2.09936,-4.97044 16.15334,-3.77826 28.09957,-11.69371c14.93098,-9.8931 25.98446,-16.89757 29.46888,-11.63878z" fill="#2e0048" stroke="#000000" stroke-width="0" stroke-linecap="butt"/><path d="M245.1439,310.97905c3.30014,-11.18616 15.94686,-5.59313 33.12596,-0.52497c13.74495,4.05503 29.5726,-2.51266 32.32338,4.0504c0.68727,1.63977 -2.57863,12.59192 -3.23833,14.82805c-3.30014,11.18616 -19.90184,16.14576 -37.08093,11.07758c-17.17909,-5.06817 -28.43021,-18.24491 -25.13007,-29.43106z" data-paper-data="{&quot;index&quot;:null}" fill="#000082" stroke="#000000" stroke-width="2" stroke-linecap="butt"/><path d="M279.31425,311.35635c13.74495,4.05503 26.82793,-1.2148 30.29534,2.91915c0.86633,1.03286 -2.35325,11.82798 -2.71009,13.0375c-1.78504,6.05059 -14.37563,5.41962 -31.55472,0.35145c-17.1791,-5.06818 -29.40361,-12.72174 -27.61857,-18.77234c1.78504,-6.05059 14.40894,-2.60394 31.58803,2.46423z" data-paper-data="{&quot;index&quot;:null}" fill="#2e0048" stroke="#000000" stroke-width="0" stroke-linecap="butt"/><g><path d="M300.41745,248.77363c-14.39416,-4.52009 -20.52802,-14.39865 -16.72211,-28.84249c2.97661,-11.29668 18.89146,-19.942 33.28564,-15.4219c14.39424,4.52009 21.92997,17.10485 17.45497,31.35559c-0.6998,2.22854 -2.00705,4.07755 -3.18523,5.77748c-6.35585,9.17027 -18.69005,10.94457 -30.83325,7.13133z" fill="#485e84" stroke="#000000" stroke-width="2" stroke-linecap="butt"/><path d="M303.24944,205.52422c0,0 -2.14037,5.3432 -0.96949,6.96875c11.23135,15.59264 24.28148,20.78032 28.7287,22.16672c1.01039,0.31499 1.84867,-0.43211 1.84867,-0.43211c0,0 -0.418,2.07204 -1.78587,4.44753c-1.45553,2.52772 -3.94083,5.4134 -6.5694,7.00581c-3.00257,1.81896 -11.00556,4.15579 -11.00556,4.15579l-20.72096,-3.08227c0,0 -7.23084,-11.34328 -7.69435,-13.46037c-0.45411,-2.07405 -0.39658,-4.6585 -0.44601,-7.40887c-0.07673,-4.27032 1.4232,-8.55484 3.10093,-10.89577c2.14123,-2.98754 5.93418,-5.70146 9.37487,-7.35193c3.20222,-1.53605 6.13842,-2.11315 6.13842,-2.11315z" fill="#343545" stroke="none" stroke-width="0" stroke-linecap="butt"/><path d="M298.21367,229.43678c0,0 0.86113,-8.9809 4.37556,-12.75303c4.44889,-4.77513 15.58185,-11.42038 15.58185,-11.42038" fill="none" stroke="#000000" stroke-width="1" stroke-linecap="round"/><path d="M334.94383,228.7947c0,0 -3.53235,6.2171 -6.48602,9.33921c-2.98183,3.15196 -11.70692,7.3976 -11.70692,7.3976" fill="none" stroke="#000000" stroke-width="1" stroke-linecap="round"/><path d="M287.24498,229.22667c0,0 0.74623,-9.23198 4.73893,-13.14443c6.12668,-6.0035 15.82673,-12.35998 15.82673,-12.35998" fill="none" stroke="#000000" stroke-width="1" stroke-linecap="round"/><path d="M287.66679,213.9486c0,0 16.24736,-5.95804 30.60047,3.91781c15.722,10.81773 10.24377,27.17253 10.24377,27.17253" fill="none" stroke="#000000" stroke-width="1" stroke-linecap="round"/><path d="M283.62674,222.57317c0,0 17.49285,-3.29586 30.17704,5.39154c10.41486,7.13316 7.08908,21.34083 7.08908,21.34083" fill="none" stroke="#000000" stroke-width="1" stroke-linecap="round"/><path d="M326.88891,216.29547c-0.78974,-0.90747 -0.84752,-2.14992 -0.12915,-2.77509c0.71837,-0.62524 1.25829,-0.04003 2.04802,0.86745c0.78974,0.90747 1.53019,1.79354 0.81181,2.41874c-0.71837,0.62524 -1.94099,0.39639 -2.73068,-0.51108z" fill="#8fbbbe" stroke="none" stroke-width="0" stroke-linecap="butt"/><path d="M330.87051,222.37869c-0.57385,-0.18023 -0.81993,-1.02407 -0.54963,-1.88485c0.2703,-0.86079 0.4995,-1.17491 1.07336,-0.99473c0.57385,0.18023 0.99313,1.07846 0.72279,1.93923c-0.2703,0.86079 -0.67271,1.12053 -1.24654,0.94033z" fill="#8fbbbe" stroke="none" stroke-width="0" stroke-linecap="butt"/><path d="M322.29873,211.11919c-0.82711,-0.36051 -1.30274,-1.09967 -1.06244,-1.65105c0.24026,-0.55136 0.94246,-0.18663 1.76955,0.17383c0.82711,0.36051 1.46589,0.58012 1.2256,1.13152c-0.24026,0.55136 -1.10563,0.70616 -1.93271,0.34568z" fill="#8fbbbe" stroke="none" stroke-width="0" stroke-linecap="butt"/><path d="M298.9058,206.63356c0,0 10.22777,-0.26872 17.33966,2.34678c4.03208,1.48287 7.07387,4.18172 9.35708,6.25371c2.01918,1.83233 4.7676,7.80492 6.39555,12.59533c1.19858,3.52691 1.60629,6.44252 1.60629,6.44252" fill="none" stroke="#000000" stroke-width="0.5" stroke-linecap="round"/><path d="M332.16985,214.60593c0,0 -3.55298,9.95763 -7.10503,14.03195c-2.99267,3.43271 -12.47174,8.9292 -12.47174,8.9292" fill="none" stroke="#000000" stroke-width="1" stroke-linecap="round"/><path d="M307.71407,234.32263c0,0 3.34968,-9.06685 5.93513,-12.77713c4.53956,-6.51455 13.67589,-11.50497 13.67589,-11.50497" fill="none" stroke="#000000" stroke-width="1" stroke-linecap="round"/></g><g stroke="#000000" stroke-linecap="butt"><path d="M285.18087,226.85528c27.28124,19.1586 27.5048,28.80253 22.85466,35.42419c-4.65016,6.62167 -30.53567,-3.54155 -57.81692,-22.70016c-27.28124,-19.15862 42.93122,-36.06124 47.58139,-42.68291c6.5911,-2.62406 6.83014,3.89825 2.59988,10.52099c-5.21692,8.1674 -17.55088,17.80029 -15.219,19.43789z" fill="#585858" stroke-width="2"/><path d="M312.62338,231.35633c11.7098,8.22336 14.36456,24.62668 5.92957,36.63783c-8.43499,12.01115 -24.76558,15.08177 -36.47539,6.85841c-11.7098,-8.22336 -14.36456,-24.62669 -5.92956,-36.63784c8.43499,-12.01115 24.76559,-15.08176 36.47538,-6.8584z" fill="#faddbf" stroke-width="2"/><path d="M280.23595,257.16917c11.7098,8.22336 46.27731,-2.00223 37.84231,10.00892c-8.43499,12.01115 -24.76558,15.08177 -36.47538,6.8584c-11.7098,-8.22336 -13.07674,-25.09069 -1.36694,-16.86732z" fill="#ef8b89" stroke-width="0"/></g><path d="M299.32604,187.16788l15.58007,-91.48279c0,0 22.35698,-4.9163 32.79247,-3.13907c11.25582,1.91693 32.46788,14.2533 32.46788,14.2533l-15.58007,91.48279c0,0 -25.00978,1.62419 -36.26561,-0.29274c-10.4355,-1.77723 -28.99475,-10.82149 -28.99475,-10.82149z" fill-opacity="0.74902" fill="#fffe00" stroke="#000000" stroke-width="2.5" stroke-linecap="butt"/><path d="M297.58773,160.52957c0,6.58062 -1.9758,11.91527 -4.41306,11.91527c-2.43727,0 -4.41306,-5.33465 -4.41306,-11.91527c0,-6.58062 1.9758,-11.91527 4.41306,-11.91527c2.43727,0 4.41306,5.33465 4.41306,11.91527z" fill="#000000" stroke="none" stroke-width="0" stroke-linecap="butt"/></g></g></svg>