<svg version="1.1" xmlns="http://www.w3.org/2000/svg" xmlns:xlink="http://www.w3.org/1999/xlink" width="205.98049" height="276.24439" viewBox="0,0,205.98049,276.24439"><g transform="translate(-203.33698,-85.42213)"><g data-paper-data="{&quot;isPaintingLayer&quot;:true}" fill-rule="nonzero" stroke-linecap="butt" stroke-linejoin="miter" stroke-miterlimit="10" stroke-dasharray="" stroke-dashoffset="0" style="mix-blend-mode: normal"><g data-paper-data="{&quot;index&quot;:null}" stroke="#000000"><path d="M281.06055,260.69312c20.063,26.6232 17.30845,35.86807 10.8465,40.73773c-6.46195,4.86967 -27.96467,-12.76507 -48.02767,-39.38828c-20.06299,-26.62321 51.94403,-21.10263 58.40598,-25.97229c7.07874,-0.46879 5.29938,5.81067 -0.76339,10.81055c-7.47682,6.16603 -22.17633,11.53665 -20.46143,13.8123z" fill="#216aff" stroke-width="2"/><path d="M305.78688,273.41944c8.61155,11.42735 6.09049,27.85174 -5.63095,36.68491c-11.72144,8.83317 -28.20459,6.73017 -36.81614,-4.69718c-8.61155,-11.42735 -6.09048,-27.85175 5.63096,-36.68492c11.72144,-8.83317 28.20458,-6.73016 36.81613,4.69719z" fill="#faddbf" stroke-width="2"/><path d="M267.02842,288.01493c8.61155,11.42735 44.6484,12.33367 32.92696,21.16684c-11.72144,8.83317 -28.20459,6.73017 -36.81613,-4.69719c-8.61155,-11.42735 -4.72238,-27.89702 3.88917,-16.46965z" fill="#ef8b89" stroke-width="0"/></g><g data-paper-data="{&quot;index&quot;:null}" stroke="#000000"><path d="M361.97907,219.75285c7.56271,-32.46728 16.42288,-36.28208 24.30329,-34.44647c7.88043,1.83561 8.13795,29.6436 0.57523,62.11088c-7.56272,32.46727 -49.50241,-26.32517 -57.38282,-28.16079c-4.89907,-5.13102 1.06031,-7.79251 8.78467,-6.34669c9.52594,1.78303 23.07321,9.61821 23.71966,6.84305z" fill="#216aff" stroke-width="2"/><path d="M387.64795,173.41483c14.29442,3.32965 23.25085,17.32605 20.00474,31.26183c-3.24611,13.93578 -17.46553,22.53374 -31.75995,19.20409c-14.29441,-3.32964 -23.25084,-17.32604 -20.00473,-31.26182c3.24611,-13.93578 17.46552,-22.53375 31.75994,-19.2041z" fill="#faddbf" stroke-width="2"/><path d="M391.94195,212.99936c3.24611,-13.93578 -19.16769,-42.16868 -4.87328,-38.83903c14.29442,3.32965 23.25085,17.32605 20.00473,31.26183c-3.24611,13.93578 -18.37757,21.51298 -15.13145,7.5772z" fill="#ef8b89" stroke-width="0"/></g><g data-paper-data="{&quot;index&quot;:null}" stroke="#000000"><path d="M275.84666,340.83535v-95.29492h29.49199v95.29492z" fill="#73fffc" stroke-width="2"/><path d="M276.82937,339.88894l18.60659,-13.13896c0,0 2.26208,-0.70825 2.52228,-2.78987c1.17702,-9.41615 6.3799,-77.52842 6.3799,-77.52842l1.32626,93.78573z" fill="#59a9e6" stroke-width="0"/></g><g data-paper-data="{&quot;index&quot;:null}" stroke="#000000"><path d="M316.56252,339.73674v-95.29492h29.49199v95.29492z" fill="#73fffc" stroke-width="2"/><path d="M316.23677,339.11885l1.32626,-93.78573c0,0 5.20288,68.11227 6.3799,77.52842c0.2602,2.08162 2.52228,2.78987 2.52228,2.78987l18.60659,13.13896z" fill="#59a9e6" stroke-width="0"/></g><g data-paper-data="{&quot;index&quot;:null}" stroke="#000000"><path d="M311.86435,180.14033c18.77199,0 33.98969,24.87307 33.98969,55.55556c0,8.35076 6.37392,33.61764 4.35457,40.7234c-5.40019,19.00234 -24.68139,14.83216 -38.34426,14.83216c-10.32729,0 -32.7059,2.78608 -38.9397,-9.09579c-5.09742,-9.71589 4.95001,-32.65706 4.95001,-46.45977c0,-30.68249 15.2177,-55.55556 33.98969,-55.55556z" fill="#216aff" stroke-width="2"/><path d="M339.60359,205.10932c2.17098,1.37012 5.51953,20.51569 5.51953,29.96813c0,8.35075 6.37393,33.61764 4.35457,40.7234c-5.40019,19.00233 -24.68138,14.83215 -38.34425,14.83215c-10.32729,0 -32.7059,2.78607 -38.9397,-9.09579c-5.09743,-9.71588 56.94455,-16.46203 56.94455,-30.26474c0,-21.0232 4.52139,-62.9273 10.4653,-46.16315z" fill="#3236f4" stroke-width="0"/></g><g data-paper-data="{&quot;index&quot;:null}" stroke="#000000"><g><path d="M297.8165,258.37997c-46.62447,3.94165 -87.61641,-30.65961 -91.55807,-77.28408c-3.94165,-46.62447 30.65961,-87.61641 77.28408,-91.55807c46.62447,-3.94165 87.61642,30.65961 91.55807,77.28408c3.94166,46.62447 -30.65961,87.61642 -77.28408,91.55807z" fill="#faddbf" stroke-width="2"/><path d="M374.79738,165.97493c3.94166,46.62447 -30.65961,87.61642 -77.28408,91.55807c-6.04136,0.51074 -18.59227,-0.39525 -21.02471,-1.00147c-1.52062,-0.37898 26.50384,-9.14456 45.58942,-24.11201c10.24115,-8.0314 15.23046,-22.91551 17.7062,-27.8842c1.57576,-0.57369 4.31002,-20.51618 4.30788,-20.57653c-0.89592,-25.30441 -31.54735,-85.2192 -23.82353,-88.45236c0.592,-0.24781 13.09023,5.52809 23.10774,13.05917c8.05958,6.05913 14.032,14.12792 14.57603,14.4503c4.76378,2.82291 15.57689,27.95824 16.84506,42.95901z" fill="#ef8b89" stroke-width="0"/><path d="M206.74141,180.59525c-3.07814,-36.41027 39.47043,-51.27347 81.05769,-34.1154c43.44723,17.92547 84.19477,-13.94706 87.27291,22.46321c1.5308,18.10724 -7.45131,10.83366 -22.35276,-0.591c-3.08629,-2.3662 -11.99908,11.3543 -15.55239,8.82058c-4.52919,-3.22957 -8.80334,-8.1969 -13.13295,-13.35851c-3.48633,-4.15628 -12.60518,13.62998 -16.32553,10.02758c-5.72517,-5.54363 -6.51497,-12.51266 -13.76895,-11.89941c-2.72766,0.2306 -9.06124,12.54898 -11.74385,13.10431c-2.08014,0.43061 -10.30035,-11.13013 -12.32817,-10.59506c-3.68244,0.97168 -11.28681,11.90072 -14.67023,13.31471c-1.35661,0.56695 -13.17475,-7.31575 -14.46818,-6.73205c-1.84993,0.83483 -7.97197,10.79006 -9.61414,11.70306c-2.61445,1.45355 -11.27349,-5.2888 -13.31311,-3.94042c-8.41707,5.56446 -7.37433,13.42909 -7.77639,15.35893c-0.3941,1.89165 -2.3047,-1.97753 -3.28393,-13.56055z" fill="#ef8b89" stroke-width="0"/></g><path d="M204.51286,172.4431c-3.07814,-36.41027 34.66565,-81.89892 80.42924,-85.76779c45.7636,-3.86888 89.25148,37.33097 92.32962,73.74124c1.5308,18.10724 -7.67016,10.85217 -22.93608,-0.54168c-3.16177,-2.35982 -12.33799,11.38296 -15.97863,8.85661c-4.64049,-3.22016 -9.01545,-8.17896 -13.44688,-13.33197c-3.56833,-4.14936 -12.965,13.6604 -16.77469,10.06556c-5.86264,-5.53202 -6.65769,-12.5006 -14.10274,-11.87119c-2.79951,0.23667 -9.32598,12.57137 -12.07997,13.13273c-2.1355,0.43529 -10.54514,-11.10944 -12.62717,-10.56978c-3.78091,0.98 -11.60831,11.92791 -15.08335,13.34964c-1.39333,0.57005 -13.50313,-7.288 -14.83169,-6.70132c-1.90016,0.83908 -8.20432,10.8097 -9.89146,11.72651c-2.68605,1.4596 -11.55664,-5.26487 -13.65259,-3.91172c-17.12787,11.05773 -9.37533,25.22303 -11.35357,1.82316z" fill="#724e36" stroke-width="2"/><path d="M204.66179,171.26357c-3.07814,-36.41027 40.61611,-51.37032 83.25309,-34.30099c44.54391,17.83275 86.42762,-14.13583 89.50576,22.27444c1.5308,18.10724 -7.67016,10.85217 -22.93608,-0.54168c-3.16177,-2.35982 -12.33799,11.38296 -15.97863,8.85661c-4.6405,-3.22016 -9.01546,-8.17896 -13.44689,-13.33196c-3.56833,-4.14935 -12.96499,13.66039 -16.77468,10.06555c-5.86264,-5.53202 -6.65769,-12.5006 -14.10274,-11.87119c-2.79951,0.23667 -9.32598,12.57136 -12.07997,13.13272c-2.1355,0.43529 -10.54514,-11.10944 -12.62717,-10.56978c-3.78091,0.98 -11.6083,11.92791 -15.08335,13.34964c-1.39333,0.57005 -13.50314,-7.288 -14.8317,-6.70132c-1.90017,0.83909 -8.20433,10.80971 -9.89147,11.72651c-2.68605,1.4596 -11.55664,-5.26487 -13.65259,-3.91173c-17.12787,11.05773 -9.37533,25.22304 -11.35357,1.82317z" fill="#623728" stroke-width="0"/></g><g data-paper-data="{&quot;index&quot;:null}" stroke="#000000"><path d="M321.64869,161.60441c16.50964,-1.39574 31.84366,20.5421 34.24946,48.99953c2.4058,28.45741 -9.99925,44.28923 -26.50889,45.68496c-16.50964,1.39574 -30.87203,-12.17314 -33.27784,-40.63057c-2.4058,-28.45742 9.02763,-52.65819 25.53727,-54.05392z" fill="#f0f0f0" stroke-width="2"/><path d="M355.19444,209.8302c2.4058,28.45741 -9.99924,44.28923 -26.50888,45.68497c-16.50964,1.39574 19.03141,-35.53816 12.36577,-63.30832c-9.63654,-40.14745 11.7373,-10.83407 14.14311,17.62336z" fill="#9a99ff" stroke-width="0"/></g><path d="M318.88374,189.03048c5.7635,-0.48725 11.51624,11.89861 12.8491,27.66458c1.33286,15.76597 -2.25888,28.94181 -8.02238,29.42906c-5.7635,0.48725 -11.51625,-11.8986 -12.84911,-27.66457c-1.33286,-15.76597 2.25889,-28.94181 8.02239,-29.42906z" data-paper-data="{&quot;index&quot;:null}" fill="#000000" stroke="none" stroke-width="0"/><g data-paper-data="{&quot;index&quot;:null}" stroke="#000000"><path d="M298.04702,180.70623c3.41354,-10.0725 8.1816,-22.32261 23.83602,-23.64604c15.65442,-1.32343 19.14471,10.69546 24.22435,19.44738c5.33864,9.19819 -22.67626,42.88422 -38.33068,44.20765c-15.65442,1.32343 -13.31155,-29.43987 -9.7297,-40.00898z" fill="#a100fe" stroke-width="2"/><path d="M298.95252,180.44525c3.26915,-10.06029 9.72609,0.0076 24.84673,-1.2707c15.12064,-1.2783 16.64181,-11.55374 21.57452,-2.78939c5.18422,9.21124 -24.02166,42.95888 -39.14229,44.23718c-15.12064,1.2783 -10.7093,-29.62077 -7.27897,-40.17708z" fill="#99008e" stroke-width="0"/></g><g data-paper-data="{&quot;index&quot;:null}" stroke="#000000"><path d="M291.93247,210.45136c2.4058,28.45743 -9.4748,44.24489 -25.98444,45.64063c-16.50965,1.39574 -31.39648,-12.12882 -33.80229,-40.58623c-2.4058,-28.45742 9.02763,-52.65818 25.53728,-54.05392c16.50964,-1.39574 31.84365,20.5421 34.24945,48.99953z" fill="#f0f0f0" stroke-width="2"/><path d="M243.69332,194.87726c-1.90895,28.49507 39.32818,58.93809 22.81853,60.33382c-16.50965,1.39574 -31.39649,-12.12882 -33.80229,-40.58623c-2.4058,-28.45742 13.74354,-60.94304 10.98376,-19.74759z" fill="#9a99ff" stroke-width="0"/></g><path d="M289.31936,216.92509c1.33286,15.76597 -2.25888,28.94181 -8.02238,29.42906c-5.7635,0.48725 -11.51625,-11.8986 -12.84911,-27.66457c-1.33286,-15.76597 2.25889,-28.94181 8.02239,-29.42906c5.7635,-0.48725 11.51624,11.8986 12.8491,27.66457z" data-paper-data="{&quot;index&quot;:null}" fill="#000000" stroke="none" stroke-width="0"/><g data-paper-data="{&quot;index&quot;:null}" stroke="#000000"><path d="M284.24039,180.77492c5.30536,9.81779 13.74131,39.46409 -1.91312,40.78752c-15.65442,1.32343 -49.88871,-26.89427 -46.17004,-36.85817c3.53826,-9.48049 4.96128,-21.91475 20.6157,-23.23818c15.65442,-1.32343 22.41137,9.95236 27.46745,19.30883z" fill="#a100fe" stroke-width="2"/><path d="M283.23032,179.79907c5.15385,9.83059 14.0041,40.08346 -1.11654,41.36176c-15.12064,1.2783 -48.89174,-27.62014 -45.32749,-37.57098c3.39133,-9.46807 6.61596,0.40615 21.7366,-0.87216c15.12064,-1.2783 19.79573,-12.28731 24.70742,-2.91863z" fill="#99008e" stroke-width="0"/></g><path d="M241.46751,338.87003c0,-11.6628 13.71248,-9.87692 31.62358,-9.87692c14.33063,0 27.65301,-10.77791 32.14847,-5.26144c1.12318,1.37828 1.08979,12.80695 1.08979,15.13837c0,11.6628 -14.51982,21.11737 -32.43092,21.11737c-17.9111,0 -32.43092,-9.45457 -32.43092,-21.11737z" data-paper-data="{&quot;index&quot;:null}" fill="#000082" stroke="#000000" stroke-width="2"/><path d="M274.34813,329.56302c14.33063,0 25.38775,-8.75646 29.88321,-5.7726c1.12318,0.74551 1.0898,12.01046 1.0898,13.27153c0,6.30841 -12.25456,9.26589 -30.16566,9.26589c-17.91111,0 -31.80169,-3.88169 -31.80169,-10.1901c0,-6.30841 13.08324,-6.57472 30.99434,-6.57472z" data-paper-data="{&quot;index&quot;:null}" fill="#2e0048" stroke="#000000" stroke-width="0"/><path d="M376.7881,339.54915c0,11.6628 -14.51982,21.11737 -32.43092,21.11737c-17.9111,0 -32.43092,-9.45457 -32.43092,-21.11737c0,-2.33142 -0.03339,-13.76009 1.08979,-15.13837c4.49546,-5.51647 17.81784,5.26144 32.14847,5.26144c17.9111,0 31.62358,-1.78588 31.62358,9.87692z" data-paper-data="{&quot;index&quot;:null}" fill="#000082" stroke="#000000" stroke-width="2"/><path d="M374.90182,336.81684c0,6.30841 -13.89058,10.1901 -31.80169,10.1901c-17.9111,0 -30.16566,-2.95748 -30.16566,-9.26589c0,-1.26107 -0.03338,-12.52602 1.0898,-13.27153c4.49546,-2.98386 15.55258,5.7726 29.88321,5.7726c17.9111,0 30.99434,0.26631 30.99434,6.57472z" data-paper-data="{&quot;index&quot;:null}" fill="#2e0048" stroke="#000000" stroke-width="0"/><path d="M377.61327,199.3854c3.36712,8.86675 2.13096,17.56066 -2.76104,19.41838c-4.892,1.85772 -11.58735,-3.82422 -14.95447,-12.69098c-3.36712,-8.86675 -2.13096,-17.56066 2.76104,-19.41838c4.892,-1.85772 11.58735,3.82422 14.95447,12.69098z" fill="#000000" stroke="none" stroke-width="0"/></g></g></svg>